%TF.GenerationSoftware,KiCad,Pcbnew,9.0.3*%
%TF.CreationDate,2026-03-08T16:46:48-04:00*%
%TF.ProjectId,StinkyController MK2,5374696e-6b79-4436-9f6e-74726f6c6c65,rev?*%
%TF.SameCoordinates,Original*%
%TF.FileFunction,Drillmap*%
%TF.FilePolarity,Positive*%
%FSLAX45Y45*%
G04 Gerber Fmt 4.5, Leading zero omitted, Abs format (unit mm)*
G04 Created by KiCad (PCBNEW 9.0.3) date 2026-03-08 16:46:48*
%MOMM*%
%LPD*%
G01*
G04 APERTURE LIST*
%ADD10C,0.100000*%
%ADD11C,0.200000*%
%ADD12C,0.150000*%
%ADD13C,0.180000*%
%ADD14C,0.350000*%
G04 APERTURE END LIST*
D10*
X10400006Y-15000000D02*
G75*
G02*
X10100010Y-14699994I5J300000D01*
G01*
X19600110Y-14700000D02*
G75*
G02*
X19300110Y-15000000I-300000J0D01*
G01*
X10100110Y-9043548D02*
X10100006Y-14699994D01*
X10300110Y-8843548D02*
X11850770Y-8843548D01*
X12049998Y-6899469D02*
X12050763Y-8641838D01*
X19300095Y-6700015D02*
X12249998Y-6700360D01*
X19300095Y-6700015D02*
G75*
G02*
X19600105Y-7000015I15J-299995D01*
G01*
X10400006Y-15000000D02*
X19300110Y-15000000D01*
X12050770Y-8643548D02*
G75*
G02*
X11850770Y-8843550I-200000J-2D01*
G01*
X19600110Y-14700000D02*
X19600110Y-7000015D01*
X12049998Y-6899469D02*
G75*
G02*
X12249998Y-6699468I200002J-1D01*
G01*
X10100110Y-9043548D02*
G75*
G02*
X10300110Y-8843550I200000J-2D01*
G01*
D11*
D12*
X16855610Y-14309000D02*
X17005610Y-14459000D01*
X17005610Y-14309000D02*
X16855610Y-14459000D01*
X17340610Y-14309000D02*
X17490610Y-14459000D01*
X17490610Y-14309000D02*
X17340610Y-14459000D01*
D13*
X16990610Y-14687000D02*
G75*
G02*
X16810610Y-14687000I-90000J0D01*
G01*
X16810610Y-14687000D02*
G75*
G02*
X16990610Y-14687000I90000J0D01*
G01*
X17535610Y-14687000D02*
G75*
G02*
X17355610Y-14687000I-90000J0D01*
G01*
X17355610Y-14687000D02*
G75*
G02*
X17535610Y-14687000I90000J0D01*
G01*
D14*
X10400000Y-14525000D02*
X10400000Y-14875000D01*
X10225000Y-14700000D02*
X10575000Y-14700000D01*
X19300000Y-14525000D02*
X19300000Y-14875000D01*
X19125000Y-14700000D02*
X19475000Y-14700000D01*
X19300110Y-6825360D02*
X19300110Y-7175360D01*
X19125110Y-7000360D02*
X19475110Y-7000360D01*
D11*
X10355782Y-15316484D02*
X10355782Y-15116484D01*
X10355782Y-15116484D02*
X10403401Y-15116484D01*
X10403401Y-15116484D02*
X10431973Y-15126008D01*
X10431973Y-15126008D02*
X10451020Y-15145055D01*
X10451020Y-15145055D02*
X10460544Y-15164103D01*
X10460544Y-15164103D02*
X10470068Y-15202198D01*
X10470068Y-15202198D02*
X10470068Y-15230769D01*
X10470068Y-15230769D02*
X10460544Y-15268865D01*
X10460544Y-15268865D02*
X10451020Y-15287912D01*
X10451020Y-15287912D02*
X10431973Y-15306960D01*
X10431973Y-15306960D02*
X10403401Y-15316484D01*
X10403401Y-15316484D02*
X10355782Y-15316484D01*
X10555782Y-15316484D02*
X10555782Y-15183150D01*
X10555782Y-15221246D02*
X10565306Y-15202198D01*
X10565306Y-15202198D02*
X10574830Y-15192674D01*
X10574830Y-15192674D02*
X10593878Y-15183150D01*
X10593878Y-15183150D02*
X10612925Y-15183150D01*
X10679592Y-15316484D02*
X10679592Y-15183150D01*
X10679592Y-15116484D02*
X10670068Y-15126008D01*
X10670068Y-15126008D02*
X10679592Y-15135531D01*
X10679592Y-15135531D02*
X10689116Y-15126008D01*
X10689116Y-15126008D02*
X10679592Y-15116484D01*
X10679592Y-15116484D02*
X10679592Y-15135531D01*
X10803401Y-15316484D02*
X10784354Y-15306960D01*
X10784354Y-15306960D02*
X10774830Y-15287912D01*
X10774830Y-15287912D02*
X10774830Y-15116484D01*
X10908163Y-15316484D02*
X10889116Y-15306960D01*
X10889116Y-15306960D02*
X10879592Y-15287912D01*
X10879592Y-15287912D02*
X10879592Y-15116484D01*
X11136735Y-15316484D02*
X11136735Y-15116484D01*
X11136735Y-15116484D02*
X11203401Y-15259341D01*
X11203401Y-15259341D02*
X11270068Y-15116484D01*
X11270068Y-15116484D02*
X11270068Y-15316484D01*
X11451020Y-15316484D02*
X11451020Y-15211722D01*
X11451020Y-15211722D02*
X11441497Y-15192674D01*
X11441497Y-15192674D02*
X11422449Y-15183150D01*
X11422449Y-15183150D02*
X11384354Y-15183150D01*
X11384354Y-15183150D02*
X11365306Y-15192674D01*
X11451020Y-15306960D02*
X11431973Y-15316484D01*
X11431973Y-15316484D02*
X11384354Y-15316484D01*
X11384354Y-15316484D02*
X11365306Y-15306960D01*
X11365306Y-15306960D02*
X11355782Y-15287912D01*
X11355782Y-15287912D02*
X11355782Y-15268865D01*
X11355782Y-15268865D02*
X11365306Y-15249817D01*
X11365306Y-15249817D02*
X11384354Y-15240293D01*
X11384354Y-15240293D02*
X11431973Y-15240293D01*
X11431973Y-15240293D02*
X11451020Y-15230769D01*
X11546258Y-15183150D02*
X11546258Y-15383150D01*
X11546258Y-15192674D02*
X11565306Y-15183150D01*
X11565306Y-15183150D02*
X11603401Y-15183150D01*
X11603401Y-15183150D02*
X11622449Y-15192674D01*
X11622449Y-15192674D02*
X11631973Y-15202198D01*
X11631973Y-15202198D02*
X11641497Y-15221246D01*
X11641497Y-15221246D02*
X11641497Y-15278388D01*
X11641497Y-15278388D02*
X11631973Y-15297436D01*
X11631973Y-15297436D02*
X11622449Y-15306960D01*
X11622449Y-15306960D02*
X11603401Y-15316484D01*
X11603401Y-15316484D02*
X11565306Y-15316484D01*
X11565306Y-15316484D02*
X11546258Y-15306960D01*
X11727211Y-15297436D02*
X11736735Y-15306960D01*
X11736735Y-15306960D02*
X11727211Y-15316484D01*
X11727211Y-15316484D02*
X11717687Y-15306960D01*
X11717687Y-15306960D02*
X11727211Y-15297436D01*
X11727211Y-15297436D02*
X11727211Y-15316484D01*
X11727211Y-15192674D02*
X11736735Y-15202198D01*
X11736735Y-15202198D02*
X11727211Y-15211722D01*
X11727211Y-15211722D02*
X11717687Y-15202198D01*
X11717687Y-15202198D02*
X11727211Y-15192674D01*
X11727211Y-15192674D02*
X11727211Y-15211722D01*
D12*
X9945006Y-15570000D02*
X10095006Y-15720000D01*
X10095006Y-15570000D02*
X9945006Y-15720000D01*
D11*
X10460544Y-15736484D02*
X10346259Y-15736484D01*
X10403401Y-15736484D02*
X10403401Y-15536484D01*
X10403401Y-15536484D02*
X10384354Y-15565055D01*
X10384354Y-15565055D02*
X10365306Y-15584103D01*
X10365306Y-15584103D02*
X10346259Y-15593627D01*
X10546259Y-15717436D02*
X10555782Y-15726960D01*
X10555782Y-15726960D02*
X10546259Y-15736484D01*
X10546259Y-15736484D02*
X10536735Y-15726960D01*
X10536735Y-15726960D02*
X10546259Y-15717436D01*
X10546259Y-15717436D02*
X10546259Y-15736484D01*
X10736735Y-15536484D02*
X10641497Y-15536484D01*
X10641497Y-15536484D02*
X10631973Y-15631722D01*
X10631973Y-15631722D02*
X10641497Y-15622198D01*
X10641497Y-15622198D02*
X10660544Y-15612674D01*
X10660544Y-15612674D02*
X10708163Y-15612674D01*
X10708163Y-15612674D02*
X10727211Y-15622198D01*
X10727211Y-15622198D02*
X10736735Y-15631722D01*
X10736735Y-15631722D02*
X10746259Y-15650769D01*
X10746259Y-15650769D02*
X10746259Y-15698388D01*
X10746259Y-15698388D02*
X10736735Y-15717436D01*
X10736735Y-15717436D02*
X10727211Y-15726960D01*
X10727211Y-15726960D02*
X10708163Y-15736484D01*
X10708163Y-15736484D02*
X10660544Y-15736484D01*
X10660544Y-15736484D02*
X10641497Y-15726960D01*
X10641497Y-15726960D02*
X10631973Y-15717436D01*
X10870068Y-15536484D02*
X10889116Y-15536484D01*
X10889116Y-15536484D02*
X10908163Y-15546008D01*
X10908163Y-15546008D02*
X10917687Y-15555531D01*
X10917687Y-15555531D02*
X10927211Y-15574579D01*
X10927211Y-15574579D02*
X10936735Y-15612674D01*
X10936735Y-15612674D02*
X10936735Y-15660293D01*
X10936735Y-15660293D02*
X10927211Y-15698388D01*
X10927211Y-15698388D02*
X10917687Y-15717436D01*
X10917687Y-15717436D02*
X10908163Y-15726960D01*
X10908163Y-15726960D02*
X10889116Y-15736484D01*
X10889116Y-15736484D02*
X10870068Y-15736484D01*
X10870068Y-15736484D02*
X10851020Y-15726960D01*
X10851020Y-15726960D02*
X10841497Y-15717436D01*
X10841497Y-15717436D02*
X10831973Y-15698388D01*
X10831973Y-15698388D02*
X10822449Y-15660293D01*
X10822449Y-15660293D02*
X10822449Y-15612674D01*
X10822449Y-15612674D02*
X10831973Y-15574579D01*
X10831973Y-15574579D02*
X10841497Y-15555531D01*
X10841497Y-15555531D02*
X10851020Y-15546008D01*
X10851020Y-15546008D02*
X10870068Y-15536484D01*
X11060544Y-15536484D02*
X11079592Y-15536484D01*
X11079592Y-15536484D02*
X11098640Y-15546008D01*
X11098640Y-15546008D02*
X11108163Y-15555531D01*
X11108163Y-15555531D02*
X11117687Y-15574579D01*
X11117687Y-15574579D02*
X11127211Y-15612674D01*
X11127211Y-15612674D02*
X11127211Y-15660293D01*
X11127211Y-15660293D02*
X11117687Y-15698388D01*
X11117687Y-15698388D02*
X11108163Y-15717436D01*
X11108163Y-15717436D02*
X11098640Y-15726960D01*
X11098640Y-15726960D02*
X11079592Y-15736484D01*
X11079592Y-15736484D02*
X11060544Y-15736484D01*
X11060544Y-15736484D02*
X11041497Y-15726960D01*
X11041497Y-15726960D02*
X11031973Y-15717436D01*
X11031973Y-15717436D02*
X11022449Y-15698388D01*
X11022449Y-15698388D02*
X11012925Y-15660293D01*
X11012925Y-15660293D02*
X11012925Y-15612674D01*
X11012925Y-15612674D02*
X11022449Y-15574579D01*
X11022449Y-15574579D02*
X11031973Y-15555531D01*
X11031973Y-15555531D02*
X11041497Y-15546008D01*
X11041497Y-15546008D02*
X11060544Y-15536484D01*
X11212925Y-15736484D02*
X11212925Y-15603150D01*
X11212925Y-15622198D02*
X11222449Y-15612674D01*
X11222449Y-15612674D02*
X11241497Y-15603150D01*
X11241497Y-15603150D02*
X11270068Y-15603150D01*
X11270068Y-15603150D02*
X11289116Y-15612674D01*
X11289116Y-15612674D02*
X11298639Y-15631722D01*
X11298639Y-15631722D02*
X11298639Y-15736484D01*
X11298639Y-15631722D02*
X11308163Y-15612674D01*
X11308163Y-15612674D02*
X11327211Y-15603150D01*
X11327211Y-15603150D02*
X11355782Y-15603150D01*
X11355782Y-15603150D02*
X11374830Y-15612674D01*
X11374830Y-15612674D02*
X11384354Y-15631722D01*
X11384354Y-15631722D02*
X11384354Y-15736484D01*
X11479592Y-15736484D02*
X11479592Y-15603150D01*
X11479592Y-15622198D02*
X11489116Y-15612674D01*
X11489116Y-15612674D02*
X11508163Y-15603150D01*
X11508163Y-15603150D02*
X11536735Y-15603150D01*
X11536735Y-15603150D02*
X11555782Y-15612674D01*
X11555782Y-15612674D02*
X11565306Y-15631722D01*
X11565306Y-15631722D02*
X11565306Y-15736484D01*
X11565306Y-15631722D02*
X11574830Y-15612674D01*
X11574830Y-15612674D02*
X11593878Y-15603150D01*
X11593878Y-15603150D02*
X11622449Y-15603150D01*
X11622449Y-15603150D02*
X11641497Y-15612674D01*
X11641497Y-15612674D02*
X11651020Y-15631722D01*
X11651020Y-15631722D02*
X11651020Y-15736484D01*
X12041497Y-15526960D02*
X11870068Y-15784103D01*
X12298640Y-15536484D02*
X12317687Y-15536484D01*
X12317687Y-15536484D02*
X12336735Y-15546008D01*
X12336735Y-15546008D02*
X12346259Y-15555531D01*
X12346259Y-15555531D02*
X12355782Y-15574579D01*
X12355782Y-15574579D02*
X12365306Y-15612674D01*
X12365306Y-15612674D02*
X12365306Y-15660293D01*
X12365306Y-15660293D02*
X12355782Y-15698388D01*
X12355782Y-15698388D02*
X12346259Y-15717436D01*
X12346259Y-15717436D02*
X12336735Y-15726960D01*
X12336735Y-15726960D02*
X12317687Y-15736484D01*
X12317687Y-15736484D02*
X12298640Y-15736484D01*
X12298640Y-15736484D02*
X12279592Y-15726960D01*
X12279592Y-15726960D02*
X12270068Y-15717436D01*
X12270068Y-15717436D02*
X12260544Y-15698388D01*
X12260544Y-15698388D02*
X12251021Y-15660293D01*
X12251021Y-15660293D02*
X12251021Y-15612674D01*
X12251021Y-15612674D02*
X12260544Y-15574579D01*
X12260544Y-15574579D02*
X12270068Y-15555531D01*
X12270068Y-15555531D02*
X12279592Y-15546008D01*
X12279592Y-15546008D02*
X12298640Y-15536484D01*
X12451021Y-15717436D02*
X12460544Y-15726960D01*
X12460544Y-15726960D02*
X12451021Y-15736484D01*
X12451021Y-15736484D02*
X12441497Y-15726960D01*
X12441497Y-15726960D02*
X12451021Y-15717436D01*
X12451021Y-15717436D02*
X12451021Y-15736484D01*
X12584354Y-15536484D02*
X12603402Y-15536484D01*
X12603402Y-15536484D02*
X12622449Y-15546008D01*
X12622449Y-15546008D02*
X12631973Y-15555531D01*
X12631973Y-15555531D02*
X12641497Y-15574579D01*
X12641497Y-15574579D02*
X12651021Y-15612674D01*
X12651021Y-15612674D02*
X12651021Y-15660293D01*
X12651021Y-15660293D02*
X12641497Y-15698388D01*
X12641497Y-15698388D02*
X12631973Y-15717436D01*
X12631973Y-15717436D02*
X12622449Y-15726960D01*
X12622449Y-15726960D02*
X12603402Y-15736484D01*
X12603402Y-15736484D02*
X12584354Y-15736484D01*
X12584354Y-15736484D02*
X12565306Y-15726960D01*
X12565306Y-15726960D02*
X12555782Y-15717436D01*
X12555782Y-15717436D02*
X12546259Y-15698388D01*
X12546259Y-15698388D02*
X12536735Y-15660293D01*
X12536735Y-15660293D02*
X12536735Y-15612674D01*
X12536735Y-15612674D02*
X12546259Y-15574579D01*
X12546259Y-15574579D02*
X12555782Y-15555531D01*
X12555782Y-15555531D02*
X12565306Y-15546008D01*
X12565306Y-15546008D02*
X12584354Y-15536484D01*
X12831973Y-15536484D02*
X12736735Y-15536484D01*
X12736735Y-15536484D02*
X12727211Y-15631722D01*
X12727211Y-15631722D02*
X12736735Y-15622198D01*
X12736735Y-15622198D02*
X12755782Y-15612674D01*
X12755782Y-15612674D02*
X12803402Y-15612674D01*
X12803402Y-15612674D02*
X12822449Y-15622198D01*
X12822449Y-15622198D02*
X12831973Y-15631722D01*
X12831973Y-15631722D02*
X12841497Y-15650769D01*
X12841497Y-15650769D02*
X12841497Y-15698388D01*
X12841497Y-15698388D02*
X12831973Y-15717436D01*
X12831973Y-15717436D02*
X12822449Y-15726960D01*
X12822449Y-15726960D02*
X12803402Y-15736484D01*
X12803402Y-15736484D02*
X12755782Y-15736484D01*
X12755782Y-15736484D02*
X12736735Y-15726960D01*
X12736735Y-15726960D02*
X12727211Y-15717436D01*
X12936735Y-15736484D02*
X12974830Y-15736484D01*
X12974830Y-15736484D02*
X12993878Y-15726960D01*
X12993878Y-15726960D02*
X13003402Y-15717436D01*
X13003402Y-15717436D02*
X13022449Y-15688865D01*
X13022449Y-15688865D02*
X13031973Y-15650769D01*
X13031973Y-15650769D02*
X13031973Y-15574579D01*
X13031973Y-15574579D02*
X13022449Y-15555531D01*
X13022449Y-15555531D02*
X13012925Y-15546008D01*
X13012925Y-15546008D02*
X12993878Y-15536484D01*
X12993878Y-15536484D02*
X12955782Y-15536484D01*
X12955782Y-15536484D02*
X12936735Y-15546008D01*
X12936735Y-15546008D02*
X12927211Y-15555531D01*
X12927211Y-15555531D02*
X12917687Y-15574579D01*
X12917687Y-15574579D02*
X12917687Y-15622198D01*
X12917687Y-15622198D02*
X12927211Y-15641246D01*
X12927211Y-15641246D02*
X12936735Y-15650769D01*
X12936735Y-15650769D02*
X12955782Y-15660293D01*
X12955782Y-15660293D02*
X12993878Y-15660293D01*
X12993878Y-15660293D02*
X13012925Y-15650769D01*
X13012925Y-15650769D02*
X13022449Y-15641246D01*
X13022449Y-15641246D02*
X13031973Y-15622198D01*
X13222449Y-15736484D02*
X13108163Y-15736484D01*
X13165306Y-15736484D02*
X13165306Y-15536484D01*
X13165306Y-15536484D02*
X13146259Y-15565055D01*
X13146259Y-15565055D02*
X13127211Y-15584103D01*
X13127211Y-15584103D02*
X13108163Y-15593627D01*
X13298640Y-15536484D02*
X13298640Y-15574579D01*
X13374830Y-15536484D02*
X13374830Y-15574579D01*
X13670068Y-15812674D02*
X13660544Y-15803150D01*
X13660544Y-15803150D02*
X13641497Y-15774579D01*
X13641497Y-15774579D02*
X13631973Y-15755531D01*
X13631973Y-15755531D02*
X13622449Y-15726960D01*
X13622449Y-15726960D02*
X13612925Y-15679341D01*
X13612925Y-15679341D02*
X13612925Y-15641246D01*
X13612925Y-15641246D02*
X13622449Y-15593627D01*
X13622449Y-15593627D02*
X13631973Y-15565055D01*
X13631973Y-15565055D02*
X13641497Y-15546008D01*
X13641497Y-15546008D02*
X13660544Y-15517436D01*
X13660544Y-15517436D02*
X13670068Y-15507912D01*
X13736735Y-15555531D02*
X13746259Y-15546008D01*
X13746259Y-15546008D02*
X13765306Y-15536484D01*
X13765306Y-15536484D02*
X13812925Y-15536484D01*
X13812925Y-15536484D02*
X13831973Y-15546008D01*
X13831973Y-15546008D02*
X13841497Y-15555531D01*
X13841497Y-15555531D02*
X13851021Y-15574579D01*
X13851021Y-15574579D02*
X13851021Y-15593627D01*
X13851021Y-15593627D02*
X13841497Y-15622198D01*
X13841497Y-15622198D02*
X13727211Y-15736484D01*
X13727211Y-15736484D02*
X13851021Y-15736484D01*
X14089116Y-15736484D02*
X14089116Y-15536484D01*
X14174830Y-15736484D02*
X14174830Y-15631722D01*
X14174830Y-15631722D02*
X14165306Y-15612674D01*
X14165306Y-15612674D02*
X14146259Y-15603150D01*
X14146259Y-15603150D02*
X14117687Y-15603150D01*
X14117687Y-15603150D02*
X14098640Y-15612674D01*
X14098640Y-15612674D02*
X14089116Y-15622198D01*
X14298640Y-15736484D02*
X14279592Y-15726960D01*
X14279592Y-15726960D02*
X14270068Y-15717436D01*
X14270068Y-15717436D02*
X14260545Y-15698388D01*
X14260545Y-15698388D02*
X14260545Y-15641246D01*
X14260545Y-15641246D02*
X14270068Y-15622198D01*
X14270068Y-15622198D02*
X14279592Y-15612674D01*
X14279592Y-15612674D02*
X14298640Y-15603150D01*
X14298640Y-15603150D02*
X14327211Y-15603150D01*
X14327211Y-15603150D02*
X14346259Y-15612674D01*
X14346259Y-15612674D02*
X14355783Y-15622198D01*
X14355783Y-15622198D02*
X14365306Y-15641246D01*
X14365306Y-15641246D02*
X14365306Y-15698388D01*
X14365306Y-15698388D02*
X14355783Y-15717436D01*
X14355783Y-15717436D02*
X14346259Y-15726960D01*
X14346259Y-15726960D02*
X14327211Y-15736484D01*
X14327211Y-15736484D02*
X14298640Y-15736484D01*
X14479592Y-15736484D02*
X14460545Y-15726960D01*
X14460545Y-15726960D02*
X14451021Y-15707912D01*
X14451021Y-15707912D02*
X14451021Y-15536484D01*
X14631973Y-15726960D02*
X14612926Y-15736484D01*
X14612926Y-15736484D02*
X14574830Y-15736484D01*
X14574830Y-15736484D02*
X14555783Y-15726960D01*
X14555783Y-15726960D02*
X14546259Y-15707912D01*
X14546259Y-15707912D02*
X14546259Y-15631722D01*
X14546259Y-15631722D02*
X14555783Y-15612674D01*
X14555783Y-15612674D02*
X14574830Y-15603150D01*
X14574830Y-15603150D02*
X14612926Y-15603150D01*
X14612926Y-15603150D02*
X14631973Y-15612674D01*
X14631973Y-15612674D02*
X14641497Y-15631722D01*
X14641497Y-15631722D02*
X14641497Y-15650769D01*
X14641497Y-15650769D02*
X14546259Y-15669817D01*
X14717687Y-15726960D02*
X14736735Y-15736484D01*
X14736735Y-15736484D02*
X14774830Y-15736484D01*
X14774830Y-15736484D02*
X14793878Y-15726960D01*
X14793878Y-15726960D02*
X14803402Y-15707912D01*
X14803402Y-15707912D02*
X14803402Y-15698388D01*
X14803402Y-15698388D02*
X14793878Y-15679341D01*
X14793878Y-15679341D02*
X14774830Y-15669817D01*
X14774830Y-15669817D02*
X14746259Y-15669817D01*
X14746259Y-15669817D02*
X14727211Y-15660293D01*
X14727211Y-15660293D02*
X14717687Y-15641246D01*
X14717687Y-15641246D02*
X14717687Y-15631722D01*
X14717687Y-15631722D02*
X14727211Y-15612674D01*
X14727211Y-15612674D02*
X14746259Y-15603150D01*
X14746259Y-15603150D02*
X14774830Y-15603150D01*
X14774830Y-15603150D02*
X14793878Y-15612674D01*
X14870068Y-15812674D02*
X14879592Y-15803150D01*
X14879592Y-15803150D02*
X14898640Y-15774579D01*
X14898640Y-15774579D02*
X14908164Y-15755531D01*
X14908164Y-15755531D02*
X14917687Y-15726960D01*
X14917687Y-15726960D02*
X14927211Y-15679341D01*
X14927211Y-15679341D02*
X14927211Y-15641246D01*
X14927211Y-15641246D02*
X14917687Y-15593627D01*
X14917687Y-15593627D02*
X14908164Y-15565055D01*
X14908164Y-15565055D02*
X14898640Y-15546008D01*
X14898640Y-15546008D02*
X14879592Y-15517436D01*
X14879592Y-15517436D02*
X14870068Y-15507912D01*
X15231973Y-15812674D02*
X15222449Y-15803150D01*
X15222449Y-15803150D02*
X15203402Y-15774579D01*
X15203402Y-15774579D02*
X15193878Y-15755531D01*
X15193878Y-15755531D02*
X15184354Y-15726960D01*
X15184354Y-15726960D02*
X15174830Y-15679341D01*
X15174830Y-15679341D02*
X15174830Y-15641246D01*
X15174830Y-15641246D02*
X15184354Y-15593627D01*
X15184354Y-15593627D02*
X15193878Y-15565055D01*
X15193878Y-15565055D02*
X15203402Y-15546008D01*
X15203402Y-15546008D02*
X15222449Y-15517436D01*
X15222449Y-15517436D02*
X15231973Y-15507912D01*
X15308164Y-15603150D02*
X15308164Y-15736484D01*
X15308164Y-15622198D02*
X15317687Y-15612674D01*
X15317687Y-15612674D02*
X15336735Y-15603150D01*
X15336735Y-15603150D02*
X15365307Y-15603150D01*
X15365307Y-15603150D02*
X15384354Y-15612674D01*
X15384354Y-15612674D02*
X15393878Y-15631722D01*
X15393878Y-15631722D02*
X15393878Y-15736484D01*
X15517687Y-15736484D02*
X15498640Y-15726960D01*
X15498640Y-15726960D02*
X15489116Y-15717436D01*
X15489116Y-15717436D02*
X15479592Y-15698388D01*
X15479592Y-15698388D02*
X15479592Y-15641246D01*
X15479592Y-15641246D02*
X15489116Y-15622198D01*
X15489116Y-15622198D02*
X15498640Y-15612674D01*
X15498640Y-15612674D02*
X15517687Y-15603150D01*
X15517687Y-15603150D02*
X15546259Y-15603150D01*
X15546259Y-15603150D02*
X15565307Y-15612674D01*
X15565307Y-15612674D02*
X15574830Y-15622198D01*
X15574830Y-15622198D02*
X15584354Y-15641246D01*
X15584354Y-15641246D02*
X15584354Y-15698388D01*
X15584354Y-15698388D02*
X15574830Y-15717436D01*
X15574830Y-15717436D02*
X15565307Y-15726960D01*
X15565307Y-15726960D02*
X15546259Y-15736484D01*
X15546259Y-15736484D02*
X15517687Y-15736484D01*
X15641497Y-15603150D02*
X15717687Y-15603150D01*
X15670068Y-15536484D02*
X15670068Y-15707912D01*
X15670068Y-15707912D02*
X15679592Y-15726960D01*
X15679592Y-15726960D02*
X15698640Y-15736484D01*
X15698640Y-15736484D02*
X15717687Y-15736484D01*
X15936735Y-15603150D02*
X15936735Y-15803150D01*
X15936735Y-15612674D02*
X15955783Y-15603150D01*
X15955783Y-15603150D02*
X15993878Y-15603150D01*
X15993878Y-15603150D02*
X16012926Y-15612674D01*
X16012926Y-15612674D02*
X16022449Y-15622198D01*
X16022449Y-15622198D02*
X16031973Y-15641246D01*
X16031973Y-15641246D02*
X16031973Y-15698388D01*
X16031973Y-15698388D02*
X16022449Y-15717436D01*
X16022449Y-15717436D02*
X16012926Y-15726960D01*
X16012926Y-15726960D02*
X15993878Y-15736484D01*
X15993878Y-15736484D02*
X15955783Y-15736484D01*
X15955783Y-15736484D02*
X15936735Y-15726960D01*
X16146259Y-15736484D02*
X16127211Y-15726960D01*
X16127211Y-15726960D02*
X16117688Y-15707912D01*
X16117688Y-15707912D02*
X16117688Y-15536484D01*
X16308164Y-15736484D02*
X16308164Y-15631722D01*
X16308164Y-15631722D02*
X16298640Y-15612674D01*
X16298640Y-15612674D02*
X16279592Y-15603150D01*
X16279592Y-15603150D02*
X16241497Y-15603150D01*
X16241497Y-15603150D02*
X16222449Y-15612674D01*
X16308164Y-15726960D02*
X16289116Y-15736484D01*
X16289116Y-15736484D02*
X16241497Y-15736484D01*
X16241497Y-15736484D02*
X16222449Y-15726960D01*
X16222449Y-15726960D02*
X16212926Y-15707912D01*
X16212926Y-15707912D02*
X16212926Y-15688865D01*
X16212926Y-15688865D02*
X16222449Y-15669817D01*
X16222449Y-15669817D02*
X16241497Y-15660293D01*
X16241497Y-15660293D02*
X16289116Y-15660293D01*
X16289116Y-15660293D02*
X16308164Y-15650769D01*
X16374830Y-15603150D02*
X16451021Y-15603150D01*
X16403402Y-15536484D02*
X16403402Y-15707912D01*
X16403402Y-15707912D02*
X16412926Y-15726960D01*
X16412926Y-15726960D02*
X16431973Y-15736484D01*
X16431973Y-15736484D02*
X16451021Y-15736484D01*
X16593878Y-15726960D02*
X16574830Y-15736484D01*
X16574830Y-15736484D02*
X16536735Y-15736484D01*
X16536735Y-15736484D02*
X16517688Y-15726960D01*
X16517688Y-15726960D02*
X16508164Y-15707912D01*
X16508164Y-15707912D02*
X16508164Y-15631722D01*
X16508164Y-15631722D02*
X16517688Y-15612674D01*
X16517688Y-15612674D02*
X16536735Y-15603150D01*
X16536735Y-15603150D02*
X16574830Y-15603150D01*
X16574830Y-15603150D02*
X16593878Y-15612674D01*
X16593878Y-15612674D02*
X16603402Y-15631722D01*
X16603402Y-15631722D02*
X16603402Y-15650769D01*
X16603402Y-15650769D02*
X16508164Y-15669817D01*
X16774830Y-15736484D02*
X16774830Y-15536484D01*
X16774830Y-15726960D02*
X16755783Y-15736484D01*
X16755783Y-15736484D02*
X16717688Y-15736484D01*
X16717688Y-15736484D02*
X16698640Y-15726960D01*
X16698640Y-15726960D02*
X16689116Y-15717436D01*
X16689116Y-15717436D02*
X16679592Y-15698388D01*
X16679592Y-15698388D02*
X16679592Y-15641246D01*
X16679592Y-15641246D02*
X16689116Y-15622198D01*
X16689116Y-15622198D02*
X16698640Y-15612674D01*
X16698640Y-15612674D02*
X16717688Y-15603150D01*
X16717688Y-15603150D02*
X16755783Y-15603150D01*
X16755783Y-15603150D02*
X16774830Y-15612674D01*
X16851021Y-15812674D02*
X16860545Y-15803150D01*
X16860545Y-15803150D02*
X16879592Y-15774579D01*
X16879592Y-15774579D02*
X16889116Y-15755531D01*
X16889116Y-15755531D02*
X16898640Y-15726960D01*
X16898640Y-15726960D02*
X16908164Y-15679341D01*
X16908164Y-15679341D02*
X16908164Y-15641246D01*
X16908164Y-15641246D02*
X16898640Y-15593627D01*
X16898640Y-15593627D02*
X16889116Y-15565055D01*
X16889116Y-15565055D02*
X16879592Y-15546008D01*
X16879592Y-15546008D02*
X16860545Y-15517436D01*
X16860545Y-15517436D02*
X16851021Y-15507912D01*
D13*
X10095006Y-15915000D02*
G75*
G02*
X9915006Y-15915000I-90000J0D01*
G01*
X9915006Y-15915000D02*
G75*
G02*
X10095006Y-15915000I90000J0D01*
G01*
D11*
X10460544Y-16006484D02*
X10346259Y-16006484D01*
X10403401Y-16006484D02*
X10403401Y-15806484D01*
X10403401Y-15806484D02*
X10384354Y-15835055D01*
X10384354Y-15835055D02*
X10365306Y-15854103D01*
X10365306Y-15854103D02*
X10346259Y-15863627D01*
X10546259Y-15987436D02*
X10555782Y-15996960D01*
X10555782Y-15996960D02*
X10546259Y-16006484D01*
X10546259Y-16006484D02*
X10536735Y-15996960D01*
X10536735Y-15996960D02*
X10546259Y-15987436D01*
X10546259Y-15987436D02*
X10546259Y-16006484D01*
X10670068Y-15892198D02*
X10651020Y-15882674D01*
X10651020Y-15882674D02*
X10641497Y-15873150D01*
X10641497Y-15873150D02*
X10631973Y-15854103D01*
X10631973Y-15854103D02*
X10631973Y-15844579D01*
X10631973Y-15844579D02*
X10641497Y-15825531D01*
X10641497Y-15825531D02*
X10651020Y-15816008D01*
X10651020Y-15816008D02*
X10670068Y-15806484D01*
X10670068Y-15806484D02*
X10708163Y-15806484D01*
X10708163Y-15806484D02*
X10727211Y-15816008D01*
X10727211Y-15816008D02*
X10736735Y-15825531D01*
X10736735Y-15825531D02*
X10746259Y-15844579D01*
X10746259Y-15844579D02*
X10746259Y-15854103D01*
X10746259Y-15854103D02*
X10736735Y-15873150D01*
X10736735Y-15873150D02*
X10727211Y-15882674D01*
X10727211Y-15882674D02*
X10708163Y-15892198D01*
X10708163Y-15892198D02*
X10670068Y-15892198D01*
X10670068Y-15892198D02*
X10651020Y-15901722D01*
X10651020Y-15901722D02*
X10641497Y-15911246D01*
X10641497Y-15911246D02*
X10631973Y-15930293D01*
X10631973Y-15930293D02*
X10631973Y-15968388D01*
X10631973Y-15968388D02*
X10641497Y-15987436D01*
X10641497Y-15987436D02*
X10651020Y-15996960D01*
X10651020Y-15996960D02*
X10670068Y-16006484D01*
X10670068Y-16006484D02*
X10708163Y-16006484D01*
X10708163Y-16006484D02*
X10727211Y-15996960D01*
X10727211Y-15996960D02*
X10736735Y-15987436D01*
X10736735Y-15987436D02*
X10746259Y-15968388D01*
X10746259Y-15968388D02*
X10746259Y-15930293D01*
X10746259Y-15930293D02*
X10736735Y-15911246D01*
X10736735Y-15911246D02*
X10727211Y-15901722D01*
X10727211Y-15901722D02*
X10708163Y-15892198D01*
X10870068Y-15806484D02*
X10889116Y-15806484D01*
X10889116Y-15806484D02*
X10908163Y-15816008D01*
X10908163Y-15816008D02*
X10917687Y-15825531D01*
X10917687Y-15825531D02*
X10927211Y-15844579D01*
X10927211Y-15844579D02*
X10936735Y-15882674D01*
X10936735Y-15882674D02*
X10936735Y-15930293D01*
X10936735Y-15930293D02*
X10927211Y-15968388D01*
X10927211Y-15968388D02*
X10917687Y-15987436D01*
X10917687Y-15987436D02*
X10908163Y-15996960D01*
X10908163Y-15996960D02*
X10889116Y-16006484D01*
X10889116Y-16006484D02*
X10870068Y-16006484D01*
X10870068Y-16006484D02*
X10851020Y-15996960D01*
X10851020Y-15996960D02*
X10841497Y-15987436D01*
X10841497Y-15987436D02*
X10831973Y-15968388D01*
X10831973Y-15968388D02*
X10822449Y-15930293D01*
X10822449Y-15930293D02*
X10822449Y-15882674D01*
X10822449Y-15882674D02*
X10831973Y-15844579D01*
X10831973Y-15844579D02*
X10841497Y-15825531D01*
X10841497Y-15825531D02*
X10851020Y-15816008D01*
X10851020Y-15816008D02*
X10870068Y-15806484D01*
X11060544Y-15806484D02*
X11079592Y-15806484D01*
X11079592Y-15806484D02*
X11098640Y-15816008D01*
X11098640Y-15816008D02*
X11108163Y-15825531D01*
X11108163Y-15825531D02*
X11117687Y-15844579D01*
X11117687Y-15844579D02*
X11127211Y-15882674D01*
X11127211Y-15882674D02*
X11127211Y-15930293D01*
X11127211Y-15930293D02*
X11117687Y-15968388D01*
X11117687Y-15968388D02*
X11108163Y-15987436D01*
X11108163Y-15987436D02*
X11098640Y-15996960D01*
X11098640Y-15996960D02*
X11079592Y-16006484D01*
X11079592Y-16006484D02*
X11060544Y-16006484D01*
X11060544Y-16006484D02*
X11041497Y-15996960D01*
X11041497Y-15996960D02*
X11031973Y-15987436D01*
X11031973Y-15987436D02*
X11022449Y-15968388D01*
X11022449Y-15968388D02*
X11012925Y-15930293D01*
X11012925Y-15930293D02*
X11012925Y-15882674D01*
X11012925Y-15882674D02*
X11022449Y-15844579D01*
X11022449Y-15844579D02*
X11031973Y-15825531D01*
X11031973Y-15825531D02*
X11041497Y-15816008D01*
X11041497Y-15816008D02*
X11060544Y-15806484D01*
X11212925Y-16006484D02*
X11212925Y-15873150D01*
X11212925Y-15892198D02*
X11222449Y-15882674D01*
X11222449Y-15882674D02*
X11241497Y-15873150D01*
X11241497Y-15873150D02*
X11270068Y-15873150D01*
X11270068Y-15873150D02*
X11289116Y-15882674D01*
X11289116Y-15882674D02*
X11298639Y-15901722D01*
X11298639Y-15901722D02*
X11298639Y-16006484D01*
X11298639Y-15901722D02*
X11308163Y-15882674D01*
X11308163Y-15882674D02*
X11327211Y-15873150D01*
X11327211Y-15873150D02*
X11355782Y-15873150D01*
X11355782Y-15873150D02*
X11374830Y-15882674D01*
X11374830Y-15882674D02*
X11384354Y-15901722D01*
X11384354Y-15901722D02*
X11384354Y-16006484D01*
X11479592Y-16006484D02*
X11479592Y-15873150D01*
X11479592Y-15892198D02*
X11489116Y-15882674D01*
X11489116Y-15882674D02*
X11508163Y-15873150D01*
X11508163Y-15873150D02*
X11536735Y-15873150D01*
X11536735Y-15873150D02*
X11555782Y-15882674D01*
X11555782Y-15882674D02*
X11565306Y-15901722D01*
X11565306Y-15901722D02*
X11565306Y-16006484D01*
X11565306Y-15901722D02*
X11574830Y-15882674D01*
X11574830Y-15882674D02*
X11593878Y-15873150D01*
X11593878Y-15873150D02*
X11622449Y-15873150D01*
X11622449Y-15873150D02*
X11641497Y-15882674D01*
X11641497Y-15882674D02*
X11651020Y-15901722D01*
X11651020Y-15901722D02*
X11651020Y-16006484D01*
X12041497Y-15796960D02*
X11870068Y-16054103D01*
X12298640Y-15806484D02*
X12317687Y-15806484D01*
X12317687Y-15806484D02*
X12336735Y-15816008D01*
X12336735Y-15816008D02*
X12346259Y-15825531D01*
X12346259Y-15825531D02*
X12355782Y-15844579D01*
X12355782Y-15844579D02*
X12365306Y-15882674D01*
X12365306Y-15882674D02*
X12365306Y-15930293D01*
X12365306Y-15930293D02*
X12355782Y-15968388D01*
X12355782Y-15968388D02*
X12346259Y-15987436D01*
X12346259Y-15987436D02*
X12336735Y-15996960D01*
X12336735Y-15996960D02*
X12317687Y-16006484D01*
X12317687Y-16006484D02*
X12298640Y-16006484D01*
X12298640Y-16006484D02*
X12279592Y-15996960D01*
X12279592Y-15996960D02*
X12270068Y-15987436D01*
X12270068Y-15987436D02*
X12260544Y-15968388D01*
X12260544Y-15968388D02*
X12251021Y-15930293D01*
X12251021Y-15930293D02*
X12251021Y-15882674D01*
X12251021Y-15882674D02*
X12260544Y-15844579D01*
X12260544Y-15844579D02*
X12270068Y-15825531D01*
X12270068Y-15825531D02*
X12279592Y-15816008D01*
X12279592Y-15816008D02*
X12298640Y-15806484D01*
X12451021Y-15987436D02*
X12460544Y-15996960D01*
X12460544Y-15996960D02*
X12451021Y-16006484D01*
X12451021Y-16006484D02*
X12441497Y-15996960D01*
X12441497Y-15996960D02*
X12451021Y-15987436D01*
X12451021Y-15987436D02*
X12451021Y-16006484D01*
X12584354Y-15806484D02*
X12603402Y-15806484D01*
X12603402Y-15806484D02*
X12622449Y-15816008D01*
X12622449Y-15816008D02*
X12631973Y-15825531D01*
X12631973Y-15825531D02*
X12641497Y-15844579D01*
X12641497Y-15844579D02*
X12651021Y-15882674D01*
X12651021Y-15882674D02*
X12651021Y-15930293D01*
X12651021Y-15930293D02*
X12641497Y-15968388D01*
X12641497Y-15968388D02*
X12631973Y-15987436D01*
X12631973Y-15987436D02*
X12622449Y-15996960D01*
X12622449Y-15996960D02*
X12603402Y-16006484D01*
X12603402Y-16006484D02*
X12584354Y-16006484D01*
X12584354Y-16006484D02*
X12565306Y-15996960D01*
X12565306Y-15996960D02*
X12555782Y-15987436D01*
X12555782Y-15987436D02*
X12546259Y-15968388D01*
X12546259Y-15968388D02*
X12536735Y-15930293D01*
X12536735Y-15930293D02*
X12536735Y-15882674D01*
X12536735Y-15882674D02*
X12546259Y-15844579D01*
X12546259Y-15844579D02*
X12555782Y-15825531D01*
X12555782Y-15825531D02*
X12565306Y-15816008D01*
X12565306Y-15816008D02*
X12584354Y-15806484D01*
X12717687Y-15806484D02*
X12851021Y-15806484D01*
X12851021Y-15806484D02*
X12765306Y-16006484D01*
X12965306Y-15806484D02*
X12984354Y-15806484D01*
X12984354Y-15806484D02*
X13003402Y-15816008D01*
X13003402Y-15816008D02*
X13012925Y-15825531D01*
X13012925Y-15825531D02*
X13022449Y-15844579D01*
X13022449Y-15844579D02*
X13031973Y-15882674D01*
X13031973Y-15882674D02*
X13031973Y-15930293D01*
X13031973Y-15930293D02*
X13022449Y-15968388D01*
X13022449Y-15968388D02*
X13012925Y-15987436D01*
X13012925Y-15987436D02*
X13003402Y-15996960D01*
X13003402Y-15996960D02*
X12984354Y-16006484D01*
X12984354Y-16006484D02*
X12965306Y-16006484D01*
X12965306Y-16006484D02*
X12946259Y-15996960D01*
X12946259Y-15996960D02*
X12936735Y-15987436D01*
X12936735Y-15987436D02*
X12927211Y-15968388D01*
X12927211Y-15968388D02*
X12917687Y-15930293D01*
X12917687Y-15930293D02*
X12917687Y-15882674D01*
X12917687Y-15882674D02*
X12927211Y-15844579D01*
X12927211Y-15844579D02*
X12936735Y-15825531D01*
X12936735Y-15825531D02*
X12946259Y-15816008D01*
X12946259Y-15816008D02*
X12965306Y-15806484D01*
X13127211Y-16006484D02*
X13165306Y-16006484D01*
X13165306Y-16006484D02*
X13184354Y-15996960D01*
X13184354Y-15996960D02*
X13193878Y-15987436D01*
X13193878Y-15987436D02*
X13212925Y-15958865D01*
X13212925Y-15958865D02*
X13222449Y-15920769D01*
X13222449Y-15920769D02*
X13222449Y-15844579D01*
X13222449Y-15844579D02*
X13212925Y-15825531D01*
X13212925Y-15825531D02*
X13203402Y-15816008D01*
X13203402Y-15816008D02*
X13184354Y-15806484D01*
X13184354Y-15806484D02*
X13146259Y-15806484D01*
X13146259Y-15806484D02*
X13127211Y-15816008D01*
X13127211Y-15816008D02*
X13117687Y-15825531D01*
X13117687Y-15825531D02*
X13108163Y-15844579D01*
X13108163Y-15844579D02*
X13108163Y-15892198D01*
X13108163Y-15892198D02*
X13117687Y-15911246D01*
X13117687Y-15911246D02*
X13127211Y-15920769D01*
X13127211Y-15920769D02*
X13146259Y-15930293D01*
X13146259Y-15930293D02*
X13184354Y-15930293D01*
X13184354Y-15930293D02*
X13203402Y-15920769D01*
X13203402Y-15920769D02*
X13212925Y-15911246D01*
X13212925Y-15911246D02*
X13222449Y-15892198D01*
X13298640Y-15806484D02*
X13298640Y-15844579D01*
X13374830Y-15806484D02*
X13374830Y-15844579D01*
X13670068Y-16082674D02*
X13660544Y-16073150D01*
X13660544Y-16073150D02*
X13641497Y-16044579D01*
X13641497Y-16044579D02*
X13631973Y-16025531D01*
X13631973Y-16025531D02*
X13622449Y-15996960D01*
X13622449Y-15996960D02*
X13612925Y-15949341D01*
X13612925Y-15949341D02*
X13612925Y-15911246D01*
X13612925Y-15911246D02*
X13622449Y-15863627D01*
X13622449Y-15863627D02*
X13631973Y-15835055D01*
X13631973Y-15835055D02*
X13641497Y-15816008D01*
X13641497Y-15816008D02*
X13660544Y-15787436D01*
X13660544Y-15787436D02*
X13670068Y-15777912D01*
X13736735Y-15825531D02*
X13746259Y-15816008D01*
X13746259Y-15816008D02*
X13765306Y-15806484D01*
X13765306Y-15806484D02*
X13812925Y-15806484D01*
X13812925Y-15806484D02*
X13831973Y-15816008D01*
X13831973Y-15816008D02*
X13841497Y-15825531D01*
X13841497Y-15825531D02*
X13851021Y-15844579D01*
X13851021Y-15844579D02*
X13851021Y-15863627D01*
X13851021Y-15863627D02*
X13841497Y-15892198D01*
X13841497Y-15892198D02*
X13727211Y-16006484D01*
X13727211Y-16006484D02*
X13851021Y-16006484D01*
X14089116Y-16006484D02*
X14089116Y-15806484D01*
X14174830Y-16006484D02*
X14174830Y-15901722D01*
X14174830Y-15901722D02*
X14165306Y-15882674D01*
X14165306Y-15882674D02*
X14146259Y-15873150D01*
X14146259Y-15873150D02*
X14117687Y-15873150D01*
X14117687Y-15873150D02*
X14098640Y-15882674D01*
X14098640Y-15882674D02*
X14089116Y-15892198D01*
X14298640Y-16006484D02*
X14279592Y-15996960D01*
X14279592Y-15996960D02*
X14270068Y-15987436D01*
X14270068Y-15987436D02*
X14260545Y-15968388D01*
X14260545Y-15968388D02*
X14260545Y-15911246D01*
X14260545Y-15911246D02*
X14270068Y-15892198D01*
X14270068Y-15892198D02*
X14279592Y-15882674D01*
X14279592Y-15882674D02*
X14298640Y-15873150D01*
X14298640Y-15873150D02*
X14327211Y-15873150D01*
X14327211Y-15873150D02*
X14346259Y-15882674D01*
X14346259Y-15882674D02*
X14355783Y-15892198D01*
X14355783Y-15892198D02*
X14365306Y-15911246D01*
X14365306Y-15911246D02*
X14365306Y-15968388D01*
X14365306Y-15968388D02*
X14355783Y-15987436D01*
X14355783Y-15987436D02*
X14346259Y-15996960D01*
X14346259Y-15996960D02*
X14327211Y-16006484D01*
X14327211Y-16006484D02*
X14298640Y-16006484D01*
X14479592Y-16006484D02*
X14460545Y-15996960D01*
X14460545Y-15996960D02*
X14451021Y-15977912D01*
X14451021Y-15977912D02*
X14451021Y-15806484D01*
X14631973Y-15996960D02*
X14612926Y-16006484D01*
X14612926Y-16006484D02*
X14574830Y-16006484D01*
X14574830Y-16006484D02*
X14555783Y-15996960D01*
X14555783Y-15996960D02*
X14546259Y-15977912D01*
X14546259Y-15977912D02*
X14546259Y-15901722D01*
X14546259Y-15901722D02*
X14555783Y-15882674D01*
X14555783Y-15882674D02*
X14574830Y-15873150D01*
X14574830Y-15873150D02*
X14612926Y-15873150D01*
X14612926Y-15873150D02*
X14631973Y-15882674D01*
X14631973Y-15882674D02*
X14641497Y-15901722D01*
X14641497Y-15901722D02*
X14641497Y-15920769D01*
X14641497Y-15920769D02*
X14546259Y-15939817D01*
X14717687Y-15996960D02*
X14736735Y-16006484D01*
X14736735Y-16006484D02*
X14774830Y-16006484D01*
X14774830Y-16006484D02*
X14793878Y-15996960D01*
X14793878Y-15996960D02*
X14803402Y-15977912D01*
X14803402Y-15977912D02*
X14803402Y-15968388D01*
X14803402Y-15968388D02*
X14793878Y-15949341D01*
X14793878Y-15949341D02*
X14774830Y-15939817D01*
X14774830Y-15939817D02*
X14746259Y-15939817D01*
X14746259Y-15939817D02*
X14727211Y-15930293D01*
X14727211Y-15930293D02*
X14717687Y-15911246D01*
X14717687Y-15911246D02*
X14717687Y-15901722D01*
X14717687Y-15901722D02*
X14727211Y-15882674D01*
X14727211Y-15882674D02*
X14746259Y-15873150D01*
X14746259Y-15873150D02*
X14774830Y-15873150D01*
X14774830Y-15873150D02*
X14793878Y-15882674D01*
X14870068Y-16082674D02*
X14879592Y-16073150D01*
X14879592Y-16073150D02*
X14898640Y-16044579D01*
X14898640Y-16044579D02*
X14908164Y-16025531D01*
X14908164Y-16025531D02*
X14917687Y-15996960D01*
X14917687Y-15996960D02*
X14927211Y-15949341D01*
X14927211Y-15949341D02*
X14927211Y-15911246D01*
X14927211Y-15911246D02*
X14917687Y-15863627D01*
X14917687Y-15863627D02*
X14908164Y-15835055D01*
X14908164Y-15835055D02*
X14898640Y-15816008D01*
X14898640Y-15816008D02*
X14879592Y-15787436D01*
X14879592Y-15787436D02*
X14870068Y-15777912D01*
X15231973Y-16082674D02*
X15222449Y-16073150D01*
X15222449Y-16073150D02*
X15203402Y-16044579D01*
X15203402Y-16044579D02*
X15193878Y-16025531D01*
X15193878Y-16025531D02*
X15184354Y-15996960D01*
X15184354Y-15996960D02*
X15174830Y-15949341D01*
X15174830Y-15949341D02*
X15174830Y-15911246D01*
X15174830Y-15911246D02*
X15184354Y-15863627D01*
X15184354Y-15863627D02*
X15193878Y-15835055D01*
X15193878Y-15835055D02*
X15203402Y-15816008D01*
X15203402Y-15816008D02*
X15222449Y-15787436D01*
X15222449Y-15787436D02*
X15231973Y-15777912D01*
X15308164Y-15873150D02*
X15308164Y-16006484D01*
X15308164Y-15892198D02*
X15317687Y-15882674D01*
X15317687Y-15882674D02*
X15336735Y-15873150D01*
X15336735Y-15873150D02*
X15365307Y-15873150D01*
X15365307Y-15873150D02*
X15384354Y-15882674D01*
X15384354Y-15882674D02*
X15393878Y-15901722D01*
X15393878Y-15901722D02*
X15393878Y-16006484D01*
X15517687Y-16006484D02*
X15498640Y-15996960D01*
X15498640Y-15996960D02*
X15489116Y-15987436D01*
X15489116Y-15987436D02*
X15479592Y-15968388D01*
X15479592Y-15968388D02*
X15479592Y-15911246D01*
X15479592Y-15911246D02*
X15489116Y-15892198D01*
X15489116Y-15892198D02*
X15498640Y-15882674D01*
X15498640Y-15882674D02*
X15517687Y-15873150D01*
X15517687Y-15873150D02*
X15546259Y-15873150D01*
X15546259Y-15873150D02*
X15565307Y-15882674D01*
X15565307Y-15882674D02*
X15574830Y-15892198D01*
X15574830Y-15892198D02*
X15584354Y-15911246D01*
X15584354Y-15911246D02*
X15584354Y-15968388D01*
X15584354Y-15968388D02*
X15574830Y-15987436D01*
X15574830Y-15987436D02*
X15565307Y-15996960D01*
X15565307Y-15996960D02*
X15546259Y-16006484D01*
X15546259Y-16006484D02*
X15517687Y-16006484D01*
X15641497Y-15873150D02*
X15717687Y-15873150D01*
X15670068Y-15806484D02*
X15670068Y-15977912D01*
X15670068Y-15977912D02*
X15679592Y-15996960D01*
X15679592Y-15996960D02*
X15698640Y-16006484D01*
X15698640Y-16006484D02*
X15717687Y-16006484D01*
X15936735Y-15873150D02*
X15936735Y-16073150D01*
X15936735Y-15882674D02*
X15955783Y-15873150D01*
X15955783Y-15873150D02*
X15993878Y-15873150D01*
X15993878Y-15873150D02*
X16012926Y-15882674D01*
X16012926Y-15882674D02*
X16022449Y-15892198D01*
X16022449Y-15892198D02*
X16031973Y-15911246D01*
X16031973Y-15911246D02*
X16031973Y-15968388D01*
X16031973Y-15968388D02*
X16022449Y-15987436D01*
X16022449Y-15987436D02*
X16012926Y-15996960D01*
X16012926Y-15996960D02*
X15993878Y-16006484D01*
X15993878Y-16006484D02*
X15955783Y-16006484D01*
X15955783Y-16006484D02*
X15936735Y-15996960D01*
X16146259Y-16006484D02*
X16127211Y-15996960D01*
X16127211Y-15996960D02*
X16117688Y-15977912D01*
X16117688Y-15977912D02*
X16117688Y-15806484D01*
X16308164Y-16006484D02*
X16308164Y-15901722D01*
X16308164Y-15901722D02*
X16298640Y-15882674D01*
X16298640Y-15882674D02*
X16279592Y-15873150D01*
X16279592Y-15873150D02*
X16241497Y-15873150D01*
X16241497Y-15873150D02*
X16222449Y-15882674D01*
X16308164Y-15996960D02*
X16289116Y-16006484D01*
X16289116Y-16006484D02*
X16241497Y-16006484D01*
X16241497Y-16006484D02*
X16222449Y-15996960D01*
X16222449Y-15996960D02*
X16212926Y-15977912D01*
X16212926Y-15977912D02*
X16212926Y-15958865D01*
X16212926Y-15958865D02*
X16222449Y-15939817D01*
X16222449Y-15939817D02*
X16241497Y-15930293D01*
X16241497Y-15930293D02*
X16289116Y-15930293D01*
X16289116Y-15930293D02*
X16308164Y-15920769D01*
X16374830Y-15873150D02*
X16451021Y-15873150D01*
X16403402Y-15806484D02*
X16403402Y-15977912D01*
X16403402Y-15977912D02*
X16412926Y-15996960D01*
X16412926Y-15996960D02*
X16431973Y-16006484D01*
X16431973Y-16006484D02*
X16451021Y-16006484D01*
X16593878Y-15996960D02*
X16574830Y-16006484D01*
X16574830Y-16006484D02*
X16536735Y-16006484D01*
X16536735Y-16006484D02*
X16517688Y-15996960D01*
X16517688Y-15996960D02*
X16508164Y-15977912D01*
X16508164Y-15977912D02*
X16508164Y-15901722D01*
X16508164Y-15901722D02*
X16517688Y-15882674D01*
X16517688Y-15882674D02*
X16536735Y-15873150D01*
X16536735Y-15873150D02*
X16574830Y-15873150D01*
X16574830Y-15873150D02*
X16593878Y-15882674D01*
X16593878Y-15882674D02*
X16603402Y-15901722D01*
X16603402Y-15901722D02*
X16603402Y-15920769D01*
X16603402Y-15920769D02*
X16508164Y-15939817D01*
X16774830Y-16006484D02*
X16774830Y-15806484D01*
X16774830Y-15996960D02*
X16755783Y-16006484D01*
X16755783Y-16006484D02*
X16717688Y-16006484D01*
X16717688Y-16006484D02*
X16698640Y-15996960D01*
X16698640Y-15996960D02*
X16689116Y-15987436D01*
X16689116Y-15987436D02*
X16679592Y-15968388D01*
X16679592Y-15968388D02*
X16679592Y-15911246D01*
X16679592Y-15911246D02*
X16689116Y-15892198D01*
X16689116Y-15892198D02*
X16698640Y-15882674D01*
X16698640Y-15882674D02*
X16717688Y-15873150D01*
X16717688Y-15873150D02*
X16755783Y-15873150D01*
X16755783Y-15873150D02*
X16774830Y-15882674D01*
X16851021Y-16082674D02*
X16860545Y-16073150D01*
X16860545Y-16073150D02*
X16879592Y-16044579D01*
X16879592Y-16044579D02*
X16889116Y-16025531D01*
X16889116Y-16025531D02*
X16898640Y-15996960D01*
X16898640Y-15996960D02*
X16908164Y-15949341D01*
X16908164Y-15949341D02*
X16908164Y-15911246D01*
X16908164Y-15911246D02*
X16898640Y-15863627D01*
X16898640Y-15863627D02*
X16889116Y-15835055D01*
X16889116Y-15835055D02*
X16879592Y-15816008D01*
X16879592Y-15816008D02*
X16860545Y-15787436D01*
X16860545Y-15787436D02*
X16851021Y-15777912D01*
X9995006Y-16115000D02*
X9995006Y-16315000D01*
X9895006Y-16215000D02*
X10095006Y-16215000D01*
X10336735Y-16106484D02*
X10460544Y-16106484D01*
X10460544Y-16106484D02*
X10393878Y-16182674D01*
X10393878Y-16182674D02*
X10422449Y-16182674D01*
X10422449Y-16182674D02*
X10441497Y-16192198D01*
X10441497Y-16192198D02*
X10451020Y-16201722D01*
X10451020Y-16201722D02*
X10460544Y-16220769D01*
X10460544Y-16220769D02*
X10460544Y-16268388D01*
X10460544Y-16268388D02*
X10451020Y-16287436D01*
X10451020Y-16287436D02*
X10441497Y-16296960D01*
X10441497Y-16296960D02*
X10422449Y-16306484D01*
X10422449Y-16306484D02*
X10365306Y-16306484D01*
X10365306Y-16306484D02*
X10346259Y-16296960D01*
X10346259Y-16296960D02*
X10336735Y-16287436D01*
X10546259Y-16287436D02*
X10555782Y-16296960D01*
X10555782Y-16296960D02*
X10546259Y-16306484D01*
X10546259Y-16306484D02*
X10536735Y-16296960D01*
X10536735Y-16296960D02*
X10546259Y-16287436D01*
X10546259Y-16287436D02*
X10546259Y-16306484D01*
X10736735Y-16106484D02*
X10641497Y-16106484D01*
X10641497Y-16106484D02*
X10631973Y-16201722D01*
X10631973Y-16201722D02*
X10641497Y-16192198D01*
X10641497Y-16192198D02*
X10660544Y-16182674D01*
X10660544Y-16182674D02*
X10708163Y-16182674D01*
X10708163Y-16182674D02*
X10727211Y-16192198D01*
X10727211Y-16192198D02*
X10736735Y-16201722D01*
X10736735Y-16201722D02*
X10746259Y-16220769D01*
X10746259Y-16220769D02*
X10746259Y-16268388D01*
X10746259Y-16268388D02*
X10736735Y-16287436D01*
X10736735Y-16287436D02*
X10727211Y-16296960D01*
X10727211Y-16296960D02*
X10708163Y-16306484D01*
X10708163Y-16306484D02*
X10660544Y-16306484D01*
X10660544Y-16306484D02*
X10641497Y-16296960D01*
X10641497Y-16296960D02*
X10631973Y-16287436D01*
X10870068Y-16106484D02*
X10889116Y-16106484D01*
X10889116Y-16106484D02*
X10908163Y-16116008D01*
X10908163Y-16116008D02*
X10917687Y-16125531D01*
X10917687Y-16125531D02*
X10927211Y-16144579D01*
X10927211Y-16144579D02*
X10936735Y-16182674D01*
X10936735Y-16182674D02*
X10936735Y-16230293D01*
X10936735Y-16230293D02*
X10927211Y-16268388D01*
X10927211Y-16268388D02*
X10917687Y-16287436D01*
X10917687Y-16287436D02*
X10908163Y-16296960D01*
X10908163Y-16296960D02*
X10889116Y-16306484D01*
X10889116Y-16306484D02*
X10870068Y-16306484D01*
X10870068Y-16306484D02*
X10851020Y-16296960D01*
X10851020Y-16296960D02*
X10841497Y-16287436D01*
X10841497Y-16287436D02*
X10831973Y-16268388D01*
X10831973Y-16268388D02*
X10822449Y-16230293D01*
X10822449Y-16230293D02*
X10822449Y-16182674D01*
X10822449Y-16182674D02*
X10831973Y-16144579D01*
X10831973Y-16144579D02*
X10841497Y-16125531D01*
X10841497Y-16125531D02*
X10851020Y-16116008D01*
X10851020Y-16116008D02*
X10870068Y-16106484D01*
X11060544Y-16106484D02*
X11079592Y-16106484D01*
X11079592Y-16106484D02*
X11098640Y-16116008D01*
X11098640Y-16116008D02*
X11108163Y-16125531D01*
X11108163Y-16125531D02*
X11117687Y-16144579D01*
X11117687Y-16144579D02*
X11127211Y-16182674D01*
X11127211Y-16182674D02*
X11127211Y-16230293D01*
X11127211Y-16230293D02*
X11117687Y-16268388D01*
X11117687Y-16268388D02*
X11108163Y-16287436D01*
X11108163Y-16287436D02*
X11098640Y-16296960D01*
X11098640Y-16296960D02*
X11079592Y-16306484D01*
X11079592Y-16306484D02*
X11060544Y-16306484D01*
X11060544Y-16306484D02*
X11041497Y-16296960D01*
X11041497Y-16296960D02*
X11031973Y-16287436D01*
X11031973Y-16287436D02*
X11022449Y-16268388D01*
X11022449Y-16268388D02*
X11012925Y-16230293D01*
X11012925Y-16230293D02*
X11012925Y-16182674D01*
X11012925Y-16182674D02*
X11022449Y-16144579D01*
X11022449Y-16144579D02*
X11031973Y-16125531D01*
X11031973Y-16125531D02*
X11041497Y-16116008D01*
X11041497Y-16116008D02*
X11060544Y-16106484D01*
X11212925Y-16306484D02*
X11212925Y-16173150D01*
X11212925Y-16192198D02*
X11222449Y-16182674D01*
X11222449Y-16182674D02*
X11241497Y-16173150D01*
X11241497Y-16173150D02*
X11270068Y-16173150D01*
X11270068Y-16173150D02*
X11289116Y-16182674D01*
X11289116Y-16182674D02*
X11298639Y-16201722D01*
X11298639Y-16201722D02*
X11298639Y-16306484D01*
X11298639Y-16201722D02*
X11308163Y-16182674D01*
X11308163Y-16182674D02*
X11327211Y-16173150D01*
X11327211Y-16173150D02*
X11355782Y-16173150D01*
X11355782Y-16173150D02*
X11374830Y-16182674D01*
X11374830Y-16182674D02*
X11384354Y-16201722D01*
X11384354Y-16201722D02*
X11384354Y-16306484D01*
X11479592Y-16306484D02*
X11479592Y-16173150D01*
X11479592Y-16192198D02*
X11489116Y-16182674D01*
X11489116Y-16182674D02*
X11508163Y-16173150D01*
X11508163Y-16173150D02*
X11536735Y-16173150D01*
X11536735Y-16173150D02*
X11555782Y-16182674D01*
X11555782Y-16182674D02*
X11565306Y-16201722D01*
X11565306Y-16201722D02*
X11565306Y-16306484D01*
X11565306Y-16201722D02*
X11574830Y-16182674D01*
X11574830Y-16182674D02*
X11593878Y-16173150D01*
X11593878Y-16173150D02*
X11622449Y-16173150D01*
X11622449Y-16173150D02*
X11641497Y-16182674D01*
X11641497Y-16182674D02*
X11651020Y-16201722D01*
X11651020Y-16201722D02*
X11651020Y-16306484D01*
X12041497Y-16096960D02*
X11870068Y-16354103D01*
X12298640Y-16106484D02*
X12317687Y-16106484D01*
X12317687Y-16106484D02*
X12336735Y-16116008D01*
X12336735Y-16116008D02*
X12346259Y-16125531D01*
X12346259Y-16125531D02*
X12355782Y-16144579D01*
X12355782Y-16144579D02*
X12365306Y-16182674D01*
X12365306Y-16182674D02*
X12365306Y-16230293D01*
X12365306Y-16230293D02*
X12355782Y-16268388D01*
X12355782Y-16268388D02*
X12346259Y-16287436D01*
X12346259Y-16287436D02*
X12336735Y-16296960D01*
X12336735Y-16296960D02*
X12317687Y-16306484D01*
X12317687Y-16306484D02*
X12298640Y-16306484D01*
X12298640Y-16306484D02*
X12279592Y-16296960D01*
X12279592Y-16296960D02*
X12270068Y-16287436D01*
X12270068Y-16287436D02*
X12260544Y-16268388D01*
X12260544Y-16268388D02*
X12251021Y-16230293D01*
X12251021Y-16230293D02*
X12251021Y-16182674D01*
X12251021Y-16182674D02*
X12260544Y-16144579D01*
X12260544Y-16144579D02*
X12270068Y-16125531D01*
X12270068Y-16125531D02*
X12279592Y-16116008D01*
X12279592Y-16116008D02*
X12298640Y-16106484D01*
X12451021Y-16287436D02*
X12460544Y-16296960D01*
X12460544Y-16296960D02*
X12451021Y-16306484D01*
X12451021Y-16306484D02*
X12441497Y-16296960D01*
X12441497Y-16296960D02*
X12451021Y-16287436D01*
X12451021Y-16287436D02*
X12451021Y-16306484D01*
X12651021Y-16306484D02*
X12536735Y-16306484D01*
X12593878Y-16306484D02*
X12593878Y-16106484D01*
X12593878Y-16106484D02*
X12574830Y-16135055D01*
X12574830Y-16135055D02*
X12555782Y-16154103D01*
X12555782Y-16154103D02*
X12536735Y-16163627D01*
X12717687Y-16106484D02*
X12841497Y-16106484D01*
X12841497Y-16106484D02*
X12774830Y-16182674D01*
X12774830Y-16182674D02*
X12803402Y-16182674D01*
X12803402Y-16182674D02*
X12822449Y-16192198D01*
X12822449Y-16192198D02*
X12831973Y-16201722D01*
X12831973Y-16201722D02*
X12841497Y-16220769D01*
X12841497Y-16220769D02*
X12841497Y-16268388D01*
X12841497Y-16268388D02*
X12831973Y-16287436D01*
X12831973Y-16287436D02*
X12822449Y-16296960D01*
X12822449Y-16296960D02*
X12803402Y-16306484D01*
X12803402Y-16306484D02*
X12746259Y-16306484D01*
X12746259Y-16306484D02*
X12727211Y-16296960D01*
X12727211Y-16296960D02*
X12717687Y-16287436D01*
X12908163Y-16106484D02*
X13041497Y-16106484D01*
X13041497Y-16106484D02*
X12955782Y-16306484D01*
X13146259Y-16192198D02*
X13127211Y-16182674D01*
X13127211Y-16182674D02*
X13117687Y-16173150D01*
X13117687Y-16173150D02*
X13108163Y-16154103D01*
X13108163Y-16154103D02*
X13108163Y-16144579D01*
X13108163Y-16144579D02*
X13117687Y-16125531D01*
X13117687Y-16125531D02*
X13127211Y-16116008D01*
X13127211Y-16116008D02*
X13146259Y-16106484D01*
X13146259Y-16106484D02*
X13184354Y-16106484D01*
X13184354Y-16106484D02*
X13203402Y-16116008D01*
X13203402Y-16116008D02*
X13212925Y-16125531D01*
X13212925Y-16125531D02*
X13222449Y-16144579D01*
X13222449Y-16144579D02*
X13222449Y-16154103D01*
X13222449Y-16154103D02*
X13212925Y-16173150D01*
X13212925Y-16173150D02*
X13203402Y-16182674D01*
X13203402Y-16182674D02*
X13184354Y-16192198D01*
X13184354Y-16192198D02*
X13146259Y-16192198D01*
X13146259Y-16192198D02*
X13127211Y-16201722D01*
X13127211Y-16201722D02*
X13117687Y-16211246D01*
X13117687Y-16211246D02*
X13108163Y-16230293D01*
X13108163Y-16230293D02*
X13108163Y-16268388D01*
X13108163Y-16268388D02*
X13117687Y-16287436D01*
X13117687Y-16287436D02*
X13127211Y-16296960D01*
X13127211Y-16296960D02*
X13146259Y-16306484D01*
X13146259Y-16306484D02*
X13184354Y-16306484D01*
X13184354Y-16306484D02*
X13203402Y-16296960D01*
X13203402Y-16296960D02*
X13212925Y-16287436D01*
X13212925Y-16287436D02*
X13222449Y-16268388D01*
X13222449Y-16268388D02*
X13222449Y-16230293D01*
X13222449Y-16230293D02*
X13212925Y-16211246D01*
X13212925Y-16211246D02*
X13203402Y-16201722D01*
X13203402Y-16201722D02*
X13184354Y-16192198D01*
X13298640Y-16106484D02*
X13298640Y-16144579D01*
X13374830Y-16106484D02*
X13374830Y-16144579D01*
X13670068Y-16382674D02*
X13660544Y-16373150D01*
X13660544Y-16373150D02*
X13641497Y-16344579D01*
X13641497Y-16344579D02*
X13631973Y-16325531D01*
X13631973Y-16325531D02*
X13622449Y-16296960D01*
X13622449Y-16296960D02*
X13612925Y-16249341D01*
X13612925Y-16249341D02*
X13612925Y-16211246D01*
X13612925Y-16211246D02*
X13622449Y-16163627D01*
X13622449Y-16163627D02*
X13631973Y-16135055D01*
X13631973Y-16135055D02*
X13641497Y-16116008D01*
X13641497Y-16116008D02*
X13660544Y-16087436D01*
X13660544Y-16087436D02*
X13670068Y-16077912D01*
X13727211Y-16106484D02*
X13851021Y-16106484D01*
X13851021Y-16106484D02*
X13784354Y-16182674D01*
X13784354Y-16182674D02*
X13812925Y-16182674D01*
X13812925Y-16182674D02*
X13831973Y-16192198D01*
X13831973Y-16192198D02*
X13841497Y-16201722D01*
X13841497Y-16201722D02*
X13851021Y-16220769D01*
X13851021Y-16220769D02*
X13851021Y-16268388D01*
X13851021Y-16268388D02*
X13841497Y-16287436D01*
X13841497Y-16287436D02*
X13831973Y-16296960D01*
X13831973Y-16296960D02*
X13812925Y-16306484D01*
X13812925Y-16306484D02*
X13755783Y-16306484D01*
X13755783Y-16306484D02*
X13736735Y-16296960D01*
X13736735Y-16296960D02*
X13727211Y-16287436D01*
X14089116Y-16306484D02*
X14089116Y-16106484D01*
X14174830Y-16306484D02*
X14174830Y-16201722D01*
X14174830Y-16201722D02*
X14165306Y-16182674D01*
X14165306Y-16182674D02*
X14146259Y-16173150D01*
X14146259Y-16173150D02*
X14117687Y-16173150D01*
X14117687Y-16173150D02*
X14098640Y-16182674D01*
X14098640Y-16182674D02*
X14089116Y-16192198D01*
X14298640Y-16306484D02*
X14279592Y-16296960D01*
X14279592Y-16296960D02*
X14270068Y-16287436D01*
X14270068Y-16287436D02*
X14260545Y-16268388D01*
X14260545Y-16268388D02*
X14260545Y-16211246D01*
X14260545Y-16211246D02*
X14270068Y-16192198D01*
X14270068Y-16192198D02*
X14279592Y-16182674D01*
X14279592Y-16182674D02*
X14298640Y-16173150D01*
X14298640Y-16173150D02*
X14327211Y-16173150D01*
X14327211Y-16173150D02*
X14346259Y-16182674D01*
X14346259Y-16182674D02*
X14355783Y-16192198D01*
X14355783Y-16192198D02*
X14365306Y-16211246D01*
X14365306Y-16211246D02*
X14365306Y-16268388D01*
X14365306Y-16268388D02*
X14355783Y-16287436D01*
X14355783Y-16287436D02*
X14346259Y-16296960D01*
X14346259Y-16296960D02*
X14327211Y-16306484D01*
X14327211Y-16306484D02*
X14298640Y-16306484D01*
X14479592Y-16306484D02*
X14460545Y-16296960D01*
X14460545Y-16296960D02*
X14451021Y-16277912D01*
X14451021Y-16277912D02*
X14451021Y-16106484D01*
X14631973Y-16296960D02*
X14612926Y-16306484D01*
X14612926Y-16306484D02*
X14574830Y-16306484D01*
X14574830Y-16306484D02*
X14555783Y-16296960D01*
X14555783Y-16296960D02*
X14546259Y-16277912D01*
X14546259Y-16277912D02*
X14546259Y-16201722D01*
X14546259Y-16201722D02*
X14555783Y-16182674D01*
X14555783Y-16182674D02*
X14574830Y-16173150D01*
X14574830Y-16173150D02*
X14612926Y-16173150D01*
X14612926Y-16173150D02*
X14631973Y-16182674D01*
X14631973Y-16182674D02*
X14641497Y-16201722D01*
X14641497Y-16201722D02*
X14641497Y-16220769D01*
X14641497Y-16220769D02*
X14546259Y-16239817D01*
X14717687Y-16296960D02*
X14736735Y-16306484D01*
X14736735Y-16306484D02*
X14774830Y-16306484D01*
X14774830Y-16306484D02*
X14793878Y-16296960D01*
X14793878Y-16296960D02*
X14803402Y-16277912D01*
X14803402Y-16277912D02*
X14803402Y-16268388D01*
X14803402Y-16268388D02*
X14793878Y-16249341D01*
X14793878Y-16249341D02*
X14774830Y-16239817D01*
X14774830Y-16239817D02*
X14746259Y-16239817D01*
X14746259Y-16239817D02*
X14727211Y-16230293D01*
X14727211Y-16230293D02*
X14717687Y-16211246D01*
X14717687Y-16211246D02*
X14717687Y-16201722D01*
X14717687Y-16201722D02*
X14727211Y-16182674D01*
X14727211Y-16182674D02*
X14746259Y-16173150D01*
X14746259Y-16173150D02*
X14774830Y-16173150D01*
X14774830Y-16173150D02*
X14793878Y-16182674D01*
X14870068Y-16382674D02*
X14879592Y-16373150D01*
X14879592Y-16373150D02*
X14898640Y-16344579D01*
X14898640Y-16344579D02*
X14908164Y-16325531D01*
X14908164Y-16325531D02*
X14917687Y-16296960D01*
X14917687Y-16296960D02*
X14927211Y-16249341D01*
X14927211Y-16249341D02*
X14927211Y-16211246D01*
X14927211Y-16211246D02*
X14917687Y-16163627D01*
X14917687Y-16163627D02*
X14908164Y-16135055D01*
X14908164Y-16135055D02*
X14898640Y-16116008D01*
X14898640Y-16116008D02*
X14879592Y-16087436D01*
X14879592Y-16087436D02*
X14870068Y-16077912D01*
X15231973Y-16382674D02*
X15222449Y-16373150D01*
X15222449Y-16373150D02*
X15203402Y-16344579D01*
X15203402Y-16344579D02*
X15193878Y-16325531D01*
X15193878Y-16325531D02*
X15184354Y-16296960D01*
X15184354Y-16296960D02*
X15174830Y-16249341D01*
X15174830Y-16249341D02*
X15174830Y-16211246D01*
X15174830Y-16211246D02*
X15184354Y-16163627D01*
X15184354Y-16163627D02*
X15193878Y-16135055D01*
X15193878Y-16135055D02*
X15203402Y-16116008D01*
X15203402Y-16116008D02*
X15222449Y-16087436D01*
X15222449Y-16087436D02*
X15231973Y-16077912D01*
X15308164Y-16173150D02*
X15308164Y-16306484D01*
X15308164Y-16192198D02*
X15317687Y-16182674D01*
X15317687Y-16182674D02*
X15336735Y-16173150D01*
X15336735Y-16173150D02*
X15365307Y-16173150D01*
X15365307Y-16173150D02*
X15384354Y-16182674D01*
X15384354Y-16182674D02*
X15393878Y-16201722D01*
X15393878Y-16201722D02*
X15393878Y-16306484D01*
X15517687Y-16306484D02*
X15498640Y-16296960D01*
X15498640Y-16296960D02*
X15489116Y-16287436D01*
X15489116Y-16287436D02*
X15479592Y-16268388D01*
X15479592Y-16268388D02*
X15479592Y-16211246D01*
X15479592Y-16211246D02*
X15489116Y-16192198D01*
X15489116Y-16192198D02*
X15498640Y-16182674D01*
X15498640Y-16182674D02*
X15517687Y-16173150D01*
X15517687Y-16173150D02*
X15546259Y-16173150D01*
X15546259Y-16173150D02*
X15565307Y-16182674D01*
X15565307Y-16182674D02*
X15574830Y-16192198D01*
X15574830Y-16192198D02*
X15584354Y-16211246D01*
X15584354Y-16211246D02*
X15584354Y-16268388D01*
X15584354Y-16268388D02*
X15574830Y-16287436D01*
X15574830Y-16287436D02*
X15565307Y-16296960D01*
X15565307Y-16296960D02*
X15546259Y-16306484D01*
X15546259Y-16306484D02*
X15517687Y-16306484D01*
X15641497Y-16173150D02*
X15717687Y-16173150D01*
X15670068Y-16106484D02*
X15670068Y-16277912D01*
X15670068Y-16277912D02*
X15679592Y-16296960D01*
X15679592Y-16296960D02*
X15698640Y-16306484D01*
X15698640Y-16306484D02*
X15717687Y-16306484D01*
X15936735Y-16173150D02*
X15936735Y-16373150D01*
X15936735Y-16182674D02*
X15955783Y-16173150D01*
X15955783Y-16173150D02*
X15993878Y-16173150D01*
X15993878Y-16173150D02*
X16012926Y-16182674D01*
X16012926Y-16182674D02*
X16022449Y-16192198D01*
X16022449Y-16192198D02*
X16031973Y-16211246D01*
X16031973Y-16211246D02*
X16031973Y-16268388D01*
X16031973Y-16268388D02*
X16022449Y-16287436D01*
X16022449Y-16287436D02*
X16012926Y-16296960D01*
X16012926Y-16296960D02*
X15993878Y-16306484D01*
X15993878Y-16306484D02*
X15955783Y-16306484D01*
X15955783Y-16306484D02*
X15936735Y-16296960D01*
X16146259Y-16306484D02*
X16127211Y-16296960D01*
X16127211Y-16296960D02*
X16117688Y-16277912D01*
X16117688Y-16277912D02*
X16117688Y-16106484D01*
X16308164Y-16306484D02*
X16308164Y-16201722D01*
X16308164Y-16201722D02*
X16298640Y-16182674D01*
X16298640Y-16182674D02*
X16279592Y-16173150D01*
X16279592Y-16173150D02*
X16241497Y-16173150D01*
X16241497Y-16173150D02*
X16222449Y-16182674D01*
X16308164Y-16296960D02*
X16289116Y-16306484D01*
X16289116Y-16306484D02*
X16241497Y-16306484D01*
X16241497Y-16306484D02*
X16222449Y-16296960D01*
X16222449Y-16296960D02*
X16212926Y-16277912D01*
X16212926Y-16277912D02*
X16212926Y-16258865D01*
X16212926Y-16258865D02*
X16222449Y-16239817D01*
X16222449Y-16239817D02*
X16241497Y-16230293D01*
X16241497Y-16230293D02*
X16289116Y-16230293D01*
X16289116Y-16230293D02*
X16308164Y-16220769D01*
X16374830Y-16173150D02*
X16451021Y-16173150D01*
X16403402Y-16106484D02*
X16403402Y-16277912D01*
X16403402Y-16277912D02*
X16412926Y-16296960D01*
X16412926Y-16296960D02*
X16431973Y-16306484D01*
X16431973Y-16306484D02*
X16451021Y-16306484D01*
X16593878Y-16296960D02*
X16574830Y-16306484D01*
X16574830Y-16306484D02*
X16536735Y-16306484D01*
X16536735Y-16306484D02*
X16517688Y-16296960D01*
X16517688Y-16296960D02*
X16508164Y-16277912D01*
X16508164Y-16277912D02*
X16508164Y-16201722D01*
X16508164Y-16201722D02*
X16517688Y-16182674D01*
X16517688Y-16182674D02*
X16536735Y-16173150D01*
X16536735Y-16173150D02*
X16574830Y-16173150D01*
X16574830Y-16173150D02*
X16593878Y-16182674D01*
X16593878Y-16182674D02*
X16603402Y-16201722D01*
X16603402Y-16201722D02*
X16603402Y-16220769D01*
X16603402Y-16220769D02*
X16508164Y-16239817D01*
X16774830Y-16306484D02*
X16774830Y-16106484D01*
X16774830Y-16296960D02*
X16755783Y-16306484D01*
X16755783Y-16306484D02*
X16717688Y-16306484D01*
X16717688Y-16306484D02*
X16698640Y-16296960D01*
X16698640Y-16296960D02*
X16689116Y-16287436D01*
X16689116Y-16287436D02*
X16679592Y-16268388D01*
X16679592Y-16268388D02*
X16679592Y-16211246D01*
X16679592Y-16211246D02*
X16689116Y-16192198D01*
X16689116Y-16192198D02*
X16698640Y-16182674D01*
X16698640Y-16182674D02*
X16717688Y-16173150D01*
X16717688Y-16173150D02*
X16755783Y-16173150D01*
X16755783Y-16173150D02*
X16774830Y-16182674D01*
X16851021Y-16382674D02*
X16860545Y-16373150D01*
X16860545Y-16373150D02*
X16879592Y-16344579D01*
X16879592Y-16344579D02*
X16889116Y-16325531D01*
X16889116Y-16325531D02*
X16898640Y-16296960D01*
X16898640Y-16296960D02*
X16908164Y-16249341D01*
X16908164Y-16249341D02*
X16908164Y-16211246D01*
X16908164Y-16211246D02*
X16898640Y-16163627D01*
X16898640Y-16163627D02*
X16889116Y-16135055D01*
X16889116Y-16135055D02*
X16879592Y-16116008D01*
X16879592Y-16116008D02*
X16860545Y-16087436D01*
X16860545Y-16087436D02*
X16851021Y-16077912D01*
M02*
