%TF.GenerationSoftware,KiCad,Pcbnew,9.0.3*%
%TF.CreationDate,2026-03-08T16:46:46-04:00*%
%TF.ProjectId,StinkyController MK2,5374696e-6b79-4436-9f6e-74726f6c6c65,rev?*%
%TF.SameCoordinates,Original*%
%TF.FileFunction,Soldermask,Top*%
%TF.FilePolarity,Negative*%
%FSLAX46Y46*%
G04 Gerber Fmt 4.6, Leading zero omitted, Abs format (unit mm)*
G04 Created by KiCad (PCBNEW 9.0.3) date 2026-03-08 16:46:46*
%MOMM*%
%LPD*%
G01*
G04 APERTURE LIST*
G04 Aperture macros list*
%AMRoundRect*
0 Rectangle with rounded corners*
0 $1 Rounding radius*
0 $2 $3 $4 $5 $6 $7 $8 $9 X,Y pos of 4 corners*
0 Add a 4 corners polygon primitive as box body*
4,1,4,$2,$3,$4,$5,$6,$7,$8,$9,$2,$3,0*
0 Add four circle primitives for the rounded corners*
1,1,$1+$1,$2,$3*
1,1,$1+$1,$4,$5*
1,1,$1+$1,$6,$7*
1,1,$1+$1,$8,$9*
0 Add four rect primitives between the rounded corners*
20,1,$1+$1,$2,$3,$4,$5,0*
20,1,$1+$1,$4,$5,$6,$7,0*
20,1,$1+$1,$6,$7,$8,$9,0*
20,1,$1+$1,$8,$9,$2,$3,0*%
%AMFreePoly0*
4,1,17,0.588556,1.357401,1.357401,0.588556,1.376000,0.543655,1.376000,-0.543655,1.357401,-0.588556,0.588556,-1.357401,0.543655,-1.376000,-0.543655,-1.376000,-0.588556,-1.357401,-1.357401,-0.588556,-1.376000,-0.543655,-1.376000,0.543655,-1.357401,0.588556,-0.588556,1.357401,-0.543655,1.376000,0.543655,1.376000,0.588556,1.357401,0.588556,1.357401,$1*%
G04 Aperture macros list end*
%ADD10RoundRect,0.063500X1.400000X1.700000X-1.400000X1.700000X-1.400000X-1.700000X1.400000X-1.700000X0*%
%ADD11RoundRect,0.063500X-0.800000X-0.900000X0.800000X-0.900000X0.800000X0.900000X-0.800000X0.900000X0*%
%ADD12O,1.841500X3.556000*%
%ADD13C,1.800000*%
%ADD14C,1.500000*%
%ADD15C,1.627000*%
%ADD16RoundRect,0.063500X1.250000X0.700000X-1.250000X0.700000X-1.250000X-0.700000X1.250000X-0.700000X0*%
%ADD17RoundRect,0.063500X-1.250000X-0.700000X1.250000X-0.700000X1.250000X0.700000X-1.250000X0.700000X0*%
%ADD18C,2.006600*%
%ADD19RoundRect,0.063500X0.300000X-0.800000X0.300000X0.800000X-0.300000X0.800000X-0.300000X-0.800000X0*%
%ADD20RoundRect,0.063500X0.800000X0.900000X-0.800000X0.900000X-0.800000X-0.900000X0.800000X-0.900000X0*%
%ADD21RoundRect,0.063500X-0.225000X-0.650000X0.225000X-0.650000X0.225000X0.650000X-0.225000X0.650000X0*%
%ADD22O,6.744000X3.474000*%
%ADD23RoundRect,0.063500X-0.900000X0.800000X-0.900000X-0.800000X0.900000X-0.800000X0.900000X0.800000X0*%
%ADD24RoundRect,0.063500X0.900000X-0.800000X0.900000X0.800000X-0.900000X0.800000X-0.900000X-0.800000X0*%
%ADD25C,3.500000*%
%ADD26RoundRect,0.063500X0.965200X0.965200X-0.965200X0.965200X-0.965200X-0.965200X0.965200X-0.965200X0*%
%ADD27C,2.057400*%
%ADD28RoundRect,0.063500X1.200000X-1.200000X1.200000X1.200000X-1.200000X1.200000X-1.200000X-1.200000X0*%
%ADD29C,2.527000*%
%ADD30RoundRect,0.063500X0.225000X0.650000X-0.225000X0.650000X-0.225000X-0.650000X0.225000X-0.650000X0*%
%ADD31RoundRect,0.063500X-0.698500X-0.698500X0.698500X-0.698500X0.698500X0.698500X-0.698500X0.698500X0*%
%ADD32O,1.651000X3.175000*%
%ADD33RoundRect,0.063500X-0.635000X-1.050000X0.635000X-1.050000X0.635000X1.050000X-0.635000X1.050000X0*%
%ADD34FreePoly0,180.000000*%
G04 APERTURE END LIST*
D10*
%TO.C,R9*%
X155801100Y-73003600D03*
X150201100Y-73003600D03*
%TD*%
D11*
%TO.C,R13*%
X145601100Y-127003600D03*
X148401100Y-127003600D03*
%TD*%
D12*
%TO.C,Q5*%
X140541100Y-108000000D03*
X138001100Y-108000000D03*
X135461100Y-108000000D03*
%TD*%
D13*
%TO.C,U1*%
X174456100Y-146870000D03*
D14*
X174156100Y-143840000D03*
X169306100Y-143840000D03*
D13*
X169006100Y-146870000D03*
D15*
X180621100Y-147000000D03*
X180621100Y-144460000D03*
X180621100Y-141920000D03*
X180621100Y-139380000D03*
X180621100Y-136840000D03*
X180621100Y-134300000D03*
X180621100Y-131760000D03*
X180621100Y-129220000D03*
X180621100Y-126680000D03*
X180621100Y-124140000D03*
X180621100Y-121600000D03*
X180621100Y-119060000D03*
X180621100Y-116520000D03*
X180621100Y-113980000D03*
X180621100Y-111440000D03*
X180621100Y-108900000D03*
X180621100Y-106360000D03*
X180621100Y-103820000D03*
X180621100Y-101280000D03*
X180621100Y-98740000D03*
X162841100Y-98740000D03*
X162841100Y-101280000D03*
X162841100Y-103820000D03*
X162841100Y-106360000D03*
X162841100Y-108900000D03*
X162841100Y-111440000D03*
X162841100Y-113980000D03*
X162841100Y-116520000D03*
X162841100Y-119060000D03*
X162841100Y-121600000D03*
X162841100Y-124140000D03*
X162841100Y-126680000D03*
X162841100Y-129220000D03*
X162841100Y-131760000D03*
X162841100Y-134300000D03*
X162841100Y-136840000D03*
X162841100Y-139380000D03*
X162841100Y-141920000D03*
X162841100Y-144460000D03*
X162841100Y-147000000D03*
D16*
X181731100Y-147000000D03*
X181731100Y-144460000D03*
X181731100Y-141920000D03*
X181731100Y-139380000D03*
X181731100Y-136840000D03*
X181731100Y-134300000D03*
X181731100Y-131760000D03*
X181731100Y-129220000D03*
X181731100Y-126680000D03*
X181731100Y-124140000D03*
X181731100Y-121600000D03*
X181731100Y-119060000D03*
X181731100Y-116520000D03*
X181731100Y-113980000D03*
X181731100Y-111440000D03*
X181731100Y-108900000D03*
X181731100Y-106360000D03*
X181731100Y-103820000D03*
X181731100Y-101280000D03*
X181731100Y-98740000D03*
D17*
X161731100Y-98740000D03*
X161731100Y-101280000D03*
X161731100Y-103820000D03*
X161731100Y-106360000D03*
X161731100Y-108900000D03*
X161731100Y-111440000D03*
X161731100Y-113980000D03*
X161731100Y-116520000D03*
X161731100Y-119060000D03*
X161731100Y-121600000D03*
X161731100Y-124140000D03*
X161731100Y-126680000D03*
X161731100Y-129220000D03*
X161731100Y-131760000D03*
X161731100Y-134300000D03*
X161731100Y-136840000D03*
X161731100Y-139380000D03*
X161731100Y-141920000D03*
X161731100Y-144460000D03*
X161731100Y-147000000D03*
%TD*%
D18*
%TO.C,S1*%
X193052300Y-117864200D03*
X186549900Y-117864200D03*
X193052300Y-113343000D03*
X186549900Y-113343000D03*
%TD*%
D19*
%TO.C,U5*%
X107096100Y-133703600D03*
X108366100Y-133703600D03*
X109636100Y-133703600D03*
X110906100Y-133703600D03*
X110906100Y-128303600D03*
X109636100Y-128303600D03*
X108366100Y-128303600D03*
X107096100Y-128303600D03*
%TD*%
D20*
%TO.C,C16*%
X134401100Y-123003600D03*
X131601100Y-123003600D03*
%TD*%
D11*
%TO.C,R11*%
X138601100Y-127003600D03*
X141401100Y-127003600D03*
%TD*%
D12*
%TO.C,Q4*%
X120461100Y-102000000D03*
X123001100Y-102000000D03*
X125541100Y-102000000D03*
%TD*%
D21*
%TO.C,U3*%
X140051100Y-136403600D03*
X141001100Y-136403600D03*
X141951100Y-136403600D03*
X141951100Y-133603600D03*
X141001100Y-133603600D03*
X140051100Y-133603600D03*
%TD*%
D22*
%TO.C,*%
X170500000Y-86000000D03*
%TD*%
D23*
%TO.C,R8*%
X187001100Y-89603600D03*
X187001100Y-92403600D03*
%TD*%
D24*
%TO.C,R4*%
X187001100Y-100403600D03*
X187001100Y-97603600D03*
%TD*%
D25*
%TO.C,U$12*%
X104000000Y-147000000D03*
%TD*%
D23*
%TO.C,R3*%
X193001100Y-105603600D03*
X193001100Y-108403600D03*
%TD*%
D11*
%TO.C,C3*%
X109101100Y-140003600D03*
X111901100Y-140003600D03*
%TD*%
D26*
%TO.C,C5*%
X150501100Y-90003600D03*
D27*
X155501100Y-90003600D03*
%TD*%
D28*
%TO.C,J2*%
X187041100Y-132353600D03*
D29*
X192541100Y-132353600D03*
X187041100Y-128153600D03*
X192541100Y-128153600D03*
X187041100Y-123953600D03*
X192541100Y-123953600D03*
%TD*%
D24*
%TO.C,R17*%
X119001100Y-125403600D03*
X119001100Y-122603600D03*
%TD*%
D12*
%TO.C,Q6*%
X135461100Y-102000000D03*
X138001100Y-102000000D03*
X140541100Y-102000000D03*
%TD*%
D19*
%TO.C,U7*%
X123096100Y-133703600D03*
X124366100Y-133703600D03*
X125636100Y-133703600D03*
X126906100Y-133703600D03*
X126906100Y-128303600D03*
X125636100Y-128303600D03*
X124366100Y-128303600D03*
X123096100Y-128303600D03*
%TD*%
D24*
%TO.C,R18*%
X123001100Y-125403600D03*
X123001100Y-122603600D03*
%TD*%
D28*
%TO.C,J1*%
X187001100Y-83003600D03*
D29*
X192501100Y-83003600D03*
X187001100Y-78803600D03*
X192501100Y-78803600D03*
%TD*%
D12*
%TO.C,Q2*%
X105461100Y-102000000D03*
X108001100Y-102000000D03*
X110541100Y-102000000D03*
%TD*%
D23*
%TO.C,R7*%
X190001100Y-89603600D03*
X190001100Y-92403600D03*
%TD*%
D11*
%TO.C,R12*%
X145601100Y-123003600D03*
X148401100Y-123003600D03*
%TD*%
D25*
%TO.C,U$10*%
X193001100Y-70003600D03*
%TD*%
D30*
%TO.C,U2*%
X155951100Y-78603600D03*
X155001100Y-78603600D03*
X154051100Y-78603600D03*
X154051100Y-81403600D03*
X155001100Y-81403600D03*
X155951100Y-81403600D03*
%TD*%
D22*
%TO.C,*%
X178500000Y-86000000D03*
%TD*%
D12*
%TO.C,Q1*%
X110541100Y-108000000D03*
X108001100Y-108000000D03*
X105461100Y-108000000D03*
%TD*%
D11*
%TO.C,C19*%
X152601100Y-119003600D03*
X155401100Y-119003600D03*
%TD*%
D24*
%TO.C,C9*%
X193001100Y-92403600D03*
X193001100Y-89603600D03*
%TD*%
%TO.C,R5*%
X190001100Y-100403600D03*
X190001100Y-97603600D03*
%TD*%
%TO.C,R15*%
X111001100Y-125403600D03*
X111001100Y-122603600D03*
%TD*%
D31*
%TO.C,D3*%
X118652100Y-137003600D03*
X115350100Y-137003600D03*
%TD*%
D11*
%TO.C,C14*%
X131601100Y-131003600D03*
X134401100Y-131003600D03*
%TD*%
D26*
%TO.C,C4*%
X150501100Y-104003600D03*
D27*
X155501100Y-104003600D03*
%TD*%
D11*
%TO.C,C2*%
X115601100Y-140003600D03*
X118401100Y-140003600D03*
%TD*%
D24*
%TO.C,R16*%
X115001100Y-125403600D03*
X115001100Y-122603600D03*
%TD*%
D22*
%TO.C,*%
X133100000Y-86000000D03*
%TD*%
D25*
%TO.C,U$11*%
X193000000Y-147000000D03*
%TD*%
D11*
%TO.C,C18*%
X152601100Y-127003600D03*
X155401100Y-127003600D03*
%TD*%
D23*
%TO.C,R2*%
X190001100Y-105603600D03*
X190001100Y-108403600D03*
%TD*%
D31*
%TO.C,D2*%
X126652100Y-137003600D03*
X123350100Y-137003600D03*
%TD*%
D32*
%TO.C,U4*%
X152001100Y-133193600D03*
X149461100Y-133193600D03*
X154541100Y-133193600D03*
%TD*%
D12*
%TO.C,Q3*%
X125541100Y-108000000D03*
X123001100Y-108000000D03*
X120461100Y-108000000D03*
%TD*%
D33*
%TO.C,D1*%
X155786100Y-114203600D03*
X151816100Y-114203600D03*
%TD*%
D11*
%TO.C,R10*%
X138601100Y-123003600D03*
X141401100Y-123003600D03*
%TD*%
D24*
%TO.C,R19*%
X127001100Y-125403600D03*
X127001100Y-122603600D03*
%TD*%
D20*
%TO.C,C15*%
X134401100Y-127003600D03*
X131601100Y-127003600D03*
%TD*%
D31*
%TO.C,D4*%
X111652100Y-137003600D03*
X108350100Y-137003600D03*
%TD*%
D24*
%TO.C,R14*%
X107001100Y-125403600D03*
X107001100Y-122603600D03*
%TD*%
D23*
%TO.C,R1*%
X187001100Y-105603600D03*
X187001100Y-108403600D03*
%TD*%
D22*
%TO.C,*%
X125200000Y-86000000D03*
%TD*%
D11*
%TO.C,C1*%
X123601100Y-140003600D03*
X126401100Y-140003600D03*
%TD*%
D34*
%TO.C,J3*%
X178470000Y-94700000D03*
X178470000Y-91300000D03*
X165000000Y-94700000D03*
X165000000Y-91300000D03*
%TD*%
D22*
%TO.C,*%
X141000000Y-86000000D03*
%TD*%
D19*
%TO.C,U6*%
X115096100Y-133703600D03*
X116366100Y-133703600D03*
X117636100Y-133703600D03*
X118906100Y-133703600D03*
X118906100Y-128303600D03*
X117636100Y-128303600D03*
X116366100Y-128303600D03*
X115096100Y-128303600D03*
%TD*%
D20*
%TO.C,C12*%
X134401100Y-135003600D03*
X131601100Y-135003600D03*
%TD*%
D24*
%TO.C,C17*%
X150001100Y-81403600D03*
X150001100Y-78603600D03*
%TD*%
D20*
%TO.C,C11*%
X134401100Y-139003600D03*
X131601100Y-139003600D03*
%TD*%
D11*
%TO.C,C20*%
X152601100Y-123003600D03*
X155401100Y-123003600D03*
%TD*%
D24*
%TO.C,R6*%
X193001100Y-100403600D03*
X193001100Y-97603600D03*
%TD*%
M02*
