%TF.GenerationSoftware,KiCad,Pcbnew,9.0.3*%
%TF.CreationDate,2026-03-08T16:46:48-04:00*%
%TF.ProjectId,StinkyController MK2,5374696e-6b79-4436-9f6e-74726f6c6c65,rev?*%
%TF.SameCoordinates,Original*%
%TF.FileFunction,Drillmap*%
%TF.FilePolarity,Positive*%
%FSLAX45Y45*%
G04 Gerber Fmt 4.5, Leading zero omitted, Abs format (unit mm)*
G04 Created by KiCad (PCBNEW 9.0.3) date 2026-03-08 16:46:48*
%MOMM*%
%LPD*%
G01*
G04 APERTURE LIST*
%ADD10C,0.100000*%
%ADD11C,0.200000*%
%ADD12C,0.101600*%
%ADD13C,0.114300*%
%ADD14C,0.127000*%
%ADD15C,0.160000*%
%ADD16C,0.175000*%
G04 APERTURE END LIST*
D10*
X10400006Y-15000000D02*
G75*
G02*
X10100010Y-14699994I5J300000D01*
G01*
X19600110Y-14700000D02*
G75*
G02*
X19300110Y-15000000I-300000J0D01*
G01*
X10100110Y-9043548D02*
X10100006Y-14699994D01*
X10300110Y-8843548D02*
X11850770Y-8843548D01*
X12049998Y-6899469D02*
X12050763Y-8641838D01*
X19300095Y-6700015D02*
X12249998Y-6700360D01*
X19300095Y-6700015D02*
G75*
G02*
X19600105Y-7000015I15J-299995D01*
G01*
X10400006Y-15000000D02*
X19300110Y-15000000D01*
X12050770Y-8643548D02*
G75*
G02*
X11850770Y-8843550I-200000J-2D01*
G01*
X19600110Y-14700000D02*
X19600110Y-7000015D01*
X12049998Y-6899469D02*
G75*
G02*
X12249998Y-6699468I200002J-1D01*
G01*
X10100110Y-9043548D02*
G75*
G02*
X10300110Y-8843550I200000J-2D01*
G01*
D11*
D10*
X10680110Y-12030360D02*
X10720110Y-12070360D01*
X10720110Y-12030360D02*
X10680110Y-12070360D01*
X10680110Y-13480360D02*
X10720110Y-13520360D01*
X10720110Y-13480360D02*
X10680110Y-13520360D01*
X10830110Y-13480360D02*
X10870110Y-13520360D01*
X10870110Y-13480360D02*
X10830110Y-13520360D01*
X10880110Y-12030360D02*
X10920110Y-12070360D01*
X10920110Y-12030360D02*
X10880110Y-12070360D01*
X10930110Y-13200360D02*
X10970110Y-13240360D01*
X10970110Y-13200360D02*
X10930110Y-13240360D01*
X11030110Y-12080360D02*
X11070110Y-12120360D01*
X11070110Y-12080360D02*
X11030110Y-12120360D01*
X11480110Y-12080360D02*
X11520110Y-12120360D01*
X11520110Y-12080360D02*
X11480110Y-12120360D01*
X11490110Y-13500360D02*
X11530110Y-13540360D01*
X11530110Y-13500360D02*
X11490110Y-13540360D01*
X11630110Y-13500360D02*
X11670110Y-13540360D01*
X11670110Y-13500360D02*
X11630110Y-13540360D01*
X11680110Y-12080360D02*
X11720110Y-12120360D01*
X11720110Y-12080360D02*
X11680110Y-12120360D01*
X11720110Y-13200360D02*
X11760110Y-13240360D01*
X11760110Y-13200360D02*
X11720110Y-13240360D01*
X11780110Y-11980360D02*
X11820110Y-12020360D01*
X11820110Y-11980360D02*
X11780110Y-12020360D01*
X12280110Y-11980360D02*
X12320110Y-12020360D01*
X12320110Y-11980360D02*
X12280110Y-12020360D01*
X12290110Y-13510360D02*
X12330110Y-13550360D01*
X12330110Y-13510360D02*
X12290110Y-13550360D01*
X12430110Y-12030360D02*
X12470110Y-12070360D01*
X12470110Y-12030360D02*
X12430110Y-12070360D01*
X12440110Y-13530360D02*
X12480110Y-13570360D01*
X12480110Y-13530360D02*
X12440110Y-13570360D01*
X12520110Y-13200360D02*
X12560110Y-13240360D01*
X12560110Y-13200360D02*
X12520110Y-13240360D01*
X12680110Y-12080360D02*
X12720110Y-12120360D01*
X12720110Y-12080360D02*
X12680110Y-12120360D01*
X12880110Y-13210360D02*
X12920110Y-13250360D01*
X12920110Y-13210360D02*
X12880110Y-13250360D01*
X15050110Y-12760360D02*
X15090110Y-12800360D01*
X15090110Y-12760360D02*
X15050110Y-12800360D01*
X16580000Y-13780000D02*
X16620000Y-13820000D01*
X16620000Y-13780000D02*
X16580000Y-13820000D01*
X16580110Y-11280000D02*
X16620110Y-11320000D01*
X16620110Y-11280000D02*
X16580110Y-11320000D01*
X16680110Y-11530000D02*
X16720110Y-11570000D01*
X16720110Y-11530000D02*
X16680110Y-11570000D01*
X16780110Y-10830000D02*
X16820110Y-10870000D01*
X16820110Y-10830000D02*
X16780110Y-10870000D01*
X16880110Y-11130000D02*
X16920110Y-11170000D01*
X16920110Y-11130000D02*
X16880110Y-11170000D01*
X16980110Y-10380000D02*
X17020110Y-10420000D01*
X17020110Y-10380000D02*
X16980110Y-10420000D01*
X17080110Y-10630000D02*
X17120110Y-10670000D01*
X17120110Y-10630000D02*
X17080110Y-10670000D01*
X17090110Y-13470360D02*
X17130110Y-13510360D01*
X17130110Y-13470360D02*
X17090110Y-13510360D01*
X17180110Y-10180000D02*
X17220110Y-10220000D01*
X17220110Y-10180000D02*
X17180110Y-10220000D01*
X17280110Y-10080000D02*
X17320110Y-10120000D01*
X17320110Y-10080000D02*
X17280110Y-10120000D01*
X17380110Y-9980000D02*
X17420110Y-10020000D01*
X17420110Y-9980000D02*
X17380110Y-10020000D01*
X17380110Y-11800360D02*
X17420110Y-11840360D01*
X17420110Y-11800360D02*
X17380110Y-11840360D01*
X17400110Y-12600360D02*
X17440110Y-12640360D01*
X17440110Y-12600360D02*
X17400110Y-12640360D01*
X17480110Y-9880000D02*
X17520110Y-9920000D01*
X17520110Y-9880000D02*
X17480110Y-9920000D01*
X18700110Y-10960360D02*
X18740110Y-11000360D01*
X18740110Y-10960360D02*
X18700110Y-11000360D01*
X18700110Y-11580360D02*
X18740110Y-11620360D01*
X18740110Y-11580360D02*
X18700110Y-11620360D01*
X18980110Y-10960360D02*
X19020110Y-11000360D01*
X19020110Y-10960360D02*
X18980110Y-11000360D01*
X19000110Y-12380360D02*
X19040110Y-12420360D01*
X19040110Y-12380360D02*
X19000110Y-12420360D01*
X19280110Y-10980360D02*
X19320110Y-11020360D01*
X19320110Y-10980360D02*
X19280110Y-11020360D01*
X10375110Y-12650360D02*
G75*
G02*
X10325110Y-12650360I-25000J0D01*
G01*
X10325110Y-12650360D02*
G75*
G02*
X10375110Y-12650360I25000J0D01*
G01*
X10375110Y-13250360D02*
G75*
G02*
X10325110Y-13250360I-25000J0D01*
G01*
X10325110Y-13250360D02*
G75*
G02*
X10375110Y-13250360I25000J0D01*
G01*
X10725110Y-14130360D02*
G75*
G02*
X10675110Y-14130360I-25000J0D01*
G01*
X10675110Y-14130360D02*
G75*
G02*
X10725110Y-14130360I25000J0D01*
G01*
X10875110Y-13050360D02*
G75*
G02*
X10825110Y-13050360I-25000J0D01*
G01*
X10825110Y-13050360D02*
G75*
G02*
X10875110Y-13050360I25000J0D01*
G01*
X11325110Y-12800360D02*
G75*
G02*
X11275110Y-12800360I-25000J0D01*
G01*
X11275110Y-12800360D02*
G75*
G02*
X11325110Y-12800360I25000J0D01*
G01*
X11675110Y-13050360D02*
G75*
G02*
X11625110Y-13050360I-25000J0D01*
G01*
X11625110Y-13050360D02*
G75*
G02*
X11675110Y-13050360I25000J0D01*
G01*
X12125110Y-12800360D02*
G75*
G02*
X12075110Y-12800360I-25000J0D01*
G01*
X12075110Y-12800360D02*
G75*
G02*
X12125110Y-12800360I25000J0D01*
G01*
X12475110Y-13050360D02*
G75*
G02*
X12425110Y-13050360I-25000J0D01*
G01*
X12425110Y-13050360D02*
G75*
G02*
X12475110Y-13050360I25000J0D01*
G01*
X12975110Y-12150360D02*
G75*
G02*
X12925110Y-12150360I-25000J0D01*
G01*
X12925110Y-12150360D02*
G75*
G02*
X12975110Y-12150360I25000J0D01*
G01*
X12975110Y-12350360D02*
G75*
G02*
X12925110Y-12350360I-25000J0D01*
G01*
X12925110Y-12350360D02*
G75*
G02*
X12975110Y-12350360I25000J0D01*
G01*
X12975110Y-12550360D02*
G75*
G02*
X12925110Y-12550360I-25000J0D01*
G01*
X12925110Y-12550360D02*
G75*
G02*
X12975110Y-12550360I25000J0D01*
G01*
X12975110Y-12750360D02*
G75*
G02*
X12925110Y-12750360I-25000J0D01*
G01*
X12925110Y-12750360D02*
G75*
G02*
X12975110Y-12750360I25000J0D01*
G01*
X12975110Y-13350360D02*
G75*
G02*
X12925110Y-13350360I-25000J0D01*
G01*
X12925110Y-13350360D02*
G75*
G02*
X12975110Y-13350360I25000J0D01*
G01*
X12975110Y-13480360D02*
G75*
G02*
X12925110Y-13480360I-25000J0D01*
G01*
X12925110Y-13480360D02*
G75*
G02*
X12975110Y-13480360I25000J0D01*
G01*
X13125110Y-13300360D02*
G75*
G02*
X13075110Y-13300360I-25000J0D01*
G01*
X13075110Y-13300360D02*
G75*
G02*
X13125110Y-13300360I25000J0D01*
G01*
X13875110Y-12450360D02*
G75*
G02*
X13825110Y-12450360I-25000J0D01*
G01*
X13825110Y-12450360D02*
G75*
G02*
X13875110Y-12450360I25000J0D01*
G01*
X13875110Y-13050360D02*
G75*
G02*
X13825110Y-13050360I-25000J0D01*
G01*
X13825110Y-13050360D02*
G75*
G02*
X13875110Y-13050360I25000J0D01*
G01*
X14375110Y-12550360D02*
G75*
G02*
X14325110Y-12550360I-25000J0D01*
G01*
X14325110Y-12550360D02*
G75*
G02*
X14375110Y-12550360I25000J0D01*
G01*
X14525110Y-13230360D02*
G75*
G02*
X14475110Y-13230360I-25000J0D01*
G01*
X14475110Y-13230360D02*
G75*
G02*
X14525110Y-13230360I25000J0D01*
G01*
X14575110Y-7050360D02*
G75*
G02*
X14525110Y-7050360I-25000J0D01*
G01*
X14525110Y-7050360D02*
G75*
G02*
X14575110Y-7050360I25000J0D01*
G01*
X14575110Y-7300360D02*
G75*
G02*
X14525110Y-7300360I-25000J0D01*
G01*
X14525110Y-7300360D02*
G75*
G02*
X14575110Y-7300360I25000J0D01*
G01*
X14575110Y-7550360D02*
G75*
G02*
X14525110Y-7550360I-25000J0D01*
G01*
X14525110Y-7550360D02*
G75*
G02*
X14575110Y-7550360I25000J0D01*
G01*
X14575110Y-11450360D02*
G75*
G02*
X14525110Y-11450360I-25000J0D01*
G01*
X14525110Y-11450360D02*
G75*
G02*
X14575110Y-11450360I25000J0D01*
G01*
X14575110Y-11950360D02*
G75*
G02*
X14525110Y-11950360I-25000J0D01*
G01*
X14525110Y-11950360D02*
G75*
G02*
X14575110Y-11950360I25000J0D01*
G01*
X14775110Y-7050360D02*
G75*
G02*
X14725110Y-7050360I-25000J0D01*
G01*
X14725110Y-7050360D02*
G75*
G02*
X14775110Y-7050360I25000J0D01*
G01*
X14775110Y-7300360D02*
G75*
G02*
X14725110Y-7300360I-25000J0D01*
G01*
X14725110Y-7300360D02*
G75*
G02*
X14775110Y-7300360I25000J0D01*
G01*
X14775110Y-7550360D02*
G75*
G02*
X14725110Y-7550360I-25000J0D01*
G01*
X14725110Y-7550360D02*
G75*
G02*
X14775110Y-7550360I25000J0D01*
G01*
X14775110Y-7850360D02*
G75*
G02*
X14725110Y-7850360I-25000J0D01*
G01*
X14725110Y-7850360D02*
G75*
G02*
X14775110Y-7850360I25000J0D01*
G01*
X14775110Y-8200360D02*
G75*
G02*
X14725110Y-8200360I-25000J0D01*
G01*
X14725110Y-8200360D02*
G75*
G02*
X14775110Y-8200360I25000J0D01*
G01*
X14975110Y-7050360D02*
G75*
G02*
X14925110Y-7050360I-25000J0D01*
G01*
X14925110Y-7050360D02*
G75*
G02*
X14975110Y-7050360I25000J0D01*
G01*
X14975110Y-7550360D02*
G75*
G02*
X14925110Y-7550360I-25000J0D01*
G01*
X14925110Y-7550360D02*
G75*
G02*
X14975110Y-7550360I25000J0D01*
G01*
X14975110Y-11450360D02*
G75*
G02*
X14925110Y-11450360I-25000J0D01*
G01*
X14925110Y-11450360D02*
G75*
G02*
X14975110Y-11450360I25000J0D01*
G01*
X14975110Y-11950360D02*
G75*
G02*
X14925110Y-11950360I-25000J0D01*
G01*
X14925110Y-11950360D02*
G75*
G02*
X14975110Y-11950360I25000J0D01*
G01*
X15175110Y-7050360D02*
G75*
G02*
X15125110Y-7050360I-25000J0D01*
G01*
X15125110Y-7050360D02*
G75*
G02*
X15175110Y-7050360I25000J0D01*
G01*
X15175110Y-7550360D02*
G75*
G02*
X15125110Y-7550360I-25000J0D01*
G01*
X15125110Y-7550360D02*
G75*
G02*
X15175110Y-7550360I25000J0D01*
G01*
X15675110Y-13250360D02*
G75*
G02*
X15625110Y-13250360I-25000J0D01*
G01*
X15625110Y-13250360D02*
G75*
G02*
X15675110Y-13250360I25000J0D01*
G01*
X15775110Y-9250360D02*
G75*
G02*
X15725110Y-9250360I-25000J0D01*
G01*
X15725110Y-9250360D02*
G75*
G02*
X15775110Y-9250360I25000J0D01*
G01*
X15775110Y-9850360D02*
G75*
G02*
X15725110Y-9850360I-25000J0D01*
G01*
X15725110Y-9850360D02*
G75*
G02*
X15775110Y-9850360I25000J0D01*
G01*
X15775110Y-10900360D02*
G75*
G02*
X15725110Y-10900360I-25000J0D01*
G01*
X15725110Y-10900360D02*
G75*
G02*
X15775110Y-10900360I25000J0D01*
G01*
X15775110Y-11400360D02*
G75*
G02*
X15725110Y-11400360I-25000J0D01*
G01*
X15725110Y-11400360D02*
G75*
G02*
X15775110Y-11400360I25000J0D01*
G01*
X15775110Y-11900360D02*
G75*
G02*
X15725110Y-11900360I-25000J0D01*
G01*
X15725110Y-11900360D02*
G75*
G02*
X15775110Y-11900360I25000J0D01*
G01*
X15775110Y-12300360D02*
G75*
G02*
X15725110Y-12300360I-25000J0D01*
G01*
X15725110Y-12300360D02*
G75*
G02*
X15775110Y-12300360I25000J0D01*
G01*
X15775110Y-12700360D02*
G75*
G02*
X15725110Y-12700360I-25000J0D01*
G01*
X15725110Y-12700360D02*
G75*
G02*
X15775110Y-12700360I25000J0D01*
G01*
X15875110Y-7050360D02*
G75*
G02*
X15825110Y-7050360I-25000J0D01*
G01*
X15825110Y-7050360D02*
G75*
G02*
X15875110Y-7050360I25000J0D01*
G01*
X15875110Y-7600360D02*
G75*
G02*
X15825110Y-7600360I-25000J0D01*
G01*
X15825110Y-7600360D02*
G75*
G02*
X15875110Y-7600360I25000J0D01*
G01*
X15875110Y-10400360D02*
G75*
G02*
X15825110Y-10400360I-25000J0D01*
G01*
X15825110Y-10400360D02*
G75*
G02*
X15875110Y-10400360I25000J0D01*
G01*
X16475110Y-11050360D02*
G75*
G02*
X16425110Y-11050360I-25000J0D01*
G01*
X16425110Y-11050360D02*
G75*
G02*
X16475110Y-11050360I25000J0D01*
G01*
X16475110Y-11450360D02*
G75*
G02*
X16425110Y-11450360I-25000J0D01*
G01*
X16425110Y-11450360D02*
G75*
G02*
X16475110Y-11450360I25000J0D01*
G01*
X16475110Y-11950360D02*
G75*
G02*
X16425110Y-11950360I-25000J0D01*
G01*
X16425110Y-11950360D02*
G75*
G02*
X16475110Y-11950360I25000J0D01*
G01*
X16675110Y-14050360D02*
G75*
G02*
X16625110Y-14050360I-25000J0D01*
G01*
X16625110Y-14050360D02*
G75*
G02*
X16675110Y-14050360I25000J0D01*
G01*
X17425000Y-8850000D02*
G75*
G02*
X17375000Y-8850000I-25000J0D01*
G01*
X17375000Y-8850000D02*
G75*
G02*
X17425000Y-8850000I25000J0D01*
G01*
X17775110Y-9550360D02*
G75*
G02*
X17725110Y-9550360I-25000J0D01*
G01*
X17725110Y-9550360D02*
G75*
G02*
X17775110Y-9550360I25000J0D01*
G01*
X17775110Y-10050360D02*
G75*
G02*
X17725110Y-10050360I-25000J0D01*
G01*
X17725110Y-10050360D02*
G75*
G02*
X17775110Y-10050360I25000J0D01*
G01*
X17775110Y-10550360D02*
G75*
G02*
X17725110Y-10550360I-25000J0D01*
G01*
X17725110Y-10550360D02*
G75*
G02*
X17775110Y-10550360I25000J0D01*
G01*
X17775110Y-11050360D02*
G75*
G02*
X17725110Y-11050360I-25000J0D01*
G01*
X17725110Y-11050360D02*
G75*
G02*
X17775110Y-11050360I25000J0D01*
G01*
X17775110Y-11550360D02*
G75*
G02*
X17725110Y-11550360I-25000J0D01*
G01*
X17725110Y-11550360D02*
G75*
G02*
X17775110Y-11550360I25000J0D01*
G01*
X17775110Y-11850360D02*
G75*
G02*
X17725110Y-11850360I-25000J0D01*
G01*
X17725110Y-11850360D02*
G75*
G02*
X17775110Y-11850360I25000J0D01*
G01*
X17775110Y-12350360D02*
G75*
G02*
X17725110Y-12350360I-25000J0D01*
G01*
X17725110Y-12350360D02*
G75*
G02*
X17775110Y-12350360I25000J0D01*
G01*
X17775110Y-14050360D02*
G75*
G02*
X17725110Y-14050360I-25000J0D01*
G01*
X17725110Y-14050360D02*
G75*
G02*
X17775110Y-14050360I25000J0D01*
G01*
X18475110Y-10250360D02*
G75*
G02*
X18425110Y-10250360I-25000J0D01*
G01*
X18425110Y-10250360D02*
G75*
G02*
X18475110Y-10250360I25000J0D01*
G01*
X18575110Y-13850000D02*
G75*
G02*
X18525110Y-13850000I-25000J0D01*
G01*
X18525110Y-13850000D02*
G75*
G02*
X18575110Y-13850000I25000J0D01*
G01*
X18675110Y-7150360D02*
G75*
G02*
X18625110Y-7150360I-25000J0D01*
G01*
X18625110Y-7150360D02*
G75*
G02*
X18675110Y-7150360I25000J0D01*
G01*
X18975110Y-8650360D02*
G75*
G02*
X18925110Y-8650360I-25000J0D01*
G01*
X18925110Y-8650360D02*
G75*
G02*
X18975110Y-8650360I25000J0D01*
G01*
X19275110Y-8650360D02*
G75*
G02*
X19225110Y-8650360I-25000J0D01*
G01*
X19225110Y-8650360D02*
G75*
G02*
X19275110Y-8650360I25000J0D01*
G01*
X15050110Y-8955360D02*
X15050110Y-9045360D01*
X15005110Y-9000360D02*
X15095110Y-9000360D01*
X15050110Y-10355360D02*
X15050110Y-10445360D01*
X15005110Y-10400360D02*
X15095110Y-10400360D01*
X15550110Y-8955360D02*
X15550110Y-9045360D01*
X15505110Y-9000360D02*
X15595110Y-9000360D01*
X15550110Y-10355360D02*
X15550110Y-10445360D01*
X15505110Y-10400360D02*
X15595110Y-10400360D01*
X16319466Y-9909356D02*
X16319466Y-9838644D01*
X16248754Y-9838644D01*
X16248754Y-9909356D01*
X16319466Y-9909356D01*
X16319466Y-10163356D02*
X16319466Y-10092644D01*
X16248754Y-10092644D01*
X16248754Y-10163356D01*
X16319466Y-10163356D01*
X16319466Y-10417356D02*
X16319466Y-10346644D01*
X16248754Y-10346644D01*
X16248754Y-10417356D01*
X16319466Y-10417356D01*
X16319466Y-10671356D02*
X16319466Y-10600644D01*
X16248754Y-10600644D01*
X16248754Y-10671356D01*
X16319466Y-10671356D01*
X16319466Y-10925356D02*
X16319466Y-10854644D01*
X16248754Y-10854644D01*
X16248754Y-10925356D01*
X16319466Y-10925356D01*
X16319466Y-11179356D02*
X16319466Y-11108644D01*
X16248754Y-11108644D01*
X16248754Y-11179356D01*
X16319466Y-11179356D01*
X16319466Y-11433356D02*
X16319466Y-11362644D01*
X16248754Y-11362644D01*
X16248754Y-11433356D01*
X16319466Y-11433356D01*
X16319466Y-11687356D02*
X16319466Y-11616644D01*
X16248754Y-11616644D01*
X16248754Y-11687356D01*
X16319466Y-11687356D01*
X16319466Y-11941356D02*
X16319466Y-11870644D01*
X16248754Y-11870644D01*
X16248754Y-11941356D01*
X16319466Y-11941356D01*
X16319466Y-12195356D02*
X16319466Y-12124644D01*
X16248754Y-12124644D01*
X16248754Y-12195356D01*
X16319466Y-12195356D01*
X16319466Y-12449356D02*
X16319466Y-12378644D01*
X16248754Y-12378644D01*
X16248754Y-12449356D01*
X16319466Y-12449356D01*
X16319466Y-12703356D02*
X16319466Y-12632644D01*
X16248754Y-12632644D01*
X16248754Y-12703356D01*
X16319466Y-12703356D01*
X16319466Y-12957356D02*
X16319466Y-12886644D01*
X16248754Y-12886644D01*
X16248754Y-12957356D01*
X16319466Y-12957356D01*
X16319466Y-13211356D02*
X16319466Y-13140644D01*
X16248754Y-13140644D01*
X16248754Y-13211356D01*
X16319466Y-13211356D01*
X16319466Y-13465356D02*
X16319466Y-13394644D01*
X16248754Y-13394644D01*
X16248754Y-13465356D01*
X16319466Y-13465356D01*
X16319466Y-13719356D02*
X16319466Y-13648644D01*
X16248754Y-13648644D01*
X16248754Y-13719356D01*
X16319466Y-13719356D01*
X16319466Y-13973356D02*
X16319466Y-13902644D01*
X16248754Y-13902644D01*
X16248754Y-13973356D01*
X16319466Y-13973356D01*
X16319466Y-14227356D02*
X16319466Y-14156644D01*
X16248754Y-14156644D01*
X16248754Y-14227356D01*
X16319466Y-14227356D01*
X16319466Y-14481356D02*
X16319466Y-14410644D01*
X16248754Y-14410644D01*
X16248754Y-14481356D01*
X16319466Y-14481356D01*
X16319466Y-14735356D02*
X16319466Y-14664644D01*
X16248754Y-14664644D01*
X16248754Y-14735356D01*
X16319466Y-14735356D01*
X18097466Y-9909356D02*
X18097466Y-9838644D01*
X18026754Y-9838644D01*
X18026754Y-9909356D01*
X18097466Y-9909356D01*
X18097466Y-10163356D02*
X18097466Y-10092644D01*
X18026754Y-10092644D01*
X18026754Y-10163356D01*
X18097466Y-10163356D01*
X18097466Y-10417356D02*
X18097466Y-10346644D01*
X18026754Y-10346644D01*
X18026754Y-10417356D01*
X18097466Y-10417356D01*
X18097466Y-10671356D02*
X18097466Y-10600644D01*
X18026754Y-10600644D01*
X18026754Y-10671356D01*
X18097466Y-10671356D01*
X18097466Y-10925356D02*
X18097466Y-10854644D01*
X18026754Y-10854644D01*
X18026754Y-10925356D01*
X18097466Y-10925356D01*
X18097466Y-11179356D02*
X18097466Y-11108644D01*
X18026754Y-11108644D01*
X18026754Y-11179356D01*
X18097466Y-11179356D01*
X18097466Y-11433356D02*
X18097466Y-11362644D01*
X18026754Y-11362644D01*
X18026754Y-11433356D01*
X18097466Y-11433356D01*
X18097466Y-11687356D02*
X18097466Y-11616644D01*
X18026754Y-11616644D01*
X18026754Y-11687356D01*
X18097466Y-11687356D01*
X18097466Y-11941356D02*
X18097466Y-11870644D01*
X18026754Y-11870644D01*
X18026754Y-11941356D01*
X18097466Y-11941356D01*
X18097466Y-12195356D02*
X18097466Y-12124644D01*
X18026754Y-12124644D01*
X18026754Y-12195356D01*
X18097466Y-12195356D01*
X18097466Y-12449356D02*
X18097466Y-12378644D01*
X18026754Y-12378644D01*
X18026754Y-12449356D01*
X18097466Y-12449356D01*
X18097466Y-12703356D02*
X18097466Y-12632644D01*
X18026754Y-12632644D01*
X18026754Y-12703356D01*
X18097466Y-12703356D01*
X18097466Y-12957356D02*
X18097466Y-12886644D01*
X18026754Y-12886644D01*
X18026754Y-12957356D01*
X18097466Y-12957356D01*
X18097466Y-13211356D02*
X18097466Y-13140644D01*
X18026754Y-13140644D01*
X18026754Y-13211356D01*
X18097466Y-13211356D01*
X18097466Y-13465356D02*
X18097466Y-13394644D01*
X18026754Y-13394644D01*
X18026754Y-13465356D01*
X18097466Y-13465356D01*
X18097466Y-13719356D02*
X18097466Y-13648644D01*
X18026754Y-13648644D01*
X18026754Y-13719356D01*
X18097466Y-13719356D01*
X18097466Y-13973356D02*
X18097466Y-13902644D01*
X18026754Y-13902644D01*
X18026754Y-13973356D01*
X18097466Y-13973356D01*
X18097466Y-14227356D02*
X18097466Y-14156644D01*
X18026754Y-14156644D01*
X18026754Y-14227356D01*
X18097466Y-14227356D01*
X18097466Y-14481356D02*
X18097466Y-14410644D01*
X18026754Y-14410644D01*
X18026754Y-14481356D01*
X18097466Y-14481356D01*
X18097466Y-14735356D02*
X18097466Y-14664644D01*
X18026754Y-14664644D01*
X18026754Y-14735356D01*
X18097466Y-14735356D01*
D12*
X14946110Y-13370160D02*
X14996910Y-13319360D01*
X14946110Y-13268560D01*
X14895310Y-13319360D01*
X14946110Y-13370160D01*
X15200110Y-13370160D02*
X15250910Y-13319360D01*
X15200110Y-13268560D01*
X15149310Y-13319360D01*
X15200110Y-13370160D01*
X15454110Y-13370160D02*
X15504910Y-13319360D01*
X15454110Y-13268560D01*
X15403310Y-13319360D01*
X15454110Y-13370160D01*
X18654990Y-11385100D02*
X18705790Y-11334300D01*
X18654990Y-11283500D01*
X18604190Y-11334300D01*
X18654990Y-11385100D01*
X18654990Y-11837220D02*
X18705790Y-11786420D01*
X18654990Y-11735620D01*
X18604190Y-11786420D01*
X18654990Y-11837220D01*
X19305230Y-11385100D02*
X19356030Y-11334300D01*
X19305230Y-11283500D01*
X19254430Y-11334300D01*
X19305230Y-11385100D01*
X19305230Y-11837220D02*
X19356030Y-11786420D01*
X19305230Y-11735620D01*
X19254430Y-11786420D01*
X19305230Y-11837220D01*
D13*
X10488960Y-10142850D02*
X10603260Y-10257150D01*
X10603260Y-10142850D02*
X10488960Y-10257150D01*
X10603260Y-10200000D02*
G75*
G02*
X10488960Y-10200000I-57150J0D01*
G01*
X10488960Y-10200000D02*
G75*
G02*
X10603260Y-10200000I57150J0D01*
G01*
X10488960Y-10742850D02*
X10603260Y-10857150D01*
X10603260Y-10742850D02*
X10488960Y-10857150D01*
X10603260Y-10800000D02*
G75*
G02*
X10488960Y-10800000I-57150J0D01*
G01*
X10488960Y-10800000D02*
G75*
G02*
X10603260Y-10800000I57150J0D01*
G01*
X10742960Y-10142850D02*
X10857260Y-10257150D01*
X10857260Y-10142850D02*
X10742960Y-10257150D01*
X10857260Y-10200000D02*
G75*
G02*
X10742960Y-10200000I-57150J0D01*
G01*
X10742960Y-10200000D02*
G75*
G02*
X10857260Y-10200000I57150J0D01*
G01*
X10742960Y-10742850D02*
X10857260Y-10857150D01*
X10857260Y-10742850D02*
X10742960Y-10857150D01*
X10857260Y-10800000D02*
G75*
G02*
X10742960Y-10800000I-57150J0D01*
G01*
X10742960Y-10800000D02*
G75*
G02*
X10857260Y-10800000I57150J0D01*
G01*
X10996960Y-10142850D02*
X11111260Y-10257150D01*
X11111260Y-10142850D02*
X10996960Y-10257150D01*
X11111260Y-10200000D02*
G75*
G02*
X10996960Y-10200000I-57150J0D01*
G01*
X10996960Y-10200000D02*
G75*
G02*
X11111260Y-10200000I57150J0D01*
G01*
X10996960Y-10742850D02*
X11111260Y-10857150D01*
X11111260Y-10742850D02*
X10996960Y-10857150D01*
X11111260Y-10800000D02*
G75*
G02*
X10996960Y-10800000I-57150J0D01*
G01*
X10996960Y-10800000D02*
G75*
G02*
X11111260Y-10800000I57150J0D01*
G01*
X11988960Y-10142850D02*
X12103260Y-10257150D01*
X12103260Y-10142850D02*
X11988960Y-10257150D01*
X12103260Y-10200000D02*
G75*
G02*
X11988960Y-10200000I-57150J0D01*
G01*
X11988960Y-10200000D02*
G75*
G02*
X12103260Y-10200000I57150J0D01*
G01*
X11988960Y-10742850D02*
X12103260Y-10857150D01*
X12103260Y-10742850D02*
X11988960Y-10857150D01*
X12103260Y-10800000D02*
G75*
G02*
X11988960Y-10800000I-57150J0D01*
G01*
X11988960Y-10800000D02*
G75*
G02*
X12103260Y-10800000I57150J0D01*
G01*
X12242960Y-10142850D02*
X12357260Y-10257150D01*
X12357260Y-10142850D02*
X12242960Y-10257150D01*
X12357260Y-10200000D02*
G75*
G02*
X12242960Y-10200000I-57150J0D01*
G01*
X12242960Y-10200000D02*
G75*
G02*
X12357260Y-10200000I57150J0D01*
G01*
X12242960Y-10742850D02*
X12357260Y-10857150D01*
X12357260Y-10742850D02*
X12242960Y-10857150D01*
X12357260Y-10800000D02*
G75*
G02*
X12242960Y-10800000I-57150J0D01*
G01*
X12242960Y-10800000D02*
G75*
G02*
X12357260Y-10800000I57150J0D01*
G01*
X12496960Y-10142850D02*
X12611260Y-10257150D01*
X12611260Y-10142850D02*
X12496960Y-10257150D01*
X12611260Y-10200000D02*
G75*
G02*
X12496960Y-10200000I-57150J0D01*
G01*
X12496960Y-10200000D02*
G75*
G02*
X12611260Y-10200000I57150J0D01*
G01*
X12496960Y-10742850D02*
X12611260Y-10857150D01*
X12611260Y-10742850D02*
X12496960Y-10857150D01*
X12611260Y-10800000D02*
G75*
G02*
X12496960Y-10800000I-57150J0D01*
G01*
X12496960Y-10800000D02*
G75*
G02*
X12611260Y-10800000I57150J0D01*
G01*
X13488960Y-10142850D02*
X13603260Y-10257150D01*
X13603260Y-10142850D02*
X13488960Y-10257150D01*
X13603260Y-10200000D02*
G75*
G02*
X13488960Y-10200000I-57150J0D01*
G01*
X13488960Y-10200000D02*
G75*
G02*
X13603260Y-10200000I57150J0D01*
G01*
X13488960Y-10742850D02*
X13603260Y-10857150D01*
X13603260Y-10742850D02*
X13488960Y-10857150D01*
X13603260Y-10800000D02*
G75*
G02*
X13488960Y-10800000I-57150J0D01*
G01*
X13488960Y-10800000D02*
G75*
G02*
X13603260Y-10800000I57150J0D01*
G01*
X13742960Y-10142850D02*
X13857260Y-10257150D01*
X13857260Y-10142850D02*
X13742960Y-10257150D01*
X13857260Y-10200000D02*
G75*
G02*
X13742960Y-10200000I-57150J0D01*
G01*
X13742960Y-10200000D02*
G75*
G02*
X13857260Y-10200000I57150J0D01*
G01*
X13742960Y-10742850D02*
X13857260Y-10857150D01*
X13857260Y-10742850D02*
X13742960Y-10857150D01*
X13857260Y-10800000D02*
G75*
G02*
X13742960Y-10800000I-57150J0D01*
G01*
X13742960Y-10800000D02*
G75*
G02*
X13857260Y-10800000I57150J0D01*
G01*
X13996960Y-10142850D02*
X14111260Y-10257150D01*
X14111260Y-10142850D02*
X13996960Y-10257150D01*
X14111260Y-10200000D02*
G75*
G02*
X13996960Y-10200000I-57150J0D01*
G01*
X13996960Y-10200000D02*
G75*
G02*
X14111260Y-10200000I57150J0D01*
G01*
X13996960Y-10742850D02*
X14111260Y-10857150D01*
X14111260Y-10742850D02*
X13996960Y-10857150D01*
X14111260Y-10800000D02*
G75*
G02*
X13996960Y-10800000I-57150J0D01*
G01*
X13996960Y-10800000D02*
G75*
G02*
X14111260Y-10800000I57150J0D01*
G01*
D14*
X12456500Y-8536500D02*
X12583500Y-8663500D01*
X12583500Y-8536500D02*
X12456500Y-8663500D01*
X12520000Y-8536500D02*
X12520000Y-8663500D01*
X12456500Y-8600000D02*
X12583500Y-8600000D01*
D10*
X12718000Y-8536500D02*
X12322000Y-8536500D01*
X12322000Y-8663500D02*
G75*
G02*
X12322000Y-8536500I0J63500D01*
G01*
X12322000Y-8663500D02*
X12718000Y-8663500D01*
X12718000Y-8663500D02*
G75*
G03*
X12718000Y-8536500I0J63500D01*
G01*
D14*
X13246500Y-8536500D02*
X13373500Y-8663500D01*
X13373500Y-8536500D02*
X13246500Y-8663500D01*
X13310000Y-8536500D02*
X13310000Y-8663500D01*
X13246500Y-8600000D02*
X13373500Y-8600000D01*
D10*
X13508000Y-8536500D02*
X13112000Y-8536500D01*
X13112000Y-8663500D02*
G75*
G02*
X13112000Y-8536500I0J63500D01*
G01*
X13112000Y-8663500D02*
X13508000Y-8663500D01*
X13508000Y-8663500D02*
G75*
G03*
X13508000Y-8536500I0J63500D01*
G01*
D14*
X14036500Y-8536500D02*
X14163500Y-8663500D01*
X14163500Y-8536500D02*
X14036500Y-8663500D01*
X14100000Y-8536500D02*
X14100000Y-8663500D01*
X14036500Y-8600000D02*
X14163500Y-8600000D01*
D10*
X14298000Y-8536500D02*
X13902000Y-8536500D01*
X13902000Y-8663500D02*
G75*
G02*
X13902000Y-8536500I0J63500D01*
G01*
X13902000Y-8663500D02*
X14298000Y-8663500D01*
X14298000Y-8663500D02*
G75*
G03*
X14298000Y-8536500I0J63500D01*
G01*
D14*
X16986500Y-8536500D02*
X17113500Y-8663500D01*
X17113500Y-8536500D02*
X16986500Y-8663500D01*
X17050000Y-8536500D02*
X17050000Y-8663500D01*
X16986500Y-8600000D02*
X17113500Y-8600000D01*
D10*
X17248000Y-8536500D02*
X16852000Y-8536500D01*
X16852000Y-8663500D02*
G75*
G02*
X16852000Y-8536500I0J63500D01*
G01*
X16852000Y-8663500D02*
X17248000Y-8663500D01*
X17248000Y-8663500D02*
G75*
G03*
X17248000Y-8536500I0J63500D01*
G01*
D14*
X17786500Y-8536500D02*
X17913500Y-8663500D01*
X17913500Y-8536500D02*
X17786500Y-8663500D01*
X17850000Y-8536500D02*
X17850000Y-8663500D01*
X17786500Y-8600000D02*
X17913500Y-8600000D01*
D10*
X18048000Y-8536500D02*
X17652000Y-8536500D01*
X17652000Y-8663500D02*
G75*
G02*
X17652000Y-8536500I0J63500D01*
G01*
X17652000Y-8663500D02*
X18048000Y-8663500D01*
X18048000Y-8663500D02*
G75*
G03*
X18048000Y-8536500I0J63500D01*
G01*
D15*
X18620110Y-7800360D02*
X18780110Y-7960360D01*
X18780110Y-7800360D02*
X18620110Y-7960360D01*
X18756679Y-7936929D02*
X18756679Y-7823791D01*
X18643541Y-7823791D01*
X18643541Y-7936929D01*
X18756679Y-7936929D01*
X18620110Y-8220360D02*
X18780110Y-8380360D01*
X18780110Y-8220360D02*
X18620110Y-8380360D01*
X18756679Y-8356929D02*
X18756679Y-8243791D01*
X18643541Y-8243791D01*
X18643541Y-8356929D01*
X18756679Y-8356929D01*
X18624110Y-12315360D02*
X18784110Y-12475360D01*
X18784110Y-12315360D02*
X18624110Y-12475360D01*
X18760679Y-12451929D02*
X18760679Y-12338791D01*
X18647541Y-12338791D01*
X18647541Y-12451929D01*
X18760679Y-12451929D01*
X18624110Y-12735360D02*
X18784110Y-12895360D01*
X18784110Y-12735360D02*
X18624110Y-12895360D01*
X18760679Y-12871929D02*
X18760679Y-12758791D01*
X18647541Y-12758791D01*
X18647541Y-12871929D01*
X18760679Y-12871929D01*
X18624110Y-13155360D02*
X18784110Y-13315360D01*
X18784110Y-13155360D02*
X18624110Y-13315360D01*
X18760679Y-13291929D02*
X18760679Y-13178791D01*
X18647541Y-13178791D01*
X18647541Y-13291929D01*
X18760679Y-13291929D01*
X19170110Y-7800360D02*
X19330110Y-7960360D01*
X19330110Y-7800360D02*
X19170110Y-7960360D01*
X19306679Y-7936929D02*
X19306679Y-7823791D01*
X19193541Y-7823791D01*
X19193541Y-7936929D01*
X19306679Y-7936929D01*
X19170110Y-8220360D02*
X19330110Y-8380360D01*
X19330110Y-8220360D02*
X19170110Y-8380360D01*
X19306679Y-8356929D02*
X19306679Y-8243791D01*
X19193541Y-8243791D01*
X19193541Y-8356929D01*
X19306679Y-8356929D01*
X19174110Y-12315360D02*
X19334110Y-12475360D01*
X19334110Y-12315360D02*
X19174110Y-12475360D01*
X19310679Y-12451929D02*
X19310679Y-12338791D01*
X19197541Y-12338791D01*
X19197541Y-12451929D01*
X19310679Y-12451929D01*
X19174110Y-12735360D02*
X19334110Y-12895360D01*
X19334110Y-12735360D02*
X19174110Y-12895360D01*
X19310679Y-12871929D02*
X19310679Y-12758791D01*
X19197541Y-12758791D01*
X19197541Y-12871929D01*
X19310679Y-12871929D01*
X19174110Y-13155360D02*
X19334110Y-13315360D01*
X19334110Y-13155360D02*
X19174110Y-13315360D01*
X19310679Y-13291929D02*
X19310679Y-13178791D01*
X19197541Y-13178791D01*
X19197541Y-13291929D01*
X19310679Y-13291929D01*
D16*
X16412500Y-9042500D02*
X16587500Y-9217500D01*
X16587500Y-9042500D02*
X16412500Y-9217500D01*
X16500000Y-9217500D02*
X16587500Y-9130000D01*
X16500000Y-9042500D01*
X16412500Y-9130000D01*
X16500000Y-9217500D01*
X16412500Y-9382500D02*
X16587500Y-9557500D01*
X16587500Y-9382500D02*
X16412500Y-9557500D01*
X16500000Y-9557500D02*
X16587500Y-9470000D01*
X16500000Y-9382500D01*
X16412500Y-9470000D01*
X16500000Y-9557500D01*
X17759500Y-9042500D02*
X17934500Y-9217500D01*
X17934500Y-9042500D02*
X17759500Y-9217500D01*
X17847000Y-9217500D02*
X17934500Y-9130000D01*
X17847000Y-9042500D01*
X17759500Y-9130000D01*
X17847000Y-9217500D01*
X17759500Y-9382500D02*
X17934500Y-9557500D01*
X17934500Y-9382500D02*
X17759500Y-9557500D01*
X17847000Y-9557500D02*
X17934500Y-9470000D01*
X17847000Y-9382500D01*
X17759500Y-9470000D01*
X17847000Y-9557500D01*
D11*
X10355782Y-15316484D02*
X10355782Y-15116484D01*
X10355782Y-15116484D02*
X10403401Y-15116484D01*
X10403401Y-15116484D02*
X10431973Y-15126008D01*
X10431973Y-15126008D02*
X10451020Y-15145055D01*
X10451020Y-15145055D02*
X10460544Y-15164103D01*
X10460544Y-15164103D02*
X10470068Y-15202198D01*
X10470068Y-15202198D02*
X10470068Y-15230769D01*
X10470068Y-15230769D02*
X10460544Y-15268865D01*
X10460544Y-15268865D02*
X10451020Y-15287912D01*
X10451020Y-15287912D02*
X10431973Y-15306960D01*
X10431973Y-15306960D02*
X10403401Y-15316484D01*
X10403401Y-15316484D02*
X10355782Y-15316484D01*
X10555782Y-15316484D02*
X10555782Y-15183150D01*
X10555782Y-15221246D02*
X10565306Y-15202198D01*
X10565306Y-15202198D02*
X10574830Y-15192674D01*
X10574830Y-15192674D02*
X10593878Y-15183150D01*
X10593878Y-15183150D02*
X10612925Y-15183150D01*
X10679592Y-15316484D02*
X10679592Y-15183150D01*
X10679592Y-15116484D02*
X10670068Y-15126008D01*
X10670068Y-15126008D02*
X10679592Y-15135531D01*
X10679592Y-15135531D02*
X10689116Y-15126008D01*
X10689116Y-15126008D02*
X10679592Y-15116484D01*
X10679592Y-15116484D02*
X10679592Y-15135531D01*
X10803401Y-15316484D02*
X10784354Y-15306960D01*
X10784354Y-15306960D02*
X10774830Y-15287912D01*
X10774830Y-15287912D02*
X10774830Y-15116484D01*
X10908163Y-15316484D02*
X10889116Y-15306960D01*
X10889116Y-15306960D02*
X10879592Y-15287912D01*
X10879592Y-15287912D02*
X10879592Y-15116484D01*
X11136735Y-15316484D02*
X11136735Y-15116484D01*
X11136735Y-15116484D02*
X11203401Y-15259341D01*
X11203401Y-15259341D02*
X11270068Y-15116484D01*
X11270068Y-15116484D02*
X11270068Y-15316484D01*
X11451020Y-15316484D02*
X11451020Y-15211722D01*
X11451020Y-15211722D02*
X11441497Y-15192674D01*
X11441497Y-15192674D02*
X11422449Y-15183150D01*
X11422449Y-15183150D02*
X11384354Y-15183150D01*
X11384354Y-15183150D02*
X11365306Y-15192674D01*
X11451020Y-15306960D02*
X11431973Y-15316484D01*
X11431973Y-15316484D02*
X11384354Y-15316484D01*
X11384354Y-15316484D02*
X11365306Y-15306960D01*
X11365306Y-15306960D02*
X11355782Y-15287912D01*
X11355782Y-15287912D02*
X11355782Y-15268865D01*
X11355782Y-15268865D02*
X11365306Y-15249817D01*
X11365306Y-15249817D02*
X11384354Y-15240293D01*
X11384354Y-15240293D02*
X11431973Y-15240293D01*
X11431973Y-15240293D02*
X11451020Y-15230769D01*
X11546258Y-15183150D02*
X11546258Y-15383150D01*
X11546258Y-15192674D02*
X11565306Y-15183150D01*
X11565306Y-15183150D02*
X11603401Y-15183150D01*
X11603401Y-15183150D02*
X11622449Y-15192674D01*
X11622449Y-15192674D02*
X11631973Y-15202198D01*
X11631973Y-15202198D02*
X11641497Y-15221246D01*
X11641497Y-15221246D02*
X11641497Y-15278388D01*
X11641497Y-15278388D02*
X11631973Y-15297436D01*
X11631973Y-15297436D02*
X11622449Y-15306960D01*
X11622449Y-15306960D02*
X11603401Y-15316484D01*
X11603401Y-15316484D02*
X11565306Y-15316484D01*
X11565306Y-15316484D02*
X11546258Y-15306960D01*
X11727211Y-15297436D02*
X11736735Y-15306960D01*
X11736735Y-15306960D02*
X11727211Y-15316484D01*
X11727211Y-15316484D02*
X11717687Y-15306960D01*
X11717687Y-15306960D02*
X11727211Y-15297436D01*
X11727211Y-15297436D02*
X11727211Y-15316484D01*
X11727211Y-15192674D02*
X11736735Y-15202198D01*
X11736735Y-15202198D02*
X11727211Y-15211722D01*
X11727211Y-15211722D02*
X11717687Y-15202198D01*
X11717687Y-15202198D02*
X11727211Y-15192674D01*
X11727211Y-15192674D02*
X11727211Y-15211722D01*
D10*
X10055006Y-15625000D02*
X10095006Y-15665000D01*
X10095006Y-15625000D02*
X10055006Y-15665000D01*
D11*
X10393878Y-15536484D02*
X10412925Y-15536484D01*
X10412925Y-15536484D02*
X10431973Y-15546008D01*
X10431973Y-15546008D02*
X10441497Y-15555531D01*
X10441497Y-15555531D02*
X10451020Y-15574579D01*
X10451020Y-15574579D02*
X10460544Y-15612674D01*
X10460544Y-15612674D02*
X10460544Y-15660293D01*
X10460544Y-15660293D02*
X10451020Y-15698388D01*
X10451020Y-15698388D02*
X10441497Y-15717436D01*
X10441497Y-15717436D02*
X10431973Y-15726960D01*
X10431973Y-15726960D02*
X10412925Y-15736484D01*
X10412925Y-15736484D02*
X10393878Y-15736484D01*
X10393878Y-15736484D02*
X10374830Y-15726960D01*
X10374830Y-15726960D02*
X10365306Y-15717436D01*
X10365306Y-15717436D02*
X10355782Y-15698388D01*
X10355782Y-15698388D02*
X10346259Y-15660293D01*
X10346259Y-15660293D02*
X10346259Y-15612674D01*
X10346259Y-15612674D02*
X10355782Y-15574579D01*
X10355782Y-15574579D02*
X10365306Y-15555531D01*
X10365306Y-15555531D02*
X10374830Y-15546008D01*
X10374830Y-15546008D02*
X10393878Y-15536484D01*
X10546259Y-15717436D02*
X10555782Y-15726960D01*
X10555782Y-15726960D02*
X10546259Y-15736484D01*
X10546259Y-15736484D02*
X10536735Y-15726960D01*
X10536735Y-15726960D02*
X10546259Y-15717436D01*
X10546259Y-15717436D02*
X10546259Y-15736484D01*
X10727211Y-15603150D02*
X10727211Y-15736484D01*
X10679592Y-15526960D02*
X10631973Y-15669817D01*
X10631973Y-15669817D02*
X10755782Y-15669817D01*
X10870068Y-15536484D02*
X10889116Y-15536484D01*
X10889116Y-15536484D02*
X10908163Y-15546008D01*
X10908163Y-15546008D02*
X10917687Y-15555531D01*
X10917687Y-15555531D02*
X10927211Y-15574579D01*
X10927211Y-15574579D02*
X10936735Y-15612674D01*
X10936735Y-15612674D02*
X10936735Y-15660293D01*
X10936735Y-15660293D02*
X10927211Y-15698388D01*
X10927211Y-15698388D02*
X10917687Y-15717436D01*
X10917687Y-15717436D02*
X10908163Y-15726960D01*
X10908163Y-15726960D02*
X10889116Y-15736484D01*
X10889116Y-15736484D02*
X10870068Y-15736484D01*
X10870068Y-15736484D02*
X10851020Y-15726960D01*
X10851020Y-15726960D02*
X10841497Y-15717436D01*
X10841497Y-15717436D02*
X10831973Y-15698388D01*
X10831973Y-15698388D02*
X10822449Y-15660293D01*
X10822449Y-15660293D02*
X10822449Y-15612674D01*
X10822449Y-15612674D02*
X10831973Y-15574579D01*
X10831973Y-15574579D02*
X10841497Y-15555531D01*
X10841497Y-15555531D02*
X10851020Y-15546008D01*
X10851020Y-15546008D02*
X10870068Y-15536484D01*
X11060544Y-15536484D02*
X11079592Y-15536484D01*
X11079592Y-15536484D02*
X11098640Y-15546008D01*
X11098640Y-15546008D02*
X11108163Y-15555531D01*
X11108163Y-15555531D02*
X11117687Y-15574579D01*
X11117687Y-15574579D02*
X11127211Y-15612674D01*
X11127211Y-15612674D02*
X11127211Y-15660293D01*
X11127211Y-15660293D02*
X11117687Y-15698388D01*
X11117687Y-15698388D02*
X11108163Y-15717436D01*
X11108163Y-15717436D02*
X11098640Y-15726960D01*
X11098640Y-15726960D02*
X11079592Y-15736484D01*
X11079592Y-15736484D02*
X11060544Y-15736484D01*
X11060544Y-15736484D02*
X11041497Y-15726960D01*
X11041497Y-15726960D02*
X11031973Y-15717436D01*
X11031973Y-15717436D02*
X11022449Y-15698388D01*
X11022449Y-15698388D02*
X11012925Y-15660293D01*
X11012925Y-15660293D02*
X11012925Y-15612674D01*
X11012925Y-15612674D02*
X11022449Y-15574579D01*
X11022449Y-15574579D02*
X11031973Y-15555531D01*
X11031973Y-15555531D02*
X11041497Y-15546008D01*
X11041497Y-15546008D02*
X11060544Y-15536484D01*
X11212925Y-15736484D02*
X11212925Y-15603150D01*
X11212925Y-15622198D02*
X11222449Y-15612674D01*
X11222449Y-15612674D02*
X11241497Y-15603150D01*
X11241497Y-15603150D02*
X11270068Y-15603150D01*
X11270068Y-15603150D02*
X11289116Y-15612674D01*
X11289116Y-15612674D02*
X11298639Y-15631722D01*
X11298639Y-15631722D02*
X11298639Y-15736484D01*
X11298639Y-15631722D02*
X11308163Y-15612674D01*
X11308163Y-15612674D02*
X11327211Y-15603150D01*
X11327211Y-15603150D02*
X11355782Y-15603150D01*
X11355782Y-15603150D02*
X11374830Y-15612674D01*
X11374830Y-15612674D02*
X11384354Y-15631722D01*
X11384354Y-15631722D02*
X11384354Y-15736484D01*
X11479592Y-15736484D02*
X11479592Y-15603150D01*
X11479592Y-15622198D02*
X11489116Y-15612674D01*
X11489116Y-15612674D02*
X11508163Y-15603150D01*
X11508163Y-15603150D02*
X11536735Y-15603150D01*
X11536735Y-15603150D02*
X11555782Y-15612674D01*
X11555782Y-15612674D02*
X11565306Y-15631722D01*
X11565306Y-15631722D02*
X11565306Y-15736484D01*
X11565306Y-15631722D02*
X11574830Y-15612674D01*
X11574830Y-15612674D02*
X11593878Y-15603150D01*
X11593878Y-15603150D02*
X11622449Y-15603150D01*
X11622449Y-15603150D02*
X11641497Y-15612674D01*
X11641497Y-15612674D02*
X11651020Y-15631722D01*
X11651020Y-15631722D02*
X11651020Y-15736484D01*
X12041497Y-15526960D02*
X11870068Y-15784103D01*
X12298640Y-15536484D02*
X12317687Y-15536484D01*
X12317687Y-15536484D02*
X12336735Y-15546008D01*
X12336735Y-15546008D02*
X12346259Y-15555531D01*
X12346259Y-15555531D02*
X12355782Y-15574579D01*
X12355782Y-15574579D02*
X12365306Y-15612674D01*
X12365306Y-15612674D02*
X12365306Y-15660293D01*
X12365306Y-15660293D02*
X12355782Y-15698388D01*
X12355782Y-15698388D02*
X12346259Y-15717436D01*
X12346259Y-15717436D02*
X12336735Y-15726960D01*
X12336735Y-15726960D02*
X12317687Y-15736484D01*
X12317687Y-15736484D02*
X12298640Y-15736484D01*
X12298640Y-15736484D02*
X12279592Y-15726960D01*
X12279592Y-15726960D02*
X12270068Y-15717436D01*
X12270068Y-15717436D02*
X12260544Y-15698388D01*
X12260544Y-15698388D02*
X12251021Y-15660293D01*
X12251021Y-15660293D02*
X12251021Y-15612674D01*
X12251021Y-15612674D02*
X12260544Y-15574579D01*
X12260544Y-15574579D02*
X12270068Y-15555531D01*
X12270068Y-15555531D02*
X12279592Y-15546008D01*
X12279592Y-15546008D02*
X12298640Y-15536484D01*
X12451021Y-15717436D02*
X12460544Y-15726960D01*
X12460544Y-15726960D02*
X12451021Y-15736484D01*
X12451021Y-15736484D02*
X12441497Y-15726960D01*
X12441497Y-15726960D02*
X12451021Y-15717436D01*
X12451021Y-15717436D02*
X12451021Y-15736484D01*
X12584354Y-15536484D02*
X12603402Y-15536484D01*
X12603402Y-15536484D02*
X12622449Y-15546008D01*
X12622449Y-15546008D02*
X12631973Y-15555531D01*
X12631973Y-15555531D02*
X12641497Y-15574579D01*
X12641497Y-15574579D02*
X12651021Y-15612674D01*
X12651021Y-15612674D02*
X12651021Y-15660293D01*
X12651021Y-15660293D02*
X12641497Y-15698388D01*
X12641497Y-15698388D02*
X12631973Y-15717436D01*
X12631973Y-15717436D02*
X12622449Y-15726960D01*
X12622449Y-15726960D02*
X12603402Y-15736484D01*
X12603402Y-15736484D02*
X12584354Y-15736484D01*
X12584354Y-15736484D02*
X12565306Y-15726960D01*
X12565306Y-15726960D02*
X12555782Y-15717436D01*
X12555782Y-15717436D02*
X12546259Y-15698388D01*
X12546259Y-15698388D02*
X12536735Y-15660293D01*
X12536735Y-15660293D02*
X12536735Y-15612674D01*
X12536735Y-15612674D02*
X12546259Y-15574579D01*
X12546259Y-15574579D02*
X12555782Y-15555531D01*
X12555782Y-15555531D02*
X12565306Y-15546008D01*
X12565306Y-15546008D02*
X12584354Y-15536484D01*
X12841497Y-15736484D02*
X12727211Y-15736484D01*
X12784354Y-15736484D02*
X12784354Y-15536484D01*
X12784354Y-15536484D02*
X12765306Y-15565055D01*
X12765306Y-15565055D02*
X12746259Y-15584103D01*
X12746259Y-15584103D02*
X12727211Y-15593627D01*
X13022449Y-15536484D02*
X12927211Y-15536484D01*
X12927211Y-15536484D02*
X12917687Y-15631722D01*
X12917687Y-15631722D02*
X12927211Y-15622198D01*
X12927211Y-15622198D02*
X12946259Y-15612674D01*
X12946259Y-15612674D02*
X12993878Y-15612674D01*
X12993878Y-15612674D02*
X13012925Y-15622198D01*
X13012925Y-15622198D02*
X13022449Y-15631722D01*
X13022449Y-15631722D02*
X13031973Y-15650769D01*
X13031973Y-15650769D02*
X13031973Y-15698388D01*
X13031973Y-15698388D02*
X13022449Y-15717436D01*
X13022449Y-15717436D02*
X13012925Y-15726960D01*
X13012925Y-15726960D02*
X12993878Y-15736484D01*
X12993878Y-15736484D02*
X12946259Y-15736484D01*
X12946259Y-15736484D02*
X12927211Y-15726960D01*
X12927211Y-15726960D02*
X12917687Y-15717436D01*
X13098640Y-15536484D02*
X13231973Y-15536484D01*
X13231973Y-15536484D02*
X13146259Y-15736484D01*
X13298640Y-15536484D02*
X13298640Y-15574579D01*
X13374830Y-15536484D02*
X13374830Y-15574579D01*
X13670068Y-15812674D02*
X13660544Y-15803150D01*
X13660544Y-15803150D02*
X13641497Y-15774579D01*
X13641497Y-15774579D02*
X13631973Y-15755531D01*
X13631973Y-15755531D02*
X13622449Y-15726960D01*
X13622449Y-15726960D02*
X13612925Y-15679341D01*
X13612925Y-15679341D02*
X13612925Y-15641246D01*
X13612925Y-15641246D02*
X13622449Y-15593627D01*
X13622449Y-15593627D02*
X13631973Y-15565055D01*
X13631973Y-15565055D02*
X13641497Y-15546008D01*
X13641497Y-15546008D02*
X13660544Y-15517436D01*
X13660544Y-15517436D02*
X13670068Y-15507912D01*
X13727211Y-15536484D02*
X13851021Y-15536484D01*
X13851021Y-15536484D02*
X13784354Y-15612674D01*
X13784354Y-15612674D02*
X13812925Y-15612674D01*
X13812925Y-15612674D02*
X13831973Y-15622198D01*
X13831973Y-15622198D02*
X13841497Y-15631722D01*
X13841497Y-15631722D02*
X13851021Y-15650769D01*
X13851021Y-15650769D02*
X13851021Y-15698388D01*
X13851021Y-15698388D02*
X13841497Y-15717436D01*
X13841497Y-15717436D02*
X13831973Y-15726960D01*
X13831973Y-15726960D02*
X13812925Y-15736484D01*
X13812925Y-15736484D02*
X13755783Y-15736484D01*
X13755783Y-15736484D02*
X13736735Y-15726960D01*
X13736735Y-15726960D02*
X13727211Y-15717436D01*
X13946259Y-15736484D02*
X13984354Y-15736484D01*
X13984354Y-15736484D02*
X14003402Y-15726960D01*
X14003402Y-15726960D02*
X14012925Y-15717436D01*
X14012925Y-15717436D02*
X14031973Y-15688865D01*
X14031973Y-15688865D02*
X14041497Y-15650769D01*
X14041497Y-15650769D02*
X14041497Y-15574579D01*
X14041497Y-15574579D02*
X14031973Y-15555531D01*
X14031973Y-15555531D02*
X14022449Y-15546008D01*
X14022449Y-15546008D02*
X14003402Y-15536484D01*
X14003402Y-15536484D02*
X13965306Y-15536484D01*
X13965306Y-15536484D02*
X13946259Y-15546008D01*
X13946259Y-15546008D02*
X13936735Y-15555531D01*
X13936735Y-15555531D02*
X13927211Y-15574579D01*
X13927211Y-15574579D02*
X13927211Y-15622198D01*
X13927211Y-15622198D02*
X13936735Y-15641246D01*
X13936735Y-15641246D02*
X13946259Y-15650769D01*
X13946259Y-15650769D02*
X13965306Y-15660293D01*
X13965306Y-15660293D02*
X14003402Y-15660293D01*
X14003402Y-15660293D02*
X14022449Y-15650769D01*
X14022449Y-15650769D02*
X14031973Y-15641246D01*
X14031973Y-15641246D02*
X14041497Y-15622198D01*
X14279592Y-15736484D02*
X14279592Y-15536484D01*
X14365306Y-15736484D02*
X14365306Y-15631722D01*
X14365306Y-15631722D02*
X14355783Y-15612674D01*
X14355783Y-15612674D02*
X14336735Y-15603150D01*
X14336735Y-15603150D02*
X14308164Y-15603150D01*
X14308164Y-15603150D02*
X14289116Y-15612674D01*
X14289116Y-15612674D02*
X14279592Y-15622198D01*
X14489116Y-15736484D02*
X14470068Y-15726960D01*
X14470068Y-15726960D02*
X14460545Y-15717436D01*
X14460545Y-15717436D02*
X14451021Y-15698388D01*
X14451021Y-15698388D02*
X14451021Y-15641246D01*
X14451021Y-15641246D02*
X14460545Y-15622198D01*
X14460545Y-15622198D02*
X14470068Y-15612674D01*
X14470068Y-15612674D02*
X14489116Y-15603150D01*
X14489116Y-15603150D02*
X14517687Y-15603150D01*
X14517687Y-15603150D02*
X14536735Y-15612674D01*
X14536735Y-15612674D02*
X14546259Y-15622198D01*
X14546259Y-15622198D02*
X14555783Y-15641246D01*
X14555783Y-15641246D02*
X14555783Y-15698388D01*
X14555783Y-15698388D02*
X14546259Y-15717436D01*
X14546259Y-15717436D02*
X14536735Y-15726960D01*
X14536735Y-15726960D02*
X14517687Y-15736484D01*
X14517687Y-15736484D02*
X14489116Y-15736484D01*
X14670068Y-15736484D02*
X14651021Y-15726960D01*
X14651021Y-15726960D02*
X14641497Y-15707912D01*
X14641497Y-15707912D02*
X14641497Y-15536484D01*
X14822449Y-15726960D02*
X14803402Y-15736484D01*
X14803402Y-15736484D02*
X14765306Y-15736484D01*
X14765306Y-15736484D02*
X14746259Y-15726960D01*
X14746259Y-15726960D02*
X14736735Y-15707912D01*
X14736735Y-15707912D02*
X14736735Y-15631722D01*
X14736735Y-15631722D02*
X14746259Y-15612674D01*
X14746259Y-15612674D02*
X14765306Y-15603150D01*
X14765306Y-15603150D02*
X14803402Y-15603150D01*
X14803402Y-15603150D02*
X14822449Y-15612674D01*
X14822449Y-15612674D02*
X14831973Y-15631722D01*
X14831973Y-15631722D02*
X14831973Y-15650769D01*
X14831973Y-15650769D02*
X14736735Y-15669817D01*
X14908164Y-15726960D02*
X14927211Y-15736484D01*
X14927211Y-15736484D02*
X14965306Y-15736484D01*
X14965306Y-15736484D02*
X14984354Y-15726960D01*
X14984354Y-15726960D02*
X14993878Y-15707912D01*
X14993878Y-15707912D02*
X14993878Y-15698388D01*
X14993878Y-15698388D02*
X14984354Y-15679341D01*
X14984354Y-15679341D02*
X14965306Y-15669817D01*
X14965306Y-15669817D02*
X14936735Y-15669817D01*
X14936735Y-15669817D02*
X14917687Y-15660293D01*
X14917687Y-15660293D02*
X14908164Y-15641246D01*
X14908164Y-15641246D02*
X14908164Y-15631722D01*
X14908164Y-15631722D02*
X14917687Y-15612674D01*
X14917687Y-15612674D02*
X14936735Y-15603150D01*
X14936735Y-15603150D02*
X14965306Y-15603150D01*
X14965306Y-15603150D02*
X14984354Y-15612674D01*
X15060545Y-15812674D02*
X15070068Y-15803150D01*
X15070068Y-15803150D02*
X15089116Y-15774579D01*
X15089116Y-15774579D02*
X15098640Y-15755531D01*
X15098640Y-15755531D02*
X15108164Y-15726960D01*
X15108164Y-15726960D02*
X15117687Y-15679341D01*
X15117687Y-15679341D02*
X15117687Y-15641246D01*
X15117687Y-15641246D02*
X15108164Y-15593627D01*
X15108164Y-15593627D02*
X15098640Y-15565055D01*
X15098640Y-15565055D02*
X15089116Y-15546008D01*
X15089116Y-15546008D02*
X15070068Y-15517436D01*
X15070068Y-15517436D02*
X15060545Y-15507912D01*
D10*
X10095006Y-15909000D02*
G75*
G02*
X10045006Y-15909000I-25000J0D01*
G01*
X10045006Y-15909000D02*
G75*
G02*
X10095006Y-15909000I25000J0D01*
G01*
D11*
X10393878Y-15800484D02*
X10412925Y-15800484D01*
X10412925Y-15800484D02*
X10431973Y-15810008D01*
X10431973Y-15810008D02*
X10441497Y-15819531D01*
X10441497Y-15819531D02*
X10451020Y-15838579D01*
X10451020Y-15838579D02*
X10460544Y-15876674D01*
X10460544Y-15876674D02*
X10460544Y-15924293D01*
X10460544Y-15924293D02*
X10451020Y-15962388D01*
X10451020Y-15962388D02*
X10441497Y-15981436D01*
X10441497Y-15981436D02*
X10431973Y-15990960D01*
X10431973Y-15990960D02*
X10412925Y-16000484D01*
X10412925Y-16000484D02*
X10393878Y-16000484D01*
X10393878Y-16000484D02*
X10374830Y-15990960D01*
X10374830Y-15990960D02*
X10365306Y-15981436D01*
X10365306Y-15981436D02*
X10355782Y-15962388D01*
X10355782Y-15962388D02*
X10346259Y-15924293D01*
X10346259Y-15924293D02*
X10346259Y-15876674D01*
X10346259Y-15876674D02*
X10355782Y-15838579D01*
X10355782Y-15838579D02*
X10365306Y-15819531D01*
X10365306Y-15819531D02*
X10374830Y-15810008D01*
X10374830Y-15810008D02*
X10393878Y-15800484D01*
X10546259Y-15981436D02*
X10555782Y-15990960D01*
X10555782Y-15990960D02*
X10546259Y-16000484D01*
X10546259Y-16000484D02*
X10536735Y-15990960D01*
X10536735Y-15990960D02*
X10546259Y-15981436D01*
X10546259Y-15981436D02*
X10546259Y-16000484D01*
X10736735Y-15800484D02*
X10641497Y-15800484D01*
X10641497Y-15800484D02*
X10631973Y-15895722D01*
X10631973Y-15895722D02*
X10641497Y-15886198D01*
X10641497Y-15886198D02*
X10660544Y-15876674D01*
X10660544Y-15876674D02*
X10708163Y-15876674D01*
X10708163Y-15876674D02*
X10727211Y-15886198D01*
X10727211Y-15886198D02*
X10736735Y-15895722D01*
X10736735Y-15895722D02*
X10746259Y-15914769D01*
X10746259Y-15914769D02*
X10746259Y-15962388D01*
X10746259Y-15962388D02*
X10736735Y-15981436D01*
X10736735Y-15981436D02*
X10727211Y-15990960D01*
X10727211Y-15990960D02*
X10708163Y-16000484D01*
X10708163Y-16000484D02*
X10660544Y-16000484D01*
X10660544Y-16000484D02*
X10641497Y-15990960D01*
X10641497Y-15990960D02*
X10631973Y-15981436D01*
X10870068Y-15800484D02*
X10889116Y-15800484D01*
X10889116Y-15800484D02*
X10908163Y-15810008D01*
X10908163Y-15810008D02*
X10917687Y-15819531D01*
X10917687Y-15819531D02*
X10927211Y-15838579D01*
X10927211Y-15838579D02*
X10936735Y-15876674D01*
X10936735Y-15876674D02*
X10936735Y-15924293D01*
X10936735Y-15924293D02*
X10927211Y-15962388D01*
X10927211Y-15962388D02*
X10917687Y-15981436D01*
X10917687Y-15981436D02*
X10908163Y-15990960D01*
X10908163Y-15990960D02*
X10889116Y-16000484D01*
X10889116Y-16000484D02*
X10870068Y-16000484D01*
X10870068Y-16000484D02*
X10851020Y-15990960D01*
X10851020Y-15990960D02*
X10841497Y-15981436D01*
X10841497Y-15981436D02*
X10831973Y-15962388D01*
X10831973Y-15962388D02*
X10822449Y-15924293D01*
X10822449Y-15924293D02*
X10822449Y-15876674D01*
X10822449Y-15876674D02*
X10831973Y-15838579D01*
X10831973Y-15838579D02*
X10841497Y-15819531D01*
X10841497Y-15819531D02*
X10851020Y-15810008D01*
X10851020Y-15810008D02*
X10870068Y-15800484D01*
X11060544Y-15800484D02*
X11079592Y-15800484D01*
X11079592Y-15800484D02*
X11098640Y-15810008D01*
X11098640Y-15810008D02*
X11108163Y-15819531D01*
X11108163Y-15819531D02*
X11117687Y-15838579D01*
X11117687Y-15838579D02*
X11127211Y-15876674D01*
X11127211Y-15876674D02*
X11127211Y-15924293D01*
X11127211Y-15924293D02*
X11117687Y-15962388D01*
X11117687Y-15962388D02*
X11108163Y-15981436D01*
X11108163Y-15981436D02*
X11098640Y-15990960D01*
X11098640Y-15990960D02*
X11079592Y-16000484D01*
X11079592Y-16000484D02*
X11060544Y-16000484D01*
X11060544Y-16000484D02*
X11041497Y-15990960D01*
X11041497Y-15990960D02*
X11031973Y-15981436D01*
X11031973Y-15981436D02*
X11022449Y-15962388D01*
X11022449Y-15962388D02*
X11012925Y-15924293D01*
X11012925Y-15924293D02*
X11012925Y-15876674D01*
X11012925Y-15876674D02*
X11022449Y-15838579D01*
X11022449Y-15838579D02*
X11031973Y-15819531D01*
X11031973Y-15819531D02*
X11041497Y-15810008D01*
X11041497Y-15810008D02*
X11060544Y-15800484D01*
X11212925Y-16000484D02*
X11212925Y-15867150D01*
X11212925Y-15886198D02*
X11222449Y-15876674D01*
X11222449Y-15876674D02*
X11241497Y-15867150D01*
X11241497Y-15867150D02*
X11270068Y-15867150D01*
X11270068Y-15867150D02*
X11289116Y-15876674D01*
X11289116Y-15876674D02*
X11298639Y-15895722D01*
X11298639Y-15895722D02*
X11298639Y-16000484D01*
X11298639Y-15895722D02*
X11308163Y-15876674D01*
X11308163Y-15876674D02*
X11327211Y-15867150D01*
X11327211Y-15867150D02*
X11355782Y-15867150D01*
X11355782Y-15867150D02*
X11374830Y-15876674D01*
X11374830Y-15876674D02*
X11384354Y-15895722D01*
X11384354Y-15895722D02*
X11384354Y-16000484D01*
X11479592Y-16000484D02*
X11479592Y-15867150D01*
X11479592Y-15886198D02*
X11489116Y-15876674D01*
X11489116Y-15876674D02*
X11508163Y-15867150D01*
X11508163Y-15867150D02*
X11536735Y-15867150D01*
X11536735Y-15867150D02*
X11555782Y-15876674D01*
X11555782Y-15876674D02*
X11565306Y-15895722D01*
X11565306Y-15895722D02*
X11565306Y-16000484D01*
X11565306Y-15895722D02*
X11574830Y-15876674D01*
X11574830Y-15876674D02*
X11593878Y-15867150D01*
X11593878Y-15867150D02*
X11622449Y-15867150D01*
X11622449Y-15867150D02*
X11641497Y-15876674D01*
X11641497Y-15876674D02*
X11651020Y-15895722D01*
X11651020Y-15895722D02*
X11651020Y-16000484D01*
X12041497Y-15790960D02*
X11870068Y-16048103D01*
X12298640Y-15800484D02*
X12317687Y-15800484D01*
X12317687Y-15800484D02*
X12336735Y-15810008D01*
X12336735Y-15810008D02*
X12346259Y-15819531D01*
X12346259Y-15819531D02*
X12355782Y-15838579D01*
X12355782Y-15838579D02*
X12365306Y-15876674D01*
X12365306Y-15876674D02*
X12365306Y-15924293D01*
X12365306Y-15924293D02*
X12355782Y-15962388D01*
X12355782Y-15962388D02*
X12346259Y-15981436D01*
X12346259Y-15981436D02*
X12336735Y-15990960D01*
X12336735Y-15990960D02*
X12317687Y-16000484D01*
X12317687Y-16000484D02*
X12298640Y-16000484D01*
X12298640Y-16000484D02*
X12279592Y-15990960D01*
X12279592Y-15990960D02*
X12270068Y-15981436D01*
X12270068Y-15981436D02*
X12260544Y-15962388D01*
X12260544Y-15962388D02*
X12251021Y-15924293D01*
X12251021Y-15924293D02*
X12251021Y-15876674D01*
X12251021Y-15876674D02*
X12260544Y-15838579D01*
X12260544Y-15838579D02*
X12270068Y-15819531D01*
X12270068Y-15819531D02*
X12279592Y-15810008D01*
X12279592Y-15810008D02*
X12298640Y-15800484D01*
X12451021Y-15981436D02*
X12460544Y-15990960D01*
X12460544Y-15990960D02*
X12451021Y-16000484D01*
X12451021Y-16000484D02*
X12441497Y-15990960D01*
X12441497Y-15990960D02*
X12451021Y-15981436D01*
X12451021Y-15981436D02*
X12451021Y-16000484D01*
X12584354Y-15800484D02*
X12603402Y-15800484D01*
X12603402Y-15800484D02*
X12622449Y-15810008D01*
X12622449Y-15810008D02*
X12631973Y-15819531D01*
X12631973Y-15819531D02*
X12641497Y-15838579D01*
X12641497Y-15838579D02*
X12651021Y-15876674D01*
X12651021Y-15876674D02*
X12651021Y-15924293D01*
X12651021Y-15924293D02*
X12641497Y-15962388D01*
X12641497Y-15962388D02*
X12631973Y-15981436D01*
X12631973Y-15981436D02*
X12622449Y-15990960D01*
X12622449Y-15990960D02*
X12603402Y-16000484D01*
X12603402Y-16000484D02*
X12584354Y-16000484D01*
X12584354Y-16000484D02*
X12565306Y-15990960D01*
X12565306Y-15990960D02*
X12555782Y-15981436D01*
X12555782Y-15981436D02*
X12546259Y-15962388D01*
X12546259Y-15962388D02*
X12536735Y-15924293D01*
X12536735Y-15924293D02*
X12536735Y-15876674D01*
X12536735Y-15876674D02*
X12546259Y-15838579D01*
X12546259Y-15838579D02*
X12555782Y-15819531D01*
X12555782Y-15819531D02*
X12565306Y-15810008D01*
X12565306Y-15810008D02*
X12584354Y-15800484D01*
X12841497Y-16000484D02*
X12727211Y-16000484D01*
X12784354Y-16000484D02*
X12784354Y-15800484D01*
X12784354Y-15800484D02*
X12765306Y-15829055D01*
X12765306Y-15829055D02*
X12746259Y-15848103D01*
X12746259Y-15848103D02*
X12727211Y-15857627D01*
X12936735Y-16000484D02*
X12974830Y-16000484D01*
X12974830Y-16000484D02*
X12993878Y-15990960D01*
X12993878Y-15990960D02*
X13003402Y-15981436D01*
X13003402Y-15981436D02*
X13022449Y-15952865D01*
X13022449Y-15952865D02*
X13031973Y-15914769D01*
X13031973Y-15914769D02*
X13031973Y-15838579D01*
X13031973Y-15838579D02*
X13022449Y-15819531D01*
X13022449Y-15819531D02*
X13012925Y-15810008D01*
X13012925Y-15810008D02*
X12993878Y-15800484D01*
X12993878Y-15800484D02*
X12955782Y-15800484D01*
X12955782Y-15800484D02*
X12936735Y-15810008D01*
X12936735Y-15810008D02*
X12927211Y-15819531D01*
X12927211Y-15819531D02*
X12917687Y-15838579D01*
X12917687Y-15838579D02*
X12917687Y-15886198D01*
X12917687Y-15886198D02*
X12927211Y-15905246D01*
X12927211Y-15905246D02*
X12936735Y-15914769D01*
X12936735Y-15914769D02*
X12955782Y-15924293D01*
X12955782Y-15924293D02*
X12993878Y-15924293D01*
X12993878Y-15924293D02*
X13012925Y-15914769D01*
X13012925Y-15914769D02*
X13022449Y-15905246D01*
X13022449Y-15905246D02*
X13031973Y-15886198D01*
X13098640Y-15800484D02*
X13231973Y-15800484D01*
X13231973Y-15800484D02*
X13146259Y-16000484D01*
X13298640Y-15800484D02*
X13298640Y-15838579D01*
X13374830Y-15800484D02*
X13374830Y-15838579D01*
X13670068Y-16076674D02*
X13660544Y-16067150D01*
X13660544Y-16067150D02*
X13641497Y-16038579D01*
X13641497Y-16038579D02*
X13631973Y-16019531D01*
X13631973Y-16019531D02*
X13622449Y-15990960D01*
X13622449Y-15990960D02*
X13612925Y-15943341D01*
X13612925Y-15943341D02*
X13612925Y-15905246D01*
X13612925Y-15905246D02*
X13622449Y-15857627D01*
X13622449Y-15857627D02*
X13631973Y-15829055D01*
X13631973Y-15829055D02*
X13641497Y-15810008D01*
X13641497Y-15810008D02*
X13660544Y-15781436D01*
X13660544Y-15781436D02*
X13670068Y-15771912D01*
X13831973Y-15800484D02*
X13793878Y-15800484D01*
X13793878Y-15800484D02*
X13774830Y-15810008D01*
X13774830Y-15810008D02*
X13765306Y-15819531D01*
X13765306Y-15819531D02*
X13746259Y-15848103D01*
X13746259Y-15848103D02*
X13736735Y-15886198D01*
X13736735Y-15886198D02*
X13736735Y-15962388D01*
X13736735Y-15962388D02*
X13746259Y-15981436D01*
X13746259Y-15981436D02*
X13755783Y-15990960D01*
X13755783Y-15990960D02*
X13774830Y-16000484D01*
X13774830Y-16000484D02*
X13812925Y-16000484D01*
X13812925Y-16000484D02*
X13831973Y-15990960D01*
X13831973Y-15990960D02*
X13841497Y-15981436D01*
X13841497Y-15981436D02*
X13851021Y-15962388D01*
X13851021Y-15962388D02*
X13851021Y-15914769D01*
X13851021Y-15914769D02*
X13841497Y-15895722D01*
X13841497Y-15895722D02*
X13831973Y-15886198D01*
X13831973Y-15886198D02*
X13812925Y-15876674D01*
X13812925Y-15876674D02*
X13774830Y-15876674D01*
X13774830Y-15876674D02*
X13755783Y-15886198D01*
X13755783Y-15886198D02*
X13746259Y-15895722D01*
X13746259Y-15895722D02*
X13736735Y-15914769D01*
X14022449Y-15867150D02*
X14022449Y-16000484D01*
X13974830Y-15790960D02*
X13927211Y-15933817D01*
X13927211Y-15933817D02*
X14051021Y-15933817D01*
X14279592Y-16000484D02*
X14279592Y-15800484D01*
X14365306Y-16000484D02*
X14365306Y-15895722D01*
X14365306Y-15895722D02*
X14355783Y-15876674D01*
X14355783Y-15876674D02*
X14336735Y-15867150D01*
X14336735Y-15867150D02*
X14308164Y-15867150D01*
X14308164Y-15867150D02*
X14289116Y-15876674D01*
X14289116Y-15876674D02*
X14279592Y-15886198D01*
X14489116Y-16000484D02*
X14470068Y-15990960D01*
X14470068Y-15990960D02*
X14460545Y-15981436D01*
X14460545Y-15981436D02*
X14451021Y-15962388D01*
X14451021Y-15962388D02*
X14451021Y-15905246D01*
X14451021Y-15905246D02*
X14460545Y-15886198D01*
X14460545Y-15886198D02*
X14470068Y-15876674D01*
X14470068Y-15876674D02*
X14489116Y-15867150D01*
X14489116Y-15867150D02*
X14517687Y-15867150D01*
X14517687Y-15867150D02*
X14536735Y-15876674D01*
X14536735Y-15876674D02*
X14546259Y-15886198D01*
X14546259Y-15886198D02*
X14555783Y-15905246D01*
X14555783Y-15905246D02*
X14555783Y-15962388D01*
X14555783Y-15962388D02*
X14546259Y-15981436D01*
X14546259Y-15981436D02*
X14536735Y-15990960D01*
X14536735Y-15990960D02*
X14517687Y-16000484D01*
X14517687Y-16000484D02*
X14489116Y-16000484D01*
X14670068Y-16000484D02*
X14651021Y-15990960D01*
X14651021Y-15990960D02*
X14641497Y-15971912D01*
X14641497Y-15971912D02*
X14641497Y-15800484D01*
X14822449Y-15990960D02*
X14803402Y-16000484D01*
X14803402Y-16000484D02*
X14765306Y-16000484D01*
X14765306Y-16000484D02*
X14746259Y-15990960D01*
X14746259Y-15990960D02*
X14736735Y-15971912D01*
X14736735Y-15971912D02*
X14736735Y-15895722D01*
X14736735Y-15895722D02*
X14746259Y-15876674D01*
X14746259Y-15876674D02*
X14765306Y-15867150D01*
X14765306Y-15867150D02*
X14803402Y-15867150D01*
X14803402Y-15867150D02*
X14822449Y-15876674D01*
X14822449Y-15876674D02*
X14831973Y-15895722D01*
X14831973Y-15895722D02*
X14831973Y-15914769D01*
X14831973Y-15914769D02*
X14736735Y-15933817D01*
X14908164Y-15990960D02*
X14927211Y-16000484D01*
X14927211Y-16000484D02*
X14965306Y-16000484D01*
X14965306Y-16000484D02*
X14984354Y-15990960D01*
X14984354Y-15990960D02*
X14993878Y-15971912D01*
X14993878Y-15971912D02*
X14993878Y-15962388D01*
X14993878Y-15962388D02*
X14984354Y-15943341D01*
X14984354Y-15943341D02*
X14965306Y-15933817D01*
X14965306Y-15933817D02*
X14936735Y-15933817D01*
X14936735Y-15933817D02*
X14917687Y-15924293D01*
X14917687Y-15924293D02*
X14908164Y-15905246D01*
X14908164Y-15905246D02*
X14908164Y-15895722D01*
X14908164Y-15895722D02*
X14917687Y-15876674D01*
X14917687Y-15876674D02*
X14936735Y-15867150D01*
X14936735Y-15867150D02*
X14965306Y-15867150D01*
X14965306Y-15867150D02*
X14984354Y-15876674D01*
X15060545Y-16076674D02*
X15070068Y-16067150D01*
X15070068Y-16067150D02*
X15089116Y-16038579D01*
X15089116Y-16038579D02*
X15098640Y-16019531D01*
X15098640Y-16019531D02*
X15108164Y-15990960D01*
X15108164Y-15990960D02*
X15117687Y-15943341D01*
X15117687Y-15943341D02*
X15117687Y-15905246D01*
X15117687Y-15905246D02*
X15108164Y-15857627D01*
X15108164Y-15857627D02*
X15098640Y-15829055D01*
X15098640Y-15829055D02*
X15089116Y-15810008D01*
X15089116Y-15810008D02*
X15070068Y-15781436D01*
X15070068Y-15781436D02*
X15060545Y-15771912D01*
D10*
X10050006Y-16128000D02*
X10050006Y-16218000D01*
X10005006Y-16173000D02*
X10095006Y-16173000D01*
D11*
X10393878Y-16064484D02*
X10412925Y-16064484D01*
X10412925Y-16064484D02*
X10431973Y-16074008D01*
X10431973Y-16074008D02*
X10441497Y-16083531D01*
X10441497Y-16083531D02*
X10451020Y-16102579D01*
X10451020Y-16102579D02*
X10460544Y-16140674D01*
X10460544Y-16140674D02*
X10460544Y-16188293D01*
X10460544Y-16188293D02*
X10451020Y-16226388D01*
X10451020Y-16226388D02*
X10441497Y-16245436D01*
X10441497Y-16245436D02*
X10431973Y-16254960D01*
X10431973Y-16254960D02*
X10412925Y-16264484D01*
X10412925Y-16264484D02*
X10393878Y-16264484D01*
X10393878Y-16264484D02*
X10374830Y-16254960D01*
X10374830Y-16254960D02*
X10365306Y-16245436D01*
X10365306Y-16245436D02*
X10355782Y-16226388D01*
X10355782Y-16226388D02*
X10346259Y-16188293D01*
X10346259Y-16188293D02*
X10346259Y-16140674D01*
X10346259Y-16140674D02*
X10355782Y-16102579D01*
X10355782Y-16102579D02*
X10365306Y-16083531D01*
X10365306Y-16083531D02*
X10374830Y-16074008D01*
X10374830Y-16074008D02*
X10393878Y-16064484D01*
X10546259Y-16245436D02*
X10555782Y-16254960D01*
X10555782Y-16254960D02*
X10546259Y-16264484D01*
X10546259Y-16264484D02*
X10536735Y-16254960D01*
X10536735Y-16254960D02*
X10546259Y-16245436D01*
X10546259Y-16245436D02*
X10546259Y-16264484D01*
X10651020Y-16264484D02*
X10689116Y-16264484D01*
X10689116Y-16264484D02*
X10708163Y-16254960D01*
X10708163Y-16254960D02*
X10717687Y-16245436D01*
X10717687Y-16245436D02*
X10736735Y-16216865D01*
X10736735Y-16216865D02*
X10746259Y-16178769D01*
X10746259Y-16178769D02*
X10746259Y-16102579D01*
X10746259Y-16102579D02*
X10736735Y-16083531D01*
X10736735Y-16083531D02*
X10727211Y-16074008D01*
X10727211Y-16074008D02*
X10708163Y-16064484D01*
X10708163Y-16064484D02*
X10670068Y-16064484D01*
X10670068Y-16064484D02*
X10651020Y-16074008D01*
X10651020Y-16074008D02*
X10641497Y-16083531D01*
X10641497Y-16083531D02*
X10631973Y-16102579D01*
X10631973Y-16102579D02*
X10631973Y-16150198D01*
X10631973Y-16150198D02*
X10641497Y-16169246D01*
X10641497Y-16169246D02*
X10651020Y-16178769D01*
X10651020Y-16178769D02*
X10670068Y-16188293D01*
X10670068Y-16188293D02*
X10708163Y-16188293D01*
X10708163Y-16188293D02*
X10727211Y-16178769D01*
X10727211Y-16178769D02*
X10736735Y-16169246D01*
X10736735Y-16169246D02*
X10746259Y-16150198D01*
X10870068Y-16064484D02*
X10889116Y-16064484D01*
X10889116Y-16064484D02*
X10908163Y-16074008D01*
X10908163Y-16074008D02*
X10917687Y-16083531D01*
X10917687Y-16083531D02*
X10927211Y-16102579D01*
X10927211Y-16102579D02*
X10936735Y-16140674D01*
X10936735Y-16140674D02*
X10936735Y-16188293D01*
X10936735Y-16188293D02*
X10927211Y-16226388D01*
X10927211Y-16226388D02*
X10917687Y-16245436D01*
X10917687Y-16245436D02*
X10908163Y-16254960D01*
X10908163Y-16254960D02*
X10889116Y-16264484D01*
X10889116Y-16264484D02*
X10870068Y-16264484D01*
X10870068Y-16264484D02*
X10851020Y-16254960D01*
X10851020Y-16254960D02*
X10841497Y-16245436D01*
X10841497Y-16245436D02*
X10831973Y-16226388D01*
X10831973Y-16226388D02*
X10822449Y-16188293D01*
X10822449Y-16188293D02*
X10822449Y-16140674D01*
X10822449Y-16140674D02*
X10831973Y-16102579D01*
X10831973Y-16102579D02*
X10841497Y-16083531D01*
X10841497Y-16083531D02*
X10851020Y-16074008D01*
X10851020Y-16074008D02*
X10870068Y-16064484D01*
X11060544Y-16064484D02*
X11079592Y-16064484D01*
X11079592Y-16064484D02*
X11098640Y-16074008D01*
X11098640Y-16074008D02*
X11108163Y-16083531D01*
X11108163Y-16083531D02*
X11117687Y-16102579D01*
X11117687Y-16102579D02*
X11127211Y-16140674D01*
X11127211Y-16140674D02*
X11127211Y-16188293D01*
X11127211Y-16188293D02*
X11117687Y-16226388D01*
X11117687Y-16226388D02*
X11108163Y-16245436D01*
X11108163Y-16245436D02*
X11098640Y-16254960D01*
X11098640Y-16254960D02*
X11079592Y-16264484D01*
X11079592Y-16264484D02*
X11060544Y-16264484D01*
X11060544Y-16264484D02*
X11041497Y-16254960D01*
X11041497Y-16254960D02*
X11031973Y-16245436D01*
X11031973Y-16245436D02*
X11022449Y-16226388D01*
X11022449Y-16226388D02*
X11012925Y-16188293D01*
X11012925Y-16188293D02*
X11012925Y-16140674D01*
X11012925Y-16140674D02*
X11022449Y-16102579D01*
X11022449Y-16102579D02*
X11031973Y-16083531D01*
X11031973Y-16083531D02*
X11041497Y-16074008D01*
X11041497Y-16074008D02*
X11060544Y-16064484D01*
X11212925Y-16264484D02*
X11212925Y-16131150D01*
X11212925Y-16150198D02*
X11222449Y-16140674D01*
X11222449Y-16140674D02*
X11241497Y-16131150D01*
X11241497Y-16131150D02*
X11270068Y-16131150D01*
X11270068Y-16131150D02*
X11289116Y-16140674D01*
X11289116Y-16140674D02*
X11298639Y-16159722D01*
X11298639Y-16159722D02*
X11298639Y-16264484D01*
X11298639Y-16159722D02*
X11308163Y-16140674D01*
X11308163Y-16140674D02*
X11327211Y-16131150D01*
X11327211Y-16131150D02*
X11355782Y-16131150D01*
X11355782Y-16131150D02*
X11374830Y-16140674D01*
X11374830Y-16140674D02*
X11384354Y-16159722D01*
X11384354Y-16159722D02*
X11384354Y-16264484D01*
X11479592Y-16264484D02*
X11479592Y-16131150D01*
X11479592Y-16150198D02*
X11489116Y-16140674D01*
X11489116Y-16140674D02*
X11508163Y-16131150D01*
X11508163Y-16131150D02*
X11536735Y-16131150D01*
X11536735Y-16131150D02*
X11555782Y-16140674D01*
X11555782Y-16140674D02*
X11565306Y-16159722D01*
X11565306Y-16159722D02*
X11565306Y-16264484D01*
X11565306Y-16159722D02*
X11574830Y-16140674D01*
X11574830Y-16140674D02*
X11593878Y-16131150D01*
X11593878Y-16131150D02*
X11622449Y-16131150D01*
X11622449Y-16131150D02*
X11641497Y-16140674D01*
X11641497Y-16140674D02*
X11651020Y-16159722D01*
X11651020Y-16159722D02*
X11651020Y-16264484D01*
X12041497Y-16054960D02*
X11870068Y-16312103D01*
X12298640Y-16064484D02*
X12317687Y-16064484D01*
X12317687Y-16064484D02*
X12336735Y-16074008D01*
X12336735Y-16074008D02*
X12346259Y-16083531D01*
X12346259Y-16083531D02*
X12355782Y-16102579D01*
X12355782Y-16102579D02*
X12365306Y-16140674D01*
X12365306Y-16140674D02*
X12365306Y-16188293D01*
X12365306Y-16188293D02*
X12355782Y-16226388D01*
X12355782Y-16226388D02*
X12346259Y-16245436D01*
X12346259Y-16245436D02*
X12336735Y-16254960D01*
X12336735Y-16254960D02*
X12317687Y-16264484D01*
X12317687Y-16264484D02*
X12298640Y-16264484D01*
X12298640Y-16264484D02*
X12279592Y-16254960D01*
X12279592Y-16254960D02*
X12270068Y-16245436D01*
X12270068Y-16245436D02*
X12260544Y-16226388D01*
X12260544Y-16226388D02*
X12251021Y-16188293D01*
X12251021Y-16188293D02*
X12251021Y-16140674D01*
X12251021Y-16140674D02*
X12260544Y-16102579D01*
X12260544Y-16102579D02*
X12270068Y-16083531D01*
X12270068Y-16083531D02*
X12279592Y-16074008D01*
X12279592Y-16074008D02*
X12298640Y-16064484D01*
X12451021Y-16245436D02*
X12460544Y-16254960D01*
X12460544Y-16254960D02*
X12451021Y-16264484D01*
X12451021Y-16264484D02*
X12441497Y-16254960D01*
X12441497Y-16254960D02*
X12451021Y-16245436D01*
X12451021Y-16245436D02*
X12451021Y-16264484D01*
X12584354Y-16064484D02*
X12603402Y-16064484D01*
X12603402Y-16064484D02*
X12622449Y-16074008D01*
X12622449Y-16074008D02*
X12631973Y-16083531D01*
X12631973Y-16083531D02*
X12641497Y-16102579D01*
X12641497Y-16102579D02*
X12651021Y-16140674D01*
X12651021Y-16140674D02*
X12651021Y-16188293D01*
X12651021Y-16188293D02*
X12641497Y-16226388D01*
X12641497Y-16226388D02*
X12631973Y-16245436D01*
X12631973Y-16245436D02*
X12622449Y-16254960D01*
X12622449Y-16254960D02*
X12603402Y-16264484D01*
X12603402Y-16264484D02*
X12584354Y-16264484D01*
X12584354Y-16264484D02*
X12565306Y-16254960D01*
X12565306Y-16254960D02*
X12555782Y-16245436D01*
X12555782Y-16245436D02*
X12546259Y-16226388D01*
X12546259Y-16226388D02*
X12536735Y-16188293D01*
X12536735Y-16188293D02*
X12536735Y-16140674D01*
X12536735Y-16140674D02*
X12546259Y-16102579D01*
X12546259Y-16102579D02*
X12555782Y-16083531D01*
X12555782Y-16083531D02*
X12565306Y-16074008D01*
X12565306Y-16074008D02*
X12584354Y-16064484D01*
X12717687Y-16064484D02*
X12841497Y-16064484D01*
X12841497Y-16064484D02*
X12774830Y-16140674D01*
X12774830Y-16140674D02*
X12803402Y-16140674D01*
X12803402Y-16140674D02*
X12822449Y-16150198D01*
X12822449Y-16150198D02*
X12831973Y-16159722D01*
X12831973Y-16159722D02*
X12841497Y-16178769D01*
X12841497Y-16178769D02*
X12841497Y-16226388D01*
X12841497Y-16226388D02*
X12831973Y-16245436D01*
X12831973Y-16245436D02*
X12822449Y-16254960D01*
X12822449Y-16254960D02*
X12803402Y-16264484D01*
X12803402Y-16264484D02*
X12746259Y-16264484D01*
X12746259Y-16264484D02*
X12727211Y-16254960D01*
X12727211Y-16254960D02*
X12717687Y-16245436D01*
X13022449Y-16064484D02*
X12927211Y-16064484D01*
X12927211Y-16064484D02*
X12917687Y-16159722D01*
X12917687Y-16159722D02*
X12927211Y-16150198D01*
X12927211Y-16150198D02*
X12946259Y-16140674D01*
X12946259Y-16140674D02*
X12993878Y-16140674D01*
X12993878Y-16140674D02*
X13012925Y-16150198D01*
X13012925Y-16150198D02*
X13022449Y-16159722D01*
X13022449Y-16159722D02*
X13031973Y-16178769D01*
X13031973Y-16178769D02*
X13031973Y-16226388D01*
X13031973Y-16226388D02*
X13022449Y-16245436D01*
X13022449Y-16245436D02*
X13012925Y-16254960D01*
X13012925Y-16254960D02*
X12993878Y-16264484D01*
X12993878Y-16264484D02*
X12946259Y-16264484D01*
X12946259Y-16264484D02*
X12927211Y-16254960D01*
X12927211Y-16254960D02*
X12917687Y-16245436D01*
X13203402Y-16131150D02*
X13203402Y-16264484D01*
X13155782Y-16054960D02*
X13108163Y-16197817D01*
X13108163Y-16197817D02*
X13231973Y-16197817D01*
X13298640Y-16064484D02*
X13298640Y-16102579D01*
X13374830Y-16064484D02*
X13374830Y-16102579D01*
X13670068Y-16340674D02*
X13660544Y-16331150D01*
X13660544Y-16331150D02*
X13641497Y-16302579D01*
X13641497Y-16302579D02*
X13631973Y-16283531D01*
X13631973Y-16283531D02*
X13622449Y-16254960D01*
X13622449Y-16254960D02*
X13612925Y-16207341D01*
X13612925Y-16207341D02*
X13612925Y-16169246D01*
X13612925Y-16169246D02*
X13622449Y-16121627D01*
X13622449Y-16121627D02*
X13631973Y-16093055D01*
X13631973Y-16093055D02*
X13641497Y-16074008D01*
X13641497Y-16074008D02*
X13660544Y-16045436D01*
X13660544Y-16045436D02*
X13670068Y-16035912D01*
X13831973Y-16131150D02*
X13831973Y-16264484D01*
X13784354Y-16054960D02*
X13736735Y-16197817D01*
X13736735Y-16197817D02*
X13860544Y-16197817D01*
X14089116Y-16264484D02*
X14089116Y-16064484D01*
X14174830Y-16264484D02*
X14174830Y-16159722D01*
X14174830Y-16159722D02*
X14165306Y-16140674D01*
X14165306Y-16140674D02*
X14146259Y-16131150D01*
X14146259Y-16131150D02*
X14117687Y-16131150D01*
X14117687Y-16131150D02*
X14098640Y-16140674D01*
X14098640Y-16140674D02*
X14089116Y-16150198D01*
X14298640Y-16264484D02*
X14279592Y-16254960D01*
X14279592Y-16254960D02*
X14270068Y-16245436D01*
X14270068Y-16245436D02*
X14260545Y-16226388D01*
X14260545Y-16226388D02*
X14260545Y-16169246D01*
X14260545Y-16169246D02*
X14270068Y-16150198D01*
X14270068Y-16150198D02*
X14279592Y-16140674D01*
X14279592Y-16140674D02*
X14298640Y-16131150D01*
X14298640Y-16131150D02*
X14327211Y-16131150D01*
X14327211Y-16131150D02*
X14346259Y-16140674D01*
X14346259Y-16140674D02*
X14355783Y-16150198D01*
X14355783Y-16150198D02*
X14365306Y-16169246D01*
X14365306Y-16169246D02*
X14365306Y-16226388D01*
X14365306Y-16226388D02*
X14355783Y-16245436D01*
X14355783Y-16245436D02*
X14346259Y-16254960D01*
X14346259Y-16254960D02*
X14327211Y-16264484D01*
X14327211Y-16264484D02*
X14298640Y-16264484D01*
X14479592Y-16264484D02*
X14460545Y-16254960D01*
X14460545Y-16254960D02*
X14451021Y-16235912D01*
X14451021Y-16235912D02*
X14451021Y-16064484D01*
X14631973Y-16254960D02*
X14612926Y-16264484D01*
X14612926Y-16264484D02*
X14574830Y-16264484D01*
X14574830Y-16264484D02*
X14555783Y-16254960D01*
X14555783Y-16254960D02*
X14546259Y-16235912D01*
X14546259Y-16235912D02*
X14546259Y-16159722D01*
X14546259Y-16159722D02*
X14555783Y-16140674D01*
X14555783Y-16140674D02*
X14574830Y-16131150D01*
X14574830Y-16131150D02*
X14612926Y-16131150D01*
X14612926Y-16131150D02*
X14631973Y-16140674D01*
X14631973Y-16140674D02*
X14641497Y-16159722D01*
X14641497Y-16159722D02*
X14641497Y-16178769D01*
X14641497Y-16178769D02*
X14546259Y-16197817D01*
X14717687Y-16254960D02*
X14736735Y-16264484D01*
X14736735Y-16264484D02*
X14774830Y-16264484D01*
X14774830Y-16264484D02*
X14793878Y-16254960D01*
X14793878Y-16254960D02*
X14803402Y-16235912D01*
X14803402Y-16235912D02*
X14803402Y-16226388D01*
X14803402Y-16226388D02*
X14793878Y-16207341D01*
X14793878Y-16207341D02*
X14774830Y-16197817D01*
X14774830Y-16197817D02*
X14746259Y-16197817D01*
X14746259Y-16197817D02*
X14727211Y-16188293D01*
X14727211Y-16188293D02*
X14717687Y-16169246D01*
X14717687Y-16169246D02*
X14717687Y-16159722D01*
X14717687Y-16159722D02*
X14727211Y-16140674D01*
X14727211Y-16140674D02*
X14746259Y-16131150D01*
X14746259Y-16131150D02*
X14774830Y-16131150D01*
X14774830Y-16131150D02*
X14793878Y-16140674D01*
X14870068Y-16340674D02*
X14879592Y-16331150D01*
X14879592Y-16331150D02*
X14898640Y-16302579D01*
X14898640Y-16302579D02*
X14908164Y-16283531D01*
X14908164Y-16283531D02*
X14917687Y-16254960D01*
X14917687Y-16254960D02*
X14927211Y-16207341D01*
X14927211Y-16207341D02*
X14927211Y-16169246D01*
X14927211Y-16169246D02*
X14917687Y-16121627D01*
X14917687Y-16121627D02*
X14908164Y-16093055D01*
X14908164Y-16093055D02*
X14898640Y-16074008D01*
X14898640Y-16074008D02*
X14879592Y-16045436D01*
X14879592Y-16045436D02*
X14870068Y-16035912D01*
D10*
X10080361Y-16472356D02*
X10080361Y-16401644D01*
X10009650Y-16401644D01*
X10009650Y-16472356D01*
X10080361Y-16472356D01*
D11*
X10460544Y-16528484D02*
X10346259Y-16528484D01*
X10403401Y-16528484D02*
X10403401Y-16328484D01*
X10403401Y-16328484D02*
X10384354Y-16357055D01*
X10384354Y-16357055D02*
X10365306Y-16376103D01*
X10365306Y-16376103D02*
X10346259Y-16385627D01*
X10546259Y-16509436D02*
X10555782Y-16518960D01*
X10555782Y-16518960D02*
X10546259Y-16528484D01*
X10546259Y-16528484D02*
X10536735Y-16518960D01*
X10536735Y-16518960D02*
X10546259Y-16509436D01*
X10546259Y-16509436D02*
X10546259Y-16528484D01*
X10679592Y-16328484D02*
X10698640Y-16328484D01*
X10698640Y-16328484D02*
X10717687Y-16338008D01*
X10717687Y-16338008D02*
X10727211Y-16347531D01*
X10727211Y-16347531D02*
X10736735Y-16366579D01*
X10736735Y-16366579D02*
X10746259Y-16404674D01*
X10746259Y-16404674D02*
X10746259Y-16452293D01*
X10746259Y-16452293D02*
X10736735Y-16490388D01*
X10736735Y-16490388D02*
X10727211Y-16509436D01*
X10727211Y-16509436D02*
X10717687Y-16518960D01*
X10717687Y-16518960D02*
X10698640Y-16528484D01*
X10698640Y-16528484D02*
X10679592Y-16528484D01*
X10679592Y-16528484D02*
X10660544Y-16518960D01*
X10660544Y-16518960D02*
X10651020Y-16509436D01*
X10651020Y-16509436D02*
X10641497Y-16490388D01*
X10641497Y-16490388D02*
X10631973Y-16452293D01*
X10631973Y-16452293D02*
X10631973Y-16404674D01*
X10631973Y-16404674D02*
X10641497Y-16366579D01*
X10641497Y-16366579D02*
X10651020Y-16347531D01*
X10651020Y-16347531D02*
X10660544Y-16338008D01*
X10660544Y-16338008D02*
X10679592Y-16328484D01*
X10870068Y-16328484D02*
X10889116Y-16328484D01*
X10889116Y-16328484D02*
X10908163Y-16338008D01*
X10908163Y-16338008D02*
X10917687Y-16347531D01*
X10917687Y-16347531D02*
X10927211Y-16366579D01*
X10927211Y-16366579D02*
X10936735Y-16404674D01*
X10936735Y-16404674D02*
X10936735Y-16452293D01*
X10936735Y-16452293D02*
X10927211Y-16490388D01*
X10927211Y-16490388D02*
X10917687Y-16509436D01*
X10917687Y-16509436D02*
X10908163Y-16518960D01*
X10908163Y-16518960D02*
X10889116Y-16528484D01*
X10889116Y-16528484D02*
X10870068Y-16528484D01*
X10870068Y-16528484D02*
X10851020Y-16518960D01*
X10851020Y-16518960D02*
X10841497Y-16509436D01*
X10841497Y-16509436D02*
X10831973Y-16490388D01*
X10831973Y-16490388D02*
X10822449Y-16452293D01*
X10822449Y-16452293D02*
X10822449Y-16404674D01*
X10822449Y-16404674D02*
X10831973Y-16366579D01*
X10831973Y-16366579D02*
X10841497Y-16347531D01*
X10841497Y-16347531D02*
X10851020Y-16338008D01*
X10851020Y-16338008D02*
X10870068Y-16328484D01*
X11060544Y-16328484D02*
X11079592Y-16328484D01*
X11079592Y-16328484D02*
X11098640Y-16338008D01*
X11098640Y-16338008D02*
X11108163Y-16347531D01*
X11108163Y-16347531D02*
X11117687Y-16366579D01*
X11117687Y-16366579D02*
X11127211Y-16404674D01*
X11127211Y-16404674D02*
X11127211Y-16452293D01*
X11127211Y-16452293D02*
X11117687Y-16490388D01*
X11117687Y-16490388D02*
X11108163Y-16509436D01*
X11108163Y-16509436D02*
X11098640Y-16518960D01*
X11098640Y-16518960D02*
X11079592Y-16528484D01*
X11079592Y-16528484D02*
X11060544Y-16528484D01*
X11060544Y-16528484D02*
X11041497Y-16518960D01*
X11041497Y-16518960D02*
X11031973Y-16509436D01*
X11031973Y-16509436D02*
X11022449Y-16490388D01*
X11022449Y-16490388D02*
X11012925Y-16452293D01*
X11012925Y-16452293D02*
X11012925Y-16404674D01*
X11012925Y-16404674D02*
X11022449Y-16366579D01*
X11022449Y-16366579D02*
X11031973Y-16347531D01*
X11031973Y-16347531D02*
X11041497Y-16338008D01*
X11041497Y-16338008D02*
X11060544Y-16328484D01*
X11212925Y-16528484D02*
X11212925Y-16395150D01*
X11212925Y-16414198D02*
X11222449Y-16404674D01*
X11222449Y-16404674D02*
X11241497Y-16395150D01*
X11241497Y-16395150D02*
X11270068Y-16395150D01*
X11270068Y-16395150D02*
X11289116Y-16404674D01*
X11289116Y-16404674D02*
X11298639Y-16423722D01*
X11298639Y-16423722D02*
X11298639Y-16528484D01*
X11298639Y-16423722D02*
X11308163Y-16404674D01*
X11308163Y-16404674D02*
X11327211Y-16395150D01*
X11327211Y-16395150D02*
X11355782Y-16395150D01*
X11355782Y-16395150D02*
X11374830Y-16404674D01*
X11374830Y-16404674D02*
X11384354Y-16423722D01*
X11384354Y-16423722D02*
X11384354Y-16528484D01*
X11479592Y-16528484D02*
X11479592Y-16395150D01*
X11479592Y-16414198D02*
X11489116Y-16404674D01*
X11489116Y-16404674D02*
X11508163Y-16395150D01*
X11508163Y-16395150D02*
X11536735Y-16395150D01*
X11536735Y-16395150D02*
X11555782Y-16404674D01*
X11555782Y-16404674D02*
X11565306Y-16423722D01*
X11565306Y-16423722D02*
X11565306Y-16528484D01*
X11565306Y-16423722D02*
X11574830Y-16404674D01*
X11574830Y-16404674D02*
X11593878Y-16395150D01*
X11593878Y-16395150D02*
X11622449Y-16395150D01*
X11622449Y-16395150D02*
X11641497Y-16404674D01*
X11641497Y-16404674D02*
X11651020Y-16423722D01*
X11651020Y-16423722D02*
X11651020Y-16528484D01*
X12041497Y-16318960D02*
X11870068Y-16576103D01*
X12298640Y-16328484D02*
X12317687Y-16328484D01*
X12317687Y-16328484D02*
X12336735Y-16338008D01*
X12336735Y-16338008D02*
X12346259Y-16347531D01*
X12346259Y-16347531D02*
X12355782Y-16366579D01*
X12355782Y-16366579D02*
X12365306Y-16404674D01*
X12365306Y-16404674D02*
X12365306Y-16452293D01*
X12365306Y-16452293D02*
X12355782Y-16490388D01*
X12355782Y-16490388D02*
X12346259Y-16509436D01*
X12346259Y-16509436D02*
X12336735Y-16518960D01*
X12336735Y-16518960D02*
X12317687Y-16528484D01*
X12317687Y-16528484D02*
X12298640Y-16528484D01*
X12298640Y-16528484D02*
X12279592Y-16518960D01*
X12279592Y-16518960D02*
X12270068Y-16509436D01*
X12270068Y-16509436D02*
X12260544Y-16490388D01*
X12260544Y-16490388D02*
X12251021Y-16452293D01*
X12251021Y-16452293D02*
X12251021Y-16404674D01*
X12251021Y-16404674D02*
X12260544Y-16366579D01*
X12260544Y-16366579D02*
X12270068Y-16347531D01*
X12270068Y-16347531D02*
X12279592Y-16338008D01*
X12279592Y-16338008D02*
X12298640Y-16328484D01*
X12451021Y-16509436D02*
X12460544Y-16518960D01*
X12460544Y-16518960D02*
X12451021Y-16528484D01*
X12451021Y-16528484D02*
X12441497Y-16518960D01*
X12441497Y-16518960D02*
X12451021Y-16509436D01*
X12451021Y-16509436D02*
X12451021Y-16528484D01*
X12584354Y-16328484D02*
X12603402Y-16328484D01*
X12603402Y-16328484D02*
X12622449Y-16338008D01*
X12622449Y-16338008D02*
X12631973Y-16347531D01*
X12631973Y-16347531D02*
X12641497Y-16366579D01*
X12641497Y-16366579D02*
X12651021Y-16404674D01*
X12651021Y-16404674D02*
X12651021Y-16452293D01*
X12651021Y-16452293D02*
X12641497Y-16490388D01*
X12641497Y-16490388D02*
X12631973Y-16509436D01*
X12631973Y-16509436D02*
X12622449Y-16518960D01*
X12622449Y-16518960D02*
X12603402Y-16528484D01*
X12603402Y-16528484D02*
X12584354Y-16528484D01*
X12584354Y-16528484D02*
X12565306Y-16518960D01*
X12565306Y-16518960D02*
X12555782Y-16509436D01*
X12555782Y-16509436D02*
X12546259Y-16490388D01*
X12546259Y-16490388D02*
X12536735Y-16452293D01*
X12536735Y-16452293D02*
X12536735Y-16404674D01*
X12536735Y-16404674D02*
X12546259Y-16366579D01*
X12546259Y-16366579D02*
X12555782Y-16347531D01*
X12555782Y-16347531D02*
X12565306Y-16338008D01*
X12565306Y-16338008D02*
X12584354Y-16328484D01*
X12717687Y-16328484D02*
X12841497Y-16328484D01*
X12841497Y-16328484D02*
X12774830Y-16404674D01*
X12774830Y-16404674D02*
X12803402Y-16404674D01*
X12803402Y-16404674D02*
X12822449Y-16414198D01*
X12822449Y-16414198D02*
X12831973Y-16423722D01*
X12831973Y-16423722D02*
X12841497Y-16442769D01*
X12841497Y-16442769D02*
X12841497Y-16490388D01*
X12841497Y-16490388D02*
X12831973Y-16509436D01*
X12831973Y-16509436D02*
X12822449Y-16518960D01*
X12822449Y-16518960D02*
X12803402Y-16528484D01*
X12803402Y-16528484D02*
X12746259Y-16528484D01*
X12746259Y-16528484D02*
X12727211Y-16518960D01*
X12727211Y-16518960D02*
X12717687Y-16509436D01*
X12936735Y-16528484D02*
X12974830Y-16528484D01*
X12974830Y-16528484D02*
X12993878Y-16518960D01*
X12993878Y-16518960D02*
X13003402Y-16509436D01*
X13003402Y-16509436D02*
X13022449Y-16480865D01*
X13022449Y-16480865D02*
X13031973Y-16442769D01*
X13031973Y-16442769D02*
X13031973Y-16366579D01*
X13031973Y-16366579D02*
X13022449Y-16347531D01*
X13022449Y-16347531D02*
X13012925Y-16338008D01*
X13012925Y-16338008D02*
X12993878Y-16328484D01*
X12993878Y-16328484D02*
X12955782Y-16328484D01*
X12955782Y-16328484D02*
X12936735Y-16338008D01*
X12936735Y-16338008D02*
X12927211Y-16347531D01*
X12927211Y-16347531D02*
X12917687Y-16366579D01*
X12917687Y-16366579D02*
X12917687Y-16414198D01*
X12917687Y-16414198D02*
X12927211Y-16433246D01*
X12927211Y-16433246D02*
X12936735Y-16442769D01*
X12936735Y-16442769D02*
X12955782Y-16452293D01*
X12955782Y-16452293D02*
X12993878Y-16452293D01*
X12993878Y-16452293D02*
X13012925Y-16442769D01*
X13012925Y-16442769D02*
X13022449Y-16433246D01*
X13022449Y-16433246D02*
X13031973Y-16414198D01*
X13203402Y-16395150D02*
X13203402Y-16528484D01*
X13155782Y-16318960D02*
X13108163Y-16461817D01*
X13108163Y-16461817D02*
X13231973Y-16461817D01*
X13298640Y-16328484D02*
X13298640Y-16366579D01*
X13374830Y-16328484D02*
X13374830Y-16366579D01*
X13670068Y-16604674D02*
X13660544Y-16595150D01*
X13660544Y-16595150D02*
X13641497Y-16566579D01*
X13641497Y-16566579D02*
X13631973Y-16547531D01*
X13631973Y-16547531D02*
X13622449Y-16518960D01*
X13622449Y-16518960D02*
X13612925Y-16471341D01*
X13612925Y-16471341D02*
X13612925Y-16433246D01*
X13612925Y-16433246D02*
X13622449Y-16385627D01*
X13622449Y-16385627D02*
X13631973Y-16357055D01*
X13631973Y-16357055D02*
X13641497Y-16338008D01*
X13641497Y-16338008D02*
X13660544Y-16309436D01*
X13660544Y-16309436D02*
X13670068Y-16299912D01*
X13831973Y-16395150D02*
X13831973Y-16528484D01*
X13784354Y-16318960D02*
X13736735Y-16461817D01*
X13736735Y-16461817D02*
X13860544Y-16461817D01*
X13974830Y-16328484D02*
X13993878Y-16328484D01*
X13993878Y-16328484D02*
X14012925Y-16338008D01*
X14012925Y-16338008D02*
X14022449Y-16347531D01*
X14022449Y-16347531D02*
X14031973Y-16366579D01*
X14031973Y-16366579D02*
X14041497Y-16404674D01*
X14041497Y-16404674D02*
X14041497Y-16452293D01*
X14041497Y-16452293D02*
X14031973Y-16490388D01*
X14031973Y-16490388D02*
X14022449Y-16509436D01*
X14022449Y-16509436D02*
X14012925Y-16518960D01*
X14012925Y-16518960D02*
X13993878Y-16528484D01*
X13993878Y-16528484D02*
X13974830Y-16528484D01*
X13974830Y-16528484D02*
X13955783Y-16518960D01*
X13955783Y-16518960D02*
X13946259Y-16509436D01*
X13946259Y-16509436D02*
X13936735Y-16490388D01*
X13936735Y-16490388D02*
X13927211Y-16452293D01*
X13927211Y-16452293D02*
X13927211Y-16404674D01*
X13927211Y-16404674D02*
X13936735Y-16366579D01*
X13936735Y-16366579D02*
X13946259Y-16347531D01*
X13946259Y-16347531D02*
X13955783Y-16338008D01*
X13955783Y-16338008D02*
X13974830Y-16328484D01*
X14279592Y-16528484D02*
X14279592Y-16328484D01*
X14365306Y-16528484D02*
X14365306Y-16423722D01*
X14365306Y-16423722D02*
X14355783Y-16404674D01*
X14355783Y-16404674D02*
X14336735Y-16395150D01*
X14336735Y-16395150D02*
X14308164Y-16395150D01*
X14308164Y-16395150D02*
X14289116Y-16404674D01*
X14289116Y-16404674D02*
X14279592Y-16414198D01*
X14489116Y-16528484D02*
X14470068Y-16518960D01*
X14470068Y-16518960D02*
X14460545Y-16509436D01*
X14460545Y-16509436D02*
X14451021Y-16490388D01*
X14451021Y-16490388D02*
X14451021Y-16433246D01*
X14451021Y-16433246D02*
X14460545Y-16414198D01*
X14460545Y-16414198D02*
X14470068Y-16404674D01*
X14470068Y-16404674D02*
X14489116Y-16395150D01*
X14489116Y-16395150D02*
X14517687Y-16395150D01*
X14517687Y-16395150D02*
X14536735Y-16404674D01*
X14536735Y-16404674D02*
X14546259Y-16414198D01*
X14546259Y-16414198D02*
X14555783Y-16433246D01*
X14555783Y-16433246D02*
X14555783Y-16490388D01*
X14555783Y-16490388D02*
X14546259Y-16509436D01*
X14546259Y-16509436D02*
X14536735Y-16518960D01*
X14536735Y-16518960D02*
X14517687Y-16528484D01*
X14517687Y-16528484D02*
X14489116Y-16528484D01*
X14670068Y-16528484D02*
X14651021Y-16518960D01*
X14651021Y-16518960D02*
X14641497Y-16499912D01*
X14641497Y-16499912D02*
X14641497Y-16328484D01*
X14822449Y-16518960D02*
X14803402Y-16528484D01*
X14803402Y-16528484D02*
X14765306Y-16528484D01*
X14765306Y-16528484D02*
X14746259Y-16518960D01*
X14746259Y-16518960D02*
X14736735Y-16499912D01*
X14736735Y-16499912D02*
X14736735Y-16423722D01*
X14736735Y-16423722D02*
X14746259Y-16404674D01*
X14746259Y-16404674D02*
X14765306Y-16395150D01*
X14765306Y-16395150D02*
X14803402Y-16395150D01*
X14803402Y-16395150D02*
X14822449Y-16404674D01*
X14822449Y-16404674D02*
X14831973Y-16423722D01*
X14831973Y-16423722D02*
X14831973Y-16442769D01*
X14831973Y-16442769D02*
X14736735Y-16461817D01*
X14908164Y-16518960D02*
X14927211Y-16528484D01*
X14927211Y-16528484D02*
X14965306Y-16528484D01*
X14965306Y-16528484D02*
X14984354Y-16518960D01*
X14984354Y-16518960D02*
X14993878Y-16499912D01*
X14993878Y-16499912D02*
X14993878Y-16490388D01*
X14993878Y-16490388D02*
X14984354Y-16471341D01*
X14984354Y-16471341D02*
X14965306Y-16461817D01*
X14965306Y-16461817D02*
X14936735Y-16461817D01*
X14936735Y-16461817D02*
X14917687Y-16452293D01*
X14917687Y-16452293D02*
X14908164Y-16433246D01*
X14908164Y-16433246D02*
X14908164Y-16423722D01*
X14908164Y-16423722D02*
X14917687Y-16404674D01*
X14917687Y-16404674D02*
X14936735Y-16395150D01*
X14936735Y-16395150D02*
X14965306Y-16395150D01*
X14965306Y-16395150D02*
X14984354Y-16404674D01*
X15060545Y-16604674D02*
X15070068Y-16595150D01*
X15070068Y-16595150D02*
X15089116Y-16566579D01*
X15089116Y-16566579D02*
X15098640Y-16547531D01*
X15098640Y-16547531D02*
X15108164Y-16518960D01*
X15108164Y-16518960D02*
X15117687Y-16471341D01*
X15117687Y-16471341D02*
X15117687Y-16433246D01*
X15117687Y-16433246D02*
X15108164Y-16385627D01*
X15108164Y-16385627D02*
X15098640Y-16357055D01*
X15098640Y-16357055D02*
X15089116Y-16338008D01*
X15089116Y-16338008D02*
X15070068Y-16309436D01*
X15070068Y-16309436D02*
X15060545Y-16299912D01*
D12*
X10044206Y-16751800D02*
X10095006Y-16701000D01*
X10044206Y-16650200D01*
X9993406Y-16701000D01*
X10044206Y-16751800D01*
D11*
X10460544Y-16792484D02*
X10346259Y-16792484D01*
X10403401Y-16792484D02*
X10403401Y-16592484D01*
X10403401Y-16592484D02*
X10384354Y-16621055D01*
X10384354Y-16621055D02*
X10365306Y-16640103D01*
X10365306Y-16640103D02*
X10346259Y-16649627D01*
X10546259Y-16773436D02*
X10555782Y-16782960D01*
X10555782Y-16782960D02*
X10546259Y-16792484D01*
X10546259Y-16792484D02*
X10536735Y-16782960D01*
X10536735Y-16782960D02*
X10546259Y-16773436D01*
X10546259Y-16773436D02*
X10546259Y-16792484D01*
X10679592Y-16592484D02*
X10698640Y-16592484D01*
X10698640Y-16592484D02*
X10717687Y-16602008D01*
X10717687Y-16602008D02*
X10727211Y-16611531D01*
X10727211Y-16611531D02*
X10736735Y-16630579D01*
X10736735Y-16630579D02*
X10746259Y-16668674D01*
X10746259Y-16668674D02*
X10746259Y-16716293D01*
X10746259Y-16716293D02*
X10736735Y-16754388D01*
X10736735Y-16754388D02*
X10727211Y-16773436D01*
X10727211Y-16773436D02*
X10717687Y-16782960D01*
X10717687Y-16782960D02*
X10698640Y-16792484D01*
X10698640Y-16792484D02*
X10679592Y-16792484D01*
X10679592Y-16792484D02*
X10660544Y-16782960D01*
X10660544Y-16782960D02*
X10651020Y-16773436D01*
X10651020Y-16773436D02*
X10641497Y-16754388D01*
X10641497Y-16754388D02*
X10631973Y-16716293D01*
X10631973Y-16716293D02*
X10631973Y-16668674D01*
X10631973Y-16668674D02*
X10641497Y-16630579D01*
X10641497Y-16630579D02*
X10651020Y-16611531D01*
X10651020Y-16611531D02*
X10660544Y-16602008D01*
X10660544Y-16602008D02*
X10679592Y-16592484D01*
X10936735Y-16792484D02*
X10822449Y-16792484D01*
X10879592Y-16792484D02*
X10879592Y-16592484D01*
X10879592Y-16592484D02*
X10860544Y-16621055D01*
X10860544Y-16621055D02*
X10841497Y-16640103D01*
X10841497Y-16640103D02*
X10822449Y-16649627D01*
X11108163Y-16592484D02*
X11070068Y-16592484D01*
X11070068Y-16592484D02*
X11051020Y-16602008D01*
X11051020Y-16602008D02*
X11041497Y-16611531D01*
X11041497Y-16611531D02*
X11022449Y-16640103D01*
X11022449Y-16640103D02*
X11012925Y-16678198D01*
X11012925Y-16678198D02*
X11012925Y-16754388D01*
X11012925Y-16754388D02*
X11022449Y-16773436D01*
X11022449Y-16773436D02*
X11031973Y-16782960D01*
X11031973Y-16782960D02*
X11051020Y-16792484D01*
X11051020Y-16792484D02*
X11089116Y-16792484D01*
X11089116Y-16792484D02*
X11108163Y-16782960D01*
X11108163Y-16782960D02*
X11117687Y-16773436D01*
X11117687Y-16773436D02*
X11127211Y-16754388D01*
X11127211Y-16754388D02*
X11127211Y-16706769D01*
X11127211Y-16706769D02*
X11117687Y-16687722D01*
X11117687Y-16687722D02*
X11108163Y-16678198D01*
X11108163Y-16678198D02*
X11089116Y-16668674D01*
X11089116Y-16668674D02*
X11051020Y-16668674D01*
X11051020Y-16668674D02*
X11031973Y-16678198D01*
X11031973Y-16678198D02*
X11022449Y-16687722D01*
X11022449Y-16687722D02*
X11012925Y-16706769D01*
X11212925Y-16792484D02*
X11212925Y-16659150D01*
X11212925Y-16678198D02*
X11222449Y-16668674D01*
X11222449Y-16668674D02*
X11241497Y-16659150D01*
X11241497Y-16659150D02*
X11270068Y-16659150D01*
X11270068Y-16659150D02*
X11289116Y-16668674D01*
X11289116Y-16668674D02*
X11298639Y-16687722D01*
X11298639Y-16687722D02*
X11298639Y-16792484D01*
X11298639Y-16687722D02*
X11308163Y-16668674D01*
X11308163Y-16668674D02*
X11327211Y-16659150D01*
X11327211Y-16659150D02*
X11355782Y-16659150D01*
X11355782Y-16659150D02*
X11374830Y-16668674D01*
X11374830Y-16668674D02*
X11384354Y-16687722D01*
X11384354Y-16687722D02*
X11384354Y-16792484D01*
X11479592Y-16792484D02*
X11479592Y-16659150D01*
X11479592Y-16678198D02*
X11489116Y-16668674D01*
X11489116Y-16668674D02*
X11508163Y-16659150D01*
X11508163Y-16659150D02*
X11536735Y-16659150D01*
X11536735Y-16659150D02*
X11555782Y-16668674D01*
X11555782Y-16668674D02*
X11565306Y-16687722D01*
X11565306Y-16687722D02*
X11565306Y-16792484D01*
X11565306Y-16687722D02*
X11574830Y-16668674D01*
X11574830Y-16668674D02*
X11593878Y-16659150D01*
X11593878Y-16659150D02*
X11622449Y-16659150D01*
X11622449Y-16659150D02*
X11641497Y-16668674D01*
X11641497Y-16668674D02*
X11651020Y-16687722D01*
X11651020Y-16687722D02*
X11651020Y-16792484D01*
X12041497Y-16582960D02*
X11870068Y-16840103D01*
X12298640Y-16592484D02*
X12317687Y-16592484D01*
X12317687Y-16592484D02*
X12336735Y-16602008D01*
X12336735Y-16602008D02*
X12346259Y-16611531D01*
X12346259Y-16611531D02*
X12355782Y-16630579D01*
X12355782Y-16630579D02*
X12365306Y-16668674D01*
X12365306Y-16668674D02*
X12365306Y-16716293D01*
X12365306Y-16716293D02*
X12355782Y-16754388D01*
X12355782Y-16754388D02*
X12346259Y-16773436D01*
X12346259Y-16773436D02*
X12336735Y-16782960D01*
X12336735Y-16782960D02*
X12317687Y-16792484D01*
X12317687Y-16792484D02*
X12298640Y-16792484D01*
X12298640Y-16792484D02*
X12279592Y-16782960D01*
X12279592Y-16782960D02*
X12270068Y-16773436D01*
X12270068Y-16773436D02*
X12260544Y-16754388D01*
X12260544Y-16754388D02*
X12251021Y-16716293D01*
X12251021Y-16716293D02*
X12251021Y-16668674D01*
X12251021Y-16668674D02*
X12260544Y-16630579D01*
X12260544Y-16630579D02*
X12270068Y-16611531D01*
X12270068Y-16611531D02*
X12279592Y-16602008D01*
X12279592Y-16602008D02*
X12298640Y-16592484D01*
X12451021Y-16773436D02*
X12460544Y-16782960D01*
X12460544Y-16782960D02*
X12451021Y-16792484D01*
X12451021Y-16792484D02*
X12441497Y-16782960D01*
X12441497Y-16782960D02*
X12451021Y-16773436D01*
X12451021Y-16773436D02*
X12451021Y-16792484D01*
X12584354Y-16592484D02*
X12603402Y-16592484D01*
X12603402Y-16592484D02*
X12622449Y-16602008D01*
X12622449Y-16602008D02*
X12631973Y-16611531D01*
X12631973Y-16611531D02*
X12641497Y-16630579D01*
X12641497Y-16630579D02*
X12651021Y-16668674D01*
X12651021Y-16668674D02*
X12651021Y-16716293D01*
X12651021Y-16716293D02*
X12641497Y-16754388D01*
X12641497Y-16754388D02*
X12631973Y-16773436D01*
X12631973Y-16773436D02*
X12622449Y-16782960D01*
X12622449Y-16782960D02*
X12603402Y-16792484D01*
X12603402Y-16792484D02*
X12584354Y-16792484D01*
X12584354Y-16792484D02*
X12565306Y-16782960D01*
X12565306Y-16782960D02*
X12555782Y-16773436D01*
X12555782Y-16773436D02*
X12546259Y-16754388D01*
X12546259Y-16754388D02*
X12536735Y-16716293D01*
X12536735Y-16716293D02*
X12536735Y-16668674D01*
X12536735Y-16668674D02*
X12546259Y-16630579D01*
X12546259Y-16630579D02*
X12555782Y-16611531D01*
X12555782Y-16611531D02*
X12565306Y-16602008D01*
X12565306Y-16602008D02*
X12584354Y-16592484D01*
X12822449Y-16659150D02*
X12822449Y-16792484D01*
X12774830Y-16582960D02*
X12727211Y-16725817D01*
X12727211Y-16725817D02*
X12851021Y-16725817D01*
X12965306Y-16592484D02*
X12984354Y-16592484D01*
X12984354Y-16592484D02*
X13003402Y-16602008D01*
X13003402Y-16602008D02*
X13012925Y-16611531D01*
X13012925Y-16611531D02*
X13022449Y-16630579D01*
X13022449Y-16630579D02*
X13031973Y-16668674D01*
X13031973Y-16668674D02*
X13031973Y-16716293D01*
X13031973Y-16716293D02*
X13022449Y-16754388D01*
X13022449Y-16754388D02*
X13012925Y-16773436D01*
X13012925Y-16773436D02*
X13003402Y-16782960D01*
X13003402Y-16782960D02*
X12984354Y-16792484D01*
X12984354Y-16792484D02*
X12965306Y-16792484D01*
X12965306Y-16792484D02*
X12946259Y-16782960D01*
X12946259Y-16782960D02*
X12936735Y-16773436D01*
X12936735Y-16773436D02*
X12927211Y-16754388D01*
X12927211Y-16754388D02*
X12917687Y-16716293D01*
X12917687Y-16716293D02*
X12917687Y-16668674D01*
X12917687Y-16668674D02*
X12927211Y-16630579D01*
X12927211Y-16630579D02*
X12936735Y-16611531D01*
X12936735Y-16611531D02*
X12946259Y-16602008D01*
X12946259Y-16602008D02*
X12965306Y-16592484D01*
X13155782Y-16592484D02*
X13174830Y-16592484D01*
X13174830Y-16592484D02*
X13193878Y-16602008D01*
X13193878Y-16602008D02*
X13203402Y-16611531D01*
X13203402Y-16611531D02*
X13212925Y-16630579D01*
X13212925Y-16630579D02*
X13222449Y-16668674D01*
X13222449Y-16668674D02*
X13222449Y-16716293D01*
X13222449Y-16716293D02*
X13212925Y-16754388D01*
X13212925Y-16754388D02*
X13203402Y-16773436D01*
X13203402Y-16773436D02*
X13193878Y-16782960D01*
X13193878Y-16782960D02*
X13174830Y-16792484D01*
X13174830Y-16792484D02*
X13155782Y-16792484D01*
X13155782Y-16792484D02*
X13136735Y-16782960D01*
X13136735Y-16782960D02*
X13127211Y-16773436D01*
X13127211Y-16773436D02*
X13117687Y-16754388D01*
X13117687Y-16754388D02*
X13108163Y-16716293D01*
X13108163Y-16716293D02*
X13108163Y-16668674D01*
X13108163Y-16668674D02*
X13117687Y-16630579D01*
X13117687Y-16630579D02*
X13127211Y-16611531D01*
X13127211Y-16611531D02*
X13136735Y-16602008D01*
X13136735Y-16602008D02*
X13155782Y-16592484D01*
X13298640Y-16592484D02*
X13298640Y-16630579D01*
X13374830Y-16592484D02*
X13374830Y-16630579D01*
X13670068Y-16868674D02*
X13660544Y-16859150D01*
X13660544Y-16859150D02*
X13641497Y-16830579D01*
X13641497Y-16830579D02*
X13631973Y-16811531D01*
X13631973Y-16811531D02*
X13622449Y-16782960D01*
X13622449Y-16782960D02*
X13612925Y-16735341D01*
X13612925Y-16735341D02*
X13612925Y-16697246D01*
X13612925Y-16697246D02*
X13622449Y-16649627D01*
X13622449Y-16649627D02*
X13631973Y-16621055D01*
X13631973Y-16621055D02*
X13641497Y-16602008D01*
X13641497Y-16602008D02*
X13660544Y-16573436D01*
X13660544Y-16573436D02*
X13670068Y-16563912D01*
X13727211Y-16592484D02*
X13860544Y-16592484D01*
X13860544Y-16592484D02*
X13774830Y-16792484D01*
X14089116Y-16792484D02*
X14089116Y-16592484D01*
X14174830Y-16792484D02*
X14174830Y-16687722D01*
X14174830Y-16687722D02*
X14165306Y-16668674D01*
X14165306Y-16668674D02*
X14146259Y-16659150D01*
X14146259Y-16659150D02*
X14117687Y-16659150D01*
X14117687Y-16659150D02*
X14098640Y-16668674D01*
X14098640Y-16668674D02*
X14089116Y-16678198D01*
X14298640Y-16792484D02*
X14279592Y-16782960D01*
X14279592Y-16782960D02*
X14270068Y-16773436D01*
X14270068Y-16773436D02*
X14260545Y-16754388D01*
X14260545Y-16754388D02*
X14260545Y-16697246D01*
X14260545Y-16697246D02*
X14270068Y-16678198D01*
X14270068Y-16678198D02*
X14279592Y-16668674D01*
X14279592Y-16668674D02*
X14298640Y-16659150D01*
X14298640Y-16659150D02*
X14327211Y-16659150D01*
X14327211Y-16659150D02*
X14346259Y-16668674D01*
X14346259Y-16668674D02*
X14355783Y-16678198D01*
X14355783Y-16678198D02*
X14365306Y-16697246D01*
X14365306Y-16697246D02*
X14365306Y-16754388D01*
X14365306Y-16754388D02*
X14355783Y-16773436D01*
X14355783Y-16773436D02*
X14346259Y-16782960D01*
X14346259Y-16782960D02*
X14327211Y-16792484D01*
X14327211Y-16792484D02*
X14298640Y-16792484D01*
X14479592Y-16792484D02*
X14460545Y-16782960D01*
X14460545Y-16782960D02*
X14451021Y-16763912D01*
X14451021Y-16763912D02*
X14451021Y-16592484D01*
X14631973Y-16782960D02*
X14612926Y-16792484D01*
X14612926Y-16792484D02*
X14574830Y-16792484D01*
X14574830Y-16792484D02*
X14555783Y-16782960D01*
X14555783Y-16782960D02*
X14546259Y-16763912D01*
X14546259Y-16763912D02*
X14546259Y-16687722D01*
X14546259Y-16687722D02*
X14555783Y-16668674D01*
X14555783Y-16668674D02*
X14574830Y-16659150D01*
X14574830Y-16659150D02*
X14612926Y-16659150D01*
X14612926Y-16659150D02*
X14631973Y-16668674D01*
X14631973Y-16668674D02*
X14641497Y-16687722D01*
X14641497Y-16687722D02*
X14641497Y-16706769D01*
X14641497Y-16706769D02*
X14546259Y-16725817D01*
X14717687Y-16782960D02*
X14736735Y-16792484D01*
X14736735Y-16792484D02*
X14774830Y-16792484D01*
X14774830Y-16792484D02*
X14793878Y-16782960D01*
X14793878Y-16782960D02*
X14803402Y-16763912D01*
X14803402Y-16763912D02*
X14803402Y-16754388D01*
X14803402Y-16754388D02*
X14793878Y-16735341D01*
X14793878Y-16735341D02*
X14774830Y-16725817D01*
X14774830Y-16725817D02*
X14746259Y-16725817D01*
X14746259Y-16725817D02*
X14727211Y-16716293D01*
X14727211Y-16716293D02*
X14717687Y-16697246D01*
X14717687Y-16697246D02*
X14717687Y-16687722D01*
X14717687Y-16687722D02*
X14727211Y-16668674D01*
X14727211Y-16668674D02*
X14746259Y-16659150D01*
X14746259Y-16659150D02*
X14774830Y-16659150D01*
X14774830Y-16659150D02*
X14793878Y-16668674D01*
X14870068Y-16868674D02*
X14879592Y-16859150D01*
X14879592Y-16859150D02*
X14898640Y-16830579D01*
X14898640Y-16830579D02*
X14908164Y-16811531D01*
X14908164Y-16811531D02*
X14917687Y-16782960D01*
X14917687Y-16782960D02*
X14927211Y-16735341D01*
X14927211Y-16735341D02*
X14927211Y-16697246D01*
X14927211Y-16697246D02*
X14917687Y-16649627D01*
X14917687Y-16649627D02*
X14908164Y-16621055D01*
X14908164Y-16621055D02*
X14898640Y-16602008D01*
X14898640Y-16602008D02*
X14879592Y-16573436D01*
X14879592Y-16573436D02*
X14870068Y-16563912D01*
D13*
X9980706Y-16907850D02*
X10095006Y-17022150D01*
X10095006Y-16907850D02*
X9980706Y-17022150D01*
X10095006Y-16965000D02*
G75*
G02*
X9980706Y-16965000I-57150J0D01*
G01*
X9980706Y-16965000D02*
G75*
G02*
X10095006Y-16965000I57150J0D01*
G01*
D11*
X10460544Y-17056484D02*
X10346259Y-17056484D01*
X10403401Y-17056484D02*
X10403401Y-16856484D01*
X10403401Y-16856484D02*
X10384354Y-16885055D01*
X10384354Y-16885055D02*
X10365306Y-16904103D01*
X10365306Y-16904103D02*
X10346259Y-16913627D01*
X10546259Y-17037436D02*
X10555782Y-17046960D01*
X10555782Y-17046960D02*
X10546259Y-17056484D01*
X10546259Y-17056484D02*
X10536735Y-17046960D01*
X10536735Y-17046960D02*
X10546259Y-17037436D01*
X10546259Y-17037436D02*
X10546259Y-17056484D01*
X10746259Y-17056484D02*
X10631973Y-17056484D01*
X10689116Y-17056484D02*
X10689116Y-16856484D01*
X10689116Y-16856484D02*
X10670068Y-16885055D01*
X10670068Y-16885055D02*
X10651020Y-16904103D01*
X10651020Y-16904103D02*
X10631973Y-16913627D01*
X10917687Y-16923150D02*
X10917687Y-17056484D01*
X10870068Y-16846960D02*
X10822449Y-16989817D01*
X10822449Y-16989817D02*
X10946259Y-16989817D01*
X11003401Y-16856484D02*
X11127211Y-16856484D01*
X11127211Y-16856484D02*
X11060544Y-16932674D01*
X11060544Y-16932674D02*
X11089116Y-16932674D01*
X11089116Y-16932674D02*
X11108163Y-16942198D01*
X11108163Y-16942198D02*
X11117687Y-16951722D01*
X11117687Y-16951722D02*
X11127211Y-16970770D01*
X11127211Y-16970770D02*
X11127211Y-17018389D01*
X11127211Y-17018389D02*
X11117687Y-17037436D01*
X11117687Y-17037436D02*
X11108163Y-17046960D01*
X11108163Y-17046960D02*
X11089116Y-17056484D01*
X11089116Y-17056484D02*
X11031973Y-17056484D01*
X11031973Y-17056484D02*
X11012925Y-17046960D01*
X11012925Y-17046960D02*
X11003401Y-17037436D01*
X11212925Y-17056484D02*
X11212925Y-16923150D01*
X11212925Y-16942198D02*
X11222449Y-16932674D01*
X11222449Y-16932674D02*
X11241497Y-16923150D01*
X11241497Y-16923150D02*
X11270068Y-16923150D01*
X11270068Y-16923150D02*
X11289116Y-16932674D01*
X11289116Y-16932674D02*
X11298639Y-16951722D01*
X11298639Y-16951722D02*
X11298639Y-17056484D01*
X11298639Y-16951722D02*
X11308163Y-16932674D01*
X11308163Y-16932674D02*
X11327211Y-16923150D01*
X11327211Y-16923150D02*
X11355782Y-16923150D01*
X11355782Y-16923150D02*
X11374830Y-16932674D01*
X11374830Y-16932674D02*
X11384354Y-16951722D01*
X11384354Y-16951722D02*
X11384354Y-17056484D01*
X11479592Y-17056484D02*
X11479592Y-16923150D01*
X11479592Y-16942198D02*
X11489116Y-16932674D01*
X11489116Y-16932674D02*
X11508163Y-16923150D01*
X11508163Y-16923150D02*
X11536735Y-16923150D01*
X11536735Y-16923150D02*
X11555782Y-16932674D01*
X11555782Y-16932674D02*
X11565306Y-16951722D01*
X11565306Y-16951722D02*
X11565306Y-17056484D01*
X11565306Y-16951722D02*
X11574830Y-16932674D01*
X11574830Y-16932674D02*
X11593878Y-16923150D01*
X11593878Y-16923150D02*
X11622449Y-16923150D01*
X11622449Y-16923150D02*
X11641497Y-16932674D01*
X11641497Y-16932674D02*
X11651020Y-16951722D01*
X11651020Y-16951722D02*
X11651020Y-17056484D01*
X12041497Y-16846960D02*
X11870068Y-17104103D01*
X12298640Y-16856484D02*
X12317687Y-16856484D01*
X12317687Y-16856484D02*
X12336735Y-16866008D01*
X12336735Y-16866008D02*
X12346259Y-16875531D01*
X12346259Y-16875531D02*
X12355782Y-16894579D01*
X12355782Y-16894579D02*
X12365306Y-16932674D01*
X12365306Y-16932674D02*
X12365306Y-16980293D01*
X12365306Y-16980293D02*
X12355782Y-17018389D01*
X12355782Y-17018389D02*
X12346259Y-17037436D01*
X12346259Y-17037436D02*
X12336735Y-17046960D01*
X12336735Y-17046960D02*
X12317687Y-17056484D01*
X12317687Y-17056484D02*
X12298640Y-17056484D01*
X12298640Y-17056484D02*
X12279592Y-17046960D01*
X12279592Y-17046960D02*
X12270068Y-17037436D01*
X12270068Y-17037436D02*
X12260544Y-17018389D01*
X12260544Y-17018389D02*
X12251021Y-16980293D01*
X12251021Y-16980293D02*
X12251021Y-16932674D01*
X12251021Y-16932674D02*
X12260544Y-16894579D01*
X12260544Y-16894579D02*
X12270068Y-16875531D01*
X12270068Y-16875531D02*
X12279592Y-16866008D01*
X12279592Y-16866008D02*
X12298640Y-16856484D01*
X12451021Y-17037436D02*
X12460544Y-17046960D01*
X12460544Y-17046960D02*
X12451021Y-17056484D01*
X12451021Y-17056484D02*
X12441497Y-17046960D01*
X12441497Y-17046960D02*
X12451021Y-17037436D01*
X12451021Y-17037436D02*
X12451021Y-17056484D01*
X12584354Y-16856484D02*
X12603402Y-16856484D01*
X12603402Y-16856484D02*
X12622449Y-16866008D01*
X12622449Y-16866008D02*
X12631973Y-16875531D01*
X12631973Y-16875531D02*
X12641497Y-16894579D01*
X12641497Y-16894579D02*
X12651021Y-16932674D01*
X12651021Y-16932674D02*
X12651021Y-16980293D01*
X12651021Y-16980293D02*
X12641497Y-17018389D01*
X12641497Y-17018389D02*
X12631973Y-17037436D01*
X12631973Y-17037436D02*
X12622449Y-17046960D01*
X12622449Y-17046960D02*
X12603402Y-17056484D01*
X12603402Y-17056484D02*
X12584354Y-17056484D01*
X12584354Y-17056484D02*
X12565306Y-17046960D01*
X12565306Y-17046960D02*
X12555782Y-17037436D01*
X12555782Y-17037436D02*
X12546259Y-17018389D01*
X12546259Y-17018389D02*
X12536735Y-16980293D01*
X12536735Y-16980293D02*
X12536735Y-16932674D01*
X12536735Y-16932674D02*
X12546259Y-16894579D01*
X12546259Y-16894579D02*
X12555782Y-16875531D01*
X12555782Y-16875531D02*
X12565306Y-16866008D01*
X12565306Y-16866008D02*
X12584354Y-16856484D01*
X12822449Y-16923150D02*
X12822449Y-17056484D01*
X12774830Y-16846960D02*
X12727211Y-16989817D01*
X12727211Y-16989817D02*
X12851021Y-16989817D01*
X13022449Y-16856484D02*
X12927211Y-16856484D01*
X12927211Y-16856484D02*
X12917687Y-16951722D01*
X12917687Y-16951722D02*
X12927211Y-16942198D01*
X12927211Y-16942198D02*
X12946259Y-16932674D01*
X12946259Y-16932674D02*
X12993878Y-16932674D01*
X12993878Y-16932674D02*
X13012925Y-16942198D01*
X13012925Y-16942198D02*
X13022449Y-16951722D01*
X13022449Y-16951722D02*
X13031973Y-16970770D01*
X13031973Y-16970770D02*
X13031973Y-17018389D01*
X13031973Y-17018389D02*
X13022449Y-17037436D01*
X13022449Y-17037436D02*
X13012925Y-17046960D01*
X13012925Y-17046960D02*
X12993878Y-17056484D01*
X12993878Y-17056484D02*
X12946259Y-17056484D01*
X12946259Y-17056484D02*
X12927211Y-17046960D01*
X12927211Y-17046960D02*
X12917687Y-17037436D01*
X13155782Y-16856484D02*
X13174830Y-16856484D01*
X13174830Y-16856484D02*
X13193878Y-16866008D01*
X13193878Y-16866008D02*
X13203402Y-16875531D01*
X13203402Y-16875531D02*
X13212925Y-16894579D01*
X13212925Y-16894579D02*
X13222449Y-16932674D01*
X13222449Y-16932674D02*
X13222449Y-16980293D01*
X13222449Y-16980293D02*
X13212925Y-17018389D01*
X13212925Y-17018389D02*
X13203402Y-17037436D01*
X13203402Y-17037436D02*
X13193878Y-17046960D01*
X13193878Y-17046960D02*
X13174830Y-17056484D01*
X13174830Y-17056484D02*
X13155782Y-17056484D01*
X13155782Y-17056484D02*
X13136735Y-17046960D01*
X13136735Y-17046960D02*
X13127211Y-17037436D01*
X13127211Y-17037436D02*
X13117687Y-17018389D01*
X13117687Y-17018389D02*
X13108163Y-16980293D01*
X13108163Y-16980293D02*
X13108163Y-16932674D01*
X13108163Y-16932674D02*
X13117687Y-16894579D01*
X13117687Y-16894579D02*
X13127211Y-16875531D01*
X13127211Y-16875531D02*
X13136735Y-16866008D01*
X13136735Y-16866008D02*
X13155782Y-16856484D01*
X13298640Y-16856484D02*
X13298640Y-16894579D01*
X13374830Y-16856484D02*
X13374830Y-16894579D01*
X13670068Y-17132674D02*
X13660544Y-17123150D01*
X13660544Y-17123150D02*
X13641497Y-17094579D01*
X13641497Y-17094579D02*
X13631973Y-17075531D01*
X13631973Y-17075531D02*
X13622449Y-17046960D01*
X13622449Y-17046960D02*
X13612925Y-16999341D01*
X13612925Y-16999341D02*
X13612925Y-16961246D01*
X13612925Y-16961246D02*
X13622449Y-16913627D01*
X13622449Y-16913627D02*
X13631973Y-16885055D01*
X13631973Y-16885055D02*
X13641497Y-16866008D01*
X13641497Y-16866008D02*
X13660544Y-16837436D01*
X13660544Y-16837436D02*
X13670068Y-16827912D01*
X13851021Y-17056484D02*
X13736735Y-17056484D01*
X13793878Y-17056484D02*
X13793878Y-16856484D01*
X13793878Y-16856484D02*
X13774830Y-16885055D01*
X13774830Y-16885055D02*
X13755783Y-16904103D01*
X13755783Y-16904103D02*
X13736735Y-16913627D01*
X13965306Y-16942198D02*
X13946259Y-16932674D01*
X13946259Y-16932674D02*
X13936735Y-16923150D01*
X13936735Y-16923150D02*
X13927211Y-16904103D01*
X13927211Y-16904103D02*
X13927211Y-16894579D01*
X13927211Y-16894579D02*
X13936735Y-16875531D01*
X13936735Y-16875531D02*
X13946259Y-16866008D01*
X13946259Y-16866008D02*
X13965306Y-16856484D01*
X13965306Y-16856484D02*
X14003402Y-16856484D01*
X14003402Y-16856484D02*
X14022449Y-16866008D01*
X14022449Y-16866008D02*
X14031973Y-16875531D01*
X14031973Y-16875531D02*
X14041497Y-16894579D01*
X14041497Y-16894579D02*
X14041497Y-16904103D01*
X14041497Y-16904103D02*
X14031973Y-16923150D01*
X14031973Y-16923150D02*
X14022449Y-16932674D01*
X14022449Y-16932674D02*
X14003402Y-16942198D01*
X14003402Y-16942198D02*
X13965306Y-16942198D01*
X13965306Y-16942198D02*
X13946259Y-16951722D01*
X13946259Y-16951722D02*
X13936735Y-16961246D01*
X13936735Y-16961246D02*
X13927211Y-16980293D01*
X13927211Y-16980293D02*
X13927211Y-17018389D01*
X13927211Y-17018389D02*
X13936735Y-17037436D01*
X13936735Y-17037436D02*
X13946259Y-17046960D01*
X13946259Y-17046960D02*
X13965306Y-17056484D01*
X13965306Y-17056484D02*
X14003402Y-17056484D01*
X14003402Y-17056484D02*
X14022449Y-17046960D01*
X14022449Y-17046960D02*
X14031973Y-17037436D01*
X14031973Y-17037436D02*
X14041497Y-17018389D01*
X14041497Y-17018389D02*
X14041497Y-16980293D01*
X14041497Y-16980293D02*
X14031973Y-16961246D01*
X14031973Y-16961246D02*
X14022449Y-16951722D01*
X14022449Y-16951722D02*
X14003402Y-16942198D01*
X14279592Y-17056484D02*
X14279592Y-16856484D01*
X14365306Y-17056484D02*
X14365306Y-16951722D01*
X14365306Y-16951722D02*
X14355783Y-16932674D01*
X14355783Y-16932674D02*
X14336735Y-16923150D01*
X14336735Y-16923150D02*
X14308164Y-16923150D01*
X14308164Y-16923150D02*
X14289116Y-16932674D01*
X14289116Y-16932674D02*
X14279592Y-16942198D01*
X14489116Y-17056484D02*
X14470068Y-17046960D01*
X14470068Y-17046960D02*
X14460545Y-17037436D01*
X14460545Y-17037436D02*
X14451021Y-17018389D01*
X14451021Y-17018389D02*
X14451021Y-16961246D01*
X14451021Y-16961246D02*
X14460545Y-16942198D01*
X14460545Y-16942198D02*
X14470068Y-16932674D01*
X14470068Y-16932674D02*
X14489116Y-16923150D01*
X14489116Y-16923150D02*
X14517687Y-16923150D01*
X14517687Y-16923150D02*
X14536735Y-16932674D01*
X14536735Y-16932674D02*
X14546259Y-16942198D01*
X14546259Y-16942198D02*
X14555783Y-16961246D01*
X14555783Y-16961246D02*
X14555783Y-17018389D01*
X14555783Y-17018389D02*
X14546259Y-17037436D01*
X14546259Y-17037436D02*
X14536735Y-17046960D01*
X14536735Y-17046960D02*
X14517687Y-17056484D01*
X14517687Y-17056484D02*
X14489116Y-17056484D01*
X14670068Y-17056484D02*
X14651021Y-17046960D01*
X14651021Y-17046960D02*
X14641497Y-17027912D01*
X14641497Y-17027912D02*
X14641497Y-16856484D01*
X14822449Y-17046960D02*
X14803402Y-17056484D01*
X14803402Y-17056484D02*
X14765306Y-17056484D01*
X14765306Y-17056484D02*
X14746259Y-17046960D01*
X14746259Y-17046960D02*
X14736735Y-17027912D01*
X14736735Y-17027912D02*
X14736735Y-16951722D01*
X14736735Y-16951722D02*
X14746259Y-16932674D01*
X14746259Y-16932674D02*
X14765306Y-16923150D01*
X14765306Y-16923150D02*
X14803402Y-16923150D01*
X14803402Y-16923150D02*
X14822449Y-16932674D01*
X14822449Y-16932674D02*
X14831973Y-16951722D01*
X14831973Y-16951722D02*
X14831973Y-16970770D01*
X14831973Y-16970770D02*
X14736735Y-16989817D01*
X14908164Y-17046960D02*
X14927211Y-17056484D01*
X14927211Y-17056484D02*
X14965306Y-17056484D01*
X14965306Y-17056484D02*
X14984354Y-17046960D01*
X14984354Y-17046960D02*
X14993878Y-17027912D01*
X14993878Y-17027912D02*
X14993878Y-17018389D01*
X14993878Y-17018389D02*
X14984354Y-16999341D01*
X14984354Y-16999341D02*
X14965306Y-16989817D01*
X14965306Y-16989817D02*
X14936735Y-16989817D01*
X14936735Y-16989817D02*
X14917687Y-16980293D01*
X14917687Y-16980293D02*
X14908164Y-16961246D01*
X14908164Y-16961246D02*
X14908164Y-16951722D01*
X14908164Y-16951722D02*
X14917687Y-16932674D01*
X14917687Y-16932674D02*
X14936735Y-16923150D01*
X14936735Y-16923150D02*
X14965306Y-16923150D01*
X14965306Y-16923150D02*
X14984354Y-16932674D01*
X15060545Y-17132674D02*
X15070068Y-17123150D01*
X15070068Y-17123150D02*
X15089116Y-17094579D01*
X15089116Y-17094579D02*
X15098640Y-17075531D01*
X15098640Y-17075531D02*
X15108164Y-17046960D01*
X15108164Y-17046960D02*
X15117687Y-16999341D01*
X15117687Y-16999341D02*
X15117687Y-16961246D01*
X15117687Y-16961246D02*
X15108164Y-16913627D01*
X15108164Y-16913627D02*
X15098640Y-16885055D01*
X15098640Y-16885055D02*
X15089116Y-16866008D01*
X15089116Y-16866008D02*
X15070068Y-16837436D01*
X15070068Y-16837436D02*
X15060545Y-16827912D01*
D14*
X9968006Y-17165500D02*
X10095006Y-17292500D01*
X10095006Y-17165500D02*
X9968006Y-17292500D01*
X10031506Y-17165500D02*
X10031506Y-17292500D01*
X9968006Y-17229000D02*
X10095006Y-17229000D01*
D11*
X10460544Y-17320484D02*
X10346259Y-17320484D01*
X10403401Y-17320484D02*
X10403401Y-17120484D01*
X10403401Y-17120484D02*
X10384354Y-17149055D01*
X10384354Y-17149055D02*
X10365306Y-17168103D01*
X10365306Y-17168103D02*
X10346259Y-17177627D01*
X10546259Y-17301436D02*
X10555782Y-17310960D01*
X10555782Y-17310960D02*
X10546259Y-17320484D01*
X10546259Y-17320484D02*
X10536735Y-17310960D01*
X10536735Y-17310960D02*
X10546259Y-17301436D01*
X10546259Y-17301436D02*
X10546259Y-17320484D01*
X10631973Y-17139531D02*
X10641497Y-17130008D01*
X10641497Y-17130008D02*
X10660544Y-17120484D01*
X10660544Y-17120484D02*
X10708163Y-17120484D01*
X10708163Y-17120484D02*
X10727211Y-17130008D01*
X10727211Y-17130008D02*
X10736735Y-17139531D01*
X10736735Y-17139531D02*
X10746259Y-17158579D01*
X10746259Y-17158579D02*
X10746259Y-17177627D01*
X10746259Y-17177627D02*
X10736735Y-17206198D01*
X10736735Y-17206198D02*
X10622449Y-17320484D01*
X10622449Y-17320484D02*
X10746259Y-17320484D01*
X10812925Y-17120484D02*
X10946259Y-17120484D01*
X10946259Y-17120484D02*
X10860544Y-17320484D01*
X11060544Y-17120484D02*
X11079592Y-17120484D01*
X11079592Y-17120484D02*
X11098640Y-17130008D01*
X11098640Y-17130008D02*
X11108163Y-17139531D01*
X11108163Y-17139531D02*
X11117687Y-17158579D01*
X11117687Y-17158579D02*
X11127211Y-17196674D01*
X11127211Y-17196674D02*
X11127211Y-17244293D01*
X11127211Y-17244293D02*
X11117687Y-17282389D01*
X11117687Y-17282389D02*
X11108163Y-17301436D01*
X11108163Y-17301436D02*
X11098640Y-17310960D01*
X11098640Y-17310960D02*
X11079592Y-17320484D01*
X11079592Y-17320484D02*
X11060544Y-17320484D01*
X11060544Y-17320484D02*
X11041497Y-17310960D01*
X11041497Y-17310960D02*
X11031973Y-17301436D01*
X11031973Y-17301436D02*
X11022449Y-17282389D01*
X11022449Y-17282389D02*
X11012925Y-17244293D01*
X11012925Y-17244293D02*
X11012925Y-17196674D01*
X11012925Y-17196674D02*
X11022449Y-17158579D01*
X11022449Y-17158579D02*
X11031973Y-17139531D01*
X11031973Y-17139531D02*
X11041497Y-17130008D01*
X11041497Y-17130008D02*
X11060544Y-17120484D01*
X11212925Y-17320484D02*
X11212925Y-17187150D01*
X11212925Y-17206198D02*
X11222449Y-17196674D01*
X11222449Y-17196674D02*
X11241497Y-17187150D01*
X11241497Y-17187150D02*
X11270068Y-17187150D01*
X11270068Y-17187150D02*
X11289116Y-17196674D01*
X11289116Y-17196674D02*
X11298639Y-17215722D01*
X11298639Y-17215722D02*
X11298639Y-17320484D01*
X11298639Y-17215722D02*
X11308163Y-17196674D01*
X11308163Y-17196674D02*
X11327211Y-17187150D01*
X11327211Y-17187150D02*
X11355782Y-17187150D01*
X11355782Y-17187150D02*
X11374830Y-17196674D01*
X11374830Y-17196674D02*
X11384354Y-17215722D01*
X11384354Y-17215722D02*
X11384354Y-17320484D01*
X11479592Y-17320484D02*
X11479592Y-17187150D01*
X11479592Y-17206198D02*
X11489116Y-17196674D01*
X11489116Y-17196674D02*
X11508163Y-17187150D01*
X11508163Y-17187150D02*
X11536735Y-17187150D01*
X11536735Y-17187150D02*
X11555782Y-17196674D01*
X11555782Y-17196674D02*
X11565306Y-17215722D01*
X11565306Y-17215722D02*
X11565306Y-17320484D01*
X11565306Y-17215722D02*
X11574830Y-17196674D01*
X11574830Y-17196674D02*
X11593878Y-17187150D01*
X11593878Y-17187150D02*
X11622449Y-17187150D01*
X11622449Y-17187150D02*
X11641497Y-17196674D01*
X11641497Y-17196674D02*
X11651020Y-17215722D01*
X11651020Y-17215722D02*
X11651020Y-17320484D01*
X12041497Y-17110960D02*
X11870068Y-17368103D01*
X12298640Y-17120484D02*
X12317687Y-17120484D01*
X12317687Y-17120484D02*
X12336735Y-17130008D01*
X12336735Y-17130008D02*
X12346259Y-17139531D01*
X12346259Y-17139531D02*
X12355782Y-17158579D01*
X12355782Y-17158579D02*
X12365306Y-17196674D01*
X12365306Y-17196674D02*
X12365306Y-17244293D01*
X12365306Y-17244293D02*
X12355782Y-17282389D01*
X12355782Y-17282389D02*
X12346259Y-17301436D01*
X12346259Y-17301436D02*
X12336735Y-17310960D01*
X12336735Y-17310960D02*
X12317687Y-17320484D01*
X12317687Y-17320484D02*
X12298640Y-17320484D01*
X12298640Y-17320484D02*
X12279592Y-17310960D01*
X12279592Y-17310960D02*
X12270068Y-17301436D01*
X12270068Y-17301436D02*
X12260544Y-17282389D01*
X12260544Y-17282389D02*
X12251021Y-17244293D01*
X12251021Y-17244293D02*
X12251021Y-17196674D01*
X12251021Y-17196674D02*
X12260544Y-17158579D01*
X12260544Y-17158579D02*
X12270068Y-17139531D01*
X12270068Y-17139531D02*
X12279592Y-17130008D01*
X12279592Y-17130008D02*
X12298640Y-17120484D01*
X12451021Y-17301436D02*
X12460544Y-17310960D01*
X12460544Y-17310960D02*
X12451021Y-17320484D01*
X12451021Y-17320484D02*
X12441497Y-17310960D01*
X12441497Y-17310960D02*
X12451021Y-17301436D01*
X12451021Y-17301436D02*
X12451021Y-17320484D01*
X12584354Y-17120484D02*
X12603402Y-17120484D01*
X12603402Y-17120484D02*
X12622449Y-17130008D01*
X12622449Y-17130008D02*
X12631973Y-17139531D01*
X12631973Y-17139531D02*
X12641497Y-17158579D01*
X12641497Y-17158579D02*
X12651021Y-17196674D01*
X12651021Y-17196674D02*
X12651021Y-17244293D01*
X12651021Y-17244293D02*
X12641497Y-17282389D01*
X12641497Y-17282389D02*
X12631973Y-17301436D01*
X12631973Y-17301436D02*
X12622449Y-17310960D01*
X12622449Y-17310960D02*
X12603402Y-17320484D01*
X12603402Y-17320484D02*
X12584354Y-17320484D01*
X12584354Y-17320484D02*
X12565306Y-17310960D01*
X12565306Y-17310960D02*
X12555782Y-17301436D01*
X12555782Y-17301436D02*
X12546259Y-17282389D01*
X12546259Y-17282389D02*
X12536735Y-17244293D01*
X12536735Y-17244293D02*
X12536735Y-17196674D01*
X12536735Y-17196674D02*
X12546259Y-17158579D01*
X12546259Y-17158579D02*
X12555782Y-17139531D01*
X12555782Y-17139531D02*
X12565306Y-17130008D01*
X12565306Y-17130008D02*
X12584354Y-17120484D01*
X12831973Y-17120484D02*
X12736735Y-17120484D01*
X12736735Y-17120484D02*
X12727211Y-17215722D01*
X12727211Y-17215722D02*
X12736735Y-17206198D01*
X12736735Y-17206198D02*
X12755782Y-17196674D01*
X12755782Y-17196674D02*
X12803402Y-17196674D01*
X12803402Y-17196674D02*
X12822449Y-17206198D01*
X12822449Y-17206198D02*
X12831973Y-17215722D01*
X12831973Y-17215722D02*
X12841497Y-17234770D01*
X12841497Y-17234770D02*
X12841497Y-17282389D01*
X12841497Y-17282389D02*
X12831973Y-17301436D01*
X12831973Y-17301436D02*
X12822449Y-17310960D01*
X12822449Y-17310960D02*
X12803402Y-17320484D01*
X12803402Y-17320484D02*
X12755782Y-17320484D01*
X12755782Y-17320484D02*
X12736735Y-17310960D01*
X12736735Y-17310960D02*
X12727211Y-17301436D01*
X12965306Y-17120484D02*
X12984354Y-17120484D01*
X12984354Y-17120484D02*
X13003402Y-17130008D01*
X13003402Y-17130008D02*
X13012925Y-17139531D01*
X13012925Y-17139531D02*
X13022449Y-17158579D01*
X13022449Y-17158579D02*
X13031973Y-17196674D01*
X13031973Y-17196674D02*
X13031973Y-17244293D01*
X13031973Y-17244293D02*
X13022449Y-17282389D01*
X13022449Y-17282389D02*
X13012925Y-17301436D01*
X13012925Y-17301436D02*
X13003402Y-17310960D01*
X13003402Y-17310960D02*
X12984354Y-17320484D01*
X12984354Y-17320484D02*
X12965306Y-17320484D01*
X12965306Y-17320484D02*
X12946259Y-17310960D01*
X12946259Y-17310960D02*
X12936735Y-17301436D01*
X12936735Y-17301436D02*
X12927211Y-17282389D01*
X12927211Y-17282389D02*
X12917687Y-17244293D01*
X12917687Y-17244293D02*
X12917687Y-17196674D01*
X12917687Y-17196674D02*
X12927211Y-17158579D01*
X12927211Y-17158579D02*
X12936735Y-17139531D01*
X12936735Y-17139531D02*
X12946259Y-17130008D01*
X12946259Y-17130008D02*
X12965306Y-17120484D01*
X13155782Y-17120484D02*
X13174830Y-17120484D01*
X13174830Y-17120484D02*
X13193878Y-17130008D01*
X13193878Y-17130008D02*
X13203402Y-17139531D01*
X13203402Y-17139531D02*
X13212925Y-17158579D01*
X13212925Y-17158579D02*
X13222449Y-17196674D01*
X13222449Y-17196674D02*
X13222449Y-17244293D01*
X13222449Y-17244293D02*
X13212925Y-17282389D01*
X13212925Y-17282389D02*
X13203402Y-17301436D01*
X13203402Y-17301436D02*
X13193878Y-17310960D01*
X13193878Y-17310960D02*
X13174830Y-17320484D01*
X13174830Y-17320484D02*
X13155782Y-17320484D01*
X13155782Y-17320484D02*
X13136735Y-17310960D01*
X13136735Y-17310960D02*
X13127211Y-17301436D01*
X13127211Y-17301436D02*
X13117687Y-17282389D01*
X13117687Y-17282389D02*
X13108163Y-17244293D01*
X13108163Y-17244293D02*
X13108163Y-17196674D01*
X13108163Y-17196674D02*
X13117687Y-17158579D01*
X13117687Y-17158579D02*
X13127211Y-17139531D01*
X13127211Y-17139531D02*
X13136735Y-17130008D01*
X13136735Y-17130008D02*
X13155782Y-17120484D01*
X13298640Y-17120484D02*
X13298640Y-17158579D01*
X13374830Y-17120484D02*
X13374830Y-17158579D01*
X13670068Y-17396674D02*
X13660544Y-17387150D01*
X13660544Y-17387150D02*
X13641497Y-17358579D01*
X13641497Y-17358579D02*
X13631973Y-17339531D01*
X13631973Y-17339531D02*
X13622449Y-17310960D01*
X13622449Y-17310960D02*
X13612925Y-17263341D01*
X13612925Y-17263341D02*
X13612925Y-17225246D01*
X13612925Y-17225246D02*
X13622449Y-17177627D01*
X13622449Y-17177627D02*
X13631973Y-17149055D01*
X13631973Y-17149055D02*
X13641497Y-17130008D01*
X13641497Y-17130008D02*
X13660544Y-17101436D01*
X13660544Y-17101436D02*
X13670068Y-17091912D01*
X13784354Y-17120484D02*
X13803402Y-17120484D01*
X13803402Y-17120484D02*
X13822449Y-17130008D01*
X13822449Y-17130008D02*
X13831973Y-17139531D01*
X13831973Y-17139531D02*
X13841497Y-17158579D01*
X13841497Y-17158579D02*
X13851021Y-17196674D01*
X13851021Y-17196674D02*
X13851021Y-17244293D01*
X13851021Y-17244293D02*
X13841497Y-17282389D01*
X13841497Y-17282389D02*
X13831973Y-17301436D01*
X13831973Y-17301436D02*
X13822449Y-17310960D01*
X13822449Y-17310960D02*
X13803402Y-17320484D01*
X13803402Y-17320484D02*
X13784354Y-17320484D01*
X13784354Y-17320484D02*
X13765306Y-17310960D01*
X13765306Y-17310960D02*
X13755783Y-17301436D01*
X13755783Y-17301436D02*
X13746259Y-17282389D01*
X13746259Y-17282389D02*
X13736735Y-17244293D01*
X13736735Y-17244293D02*
X13736735Y-17196674D01*
X13736735Y-17196674D02*
X13746259Y-17158579D01*
X13746259Y-17158579D02*
X13755783Y-17139531D01*
X13755783Y-17139531D02*
X13765306Y-17130008D01*
X13765306Y-17130008D02*
X13784354Y-17120484D01*
X14089116Y-17320484D02*
X14089116Y-17120484D01*
X14174830Y-17320484D02*
X14174830Y-17215722D01*
X14174830Y-17215722D02*
X14165306Y-17196674D01*
X14165306Y-17196674D02*
X14146259Y-17187150D01*
X14146259Y-17187150D02*
X14117687Y-17187150D01*
X14117687Y-17187150D02*
X14098640Y-17196674D01*
X14098640Y-17196674D02*
X14089116Y-17206198D01*
X14298640Y-17320484D02*
X14279592Y-17310960D01*
X14279592Y-17310960D02*
X14270068Y-17301436D01*
X14270068Y-17301436D02*
X14260545Y-17282389D01*
X14260545Y-17282389D02*
X14260545Y-17225246D01*
X14260545Y-17225246D02*
X14270068Y-17206198D01*
X14270068Y-17206198D02*
X14279592Y-17196674D01*
X14279592Y-17196674D02*
X14298640Y-17187150D01*
X14298640Y-17187150D02*
X14327211Y-17187150D01*
X14327211Y-17187150D02*
X14346259Y-17196674D01*
X14346259Y-17196674D02*
X14355783Y-17206198D01*
X14355783Y-17206198D02*
X14365306Y-17225246D01*
X14365306Y-17225246D02*
X14365306Y-17282389D01*
X14365306Y-17282389D02*
X14355783Y-17301436D01*
X14355783Y-17301436D02*
X14346259Y-17310960D01*
X14346259Y-17310960D02*
X14327211Y-17320484D01*
X14327211Y-17320484D02*
X14298640Y-17320484D01*
X14479592Y-17320484D02*
X14460545Y-17310960D01*
X14460545Y-17310960D02*
X14451021Y-17291912D01*
X14451021Y-17291912D02*
X14451021Y-17120484D01*
X14631973Y-17310960D02*
X14612926Y-17320484D01*
X14612926Y-17320484D02*
X14574830Y-17320484D01*
X14574830Y-17320484D02*
X14555783Y-17310960D01*
X14555783Y-17310960D02*
X14546259Y-17291912D01*
X14546259Y-17291912D02*
X14546259Y-17215722D01*
X14546259Y-17215722D02*
X14555783Y-17196674D01*
X14555783Y-17196674D02*
X14574830Y-17187150D01*
X14574830Y-17187150D02*
X14612926Y-17187150D01*
X14612926Y-17187150D02*
X14631973Y-17196674D01*
X14631973Y-17196674D02*
X14641497Y-17215722D01*
X14641497Y-17215722D02*
X14641497Y-17234770D01*
X14641497Y-17234770D02*
X14546259Y-17253817D01*
X14717687Y-17310960D02*
X14736735Y-17320484D01*
X14736735Y-17320484D02*
X14774830Y-17320484D01*
X14774830Y-17320484D02*
X14793878Y-17310960D01*
X14793878Y-17310960D02*
X14803402Y-17291912D01*
X14803402Y-17291912D02*
X14803402Y-17282389D01*
X14803402Y-17282389D02*
X14793878Y-17263341D01*
X14793878Y-17263341D02*
X14774830Y-17253817D01*
X14774830Y-17253817D02*
X14746259Y-17253817D01*
X14746259Y-17253817D02*
X14727211Y-17244293D01*
X14727211Y-17244293D02*
X14717687Y-17225246D01*
X14717687Y-17225246D02*
X14717687Y-17215722D01*
X14717687Y-17215722D02*
X14727211Y-17196674D01*
X14727211Y-17196674D02*
X14746259Y-17187150D01*
X14746259Y-17187150D02*
X14774830Y-17187150D01*
X14774830Y-17187150D02*
X14793878Y-17196674D01*
X15041497Y-17244293D02*
X15193878Y-17244293D01*
X15117688Y-17320484D02*
X15117688Y-17168103D01*
X15536735Y-17120484D02*
X15441497Y-17120484D01*
X15441497Y-17120484D02*
X15431973Y-17215722D01*
X15431973Y-17215722D02*
X15441497Y-17206198D01*
X15441497Y-17206198D02*
X15460545Y-17196674D01*
X15460545Y-17196674D02*
X15508164Y-17196674D01*
X15508164Y-17196674D02*
X15527211Y-17206198D01*
X15527211Y-17206198D02*
X15536735Y-17215722D01*
X15536735Y-17215722D02*
X15546259Y-17234770D01*
X15546259Y-17234770D02*
X15546259Y-17282389D01*
X15546259Y-17282389D02*
X15536735Y-17301436D01*
X15536735Y-17301436D02*
X15527211Y-17310960D01*
X15527211Y-17310960D02*
X15508164Y-17320484D01*
X15508164Y-17320484D02*
X15460545Y-17320484D01*
X15460545Y-17320484D02*
X15441497Y-17310960D01*
X15441497Y-17310960D02*
X15431973Y-17301436D01*
X15774830Y-17310960D02*
X15793878Y-17320484D01*
X15793878Y-17320484D02*
X15831973Y-17320484D01*
X15831973Y-17320484D02*
X15851021Y-17310960D01*
X15851021Y-17310960D02*
X15860545Y-17291912D01*
X15860545Y-17291912D02*
X15860545Y-17282389D01*
X15860545Y-17282389D02*
X15851021Y-17263341D01*
X15851021Y-17263341D02*
X15831973Y-17253817D01*
X15831973Y-17253817D02*
X15803402Y-17253817D01*
X15803402Y-17253817D02*
X15784354Y-17244293D01*
X15784354Y-17244293D02*
X15774830Y-17225246D01*
X15774830Y-17225246D02*
X15774830Y-17215722D01*
X15774830Y-17215722D02*
X15784354Y-17196674D01*
X15784354Y-17196674D02*
X15803402Y-17187150D01*
X15803402Y-17187150D02*
X15831973Y-17187150D01*
X15831973Y-17187150D02*
X15851021Y-17196674D01*
X15974830Y-17320484D02*
X15955783Y-17310960D01*
X15955783Y-17310960D02*
X15946259Y-17291912D01*
X15946259Y-17291912D02*
X15946259Y-17120484D01*
X16079592Y-17320484D02*
X16060545Y-17310960D01*
X16060545Y-17310960D02*
X16051021Y-17301436D01*
X16051021Y-17301436D02*
X16041497Y-17282389D01*
X16041497Y-17282389D02*
X16041497Y-17225246D01*
X16041497Y-17225246D02*
X16051021Y-17206198D01*
X16051021Y-17206198D02*
X16060545Y-17196674D01*
X16060545Y-17196674D02*
X16079592Y-17187150D01*
X16079592Y-17187150D02*
X16108164Y-17187150D01*
X16108164Y-17187150D02*
X16127211Y-17196674D01*
X16127211Y-17196674D02*
X16136735Y-17206198D01*
X16136735Y-17206198D02*
X16146259Y-17225246D01*
X16146259Y-17225246D02*
X16146259Y-17282389D01*
X16146259Y-17282389D02*
X16136735Y-17301436D01*
X16136735Y-17301436D02*
X16127211Y-17310960D01*
X16127211Y-17310960D02*
X16108164Y-17320484D01*
X16108164Y-17320484D02*
X16079592Y-17320484D01*
X16203402Y-17187150D02*
X16279592Y-17187150D01*
X16231973Y-17120484D02*
X16231973Y-17291912D01*
X16231973Y-17291912D02*
X16241497Y-17310960D01*
X16241497Y-17310960D02*
X16260545Y-17320484D01*
X16260545Y-17320484D02*
X16279592Y-17320484D01*
X16336735Y-17310960D02*
X16355783Y-17320484D01*
X16355783Y-17320484D02*
X16393878Y-17320484D01*
X16393878Y-17320484D02*
X16412926Y-17310960D01*
X16412926Y-17310960D02*
X16422450Y-17291912D01*
X16422450Y-17291912D02*
X16422450Y-17282389D01*
X16422450Y-17282389D02*
X16412926Y-17263341D01*
X16412926Y-17263341D02*
X16393878Y-17253817D01*
X16393878Y-17253817D02*
X16365307Y-17253817D01*
X16365307Y-17253817D02*
X16346259Y-17244293D01*
X16346259Y-17244293D02*
X16336735Y-17225246D01*
X16336735Y-17225246D02*
X16336735Y-17215722D01*
X16336735Y-17215722D02*
X16346259Y-17196674D01*
X16346259Y-17196674D02*
X16365307Y-17187150D01*
X16365307Y-17187150D02*
X16393878Y-17187150D01*
X16393878Y-17187150D02*
X16412926Y-17196674D01*
X16489116Y-17396674D02*
X16498640Y-17387150D01*
X16498640Y-17387150D02*
X16517688Y-17358579D01*
X16517688Y-17358579D02*
X16527211Y-17339531D01*
X16527211Y-17339531D02*
X16536735Y-17310960D01*
X16536735Y-17310960D02*
X16546259Y-17263341D01*
X16546259Y-17263341D02*
X16546259Y-17225246D01*
X16546259Y-17225246D02*
X16536735Y-17177627D01*
X16536735Y-17177627D02*
X16527211Y-17149055D01*
X16527211Y-17149055D02*
X16517688Y-17130008D01*
X16517688Y-17130008D02*
X16498640Y-17101436D01*
X16498640Y-17101436D02*
X16489116Y-17091912D01*
D15*
X9935006Y-17413000D02*
X10095006Y-17573000D01*
X10095006Y-17413000D02*
X9935006Y-17573000D01*
X10071575Y-17549569D02*
X10071575Y-17436431D01*
X9958436Y-17436431D01*
X9958436Y-17549569D01*
X10071575Y-17549569D01*
D11*
X10460544Y-17584484D02*
X10346259Y-17584484D01*
X10403401Y-17584484D02*
X10403401Y-17384484D01*
X10403401Y-17384484D02*
X10384354Y-17413055D01*
X10384354Y-17413055D02*
X10365306Y-17432103D01*
X10365306Y-17432103D02*
X10346259Y-17441627D01*
X10546259Y-17565436D02*
X10555782Y-17574960D01*
X10555782Y-17574960D02*
X10546259Y-17584484D01*
X10546259Y-17584484D02*
X10536735Y-17574960D01*
X10536735Y-17574960D02*
X10546259Y-17565436D01*
X10546259Y-17565436D02*
X10546259Y-17584484D01*
X10727211Y-17384484D02*
X10689116Y-17384484D01*
X10689116Y-17384484D02*
X10670068Y-17394008D01*
X10670068Y-17394008D02*
X10660544Y-17403531D01*
X10660544Y-17403531D02*
X10641497Y-17432103D01*
X10641497Y-17432103D02*
X10631973Y-17470198D01*
X10631973Y-17470198D02*
X10631973Y-17546389D01*
X10631973Y-17546389D02*
X10641497Y-17565436D01*
X10641497Y-17565436D02*
X10651020Y-17574960D01*
X10651020Y-17574960D02*
X10670068Y-17584484D01*
X10670068Y-17584484D02*
X10708163Y-17584484D01*
X10708163Y-17584484D02*
X10727211Y-17574960D01*
X10727211Y-17574960D02*
X10736735Y-17565436D01*
X10736735Y-17565436D02*
X10746259Y-17546389D01*
X10746259Y-17546389D02*
X10746259Y-17498770D01*
X10746259Y-17498770D02*
X10736735Y-17479722D01*
X10736735Y-17479722D02*
X10727211Y-17470198D01*
X10727211Y-17470198D02*
X10708163Y-17460674D01*
X10708163Y-17460674D02*
X10670068Y-17460674D01*
X10670068Y-17460674D02*
X10651020Y-17470198D01*
X10651020Y-17470198D02*
X10641497Y-17479722D01*
X10641497Y-17479722D02*
X10631973Y-17498770D01*
X10870068Y-17384484D02*
X10889116Y-17384484D01*
X10889116Y-17384484D02*
X10908163Y-17394008D01*
X10908163Y-17394008D02*
X10917687Y-17403531D01*
X10917687Y-17403531D02*
X10927211Y-17422579D01*
X10927211Y-17422579D02*
X10936735Y-17460674D01*
X10936735Y-17460674D02*
X10936735Y-17508293D01*
X10936735Y-17508293D02*
X10927211Y-17546389D01*
X10927211Y-17546389D02*
X10917687Y-17565436D01*
X10917687Y-17565436D02*
X10908163Y-17574960D01*
X10908163Y-17574960D02*
X10889116Y-17584484D01*
X10889116Y-17584484D02*
X10870068Y-17584484D01*
X10870068Y-17584484D02*
X10851020Y-17574960D01*
X10851020Y-17574960D02*
X10841497Y-17565436D01*
X10841497Y-17565436D02*
X10831973Y-17546389D01*
X10831973Y-17546389D02*
X10822449Y-17508293D01*
X10822449Y-17508293D02*
X10822449Y-17460674D01*
X10822449Y-17460674D02*
X10831973Y-17422579D01*
X10831973Y-17422579D02*
X10841497Y-17403531D01*
X10841497Y-17403531D02*
X10851020Y-17394008D01*
X10851020Y-17394008D02*
X10870068Y-17384484D01*
X11060544Y-17384484D02*
X11079592Y-17384484D01*
X11079592Y-17384484D02*
X11098640Y-17394008D01*
X11098640Y-17394008D02*
X11108163Y-17403531D01*
X11108163Y-17403531D02*
X11117687Y-17422579D01*
X11117687Y-17422579D02*
X11127211Y-17460674D01*
X11127211Y-17460674D02*
X11127211Y-17508293D01*
X11127211Y-17508293D02*
X11117687Y-17546389D01*
X11117687Y-17546389D02*
X11108163Y-17565436D01*
X11108163Y-17565436D02*
X11098640Y-17574960D01*
X11098640Y-17574960D02*
X11079592Y-17584484D01*
X11079592Y-17584484D02*
X11060544Y-17584484D01*
X11060544Y-17584484D02*
X11041497Y-17574960D01*
X11041497Y-17574960D02*
X11031973Y-17565436D01*
X11031973Y-17565436D02*
X11022449Y-17546389D01*
X11022449Y-17546389D02*
X11012925Y-17508293D01*
X11012925Y-17508293D02*
X11012925Y-17460674D01*
X11012925Y-17460674D02*
X11022449Y-17422579D01*
X11022449Y-17422579D02*
X11031973Y-17403531D01*
X11031973Y-17403531D02*
X11041497Y-17394008D01*
X11041497Y-17394008D02*
X11060544Y-17384484D01*
X11212925Y-17584484D02*
X11212925Y-17451150D01*
X11212925Y-17470198D02*
X11222449Y-17460674D01*
X11222449Y-17460674D02*
X11241497Y-17451150D01*
X11241497Y-17451150D02*
X11270068Y-17451150D01*
X11270068Y-17451150D02*
X11289116Y-17460674D01*
X11289116Y-17460674D02*
X11298639Y-17479722D01*
X11298639Y-17479722D02*
X11298639Y-17584484D01*
X11298639Y-17479722D02*
X11308163Y-17460674D01*
X11308163Y-17460674D02*
X11327211Y-17451150D01*
X11327211Y-17451150D02*
X11355782Y-17451150D01*
X11355782Y-17451150D02*
X11374830Y-17460674D01*
X11374830Y-17460674D02*
X11384354Y-17479722D01*
X11384354Y-17479722D02*
X11384354Y-17584484D01*
X11479592Y-17584484D02*
X11479592Y-17451150D01*
X11479592Y-17470198D02*
X11489116Y-17460674D01*
X11489116Y-17460674D02*
X11508163Y-17451150D01*
X11508163Y-17451150D02*
X11536735Y-17451150D01*
X11536735Y-17451150D02*
X11555782Y-17460674D01*
X11555782Y-17460674D02*
X11565306Y-17479722D01*
X11565306Y-17479722D02*
X11565306Y-17584484D01*
X11565306Y-17479722D02*
X11574830Y-17460674D01*
X11574830Y-17460674D02*
X11593878Y-17451150D01*
X11593878Y-17451150D02*
X11622449Y-17451150D01*
X11622449Y-17451150D02*
X11641497Y-17460674D01*
X11641497Y-17460674D02*
X11651020Y-17479722D01*
X11651020Y-17479722D02*
X11651020Y-17584484D01*
X12041497Y-17374960D02*
X11870068Y-17632103D01*
X12298640Y-17384484D02*
X12317687Y-17384484D01*
X12317687Y-17384484D02*
X12336735Y-17394008D01*
X12336735Y-17394008D02*
X12346259Y-17403531D01*
X12346259Y-17403531D02*
X12355782Y-17422579D01*
X12355782Y-17422579D02*
X12365306Y-17460674D01*
X12365306Y-17460674D02*
X12365306Y-17508293D01*
X12365306Y-17508293D02*
X12355782Y-17546389D01*
X12355782Y-17546389D02*
X12346259Y-17565436D01*
X12346259Y-17565436D02*
X12336735Y-17574960D01*
X12336735Y-17574960D02*
X12317687Y-17584484D01*
X12317687Y-17584484D02*
X12298640Y-17584484D01*
X12298640Y-17584484D02*
X12279592Y-17574960D01*
X12279592Y-17574960D02*
X12270068Y-17565436D01*
X12270068Y-17565436D02*
X12260544Y-17546389D01*
X12260544Y-17546389D02*
X12251021Y-17508293D01*
X12251021Y-17508293D02*
X12251021Y-17460674D01*
X12251021Y-17460674D02*
X12260544Y-17422579D01*
X12260544Y-17422579D02*
X12270068Y-17403531D01*
X12270068Y-17403531D02*
X12279592Y-17394008D01*
X12279592Y-17394008D02*
X12298640Y-17384484D01*
X12451021Y-17565436D02*
X12460544Y-17574960D01*
X12460544Y-17574960D02*
X12451021Y-17584484D01*
X12451021Y-17584484D02*
X12441497Y-17574960D01*
X12441497Y-17574960D02*
X12451021Y-17565436D01*
X12451021Y-17565436D02*
X12451021Y-17584484D01*
X12584354Y-17384484D02*
X12603402Y-17384484D01*
X12603402Y-17384484D02*
X12622449Y-17394008D01*
X12622449Y-17394008D02*
X12631973Y-17403531D01*
X12631973Y-17403531D02*
X12641497Y-17422579D01*
X12641497Y-17422579D02*
X12651021Y-17460674D01*
X12651021Y-17460674D02*
X12651021Y-17508293D01*
X12651021Y-17508293D02*
X12641497Y-17546389D01*
X12641497Y-17546389D02*
X12631973Y-17565436D01*
X12631973Y-17565436D02*
X12622449Y-17574960D01*
X12622449Y-17574960D02*
X12603402Y-17584484D01*
X12603402Y-17584484D02*
X12584354Y-17584484D01*
X12584354Y-17584484D02*
X12565306Y-17574960D01*
X12565306Y-17574960D02*
X12555782Y-17565436D01*
X12555782Y-17565436D02*
X12546259Y-17546389D01*
X12546259Y-17546389D02*
X12536735Y-17508293D01*
X12536735Y-17508293D02*
X12536735Y-17460674D01*
X12536735Y-17460674D02*
X12546259Y-17422579D01*
X12546259Y-17422579D02*
X12555782Y-17403531D01*
X12555782Y-17403531D02*
X12565306Y-17394008D01*
X12565306Y-17394008D02*
X12584354Y-17384484D01*
X12822449Y-17384484D02*
X12784354Y-17384484D01*
X12784354Y-17384484D02*
X12765306Y-17394008D01*
X12765306Y-17394008D02*
X12755782Y-17403531D01*
X12755782Y-17403531D02*
X12736735Y-17432103D01*
X12736735Y-17432103D02*
X12727211Y-17470198D01*
X12727211Y-17470198D02*
X12727211Y-17546389D01*
X12727211Y-17546389D02*
X12736735Y-17565436D01*
X12736735Y-17565436D02*
X12746259Y-17574960D01*
X12746259Y-17574960D02*
X12765306Y-17584484D01*
X12765306Y-17584484D02*
X12803402Y-17584484D01*
X12803402Y-17584484D02*
X12822449Y-17574960D01*
X12822449Y-17574960D02*
X12831973Y-17565436D01*
X12831973Y-17565436D02*
X12841497Y-17546389D01*
X12841497Y-17546389D02*
X12841497Y-17498770D01*
X12841497Y-17498770D02*
X12831973Y-17479722D01*
X12831973Y-17479722D02*
X12822449Y-17470198D01*
X12822449Y-17470198D02*
X12803402Y-17460674D01*
X12803402Y-17460674D02*
X12765306Y-17460674D01*
X12765306Y-17460674D02*
X12746259Y-17470198D01*
X12746259Y-17470198D02*
X12736735Y-17479722D01*
X12736735Y-17479722D02*
X12727211Y-17498770D01*
X12908163Y-17384484D02*
X13031973Y-17384484D01*
X13031973Y-17384484D02*
X12965306Y-17460674D01*
X12965306Y-17460674D02*
X12993878Y-17460674D01*
X12993878Y-17460674D02*
X13012925Y-17470198D01*
X13012925Y-17470198D02*
X13022449Y-17479722D01*
X13022449Y-17479722D02*
X13031973Y-17498770D01*
X13031973Y-17498770D02*
X13031973Y-17546389D01*
X13031973Y-17546389D02*
X13022449Y-17565436D01*
X13022449Y-17565436D02*
X13012925Y-17574960D01*
X13012925Y-17574960D02*
X12993878Y-17584484D01*
X12993878Y-17584484D02*
X12936735Y-17584484D01*
X12936735Y-17584484D02*
X12917687Y-17574960D01*
X12917687Y-17574960D02*
X12908163Y-17565436D01*
X13155782Y-17384484D02*
X13174830Y-17384484D01*
X13174830Y-17384484D02*
X13193878Y-17394008D01*
X13193878Y-17394008D02*
X13203402Y-17403531D01*
X13203402Y-17403531D02*
X13212925Y-17422579D01*
X13212925Y-17422579D02*
X13222449Y-17460674D01*
X13222449Y-17460674D02*
X13222449Y-17508293D01*
X13222449Y-17508293D02*
X13212925Y-17546389D01*
X13212925Y-17546389D02*
X13203402Y-17565436D01*
X13203402Y-17565436D02*
X13193878Y-17574960D01*
X13193878Y-17574960D02*
X13174830Y-17584484D01*
X13174830Y-17584484D02*
X13155782Y-17584484D01*
X13155782Y-17584484D02*
X13136735Y-17574960D01*
X13136735Y-17574960D02*
X13127211Y-17565436D01*
X13127211Y-17565436D02*
X13117687Y-17546389D01*
X13117687Y-17546389D02*
X13108163Y-17508293D01*
X13108163Y-17508293D02*
X13108163Y-17460674D01*
X13108163Y-17460674D02*
X13117687Y-17422579D01*
X13117687Y-17422579D02*
X13127211Y-17403531D01*
X13127211Y-17403531D02*
X13136735Y-17394008D01*
X13136735Y-17394008D02*
X13155782Y-17384484D01*
X13298640Y-17384484D02*
X13298640Y-17422579D01*
X13374830Y-17384484D02*
X13374830Y-17422579D01*
X13670068Y-17660674D02*
X13660544Y-17651150D01*
X13660544Y-17651150D02*
X13641497Y-17622579D01*
X13641497Y-17622579D02*
X13631973Y-17603531D01*
X13631973Y-17603531D02*
X13622449Y-17574960D01*
X13622449Y-17574960D02*
X13612925Y-17527341D01*
X13612925Y-17527341D02*
X13612925Y-17489246D01*
X13612925Y-17489246D02*
X13622449Y-17441627D01*
X13622449Y-17441627D02*
X13631973Y-17413055D01*
X13631973Y-17413055D02*
X13641497Y-17394008D01*
X13641497Y-17394008D02*
X13660544Y-17365436D01*
X13660544Y-17365436D02*
X13670068Y-17355912D01*
X13851021Y-17584484D02*
X13736735Y-17584484D01*
X13793878Y-17584484D02*
X13793878Y-17384484D01*
X13793878Y-17384484D02*
X13774830Y-17413055D01*
X13774830Y-17413055D02*
X13755783Y-17432103D01*
X13755783Y-17432103D02*
X13736735Y-17441627D01*
X13974830Y-17384484D02*
X13993878Y-17384484D01*
X13993878Y-17384484D02*
X14012925Y-17394008D01*
X14012925Y-17394008D02*
X14022449Y-17403531D01*
X14022449Y-17403531D02*
X14031973Y-17422579D01*
X14031973Y-17422579D02*
X14041497Y-17460674D01*
X14041497Y-17460674D02*
X14041497Y-17508293D01*
X14041497Y-17508293D02*
X14031973Y-17546389D01*
X14031973Y-17546389D02*
X14022449Y-17565436D01*
X14022449Y-17565436D02*
X14012925Y-17574960D01*
X14012925Y-17574960D02*
X13993878Y-17584484D01*
X13993878Y-17584484D02*
X13974830Y-17584484D01*
X13974830Y-17584484D02*
X13955783Y-17574960D01*
X13955783Y-17574960D02*
X13946259Y-17565436D01*
X13946259Y-17565436D02*
X13936735Y-17546389D01*
X13936735Y-17546389D02*
X13927211Y-17508293D01*
X13927211Y-17508293D02*
X13927211Y-17460674D01*
X13927211Y-17460674D02*
X13936735Y-17422579D01*
X13936735Y-17422579D02*
X13946259Y-17403531D01*
X13946259Y-17403531D02*
X13955783Y-17394008D01*
X13955783Y-17394008D02*
X13974830Y-17384484D01*
X14279592Y-17584484D02*
X14279592Y-17384484D01*
X14365306Y-17584484D02*
X14365306Y-17479722D01*
X14365306Y-17479722D02*
X14355783Y-17460674D01*
X14355783Y-17460674D02*
X14336735Y-17451150D01*
X14336735Y-17451150D02*
X14308164Y-17451150D01*
X14308164Y-17451150D02*
X14289116Y-17460674D01*
X14289116Y-17460674D02*
X14279592Y-17470198D01*
X14489116Y-17584484D02*
X14470068Y-17574960D01*
X14470068Y-17574960D02*
X14460545Y-17565436D01*
X14460545Y-17565436D02*
X14451021Y-17546389D01*
X14451021Y-17546389D02*
X14451021Y-17489246D01*
X14451021Y-17489246D02*
X14460545Y-17470198D01*
X14460545Y-17470198D02*
X14470068Y-17460674D01*
X14470068Y-17460674D02*
X14489116Y-17451150D01*
X14489116Y-17451150D02*
X14517687Y-17451150D01*
X14517687Y-17451150D02*
X14536735Y-17460674D01*
X14536735Y-17460674D02*
X14546259Y-17470198D01*
X14546259Y-17470198D02*
X14555783Y-17489246D01*
X14555783Y-17489246D02*
X14555783Y-17546389D01*
X14555783Y-17546389D02*
X14546259Y-17565436D01*
X14546259Y-17565436D02*
X14536735Y-17574960D01*
X14536735Y-17574960D02*
X14517687Y-17584484D01*
X14517687Y-17584484D02*
X14489116Y-17584484D01*
X14670068Y-17584484D02*
X14651021Y-17574960D01*
X14651021Y-17574960D02*
X14641497Y-17555912D01*
X14641497Y-17555912D02*
X14641497Y-17384484D01*
X14822449Y-17574960D02*
X14803402Y-17584484D01*
X14803402Y-17584484D02*
X14765306Y-17584484D01*
X14765306Y-17584484D02*
X14746259Y-17574960D01*
X14746259Y-17574960D02*
X14736735Y-17555912D01*
X14736735Y-17555912D02*
X14736735Y-17479722D01*
X14736735Y-17479722D02*
X14746259Y-17460674D01*
X14746259Y-17460674D02*
X14765306Y-17451150D01*
X14765306Y-17451150D02*
X14803402Y-17451150D01*
X14803402Y-17451150D02*
X14822449Y-17460674D01*
X14822449Y-17460674D02*
X14831973Y-17479722D01*
X14831973Y-17479722D02*
X14831973Y-17498770D01*
X14831973Y-17498770D02*
X14736735Y-17517817D01*
X14908164Y-17574960D02*
X14927211Y-17584484D01*
X14927211Y-17584484D02*
X14965306Y-17584484D01*
X14965306Y-17584484D02*
X14984354Y-17574960D01*
X14984354Y-17574960D02*
X14993878Y-17555912D01*
X14993878Y-17555912D02*
X14993878Y-17546389D01*
X14993878Y-17546389D02*
X14984354Y-17527341D01*
X14984354Y-17527341D02*
X14965306Y-17517817D01*
X14965306Y-17517817D02*
X14936735Y-17517817D01*
X14936735Y-17517817D02*
X14917687Y-17508293D01*
X14917687Y-17508293D02*
X14908164Y-17489246D01*
X14908164Y-17489246D02*
X14908164Y-17479722D01*
X14908164Y-17479722D02*
X14917687Y-17460674D01*
X14917687Y-17460674D02*
X14936735Y-17451150D01*
X14936735Y-17451150D02*
X14965306Y-17451150D01*
X14965306Y-17451150D02*
X14984354Y-17460674D01*
X15060545Y-17660674D02*
X15070068Y-17651150D01*
X15070068Y-17651150D02*
X15089116Y-17622579D01*
X15089116Y-17622579D02*
X15098640Y-17603531D01*
X15098640Y-17603531D02*
X15108164Y-17574960D01*
X15108164Y-17574960D02*
X15117687Y-17527341D01*
X15117687Y-17527341D02*
X15117687Y-17489246D01*
X15117687Y-17489246D02*
X15108164Y-17441627D01*
X15108164Y-17441627D02*
X15098640Y-17413055D01*
X15098640Y-17413055D02*
X15089116Y-17394008D01*
X15089116Y-17394008D02*
X15070068Y-17365436D01*
X15070068Y-17365436D02*
X15060545Y-17355912D01*
D16*
X9920006Y-17685500D02*
X10095006Y-17860500D01*
X10095006Y-17685500D02*
X9920006Y-17860500D01*
X10007506Y-17860500D02*
X10095006Y-17773000D01*
X10007506Y-17685500D01*
X9920006Y-17773000D01*
X10007506Y-17860500D01*
D11*
X10460544Y-17864484D02*
X10346259Y-17864484D01*
X10403401Y-17864484D02*
X10403401Y-17664484D01*
X10403401Y-17664484D02*
X10384354Y-17693055D01*
X10384354Y-17693055D02*
X10365306Y-17712103D01*
X10365306Y-17712103D02*
X10346259Y-17721627D01*
X10546259Y-17845436D02*
X10555782Y-17854960D01*
X10555782Y-17854960D02*
X10546259Y-17864484D01*
X10546259Y-17864484D02*
X10536735Y-17854960D01*
X10536735Y-17854960D02*
X10546259Y-17845436D01*
X10546259Y-17845436D02*
X10546259Y-17864484D01*
X10622449Y-17664484D02*
X10755782Y-17664484D01*
X10755782Y-17664484D02*
X10670068Y-17864484D01*
X10927211Y-17664484D02*
X10831973Y-17664484D01*
X10831973Y-17664484D02*
X10822449Y-17759722D01*
X10822449Y-17759722D02*
X10831973Y-17750198D01*
X10831973Y-17750198D02*
X10851020Y-17740674D01*
X10851020Y-17740674D02*
X10898640Y-17740674D01*
X10898640Y-17740674D02*
X10917687Y-17750198D01*
X10917687Y-17750198D02*
X10927211Y-17759722D01*
X10927211Y-17759722D02*
X10936735Y-17778770D01*
X10936735Y-17778770D02*
X10936735Y-17826389D01*
X10936735Y-17826389D02*
X10927211Y-17845436D01*
X10927211Y-17845436D02*
X10917687Y-17854960D01*
X10917687Y-17854960D02*
X10898640Y-17864484D01*
X10898640Y-17864484D02*
X10851020Y-17864484D01*
X10851020Y-17864484D02*
X10831973Y-17854960D01*
X10831973Y-17854960D02*
X10822449Y-17845436D01*
X11060544Y-17664484D02*
X11079592Y-17664484D01*
X11079592Y-17664484D02*
X11098640Y-17674008D01*
X11098640Y-17674008D02*
X11108163Y-17683531D01*
X11108163Y-17683531D02*
X11117687Y-17702579D01*
X11117687Y-17702579D02*
X11127211Y-17740674D01*
X11127211Y-17740674D02*
X11127211Y-17788293D01*
X11127211Y-17788293D02*
X11117687Y-17826389D01*
X11117687Y-17826389D02*
X11108163Y-17845436D01*
X11108163Y-17845436D02*
X11098640Y-17854960D01*
X11098640Y-17854960D02*
X11079592Y-17864484D01*
X11079592Y-17864484D02*
X11060544Y-17864484D01*
X11060544Y-17864484D02*
X11041497Y-17854960D01*
X11041497Y-17854960D02*
X11031973Y-17845436D01*
X11031973Y-17845436D02*
X11022449Y-17826389D01*
X11022449Y-17826389D02*
X11012925Y-17788293D01*
X11012925Y-17788293D02*
X11012925Y-17740674D01*
X11012925Y-17740674D02*
X11022449Y-17702579D01*
X11022449Y-17702579D02*
X11031973Y-17683531D01*
X11031973Y-17683531D02*
X11041497Y-17674008D01*
X11041497Y-17674008D02*
X11060544Y-17664484D01*
X11212925Y-17864484D02*
X11212925Y-17731150D01*
X11212925Y-17750198D02*
X11222449Y-17740674D01*
X11222449Y-17740674D02*
X11241497Y-17731150D01*
X11241497Y-17731150D02*
X11270068Y-17731150D01*
X11270068Y-17731150D02*
X11289116Y-17740674D01*
X11289116Y-17740674D02*
X11298639Y-17759722D01*
X11298639Y-17759722D02*
X11298639Y-17864484D01*
X11298639Y-17759722D02*
X11308163Y-17740674D01*
X11308163Y-17740674D02*
X11327211Y-17731150D01*
X11327211Y-17731150D02*
X11355782Y-17731150D01*
X11355782Y-17731150D02*
X11374830Y-17740674D01*
X11374830Y-17740674D02*
X11384354Y-17759722D01*
X11384354Y-17759722D02*
X11384354Y-17864484D01*
X11479592Y-17864484D02*
X11479592Y-17731150D01*
X11479592Y-17750198D02*
X11489116Y-17740674D01*
X11489116Y-17740674D02*
X11508163Y-17731150D01*
X11508163Y-17731150D02*
X11536735Y-17731150D01*
X11536735Y-17731150D02*
X11555782Y-17740674D01*
X11555782Y-17740674D02*
X11565306Y-17759722D01*
X11565306Y-17759722D02*
X11565306Y-17864484D01*
X11565306Y-17759722D02*
X11574830Y-17740674D01*
X11574830Y-17740674D02*
X11593878Y-17731150D01*
X11593878Y-17731150D02*
X11622449Y-17731150D01*
X11622449Y-17731150D02*
X11641497Y-17740674D01*
X11641497Y-17740674D02*
X11651020Y-17759722D01*
X11651020Y-17759722D02*
X11651020Y-17864484D01*
X12041497Y-17654960D02*
X11870068Y-17912103D01*
X12298640Y-17664484D02*
X12317687Y-17664484D01*
X12317687Y-17664484D02*
X12336735Y-17674008D01*
X12336735Y-17674008D02*
X12346259Y-17683531D01*
X12346259Y-17683531D02*
X12355782Y-17702579D01*
X12355782Y-17702579D02*
X12365306Y-17740674D01*
X12365306Y-17740674D02*
X12365306Y-17788293D01*
X12365306Y-17788293D02*
X12355782Y-17826389D01*
X12355782Y-17826389D02*
X12346259Y-17845436D01*
X12346259Y-17845436D02*
X12336735Y-17854960D01*
X12336735Y-17854960D02*
X12317687Y-17864484D01*
X12317687Y-17864484D02*
X12298640Y-17864484D01*
X12298640Y-17864484D02*
X12279592Y-17854960D01*
X12279592Y-17854960D02*
X12270068Y-17845436D01*
X12270068Y-17845436D02*
X12260544Y-17826389D01*
X12260544Y-17826389D02*
X12251021Y-17788293D01*
X12251021Y-17788293D02*
X12251021Y-17740674D01*
X12251021Y-17740674D02*
X12260544Y-17702579D01*
X12260544Y-17702579D02*
X12270068Y-17683531D01*
X12270068Y-17683531D02*
X12279592Y-17674008D01*
X12279592Y-17674008D02*
X12298640Y-17664484D01*
X12451021Y-17845436D02*
X12460544Y-17854960D01*
X12460544Y-17854960D02*
X12451021Y-17864484D01*
X12451021Y-17864484D02*
X12441497Y-17854960D01*
X12441497Y-17854960D02*
X12451021Y-17845436D01*
X12451021Y-17845436D02*
X12451021Y-17864484D01*
X12584354Y-17664484D02*
X12603402Y-17664484D01*
X12603402Y-17664484D02*
X12622449Y-17674008D01*
X12622449Y-17674008D02*
X12631973Y-17683531D01*
X12631973Y-17683531D02*
X12641497Y-17702579D01*
X12641497Y-17702579D02*
X12651021Y-17740674D01*
X12651021Y-17740674D02*
X12651021Y-17788293D01*
X12651021Y-17788293D02*
X12641497Y-17826389D01*
X12641497Y-17826389D02*
X12631973Y-17845436D01*
X12631973Y-17845436D02*
X12622449Y-17854960D01*
X12622449Y-17854960D02*
X12603402Y-17864484D01*
X12603402Y-17864484D02*
X12584354Y-17864484D01*
X12584354Y-17864484D02*
X12565306Y-17854960D01*
X12565306Y-17854960D02*
X12555782Y-17845436D01*
X12555782Y-17845436D02*
X12546259Y-17826389D01*
X12546259Y-17826389D02*
X12536735Y-17788293D01*
X12536735Y-17788293D02*
X12536735Y-17740674D01*
X12536735Y-17740674D02*
X12546259Y-17702579D01*
X12546259Y-17702579D02*
X12555782Y-17683531D01*
X12555782Y-17683531D02*
X12565306Y-17674008D01*
X12565306Y-17674008D02*
X12584354Y-17664484D01*
X12822449Y-17664484D02*
X12784354Y-17664484D01*
X12784354Y-17664484D02*
X12765306Y-17674008D01*
X12765306Y-17674008D02*
X12755782Y-17683531D01*
X12755782Y-17683531D02*
X12736735Y-17712103D01*
X12736735Y-17712103D02*
X12727211Y-17750198D01*
X12727211Y-17750198D02*
X12727211Y-17826389D01*
X12727211Y-17826389D02*
X12736735Y-17845436D01*
X12736735Y-17845436D02*
X12746259Y-17854960D01*
X12746259Y-17854960D02*
X12765306Y-17864484D01*
X12765306Y-17864484D02*
X12803402Y-17864484D01*
X12803402Y-17864484D02*
X12822449Y-17854960D01*
X12822449Y-17854960D02*
X12831973Y-17845436D01*
X12831973Y-17845436D02*
X12841497Y-17826389D01*
X12841497Y-17826389D02*
X12841497Y-17778770D01*
X12841497Y-17778770D02*
X12831973Y-17759722D01*
X12831973Y-17759722D02*
X12822449Y-17750198D01*
X12822449Y-17750198D02*
X12803402Y-17740674D01*
X12803402Y-17740674D02*
X12765306Y-17740674D01*
X12765306Y-17740674D02*
X12746259Y-17750198D01*
X12746259Y-17750198D02*
X12736735Y-17759722D01*
X12736735Y-17759722D02*
X12727211Y-17778770D01*
X12955782Y-17750198D02*
X12936735Y-17740674D01*
X12936735Y-17740674D02*
X12927211Y-17731150D01*
X12927211Y-17731150D02*
X12917687Y-17712103D01*
X12917687Y-17712103D02*
X12917687Y-17702579D01*
X12917687Y-17702579D02*
X12927211Y-17683531D01*
X12927211Y-17683531D02*
X12936735Y-17674008D01*
X12936735Y-17674008D02*
X12955782Y-17664484D01*
X12955782Y-17664484D02*
X12993878Y-17664484D01*
X12993878Y-17664484D02*
X13012925Y-17674008D01*
X13012925Y-17674008D02*
X13022449Y-17683531D01*
X13022449Y-17683531D02*
X13031973Y-17702579D01*
X13031973Y-17702579D02*
X13031973Y-17712103D01*
X13031973Y-17712103D02*
X13022449Y-17731150D01*
X13022449Y-17731150D02*
X13012925Y-17740674D01*
X13012925Y-17740674D02*
X12993878Y-17750198D01*
X12993878Y-17750198D02*
X12955782Y-17750198D01*
X12955782Y-17750198D02*
X12936735Y-17759722D01*
X12936735Y-17759722D02*
X12927211Y-17769246D01*
X12927211Y-17769246D02*
X12917687Y-17788293D01*
X12917687Y-17788293D02*
X12917687Y-17826389D01*
X12917687Y-17826389D02*
X12927211Y-17845436D01*
X12927211Y-17845436D02*
X12936735Y-17854960D01*
X12936735Y-17854960D02*
X12955782Y-17864484D01*
X12955782Y-17864484D02*
X12993878Y-17864484D01*
X12993878Y-17864484D02*
X13012925Y-17854960D01*
X13012925Y-17854960D02*
X13022449Y-17845436D01*
X13022449Y-17845436D02*
X13031973Y-17826389D01*
X13031973Y-17826389D02*
X13031973Y-17788293D01*
X13031973Y-17788293D02*
X13022449Y-17769246D01*
X13022449Y-17769246D02*
X13012925Y-17759722D01*
X13012925Y-17759722D02*
X12993878Y-17750198D01*
X13127211Y-17864484D02*
X13165306Y-17864484D01*
X13165306Y-17864484D02*
X13184354Y-17854960D01*
X13184354Y-17854960D02*
X13193878Y-17845436D01*
X13193878Y-17845436D02*
X13212925Y-17816865D01*
X13212925Y-17816865D02*
X13222449Y-17778770D01*
X13222449Y-17778770D02*
X13222449Y-17702579D01*
X13222449Y-17702579D02*
X13212925Y-17683531D01*
X13212925Y-17683531D02*
X13203402Y-17674008D01*
X13203402Y-17674008D02*
X13184354Y-17664484D01*
X13184354Y-17664484D02*
X13146259Y-17664484D01*
X13146259Y-17664484D02*
X13127211Y-17674008D01*
X13127211Y-17674008D02*
X13117687Y-17683531D01*
X13117687Y-17683531D02*
X13108163Y-17702579D01*
X13108163Y-17702579D02*
X13108163Y-17750198D01*
X13108163Y-17750198D02*
X13117687Y-17769246D01*
X13117687Y-17769246D02*
X13127211Y-17778770D01*
X13127211Y-17778770D02*
X13146259Y-17788293D01*
X13146259Y-17788293D02*
X13184354Y-17788293D01*
X13184354Y-17788293D02*
X13203402Y-17778770D01*
X13203402Y-17778770D02*
X13212925Y-17769246D01*
X13212925Y-17769246D02*
X13222449Y-17750198D01*
X13298640Y-17664484D02*
X13298640Y-17702579D01*
X13374830Y-17664484D02*
X13374830Y-17702579D01*
X13670068Y-17940674D02*
X13660544Y-17931150D01*
X13660544Y-17931150D02*
X13641497Y-17902579D01*
X13641497Y-17902579D02*
X13631973Y-17883531D01*
X13631973Y-17883531D02*
X13622449Y-17854960D01*
X13622449Y-17854960D02*
X13612925Y-17807341D01*
X13612925Y-17807341D02*
X13612925Y-17769246D01*
X13612925Y-17769246D02*
X13622449Y-17721627D01*
X13622449Y-17721627D02*
X13631973Y-17693055D01*
X13631973Y-17693055D02*
X13641497Y-17674008D01*
X13641497Y-17674008D02*
X13660544Y-17645436D01*
X13660544Y-17645436D02*
X13670068Y-17635912D01*
X13831973Y-17731150D02*
X13831973Y-17864484D01*
X13784354Y-17654960D02*
X13736735Y-17797817D01*
X13736735Y-17797817D02*
X13860544Y-17797817D01*
X14089116Y-17864484D02*
X14089116Y-17664484D01*
X14174830Y-17864484D02*
X14174830Y-17759722D01*
X14174830Y-17759722D02*
X14165306Y-17740674D01*
X14165306Y-17740674D02*
X14146259Y-17731150D01*
X14146259Y-17731150D02*
X14117687Y-17731150D01*
X14117687Y-17731150D02*
X14098640Y-17740674D01*
X14098640Y-17740674D02*
X14089116Y-17750198D01*
X14298640Y-17864484D02*
X14279592Y-17854960D01*
X14279592Y-17854960D02*
X14270068Y-17845436D01*
X14270068Y-17845436D02*
X14260545Y-17826389D01*
X14260545Y-17826389D02*
X14260545Y-17769246D01*
X14260545Y-17769246D02*
X14270068Y-17750198D01*
X14270068Y-17750198D02*
X14279592Y-17740674D01*
X14279592Y-17740674D02*
X14298640Y-17731150D01*
X14298640Y-17731150D02*
X14327211Y-17731150D01*
X14327211Y-17731150D02*
X14346259Y-17740674D01*
X14346259Y-17740674D02*
X14355783Y-17750198D01*
X14355783Y-17750198D02*
X14365306Y-17769246D01*
X14365306Y-17769246D02*
X14365306Y-17826389D01*
X14365306Y-17826389D02*
X14355783Y-17845436D01*
X14355783Y-17845436D02*
X14346259Y-17854960D01*
X14346259Y-17854960D02*
X14327211Y-17864484D01*
X14327211Y-17864484D02*
X14298640Y-17864484D01*
X14479592Y-17864484D02*
X14460545Y-17854960D01*
X14460545Y-17854960D02*
X14451021Y-17835912D01*
X14451021Y-17835912D02*
X14451021Y-17664484D01*
X14631973Y-17854960D02*
X14612926Y-17864484D01*
X14612926Y-17864484D02*
X14574830Y-17864484D01*
X14574830Y-17864484D02*
X14555783Y-17854960D01*
X14555783Y-17854960D02*
X14546259Y-17835912D01*
X14546259Y-17835912D02*
X14546259Y-17759722D01*
X14546259Y-17759722D02*
X14555783Y-17740674D01*
X14555783Y-17740674D02*
X14574830Y-17731150D01*
X14574830Y-17731150D02*
X14612926Y-17731150D01*
X14612926Y-17731150D02*
X14631973Y-17740674D01*
X14631973Y-17740674D02*
X14641497Y-17759722D01*
X14641497Y-17759722D02*
X14641497Y-17778770D01*
X14641497Y-17778770D02*
X14546259Y-17797817D01*
X14717687Y-17854960D02*
X14736735Y-17864484D01*
X14736735Y-17864484D02*
X14774830Y-17864484D01*
X14774830Y-17864484D02*
X14793878Y-17854960D01*
X14793878Y-17854960D02*
X14803402Y-17835912D01*
X14803402Y-17835912D02*
X14803402Y-17826389D01*
X14803402Y-17826389D02*
X14793878Y-17807341D01*
X14793878Y-17807341D02*
X14774830Y-17797817D01*
X14774830Y-17797817D02*
X14746259Y-17797817D01*
X14746259Y-17797817D02*
X14727211Y-17788293D01*
X14727211Y-17788293D02*
X14717687Y-17769246D01*
X14717687Y-17769246D02*
X14717687Y-17759722D01*
X14717687Y-17759722D02*
X14727211Y-17740674D01*
X14727211Y-17740674D02*
X14746259Y-17731150D01*
X14746259Y-17731150D02*
X14774830Y-17731150D01*
X14774830Y-17731150D02*
X14793878Y-17740674D01*
X14870068Y-17940674D02*
X14879592Y-17931150D01*
X14879592Y-17931150D02*
X14898640Y-17902579D01*
X14898640Y-17902579D02*
X14908164Y-17883531D01*
X14908164Y-17883531D02*
X14917687Y-17854960D01*
X14917687Y-17854960D02*
X14927211Y-17807341D01*
X14927211Y-17807341D02*
X14927211Y-17769246D01*
X14927211Y-17769246D02*
X14917687Y-17721627D01*
X14917687Y-17721627D02*
X14908164Y-17693055D01*
X14908164Y-17693055D02*
X14898640Y-17674008D01*
X14898640Y-17674008D02*
X14879592Y-17645436D01*
X14879592Y-17645436D02*
X14870068Y-17635912D01*
M02*
