M48
; DRILL file {KiCad 9.0.3} date 2026-03-08T16:46:48-0400
; FORMAT={-:-/ absolute / metric / decimal}
; #@! TF.CreationDate,2026-03-08T16:46:48-04:00
; #@! TF.GenerationSoftware,Kicad,Pcbnew,9.0.3
; #@! TF.FileFunction,Plated,1,2,PTH
FMAT,2
METRIC
; #@! TA.AperFunction,Plated,PTH,ViaDrill
T1C0.400
; #@! TA.AperFunction,Plated,PTH,ViaDrill
T2C0.500
; #@! TA.AperFunction,Plated,PTH,ComponentDrill
T3C0.900
; #@! TA.AperFunction,Plated,PTH,ComponentDrill
T4C1.000
; #@! TA.AperFunction,Plated,PTH,ComponentDrill
T5C1.016
; #@! TA.AperFunction,Plated,PTH,ComponentDrill
T6C1.143
; #@! TA.AperFunction,Plated,PTH,ComponentDrill
T7C1.270
; #@! TA.AperFunction,Plated,PTH,ComponentDrill
T8C1.600
; #@! TA.AperFunction,Plated,PTH,ComponentDrill
T9C1.750
%
G90
G05
T1
X107.001Y-120.504
X107.001Y-135.004
X108.501Y-135.004
X109.001Y-120.504
X109.501Y-132.204
X110.501Y-121.004
X115.001Y-121.004
X115.101Y-135.204
X116.501Y-135.204
X117.001Y-121.004
X117.401Y-132.204
X118.001Y-120.004
X123.001Y-120.004
X123.101Y-135.304
X124.501Y-120.504
X124.601Y-135.504
X125.401Y-132.204
X127.001Y-121.004
X129.001Y-132.304
X150.701Y-127.804
X166.0Y-138.0
X166.001Y-113.0
X167.001Y-115.5
X168.001Y-108.5
X169.001Y-111.5
X170.001Y-104.0
X171.001Y-106.5
X171.101Y-134.904
X172.001Y-102.0
X173.001Y-101.0
X174.001Y-100.0
X174.001Y-118.204
X174.201Y-126.204
X175.001Y-99.0
X187.201Y-109.804
X187.201Y-116.004
X190.001Y-109.804
X190.201Y-124.004
X193.001Y-110.004
T2
X103.501Y-126.504
X103.501Y-132.504
X107.001Y-141.304
X108.501Y-130.504
X113.001Y-128.004
X116.501Y-130.504
X121.001Y-128.004
X124.501Y-130.504
X129.501Y-121.504
X129.501Y-123.504
X129.501Y-125.504
X129.501Y-127.504
X129.501Y-133.504
X129.501Y-134.804
X131.001Y-133.004
X138.501Y-124.504
X138.501Y-130.504
X143.501Y-125.504
X145.001Y-132.304
X145.501Y-70.504
X145.501Y-73.004
X145.501Y-75.504
X145.501Y-114.504
X145.501Y-119.504
X147.501Y-70.504
X147.501Y-73.004
X147.501Y-75.504
X147.501Y-78.504
X147.501Y-82.004
X149.501Y-70.504
X149.501Y-75.504
X149.501Y-114.504
X149.501Y-119.504
X151.501Y-70.504
X151.501Y-75.504
X156.501Y-132.504
X157.501Y-92.504
X157.501Y-98.504
X157.501Y-109.004
X157.501Y-114.004
X157.501Y-119.004
X157.501Y-123.004
X157.501Y-127.004
X158.501Y-70.504
X158.501Y-76.004
X158.501Y-104.004
X164.501Y-110.504
X164.501Y-114.504
X164.501Y-119.504
X166.501Y-140.504
X174.0Y-88.5
X177.501Y-95.504
X177.501Y-100.504
X177.501Y-105.504
X177.501Y-110.504
X177.501Y-115.504
X177.501Y-118.504
X177.501Y-123.504
X177.501Y-140.504
X184.501Y-102.504
X185.501Y-138.5
X186.501Y-71.504
X189.501Y-86.504
X192.501Y-86.504
T3
X150.501Y-90.004
X150.501Y-104.004
X155.501Y-90.004
X155.501Y-104.004
T4
X162.841Y-98.74
X162.841Y-101.28
X162.841Y-103.82
X162.841Y-106.36
X162.841Y-108.9
X162.841Y-111.44
X162.841Y-113.98
X162.841Y-116.52
X162.841Y-119.06
X162.841Y-121.6
X162.841Y-124.14
X162.841Y-126.68
X162.841Y-129.22
X162.841Y-131.76
X162.841Y-134.3
X162.841Y-136.84
X162.841Y-139.38
X162.841Y-141.92
X162.841Y-144.46
X162.841Y-147.0
X180.621Y-98.74
X180.621Y-101.28
X180.621Y-103.82
X180.621Y-106.36
X180.621Y-108.9
X180.621Y-111.44
X180.621Y-113.98
X180.621Y-116.52
X180.621Y-119.06
X180.621Y-121.6
X180.621Y-124.14
X180.621Y-126.68
X180.621Y-129.22
X180.621Y-131.76
X180.621Y-134.3
X180.621Y-136.84
X180.621Y-139.38
X180.621Y-141.92
X180.621Y-144.46
X180.621Y-147.0
T5
X149.461Y-133.194
X152.001Y-133.194
X154.541Y-133.194
X186.55Y-113.343
X186.55Y-117.864
X193.052Y-113.343
X193.052Y-117.864
T6
X105.461Y-102.0
X105.461Y-108.0
X108.001Y-102.0
X108.001Y-108.0
X110.541Y-102.0
X110.541Y-108.0
X120.461Y-102.0
X120.461Y-108.0
X123.001Y-102.0
X123.001Y-108.0
X125.541Y-102.0
X125.541Y-108.0
X135.461Y-102.0
X135.461Y-108.0
X138.001Y-102.0
X138.001Y-108.0
X140.541Y-102.0
X140.541Y-108.0
T8
X187.001Y-78.804
X187.001Y-83.004
X187.041Y-123.954
X187.041Y-128.154
X187.041Y-132.354
X192.501Y-78.804
X192.501Y-83.004
X192.541Y-123.954
X192.541Y-128.154
X192.541Y-132.354
T9
X165.0Y-91.3
X165.0Y-94.7
X178.47Y-91.3
X178.47Y-94.7
T7
X127.18Y-86.0G85X123.22Y-86.0
G05
X135.08Y-86.0G85X131.12Y-86.0
G05
X142.98Y-86.0G85X139.02Y-86.0
G05
X172.48Y-86.0G85X168.52Y-86.0
G05
X180.48Y-86.0G85X176.52Y-86.0
G05
M30
