%TF.GenerationSoftware,KiCad,Pcbnew,9.0.3*%
%TF.CreationDate,2026-03-08T16:46:46-04:00*%
%TF.ProjectId,StinkyController MK2,5374696e-6b79-4436-9f6e-74726f6c6c65,rev?*%
%TF.SameCoordinates,Original*%
%TF.FileFunction,Copper,L2,Bot*%
%TF.FilePolarity,Positive*%
%FSLAX46Y46*%
G04 Gerber Fmt 4.6, Leading zero omitted, Abs format (unit mm)*
G04 Created by KiCad (PCBNEW 9.0.3) date 2026-03-08 16:46:46*
%MOMM*%
%LPD*%
G01*
G04 APERTURE LIST*
G04 Aperture macros list*
%AMOutline5P*
0 Free polygon, 5 corners , with rotation*
0 The origin of the aperture is its center*
0 number of corners: always 5*
0 $1 to $10 corner X, Y*
0 $11 Rotation angle, in degrees counterclockwise*
0 create outline with 5 corners*
4,1,5,$1,$2,$3,$4,$5,$6,$7,$8,$9,$10,$1,$2,$11*%
%AMOutline6P*
0 Free polygon, 6 corners , with rotation*
0 The origin of the aperture is its center*
0 number of corners: always 6*
0 $1 to $12 corner X, Y*
0 $13 Rotation angle, in degrees counterclockwise*
0 create outline with 6 corners*
4,1,6,$1,$2,$3,$4,$5,$6,$7,$8,$9,$10,$11,$12,$1,$2,$13*%
%AMOutline7P*
0 Free polygon, 7 corners , with rotation*
0 The origin of the aperture is its center*
0 number of corners: always 7*
0 $1 to $14 corner X, Y*
0 $15 Rotation angle, in degrees counterclockwise*
0 create outline with 7 corners*
4,1,7,$1,$2,$3,$4,$5,$6,$7,$8,$9,$10,$11,$12,$13,$14,$1,$2,$15*%
%AMOutline8P*
0 Free polygon, 8 corners , with rotation*
0 The origin of the aperture is its center*
0 number of corners: always 8*
0 $1 to $16 corner X, Y*
0 $17 Rotation angle, in degrees counterclockwise*
0 create outline with 8 corners*
4,1,8,$1,$2,$3,$4,$5,$6,$7,$8,$9,$10,$11,$12,$13,$14,$15,$16,$1,$2,$17*%
G04 Aperture macros list end*
%TA.AperFunction,ComponentPad*%
%ADD10O,1.714500X3.429000*%
%TD*%
%TA.AperFunction,ComponentPad*%
%ADD11C,1.500000*%
%TD*%
%TA.AperFunction,ComponentPad*%
%ADD12C,1.879600*%
%TD*%
%TA.AperFunction,ComponentPad*%
%ADD13O,6.540000X3.270000*%
%TD*%
%TA.AperFunction,ComponentPad*%
%ADD14R,1.930400X1.930400*%
%TD*%
%TA.AperFunction,ComponentPad*%
%ADD15C,1.930400*%
%TD*%
%TA.AperFunction,ComponentPad*%
%ADD16R,2.400000X2.400000*%
%TD*%
%TA.AperFunction,ComponentPad*%
%ADD17C,2.400000*%
%TD*%
%TA.AperFunction,ComponentPad*%
%ADD18O,1.524000X3.048000*%
%TD*%
%TA.AperFunction,ComponentPad*%
%ADD19Outline8P,-1.312500X0.543655X-0.543655X1.312500X0.543655X1.312500X1.312500X0.543655X1.312500X-0.543655X0.543655X-1.312500X-0.543655X-1.312500X-1.312500X-0.543655X180.000000*%
%TD*%
%TA.AperFunction,ViaPad*%
%ADD20C,0.754000*%
%TD*%
%TA.AperFunction,ViaPad*%
%ADD21C,0.654000*%
%TD*%
%TA.AperFunction,Conductor*%
%ADD22C,0.304800*%
%TD*%
%TA.AperFunction,Conductor*%
%ADD23C,0.254000*%
%TD*%
%TA.AperFunction,Conductor*%
%ADD24C,0.406400*%
%TD*%
G04 APERTURE END LIST*
D10*
%TO.P,Q5,1*%
%TO.N,N$15*%
X140541100Y-108000000D03*
%TO.P,Q5,2*%
%TO.N,V_RAW*%
X138001100Y-108000000D03*
%TO.P,Q5,3*%
%TO.N,COM_C*%
X135461100Y-108000000D03*
%TD*%
D11*
%TO.P,U1,1*%
%TO.N,N/C*%
X180621100Y-147000000D03*
%TO.P,U1,2*%
X180621100Y-144460000D03*
%TO.P,U1,3*%
%TO.N,GND*%
X180621100Y-141920000D03*
%TO.P,U1,4*%
%TO.N,N/C*%
X180621100Y-139380000D03*
%TO.P,U1,5*%
X180621100Y-136840000D03*
%TO.P,U1,6*%
X180621100Y-134300000D03*
%TO.P,U1,7*%
X180621100Y-131760000D03*
%TO.P,U1,8*%
%TO.N,GND*%
X180621100Y-129220000D03*
%TO.P,U1,9*%
%TO.N,N/C*%
X180621100Y-126680000D03*
%TO.P,U1,10*%
X180621100Y-124140000D03*
%TO.P,U1,11*%
X180621100Y-121600000D03*
%TO.P,U1,12*%
X180621100Y-119060000D03*
%TO.P,U1,13*%
%TO.N,GND*%
X180621100Y-116520000D03*
%TO.P,U1,14*%
%TO.N,N/C*%
X180621100Y-113980000D03*
%TO.P,U1,15*%
X180621100Y-111440000D03*
%TO.P,U1,16*%
X180621100Y-108900000D03*
%TO.P,U1,17*%
%TO.N,HALL_A*%
X180621100Y-106360000D03*
%TO.P,U1,18*%
%TO.N,GND*%
X180621100Y-103820000D03*
%TO.P,U1,19*%
%TO.N,HALL_B*%
X180621100Y-101280000D03*
%TO.P,U1,20*%
%TO.N,HALL_C*%
X180621100Y-98740000D03*
%TO.P,U1,21*%
%TO.N,CTRL_AH*%
X162841100Y-98740000D03*
%TO.P,U1,22*%
%TO.N,CTRL_AL*%
X162841100Y-101280000D03*
%TO.P,U1,23*%
%TO.N,GND*%
X162841100Y-103820000D03*
%TO.P,U1,24*%
%TO.N,CTRL_BH*%
X162841100Y-106360000D03*
%TO.P,U1,25*%
%TO.N,CTRL_BL*%
X162841100Y-108900000D03*
%TO.P,U1,26*%
%TO.N,CTRL_CH*%
X162841100Y-111440000D03*
%TO.P,U1,27*%
%TO.N,CTRL_CL*%
X162841100Y-113980000D03*
%TO.P,U1,28*%
%TO.N,GND*%
X162841100Y-116520000D03*
%TO.P,U1,29*%
%TO.N,N/C*%
X162841100Y-119060000D03*
%TO.P,U1,30*%
%TO.N,N$9*%
X162841100Y-121600000D03*
%TO.P,U1,31*%
%TO.N,ISENSE*%
X162841100Y-124140000D03*
%TO.P,U1,32*%
%TO.N,VSENSE*%
X162841100Y-126680000D03*
%TO.P,U1,33*%
%TO.N,GND*%
X162841100Y-129220000D03*
%TO.P,U1,34*%
%TO.N,THROTTLE*%
X162841100Y-131760000D03*
%TO.P,U1,35*%
%TO.N,N/C*%
X162841100Y-134300000D03*
%TO.P,U1,36*%
%TO.N,3.3V*%
X162841100Y-136840000D03*
%TO.P,U1,37*%
%TO.N,N/C*%
X162841100Y-139380000D03*
%TO.P,U1,38*%
%TO.N,GND*%
X162841100Y-141920000D03*
%TO.P,U1,39*%
%TO.N,5V*%
X162841100Y-144460000D03*
%TO.P,U1,40*%
%TO.N,VBUS*%
X162841100Y-147000000D03*
%TD*%
D12*
%TO.P,S1,1*%
%TO.N,N$9*%
X193052300Y-117864200D03*
%TO.P,S1,2*%
%TO.N,N/C*%
X186549900Y-117864200D03*
%TO.P,S1,3*%
%TO.N,GND*%
X193052300Y-113343000D03*
%TO.P,S1,4*%
%TO.N,N/C*%
X186549900Y-113343000D03*
%TD*%
D10*
%TO.P,Q4,1*%
%TO.N,N$14*%
X120461100Y-102000000D03*
%TO.P,Q4,2*%
%TO.N,COM_B*%
X123001100Y-102000000D03*
%TO.P,Q4,3*%
%TO.N,SHUNT+*%
X125541100Y-102000000D03*
%TD*%
D13*
%TO.P,,1,1*%
%TO.N,GND*%
X170500000Y-86000000D03*
%TD*%
D14*
%TO.P,C5,+*%
%TO.N,V_RAW*%
X150501100Y-90003600D03*
D15*
%TO.P,C5,-*%
%TO.N,GND*%
X155501100Y-90003600D03*
%TD*%
D16*
%TO.P,J2,1*%
%TO.N,GND*%
X187041100Y-132353600D03*
D17*
%TO.P,J2,2*%
%TO.N,5V*%
X192541100Y-132353600D03*
%TO.P,J2,3*%
%TO.N,N$2*%
X187041100Y-128153600D03*
%TO.P,J2,4*%
%TO.N,N$4*%
X192541100Y-128153600D03*
%TO.P,J2,5*%
%TO.N,N$6*%
X187041100Y-123953600D03*
%TO.P,J2,6*%
%TO.N,N/C*%
X192541100Y-123953600D03*
%TD*%
D10*
%TO.P,Q6,1*%
%TO.N,N$16*%
X135461100Y-102000000D03*
%TO.P,Q6,2*%
%TO.N,COM_C*%
X138001100Y-102000000D03*
%TO.P,Q6,3*%
%TO.N,SHUNT+*%
X140541100Y-102000000D03*
%TD*%
D16*
%TO.P,J1,1*%
%TO.N,N/C*%
X187001100Y-83003600D03*
D17*
%TO.P,J1,2*%
%TO.N,5V*%
X192501100Y-83003600D03*
%TO.P,J1,3*%
%TO.N,N$7*%
X187001100Y-78803600D03*
%TO.P,J1,4*%
%TO.N,GND*%
X192501100Y-78803600D03*
%TD*%
D10*
%TO.P,Q2,1*%
%TO.N,N$11*%
X105461100Y-102000000D03*
%TO.P,Q2,2*%
%TO.N,COM_A*%
X108001100Y-102000000D03*
%TO.P,Q2,3*%
%TO.N,SHUNT+*%
X110541100Y-102000000D03*
%TD*%
D13*
%TO.P,,1,1*%
%TO.N,V_PREFUSE*%
X178500000Y-86000000D03*
%TD*%
D10*
%TO.P,Q1,1*%
%TO.N,N$5*%
X110541100Y-108000000D03*
%TO.P,Q1,2*%
%TO.N,V_RAW*%
X108001100Y-108000000D03*
%TO.P,Q1,3*%
%TO.N,COM_A*%
X105461100Y-108000000D03*
%TD*%
D14*
%TO.P,C4,+*%
%TO.N,V_RAW*%
X150501100Y-104003600D03*
D15*
%TO.P,C4,-*%
%TO.N,GND*%
X155501100Y-104003600D03*
%TD*%
D13*
%TO.P,,2,2*%
%TO.N,COM_B*%
X133100000Y-86000000D03*
%TD*%
D18*
%TO.P,U4,GND*%
%TO.N,GND*%
X152001100Y-133193600D03*
%TO.P,U4,IN*%
%TO.N,V_RAW*%
X149461100Y-133193600D03*
%TO.P,U4,OUT*%
%TO.N,5V*%
X154541100Y-133193600D03*
%TD*%
D10*
%TO.P,Q3,1*%
%TO.N,N$13*%
X125541100Y-108000000D03*
%TO.P,Q3,2*%
%TO.N,V_RAW*%
X123001100Y-108000000D03*
%TO.P,Q3,3*%
%TO.N,COM_B*%
X120461100Y-108000000D03*
%TD*%
D13*
%TO.P,,3,3*%
%TO.N,COM_A*%
X125200000Y-86000000D03*
%TD*%
D19*
%TO.P,J3,1A*%
%TO.N,V_PREFUSE*%
X178470000Y-94700000D03*
%TO.P,J3,1B*%
X178470000Y-91300000D03*
%TO.P,J3,2A*%
%TO.N,V_RAW*%
X165000000Y-94700000D03*
%TO.P,J3,2B*%
X165000000Y-91300000D03*
%TD*%
D13*
%TO.P,,1,1*%
%TO.N,COM_C*%
X141000000Y-86000000D03*
%TD*%
D20*
%TO.N,GND*%
X177501100Y-110503600D03*
X177501100Y-105503600D03*
X129501100Y-125503600D03*
X108501100Y-130503600D03*
X131001100Y-133003600D03*
X157501100Y-114003600D03*
X138501100Y-130503600D03*
X129501100Y-121503600D03*
X186501100Y-71503600D03*
X157501100Y-123003600D03*
X166501100Y-140503600D03*
X149501100Y-119503600D03*
X145501100Y-114503600D03*
X143501100Y-125503600D03*
X138501100Y-124503600D03*
X177501100Y-100503600D03*
X147501100Y-78503600D03*
X149501100Y-114503600D03*
X103501100Y-126503600D03*
X103501100Y-132503600D03*
X121001100Y-128003600D03*
X157501100Y-109003600D03*
X124501100Y-130503600D03*
X174000000Y-88500000D03*
X192501100Y-86503600D03*
X177501100Y-118503600D03*
X157501100Y-92503600D03*
X157501100Y-127003600D03*
X158501100Y-76003600D03*
X129501100Y-127503600D03*
X145001100Y-132303600D03*
X177501100Y-115503600D03*
X129501100Y-134803600D03*
X157501100Y-98503600D03*
X156501100Y-132503600D03*
X107001100Y-141303600D03*
X177501100Y-123503600D03*
X164501100Y-110503600D03*
X147501100Y-82003600D03*
X164501100Y-114503600D03*
X129501100Y-123503600D03*
X184501100Y-102503600D03*
X164501100Y-119503600D03*
X185501100Y-138500000D03*
X157501100Y-119003600D03*
X158501100Y-104003600D03*
X113001100Y-128003600D03*
X129501100Y-133503600D03*
X177501100Y-140503600D03*
X158501100Y-70503600D03*
X189501100Y-86503600D03*
X145501100Y-119503600D03*
X116501100Y-130503600D03*
D21*
%TO.N,COM_C*%
X124501100Y-120503600D03*
%TO.N,COM_B*%
X117001100Y-121003600D03*
%TO.N,COM_A*%
X109001100Y-120503600D03*
%TO.N,V_RAW*%
X150701100Y-127803600D03*
%TO.N,N$2*%
X190201100Y-124003600D03*
%TO.N,5V*%
X187201100Y-109803600D03*
X193001100Y-110003600D03*
X190001100Y-109803600D03*
D20*
%TO.N,V_PREFUSE*%
X177501100Y-95503600D03*
D21*
%TO.N,THROTTLE*%
X175001100Y-99000000D03*
X174201100Y-126203600D03*
%TO.N,10V*%
X117401100Y-132203600D03*
X129001100Y-132303600D03*
X125401100Y-132203600D03*
X109501100Y-132203600D03*
%TO.N,CTRL_CH*%
X124601100Y-135503600D03*
X166001100Y-113000000D03*
%TO.N,CTRL_CL*%
X123101100Y-135303600D03*
X167001100Y-115500000D03*
%TO.N,CTRL_BH*%
X116501100Y-135203600D03*
X168001100Y-108500000D03*
%TO.N,CTRL_BL*%
X115101100Y-135203600D03*
X169001100Y-111500000D03*
%TO.N,CTRL_AL*%
X107001100Y-135003600D03*
X171001100Y-106500000D03*
%TO.N,CTRL_AH*%
X170001100Y-104000000D03*
X108501100Y-135003600D03*
%TO.N,3.3V*%
X173001100Y-101000000D03*
X171101100Y-134903600D03*
%TO.N,N$9*%
X187201100Y-116003600D03*
%TO.N,N$10*%
X172001100Y-102000000D03*
X166000000Y-138000000D03*
%TO.N,ISENSE*%
X174001100Y-100000000D03*
X174001100Y-118203600D03*
D20*
%TO.N,SHUNT+*%
X147501100Y-73003600D03*
X151501100Y-70503600D03*
X147501100Y-70503600D03*
X145501100Y-73003600D03*
X149501100Y-70503600D03*
X149501100Y-75503600D03*
X145501100Y-75503600D03*
X147501100Y-75503600D03*
X145501100Y-70503600D03*
X151501100Y-75503600D03*
D21*
%TO.N,N$5*%
X107001100Y-120503600D03*
%TO.N,N$11*%
X110501100Y-121003600D03*
%TO.N,N$13*%
X115001100Y-121003600D03*
%TO.N,N$14*%
X118001100Y-120003600D03*
%TO.N,N$15*%
X123001100Y-120003600D03*
%TO.N,N$16*%
X127001100Y-121003600D03*
%TD*%
D22*
%TO.N,COM_C*%
X122001100Y-116500000D02*
X123001100Y-115500000D01*
X122001100Y-116500000D02*
X122001100Y-120503600D01*
X123001100Y-115500000D02*
X133000000Y-115500000D01*
X124001100Y-121003600D02*
X124501100Y-120503600D01*
X135461100Y-113038900D02*
X135461100Y-108000000D01*
X122001100Y-120503600D02*
X122501100Y-121003600D01*
X122501100Y-121003600D02*
X124001100Y-121003600D01*
X133000000Y-115500000D02*
X135461100Y-113038900D01*
%TO.N,COM_B*%
X119001100Y-113500000D02*
X119001100Y-113498900D01*
X119001100Y-113500000D02*
X119001100Y-120503600D01*
X119001100Y-113498900D02*
X120500000Y-112000000D01*
X120461100Y-111961100D02*
X120461100Y-108000000D01*
X120500000Y-112000000D02*
X120461100Y-111961100D01*
X118501100Y-121003600D02*
X117001100Y-121003600D01*
X119001100Y-120503600D02*
X118501100Y-121003600D01*
%TO.N,COM_A*%
X104001100Y-120503600D02*
X105001100Y-121503600D01*
X104001100Y-117000000D02*
X104001100Y-117500000D01*
X104001100Y-117500000D02*
X104001100Y-120503600D01*
X105461100Y-115040000D02*
X105461100Y-108000000D01*
X108001100Y-121503600D02*
X109001100Y-120503600D01*
X104001100Y-116500000D02*
X105461100Y-115040000D01*
X104001100Y-117000000D02*
X104001100Y-116500000D01*
X105001100Y-121503600D02*
X108001100Y-121503600D01*
%TO.N,V_RAW*%
X149461100Y-129043600D02*
X150701100Y-127803600D01*
X149461100Y-133193600D02*
X149461100Y-129043600D01*
%TO.N,N$2*%
X190201100Y-124993600D02*
X190201100Y-124003600D01*
X187041100Y-128153600D02*
X190201100Y-124993600D01*
%TO.N,5V*%
X192801100Y-109803600D02*
X193001100Y-110003600D01*
X190001100Y-109803600D02*
X192801100Y-109803600D01*
X187201100Y-109803600D02*
X190001100Y-109803600D01*
D23*
%TO.N,THROTTLE*%
X175001100Y-119003600D02*
X174001100Y-120003600D01*
X175001100Y-99000000D02*
X175001100Y-119003600D01*
X174001100Y-120003600D02*
X174001100Y-126003600D01*
X174001100Y-126003600D02*
X174201100Y-126203600D01*
D24*
%TO.N,10V*%
X109501100Y-132203600D02*
X117401100Y-132203600D01*
X125401100Y-132203600D02*
X128901100Y-132203600D01*
X117401100Y-132203600D02*
X125401100Y-132203600D01*
D22*
X128901100Y-132203600D02*
X129001100Y-132303600D01*
%TO.N,CTRL_CH*%
X160704700Y-128000000D02*
X158101100Y-130603600D01*
X158101100Y-130603600D02*
X158101100Y-132903600D01*
X166001100Y-126003600D02*
X164004700Y-128000000D01*
X155001100Y-136003600D02*
X125101100Y-136003600D01*
X166001100Y-113000000D02*
X166001100Y-126003600D01*
X158101100Y-132903600D02*
X155001100Y-136003600D01*
X125101100Y-136003600D02*
X124601100Y-135503600D01*
X164004700Y-128000000D02*
X160704700Y-128000000D01*
%TO.N,CTRL_CL*%
X167001100Y-128003600D02*
X167001100Y-115500000D01*
X155401100Y-137003600D02*
X159001100Y-133403600D01*
X159001100Y-130803600D02*
X159304700Y-130500000D01*
X164504700Y-130500000D02*
X167001100Y-128003600D01*
X123101100Y-136103600D02*
X124001100Y-137003600D01*
X123101100Y-135303600D02*
X123101100Y-136103600D01*
X124001100Y-137003600D02*
X155401100Y-137003600D01*
X159001100Y-133403600D02*
X159001100Y-130803600D01*
X159304700Y-130500000D02*
X164504700Y-130500000D01*
%TO.N,CTRL_BH*%
X160500000Y-133000000D02*
X164004700Y-133000000D01*
X117001100Y-138003600D02*
X156001100Y-138003600D01*
X168001100Y-129003600D02*
X168001100Y-108500000D01*
X116501100Y-137503600D02*
X117001100Y-138003600D01*
X116501100Y-135203600D02*
X116501100Y-137503600D01*
X156001100Y-138003600D02*
X159801100Y-134203600D01*
X164004700Y-133000000D02*
X168001100Y-129003600D01*
X160500000Y-133000000D02*
X159801100Y-133698900D01*
X159801100Y-133698900D02*
X159801100Y-134203600D01*
%TO.N,CTRL_BL*%
X163504700Y-135500000D02*
X169000000Y-130004700D01*
X115101100Y-135203600D02*
X115101100Y-138103600D01*
X169000000Y-130004700D02*
X169001100Y-130003600D01*
X115101100Y-138103600D02*
X116001100Y-139003600D01*
X169000000Y-111501100D02*
X169001100Y-111500000D01*
X159001100Y-137003600D02*
X159001100Y-136003600D01*
X159504700Y-135500000D02*
X163504700Y-135500000D01*
X157001100Y-139003600D02*
X159001100Y-137003600D01*
X169000000Y-130004700D02*
X169000000Y-111501100D01*
X116001100Y-139003600D02*
X157001100Y-139003600D01*
X159001100Y-136003600D02*
X159504700Y-135500000D01*
%TO.N,CTRL_AL*%
X164901100Y-139003600D02*
X164901100Y-138103600D01*
X159296461Y-140708239D02*
X163196461Y-140708239D01*
X159001100Y-141003600D02*
X159296461Y-140708239D01*
X107001100Y-135003600D02*
X113001100Y-141003600D01*
X163196461Y-140708239D02*
X164901100Y-139003600D01*
X113001100Y-141003600D02*
X159001100Y-141003600D01*
X164901100Y-138103600D02*
X171001100Y-132003600D01*
X171001100Y-132003600D02*
X171001100Y-106500000D01*
%TO.N,CTRL_AH*%
X159001100Y-138503600D02*
X159504700Y-138000000D01*
X158001100Y-140003600D02*
X159001100Y-139003600D01*
X159001100Y-139003600D02*
X159001100Y-138503600D01*
X113501100Y-140003600D02*
X158001100Y-140003600D01*
X164146403Y-138000000D02*
X170001100Y-132145303D01*
X108501100Y-135003600D02*
X113501100Y-140003600D01*
X170001100Y-132145303D02*
X170001100Y-104000000D01*
X159504700Y-138000000D02*
X164146403Y-138000000D01*
%TO.N,3.3V*%
X173001100Y-132998900D02*
X171101100Y-134898900D01*
X173001100Y-101000000D02*
X173001100Y-132998900D01*
X171101100Y-134898900D02*
X171101100Y-134903600D01*
%TO.N,N$9*%
X191191700Y-116003600D02*
X187201100Y-116003600D01*
X193052300Y-117864200D02*
X191191700Y-116003600D01*
D23*
%TO.N,N$10*%
X169601100Y-135003600D02*
X168996400Y-135003600D01*
X172001100Y-102000000D02*
X172001100Y-132603600D01*
X172001100Y-132603600D02*
X169601100Y-135003600D01*
X168996400Y-135003600D02*
X166000000Y-138000000D01*
%TO.N,ISENSE*%
X174001100Y-100000000D02*
X174001100Y-118203600D01*
D22*
%TO.N,N$5*%
X105500000Y-118501100D02*
X105001100Y-119000000D01*
X105001100Y-119000000D02*
X105001100Y-120003600D01*
X105500000Y-118500000D02*
X105500000Y-118501100D01*
X105500000Y-118500000D02*
X108000000Y-118500000D01*
X105501100Y-120503600D02*
X107001100Y-120503600D01*
X110541100Y-115958900D02*
X110541100Y-108000000D01*
X105001100Y-120003600D02*
X105501100Y-120503600D01*
X108000000Y-118500000D02*
X110541100Y-115958900D01*
%TO.N,N$11*%
X103001100Y-104460000D02*
X105461100Y-102000000D01*
X103001100Y-110000000D02*
X103001100Y-104460000D01*
X103001100Y-121003600D02*
X104501100Y-122503600D01*
X103001100Y-110000000D02*
X103001100Y-121003600D01*
X109001100Y-122503600D02*
X110501100Y-121003600D01*
X104501100Y-122503600D02*
X109001100Y-122503600D01*
%TO.N,N$13*%
X119001100Y-122003600D02*
X116001100Y-122003600D01*
X120001100Y-114500000D02*
X120001100Y-121003600D01*
X120001100Y-114500000D02*
X120001100Y-114498900D01*
X122000000Y-112500000D02*
X124500000Y-112500000D01*
X124500000Y-112500000D02*
X125541100Y-111458900D01*
X120001100Y-114498900D02*
X122000000Y-112500000D01*
X120001100Y-121003600D02*
X119001100Y-122003600D01*
X125541100Y-111458900D02*
X125541100Y-108000000D01*
X121000000Y-113500000D02*
X122000000Y-112500000D01*
X116001100Y-122003600D02*
X115001100Y-121003600D01*
%TO.N,N$14*%
X118002350Y-104650342D02*
X120556896Y-102095796D01*
X118002350Y-97002350D02*
X118001100Y-97003600D01*
X120501100Y-101503600D02*
X120001100Y-102003600D01*
X118002350Y-105500000D02*
X118002350Y-120002350D01*
X118002350Y-120002350D02*
X118001100Y-120003600D01*
X118002350Y-105500000D02*
X118002350Y-104650342D01*
%TO.N,N$15*%
X123001100Y-118000000D02*
X123001100Y-117498900D01*
X123001100Y-117498900D02*
X124000000Y-116500000D01*
X140541100Y-113958900D02*
X140541100Y-108000000D01*
X123001100Y-118000000D02*
X123001100Y-120003600D01*
X138000000Y-116500000D02*
X140541100Y-113958900D01*
X124000000Y-116500000D02*
X138000000Y-116500000D01*
%TO.N,N$16*%
X121001100Y-115500000D02*
X122500000Y-114001100D01*
X121001100Y-115500000D02*
X121001100Y-121003600D01*
X122500000Y-114001100D02*
X122500000Y-114000000D01*
X121001100Y-121003600D02*
X122001100Y-122003600D01*
X126001100Y-122003600D02*
X127001100Y-121003600D01*
X130000000Y-114000000D02*
X133000000Y-111000000D01*
X122001100Y-122003600D02*
X126001100Y-122003600D01*
X122500000Y-114000000D02*
X130000000Y-114000000D01*
X133000000Y-111000000D02*
X133000000Y-104461100D01*
X133000000Y-104461100D02*
X135461100Y-102000000D01*
%TD*%
%TA.AperFunction,Conductor*%
%TO.N,SHUNT+*%
G36*
X152162831Y-69819613D02*
G01*
X152199376Y-69869913D01*
X152204300Y-69901000D01*
X152204300Y-76106200D01*
X152185087Y-76165331D01*
X152134787Y-76201876D01*
X152103700Y-76206800D01*
X146204300Y-76206800D01*
X146204300Y-104106200D01*
X146185087Y-104165331D01*
X146134787Y-104201876D01*
X146103700Y-104206800D01*
X138556019Y-104206800D01*
X138496888Y-104187587D01*
X138460343Y-104137287D01*
X138460343Y-104075113D01*
X138496888Y-104024813D01*
X138510347Y-104016565D01*
X138578247Y-103981967D01*
X138663659Y-103938448D01*
X138824638Y-103821490D01*
X138965340Y-103680788D01*
X139082298Y-103519809D01*
X139172634Y-103342515D01*
X139234122Y-103153272D01*
X139265250Y-102956741D01*
X139265250Y-101043259D01*
X139265250Y-101043255D01*
X139265249Y-101043254D01*
X139234122Y-100846728D01*
X139234119Y-100846718D01*
X139172634Y-100657484D01*
X139082302Y-100480199D01*
X139082298Y-100480191D01*
X138965340Y-100319212D01*
X138824638Y-100178510D01*
X138824636Y-100178508D01*
X138730482Y-100110102D01*
X138663659Y-100061552D01*
X138663653Y-100061549D01*
X138663650Y-100061547D01*
X138486365Y-99971215D01*
X138297131Y-99909730D01*
X138297117Y-99909727D01*
X138100595Y-99878600D01*
X138100591Y-99878600D01*
X137901609Y-99878600D01*
X137901605Y-99878600D01*
X137705082Y-99909727D01*
X137705068Y-99909730D01*
X137515834Y-99971215D01*
X137338549Y-100061547D01*
X137338538Y-100061554D01*
X137177563Y-100178508D01*
X137036858Y-100319213D01*
X136919904Y-100480188D01*
X136919897Y-100480199D01*
X136829566Y-100657483D01*
X136826776Y-100666071D01*
X136790230Y-100716371D01*
X136731099Y-100735583D01*
X136671968Y-100716369D01*
X136635424Y-100666071D01*
X136632633Y-100657483D01*
X136542302Y-100480199D01*
X136542298Y-100480191D01*
X136425340Y-100319212D01*
X136284638Y-100178510D01*
X136284636Y-100178508D01*
X136190482Y-100110102D01*
X136123659Y-100061552D01*
X136123653Y-100061549D01*
X136123650Y-100061547D01*
X135946365Y-99971215D01*
X135757131Y-99909730D01*
X135757117Y-99909727D01*
X135560595Y-99878600D01*
X135560591Y-99878600D01*
X135361609Y-99878600D01*
X135361605Y-99878600D01*
X135165082Y-99909727D01*
X135165068Y-99909730D01*
X134975834Y-99971215D01*
X134798549Y-100061547D01*
X134798538Y-100061554D01*
X134637563Y-100178508D01*
X134496858Y-100319213D01*
X134379904Y-100480188D01*
X134379897Y-100480199D01*
X134289565Y-100657484D01*
X134228080Y-100846718D01*
X134228077Y-100846732D01*
X134196950Y-101043254D01*
X134196950Y-102431511D01*
X134177737Y-102490642D01*
X134167485Y-102502646D01*
X132656582Y-104013549D01*
X132552449Y-104117682D01*
X132530036Y-104156501D01*
X132483834Y-104198102D01*
X132442916Y-104206800D01*
X123556019Y-104206800D01*
X123496888Y-104187587D01*
X123460343Y-104137287D01*
X123460343Y-104075113D01*
X123496888Y-104024813D01*
X123510347Y-104016565D01*
X123578247Y-103981967D01*
X123663659Y-103938448D01*
X123824638Y-103821490D01*
X123965340Y-103680788D01*
X124082298Y-103519809D01*
X124172634Y-103342515D01*
X124234122Y-103153272D01*
X124265250Y-102956741D01*
X124265250Y-101043259D01*
X124265250Y-101043255D01*
X124265249Y-101043254D01*
X124234122Y-100846728D01*
X124234119Y-100846718D01*
X124172634Y-100657484D01*
X124082302Y-100480199D01*
X124082298Y-100480191D01*
X123965340Y-100319212D01*
X123824638Y-100178510D01*
X123824636Y-100178508D01*
X123730482Y-100110102D01*
X123663659Y-100061552D01*
X123663653Y-100061549D01*
X123663650Y-100061547D01*
X123486365Y-99971215D01*
X123297131Y-99909730D01*
X123297117Y-99909727D01*
X123100595Y-99878600D01*
X123100591Y-99878600D01*
X122901609Y-99878600D01*
X122901605Y-99878600D01*
X122705082Y-99909727D01*
X122705068Y-99909730D01*
X122515834Y-99971215D01*
X122338549Y-100061547D01*
X122338538Y-100061554D01*
X122177563Y-100178508D01*
X122036858Y-100319213D01*
X121919904Y-100480188D01*
X121919897Y-100480199D01*
X121829566Y-100657483D01*
X121826776Y-100666071D01*
X121790230Y-100716371D01*
X121731099Y-100735583D01*
X121671968Y-100716369D01*
X121635424Y-100666071D01*
X121632633Y-100657483D01*
X121542302Y-100480199D01*
X121542298Y-100480191D01*
X121425340Y-100319212D01*
X121284638Y-100178510D01*
X121284636Y-100178508D01*
X121190482Y-100110102D01*
X121123659Y-100061552D01*
X121123653Y-100061549D01*
X121123650Y-100061547D01*
X120946365Y-99971215D01*
X120757131Y-99909730D01*
X120757117Y-99909727D01*
X120560595Y-99878600D01*
X120560591Y-99878600D01*
X120361609Y-99878600D01*
X120361605Y-99878600D01*
X120165082Y-99909727D01*
X120165068Y-99909730D01*
X119975834Y-99971215D01*
X119798549Y-100061547D01*
X119798538Y-100061554D01*
X119637563Y-100178508D01*
X119496858Y-100319213D01*
X119379904Y-100480188D01*
X119379897Y-100480199D01*
X119289565Y-100657484D01*
X119228080Y-100846718D01*
X119228077Y-100846732D01*
X119196950Y-101043254D01*
X119196950Y-102623103D01*
X119177737Y-102682234D01*
X119167485Y-102694238D01*
X117684388Y-104177335D01*
X117628990Y-104205561D01*
X117613253Y-104206800D01*
X108898500Y-104206800D01*
X108839369Y-104187587D01*
X108802824Y-104137287D01*
X108797900Y-104106200D01*
X108797900Y-103889898D01*
X108817113Y-103830767D01*
X108827365Y-103818763D01*
X108885221Y-103760907D01*
X108965340Y-103680788D01*
X109082298Y-103519809D01*
X109172634Y-103342515D01*
X109234122Y-103153272D01*
X109265250Y-102956741D01*
X109265250Y-101043259D01*
X109265250Y-101043255D01*
X109265249Y-101043254D01*
X109234122Y-100846728D01*
X109234119Y-100846718D01*
X109172634Y-100657484D01*
X109082302Y-100480199D01*
X109082298Y-100480191D01*
X108965340Y-100319212D01*
X108827365Y-100181237D01*
X108799139Y-100125839D01*
X108797900Y-100110102D01*
X108797900Y-96901000D01*
X108817113Y-96841869D01*
X108867413Y-96805324D01*
X108898500Y-96800400D01*
X117345412Y-96800400D01*
X117404543Y-96819613D01*
X117441088Y-96869913D01*
X117442489Y-96923403D01*
X117442661Y-96923426D01*
X117442518Y-96924506D01*
X117442585Y-96927033D01*
X117441801Y-96929959D01*
X117441800Y-96929967D01*
X117441800Y-97077235D01*
X117479917Y-97219484D01*
X117552827Y-97345768D01*
X117553549Y-97347018D01*
X117657682Y-97451151D01*
X117657684Y-97451152D01*
X117785215Y-97524782D01*
X117785219Y-97524784D01*
X117927467Y-97562900D01*
X118074733Y-97562900D01*
X118216981Y-97524784D01*
X118344518Y-97451151D01*
X118449901Y-97345768D01*
X118523535Y-97218231D01*
X118561650Y-97075983D01*
X118561650Y-96928717D01*
X118561201Y-96927040D01*
X118561265Y-96925800D01*
X118560789Y-96922178D01*
X118561460Y-96922089D01*
X118564453Y-96864951D01*
X118603579Y-96816631D01*
X118658372Y-96800400D01*
X137797900Y-96800400D01*
X137797900Y-87563453D01*
X137817113Y-87504322D01*
X137867413Y-87467777D01*
X137929587Y-87467777D01*
X137969635Y-87492318D01*
X138015793Y-87538476D01*
X138228147Y-87701420D01*
X138312991Y-87750405D01*
X138459950Y-87835253D01*
X138707242Y-87937684D01*
X138707244Y-87937685D01*
X138796549Y-87961614D01*
X138965790Y-88006962D01*
X139186937Y-88036077D01*
X139231166Y-88041900D01*
X139231167Y-88041900D01*
X142768834Y-88041900D01*
X142806744Y-88036908D01*
X143034210Y-88006962D01*
X143292755Y-87937685D01*
X143540047Y-87835254D01*
X143771853Y-87701420D01*
X143984207Y-87538476D01*
X144173476Y-87349207D01*
X144336420Y-87136853D01*
X144470254Y-86905047D01*
X144572685Y-86657755D01*
X144641962Y-86399210D01*
X144676900Y-86133833D01*
X144676900Y-85866167D01*
X144641962Y-85600790D01*
X144572685Y-85342245D01*
X144470254Y-85094953D01*
X144470253Y-85094950D01*
X144336419Y-84863146D01*
X144173476Y-84650793D01*
X143984206Y-84461523D01*
X143771853Y-84298580D01*
X143540049Y-84164746D01*
X143292757Y-84062315D01*
X143292755Y-84062314D01*
X143034212Y-83993038D01*
X143034204Y-83993037D01*
X142768834Y-83958100D01*
X142768833Y-83958100D01*
X139231167Y-83958100D01*
X139231166Y-83958100D01*
X138965795Y-83993037D01*
X138965787Y-83993038D01*
X138707244Y-84062314D01*
X138707242Y-84062315D01*
X138459950Y-84164746D01*
X138228146Y-84298580D01*
X138015793Y-84461523D01*
X137969635Y-84507682D01*
X137914237Y-84535908D01*
X137852829Y-84526182D01*
X137808865Y-84482218D01*
X137797900Y-84436547D01*
X137797900Y-69901000D01*
X137817113Y-69841869D01*
X137867413Y-69805324D01*
X137898500Y-69800400D01*
X152103700Y-69800400D01*
X152162831Y-69819613D01*
G37*
%TD.AperFunction*%
%TD*%
%TA.AperFunction,Conductor*%
%TO.N,GND*%
G36*
X166386871Y-126507104D02*
G01*
X166430835Y-126551068D01*
X166441800Y-126596739D01*
X166441800Y-127730261D01*
X166422587Y-127789392D01*
X166412335Y-127801396D01*
X164302496Y-129911235D01*
X164247098Y-129939461D01*
X164231361Y-129940700D01*
X159797839Y-129940700D01*
X159738708Y-129921487D01*
X159702163Y-129871187D01*
X159702163Y-129809013D01*
X159726704Y-129768965D01*
X160249866Y-129245804D01*
X160906905Y-128588765D01*
X160962303Y-128560539D01*
X160978040Y-128559300D01*
X164078331Y-128559300D01*
X164078333Y-128559300D01*
X164220582Y-128521184D01*
X164348118Y-128447551D01*
X164452251Y-128343418D01*
X166270065Y-126525604D01*
X166325463Y-126497378D01*
X166386871Y-126507104D01*
G37*
%TD.AperFunction*%
%TA.AperFunction,Conductor*%
G36*
X122482600Y-67029101D02*
G01*
X122489420Y-67029100D01*
X122489421Y-67029101D01*
X192983807Y-67025646D01*
X192992668Y-67025646D01*
X192992669Y-67025647D01*
X192998334Y-67025647D01*
X193003589Y-67025784D01*
X193306616Y-67041651D01*
X193317086Y-67042750D01*
X193614200Y-67089796D01*
X193624497Y-67091985D01*
X193915063Y-67169830D01*
X193925073Y-67173082D01*
X194205913Y-67280875D01*
X194215517Y-67285150D01*
X194449994Y-67404613D01*
X194483557Y-67421713D01*
X194492677Y-67426979D01*
X194744967Y-67590810D01*
X194753486Y-67596999D01*
X194987256Y-67786293D01*
X194995082Y-67793339D01*
X195207791Y-68006041D01*
X195214836Y-68013865D01*
X195404154Y-68247648D01*
X195410332Y-68256151D01*
X195566302Y-68496318D01*
X195574171Y-68508435D01*
X195579436Y-68517555D01*
X195716002Y-68785581D01*
X195720285Y-68795200D01*
X195828085Y-69076029D01*
X195831339Y-69086044D01*
X195909192Y-69376599D01*
X195911382Y-69386900D01*
X195958438Y-69684016D01*
X195959538Y-69694488D01*
X195975462Y-69998409D01*
X195975600Y-70003673D01*
X195975600Y-146997368D01*
X195975462Y-147002633D01*
X195959580Y-147305658D01*
X195958479Y-147316130D01*
X195911425Y-147613222D01*
X195909236Y-147623522D01*
X195831382Y-147914077D01*
X195828128Y-147924092D01*
X195720329Y-148204919D01*
X195716046Y-148214538D01*
X195579488Y-148482548D01*
X195574223Y-148491668D01*
X195410394Y-148743942D01*
X195404205Y-148752461D01*
X195214900Y-148986233D01*
X195207854Y-148994058D01*
X194995158Y-149206754D01*
X194987333Y-149213800D01*
X194753561Y-149403105D01*
X194745042Y-149409294D01*
X194492768Y-149573123D01*
X194483648Y-149578388D01*
X194215638Y-149714946D01*
X194206019Y-149719229D01*
X193925192Y-149827028D01*
X193915177Y-149830282D01*
X193624622Y-149908136D01*
X193614322Y-149910325D01*
X193317230Y-149957379D01*
X193306758Y-149958480D01*
X193003733Y-149974362D01*
X192998468Y-149974500D01*
X104002689Y-149974500D01*
X103997423Y-149974362D01*
X103988649Y-149973902D01*
X103694398Y-149958476D01*
X103683926Y-149957375D01*
X103386834Y-149910315D01*
X103376534Y-149908126D01*
X103085976Y-149830267D01*
X103075962Y-149827013D01*
X102795143Y-149719212D01*
X102785523Y-149714929D01*
X102517498Y-149578359D01*
X102508383Y-149573095D01*
X102256114Y-149409263D01*
X102247599Y-149403077D01*
X102187592Y-149354483D01*
X102013829Y-149213767D01*
X102006005Y-149206722D01*
X101793308Y-148994018D01*
X101786262Y-148986192D01*
X101715170Y-148898398D01*
X101596958Y-148752412D01*
X101590783Y-148743913D01*
X101426947Y-148491617D01*
X101421696Y-148482523D01*
X101285126Y-148214478D01*
X101280853Y-148204880D01*
X101173051Y-147924032D01*
X101169805Y-147914041D01*
X101091951Y-147623467D01*
X101089764Y-147613174D01*
X101042710Y-147316052D01*
X101041613Y-147305611D01*
X101025692Y-147001717D01*
X101025555Y-146996460D01*
X101025555Y-146991660D01*
X101025557Y-146868878D01*
X101999500Y-146868878D01*
X101999500Y-147131121D01*
X102033729Y-147391114D01*
X102033732Y-147391128D01*
X102101601Y-147644419D01*
X102101602Y-147644421D01*
X102201956Y-147886696D01*
X102333073Y-148113799D01*
X102333075Y-148113802D01*
X102333076Y-148113803D01*
X102492718Y-148321851D01*
X102678149Y-148507282D01*
X102864229Y-148650067D01*
X102886200Y-148666926D01*
X103113303Y-148798043D01*
X103355578Y-148898397D01*
X103355580Y-148898398D01*
X103608871Y-148966267D01*
X103608880Y-148966268D01*
X103608884Y-148966270D01*
X103738882Y-148983385D01*
X103868879Y-149000500D01*
X103868880Y-149000500D01*
X104131121Y-149000500D01*
X104239797Y-148986192D01*
X104391116Y-148966270D01*
X104391123Y-148966267D01*
X104391128Y-148966267D01*
X104644419Y-148898398D01*
X104644421Y-148898397D01*
X104886697Y-148798043D01*
X105113803Y-148666924D01*
X105321851Y-148507282D01*
X105507282Y-148321851D01*
X105666924Y-148113803D01*
X105798043Y-147886697D01*
X105898398Y-147644419D01*
X105944090Y-147473894D01*
X105966267Y-147391128D01*
X105966270Y-147391114D01*
X105976151Y-147316068D01*
X106000500Y-147131120D01*
X106000500Y-146908945D01*
X161684200Y-146908945D01*
X161684200Y-147091054D01*
X161712686Y-147270903D01*
X161712689Y-147270917D01*
X161768958Y-147444095D01*
X161851631Y-147606349D01*
X161851632Y-147606350D01*
X161958664Y-147753668D01*
X162087431Y-147882435D01*
X162234749Y-147989467D01*
X162234750Y-147989468D01*
X162397004Y-148072141D01*
X162570182Y-148128410D01*
X162570184Y-148128410D01*
X162570192Y-148128413D01*
X162750045Y-148156899D01*
X162750047Y-148156900D01*
X162750050Y-148156900D01*
X162932153Y-148156900D01*
X162932153Y-148156899D01*
X163112008Y-148128413D01*
X163285195Y-148072141D01*
X163447448Y-147989469D01*
X163594770Y-147882434D01*
X163723534Y-147753670D01*
X163830569Y-147606348D01*
X163913241Y-147444095D01*
X163969513Y-147270908D01*
X163998000Y-147091050D01*
X163998000Y-146908950D01*
X163998000Y-146908946D01*
X163997999Y-146908943D01*
X163979357Y-146791238D01*
X163977489Y-146779447D01*
X167855600Y-146779447D01*
X167855600Y-146960552D01*
X167883927Y-147139402D01*
X167883931Y-147139418D01*
X167939888Y-147311639D01*
X168007379Y-147444095D01*
X168022104Y-147472994D01*
X168022748Y-147473880D01*
X168128545Y-147619499D01*
X168256600Y-147747554D01*
X168265018Y-147753670D01*
X168403106Y-147853996D01*
X168403114Y-147854000D01*
X168564460Y-147936211D01*
X168736681Y-147992168D01*
X168736684Y-147992168D01*
X168736691Y-147992171D01*
X168736696Y-147992171D01*
X168736697Y-147992172D01*
X168915547Y-148020499D01*
X168915552Y-148020500D01*
X168915554Y-148020500D01*
X169096648Y-148020500D01*
X169096652Y-148020499D01*
X169275509Y-147992171D01*
X169447739Y-147936211D01*
X169609094Y-147853996D01*
X169755601Y-147747553D01*
X169883653Y-147619501D01*
X169990096Y-147472994D01*
X170072311Y-147311639D01*
X170128271Y-147139409D01*
X170156600Y-146960546D01*
X170156600Y-146779454D01*
X170156599Y-146779447D01*
X173305600Y-146779447D01*
X173305600Y-146960552D01*
X173333927Y-147139402D01*
X173333931Y-147139418D01*
X173389888Y-147311639D01*
X173457379Y-147444095D01*
X173472104Y-147472994D01*
X173472748Y-147473880D01*
X173578545Y-147619499D01*
X173706600Y-147747554D01*
X173715018Y-147753670D01*
X173853106Y-147853996D01*
X173853114Y-147854000D01*
X174014460Y-147936211D01*
X174186681Y-147992168D01*
X174186684Y-147992168D01*
X174186691Y-147992171D01*
X174186696Y-147992171D01*
X174186697Y-147992172D01*
X174365547Y-148020499D01*
X174365552Y-148020500D01*
X174365554Y-148020500D01*
X174546648Y-148020500D01*
X174546652Y-148020499D01*
X174725509Y-147992171D01*
X174897739Y-147936211D01*
X175059094Y-147853996D01*
X175205601Y-147747553D01*
X175333653Y-147619501D01*
X175440096Y-147472994D01*
X175522311Y-147311639D01*
X175578271Y-147139409D01*
X175606600Y-146960546D01*
X175606600Y-146908945D01*
X179464200Y-146908945D01*
X179464200Y-147091054D01*
X179492686Y-147270903D01*
X179492689Y-147270917D01*
X179548958Y-147444095D01*
X179631631Y-147606349D01*
X179631632Y-147606350D01*
X179738664Y-147753668D01*
X179867431Y-147882435D01*
X180014749Y-147989467D01*
X180014750Y-147989468D01*
X180177004Y-148072141D01*
X180350182Y-148128410D01*
X180350184Y-148128410D01*
X180350192Y-148128413D01*
X180530045Y-148156899D01*
X180530047Y-148156900D01*
X180530050Y-148156900D01*
X180712153Y-148156900D01*
X180712153Y-148156899D01*
X180892008Y-148128413D01*
X181065195Y-148072141D01*
X181227448Y-147989469D01*
X181374770Y-147882434D01*
X181503534Y-147753670D01*
X181610569Y-147606348D01*
X181693241Y-147444095D01*
X181749513Y-147270908D01*
X181778000Y-147091050D01*
X181778000Y-146908950D01*
X181778000Y-146908946D01*
X181777999Y-146908945D01*
X181773625Y-146881325D01*
X181771654Y-146868878D01*
X190999500Y-146868878D01*
X190999500Y-147131121D01*
X191033729Y-147391114D01*
X191033732Y-147391128D01*
X191101601Y-147644419D01*
X191101602Y-147644421D01*
X191201956Y-147886696D01*
X191333073Y-148113799D01*
X191333075Y-148113802D01*
X191333076Y-148113803D01*
X191492718Y-148321851D01*
X191678149Y-148507282D01*
X191864229Y-148650067D01*
X191886200Y-148666926D01*
X192113303Y-148798043D01*
X192355578Y-148898397D01*
X192355580Y-148898398D01*
X192608871Y-148966267D01*
X192608880Y-148966268D01*
X192608884Y-148966270D01*
X192738882Y-148983385D01*
X192868879Y-149000500D01*
X192868880Y-149000500D01*
X193131121Y-149000500D01*
X193239797Y-148986192D01*
X193391116Y-148966270D01*
X193391123Y-148966267D01*
X193391128Y-148966267D01*
X193644419Y-148898398D01*
X193644421Y-148898397D01*
X193886697Y-148798043D01*
X194113803Y-148666924D01*
X194321851Y-148507282D01*
X194507282Y-148321851D01*
X194666924Y-148113803D01*
X194798043Y-147886697D01*
X194898398Y-147644419D01*
X194944090Y-147473894D01*
X194966267Y-147391128D01*
X194966270Y-147391114D01*
X194976151Y-147316068D01*
X195000500Y-147131120D01*
X195000500Y-146868880D01*
X194966270Y-146608884D01*
X194964045Y-146600581D01*
X194898398Y-146355580D01*
X194898397Y-146355578D01*
X194798043Y-146113303D01*
X194666926Y-145886200D01*
X194666772Y-145885999D01*
X194507282Y-145678149D01*
X194321851Y-145492718D01*
X194113803Y-145333076D01*
X194113802Y-145333075D01*
X194113799Y-145333073D01*
X193886696Y-145201956D01*
X193644421Y-145101602D01*
X193644419Y-145101601D01*
X193391128Y-145033732D01*
X193391114Y-145033729D01*
X193131121Y-144999500D01*
X193131120Y-144999500D01*
X192868880Y-144999500D01*
X192868879Y-144999500D01*
X192608885Y-145033729D01*
X192608871Y-145033732D01*
X192355580Y-145101601D01*
X192355578Y-145101602D01*
X192113303Y-145201956D01*
X191886200Y-145333073D01*
X191678145Y-145492721D01*
X191492721Y-145678145D01*
X191333073Y-145886200D01*
X191201956Y-146113303D01*
X191101602Y-146355578D01*
X191101601Y-146355580D01*
X191033732Y-146608871D01*
X191033729Y-146608885D01*
X190999500Y-146868878D01*
X181771654Y-146868878D01*
X181759356Y-146791238D01*
X181749513Y-146729092D01*
X181749510Y-146729082D01*
X181693241Y-146555904D01*
X181610568Y-146393650D01*
X181610567Y-146393649D01*
X181503535Y-146246331D01*
X181374768Y-146117564D01*
X181227450Y-146010532D01*
X181227449Y-146010531D01*
X181065195Y-145927858D01*
X180892017Y-145871589D01*
X180892003Y-145871586D01*
X180712154Y-145843100D01*
X180712150Y-145843100D01*
X180530050Y-145843100D01*
X180530046Y-145843100D01*
X180350196Y-145871586D01*
X180350182Y-145871589D01*
X180177004Y-145927858D01*
X180014750Y-146010531D01*
X180014749Y-146010532D01*
X179867431Y-146117564D01*
X179738664Y-146246331D01*
X179631632Y-146393649D01*
X179631631Y-146393650D01*
X179548958Y-146555904D01*
X179492689Y-146729082D01*
X179492686Y-146729096D01*
X179464200Y-146908945D01*
X175606600Y-146908945D01*
X175606600Y-146779454D01*
X175598623Y-146729092D01*
X175578272Y-146600597D01*
X175578271Y-146600596D01*
X175578271Y-146600591D01*
X175522311Y-146428361D01*
X175522311Y-146428360D01*
X175440100Y-146267014D01*
X175440096Y-146267006D01*
X175333653Y-146120499D01*
X175205601Y-145992447D01*
X175205599Y-145992445D01*
X175116701Y-145927858D01*
X175059094Y-145886004D01*
X175059088Y-145886001D01*
X175059085Y-145885999D01*
X174897739Y-145803788D01*
X174725518Y-145747831D01*
X174725502Y-145747827D01*
X174546652Y-145719500D01*
X174546646Y-145719500D01*
X174365554Y-145719500D01*
X174365547Y-145719500D01*
X174186697Y-145747827D01*
X174186681Y-145747831D01*
X174014460Y-145803788D01*
X173853114Y-145885999D01*
X173853103Y-145886006D01*
X173706600Y-145992445D01*
X173578545Y-146120500D01*
X173472106Y-146267003D01*
X173472099Y-146267014D01*
X173389888Y-146428360D01*
X173333931Y-146600581D01*
X173333927Y-146600597D01*
X173305600Y-146779447D01*
X170156599Y-146779447D01*
X170148623Y-146729092D01*
X170128272Y-146600597D01*
X170128271Y-146600596D01*
X170128271Y-146600591D01*
X170072311Y-146428361D01*
X170072311Y-146428360D01*
X169990100Y-146267014D01*
X169990096Y-146267006D01*
X169883653Y-146120499D01*
X169755601Y-145992447D01*
X169755599Y-145992445D01*
X169666701Y-145927858D01*
X169609094Y-145886004D01*
X169609088Y-145886001D01*
X169609085Y-145885999D01*
X169447739Y-145803788D01*
X169275518Y-145747831D01*
X169275502Y-145747827D01*
X169096652Y-145719500D01*
X169096646Y-145719500D01*
X168915554Y-145719500D01*
X168915547Y-145719500D01*
X168736697Y-145747827D01*
X168736681Y-145747831D01*
X168564460Y-145803788D01*
X168403114Y-145885999D01*
X168403103Y-145886006D01*
X168256600Y-145992445D01*
X168128545Y-146120500D01*
X168022106Y-146267003D01*
X168022099Y-146267014D01*
X167939888Y-146428360D01*
X167883931Y-146600581D01*
X167883927Y-146600597D01*
X167855600Y-146779447D01*
X163977489Y-146779447D01*
X163973476Y-146754117D01*
X163969513Y-146729092D01*
X163969510Y-146729082D01*
X163913241Y-146555904D01*
X163830568Y-146393650D01*
X163830567Y-146393649D01*
X163723535Y-146246331D01*
X163594768Y-146117564D01*
X163447450Y-146010532D01*
X163447449Y-146010531D01*
X163285195Y-145927858D01*
X163112017Y-145871589D01*
X163112003Y-145871586D01*
X162932154Y-145843100D01*
X162932150Y-145843100D01*
X162750050Y-145843100D01*
X162750046Y-145843100D01*
X162570196Y-145871586D01*
X162570182Y-145871589D01*
X162397004Y-145927858D01*
X162234750Y-146010531D01*
X162234749Y-146010532D01*
X162087431Y-146117564D01*
X161958664Y-146246331D01*
X161851632Y-146393649D01*
X161851631Y-146393650D01*
X161768958Y-146555904D01*
X161712689Y-146729082D01*
X161712686Y-146729096D01*
X161684200Y-146908945D01*
X106000500Y-146908945D01*
X106000500Y-146868880D01*
X105966270Y-146608884D01*
X105964045Y-146600581D01*
X105898398Y-146355580D01*
X105898397Y-146355578D01*
X105798043Y-146113303D01*
X105666926Y-145886200D01*
X105666772Y-145885999D01*
X105507282Y-145678149D01*
X105321851Y-145492718D01*
X105113803Y-145333076D01*
X105113802Y-145333075D01*
X105113799Y-145333073D01*
X104886696Y-145201956D01*
X104644421Y-145101602D01*
X104644419Y-145101601D01*
X104391128Y-145033732D01*
X104391114Y-145033729D01*
X104131121Y-144999500D01*
X104131120Y-144999500D01*
X103868880Y-144999500D01*
X103868879Y-144999500D01*
X103608885Y-145033729D01*
X103608871Y-145033732D01*
X103355580Y-145101601D01*
X103355578Y-145101602D01*
X103113303Y-145201956D01*
X102886200Y-145333073D01*
X102678145Y-145492721D01*
X102492721Y-145678145D01*
X102333073Y-145886200D01*
X102201956Y-146113303D01*
X102101602Y-146355578D01*
X102101601Y-146355580D01*
X102033732Y-146608871D01*
X102033729Y-146608885D01*
X101999500Y-146868878D01*
X101025557Y-146868878D01*
X101025603Y-144368945D01*
X161684200Y-144368945D01*
X161684200Y-144551054D01*
X161712686Y-144730903D01*
X161712689Y-144730917D01*
X161768958Y-144904095D01*
X161851631Y-145066349D01*
X161851632Y-145066350D01*
X161958664Y-145213668D01*
X162087431Y-145342435D01*
X162234749Y-145449467D01*
X162234750Y-145449468D01*
X162397004Y-145532141D01*
X162570182Y-145588410D01*
X162570184Y-145588410D01*
X162570192Y-145588413D01*
X162750045Y-145616899D01*
X162750047Y-145616900D01*
X162750050Y-145616900D01*
X162932153Y-145616900D01*
X162932153Y-145616899D01*
X163112008Y-145588413D01*
X163285195Y-145532141D01*
X163447448Y-145449469D01*
X163594770Y-145342434D01*
X163723534Y-145213670D01*
X163830569Y-145066348D01*
X163913241Y-144904095D01*
X163969513Y-144730908D01*
X163998000Y-144551050D01*
X163998000Y-144368950D01*
X163998000Y-144368946D01*
X163997999Y-144368945D01*
X163969513Y-144189092D01*
X163913241Y-144015905D01*
X163913241Y-144015904D01*
X163830568Y-143853650D01*
X163830567Y-143853649D01*
X163788427Y-143795648D01*
X163749057Y-143741459D01*
X168305600Y-143741459D01*
X168305600Y-143938540D01*
X168344049Y-144131837D01*
X168419466Y-144313910D01*
X168419470Y-144313918D01*
X168528959Y-144477780D01*
X168668319Y-144617140D01*
X168832181Y-144726629D01*
X168832183Y-144726630D01*
X168832186Y-144726632D01*
X168923225Y-144764341D01*
X169014262Y-144802050D01*
X169014263Y-144802050D01*
X169014265Y-144802051D01*
X169207559Y-144840500D01*
X169207560Y-144840500D01*
X169404640Y-144840500D01*
X169404641Y-144840500D01*
X169597935Y-144802051D01*
X169780014Y-144726632D01*
X169943882Y-144617139D01*
X170083239Y-144477782D01*
X170192732Y-144313914D01*
X170268151Y-144131835D01*
X170306600Y-143938541D01*
X170306600Y-143741459D01*
X173155600Y-143741459D01*
X173155600Y-143938540D01*
X173194049Y-144131837D01*
X173269466Y-144313910D01*
X173269470Y-144313918D01*
X173378959Y-144477780D01*
X173518319Y-144617140D01*
X173682181Y-144726629D01*
X173682183Y-144726630D01*
X173682186Y-144726632D01*
X173773225Y-144764341D01*
X173864262Y-144802050D01*
X173864263Y-144802050D01*
X173864265Y-144802051D01*
X174057559Y-144840500D01*
X174057560Y-144840500D01*
X174254640Y-144840500D01*
X174254641Y-144840500D01*
X174447935Y-144802051D01*
X174630014Y-144726632D01*
X174793882Y-144617139D01*
X174933239Y-144477782D01*
X175005961Y-144368945D01*
X179464200Y-144368945D01*
X179464200Y-144551054D01*
X179492686Y-144730903D01*
X179492689Y-144730917D01*
X179548958Y-144904095D01*
X179631631Y-145066349D01*
X179631632Y-145066350D01*
X179738664Y-145213668D01*
X179867431Y-145342435D01*
X180014749Y-145449467D01*
X180014750Y-145449468D01*
X180177004Y-145532141D01*
X180350182Y-145588410D01*
X180350184Y-145588410D01*
X180350192Y-145588413D01*
X180530045Y-145616899D01*
X180530047Y-145616900D01*
X180530050Y-145616900D01*
X180712153Y-145616900D01*
X180712153Y-145616899D01*
X180892008Y-145588413D01*
X181065195Y-145532141D01*
X181227448Y-145449469D01*
X181374770Y-145342434D01*
X181503534Y-145213670D01*
X181610569Y-145066348D01*
X181693241Y-144904095D01*
X181749513Y-144730908D01*
X181778000Y-144551050D01*
X181778000Y-144368950D01*
X181778000Y-144368946D01*
X181777999Y-144368945D01*
X181749513Y-144189092D01*
X181693241Y-144015905D01*
X181693241Y-144015904D01*
X181610568Y-143853650D01*
X181610567Y-143853649D01*
X181503535Y-143706331D01*
X181374768Y-143577564D01*
X181227450Y-143470532D01*
X181227449Y-143470531D01*
X181065195Y-143387858D01*
X180892017Y-143331589D01*
X180892003Y-143331586D01*
X180712154Y-143303100D01*
X180712150Y-143303100D01*
X180530050Y-143303100D01*
X180530046Y-143303100D01*
X180350196Y-143331586D01*
X180350182Y-143331589D01*
X180177004Y-143387858D01*
X180014750Y-143470531D01*
X180014749Y-143470532D01*
X179867431Y-143577564D01*
X179738664Y-143706331D01*
X179631632Y-143853649D01*
X179631631Y-143853650D01*
X179548958Y-144015904D01*
X179492689Y-144189082D01*
X179492686Y-144189096D01*
X179464200Y-144368945D01*
X175005961Y-144368945D01*
X175042732Y-144313914D01*
X175118151Y-144131835D01*
X175156600Y-143938541D01*
X175156600Y-143741459D01*
X175118151Y-143548165D01*
X175042732Y-143366086D01*
X174933239Y-143202218D01*
X174793882Y-143062861D01*
X174793880Y-143062859D01*
X174630018Y-142953370D01*
X174630010Y-142953366D01*
X174447937Y-142877949D01*
X174319072Y-142852316D01*
X174254641Y-142839500D01*
X174057559Y-142839500D01*
X174009235Y-142849112D01*
X173864262Y-142877949D01*
X173682189Y-142953366D01*
X173682181Y-142953370D01*
X173518319Y-143062859D01*
X173518318Y-143062861D01*
X173378961Y-143202218D01*
X173378959Y-143202219D01*
X173269470Y-143366081D01*
X173269466Y-143366089D01*
X173194049Y-143548162D01*
X173155600Y-143741459D01*
X170306600Y-143741459D01*
X170268151Y-143548165D01*
X170192732Y-143366086D01*
X170083239Y-143202218D01*
X169943882Y-143062861D01*
X169943880Y-143062859D01*
X169780018Y-142953370D01*
X169780010Y-142953366D01*
X169597937Y-142877949D01*
X169469072Y-142852316D01*
X169404641Y-142839500D01*
X169207559Y-142839500D01*
X169159235Y-142849112D01*
X169014262Y-142877949D01*
X168832189Y-142953366D01*
X168832181Y-142953370D01*
X168668319Y-143062859D01*
X168668318Y-143062861D01*
X168528961Y-143202218D01*
X168528959Y-143202219D01*
X168419470Y-143366081D01*
X168419466Y-143366089D01*
X168344049Y-143548162D01*
X168305600Y-143741459D01*
X163749057Y-143741459D01*
X163723535Y-143706331D01*
X163594768Y-143577564D01*
X163447450Y-143470532D01*
X163447449Y-143470531D01*
X163285195Y-143387858D01*
X163112017Y-143331589D01*
X163112003Y-143331586D01*
X162932154Y-143303100D01*
X162932150Y-143303100D01*
X162750050Y-143303100D01*
X162750046Y-143303100D01*
X162570196Y-143331586D01*
X162570182Y-143331589D01*
X162397004Y-143387858D01*
X162234750Y-143470531D01*
X162234749Y-143470532D01*
X162087431Y-143577564D01*
X161958664Y-143706331D01*
X161851632Y-143853649D01*
X161851631Y-143853650D01*
X161768958Y-144015904D01*
X161712689Y-144189082D01*
X161712686Y-144189096D01*
X161684200Y-144368945D01*
X101025603Y-144368945D01*
X101025762Y-135762856D01*
X101025778Y-134931317D01*
X106267200Y-134931317D01*
X106267200Y-135075883D01*
X106275123Y-135115713D01*
X106295403Y-135217673D01*
X106350724Y-135351228D01*
X106350726Y-135351232D01*
X106391156Y-135411739D01*
X106431041Y-135471432D01*
X106431043Y-135471434D01*
X106533266Y-135573657D01*
X106653468Y-135653974D01*
X106695620Y-135671434D01*
X106787026Y-135709296D01*
X106787027Y-135709296D01*
X106787029Y-135709297D01*
X106917878Y-135735324D01*
X106969386Y-135762855D01*
X109821167Y-138614637D01*
X112657682Y-141451152D01*
X112721447Y-141487965D01*
X112721449Y-141487967D01*
X112785215Y-141524783D01*
X112785217Y-141524783D01*
X112785218Y-141524784D01*
X112927467Y-141562900D01*
X112927469Y-141562900D01*
X159074731Y-141562900D01*
X159074733Y-141562900D01*
X159216982Y-141524784D01*
X159344518Y-141451151D01*
X159448651Y-141347018D01*
X159496182Y-141299487D01*
X159496183Y-141299488D01*
X159496190Y-141299478D01*
X159498679Y-141296989D01*
X159554082Y-141268774D01*
X159569799Y-141267539D01*
X163270092Y-141267539D01*
X163270094Y-141267539D01*
X163412343Y-141229423D01*
X163539879Y-141155790D01*
X163644012Y-141051657D01*
X163644011Y-141051657D01*
X165348652Y-139347018D01*
X165382180Y-139288945D01*
X179464200Y-139288945D01*
X179464200Y-139471054D01*
X179492686Y-139650903D01*
X179492689Y-139650917D01*
X179548958Y-139824095D01*
X179631631Y-139986349D01*
X179631632Y-139986350D01*
X179738664Y-140133668D01*
X179867431Y-140262435D01*
X180014749Y-140369467D01*
X180014750Y-140369468D01*
X180177004Y-140452141D01*
X180350182Y-140508410D01*
X180350184Y-140508410D01*
X180350192Y-140508413D01*
X180530045Y-140536899D01*
X180530047Y-140536900D01*
X180530050Y-140536900D01*
X180712153Y-140536900D01*
X180712153Y-140536899D01*
X180892008Y-140508413D01*
X181065195Y-140452141D01*
X181227448Y-140369469D01*
X181374770Y-140262434D01*
X181503534Y-140133670D01*
X181610569Y-139986348D01*
X181693241Y-139824095D01*
X181749513Y-139650908D01*
X181778000Y-139471050D01*
X181778000Y-139288950D01*
X181778000Y-139288946D01*
X181777999Y-139288945D01*
X181766997Y-139219481D01*
X181749513Y-139109092D01*
X181739163Y-139077238D01*
X181693241Y-138935904D01*
X181610568Y-138773650D01*
X181610567Y-138773649D01*
X181503535Y-138626331D01*
X181374768Y-138497564D01*
X181227450Y-138390532D01*
X181227449Y-138390531D01*
X181065195Y-138307858D01*
X180892017Y-138251589D01*
X180892003Y-138251586D01*
X180712154Y-138223100D01*
X180712150Y-138223100D01*
X180530050Y-138223100D01*
X180530046Y-138223100D01*
X180350196Y-138251586D01*
X180350182Y-138251589D01*
X180177004Y-138307858D01*
X180014750Y-138390531D01*
X180014749Y-138390532D01*
X179867431Y-138497564D01*
X179738664Y-138626331D01*
X179631632Y-138773649D01*
X179631631Y-138773650D01*
X179548958Y-138935904D01*
X179492689Y-139109082D01*
X179492686Y-139109096D01*
X179464200Y-139288945D01*
X165382180Y-139288945D01*
X165422285Y-139219481D01*
X165443739Y-139139414D01*
X165460399Y-139077238D01*
X165460400Y-139077231D01*
X165460400Y-138710313D01*
X165479613Y-138651182D01*
X165529913Y-138614637D01*
X165592087Y-138614637D01*
X165616883Y-138626663D01*
X165652368Y-138650374D01*
X165652373Y-138650376D01*
X165785926Y-138705696D01*
X165785927Y-138705696D01*
X165785929Y-138705697D01*
X165927717Y-138733900D01*
X165927718Y-138733900D01*
X166072282Y-138733900D01*
X166072283Y-138733900D01*
X166214071Y-138705697D01*
X166347632Y-138650374D01*
X166467834Y-138570057D01*
X166570057Y-138467834D01*
X166650374Y-138347632D01*
X166705697Y-138214071D01*
X166733900Y-138072283D01*
X166733900Y-138062818D01*
X166753113Y-138003687D01*
X166763365Y-137991683D01*
X168006103Y-136748945D01*
X179464200Y-136748945D01*
X179464200Y-136931054D01*
X179492686Y-137110903D01*
X179492689Y-137110917D01*
X179548958Y-137284095D01*
X179631631Y-137446349D01*
X179631632Y-137446350D01*
X179738664Y-137593668D01*
X179867431Y-137722435D01*
X180014749Y-137829467D01*
X180014750Y-137829468D01*
X180177004Y-137912141D01*
X180350182Y-137968410D01*
X180350184Y-137968410D01*
X180350192Y-137968413D01*
X180530045Y-137996899D01*
X180530047Y-137996900D01*
X180530050Y-137996900D01*
X180712153Y-137996900D01*
X180712153Y-137996899D01*
X180892008Y-137968413D01*
X181065195Y-137912141D01*
X181227448Y-137829469D01*
X181374770Y-137722434D01*
X181503534Y-137593670D01*
X181610569Y-137446348D01*
X181693241Y-137284095D01*
X181749513Y-137110908D01*
X181778000Y-136931050D01*
X181778000Y-136748950D01*
X181778000Y-136748946D01*
X181777999Y-136748945D01*
X181775040Y-136730260D01*
X181749513Y-136569092D01*
X181749510Y-136569082D01*
X181693241Y-136395904D01*
X181610568Y-136233650D01*
X181610567Y-136233649D01*
X181503535Y-136086331D01*
X181374768Y-135957564D01*
X181227450Y-135850532D01*
X181227449Y-135850531D01*
X181065195Y-135767858D01*
X180892017Y-135711589D01*
X180892003Y-135711586D01*
X180712154Y-135683100D01*
X180712150Y-135683100D01*
X180530050Y-135683100D01*
X180530046Y-135683100D01*
X180350196Y-135711586D01*
X180350182Y-135711589D01*
X180177004Y-135767858D01*
X180014750Y-135850531D01*
X180014749Y-135850532D01*
X179867431Y-135957564D01*
X179738664Y-136086331D01*
X179631632Y-136233649D01*
X179631631Y-136233650D01*
X179548958Y-136395904D01*
X179492689Y-136569082D01*
X179492686Y-136569096D01*
X179464200Y-136748945D01*
X168006103Y-136748945D01*
X169188083Y-135566965D01*
X169243481Y-135538739D01*
X169259218Y-135537500D01*
X169671387Y-135537500D01*
X169671389Y-135537500D01*
X169671391Y-135537499D01*
X169671394Y-135537499D01*
X169807174Y-135501117D01*
X169807175Y-135501117D01*
X169807175Y-135501116D01*
X169807178Y-135501116D01*
X169928922Y-135430826D01*
X170244035Y-135115711D01*
X170299430Y-135087487D01*
X170360839Y-135097213D01*
X170404803Y-135141176D01*
X170408110Y-135148350D01*
X170443622Y-135234082D01*
X170450726Y-135251232D01*
X170491156Y-135311739D01*
X170531041Y-135371432D01*
X170531043Y-135371434D01*
X170633266Y-135473657D01*
X170753468Y-135553974D01*
X170770942Y-135561212D01*
X170887026Y-135609296D01*
X170887027Y-135609296D01*
X170887029Y-135609297D01*
X171028817Y-135637500D01*
X171028818Y-135637500D01*
X171173382Y-135637500D01*
X171173383Y-135637500D01*
X171315171Y-135609297D01*
X171448732Y-135553974D01*
X171568934Y-135473657D01*
X171671157Y-135371434D01*
X171751474Y-135251232D01*
X171806797Y-135117671D01*
X171833991Y-134980953D01*
X171861521Y-134929447D01*
X172582023Y-134208945D01*
X179464200Y-134208945D01*
X179464200Y-134391054D01*
X179492686Y-134570903D01*
X179492689Y-134570917D01*
X179548958Y-134744095D01*
X179631631Y-134906349D01*
X179631632Y-134906350D01*
X179738664Y-135053668D01*
X179867431Y-135182435D01*
X180014749Y-135289467D01*
X180014750Y-135289468D01*
X180177004Y-135372141D01*
X180350182Y-135428410D01*
X180350184Y-135428410D01*
X180350192Y-135428413D01*
X180530045Y-135456899D01*
X180530047Y-135456900D01*
X180530050Y-135456900D01*
X180712153Y-135456900D01*
X180712153Y-135456899D01*
X180892008Y-135428413D01*
X181065195Y-135372141D01*
X181227448Y-135289469D01*
X181374770Y-135182434D01*
X181503534Y-135053670D01*
X181610569Y-134906348D01*
X181693241Y-134744095D01*
X181749513Y-134570908D01*
X181778000Y-134391050D01*
X181778000Y-134208950D01*
X181778000Y-134208946D01*
X181777999Y-134208945D01*
X181765490Y-134129967D01*
X181749513Y-134029092D01*
X181749510Y-134029082D01*
X181693241Y-133855904D01*
X181610568Y-133693650D01*
X181610567Y-133693649D01*
X181503535Y-133546331D01*
X181374768Y-133417564D01*
X181227450Y-133310532D01*
X181227449Y-133310531D01*
X181065195Y-133227858D01*
X180892017Y-133171589D01*
X180892003Y-133171586D01*
X180712154Y-133143100D01*
X180712150Y-133143100D01*
X180530050Y-133143100D01*
X180530046Y-133143100D01*
X180350196Y-133171586D01*
X180350182Y-133171589D01*
X180177004Y-133227858D01*
X180014750Y-133310531D01*
X180014749Y-133310532D01*
X179867431Y-133417564D01*
X179738664Y-133546331D01*
X179631632Y-133693649D01*
X179631631Y-133693650D01*
X179548958Y-133855904D01*
X179492689Y-134029082D01*
X179492686Y-134029096D01*
X179464200Y-134208945D01*
X172582023Y-134208945D01*
X173448651Y-133342318D01*
X173522285Y-133214781D01*
X173560400Y-133072533D01*
X173560400Y-132925267D01*
X173560400Y-131668945D01*
X179464200Y-131668945D01*
X179464200Y-131851054D01*
X179492686Y-132030903D01*
X179492689Y-132030917D01*
X179548958Y-132204095D01*
X179631631Y-132366349D01*
X179631632Y-132366350D01*
X179738664Y-132513668D01*
X179867431Y-132642435D01*
X180014749Y-132749467D01*
X180014750Y-132749468D01*
X180177004Y-132832141D01*
X180350182Y-132888410D01*
X180350184Y-132888410D01*
X180350192Y-132888413D01*
X180530045Y-132916899D01*
X180530047Y-132916900D01*
X180530050Y-132916900D01*
X180712153Y-132916900D01*
X180712153Y-132916899D01*
X180892008Y-132888413D01*
X181065195Y-132832141D01*
X181227448Y-132749469D01*
X181374770Y-132642434D01*
X181503534Y-132513670D01*
X181610569Y-132366348D01*
X181681506Y-132227127D01*
X190934200Y-132227127D01*
X190934200Y-132480072D01*
X190973765Y-132729876D01*
X190973769Y-132729892D01*
X191051926Y-132970436D01*
X191154419Y-133171587D01*
X191166756Y-133195799D01*
X191190049Y-133227859D01*
X191315423Y-133400423D01*
X191315425Y-133400425D01*
X191494275Y-133579275D01*
X191698901Y-133727944D01*
X191698909Y-133727948D01*
X191924263Y-133842773D01*
X192164807Y-133920930D01*
X192164810Y-133920930D01*
X192164817Y-133920933D01*
X192164822Y-133920933D01*
X192164823Y-133920934D01*
X192414627Y-133960499D01*
X192414632Y-133960500D01*
X192414634Y-133960500D01*
X192667568Y-133960500D01*
X192667572Y-133960499D01*
X192917383Y-133920933D01*
X193157936Y-133842773D01*
X193383299Y-133727944D01*
X193587925Y-133579275D01*
X193766775Y-133400425D01*
X193915444Y-133195799D01*
X194030273Y-132970436D01*
X194108433Y-132729883D01*
X194148000Y-132480066D01*
X194148000Y-132227134D01*
X194144351Y-132204098D01*
X194108434Y-131977323D01*
X194108433Y-131977322D01*
X194108433Y-131977317D01*
X194108430Y-131977307D01*
X194030273Y-131736763D01*
X193915448Y-131511409D01*
X193915444Y-131511401D01*
X193796972Y-131348338D01*
X193766776Y-131306776D01*
X193587923Y-131127923D01*
X193441005Y-131021182D01*
X193383299Y-130979256D01*
X193383293Y-130979253D01*
X193383290Y-130979251D01*
X193157936Y-130864426D01*
X192917392Y-130786269D01*
X192917376Y-130786265D01*
X192667572Y-130746700D01*
X192667566Y-130746700D01*
X192414634Y-130746700D01*
X192414627Y-130746700D01*
X192164823Y-130786265D01*
X192164807Y-130786269D01*
X191924263Y-130864426D01*
X191698909Y-130979251D01*
X191698898Y-130979258D01*
X191494276Y-131127923D01*
X191315423Y-131306776D01*
X191166758Y-131511398D01*
X191166751Y-131511409D01*
X191051926Y-131736763D01*
X190973769Y-131977307D01*
X190973765Y-131977323D01*
X190934200Y-132227127D01*
X181681506Y-132227127D01*
X181693241Y-132204095D01*
X181718495Y-132126373D01*
X181739733Y-132061006D01*
X181749513Y-132030908D01*
X181778000Y-131851050D01*
X181778000Y-131668950D01*
X181778000Y-131668946D01*
X181777999Y-131668945D01*
X181749513Y-131489092D01*
X181730920Y-131431869D01*
X181693241Y-131315904D01*
X181610568Y-131153650D01*
X181610567Y-131153649D01*
X181503535Y-131006331D01*
X181374768Y-130877564D01*
X181227450Y-130770532D01*
X181227449Y-130770531D01*
X181065195Y-130687858D01*
X180892017Y-130631589D01*
X180892003Y-130631586D01*
X180712154Y-130603100D01*
X180712150Y-130603100D01*
X180530050Y-130603100D01*
X180530046Y-130603100D01*
X180350196Y-130631586D01*
X180350182Y-130631589D01*
X180177004Y-130687858D01*
X180014750Y-130770531D01*
X180014749Y-130770532D01*
X179867431Y-130877564D01*
X179738664Y-131006331D01*
X179631632Y-131153649D01*
X179631631Y-131153650D01*
X179548958Y-131315904D01*
X179492689Y-131489082D01*
X179492686Y-131489096D01*
X179464200Y-131668945D01*
X173560400Y-131668945D01*
X173560400Y-128027127D01*
X185434200Y-128027127D01*
X185434200Y-128280072D01*
X185473765Y-128529876D01*
X185473769Y-128529892D01*
X185551926Y-128770436D01*
X185666751Y-128995790D01*
X185666756Y-128995799D01*
X185741090Y-129098112D01*
X185815423Y-129200423D01*
X185815425Y-129200425D01*
X185994275Y-129379275D01*
X186198901Y-129527944D01*
X186198909Y-129527948D01*
X186424263Y-129642773D01*
X186664807Y-129720930D01*
X186664810Y-129720930D01*
X186664817Y-129720933D01*
X186664822Y-129720933D01*
X186664823Y-129720934D01*
X186914627Y-129760499D01*
X186914632Y-129760500D01*
X186914634Y-129760500D01*
X187167568Y-129760500D01*
X187167572Y-129760499D01*
X187417383Y-129720933D01*
X187657936Y-129642773D01*
X187883299Y-129527944D01*
X188087925Y-129379275D01*
X188266775Y-129200425D01*
X188415444Y-128995799D01*
X188530273Y-128770436D01*
X188608433Y-128529883D01*
X188648000Y-128280066D01*
X188648000Y-128027134D01*
X188647999Y-128027127D01*
X190934200Y-128027127D01*
X190934200Y-128280072D01*
X190973765Y-128529876D01*
X190973769Y-128529892D01*
X191051926Y-128770436D01*
X191166751Y-128995790D01*
X191166756Y-128995799D01*
X191241090Y-129098112D01*
X191315423Y-129200423D01*
X191315425Y-129200425D01*
X191494275Y-129379275D01*
X191698901Y-129527944D01*
X191698909Y-129527948D01*
X191924263Y-129642773D01*
X192164807Y-129720930D01*
X192164810Y-129720930D01*
X192164817Y-129720933D01*
X192164822Y-129720933D01*
X192164823Y-129720934D01*
X192414627Y-129760499D01*
X192414632Y-129760500D01*
X192414634Y-129760500D01*
X192667568Y-129760500D01*
X192667572Y-129760499D01*
X192917383Y-129720933D01*
X193157936Y-129642773D01*
X193383299Y-129527944D01*
X193587925Y-129379275D01*
X193766775Y-129200425D01*
X193915444Y-128995799D01*
X194030273Y-128770436D01*
X194108433Y-128529883D01*
X194148000Y-128280066D01*
X194148000Y-128027134D01*
X194110345Y-127789392D01*
X194108434Y-127777323D01*
X194108433Y-127777322D01*
X194108433Y-127777317D01*
X194093144Y-127730261D01*
X194030273Y-127536763D01*
X193915448Y-127311409D01*
X193915444Y-127311401D01*
X193779359Y-127124095D01*
X193766776Y-127106776D01*
X193587923Y-126927923D01*
X193471945Y-126843661D01*
X193383299Y-126779256D01*
X193383293Y-126779253D01*
X193383290Y-126779251D01*
X193157936Y-126664426D01*
X192917392Y-126586269D01*
X192917376Y-126586265D01*
X192667572Y-126546700D01*
X192667566Y-126546700D01*
X192414634Y-126546700D01*
X192414627Y-126546700D01*
X192164823Y-126586265D01*
X192164807Y-126586269D01*
X191924263Y-126664426D01*
X191698909Y-126779251D01*
X191698898Y-126779258D01*
X191494276Y-126927923D01*
X191315423Y-127106776D01*
X191166758Y-127311398D01*
X191166751Y-127311409D01*
X191051926Y-127536763D01*
X190973769Y-127777307D01*
X190973765Y-127777323D01*
X190934200Y-128027127D01*
X188647999Y-128027127D01*
X188610345Y-127789392D01*
X188608434Y-127777323D01*
X188608433Y-127777322D01*
X188608433Y-127777317D01*
X188593144Y-127730261D01*
X188529369Y-127533979D01*
X188529369Y-127471805D01*
X188553908Y-127431759D01*
X190648651Y-125337018D01*
X190688260Y-125268413D01*
X190722284Y-125209482D01*
X190760400Y-125067233D01*
X190760400Y-124518049D01*
X190777354Y-124462159D01*
X190777355Y-124462158D01*
X190823194Y-124393555D01*
X190872018Y-124355065D01*
X190934145Y-124352624D01*
X190985841Y-124387166D01*
X191002514Y-124418360D01*
X191051926Y-124570436D01*
X191164512Y-124791395D01*
X191166756Y-124795799D01*
X191237862Y-124893668D01*
X191315423Y-125000423D01*
X191494276Y-125179276D01*
X191535853Y-125209483D01*
X191698901Y-125327944D01*
X191698909Y-125327948D01*
X191924263Y-125442773D01*
X192164807Y-125520930D01*
X192164810Y-125520930D01*
X192164817Y-125520933D01*
X192164822Y-125520933D01*
X192164823Y-125520934D01*
X192414627Y-125560499D01*
X192414632Y-125560500D01*
X192414634Y-125560500D01*
X192667568Y-125560500D01*
X192667572Y-125560499D01*
X192723828Y-125551589D01*
X192917383Y-125520933D01*
X193157936Y-125442773D01*
X193383299Y-125327944D01*
X193587925Y-125179275D01*
X193766775Y-125000425D01*
X193915444Y-124795799D01*
X194030273Y-124570436D01*
X194108433Y-124329883D01*
X194148000Y-124080066D01*
X194148000Y-123827134D01*
X194142043Y-123789526D01*
X194108434Y-123577323D01*
X194108433Y-123577322D01*
X194108433Y-123577317D01*
X194094933Y-123535767D01*
X194030273Y-123336763D01*
X193915448Y-123111409D01*
X193915444Y-123111401D01*
X193766775Y-122906775D01*
X193587925Y-122727925D01*
X193587923Y-122727923D01*
X193485612Y-122653590D01*
X193383299Y-122579256D01*
X193383293Y-122579253D01*
X193383290Y-122579251D01*
X193157936Y-122464426D01*
X192917392Y-122386269D01*
X192917376Y-122386265D01*
X192667572Y-122346700D01*
X192667566Y-122346700D01*
X192414634Y-122346700D01*
X192414627Y-122346700D01*
X192164823Y-122386265D01*
X192164807Y-122386269D01*
X191924263Y-122464426D01*
X191698909Y-122579251D01*
X191698898Y-122579258D01*
X191494276Y-122727923D01*
X191315423Y-122906776D01*
X191166758Y-123111398D01*
X191166751Y-123111409D01*
X191051926Y-123336763D01*
X190980653Y-123556121D01*
X190944108Y-123606421D01*
X190884977Y-123625634D01*
X190825846Y-123606421D01*
X190801332Y-123580926D01*
X190771157Y-123535766D01*
X190668934Y-123433543D01*
X190668932Y-123433541D01*
X190598275Y-123386330D01*
X190548732Y-123353226D01*
X190548729Y-123353224D01*
X190548728Y-123353224D01*
X190415173Y-123297903D01*
X190320645Y-123279101D01*
X190273383Y-123269700D01*
X190128817Y-123269700D01*
X190093370Y-123276750D01*
X189987026Y-123297903D01*
X189853471Y-123353224D01*
X189733267Y-123433541D01*
X189733266Y-123433543D01*
X189631043Y-123535766D01*
X189631041Y-123535767D01*
X189550724Y-123655971D01*
X189495403Y-123789526D01*
X189479579Y-123869082D01*
X189467200Y-123931317D01*
X189467200Y-124075883D01*
X189468033Y-124080072D01*
X189495403Y-124217673D01*
X189550723Y-124351225D01*
X189550726Y-124351232D01*
X189624846Y-124462159D01*
X189641800Y-124518049D01*
X189641800Y-124720260D01*
X189622587Y-124779391D01*
X189612335Y-124791395D01*
X187762940Y-126640789D01*
X187707542Y-126669015D01*
X187660718Y-126665330D01*
X187417392Y-126586269D01*
X187417376Y-126586265D01*
X187167572Y-126546700D01*
X187167566Y-126546700D01*
X186914634Y-126546700D01*
X186914627Y-126546700D01*
X186664823Y-126586265D01*
X186664807Y-126586269D01*
X186424263Y-126664426D01*
X186198909Y-126779251D01*
X186198898Y-126779258D01*
X185994276Y-126927923D01*
X185815423Y-127106776D01*
X185666758Y-127311398D01*
X185666751Y-127311409D01*
X185551926Y-127536763D01*
X185473769Y-127777307D01*
X185473765Y-127777323D01*
X185434200Y-128027127D01*
X173560400Y-128027127D01*
X173560400Y-126843661D01*
X173579613Y-126784530D01*
X173629913Y-126747985D01*
X173692087Y-126747985D01*
X173729251Y-126770759D01*
X173729446Y-126770522D01*
X173731159Y-126771928D01*
X173732135Y-126772526D01*
X173733266Y-126773657D01*
X173853468Y-126853974D01*
X173920248Y-126881635D01*
X173987026Y-126909296D01*
X173987027Y-126909296D01*
X173987029Y-126909297D01*
X174128817Y-126937500D01*
X174128818Y-126937500D01*
X174273382Y-126937500D01*
X174273383Y-126937500D01*
X174415171Y-126909297D01*
X174548732Y-126853974D01*
X174668934Y-126773657D01*
X174771157Y-126671434D01*
X174826275Y-126588945D01*
X179464200Y-126588945D01*
X179464200Y-126771054D01*
X179492686Y-126950903D01*
X179492689Y-126950917D01*
X179548958Y-127124095D01*
X179631631Y-127286349D01*
X179631632Y-127286350D01*
X179738664Y-127433668D01*
X179867431Y-127562435D01*
X180014749Y-127669467D01*
X180014750Y-127669468D01*
X180177004Y-127752141D01*
X180350182Y-127808410D01*
X180350184Y-127808410D01*
X180350192Y-127808413D01*
X180530045Y-127836899D01*
X180530047Y-127836900D01*
X180530050Y-127836900D01*
X180712153Y-127836900D01*
X180712153Y-127836899D01*
X180892008Y-127808413D01*
X181065195Y-127752141D01*
X181227448Y-127669469D01*
X181374770Y-127562434D01*
X181503534Y-127433670D01*
X181610569Y-127286348D01*
X181693241Y-127124095D01*
X181749513Y-126950908D01*
X181778000Y-126771050D01*
X181778000Y-126588950D01*
X181778000Y-126588946D01*
X181777999Y-126588945D01*
X181767967Y-126525604D01*
X181749513Y-126409092D01*
X181706231Y-126275883D01*
X181693241Y-126235904D01*
X181610568Y-126073650D01*
X181610567Y-126073649D01*
X181503535Y-125926331D01*
X181374768Y-125797564D01*
X181227450Y-125690532D01*
X181227449Y-125690531D01*
X181065195Y-125607858D01*
X180892017Y-125551589D01*
X180892003Y-125551586D01*
X180712154Y-125523100D01*
X180712150Y-125523100D01*
X180530050Y-125523100D01*
X180530046Y-125523100D01*
X180350196Y-125551586D01*
X180350182Y-125551589D01*
X180177004Y-125607858D01*
X180014750Y-125690531D01*
X180014749Y-125690532D01*
X179867431Y-125797564D01*
X179738664Y-125926331D01*
X179631632Y-126073649D01*
X179631631Y-126073650D01*
X179548958Y-126235904D01*
X179492689Y-126409082D01*
X179492686Y-126409096D01*
X179464200Y-126588945D01*
X174826275Y-126588945D01*
X174851474Y-126551232D01*
X174851658Y-126550785D01*
X174853436Y-126546497D01*
X174906796Y-126417673D01*
X174906795Y-126417673D01*
X174906797Y-126417671D01*
X174935000Y-126275883D01*
X174935000Y-126131317D01*
X174906797Y-125989529D01*
X174851474Y-125855968D01*
X174771157Y-125735766D01*
X174668934Y-125633543D01*
X174668930Y-125633539D01*
X174579709Y-125573923D01*
X174541218Y-125525097D01*
X174535000Y-125490278D01*
X174535000Y-124048945D01*
X179464200Y-124048945D01*
X179464200Y-124231054D01*
X179492686Y-124410903D01*
X179492689Y-124410917D01*
X179548958Y-124584095D01*
X179631631Y-124746349D01*
X179631632Y-124746350D01*
X179738664Y-124893668D01*
X179867431Y-125022435D01*
X180014749Y-125129467D01*
X180014750Y-125129468D01*
X180177004Y-125212141D01*
X180350182Y-125268410D01*
X180350184Y-125268410D01*
X180350192Y-125268413D01*
X180530045Y-125296899D01*
X180530047Y-125296900D01*
X180530050Y-125296900D01*
X180712153Y-125296900D01*
X180712153Y-125296899D01*
X180892008Y-125268413D01*
X181065195Y-125212141D01*
X181227448Y-125129469D01*
X181374770Y-125022434D01*
X181503534Y-124893670D01*
X181610569Y-124746348D01*
X181693241Y-124584095D01*
X181749513Y-124410908D01*
X181778000Y-124231050D01*
X181778000Y-124048950D01*
X181778000Y-124048946D01*
X181777999Y-124048945D01*
X181749513Y-123869092D01*
X181749510Y-123869082D01*
X181744697Y-123854268D01*
X181735878Y-123827127D01*
X185434200Y-123827127D01*
X185434200Y-124080072D01*
X185473765Y-124329876D01*
X185473769Y-124329892D01*
X185551926Y-124570436D01*
X185664512Y-124791395D01*
X185666756Y-124795799D01*
X185737862Y-124893668D01*
X185815423Y-125000423D01*
X185994276Y-125179276D01*
X186035853Y-125209483D01*
X186198901Y-125327944D01*
X186198909Y-125327948D01*
X186424263Y-125442773D01*
X186664807Y-125520930D01*
X186664810Y-125520930D01*
X186664817Y-125520933D01*
X186664822Y-125520933D01*
X186664823Y-125520934D01*
X186914627Y-125560499D01*
X186914632Y-125560500D01*
X186914634Y-125560500D01*
X187167568Y-125560500D01*
X187167572Y-125560499D01*
X187223828Y-125551589D01*
X187417383Y-125520933D01*
X187657936Y-125442773D01*
X187883299Y-125327944D01*
X188087925Y-125179275D01*
X188266775Y-125000425D01*
X188415444Y-124795799D01*
X188530273Y-124570436D01*
X188608433Y-124329883D01*
X188648000Y-124080066D01*
X188648000Y-123827134D01*
X188642043Y-123789526D01*
X188608434Y-123577323D01*
X188608433Y-123577322D01*
X188608433Y-123577317D01*
X188594933Y-123535767D01*
X188530273Y-123336763D01*
X188415448Y-123111409D01*
X188415444Y-123111401D01*
X188266775Y-122906775D01*
X188087925Y-122727925D01*
X188087923Y-122727923D01*
X187985612Y-122653590D01*
X187883299Y-122579256D01*
X187883293Y-122579253D01*
X187883290Y-122579251D01*
X187657936Y-122464426D01*
X187417392Y-122386269D01*
X187417376Y-122386265D01*
X187167572Y-122346700D01*
X187167566Y-122346700D01*
X186914634Y-122346700D01*
X186914627Y-122346700D01*
X186664823Y-122386265D01*
X186664807Y-122386269D01*
X186424263Y-122464426D01*
X186198909Y-122579251D01*
X186198898Y-122579258D01*
X185994276Y-122727923D01*
X185815423Y-122906776D01*
X185666758Y-123111398D01*
X185666751Y-123111409D01*
X185551926Y-123336763D01*
X185473769Y-123577307D01*
X185473765Y-123577323D01*
X185434200Y-123827127D01*
X181735878Y-123827127D01*
X181693241Y-123695904D01*
X181610568Y-123533650D01*
X181610567Y-123533649D01*
X181503535Y-123386331D01*
X181374768Y-123257564D01*
X181227450Y-123150532D01*
X181227449Y-123150531D01*
X181065195Y-123067858D01*
X180892017Y-123011589D01*
X180892003Y-123011586D01*
X180712154Y-122983100D01*
X180712150Y-122983100D01*
X180530050Y-122983100D01*
X180530046Y-122983100D01*
X180350196Y-123011586D01*
X180350182Y-123011589D01*
X180177004Y-123067858D01*
X180014750Y-123150531D01*
X180014749Y-123150532D01*
X179867431Y-123257564D01*
X179738664Y-123386331D01*
X179631632Y-123533649D01*
X179631631Y-123533650D01*
X179548958Y-123695904D01*
X179492689Y-123869082D01*
X179492686Y-123869096D01*
X179464200Y-124048945D01*
X174535000Y-124048945D01*
X174535000Y-121508945D01*
X179464200Y-121508945D01*
X179464200Y-121691054D01*
X179492686Y-121870903D01*
X179492689Y-121870917D01*
X179548958Y-122044095D01*
X179631631Y-122206349D01*
X179631632Y-122206350D01*
X179738664Y-122353668D01*
X179867431Y-122482435D01*
X180014749Y-122589467D01*
X180014750Y-122589468D01*
X180177004Y-122672141D01*
X180350182Y-122728410D01*
X180350184Y-122728410D01*
X180350192Y-122728413D01*
X180530045Y-122756899D01*
X180530047Y-122756900D01*
X180530050Y-122756900D01*
X180712153Y-122756900D01*
X180712153Y-122756899D01*
X180892008Y-122728413D01*
X181065195Y-122672141D01*
X181227448Y-122589469D01*
X181374770Y-122482434D01*
X181503534Y-122353670D01*
X181610569Y-122206348D01*
X181693241Y-122044095D01*
X181749513Y-121870908D01*
X181778000Y-121691050D01*
X181778000Y-121508950D01*
X181778000Y-121508946D01*
X181777999Y-121508945D01*
X181772058Y-121471434D01*
X181749513Y-121329092D01*
X181742076Y-121306202D01*
X181693241Y-121155904D01*
X181610568Y-120993650D01*
X181610567Y-120993649D01*
X181503535Y-120846331D01*
X181374768Y-120717564D01*
X181227450Y-120610532D01*
X181227449Y-120610531D01*
X181065195Y-120527858D01*
X180892017Y-120471589D01*
X180892003Y-120471586D01*
X180712154Y-120443100D01*
X180712150Y-120443100D01*
X180530050Y-120443100D01*
X180530046Y-120443100D01*
X180350196Y-120471586D01*
X180350182Y-120471589D01*
X180177004Y-120527858D01*
X180014750Y-120610531D01*
X180014749Y-120610532D01*
X179867431Y-120717564D01*
X179738664Y-120846331D01*
X179631632Y-120993649D01*
X179631631Y-120993650D01*
X179548958Y-121155904D01*
X179492689Y-121329082D01*
X179492686Y-121329096D01*
X179464200Y-121508945D01*
X174535000Y-121508945D01*
X174535000Y-120266417D01*
X174554213Y-120207286D01*
X174564459Y-120195288D01*
X175428326Y-119331422D01*
X175447678Y-119297903D01*
X175498616Y-119209678D01*
X175535000Y-119073889D01*
X175535000Y-118968945D01*
X179464200Y-118968945D01*
X179464200Y-119151054D01*
X179492686Y-119330903D01*
X179492689Y-119330917D01*
X179548958Y-119504095D01*
X179631631Y-119666349D01*
X179631632Y-119666350D01*
X179738664Y-119813668D01*
X179867431Y-119942435D01*
X180014749Y-120049467D01*
X180014750Y-120049468D01*
X180177004Y-120132141D01*
X180350182Y-120188410D01*
X180350184Y-120188410D01*
X180350192Y-120188413D01*
X180530045Y-120216899D01*
X180530047Y-120216900D01*
X180530050Y-120216900D01*
X180712153Y-120216900D01*
X180712153Y-120216899D01*
X180892008Y-120188413D01*
X181065195Y-120132141D01*
X181227448Y-120049469D01*
X181374770Y-119942434D01*
X181503534Y-119813670D01*
X181610569Y-119666348D01*
X181693241Y-119504095D01*
X181749513Y-119330908D01*
X181778000Y-119151050D01*
X181778000Y-118968950D01*
X181778000Y-118968946D01*
X181777999Y-118968945D01*
X181776912Y-118962079D01*
X181749513Y-118789092D01*
X181693241Y-118615905D01*
X181693241Y-118615904D01*
X181610568Y-118453650D01*
X181610567Y-118453649D01*
X181503535Y-118306331D01*
X181374768Y-118177564D01*
X181227450Y-118070532D01*
X181227449Y-118070531D01*
X181065195Y-117987858D01*
X180892017Y-117931589D01*
X180892003Y-117931586D01*
X180712154Y-117903100D01*
X180712150Y-117903100D01*
X180530050Y-117903100D01*
X180530046Y-117903100D01*
X180350196Y-117931586D01*
X180350182Y-117931589D01*
X180177004Y-117987858D01*
X180014750Y-118070531D01*
X180014749Y-118070532D01*
X179867431Y-118177564D01*
X179738664Y-118306331D01*
X179631632Y-118453649D01*
X179631631Y-118453650D01*
X179548958Y-118615904D01*
X179492689Y-118789082D01*
X179492686Y-118789096D01*
X179464200Y-118968945D01*
X175535000Y-118968945D01*
X175535000Y-117758205D01*
X185203200Y-117758205D01*
X185203200Y-117970194D01*
X185236358Y-118179546D01*
X185236362Y-118179562D01*
X185301863Y-118381153D01*
X185398099Y-118570025D01*
X185522693Y-118741514D01*
X185672585Y-118891406D01*
X185844074Y-119016000D01*
X185844073Y-119016000D01*
X186032946Y-119112236D01*
X186234537Y-119177737D01*
X186234540Y-119177737D01*
X186234547Y-119177740D01*
X186234552Y-119177740D01*
X186234553Y-119177741D01*
X186443905Y-119210899D01*
X186443910Y-119210900D01*
X186443912Y-119210900D01*
X186655890Y-119210900D01*
X186655894Y-119210899D01*
X186663622Y-119209675D01*
X186865253Y-119177740D01*
X187066853Y-119112236D01*
X187255725Y-119016001D01*
X187427216Y-118891405D01*
X187577105Y-118741516D01*
X187701701Y-118570025D01*
X187797936Y-118381153D01*
X187863440Y-118179553D01*
X187896600Y-117970188D01*
X187896600Y-117758212D01*
X187863440Y-117548847D01*
X187797936Y-117347247D01*
X187797936Y-117347246D01*
X187701700Y-117158374D01*
X187694621Y-117148631D01*
X187590356Y-117005122D01*
X187577106Y-116986885D01*
X187439853Y-116849632D01*
X187411627Y-116794234D01*
X187421353Y-116732826D01*
X187465317Y-116688862D01*
X187472490Y-116685555D01*
X187501461Y-116673553D01*
X187548732Y-116653974D01*
X187655809Y-116582427D01*
X187659660Y-116579854D01*
X187715550Y-116562900D01*
X190918361Y-116562900D01*
X190977492Y-116582113D01*
X190989496Y-116592365D01*
X191745985Y-117348854D01*
X191774211Y-117404252D01*
X191770527Y-117451075D01*
X191738760Y-117548844D01*
X191738758Y-117548853D01*
X191705600Y-117758205D01*
X191705600Y-117970194D01*
X191738758Y-118179546D01*
X191738762Y-118179562D01*
X191804263Y-118381153D01*
X191900499Y-118570025D01*
X192025093Y-118741514D01*
X192174985Y-118891406D01*
X192346474Y-119016000D01*
X192346473Y-119016000D01*
X192535346Y-119112236D01*
X192736937Y-119177737D01*
X192736940Y-119177737D01*
X192736947Y-119177740D01*
X192736952Y-119177740D01*
X192736953Y-119177741D01*
X192946305Y-119210899D01*
X192946310Y-119210900D01*
X192946312Y-119210900D01*
X193158290Y-119210900D01*
X193158294Y-119210899D01*
X193166022Y-119209675D01*
X193367653Y-119177740D01*
X193569253Y-119112236D01*
X193758125Y-119016001D01*
X193929616Y-118891405D01*
X194079505Y-118741516D01*
X194204101Y-118570025D01*
X194300336Y-118381153D01*
X194365840Y-118179553D01*
X194399000Y-117970188D01*
X194399000Y-117758212D01*
X194365840Y-117548847D01*
X194300336Y-117347247D01*
X194300336Y-117347246D01*
X194204100Y-117158374D01*
X194197021Y-117148631D01*
X194092756Y-117005122D01*
X194079506Y-116986885D01*
X193929614Y-116836993D01*
X193758125Y-116712399D01*
X193758126Y-116712399D01*
X193569253Y-116616163D01*
X193367662Y-116550662D01*
X193367646Y-116550658D01*
X193158294Y-116517500D01*
X193158288Y-116517500D01*
X192946312Y-116517500D01*
X192946305Y-116517500D01*
X192736953Y-116550658D01*
X192736944Y-116550660D01*
X192639175Y-116582427D01*
X192577001Y-116582426D01*
X192536954Y-116557885D01*
X192038369Y-116059300D01*
X191535118Y-115556049D01*
X191499988Y-115535767D01*
X191457695Y-115511349D01*
X191407582Y-115482416D01*
X191265335Y-115444300D01*
X191265333Y-115444300D01*
X187715550Y-115444300D01*
X187659660Y-115427346D01*
X187593917Y-115383418D01*
X187548732Y-115353226D01*
X187548729Y-115353224D01*
X187548728Y-115353224D01*
X187415173Y-115297903D01*
X187320645Y-115279101D01*
X187273383Y-115269700D01*
X187128817Y-115269700D01*
X187093370Y-115276750D01*
X186987026Y-115297903D01*
X186853471Y-115353224D01*
X186733267Y-115433541D01*
X186733266Y-115433543D01*
X186631043Y-115535766D01*
X186631041Y-115535767D01*
X186550724Y-115655971D01*
X186495403Y-115789526D01*
X186467200Y-115931317D01*
X186467200Y-116075882D01*
X186495403Y-116217673D01*
X186522926Y-116284118D01*
X186550726Y-116351232D01*
X186557260Y-116361011D01*
X186574136Y-116420850D01*
X186552617Y-116479181D01*
X186500921Y-116513723D01*
X186473614Y-116517500D01*
X186443905Y-116517500D01*
X186234553Y-116550658D01*
X186234537Y-116550662D01*
X186032946Y-116616163D01*
X185844074Y-116712399D01*
X185672585Y-116836993D01*
X185522693Y-116986885D01*
X185398099Y-117158374D01*
X185301863Y-117347246D01*
X185236362Y-117548837D01*
X185236358Y-117548853D01*
X185203200Y-117758205D01*
X175535000Y-117758205D01*
X175535000Y-113888945D01*
X179464200Y-113888945D01*
X179464200Y-114071054D01*
X179492686Y-114250903D01*
X179492689Y-114250917D01*
X179548958Y-114424095D01*
X179631631Y-114586349D01*
X179631632Y-114586350D01*
X179738664Y-114733668D01*
X179867431Y-114862435D01*
X180014749Y-114969467D01*
X180014750Y-114969468D01*
X180177004Y-115052141D01*
X180350182Y-115108410D01*
X180350184Y-115108410D01*
X180350192Y-115108413D01*
X180530045Y-115136899D01*
X180530047Y-115136900D01*
X180530050Y-115136900D01*
X180712153Y-115136900D01*
X180712153Y-115136899D01*
X180892008Y-115108413D01*
X181065195Y-115052141D01*
X181227448Y-114969469D01*
X181374770Y-114862434D01*
X181503534Y-114733670D01*
X181610569Y-114586348D01*
X181693241Y-114424095D01*
X181749513Y-114250908D01*
X181778000Y-114071050D01*
X181778000Y-113888950D01*
X181778000Y-113888946D01*
X181777999Y-113888945D01*
X181773407Y-113859953D01*
X181749513Y-113709092D01*
X181746918Y-113701104D01*
X181693241Y-113535904D01*
X181610568Y-113373650D01*
X181610567Y-113373649D01*
X181551384Y-113292190D01*
X181511290Y-113237005D01*
X185203200Y-113237005D01*
X185203200Y-113448994D01*
X185236358Y-113658346D01*
X185236362Y-113658362D01*
X185301863Y-113859953D01*
X185398099Y-114048825D01*
X185522693Y-114220314D01*
X185672585Y-114370206D01*
X185844074Y-114494800D01*
X185844073Y-114494800D01*
X186032946Y-114591036D01*
X186234537Y-114656537D01*
X186234540Y-114656537D01*
X186234547Y-114656540D01*
X186234552Y-114656540D01*
X186234553Y-114656541D01*
X186443905Y-114689699D01*
X186443910Y-114689700D01*
X186443912Y-114689700D01*
X186655890Y-114689700D01*
X186655894Y-114689699D01*
X186865253Y-114656540D01*
X187066853Y-114591036D01*
X187255725Y-114494801D01*
X187427216Y-114370205D01*
X187577105Y-114220316D01*
X187701701Y-114048825D01*
X187797936Y-113859953D01*
X187863440Y-113658353D01*
X187896600Y-113448988D01*
X187896600Y-113237012D01*
X187870509Y-113072282D01*
X187863441Y-113027653D01*
X187863440Y-113027652D01*
X187863440Y-113027647D01*
X187861340Y-113021184D01*
X187797936Y-112826046D01*
X187748901Y-112729811D01*
X187701701Y-112637175D01*
X187577105Y-112465684D01*
X187427216Y-112315795D01*
X187427214Y-112315793D01*
X187255725Y-112191199D01*
X187255726Y-112191199D01*
X187066853Y-112094963D01*
X186865262Y-112029462D01*
X186865246Y-112029458D01*
X186655894Y-111996300D01*
X186655888Y-111996300D01*
X186443912Y-111996300D01*
X186443905Y-111996300D01*
X186234553Y-112029458D01*
X186234537Y-112029462D01*
X186032946Y-112094963D01*
X185844074Y-112191199D01*
X185672585Y-112315793D01*
X185522693Y-112465685D01*
X185398099Y-112637174D01*
X185301863Y-112826046D01*
X185236362Y-113027637D01*
X185236358Y-113027653D01*
X185203200Y-113237005D01*
X181511290Y-113237005D01*
X181503535Y-113226331D01*
X181374768Y-113097564D01*
X181227450Y-112990532D01*
X181227449Y-112990531D01*
X181065195Y-112907858D01*
X180892017Y-112851589D01*
X180892003Y-112851586D01*
X180712154Y-112823100D01*
X180712150Y-112823100D01*
X180530050Y-112823100D01*
X180530046Y-112823100D01*
X180350196Y-112851586D01*
X180350182Y-112851589D01*
X180177004Y-112907858D01*
X180014750Y-112990531D01*
X180014749Y-112990532D01*
X179867431Y-113097564D01*
X179738664Y-113226331D01*
X179631632Y-113373649D01*
X179631631Y-113373650D01*
X179548958Y-113535904D01*
X179492689Y-113709082D01*
X179492686Y-113709096D01*
X179464200Y-113888945D01*
X175535000Y-113888945D01*
X175535000Y-111348945D01*
X179464200Y-111348945D01*
X179464200Y-111531054D01*
X179492686Y-111710903D01*
X179492689Y-111710917D01*
X179548958Y-111884095D01*
X179631631Y-112046349D01*
X179631632Y-112046350D01*
X179738664Y-112193668D01*
X179867431Y-112322435D01*
X180014749Y-112429467D01*
X180014750Y-112429468D01*
X180177004Y-112512141D01*
X180350182Y-112568410D01*
X180350184Y-112568410D01*
X180350192Y-112568413D01*
X180530045Y-112596899D01*
X180530047Y-112596900D01*
X180530050Y-112596900D01*
X180712153Y-112596900D01*
X180712153Y-112596899D01*
X180892008Y-112568413D01*
X181065195Y-112512141D01*
X181227448Y-112429469D01*
X181374770Y-112322434D01*
X181503534Y-112193670D01*
X181610569Y-112046348D01*
X181693241Y-111884095D01*
X181749513Y-111710908D01*
X181778000Y-111531050D01*
X181778000Y-111348950D01*
X181778000Y-111348946D01*
X181777999Y-111348945D01*
X181758721Y-111227231D01*
X181749513Y-111169092D01*
X181718498Y-111073638D01*
X181693241Y-110995904D01*
X181610568Y-110833650D01*
X181610567Y-110833649D01*
X181503535Y-110686331D01*
X181374768Y-110557564D01*
X181227450Y-110450532D01*
X181227449Y-110450531D01*
X181065195Y-110367858D01*
X180892017Y-110311589D01*
X180892003Y-110311586D01*
X180712154Y-110283100D01*
X180712150Y-110283100D01*
X180530050Y-110283100D01*
X180530046Y-110283100D01*
X180350196Y-110311586D01*
X180350182Y-110311589D01*
X180177004Y-110367858D01*
X180014750Y-110450531D01*
X180014749Y-110450532D01*
X179867431Y-110557564D01*
X179738664Y-110686331D01*
X179631632Y-110833649D01*
X179631631Y-110833650D01*
X179548958Y-110995904D01*
X179492689Y-111169082D01*
X179492686Y-111169096D01*
X179464200Y-111348945D01*
X175535000Y-111348945D01*
X175535000Y-108808945D01*
X179464200Y-108808945D01*
X179464200Y-108991054D01*
X179492686Y-109170903D01*
X179492689Y-109170917D01*
X179548958Y-109344095D01*
X179631631Y-109506349D01*
X179631632Y-109506350D01*
X179738664Y-109653668D01*
X179867431Y-109782435D01*
X180014749Y-109889467D01*
X180014750Y-109889468D01*
X180177004Y-109972141D01*
X180350182Y-110028410D01*
X180350184Y-110028410D01*
X180350192Y-110028413D01*
X180530045Y-110056899D01*
X180530047Y-110056900D01*
X180530050Y-110056900D01*
X180712153Y-110056900D01*
X180712153Y-110056899D01*
X180892008Y-110028413D01*
X181065195Y-109972141D01*
X181227448Y-109889469D01*
X181374770Y-109782434D01*
X181425887Y-109731317D01*
X186467200Y-109731317D01*
X186467200Y-109875883D01*
X186476601Y-109923145D01*
X186495403Y-110017673D01*
X186538369Y-110121400D01*
X186550726Y-110151232D01*
X186591156Y-110211739D01*
X186631041Y-110271432D01*
X186631043Y-110271434D01*
X186733266Y-110373657D01*
X186853468Y-110453974D01*
X186895615Y-110471432D01*
X186987026Y-110509296D01*
X186987027Y-110509296D01*
X186987029Y-110509297D01*
X187128817Y-110537500D01*
X187128818Y-110537500D01*
X187273382Y-110537500D01*
X187273383Y-110537500D01*
X187415171Y-110509297D01*
X187548732Y-110453974D01*
X187659660Y-110379854D01*
X187715550Y-110362900D01*
X189486650Y-110362900D01*
X189542540Y-110379854D01*
X189653468Y-110453974D01*
X189695615Y-110471432D01*
X189787026Y-110509296D01*
X189787027Y-110509296D01*
X189787029Y-110509297D01*
X189928817Y-110537500D01*
X189928818Y-110537500D01*
X190073382Y-110537500D01*
X190073383Y-110537500D01*
X190215171Y-110509297D01*
X190348732Y-110453974D01*
X190459660Y-110379854D01*
X190515550Y-110362900D01*
X192304750Y-110362900D01*
X192363881Y-110382113D01*
X192388395Y-110407609D01*
X192431037Y-110471427D01*
X192431040Y-110471430D01*
X192431043Y-110471434D01*
X192533266Y-110573657D01*
X192653468Y-110653974D01*
X192720248Y-110681635D01*
X192787026Y-110709296D01*
X192787027Y-110709296D01*
X192787029Y-110709297D01*
X192928817Y-110737500D01*
X192928818Y-110737500D01*
X193073382Y-110737500D01*
X193073383Y-110737500D01*
X193215171Y-110709297D01*
X193348732Y-110653974D01*
X193468934Y-110573657D01*
X193571157Y-110471434D01*
X193651474Y-110351232D01*
X193706797Y-110217671D01*
X193735000Y-110075883D01*
X193735000Y-109931317D01*
X193706797Y-109789529D01*
X193651474Y-109655968D01*
X193571157Y-109535766D01*
X193468934Y-109433543D01*
X193468932Y-109433541D01*
X193409239Y-109393656D01*
X193348732Y-109353226D01*
X193348729Y-109353224D01*
X193348728Y-109353224D01*
X193215173Y-109297903D01*
X193120645Y-109279101D01*
X193073383Y-109269700D01*
X193073382Y-109269700D01*
X192982770Y-109269700D01*
X192956733Y-109266272D01*
X192935995Y-109260715D01*
X192874735Y-109244300D01*
X192874733Y-109244300D01*
X190515550Y-109244300D01*
X190459660Y-109227346D01*
X190375208Y-109170917D01*
X190348732Y-109153226D01*
X190348729Y-109153224D01*
X190348728Y-109153224D01*
X190215173Y-109097903D01*
X190120645Y-109079101D01*
X190073383Y-109069700D01*
X189928817Y-109069700D01*
X189893370Y-109076750D01*
X189787026Y-109097903D01*
X189653471Y-109153224D01*
X189542540Y-109227346D01*
X189486650Y-109244300D01*
X187715550Y-109244300D01*
X187659660Y-109227346D01*
X187575208Y-109170917D01*
X187548732Y-109153226D01*
X187548729Y-109153224D01*
X187548728Y-109153224D01*
X187415173Y-109097903D01*
X187320645Y-109079101D01*
X187273383Y-109069700D01*
X187128817Y-109069700D01*
X187093370Y-109076750D01*
X186987026Y-109097903D01*
X186853471Y-109153224D01*
X186733267Y-109233541D01*
X186733266Y-109233543D01*
X186631043Y-109335766D01*
X186631041Y-109335767D01*
X186550724Y-109455971D01*
X186495403Y-109589526D01*
X186467200Y-109731317D01*
X181425887Y-109731317D01*
X181503534Y-109653670D01*
X181610569Y-109506348D01*
X181693241Y-109344095D01*
X181749513Y-109170908D01*
X181778000Y-108991050D01*
X181778000Y-108808950D01*
X181778000Y-108808946D01*
X181777999Y-108808945D01*
X181749513Y-108629092D01*
X181731055Y-108572283D01*
X181693241Y-108455904D01*
X181610568Y-108293650D01*
X181610567Y-108293649D01*
X181503535Y-108146331D01*
X181374768Y-108017564D01*
X181227450Y-107910532D01*
X181227449Y-107910531D01*
X181065195Y-107827858D01*
X180892017Y-107771589D01*
X180892003Y-107771586D01*
X180712154Y-107743100D01*
X180712150Y-107743100D01*
X180530050Y-107743100D01*
X180530046Y-107743100D01*
X180350196Y-107771586D01*
X180350182Y-107771589D01*
X180177004Y-107827858D01*
X180014750Y-107910531D01*
X180014749Y-107910532D01*
X179867431Y-108017564D01*
X179738664Y-108146331D01*
X179631632Y-108293649D01*
X179631631Y-108293650D01*
X179548958Y-108455904D01*
X179492689Y-108629082D01*
X179492686Y-108629096D01*
X179464200Y-108808945D01*
X175535000Y-108808945D01*
X175535000Y-106268945D01*
X179464200Y-106268945D01*
X179464200Y-106451054D01*
X179492686Y-106630903D01*
X179492689Y-106630917D01*
X179548958Y-106804095D01*
X179631631Y-106966349D01*
X179631632Y-106966350D01*
X179738664Y-107113668D01*
X179867431Y-107242435D01*
X180014749Y-107349467D01*
X180014750Y-107349468D01*
X180177004Y-107432141D01*
X180350182Y-107488410D01*
X180350184Y-107488410D01*
X180350192Y-107488413D01*
X180530045Y-107516899D01*
X180530047Y-107516900D01*
X180530050Y-107516900D01*
X180712153Y-107516900D01*
X180712153Y-107516899D01*
X180892008Y-107488413D01*
X181065195Y-107432141D01*
X181227448Y-107349469D01*
X181374770Y-107242434D01*
X181503534Y-107113670D01*
X181610569Y-106966348D01*
X181693241Y-106804095D01*
X181749513Y-106630908D01*
X181778000Y-106451050D01*
X181778000Y-106268950D01*
X181778000Y-106268946D01*
X181777999Y-106268945D01*
X181749513Y-106089092D01*
X181749510Y-106089082D01*
X181693241Y-105915904D01*
X181610568Y-105753650D01*
X181610567Y-105753649D01*
X181503535Y-105606331D01*
X181374768Y-105477564D01*
X181227450Y-105370532D01*
X181227449Y-105370531D01*
X181065195Y-105287858D01*
X180892017Y-105231589D01*
X180892003Y-105231586D01*
X180712154Y-105203100D01*
X180712150Y-105203100D01*
X180530050Y-105203100D01*
X180530046Y-105203100D01*
X180350196Y-105231586D01*
X180350182Y-105231589D01*
X180177004Y-105287858D01*
X180014750Y-105370531D01*
X180014749Y-105370532D01*
X179867431Y-105477564D01*
X179738664Y-105606331D01*
X179631632Y-105753649D01*
X179631631Y-105753650D01*
X179548958Y-105915904D01*
X179492689Y-106089082D01*
X179492686Y-106089096D01*
X179464200Y-106268945D01*
X175535000Y-106268945D01*
X175535000Y-101188945D01*
X179464200Y-101188945D01*
X179464200Y-101371054D01*
X179492686Y-101550903D01*
X179492689Y-101550917D01*
X179548958Y-101724095D01*
X179631631Y-101886349D01*
X179631632Y-101886350D01*
X179738664Y-102033668D01*
X179867431Y-102162435D01*
X180014749Y-102269467D01*
X180014750Y-102269468D01*
X180177004Y-102352141D01*
X180350182Y-102408410D01*
X180350184Y-102408410D01*
X180350192Y-102408413D01*
X180530045Y-102436899D01*
X180530047Y-102436900D01*
X180530050Y-102436900D01*
X180712153Y-102436900D01*
X180712153Y-102436899D01*
X180892008Y-102408413D01*
X181065195Y-102352141D01*
X181227448Y-102269469D01*
X181374770Y-102162434D01*
X181503534Y-102033670D01*
X181610569Y-101886348D01*
X181693241Y-101724095D01*
X181749513Y-101550908D01*
X181778000Y-101371050D01*
X181778000Y-101188950D01*
X181778000Y-101188946D01*
X181777999Y-101188945D01*
X181749513Y-101009092D01*
X181696758Y-100846728D01*
X181693241Y-100835904D01*
X181610568Y-100673650D01*
X181610567Y-100673649D01*
X181503535Y-100526331D01*
X181374768Y-100397564D01*
X181227450Y-100290532D01*
X181227449Y-100290531D01*
X181065195Y-100207858D01*
X180892017Y-100151589D01*
X180892003Y-100151586D01*
X180712154Y-100123100D01*
X180712150Y-100123100D01*
X180530050Y-100123100D01*
X180530046Y-100123100D01*
X180350196Y-100151586D01*
X180350182Y-100151589D01*
X180177004Y-100207858D01*
X180014750Y-100290531D01*
X180014749Y-100290532D01*
X179867431Y-100397564D01*
X179738664Y-100526331D01*
X179631632Y-100673649D01*
X179631631Y-100673650D01*
X179548958Y-100835904D01*
X179492689Y-101009082D01*
X179492686Y-101009096D01*
X179464200Y-101188945D01*
X175535000Y-101188945D01*
X175535000Y-99545661D01*
X175554213Y-99486530D01*
X175564465Y-99474526D01*
X175571157Y-99467834D01*
X175571158Y-99467832D01*
X175651474Y-99347632D01*
X175706797Y-99214071D01*
X175735000Y-99072283D01*
X175735000Y-98927717D01*
X175706797Y-98785929D01*
X175706796Y-98785926D01*
X175664368Y-98683495D01*
X175651474Y-98652369D01*
X175651474Y-98652368D01*
X175649187Y-98648945D01*
X179464200Y-98648945D01*
X179464200Y-98831054D01*
X179492686Y-99010903D01*
X179492689Y-99010917D01*
X179548958Y-99184095D01*
X179631631Y-99346349D01*
X179631632Y-99346350D01*
X179738664Y-99493668D01*
X179867431Y-99622435D01*
X180014749Y-99729467D01*
X180014750Y-99729468D01*
X180177004Y-99812141D01*
X180350182Y-99868410D01*
X180350184Y-99868410D01*
X180350192Y-99868413D01*
X180530045Y-99896899D01*
X180530047Y-99896900D01*
X180530050Y-99896900D01*
X180712153Y-99896900D01*
X180712153Y-99896899D01*
X180892008Y-99868413D01*
X181065195Y-99812141D01*
X181227448Y-99729469D01*
X181374770Y-99622434D01*
X181503534Y-99493670D01*
X181610569Y-99346348D01*
X181693241Y-99184095D01*
X181749513Y-99010908D01*
X181778000Y-98831050D01*
X181778000Y-98648950D01*
X181778000Y-98648946D01*
X181777999Y-98648945D01*
X181759503Y-98532166D01*
X181749513Y-98469092D01*
X181710696Y-98349626D01*
X181693241Y-98295904D01*
X181610568Y-98133650D01*
X181610567Y-98133649D01*
X181503535Y-97986331D01*
X181374768Y-97857564D01*
X181227450Y-97750532D01*
X181227449Y-97750531D01*
X181065195Y-97667858D01*
X180892017Y-97611589D01*
X180892003Y-97611586D01*
X180712154Y-97583100D01*
X180712150Y-97583100D01*
X180530050Y-97583100D01*
X180530046Y-97583100D01*
X180350196Y-97611586D01*
X180350182Y-97611589D01*
X180177004Y-97667858D01*
X180014750Y-97750531D01*
X180014749Y-97750532D01*
X179867431Y-97857564D01*
X179738664Y-97986331D01*
X179631632Y-98133649D01*
X179631631Y-98133650D01*
X179548958Y-98295904D01*
X179492689Y-98469082D01*
X179492686Y-98469096D01*
X179464200Y-98648945D01*
X175649187Y-98648945D01*
X175571157Y-98532166D01*
X175468934Y-98429943D01*
X175468932Y-98429941D01*
X175409239Y-98390056D01*
X175348732Y-98349626D01*
X175348729Y-98349624D01*
X175348728Y-98349624D01*
X175215173Y-98294303D01*
X175120645Y-98275501D01*
X175073383Y-98266100D01*
X174928817Y-98266100D01*
X174893370Y-98273150D01*
X174787026Y-98294303D01*
X174653471Y-98349624D01*
X174533267Y-98429941D01*
X174533266Y-98429943D01*
X174431043Y-98532166D01*
X174431041Y-98532167D01*
X174350724Y-98652371D01*
X174295403Y-98785926D01*
X174267200Y-98927717D01*
X174267200Y-99072283D01*
X174285952Y-99166560D01*
X174278644Y-99228303D01*
X174236440Y-99273958D01*
X174175460Y-99286088D01*
X174167660Y-99284852D01*
X174073384Y-99266100D01*
X174073383Y-99266100D01*
X173928817Y-99266100D01*
X173893370Y-99273150D01*
X173787026Y-99294303D01*
X173653471Y-99349624D01*
X173533267Y-99429941D01*
X173533266Y-99429943D01*
X173431043Y-99532166D01*
X173431041Y-99532167D01*
X173350724Y-99652371D01*
X173295403Y-99785926D01*
X173267200Y-99927717D01*
X173267200Y-100072283D01*
X173285952Y-100166560D01*
X173278644Y-100228303D01*
X173236440Y-100273958D01*
X173175460Y-100286088D01*
X173167660Y-100284852D01*
X173073384Y-100266100D01*
X173073383Y-100266100D01*
X172928817Y-100266100D01*
X172893370Y-100273150D01*
X172787026Y-100294303D01*
X172653471Y-100349624D01*
X172533267Y-100429941D01*
X172533266Y-100429943D01*
X172431043Y-100532166D01*
X172431041Y-100532167D01*
X172350724Y-100652371D01*
X172295403Y-100785926D01*
X172267200Y-100927717D01*
X172267200Y-101072283D01*
X172285952Y-101166560D01*
X172278644Y-101228303D01*
X172236440Y-101273958D01*
X172175460Y-101286088D01*
X172167660Y-101284852D01*
X172073384Y-101266100D01*
X172073383Y-101266100D01*
X171928817Y-101266100D01*
X171893370Y-101273150D01*
X171787026Y-101294303D01*
X171653471Y-101349624D01*
X171533267Y-101429941D01*
X171533266Y-101429943D01*
X171431043Y-101532166D01*
X171431041Y-101532167D01*
X171350724Y-101652371D01*
X171295403Y-101785926D01*
X171267200Y-101927717D01*
X171267200Y-102072282D01*
X171295403Y-102214073D01*
X171350724Y-102347628D01*
X171350726Y-102347632D01*
X171353739Y-102352141D01*
X171431041Y-102467832D01*
X171437735Y-102474526D01*
X171465961Y-102529924D01*
X171467200Y-102545661D01*
X171467200Y-105748138D01*
X171447987Y-105807269D01*
X171397687Y-105843814D01*
X171335513Y-105843814D01*
X171328102Y-105841080D01*
X171215173Y-105794303D01*
X171120645Y-105775501D01*
X171073383Y-105766100D01*
X170928817Y-105766100D01*
X170893370Y-105773150D01*
X170787026Y-105794303D01*
X170699498Y-105830559D01*
X170637516Y-105835437D01*
X170584503Y-105802952D01*
X170560710Y-105745510D01*
X170560400Y-105737617D01*
X170560400Y-104514449D01*
X170577353Y-104458560D01*
X170651474Y-104347632D01*
X170706797Y-104214071D01*
X170735000Y-104072283D01*
X170735000Y-103927717D01*
X170706797Y-103785929D01*
X170651474Y-103652368D01*
X170571157Y-103532166D01*
X170468934Y-103429943D01*
X170468932Y-103429941D01*
X170409239Y-103390056D01*
X170348732Y-103349626D01*
X170348729Y-103349624D01*
X170348728Y-103349624D01*
X170215173Y-103294303D01*
X170120645Y-103275501D01*
X170073383Y-103266100D01*
X169928817Y-103266100D01*
X169893370Y-103273150D01*
X169787026Y-103294303D01*
X169653471Y-103349624D01*
X169533267Y-103429941D01*
X169533266Y-103429943D01*
X169431043Y-103532166D01*
X169431041Y-103532167D01*
X169350724Y-103652371D01*
X169295403Y-103785926D01*
X169288329Y-103821491D01*
X169267200Y-103927717D01*
X169267200Y-104072283D01*
X169276601Y-104119545D01*
X169295403Y-104214073D01*
X169334946Y-104309536D01*
X169350726Y-104347632D01*
X169424846Y-104458560D01*
X169441800Y-104514449D01*
X169441800Y-110737617D01*
X169422587Y-110796748D01*
X169372287Y-110833293D01*
X169310113Y-110833293D01*
X169302702Y-110830559D01*
X169215173Y-110794303D01*
X169120645Y-110775501D01*
X169073383Y-110766100D01*
X168928817Y-110766100D01*
X168893370Y-110773150D01*
X168787026Y-110794303D01*
X168699498Y-110830559D01*
X168637516Y-110835437D01*
X168584503Y-110802952D01*
X168560710Y-110745510D01*
X168560400Y-110737617D01*
X168560400Y-109014449D01*
X168577353Y-108958560D01*
X168651474Y-108847632D01*
X168706797Y-108714071D01*
X168735000Y-108572283D01*
X168735000Y-108427717D01*
X168706797Y-108285929D01*
X168651474Y-108152368D01*
X168571157Y-108032166D01*
X168468934Y-107929943D01*
X168468932Y-107929941D01*
X168409239Y-107890056D01*
X168348732Y-107849626D01*
X168348729Y-107849624D01*
X168348728Y-107849624D01*
X168215173Y-107794303D01*
X168100963Y-107771586D01*
X168073383Y-107766100D01*
X167928817Y-107766100D01*
X167901237Y-107771586D01*
X167787026Y-107794303D01*
X167653471Y-107849624D01*
X167533267Y-107929941D01*
X167533266Y-107929943D01*
X167431043Y-108032166D01*
X167431041Y-108032167D01*
X167350724Y-108152371D01*
X167295403Y-108285926D01*
X167267200Y-108427717D01*
X167267200Y-108572282D01*
X167295403Y-108714073D01*
X167334703Y-108808950D01*
X167350726Y-108847632D01*
X167424846Y-108958560D01*
X167441800Y-109014449D01*
X167441800Y-114737617D01*
X167422587Y-114796748D01*
X167372287Y-114833293D01*
X167310113Y-114833293D01*
X167302702Y-114830559D01*
X167215173Y-114794303D01*
X167104246Y-114772239D01*
X167073383Y-114766100D01*
X166928817Y-114766100D01*
X166897954Y-114772239D01*
X166787026Y-114794303D01*
X166699498Y-114830559D01*
X166637516Y-114835437D01*
X166584503Y-114802952D01*
X166560710Y-114745510D01*
X166560400Y-114737617D01*
X166560400Y-113514449D01*
X166577353Y-113458560D01*
X166651474Y-113347632D01*
X166706797Y-113214071D01*
X166735000Y-113072283D01*
X166735000Y-112927717D01*
X166706797Y-112785929D01*
X166651474Y-112652368D01*
X166571157Y-112532166D01*
X166468934Y-112429943D01*
X166468932Y-112429941D01*
X166409239Y-112390056D01*
X166348732Y-112349626D01*
X166348729Y-112349624D01*
X166348728Y-112349624D01*
X166215173Y-112294303D01*
X166120645Y-112275501D01*
X166073383Y-112266100D01*
X165928817Y-112266100D01*
X165893370Y-112273150D01*
X165787026Y-112294303D01*
X165653471Y-112349624D01*
X165533267Y-112429941D01*
X165533266Y-112429943D01*
X165431043Y-112532166D01*
X165431041Y-112532167D01*
X165350724Y-112652371D01*
X165295403Y-112785926D01*
X165271816Y-112904511D01*
X165267200Y-112927717D01*
X165267200Y-113072283D01*
X165272229Y-113097564D01*
X165295403Y-113214073D01*
X165324418Y-113284119D01*
X165350726Y-113347632D01*
X165424846Y-113458560D01*
X165441800Y-113514449D01*
X165441800Y-125730261D01*
X165422587Y-125789392D01*
X165412335Y-125801396D01*
X164124640Y-127089090D01*
X164069242Y-127117316D01*
X164007834Y-127107590D01*
X163963870Y-127063626D01*
X163954144Y-127002218D01*
X163957829Y-126986867D01*
X163969511Y-126950913D01*
X163969513Y-126950908D01*
X163998000Y-126771050D01*
X163998000Y-126588950D01*
X163998000Y-126588946D01*
X163997999Y-126588945D01*
X163987967Y-126525604D01*
X163969513Y-126409092D01*
X163926231Y-126275883D01*
X163913241Y-126235904D01*
X163830568Y-126073650D01*
X163830567Y-126073649D01*
X163723535Y-125926331D01*
X163594768Y-125797564D01*
X163447450Y-125690532D01*
X163447449Y-125690531D01*
X163285195Y-125607858D01*
X163112017Y-125551589D01*
X163112003Y-125551586D01*
X162932154Y-125523100D01*
X162932150Y-125523100D01*
X162750050Y-125523100D01*
X162750046Y-125523100D01*
X162570196Y-125551586D01*
X162570182Y-125551589D01*
X162397004Y-125607858D01*
X162234750Y-125690531D01*
X162234749Y-125690532D01*
X162087431Y-125797564D01*
X161958664Y-125926331D01*
X161851632Y-126073649D01*
X161851631Y-126073650D01*
X161768958Y-126235904D01*
X161712689Y-126409082D01*
X161712686Y-126409096D01*
X161684200Y-126588945D01*
X161684200Y-126771054D01*
X161712686Y-126950903D01*
X161712689Y-126950917D01*
X161768958Y-127124095D01*
X161851626Y-127286340D01*
X161852358Y-127287533D01*
X161852467Y-127287990D01*
X161853425Y-127289869D01*
X161852974Y-127290098D01*
X161866874Y-127347989D01*
X161843083Y-127405432D01*
X161790072Y-127437920D01*
X161766584Y-127440700D01*
X160631062Y-127440700D01*
X160488824Y-127478813D01*
X160488819Y-127478815D01*
X160456934Y-127497224D01*
X160425050Y-127515632D01*
X160425048Y-127515632D01*
X160361280Y-127552449D01*
X157757682Y-130156049D01*
X157653549Y-130260181D01*
X157579917Y-130387714D01*
X157541800Y-130529964D01*
X157541800Y-132630261D01*
X157522587Y-132689392D01*
X157512335Y-132701396D01*
X155831586Y-134382144D01*
X155776188Y-134410370D01*
X155714780Y-134400644D01*
X155670816Y-134356680D01*
X155661090Y-134295272D01*
X155664775Y-134279921D01*
X155665647Y-134277238D01*
X155681217Y-134229318D01*
X155710000Y-134047594D01*
X155710000Y-132339606D01*
X155710000Y-132339602D01*
X155709999Y-132339601D01*
X155699907Y-132275883D01*
X155681217Y-132157882D01*
X155672586Y-132131317D01*
X155624362Y-131982897D01*
X155567838Y-131871964D01*
X155540833Y-131818963D01*
X155481111Y-131736763D01*
X155432688Y-131670114D01*
X155302585Y-131540011D01*
X155153737Y-131431867D01*
X155153738Y-131431867D01*
X154989802Y-131348337D01*
X154814827Y-131291485D01*
X154814813Y-131291482D01*
X154633098Y-131262700D01*
X154633094Y-131262700D01*
X154449106Y-131262700D01*
X154449102Y-131262700D01*
X154267386Y-131291482D01*
X154267372Y-131291485D01*
X154092397Y-131348337D01*
X153928462Y-131431867D01*
X153779614Y-131540011D01*
X153649511Y-131670114D01*
X153541367Y-131818962D01*
X153457837Y-131982897D01*
X153400985Y-132157872D01*
X153400982Y-132157886D01*
X153372200Y-132339601D01*
X153372200Y-134047598D01*
X153400982Y-134229313D01*
X153400985Y-134229327D01*
X153457837Y-134404302D01*
X153541367Y-134568237D01*
X153649511Y-134717085D01*
X153779614Y-134847188D01*
X153791699Y-134855968D01*
X153908322Y-134940700D01*
X153928462Y-134955332D01*
X153928461Y-134955332D01*
X154092397Y-135038862D01*
X154267372Y-135095714D01*
X154267374Y-135095714D01*
X154267382Y-135095717D01*
X154449101Y-135124499D01*
X154449103Y-135124500D01*
X154449106Y-135124500D01*
X154633097Y-135124500D01*
X154633097Y-135124499D01*
X154814818Y-135095717D01*
X154865422Y-135079275D01*
X154927595Y-135079275D01*
X154977896Y-135115819D01*
X154997109Y-135174950D01*
X154977896Y-135234082D01*
X154967644Y-135246086D01*
X154798896Y-135414835D01*
X154743499Y-135443061D01*
X154727761Y-135444300D01*
X125420143Y-135444300D01*
X125361012Y-135425087D01*
X125324467Y-135374787D01*
X125321476Y-135363326D01*
X125306796Y-135289526D01*
X125262437Y-135182435D01*
X125251474Y-135155968D01*
X125171157Y-135035766D01*
X125068934Y-134933543D01*
X125068932Y-134933541D01*
X124975612Y-134871187D01*
X124948732Y-134853226D01*
X124948729Y-134853224D01*
X124948728Y-134853224D01*
X124815173Y-134797903D01*
X124720645Y-134779101D01*
X124673383Y-134769700D01*
X124528817Y-134769700D01*
X124493370Y-134776750D01*
X124387026Y-134797903D01*
X124253471Y-134853224D01*
X124133267Y-134933541D01*
X124133266Y-134933543D01*
X124031043Y-135035766D01*
X124031039Y-135035769D01*
X123983427Y-135107026D01*
X123934600Y-135145517D01*
X123872474Y-135147958D01*
X123820779Y-135113415D01*
X123806840Y-135089633D01*
X123784528Y-135035767D01*
X123751474Y-134955968D01*
X123684568Y-134855837D01*
X123671158Y-134835767D01*
X123568932Y-134733541D01*
X123509239Y-134693656D01*
X123448732Y-134653226D01*
X123448729Y-134653224D01*
X123448728Y-134653224D01*
X123315173Y-134597903D01*
X123220645Y-134579101D01*
X123173383Y-134569700D01*
X123028817Y-134569700D01*
X123022699Y-134570917D01*
X122887026Y-134597903D01*
X122753471Y-134653224D01*
X122633267Y-134733541D01*
X122633266Y-134733543D01*
X122531043Y-134835766D01*
X122531041Y-134835767D01*
X122450724Y-134955971D01*
X122395403Y-135089526D01*
X122367200Y-135231317D01*
X122367200Y-135375882D01*
X122395403Y-135517673D01*
X122419515Y-135575883D01*
X122450726Y-135651232D01*
X122524846Y-135762159D01*
X122541800Y-135818049D01*
X122541800Y-136177235D01*
X122579916Y-136319483D01*
X122587865Y-136333250D01*
X122595814Y-136347018D01*
X122620266Y-136389371D01*
X122653549Y-136447018D01*
X122936791Y-136730260D01*
X123479095Y-137272565D01*
X123507321Y-137327963D01*
X123497595Y-137389372D01*
X123453631Y-137433335D01*
X123407960Y-137444300D01*
X117274439Y-137444300D01*
X117266718Y-137441791D01*
X117258702Y-137443061D01*
X117237713Y-137432366D01*
X117215308Y-137425087D01*
X117203304Y-137414835D01*
X117089865Y-137301396D01*
X117061639Y-137245998D01*
X117060400Y-137230261D01*
X117060400Y-135718049D01*
X117077354Y-135662159D01*
X117151474Y-135551232D01*
X117206797Y-135417671D01*
X117235000Y-135275883D01*
X117235000Y-135131317D01*
X117206797Y-134989529D01*
X117199489Y-134971887D01*
X117151475Y-134855971D01*
X117151474Y-134855968D01*
X117091100Y-134765613D01*
X117071158Y-134735767D01*
X116968932Y-134633541D01*
X116875208Y-134570917D01*
X116848732Y-134553226D01*
X116848729Y-134553224D01*
X116848728Y-134553224D01*
X116715173Y-134497903D01*
X116620645Y-134479101D01*
X116573383Y-134469700D01*
X116428817Y-134469700D01*
X116393370Y-134476750D01*
X116287026Y-134497903D01*
X116153471Y-134553224D01*
X116033267Y-134633541D01*
X116033266Y-134633543D01*
X115931043Y-134735766D01*
X115931041Y-134735767D01*
X115884746Y-134805054D01*
X115835919Y-134843546D01*
X115773793Y-134845987D01*
X115722097Y-134811445D01*
X115717454Y-134805054D01*
X115671158Y-134735767D01*
X115568932Y-134633541D01*
X115475208Y-134570917D01*
X115448732Y-134553226D01*
X115448729Y-134553224D01*
X115448728Y-134553224D01*
X115315173Y-134497903D01*
X115220645Y-134479101D01*
X115173383Y-134469700D01*
X115028817Y-134469700D01*
X114993370Y-134476750D01*
X114887026Y-134497903D01*
X114753471Y-134553224D01*
X114633267Y-134633541D01*
X114633266Y-134633543D01*
X114531043Y-134735766D01*
X114531041Y-134735767D01*
X114450724Y-134855971D01*
X114395403Y-134989526D01*
X114372032Y-135107026D01*
X114367200Y-135131317D01*
X114367200Y-135275883D01*
X114369914Y-135289526D01*
X114395403Y-135417673D01*
X114445038Y-135537500D01*
X114450726Y-135551232D01*
X114524846Y-135662159D01*
X114541800Y-135718049D01*
X114541800Y-138177235D01*
X114551671Y-138214073D01*
X114579916Y-138319482D01*
X114610610Y-138372645D01*
X114643704Y-138429967D01*
X114653549Y-138447018D01*
X115283761Y-139077231D01*
X115479095Y-139272565D01*
X115507321Y-139327963D01*
X115497595Y-139389372D01*
X115453631Y-139433335D01*
X115407960Y-139444300D01*
X113774439Y-139444300D01*
X113715308Y-139425087D01*
X113703304Y-139414835D01*
X109260356Y-134971887D01*
X109232824Y-134920378D01*
X109230034Y-134906350D01*
X109206797Y-134789529D01*
X109151474Y-134655968D01*
X109091100Y-134565613D01*
X109071158Y-134535767D01*
X108968932Y-134433541D01*
X108905339Y-134391050D01*
X108848732Y-134353226D01*
X108848729Y-134353224D01*
X108848728Y-134353224D01*
X108715173Y-134297903D01*
X108620645Y-134279101D01*
X108573383Y-134269700D01*
X108428817Y-134269700D01*
X108393370Y-134276750D01*
X108287026Y-134297903D01*
X108153471Y-134353224D01*
X108033267Y-134433541D01*
X108033266Y-134433543D01*
X107931043Y-134535766D01*
X107931041Y-134535767D01*
X107850725Y-134655969D01*
X107844042Y-134672104D01*
X107803662Y-134719381D01*
X107743206Y-134733895D01*
X107685764Y-134710101D01*
X107658158Y-134672104D01*
X107651474Y-134655969D01*
X107651474Y-134655968D01*
X107592854Y-134568237D01*
X107571158Y-134535767D01*
X107468932Y-134433541D01*
X107405339Y-134391050D01*
X107348732Y-134353226D01*
X107348729Y-134353224D01*
X107348728Y-134353224D01*
X107215173Y-134297903D01*
X107120645Y-134279101D01*
X107073383Y-134269700D01*
X106928817Y-134269700D01*
X106893370Y-134276750D01*
X106787026Y-134297903D01*
X106653471Y-134353224D01*
X106533267Y-134433541D01*
X106533266Y-134433543D01*
X106431043Y-134535766D01*
X106431041Y-134535767D01*
X106350724Y-134655971D01*
X106295403Y-134789526D01*
X106272166Y-134906349D01*
X106267200Y-134931317D01*
X101025778Y-134931317D01*
X101025778Y-134926373D01*
X101025830Y-132131317D01*
X108767200Y-132131317D01*
X108767200Y-132275882D01*
X108795403Y-132417673D01*
X108836825Y-132517673D01*
X108850726Y-132551232D01*
X108891156Y-132611739D01*
X108931041Y-132671432D01*
X108931043Y-132671434D01*
X109033266Y-132773657D01*
X109153468Y-132853974D01*
X109200987Y-132873657D01*
X109287026Y-132909296D01*
X109287027Y-132909296D01*
X109287029Y-132909297D01*
X109428817Y-132937500D01*
X109428818Y-132937500D01*
X109573382Y-132937500D01*
X109573383Y-132937500D01*
X109715171Y-132909297D01*
X109848732Y-132853974D01*
X109867227Y-132841615D01*
X109883634Y-132830654D01*
X109939523Y-132813700D01*
X116962677Y-132813700D01*
X117018566Y-132830654D01*
X117053467Y-132853973D01*
X117053470Y-132853975D01*
X117187026Y-132909296D01*
X117187027Y-132909296D01*
X117187029Y-132909297D01*
X117328817Y-132937500D01*
X117328818Y-132937500D01*
X117473382Y-132937500D01*
X117473383Y-132937500D01*
X117615171Y-132909297D01*
X117748732Y-132853974D01*
X117767227Y-132841615D01*
X117783634Y-132830654D01*
X117839523Y-132813700D01*
X124962677Y-132813700D01*
X125018566Y-132830654D01*
X125053467Y-132853973D01*
X125053470Y-132853975D01*
X125187026Y-132909296D01*
X125187027Y-132909296D01*
X125187029Y-132909297D01*
X125328817Y-132937500D01*
X125328818Y-132937500D01*
X125473382Y-132937500D01*
X125473383Y-132937500D01*
X125615171Y-132909297D01*
X125748732Y-132853974D01*
X125767227Y-132841615D01*
X125783634Y-132830654D01*
X125839523Y-132813700D01*
X128431639Y-132813700D01*
X128490770Y-132832913D01*
X128502774Y-132843165D01*
X128533266Y-132873657D01*
X128653468Y-132953974D01*
X128693211Y-132970436D01*
X128787026Y-133009296D01*
X128787027Y-133009296D01*
X128787029Y-133009297D01*
X128928817Y-133037500D01*
X128928818Y-133037500D01*
X129073382Y-133037500D01*
X129073383Y-133037500D01*
X129215171Y-133009297D01*
X129348732Y-132953974D01*
X129468934Y-132873657D01*
X129571157Y-132771434D01*
X129651474Y-132651232D01*
X129706797Y-132517671D01*
X129735000Y-132375883D01*
X129735000Y-132339601D01*
X148292200Y-132339601D01*
X148292200Y-134047598D01*
X148320982Y-134229313D01*
X148320985Y-134229327D01*
X148377837Y-134404302D01*
X148461367Y-134568237D01*
X148569511Y-134717085D01*
X148699614Y-134847188D01*
X148711699Y-134855968D01*
X148828322Y-134940700D01*
X148848462Y-134955332D01*
X148848461Y-134955332D01*
X149012397Y-135038862D01*
X149187372Y-135095714D01*
X149187374Y-135095714D01*
X149187382Y-135095717D01*
X149369101Y-135124499D01*
X149369103Y-135124500D01*
X149369106Y-135124500D01*
X149553097Y-135124500D01*
X149553097Y-135124499D01*
X149734818Y-135095717D01*
X149909802Y-135038862D01*
X150073737Y-134955333D01*
X150222587Y-134847187D01*
X150352687Y-134717087D01*
X150460833Y-134568237D01*
X150544362Y-134404302D01*
X150601217Y-134229318D01*
X150630000Y-134047594D01*
X150630000Y-132339606D01*
X150630000Y-132339602D01*
X150629999Y-132339601D01*
X150619907Y-132275883D01*
X150601217Y-132157882D01*
X150592586Y-132131317D01*
X150544362Y-131982897D01*
X150487838Y-131871964D01*
X150460833Y-131818963D01*
X150401111Y-131736763D01*
X150352688Y-131670114D01*
X150222585Y-131540011D01*
X150073740Y-131431869D01*
X150070361Y-131429798D01*
X150071154Y-131428503D01*
X150031363Y-131388710D01*
X150020400Y-131343042D01*
X150020400Y-129316939D01*
X150039613Y-129257808D01*
X150049865Y-129245804D01*
X150325705Y-128969964D01*
X150732814Y-128562854D01*
X150784320Y-128535324D01*
X150915171Y-128509297D01*
X151048732Y-128453974D01*
X151168934Y-128373657D01*
X151271157Y-128271434D01*
X151351474Y-128151232D01*
X151406797Y-128017671D01*
X151435000Y-127875883D01*
X151435000Y-127731317D01*
X151406797Y-127589529D01*
X151351474Y-127455968D01*
X151271157Y-127335766D01*
X151168934Y-127233543D01*
X151168932Y-127233541D01*
X151109239Y-127193656D01*
X151048732Y-127153226D01*
X151048729Y-127153224D01*
X151048728Y-127153224D01*
X150915173Y-127097903D01*
X150820645Y-127079101D01*
X150773383Y-127069700D01*
X150628817Y-127069700D01*
X150593370Y-127076750D01*
X150487026Y-127097903D01*
X150353471Y-127153224D01*
X150233267Y-127233541D01*
X150233266Y-127233543D01*
X150131043Y-127335766D01*
X150131041Y-127335767D01*
X150050724Y-127455971D01*
X149995403Y-127589526D01*
X149969375Y-127720378D01*
X149941843Y-127771887D01*
X149117682Y-128596049D01*
X149013549Y-128700181D01*
X148939917Y-128827714D01*
X148901800Y-128969964D01*
X148901800Y-131343042D01*
X148882587Y-131402173D01*
X148851290Y-131428903D01*
X148851839Y-131429798D01*
X148848459Y-131431869D01*
X148699614Y-131540011D01*
X148569511Y-131670114D01*
X148461367Y-131818962D01*
X148377837Y-131982897D01*
X148320985Y-132157872D01*
X148320982Y-132157886D01*
X148292200Y-132339601D01*
X129735000Y-132339601D01*
X129735000Y-132231317D01*
X129706797Y-132089529D01*
X129651474Y-131955968D01*
X129571157Y-131835766D01*
X129468934Y-131733543D01*
X129468932Y-131733541D01*
X129374006Y-131670114D01*
X129348732Y-131653226D01*
X129348729Y-131653224D01*
X129348728Y-131653224D01*
X129215173Y-131597903D01*
X129120645Y-131579101D01*
X129073383Y-131569700D01*
X128928817Y-131569700D01*
X128818883Y-131591567D01*
X128799257Y-131593500D01*
X125839523Y-131593500D01*
X125783634Y-131576546D01*
X125748732Y-131553226D01*
X125748729Y-131553224D01*
X125615173Y-131497903D01*
X125520645Y-131479101D01*
X125473383Y-131469700D01*
X125328817Y-131469700D01*
X125293370Y-131476750D01*
X125187026Y-131497903D01*
X125053470Y-131553224D01*
X125053467Y-131553226D01*
X125018566Y-131576546D01*
X124962677Y-131593500D01*
X117839523Y-131593500D01*
X117783634Y-131576546D01*
X117748732Y-131553226D01*
X117748729Y-131553224D01*
X117615173Y-131497903D01*
X117520645Y-131479101D01*
X117473383Y-131469700D01*
X117328817Y-131469700D01*
X117293370Y-131476750D01*
X117187026Y-131497903D01*
X117053470Y-131553224D01*
X117053467Y-131553226D01*
X117018566Y-131576546D01*
X116962677Y-131593500D01*
X109939523Y-131593500D01*
X109883634Y-131576546D01*
X109848732Y-131553226D01*
X109848729Y-131553224D01*
X109715173Y-131497903D01*
X109620645Y-131479101D01*
X109573383Y-131469700D01*
X109428817Y-131469700D01*
X109393370Y-131476750D01*
X109287026Y-131497903D01*
X109153471Y-131553224D01*
X109033267Y-131633541D01*
X109033266Y-131633543D01*
X108931043Y-131735766D01*
X108931041Y-131735767D01*
X108850724Y-131855971D01*
X108795403Y-131989526D01*
X108767200Y-132131317D01*
X101025830Y-132131317D01*
X101025830Y-132126373D01*
X101025979Y-124048945D01*
X161684200Y-124048945D01*
X161684200Y-124231054D01*
X161712686Y-124410903D01*
X161712689Y-124410917D01*
X161768958Y-124584095D01*
X161851631Y-124746349D01*
X161851632Y-124746350D01*
X161958664Y-124893668D01*
X162087431Y-125022435D01*
X162234749Y-125129467D01*
X162234750Y-125129468D01*
X162397004Y-125212141D01*
X162570182Y-125268410D01*
X162570184Y-125268410D01*
X162570192Y-125268413D01*
X162750045Y-125296899D01*
X162750047Y-125296900D01*
X162750050Y-125296900D01*
X162932153Y-125296900D01*
X162932153Y-125296899D01*
X163112008Y-125268413D01*
X163285195Y-125212141D01*
X163447448Y-125129469D01*
X163594770Y-125022434D01*
X163723534Y-124893670D01*
X163830569Y-124746348D01*
X163913241Y-124584095D01*
X163969513Y-124410908D01*
X163998000Y-124231050D01*
X163998000Y-124048950D01*
X163998000Y-124048946D01*
X163997999Y-124048945D01*
X163969513Y-123869092D01*
X163969510Y-123869082D01*
X163913241Y-123695904D01*
X163830568Y-123533650D01*
X163830567Y-123533649D01*
X163723535Y-123386331D01*
X163594768Y-123257564D01*
X163447450Y-123150532D01*
X163447449Y-123150531D01*
X163285195Y-123067858D01*
X163112017Y-123011589D01*
X163112003Y-123011586D01*
X162932154Y-122983100D01*
X162932150Y-122983100D01*
X162750050Y-122983100D01*
X162750046Y-122983100D01*
X162570196Y-123011586D01*
X162570182Y-123011589D01*
X162397004Y-123067858D01*
X162234750Y-123150531D01*
X162234749Y-123150532D01*
X162087431Y-123257564D01*
X161958664Y-123386331D01*
X161851632Y-123533649D01*
X161851631Y-123533650D01*
X161768958Y-123695904D01*
X161712689Y-123869082D01*
X161712686Y-123869096D01*
X161684200Y-124048945D01*
X101025979Y-124048945D01*
X101025979Y-124044995D01*
X101026030Y-121261478D01*
X101026342Y-104386364D01*
X102441800Y-104386364D01*
X102441800Y-121077235D01*
X102462363Y-121153974D01*
X102473430Y-121195278D01*
X102479917Y-121219485D01*
X102490315Y-121237494D01*
X102490319Y-121237500D01*
X102548040Y-121337477D01*
X102553549Y-121347018D01*
X104157681Y-122951151D01*
X104213019Y-122983100D01*
X104285214Y-123024782D01*
X104285215Y-123024782D01*
X104285218Y-123024784D01*
X104427467Y-123062900D01*
X104427469Y-123062900D01*
X109074731Y-123062900D01*
X109074733Y-123062900D01*
X109216982Y-123024784D01*
X109344518Y-122951151D01*
X109448651Y-122847018D01*
X109448650Y-122847018D01*
X110532816Y-121762853D01*
X110584321Y-121735324D01*
X110715171Y-121709297D01*
X110848732Y-121653974D01*
X110968934Y-121573657D01*
X111071157Y-121471434D01*
X111151474Y-121351232D01*
X111206797Y-121217671D01*
X111235000Y-121075883D01*
X111235000Y-120931317D01*
X111206797Y-120789529D01*
X111188028Y-120744218D01*
X111151475Y-120655971D01*
X111151474Y-120655968D01*
X111087224Y-120559812D01*
X111071158Y-120535767D01*
X110968932Y-120433541D01*
X110909239Y-120393656D01*
X110848732Y-120353226D01*
X110848729Y-120353224D01*
X110848728Y-120353224D01*
X110715173Y-120297903D01*
X110612888Y-120277558D01*
X110573383Y-120269700D01*
X110428817Y-120269700D01*
X110393370Y-120276750D01*
X110287026Y-120297903D01*
X110153471Y-120353224D01*
X110033267Y-120433541D01*
X110033266Y-120433543D01*
X109931044Y-120535764D01*
X109919246Y-120553422D01*
X109870419Y-120591913D01*
X109808293Y-120594354D01*
X109756597Y-120559812D01*
X109735078Y-120501480D01*
X109735000Y-120497531D01*
X109735000Y-120431317D01*
X109732824Y-120420376D01*
X109706797Y-120289529D01*
X109701838Y-120277558D01*
X109664912Y-120188410D01*
X109651474Y-120155968D01*
X109587224Y-120059812D01*
X109571158Y-120035767D01*
X109468932Y-119933541D01*
X109409239Y-119893656D01*
X109348732Y-119853226D01*
X109348729Y-119853224D01*
X109348728Y-119853224D01*
X109215173Y-119797903D01*
X109120645Y-119779101D01*
X109073383Y-119769700D01*
X108928817Y-119769700D01*
X108893370Y-119776750D01*
X108787026Y-119797903D01*
X108653471Y-119853224D01*
X108533267Y-119933541D01*
X108533266Y-119933543D01*
X108431043Y-120035766D01*
X108431041Y-120035767D01*
X108350724Y-120155971D01*
X108295403Y-120289526D01*
X108269376Y-120420376D01*
X108241844Y-120471885D01*
X107859877Y-120853853D01*
X107804479Y-120882079D01*
X107743071Y-120872353D01*
X107699107Y-120828390D01*
X107689381Y-120766981D01*
X107695801Y-120744218D01*
X107706796Y-120717674D01*
X107706818Y-120717566D01*
X107735000Y-120575883D01*
X107735000Y-120431317D01*
X107706797Y-120289529D01*
X107701838Y-120277558D01*
X107664912Y-120188410D01*
X107651474Y-120155968D01*
X107587224Y-120059812D01*
X107571158Y-120035767D01*
X107468932Y-119933541D01*
X107409239Y-119893656D01*
X107348732Y-119853226D01*
X107348729Y-119853224D01*
X107348728Y-119853224D01*
X107215173Y-119797903D01*
X107120645Y-119779101D01*
X107073383Y-119769700D01*
X106928817Y-119769700D01*
X106893370Y-119776750D01*
X106787026Y-119797903D01*
X106653471Y-119853224D01*
X106542540Y-119927346D01*
X106486650Y-119944300D01*
X105774439Y-119944300D01*
X105766718Y-119941791D01*
X105758702Y-119943061D01*
X105737713Y-119932366D01*
X105715308Y-119925087D01*
X105703304Y-119914835D01*
X105589865Y-119801396D01*
X105561639Y-119745998D01*
X105560400Y-119730261D01*
X105560400Y-119273339D01*
X105579613Y-119214208D01*
X105589865Y-119202204D01*
X105703305Y-119088765D01*
X105758703Y-119060538D01*
X105774440Y-119059300D01*
X108073631Y-119059300D01*
X108073633Y-119059300D01*
X108215882Y-119021184D01*
X108343418Y-118947551D01*
X108447551Y-118843418D01*
X110988651Y-116302318D01*
X110999159Y-116284118D01*
X111062284Y-116174782D01*
X111100400Y-116032533D01*
X111100400Y-110052708D01*
X111119613Y-109993577D01*
X111155327Y-109963074D01*
X111203659Y-109938448D01*
X111364638Y-109821490D01*
X111505340Y-109680788D01*
X111622298Y-109519809D01*
X111712634Y-109342515D01*
X111774122Y-109153272D01*
X111805250Y-108956741D01*
X111805250Y-107043259D01*
X111805250Y-107043255D01*
X111805249Y-107043254D01*
X111774122Y-106846728D01*
X111760270Y-106804095D01*
X111712634Y-106657484D01*
X111622302Y-106480199D01*
X111622298Y-106480191D01*
X111505340Y-106319212D01*
X111364638Y-106178510D01*
X111364636Y-106178508D01*
X111241570Y-106089096D01*
X111203659Y-106061552D01*
X111203653Y-106061549D01*
X111203650Y-106061547D01*
X111026365Y-105971215D01*
X110837131Y-105909730D01*
X110837117Y-105909727D01*
X110640595Y-105878600D01*
X110640591Y-105878600D01*
X110441609Y-105878600D01*
X110441605Y-105878600D01*
X110245082Y-105909727D01*
X110245068Y-105909730D01*
X110055834Y-105971215D01*
X109878549Y-106061547D01*
X109878538Y-106061554D01*
X109717563Y-106178508D01*
X109576858Y-106319213D01*
X109459904Y-106480188D01*
X109459897Y-106480199D01*
X109369566Y-106657483D01*
X109366776Y-106666071D01*
X109330230Y-106716371D01*
X109271099Y-106735583D01*
X109211968Y-106716369D01*
X109175424Y-106666071D01*
X109172633Y-106657483D01*
X109082302Y-106480199D01*
X109082298Y-106480191D01*
X108965340Y-106319212D01*
X108824638Y-106178510D01*
X108824636Y-106178508D01*
X108701570Y-106089096D01*
X108663659Y-106061552D01*
X108663653Y-106061549D01*
X108663650Y-106061547D01*
X108486365Y-105971215D01*
X108297131Y-105909730D01*
X108297117Y-105909727D01*
X108100595Y-105878600D01*
X108100591Y-105878600D01*
X107901609Y-105878600D01*
X107901605Y-105878600D01*
X107705082Y-105909727D01*
X107705068Y-105909730D01*
X107515834Y-105971215D01*
X107338549Y-106061547D01*
X107338538Y-106061554D01*
X107177563Y-106178508D01*
X107036858Y-106319213D01*
X106919904Y-106480188D01*
X106919897Y-106480199D01*
X106829566Y-106657483D01*
X106826776Y-106666071D01*
X106790230Y-106716371D01*
X106731099Y-106735583D01*
X106671968Y-106716369D01*
X106635424Y-106666071D01*
X106632633Y-106657483D01*
X106542302Y-106480199D01*
X106542298Y-106480191D01*
X106425340Y-106319212D01*
X106284638Y-106178510D01*
X106284636Y-106178508D01*
X106161570Y-106089096D01*
X106123659Y-106061552D01*
X106123653Y-106061549D01*
X106123650Y-106061547D01*
X105946365Y-105971215D01*
X105757131Y-105909730D01*
X105757117Y-105909727D01*
X105560595Y-105878600D01*
X105560591Y-105878600D01*
X105361609Y-105878600D01*
X105361605Y-105878600D01*
X105165082Y-105909727D01*
X105165068Y-105909730D01*
X104975834Y-105971215D01*
X104798549Y-106061547D01*
X104798538Y-106061554D01*
X104637563Y-106178508D01*
X104496858Y-106319213D01*
X104379904Y-106480188D01*
X104379897Y-106480199D01*
X104289565Y-106657484D01*
X104228080Y-106846718D01*
X104228077Y-106846732D01*
X104196950Y-107043254D01*
X104196950Y-108956745D01*
X104228077Y-109153267D01*
X104228080Y-109153281D01*
X104289565Y-109342515D01*
X104373044Y-109506350D01*
X104379902Y-109519809D01*
X104430554Y-109589526D01*
X104496858Y-109680786D01*
X104496860Y-109680788D01*
X104637562Y-109821490D01*
X104798541Y-109938448D01*
X104846871Y-109963073D01*
X104890835Y-110007035D01*
X104901800Y-110052708D01*
X104901800Y-114766661D01*
X104882587Y-114825792D01*
X104872335Y-114837796D01*
X103732135Y-115977996D01*
X103676737Y-116006222D01*
X103615329Y-115996496D01*
X103571365Y-115952532D01*
X103560400Y-115906861D01*
X103560400Y-104733338D01*
X103579613Y-104674207D01*
X103589859Y-104662209D01*
X104462935Y-103789132D01*
X104518333Y-103760907D01*
X104579741Y-103770633D01*
X104605205Y-103789133D01*
X104637562Y-103821490D01*
X104798541Y-103938448D01*
X104798549Y-103938452D01*
X104975834Y-104028784D01*
X105165068Y-104090269D01*
X105165070Y-104090269D01*
X105165078Y-104090272D01*
X105361604Y-104121399D01*
X105361606Y-104121400D01*
X105361609Y-104121400D01*
X105560594Y-104121400D01*
X105560594Y-104121399D01*
X105757122Y-104090272D01*
X105946365Y-104028784D01*
X106123659Y-103938448D01*
X106284638Y-103821490D01*
X106425340Y-103680788D01*
X106542298Y-103519809D01*
X106632634Y-103342515D01*
X106635424Y-103333928D01*
X106671968Y-103283629D01*
X106731099Y-103264416D01*
X106790230Y-103283628D01*
X106826776Y-103333928D01*
X106826777Y-103333930D01*
X106829567Y-103342519D01*
X106919897Y-103519800D01*
X106919902Y-103519809D01*
X106928880Y-103532166D01*
X107036858Y-103680786D01*
X107036860Y-103680788D01*
X107177562Y-103821490D01*
X107338541Y-103938448D01*
X107338549Y-103938452D01*
X107515834Y-104028784D01*
X107705068Y-104090269D01*
X107705070Y-104090269D01*
X107705078Y-104090272D01*
X107901604Y-104121399D01*
X107901606Y-104121400D01*
X107901609Y-104121400D01*
X108100594Y-104121400D01*
X108100594Y-104121399D01*
X108276993Y-104093460D01*
X108338402Y-104103185D01*
X108382366Y-104147149D01*
X108392092Y-104177080D01*
X108395996Y-104201726D01*
X108395997Y-104201730D01*
X108411084Y-104264573D01*
X108469585Y-104379386D01*
X108469590Y-104379395D01*
X108475248Y-104387182D01*
X108506134Y-104429694D01*
X108597259Y-104520820D01*
X108712085Y-104579328D01*
X108750081Y-104591673D01*
X108771215Y-104598540D01*
X108771216Y-104598540D01*
X108898496Y-104618699D01*
X108898498Y-104618700D01*
X108898500Y-104618700D01*
X117342450Y-104618700D01*
X117401581Y-104637913D01*
X117438126Y-104688213D01*
X117443050Y-104719300D01*
X117443050Y-119487279D01*
X117426096Y-119543169D01*
X117350724Y-119655971D01*
X117295403Y-119789526D01*
X117267200Y-119931317D01*
X117267200Y-120075883D01*
X117285952Y-120170160D01*
X117278644Y-120231903D01*
X117236440Y-120277558D01*
X117175460Y-120289688D01*
X117167660Y-120288452D01*
X117073384Y-120269700D01*
X117073383Y-120269700D01*
X116928817Y-120269700D01*
X116893370Y-120276750D01*
X116787026Y-120297903D01*
X116653471Y-120353224D01*
X116533267Y-120433541D01*
X116533266Y-120433543D01*
X116431043Y-120535766D01*
X116431041Y-120535767D01*
X116350724Y-120655971D01*
X116295403Y-120789526D01*
X116267200Y-120931317D01*
X116267200Y-121075882D01*
X116295402Y-121217671D01*
X116306399Y-121244219D01*
X116311276Y-121306202D01*
X116278790Y-121359214D01*
X116221348Y-121383006D01*
X116160892Y-121368491D01*
X116142321Y-121353851D01*
X115760355Y-120971885D01*
X115732823Y-120920376D01*
X115706797Y-120789529D01*
X115651474Y-120655968D01*
X115587224Y-120559812D01*
X115571158Y-120535767D01*
X115468932Y-120433541D01*
X115409239Y-120393656D01*
X115348732Y-120353226D01*
X115348729Y-120353224D01*
X115348728Y-120353224D01*
X115215173Y-120297903D01*
X115112888Y-120277558D01*
X115073383Y-120269700D01*
X114928817Y-120269700D01*
X114893370Y-120276750D01*
X114787026Y-120297903D01*
X114653471Y-120353224D01*
X114533267Y-120433541D01*
X114533266Y-120433543D01*
X114431043Y-120535766D01*
X114431041Y-120535767D01*
X114350724Y-120655971D01*
X114295403Y-120789526D01*
X114267200Y-120931317D01*
X114267200Y-121075882D01*
X114295403Y-121217673D01*
X114348979Y-121347015D01*
X114350726Y-121351232D01*
X114391156Y-121411739D01*
X114431041Y-121471432D01*
X114431043Y-121471434D01*
X114533266Y-121573657D01*
X114653468Y-121653974D01*
X114720248Y-121681635D01*
X114787026Y-121709296D01*
X114787027Y-121709296D01*
X114787029Y-121709297D01*
X114917878Y-121735324D01*
X114969386Y-121762855D01*
X115657682Y-122451152D01*
X115785219Y-122524785D01*
X115785222Y-122524785D01*
X115785225Y-122524787D01*
X115927461Y-122562899D01*
X115927465Y-122562899D01*
X115927467Y-122562900D01*
X115927469Y-122562900D01*
X119074731Y-122562900D01*
X119074733Y-122562900D01*
X119216982Y-122524784D01*
X119344518Y-122451151D01*
X119448651Y-122347018D01*
X119448650Y-122347018D01*
X120429969Y-121365700D01*
X120485363Y-121337477D01*
X120546771Y-121347203D01*
X120572231Y-121365700D01*
X121657682Y-122451152D01*
X121785219Y-122524785D01*
X121785222Y-122524785D01*
X121785225Y-122524787D01*
X121927461Y-122562899D01*
X121927465Y-122562899D01*
X121927467Y-122562900D01*
X121927469Y-122562900D01*
X126074731Y-122562900D01*
X126074733Y-122562900D01*
X126216982Y-122524784D01*
X126344518Y-122451151D01*
X126448651Y-122347018D01*
X126448650Y-122347018D01*
X127032815Y-121762853D01*
X127084321Y-121735324D01*
X127215171Y-121709297D01*
X127348732Y-121653974D01*
X127468934Y-121573657D01*
X127533646Y-121508945D01*
X161684200Y-121508945D01*
X161684200Y-121691054D01*
X161712686Y-121870903D01*
X161712689Y-121870917D01*
X161768958Y-122044095D01*
X161851631Y-122206349D01*
X161851632Y-122206350D01*
X161958664Y-122353668D01*
X162087431Y-122482435D01*
X162234749Y-122589467D01*
X162234750Y-122589468D01*
X162397004Y-122672141D01*
X162570182Y-122728410D01*
X162570184Y-122728410D01*
X162570192Y-122728413D01*
X162750045Y-122756899D01*
X162750047Y-122756900D01*
X162750050Y-122756900D01*
X162932153Y-122756900D01*
X162932153Y-122756899D01*
X163112008Y-122728413D01*
X163285195Y-122672141D01*
X163447448Y-122589469D01*
X163594770Y-122482434D01*
X163723534Y-122353670D01*
X163830569Y-122206348D01*
X163913241Y-122044095D01*
X163969513Y-121870908D01*
X163998000Y-121691050D01*
X163998000Y-121508950D01*
X163998000Y-121508946D01*
X163997999Y-121508945D01*
X163992058Y-121471434D01*
X163969513Y-121329092D01*
X163962076Y-121306202D01*
X163913241Y-121155904D01*
X163830568Y-120993650D01*
X163830567Y-120993649D01*
X163723535Y-120846331D01*
X163594768Y-120717564D01*
X163447450Y-120610532D01*
X163447449Y-120610531D01*
X163285195Y-120527858D01*
X163112017Y-120471589D01*
X163112003Y-120471586D01*
X162932154Y-120443100D01*
X162932150Y-120443100D01*
X162750050Y-120443100D01*
X162750046Y-120443100D01*
X162570196Y-120471586D01*
X162570182Y-120471589D01*
X162397004Y-120527858D01*
X162234750Y-120610531D01*
X162234749Y-120610532D01*
X162087431Y-120717564D01*
X161958664Y-120846331D01*
X161851632Y-120993649D01*
X161851631Y-120993650D01*
X161768958Y-121155904D01*
X161712689Y-121329082D01*
X161712686Y-121329096D01*
X161684200Y-121508945D01*
X127533646Y-121508945D01*
X127571157Y-121471434D01*
X127571160Y-121471430D01*
X127586077Y-121449106D01*
X127607190Y-121417506D01*
X127651474Y-121351232D01*
X127706797Y-121217671D01*
X127735000Y-121075883D01*
X127735000Y-120931317D01*
X127706797Y-120789529D01*
X127688028Y-120744218D01*
X127651475Y-120655971D01*
X127651474Y-120655968D01*
X127587224Y-120559812D01*
X127571158Y-120535767D01*
X127468932Y-120433541D01*
X127409239Y-120393656D01*
X127348732Y-120353226D01*
X127348729Y-120353224D01*
X127348728Y-120353224D01*
X127215173Y-120297903D01*
X127112888Y-120277558D01*
X127073383Y-120269700D01*
X126928817Y-120269700D01*
X126893370Y-120276750D01*
X126787026Y-120297903D01*
X126653471Y-120353224D01*
X126533267Y-120433541D01*
X126533266Y-120433543D01*
X126431043Y-120535766D01*
X126431041Y-120535767D01*
X126350724Y-120655971D01*
X126295403Y-120789526D01*
X126269376Y-120920376D01*
X126241844Y-120971885D01*
X125798896Y-121414835D01*
X125743499Y-121443061D01*
X125727761Y-121444300D01*
X124594239Y-121444300D01*
X124571840Y-121437022D01*
X124548572Y-121433338D01*
X124542829Y-121427595D01*
X124535108Y-121425087D01*
X124521264Y-121406032D01*
X124504606Y-121389376D01*
X124503335Y-121381355D01*
X124498563Y-121374787D01*
X124498563Y-121351233D01*
X124494877Y-121327968D01*
X124498563Y-121320732D01*
X124498563Y-121312613D01*
X124523100Y-121272569D01*
X124532810Y-121262858D01*
X124584320Y-121235324D01*
X124715171Y-121209297D01*
X124848732Y-121153974D01*
X124968934Y-121073657D01*
X125071157Y-120971434D01*
X125151474Y-120851232D01*
X125206797Y-120717671D01*
X125235000Y-120575883D01*
X125235000Y-120431317D01*
X125206797Y-120289529D01*
X125201838Y-120277558D01*
X125164912Y-120188410D01*
X125151474Y-120155968D01*
X125087224Y-120059812D01*
X125071158Y-120035767D01*
X124968932Y-119933541D01*
X124909239Y-119893656D01*
X124848732Y-119853226D01*
X124848729Y-119853224D01*
X124848728Y-119853224D01*
X124715173Y-119797903D01*
X124620645Y-119779101D01*
X124573383Y-119769700D01*
X124428817Y-119769700D01*
X124393370Y-119776750D01*
X124287026Y-119797903D01*
X124153471Y-119853224D01*
X124033267Y-119933541D01*
X124033266Y-119933543D01*
X123931044Y-120035764D01*
X123919246Y-120053422D01*
X123870419Y-120091913D01*
X123808293Y-120094354D01*
X123756597Y-120059812D01*
X123735078Y-120001480D01*
X123735000Y-119997531D01*
X123735000Y-119931317D01*
X123719467Y-119853226D01*
X123706797Y-119789529D01*
X123651474Y-119655968D01*
X123592857Y-119568242D01*
X123577354Y-119545040D01*
X123560400Y-119489150D01*
X123560400Y-118968945D01*
X161684200Y-118968945D01*
X161684200Y-119151054D01*
X161712686Y-119330903D01*
X161712689Y-119330917D01*
X161768958Y-119504095D01*
X161851631Y-119666349D01*
X161851632Y-119666350D01*
X161958664Y-119813668D01*
X162087431Y-119942435D01*
X162234749Y-120049467D01*
X162234750Y-120049468D01*
X162397004Y-120132141D01*
X162570182Y-120188410D01*
X162570184Y-120188410D01*
X162570192Y-120188413D01*
X162750045Y-120216899D01*
X162750047Y-120216900D01*
X162750050Y-120216900D01*
X162932153Y-120216900D01*
X162932153Y-120216899D01*
X163112008Y-120188413D01*
X163285195Y-120132141D01*
X163447448Y-120049469D01*
X163594770Y-119942434D01*
X163723534Y-119813670D01*
X163830569Y-119666348D01*
X163913241Y-119504095D01*
X163969513Y-119330908D01*
X163998000Y-119151050D01*
X163998000Y-118968950D01*
X163998000Y-118968946D01*
X163997999Y-118968945D01*
X163996912Y-118962079D01*
X163969513Y-118789092D01*
X163913241Y-118615905D01*
X163913241Y-118615904D01*
X163830568Y-118453650D01*
X163830567Y-118453649D01*
X163723535Y-118306331D01*
X163594768Y-118177564D01*
X163447450Y-118070532D01*
X163447449Y-118070531D01*
X163285195Y-117987858D01*
X163112017Y-117931589D01*
X163112003Y-117931586D01*
X162932154Y-117903100D01*
X162932150Y-117903100D01*
X162750050Y-117903100D01*
X162750046Y-117903100D01*
X162570196Y-117931586D01*
X162570182Y-117931589D01*
X162397004Y-117987858D01*
X162234750Y-118070531D01*
X162234749Y-118070532D01*
X162087431Y-118177564D01*
X161958664Y-118306331D01*
X161851632Y-118453649D01*
X161851631Y-118453650D01*
X161768958Y-118615904D01*
X161712689Y-118789082D01*
X161712686Y-118789096D01*
X161684200Y-118968945D01*
X123560400Y-118968945D01*
X123560400Y-117772239D01*
X123579613Y-117713108D01*
X123589865Y-117701104D01*
X124202204Y-117088765D01*
X124257602Y-117060539D01*
X124273339Y-117059300D01*
X138073631Y-117059300D01*
X138073633Y-117059300D01*
X138215882Y-117021184D01*
X138343418Y-116947551D01*
X138447551Y-116843418D01*
X140988651Y-114302318D01*
X141014296Y-114257900D01*
X141062284Y-114174782D01*
X141100400Y-114032533D01*
X141100400Y-113888945D01*
X161684200Y-113888945D01*
X161684200Y-114071054D01*
X161712686Y-114250903D01*
X161712689Y-114250917D01*
X161768958Y-114424095D01*
X161851631Y-114586349D01*
X161851632Y-114586350D01*
X161958664Y-114733668D01*
X162087431Y-114862435D01*
X162234749Y-114969467D01*
X162234750Y-114969468D01*
X162397004Y-115052141D01*
X162570182Y-115108410D01*
X162570184Y-115108410D01*
X162570192Y-115108413D01*
X162750045Y-115136899D01*
X162750047Y-115136900D01*
X162750050Y-115136900D01*
X162932153Y-115136900D01*
X162932153Y-115136899D01*
X163112008Y-115108413D01*
X163285195Y-115052141D01*
X163447448Y-114969469D01*
X163594770Y-114862434D01*
X163723534Y-114733670D01*
X163830569Y-114586348D01*
X163913241Y-114424095D01*
X163969513Y-114250908D01*
X163998000Y-114071050D01*
X163998000Y-113888950D01*
X163998000Y-113888946D01*
X163997999Y-113888945D01*
X163993407Y-113859953D01*
X163969513Y-113709092D01*
X163966918Y-113701104D01*
X163913241Y-113535904D01*
X163830568Y-113373650D01*
X163830567Y-113373649D01*
X163723535Y-113226331D01*
X163594768Y-113097564D01*
X163447450Y-112990532D01*
X163447449Y-112990531D01*
X163285195Y-112907858D01*
X163112017Y-112851589D01*
X163112003Y-112851586D01*
X162932154Y-112823100D01*
X162932150Y-112823100D01*
X162750050Y-112823100D01*
X162750046Y-112823100D01*
X162570196Y-112851586D01*
X162570182Y-112851589D01*
X162397004Y-112907858D01*
X162234750Y-112990531D01*
X162234749Y-112990532D01*
X162087431Y-113097564D01*
X161958664Y-113226331D01*
X161851632Y-113373649D01*
X161851631Y-113373650D01*
X161768958Y-113535904D01*
X161712689Y-113709082D01*
X161712686Y-113709096D01*
X161684200Y-113888945D01*
X141100400Y-113888945D01*
X141100400Y-111348945D01*
X161684200Y-111348945D01*
X161684200Y-111531054D01*
X161712686Y-111710903D01*
X161712689Y-111710917D01*
X161768958Y-111884095D01*
X161851631Y-112046349D01*
X161851632Y-112046350D01*
X161958664Y-112193668D01*
X162087431Y-112322435D01*
X162234749Y-112429467D01*
X162234750Y-112429468D01*
X162397004Y-112512141D01*
X162570182Y-112568410D01*
X162570184Y-112568410D01*
X162570192Y-112568413D01*
X162750045Y-112596899D01*
X162750047Y-112596900D01*
X162750050Y-112596900D01*
X162932153Y-112596900D01*
X162932153Y-112596899D01*
X163112008Y-112568413D01*
X163285195Y-112512141D01*
X163447448Y-112429469D01*
X163594770Y-112322434D01*
X163723534Y-112193670D01*
X163830569Y-112046348D01*
X163913241Y-111884095D01*
X163969513Y-111710908D01*
X163998000Y-111531050D01*
X163998000Y-111348950D01*
X163998000Y-111348946D01*
X163997999Y-111348945D01*
X163978721Y-111227231D01*
X163969513Y-111169092D01*
X163938498Y-111073638D01*
X163913241Y-110995904D01*
X163830568Y-110833650D01*
X163830567Y-110833649D01*
X163723535Y-110686331D01*
X163594768Y-110557564D01*
X163447450Y-110450532D01*
X163447449Y-110450531D01*
X163285195Y-110367858D01*
X163112017Y-110311589D01*
X163112003Y-110311586D01*
X162932154Y-110283100D01*
X162932150Y-110283100D01*
X162750050Y-110283100D01*
X162750046Y-110283100D01*
X162570196Y-110311586D01*
X162570182Y-110311589D01*
X162397004Y-110367858D01*
X162234750Y-110450531D01*
X162234749Y-110450532D01*
X162087431Y-110557564D01*
X161958664Y-110686331D01*
X161851632Y-110833649D01*
X161851631Y-110833650D01*
X161768958Y-110995904D01*
X161712689Y-111169082D01*
X161712686Y-111169096D01*
X161684200Y-111348945D01*
X141100400Y-111348945D01*
X141100400Y-110052708D01*
X141119613Y-109993577D01*
X141155327Y-109963074D01*
X141203659Y-109938448D01*
X141364638Y-109821490D01*
X141505340Y-109680788D01*
X141622298Y-109519809D01*
X141712634Y-109342515D01*
X141774122Y-109153272D01*
X141805250Y-108956741D01*
X141805250Y-108808945D01*
X161684200Y-108808945D01*
X161684200Y-108991054D01*
X161712686Y-109170903D01*
X161712689Y-109170917D01*
X161768958Y-109344095D01*
X161851631Y-109506349D01*
X161851632Y-109506350D01*
X161958664Y-109653668D01*
X162087431Y-109782435D01*
X162234749Y-109889467D01*
X162234750Y-109889468D01*
X162397004Y-109972141D01*
X162570182Y-110028410D01*
X162570184Y-110028410D01*
X162570192Y-110028413D01*
X162750045Y-110056899D01*
X162750047Y-110056900D01*
X162750050Y-110056900D01*
X162932153Y-110056900D01*
X162932153Y-110056899D01*
X163112008Y-110028413D01*
X163285195Y-109972141D01*
X163447448Y-109889469D01*
X163594770Y-109782434D01*
X163723534Y-109653670D01*
X163830569Y-109506348D01*
X163913241Y-109344095D01*
X163969513Y-109170908D01*
X163998000Y-108991050D01*
X163998000Y-108808950D01*
X163998000Y-108808946D01*
X163997999Y-108808945D01*
X163969513Y-108629092D01*
X163951055Y-108572283D01*
X163913241Y-108455904D01*
X163830568Y-108293650D01*
X163830567Y-108293649D01*
X163723535Y-108146331D01*
X163594768Y-108017564D01*
X163447450Y-107910532D01*
X163447449Y-107910531D01*
X163285195Y-107827858D01*
X163112017Y-107771589D01*
X163112003Y-107771586D01*
X162932154Y-107743100D01*
X162932150Y-107743100D01*
X162750050Y-107743100D01*
X162750046Y-107743100D01*
X162570196Y-107771586D01*
X162570182Y-107771589D01*
X162397004Y-107827858D01*
X162234750Y-107910531D01*
X162234749Y-107910532D01*
X162087431Y-108017564D01*
X161958664Y-108146331D01*
X161851632Y-108293649D01*
X161851631Y-108293650D01*
X161768958Y-108455904D01*
X161712689Y-108629082D01*
X161712686Y-108629096D01*
X161684200Y-108808945D01*
X141805250Y-108808945D01*
X141805250Y-107043259D01*
X141805250Y-107043255D01*
X141805249Y-107043254D01*
X141774122Y-106846728D01*
X141760270Y-106804095D01*
X141712634Y-106657484D01*
X141622302Y-106480199D01*
X141622298Y-106480191D01*
X141505340Y-106319212D01*
X141455073Y-106268945D01*
X161684200Y-106268945D01*
X161684200Y-106451054D01*
X161712686Y-106630903D01*
X161712689Y-106630917D01*
X161768958Y-106804095D01*
X161851631Y-106966349D01*
X161851632Y-106966350D01*
X161958664Y-107113668D01*
X162087431Y-107242435D01*
X162234749Y-107349467D01*
X162234750Y-107349468D01*
X162397004Y-107432141D01*
X162570182Y-107488410D01*
X162570184Y-107488410D01*
X162570192Y-107488413D01*
X162750045Y-107516899D01*
X162750047Y-107516900D01*
X162750050Y-107516900D01*
X162932153Y-107516900D01*
X162932153Y-107516899D01*
X163112008Y-107488413D01*
X163285195Y-107432141D01*
X163447448Y-107349469D01*
X163594770Y-107242434D01*
X163723534Y-107113670D01*
X163830569Y-106966348D01*
X163913241Y-106804095D01*
X163969513Y-106630908D01*
X163998000Y-106451050D01*
X163998000Y-106268950D01*
X163998000Y-106268946D01*
X163997999Y-106268945D01*
X163969513Y-106089092D01*
X163969510Y-106089082D01*
X163913241Y-105915904D01*
X163830568Y-105753650D01*
X163830567Y-105753649D01*
X163723535Y-105606331D01*
X163594768Y-105477564D01*
X163447450Y-105370532D01*
X163447449Y-105370531D01*
X163285195Y-105287858D01*
X163112017Y-105231589D01*
X163112003Y-105231586D01*
X162932154Y-105203100D01*
X162932150Y-105203100D01*
X162750050Y-105203100D01*
X162750046Y-105203100D01*
X162570196Y-105231586D01*
X162570182Y-105231589D01*
X162397004Y-105287858D01*
X162234750Y-105370531D01*
X162234749Y-105370532D01*
X162087431Y-105477564D01*
X161958664Y-105606331D01*
X161851632Y-105753649D01*
X161851631Y-105753650D01*
X161768958Y-105915904D01*
X161712689Y-106089082D01*
X161712686Y-106089096D01*
X161684200Y-106268945D01*
X141455073Y-106268945D01*
X141364638Y-106178510D01*
X141364636Y-106178508D01*
X141241570Y-106089096D01*
X141203659Y-106061552D01*
X141203653Y-106061549D01*
X141203650Y-106061547D01*
X141026365Y-105971215D01*
X140837131Y-105909730D01*
X140837117Y-105909727D01*
X140640595Y-105878600D01*
X140640591Y-105878600D01*
X140441609Y-105878600D01*
X140441605Y-105878600D01*
X140245082Y-105909727D01*
X140245068Y-105909730D01*
X140055834Y-105971215D01*
X139878549Y-106061547D01*
X139878538Y-106061554D01*
X139717563Y-106178508D01*
X139576858Y-106319213D01*
X139459904Y-106480188D01*
X139459897Y-106480199D01*
X139369566Y-106657483D01*
X139366776Y-106666071D01*
X139330230Y-106716371D01*
X139271099Y-106735583D01*
X139211968Y-106716369D01*
X139175424Y-106666071D01*
X139172633Y-106657483D01*
X139082302Y-106480199D01*
X139082298Y-106480191D01*
X138965340Y-106319212D01*
X138824638Y-106178510D01*
X138824636Y-106178508D01*
X138701570Y-106089096D01*
X138663659Y-106061552D01*
X138663653Y-106061549D01*
X138663650Y-106061547D01*
X138486365Y-105971215D01*
X138297131Y-105909730D01*
X138297117Y-105909727D01*
X138100595Y-105878600D01*
X138100591Y-105878600D01*
X137901609Y-105878600D01*
X137901605Y-105878600D01*
X137705082Y-105909727D01*
X137705068Y-105909730D01*
X137515834Y-105971215D01*
X137338549Y-106061547D01*
X137338538Y-106061554D01*
X137177563Y-106178508D01*
X137036858Y-106319213D01*
X136919904Y-106480188D01*
X136919897Y-106480199D01*
X136829566Y-106657483D01*
X136826776Y-106666071D01*
X136790230Y-106716371D01*
X136731099Y-106735583D01*
X136671968Y-106716369D01*
X136635424Y-106666071D01*
X136632633Y-106657483D01*
X136542302Y-106480199D01*
X136542298Y-106480191D01*
X136425340Y-106319212D01*
X136284638Y-106178510D01*
X136284636Y-106178508D01*
X136161570Y-106089096D01*
X136123659Y-106061552D01*
X136123653Y-106061549D01*
X136123650Y-106061547D01*
X135946365Y-105971215D01*
X135757131Y-105909730D01*
X135757117Y-105909727D01*
X135560595Y-105878600D01*
X135560591Y-105878600D01*
X135361609Y-105878600D01*
X135361605Y-105878600D01*
X135165082Y-105909727D01*
X135165068Y-105909730D01*
X134975834Y-105971215D01*
X134798549Y-106061547D01*
X134798538Y-106061554D01*
X134637563Y-106178508D01*
X134496858Y-106319213D01*
X134379904Y-106480188D01*
X134379897Y-106480199D01*
X134289565Y-106657484D01*
X134228080Y-106846718D01*
X134228077Y-106846732D01*
X134196950Y-107043254D01*
X134196950Y-108956745D01*
X134228077Y-109153267D01*
X134228080Y-109153281D01*
X134289565Y-109342515D01*
X134373044Y-109506350D01*
X134379902Y-109519809D01*
X134430554Y-109589526D01*
X134496858Y-109680786D01*
X134496860Y-109680788D01*
X134637562Y-109821490D01*
X134798541Y-109938448D01*
X134846871Y-109963073D01*
X134890835Y-110007035D01*
X134901800Y-110052708D01*
X134901800Y-112765561D01*
X134882587Y-112824692D01*
X134872335Y-112836696D01*
X132797796Y-114911235D01*
X132742398Y-114939461D01*
X132726661Y-114940700D01*
X122927461Y-114940700D01*
X122785225Y-114978812D01*
X122785218Y-114978815D01*
X122737750Y-115006221D01*
X122657682Y-115052448D01*
X122154084Y-115556047D01*
X121732135Y-115977996D01*
X121711144Y-115988690D01*
X121692087Y-116002537D01*
X121683969Y-116002537D01*
X121676737Y-116006222D01*
X121653471Y-116002537D01*
X121629913Y-116002537D01*
X121623345Y-115997765D01*
X121615329Y-115996496D01*
X121598672Y-115979839D01*
X121579613Y-115965992D01*
X121577104Y-115958271D01*
X121571365Y-115952532D01*
X121560400Y-115906861D01*
X121560400Y-115773339D01*
X121579613Y-115714208D01*
X121589865Y-115702204D01*
X122703304Y-114588765D01*
X122758702Y-114560539D01*
X122774439Y-114559300D01*
X130073631Y-114559300D01*
X130073633Y-114559300D01*
X130215882Y-114521184D01*
X130343418Y-114447551D01*
X130447551Y-114343418D01*
X133447551Y-111343418D01*
X133521185Y-111215881D01*
X133559300Y-111073633D01*
X133559300Y-110926367D01*
X133559300Y-104734438D01*
X133578513Y-104675307D01*
X133588759Y-104663309D01*
X133787940Y-104464127D01*
X133843335Y-104435903D01*
X133904744Y-104445629D01*
X133930207Y-104464128D01*
X133964643Y-104498565D01*
X133986898Y-104520820D01*
X134101724Y-104579328D01*
X134139720Y-104591673D01*
X134160854Y-104598540D01*
X134160855Y-104598540D01*
X134288135Y-104618699D01*
X134288137Y-104618700D01*
X134288139Y-104618700D01*
X134906191Y-104618700D01*
X134938494Y-104617430D01*
X134938502Y-104617429D01*
X134938511Y-104617429D01*
X134954248Y-104616190D01*
X134954260Y-104616188D01*
X134954267Y-104616188D01*
X134986339Y-104612392D01*
X134986344Y-104612390D01*
X134986349Y-104612390D01*
X135108913Y-104572568D01*
X135147424Y-104552945D01*
X135160247Y-104546413D01*
X135162005Y-104545615D01*
X135164313Y-104544340D01*
X135164316Y-104544340D01*
X135177015Y-104535114D01*
X135205457Y-104514449D01*
X135268574Y-104468592D01*
X135344322Y-104364333D01*
X135352835Y-104347625D01*
X135372243Y-104309536D01*
X135416207Y-104265572D01*
X135477615Y-104255846D01*
X135533013Y-104284072D01*
X135551513Y-104309535D01*
X135579435Y-104364335D01*
X135587109Y-104379395D01*
X135592767Y-104387182D01*
X135623653Y-104429694D01*
X135714778Y-104520820D01*
X135829604Y-104579328D01*
X135867600Y-104591673D01*
X135888734Y-104598540D01*
X135888735Y-104598540D01*
X136016015Y-104618699D01*
X136016017Y-104618700D01*
X136016019Y-104618700D01*
X137446191Y-104618700D01*
X137478494Y-104617430D01*
X137478502Y-104617429D01*
X137478511Y-104617429D01*
X137494248Y-104616190D01*
X137494260Y-104616188D01*
X137494267Y-104616188D01*
X137526339Y-104612392D01*
X137526344Y-104612390D01*
X137526349Y-104612390D01*
X137648913Y-104572568D01*
X137687424Y-104552945D01*
X137700247Y-104546413D01*
X137702005Y-104545615D01*
X137704313Y-104544340D01*
X137704316Y-104544340D01*
X137717015Y-104535114D01*
X137745457Y-104514449D01*
X137808574Y-104468592D01*
X137884322Y-104364333D01*
X137892835Y-104347625D01*
X137912243Y-104309536D01*
X137956207Y-104265572D01*
X138017615Y-104255846D01*
X138073013Y-104284072D01*
X138091513Y-104309535D01*
X138119435Y-104364335D01*
X138127109Y-104379395D01*
X138132767Y-104387182D01*
X138163653Y-104429694D01*
X138254778Y-104520820D01*
X138369604Y-104579328D01*
X138407600Y-104591673D01*
X138428734Y-104598540D01*
X138428735Y-104598540D01*
X138556015Y-104618699D01*
X138556017Y-104618700D01*
X138556019Y-104618700D01*
X146103690Y-104618700D01*
X146103700Y-104618700D01*
X146168139Y-104613628D01*
X146199226Y-104608704D01*
X146262071Y-104593616D01*
X146376895Y-104535110D01*
X146427195Y-104498565D01*
X146518320Y-104407441D01*
X146576827Y-104292616D01*
X146596040Y-104233485D01*
X146596040Y-104233484D01*
X146616200Y-104106200D01*
X146616200Y-103006369D01*
X149129000Y-103006369D01*
X149129000Y-105000830D01*
X149144090Y-105096103D01*
X149144091Y-105096106D01*
X149198607Y-105203100D01*
X149202608Y-105210951D01*
X149293749Y-105302092D01*
X149408594Y-105360609D01*
X149471240Y-105370531D01*
X149503869Y-105375699D01*
X149503874Y-105375700D01*
X149503876Y-105375700D01*
X151498326Y-105375700D01*
X151498330Y-105375699D01*
X151593606Y-105360609D01*
X151708451Y-105302092D01*
X151799592Y-105210951D01*
X151858109Y-105096106D01*
X151873200Y-105000824D01*
X151873200Y-103006376D01*
X151858109Y-102911094D01*
X151799592Y-102796249D01*
X151708451Y-102705108D01*
X151708450Y-102705107D01*
X151593606Y-102646591D01*
X151593603Y-102646590D01*
X151498330Y-102631500D01*
X151498324Y-102631500D01*
X149503876Y-102631500D01*
X149503869Y-102631500D01*
X149408596Y-102646590D01*
X149408593Y-102646591D01*
X149293749Y-102705107D01*
X149202607Y-102796249D01*
X149144091Y-102911093D01*
X149144090Y-102911096D01*
X149129000Y-103006369D01*
X146616200Y-103006369D01*
X146616200Y-101188945D01*
X161684200Y-101188945D01*
X161684200Y-101371054D01*
X161712686Y-101550903D01*
X161712689Y-101550917D01*
X161768958Y-101724095D01*
X161851631Y-101886349D01*
X161851632Y-101886350D01*
X161958664Y-102033668D01*
X162087431Y-102162435D01*
X162234749Y-102269467D01*
X162234750Y-102269468D01*
X162397004Y-102352141D01*
X162570182Y-102408410D01*
X162570184Y-102408410D01*
X162570192Y-102408413D01*
X162750045Y-102436899D01*
X162750047Y-102436900D01*
X162750050Y-102436900D01*
X162932153Y-102436900D01*
X162932153Y-102436899D01*
X163112008Y-102408413D01*
X163285195Y-102352141D01*
X163447448Y-102269469D01*
X163594770Y-102162434D01*
X163723534Y-102033670D01*
X163830569Y-101886348D01*
X163913241Y-101724095D01*
X163969513Y-101550908D01*
X163998000Y-101371050D01*
X163998000Y-101188950D01*
X163998000Y-101188946D01*
X163997999Y-101188945D01*
X163969513Y-101009092D01*
X163916758Y-100846728D01*
X163913241Y-100835904D01*
X163830568Y-100673650D01*
X163830567Y-100673649D01*
X163723535Y-100526331D01*
X163594768Y-100397564D01*
X163447450Y-100290532D01*
X163447449Y-100290531D01*
X163285195Y-100207858D01*
X163112017Y-100151589D01*
X163112003Y-100151586D01*
X162932154Y-100123100D01*
X162932150Y-100123100D01*
X162750050Y-100123100D01*
X162750046Y-100123100D01*
X162570196Y-100151586D01*
X162570182Y-100151589D01*
X162397004Y-100207858D01*
X162234750Y-100290531D01*
X162234749Y-100290532D01*
X162087431Y-100397564D01*
X161958664Y-100526331D01*
X161851632Y-100673649D01*
X161851631Y-100673650D01*
X161768958Y-100835904D01*
X161712689Y-101009082D01*
X161712686Y-101009096D01*
X161684200Y-101188945D01*
X146616200Y-101188945D01*
X146616200Y-98648945D01*
X161684200Y-98648945D01*
X161684200Y-98831054D01*
X161712686Y-99010903D01*
X161712689Y-99010917D01*
X161768958Y-99184095D01*
X161851631Y-99346349D01*
X161851632Y-99346350D01*
X161958664Y-99493668D01*
X162087431Y-99622435D01*
X162234749Y-99729467D01*
X162234750Y-99729468D01*
X162397004Y-99812141D01*
X162570182Y-99868410D01*
X162570184Y-99868410D01*
X162570192Y-99868413D01*
X162750045Y-99896899D01*
X162750047Y-99896900D01*
X162750050Y-99896900D01*
X162932153Y-99896900D01*
X162932153Y-99896899D01*
X163112008Y-99868413D01*
X163285195Y-99812141D01*
X163447448Y-99729469D01*
X163594770Y-99622434D01*
X163723534Y-99493670D01*
X163830569Y-99346348D01*
X163913241Y-99184095D01*
X163969513Y-99010908D01*
X163998000Y-98831050D01*
X163998000Y-98648950D01*
X163998000Y-98648946D01*
X163997999Y-98648945D01*
X163979503Y-98532166D01*
X163969513Y-98469092D01*
X163930696Y-98349626D01*
X163913241Y-98295904D01*
X163830568Y-98133650D01*
X163830567Y-98133649D01*
X163723535Y-97986331D01*
X163594768Y-97857564D01*
X163447450Y-97750532D01*
X163447449Y-97750531D01*
X163285195Y-97667858D01*
X163112017Y-97611589D01*
X163112003Y-97611586D01*
X162932154Y-97583100D01*
X162932150Y-97583100D01*
X162750050Y-97583100D01*
X162750046Y-97583100D01*
X162570196Y-97611586D01*
X162570182Y-97611589D01*
X162397004Y-97667858D01*
X162234750Y-97750531D01*
X162234749Y-97750532D01*
X162087431Y-97857564D01*
X161958664Y-97986331D01*
X161851632Y-98133649D01*
X161851631Y-98133650D01*
X161768958Y-98295904D01*
X161712689Y-98469082D01*
X161712686Y-98469096D01*
X161684200Y-98648945D01*
X146616200Y-98648945D01*
X146616200Y-89006369D01*
X149129000Y-89006369D01*
X149129000Y-91000830D01*
X149144090Y-91096103D01*
X149144091Y-91096106D01*
X149202608Y-91210951D01*
X149293749Y-91302092D01*
X149408594Y-91360609D01*
X149479531Y-91371844D01*
X149503869Y-91375699D01*
X149503874Y-91375700D01*
X149503876Y-91375700D01*
X151498326Y-91375700D01*
X151498330Y-91375699D01*
X151593606Y-91360609D01*
X151708451Y-91302092D01*
X151799592Y-91210951D01*
X151858109Y-91096106D01*
X151873200Y-91000824D01*
X151873200Y-90713495D01*
X163280599Y-90713495D01*
X163280599Y-91886507D01*
X163286911Y-91939828D01*
X163336235Y-92058907D01*
X163336238Y-92058913D01*
X163369476Y-92101074D01*
X163369479Y-92101078D01*
X164197266Y-92928865D01*
X164225492Y-92984263D01*
X164215766Y-93045671D01*
X164197266Y-93071135D01*
X163369478Y-93898922D01*
X163336236Y-93941089D01*
X163336235Y-93941090D01*
X163286910Y-94060173D01*
X163280599Y-94113495D01*
X163280599Y-95249230D01*
X163280599Y-95286506D01*
X163286911Y-95339828D01*
X163336236Y-95458910D01*
X163369479Y-95501078D01*
X164198925Y-96330524D01*
X164241090Y-96363764D01*
X164360172Y-96413089D01*
X164413493Y-96419400D01*
X165586506Y-96419401D01*
X165639828Y-96413089D01*
X165758910Y-96363764D01*
X165801078Y-96330521D01*
X166630524Y-95501075D01*
X166663764Y-95458910D01*
X166677233Y-95426393D01*
X176717200Y-95426393D01*
X176717200Y-95431116D01*
X176717200Y-95580806D01*
X176747325Y-95732257D01*
X176806415Y-95874912D01*
X176806419Y-95874920D01*
X176892203Y-96003305D01*
X177001394Y-96112496D01*
X177129779Y-96198280D01*
X177129781Y-96198281D01*
X177129784Y-96198283D01*
X177201114Y-96227829D01*
X177272442Y-96257374D01*
X177272443Y-96257374D01*
X177272445Y-96257375D01*
X177423893Y-96287500D01*
X177423894Y-96287500D01*
X177583250Y-96287500D01*
X177583250Y-96289865D01*
X177635008Y-96301218D01*
X177655278Y-96316877D01*
X177668925Y-96330524D01*
X177711090Y-96363764D01*
X177830172Y-96413089D01*
X177883493Y-96419400D01*
X179056506Y-96419401D01*
X179109828Y-96413089D01*
X179228910Y-96363764D01*
X179271078Y-96330521D01*
X180100524Y-95501075D01*
X180133764Y-95458910D01*
X180183089Y-95339828D01*
X180189400Y-95286507D01*
X180189401Y-94113494D01*
X180183089Y-94060172D01*
X180133764Y-93941090D01*
X180100521Y-93898922D01*
X179272734Y-93071135D01*
X179244508Y-93015737D01*
X179254234Y-92954329D01*
X179272734Y-92928865D01*
X180100524Y-92101075D01*
X180133764Y-92058910D01*
X180183089Y-91939828D01*
X180189400Y-91886507D01*
X180189401Y-90713494D01*
X180183089Y-90660172D01*
X180133764Y-90541090D01*
X180100521Y-90498922D01*
X179271075Y-89669476D01*
X179228910Y-89636236D01*
X179228909Y-89636235D01*
X179109826Y-89586910D01*
X179056504Y-89580599D01*
X177883492Y-89580599D01*
X177830171Y-89586911D01*
X177711092Y-89636235D01*
X177711086Y-89636238D01*
X177668925Y-89669476D01*
X177668921Y-89669479D01*
X176839478Y-90498922D01*
X176806236Y-90541089D01*
X176806235Y-90541090D01*
X176756910Y-90660173D01*
X176750599Y-90713495D01*
X176750599Y-91886507D01*
X176756911Y-91939828D01*
X176806235Y-92058907D01*
X176806238Y-92058913D01*
X176839476Y-92101074D01*
X176839479Y-92101078D01*
X177667266Y-92928865D01*
X177695492Y-92984263D01*
X177685766Y-93045671D01*
X177667266Y-93071135D01*
X176839478Y-93898922D01*
X176806236Y-93941089D01*
X176806235Y-93941090D01*
X176756910Y-94060173D01*
X176750599Y-94113495D01*
X176750599Y-95249230D01*
X176748304Y-95264696D01*
X176748759Y-95268383D01*
X176747628Y-95274212D01*
X176747325Y-95274945D01*
X176717200Y-95426393D01*
X166677233Y-95426393D01*
X166713089Y-95339828D01*
X166719400Y-95286507D01*
X166719401Y-94113494D01*
X166713089Y-94060172D01*
X166663764Y-93941090D01*
X166630521Y-93898922D01*
X165802734Y-93071135D01*
X165774508Y-93015737D01*
X165784234Y-92954329D01*
X165802734Y-92928865D01*
X166630524Y-92101075D01*
X166663764Y-92058910D01*
X166713089Y-91939828D01*
X166719400Y-91886507D01*
X166719401Y-90713494D01*
X166713089Y-90660172D01*
X166663764Y-90541090D01*
X166630521Y-90498922D01*
X165801075Y-89669476D01*
X165758910Y-89636236D01*
X165758909Y-89636235D01*
X165639826Y-89586910D01*
X165586504Y-89580599D01*
X164413492Y-89580599D01*
X164360171Y-89586911D01*
X164241092Y-89636235D01*
X164241086Y-89636238D01*
X164198925Y-89669476D01*
X164198921Y-89669479D01*
X163369478Y-90498922D01*
X163336236Y-90541089D01*
X163336235Y-90541090D01*
X163286910Y-90660173D01*
X163280599Y-90713495D01*
X151873200Y-90713495D01*
X151873200Y-89006376D01*
X151858109Y-88911094D01*
X151799592Y-88796249D01*
X151708451Y-88705108D01*
X151708450Y-88705107D01*
X151593606Y-88646591D01*
X151593603Y-88646590D01*
X151498330Y-88631500D01*
X151498324Y-88631500D01*
X149503876Y-88631500D01*
X149503869Y-88631500D01*
X149408596Y-88646590D01*
X149408593Y-88646591D01*
X149293749Y-88705107D01*
X149202607Y-88796249D01*
X149144091Y-88911093D01*
X149144090Y-88911096D01*
X149129000Y-89006369D01*
X146616200Y-89006369D01*
X146616200Y-85866165D01*
X174823100Y-85866165D01*
X174823100Y-86133834D01*
X174858037Y-86399204D01*
X174858038Y-86399212D01*
X174927314Y-86657755D01*
X174927315Y-86657757D01*
X175029746Y-86905049D01*
X175141150Y-87098004D01*
X175163580Y-87136853D01*
X175326524Y-87349207D01*
X175515793Y-87538476D01*
X175728147Y-87701420D01*
X175812991Y-87750405D01*
X175959950Y-87835253D01*
X176207242Y-87937684D01*
X176207244Y-87937685D01*
X176296534Y-87961610D01*
X176465790Y-88006962D01*
X176686937Y-88036077D01*
X176731166Y-88041900D01*
X176731167Y-88041900D01*
X180268834Y-88041900D01*
X180306744Y-88036908D01*
X180534210Y-88006962D01*
X180792755Y-87937685D01*
X181040047Y-87835254D01*
X181271853Y-87701420D01*
X181484207Y-87538476D01*
X181673476Y-87349207D01*
X181836420Y-87136853D01*
X181970254Y-86905047D01*
X182072685Y-86657755D01*
X182141962Y-86399210D01*
X182176900Y-86133833D01*
X182176900Y-85866167D01*
X182176472Y-85862918D01*
X182166917Y-85790345D01*
X182141962Y-85600790D01*
X182072685Y-85342245D01*
X181970254Y-85094953D01*
X181970253Y-85094950D01*
X181850221Y-84887051D01*
X181836420Y-84863147D01*
X181673476Y-84650793D01*
X181484207Y-84461524D01*
X181451657Y-84436548D01*
X181271853Y-84298580D01*
X181040049Y-84164746D01*
X180792757Y-84062315D01*
X180792755Y-84062314D01*
X180534212Y-83993038D01*
X180534204Y-83993037D01*
X180268834Y-83958100D01*
X180268833Y-83958100D01*
X176731167Y-83958100D01*
X176731166Y-83958100D01*
X176465795Y-83993037D01*
X176465787Y-83993038D01*
X176207244Y-84062314D01*
X176207242Y-84062315D01*
X175959950Y-84164746D01*
X175728146Y-84298580D01*
X175515793Y-84461523D01*
X175326523Y-84650793D01*
X175163580Y-84863146D01*
X175029746Y-85094950D01*
X174927315Y-85342242D01*
X174927314Y-85342244D01*
X174858038Y-85600787D01*
X174858037Y-85600795D01*
X174823100Y-85866165D01*
X146616200Y-85866165D01*
X146616200Y-81771569D01*
X185394200Y-81771569D01*
X185394200Y-84235630D01*
X185409290Y-84330903D01*
X185409291Y-84330906D01*
X185463118Y-84436548D01*
X185467808Y-84445751D01*
X185558949Y-84536892D01*
X185673794Y-84595409D01*
X185744731Y-84606644D01*
X185769069Y-84610499D01*
X185769074Y-84610500D01*
X185769076Y-84610500D01*
X188233126Y-84610500D01*
X188233130Y-84610499D01*
X188328406Y-84595409D01*
X188443251Y-84536892D01*
X188534392Y-84445751D01*
X188592909Y-84330906D01*
X188608000Y-84235624D01*
X188608000Y-82877127D01*
X190894200Y-82877127D01*
X190894200Y-83130072D01*
X190933765Y-83379876D01*
X190933769Y-83379892D01*
X191011926Y-83620436D01*
X191126751Y-83845790D01*
X191126756Y-83845799D01*
X191201090Y-83948112D01*
X191275423Y-84050423D01*
X191454276Y-84229276D01*
X191463016Y-84235626D01*
X191658901Y-84377944D01*
X191658909Y-84377948D01*
X191884263Y-84492773D01*
X192124807Y-84570930D01*
X192124810Y-84570930D01*
X192124817Y-84570933D01*
X192124822Y-84570933D01*
X192124823Y-84570934D01*
X192374627Y-84610499D01*
X192374632Y-84610500D01*
X192374634Y-84610500D01*
X192627568Y-84610500D01*
X192627572Y-84610499D01*
X192830383Y-84578377D01*
X192877383Y-84570933D01*
X193117936Y-84492773D01*
X193343299Y-84377944D01*
X193547925Y-84229275D01*
X193726775Y-84050425D01*
X193875444Y-83845799D01*
X193990273Y-83620436D01*
X194068433Y-83379883D01*
X194108000Y-83130066D01*
X194108000Y-82877134D01*
X194068433Y-82627317D01*
X193990273Y-82386764D01*
X193990273Y-82386763D01*
X193875448Y-82161409D01*
X193875444Y-82161401D01*
X193726775Y-81956775D01*
X193547925Y-81777925D01*
X193547923Y-81777923D01*
X193408040Y-81676293D01*
X193343299Y-81629256D01*
X193343293Y-81629253D01*
X193343290Y-81629251D01*
X193117936Y-81514426D01*
X192877392Y-81436269D01*
X192877376Y-81436265D01*
X192627572Y-81396700D01*
X192627566Y-81396700D01*
X192374634Y-81396700D01*
X192374627Y-81396700D01*
X192124823Y-81436265D01*
X192124807Y-81436269D01*
X191884263Y-81514426D01*
X191658909Y-81629251D01*
X191658898Y-81629258D01*
X191454276Y-81777923D01*
X191275423Y-81956776D01*
X191126758Y-82161398D01*
X191126751Y-82161409D01*
X191011926Y-82386763D01*
X190933769Y-82627307D01*
X190933765Y-82627323D01*
X190894200Y-82877127D01*
X188608000Y-82877127D01*
X188608000Y-81771576D01*
X188592909Y-81676294D01*
X188534392Y-81561449D01*
X188443251Y-81470308D01*
X188443250Y-81470307D01*
X188328406Y-81411791D01*
X188328403Y-81411790D01*
X188233130Y-81396700D01*
X188233124Y-81396700D01*
X185769076Y-81396700D01*
X185769069Y-81396700D01*
X185673796Y-81411790D01*
X185673793Y-81411791D01*
X185558949Y-81470307D01*
X185467807Y-81561449D01*
X185409291Y-81676293D01*
X185409290Y-81676296D01*
X185394200Y-81771569D01*
X146616200Y-81771569D01*
X146616200Y-78677127D01*
X185394200Y-78677127D01*
X185394200Y-78930072D01*
X185433765Y-79179876D01*
X185433769Y-79179892D01*
X185511926Y-79420436D01*
X185626751Y-79645790D01*
X185626756Y-79645799D01*
X185701090Y-79748112D01*
X185775423Y-79850423D01*
X185775425Y-79850425D01*
X185954275Y-80029275D01*
X186158901Y-80177944D01*
X186158909Y-80177948D01*
X186384263Y-80292773D01*
X186624807Y-80370930D01*
X186624810Y-80370930D01*
X186624817Y-80370933D01*
X186624822Y-80370933D01*
X186624823Y-80370934D01*
X186874627Y-80410499D01*
X186874632Y-80410500D01*
X186874634Y-80410500D01*
X187127568Y-80410500D01*
X187127572Y-80410499D01*
X187377383Y-80370933D01*
X187617936Y-80292773D01*
X187843299Y-80177944D01*
X188047925Y-80029275D01*
X188226775Y-79850425D01*
X188375444Y-79645799D01*
X188490273Y-79420436D01*
X188568433Y-79179883D01*
X188608000Y-78930066D01*
X188608000Y-78677134D01*
X188568433Y-78427317D01*
X188490273Y-78186764D01*
X188490273Y-78186763D01*
X188375448Y-77961409D01*
X188375444Y-77961401D01*
X188226775Y-77756775D01*
X188047925Y-77577925D01*
X188047923Y-77577923D01*
X187945612Y-77503590D01*
X187843299Y-77429256D01*
X187843293Y-77429253D01*
X187843290Y-77429251D01*
X187617936Y-77314426D01*
X187377392Y-77236269D01*
X187377376Y-77236265D01*
X187127572Y-77196700D01*
X187127566Y-77196700D01*
X186874634Y-77196700D01*
X186874627Y-77196700D01*
X186624823Y-77236265D01*
X186624807Y-77236269D01*
X186384263Y-77314426D01*
X186158909Y-77429251D01*
X186158898Y-77429258D01*
X185954276Y-77577923D01*
X185775423Y-77756776D01*
X185626758Y-77961398D01*
X185626751Y-77961409D01*
X185511926Y-78186763D01*
X185433769Y-78427307D01*
X185433765Y-78427323D01*
X185394200Y-78677127D01*
X146616200Y-78677127D01*
X146616200Y-76719300D01*
X146635413Y-76660169D01*
X146685713Y-76623624D01*
X146716800Y-76618700D01*
X152103690Y-76618700D01*
X152103700Y-76618700D01*
X152168139Y-76613628D01*
X152199226Y-76608704D01*
X152262071Y-76593616D01*
X152376895Y-76535110D01*
X152427195Y-76498565D01*
X152518320Y-76407441D01*
X152576827Y-76292616D01*
X152596040Y-76233485D01*
X152596040Y-76233484D01*
X152616200Y-76106200D01*
X152616200Y-69901000D01*
X152613955Y-69872478D01*
X191000600Y-69872478D01*
X191000600Y-70134721D01*
X191034829Y-70394714D01*
X191034832Y-70394728D01*
X191102701Y-70648019D01*
X191102702Y-70648021D01*
X191203056Y-70890296D01*
X191334173Y-71117399D01*
X191334175Y-71117402D01*
X191334176Y-71117403D01*
X191493818Y-71325451D01*
X191679249Y-71510882D01*
X191887297Y-71670524D01*
X191887300Y-71670526D01*
X192114403Y-71801643D01*
X192356678Y-71901997D01*
X192356680Y-71901998D01*
X192609971Y-71969867D01*
X192609980Y-71969868D01*
X192609984Y-71969870D01*
X192739982Y-71986985D01*
X192869979Y-72004100D01*
X192869980Y-72004100D01*
X193132221Y-72004100D01*
X193218885Y-71992690D01*
X193392216Y-71969870D01*
X193392223Y-71969867D01*
X193392228Y-71969867D01*
X193645519Y-71901998D01*
X193645521Y-71901997D01*
X193887797Y-71801643D01*
X194114903Y-71670524D01*
X194322951Y-71510882D01*
X194508382Y-71325451D01*
X194668024Y-71117403D01*
X194799143Y-70890297D01*
X194899498Y-70648019D01*
X194967370Y-70394716D01*
X195001600Y-70134720D01*
X195001600Y-69872480D01*
X194997532Y-69841584D01*
X194967370Y-69612485D01*
X194967367Y-69612471D01*
X194899498Y-69359180D01*
X194899497Y-69359178D01*
X194799143Y-69116903D01*
X194668026Y-68889800D01*
X194668024Y-68889797D01*
X194508382Y-68681749D01*
X194322951Y-68496318D01*
X194114903Y-68336676D01*
X194114902Y-68336675D01*
X194114899Y-68336673D01*
X193887796Y-68205556D01*
X193645521Y-68105202D01*
X193645519Y-68105201D01*
X193392228Y-68037332D01*
X193392214Y-68037329D01*
X193132221Y-68003100D01*
X193132220Y-68003100D01*
X192869980Y-68003100D01*
X192869979Y-68003100D01*
X192609985Y-68037329D01*
X192609971Y-68037332D01*
X192356680Y-68105201D01*
X192356678Y-68105202D01*
X192114403Y-68205556D01*
X191887300Y-68336673D01*
X191679245Y-68496321D01*
X191493821Y-68681745D01*
X191334173Y-68889800D01*
X191203056Y-69116903D01*
X191102702Y-69359178D01*
X191102701Y-69359180D01*
X191034832Y-69612471D01*
X191034829Y-69612485D01*
X191000600Y-69872478D01*
X152613955Y-69872478D01*
X152611128Y-69836561D01*
X152606204Y-69805474D01*
X152591116Y-69742629D01*
X152591115Y-69742627D01*
X152591115Y-69742626D01*
X152532614Y-69627813D01*
X152532610Y-69627805D01*
X152496065Y-69577505D01*
X152404941Y-69486380D01*
X152404940Y-69486379D01*
X152290114Y-69427871D01*
X152230989Y-69408661D01*
X152230987Y-69408660D01*
X152230985Y-69408660D01*
X152230984Y-69408660D01*
X152223166Y-69407421D01*
X152223161Y-69407421D01*
X152103704Y-69388500D01*
X152103700Y-69388500D01*
X137898500Y-69388500D01*
X137898491Y-69388500D01*
X137834061Y-69393571D01*
X137834060Y-69393572D01*
X137802984Y-69398494D01*
X137802969Y-69398497D01*
X137740126Y-69413584D01*
X137625313Y-69472085D01*
X137625307Y-69472088D01*
X137625305Y-69472090D01*
X137625304Y-69472091D01*
X137575005Y-69508634D01*
X137483879Y-69599759D01*
X137425371Y-69714585D01*
X137406161Y-69773710D01*
X137406160Y-69773713D01*
X137406160Y-69773715D01*
X137406160Y-69773716D01*
X137404922Y-69781534D01*
X137404921Y-69781533D01*
X137404921Y-69781539D01*
X137386000Y-69900995D01*
X137386000Y-69901000D01*
X137386000Y-84436547D01*
X137397382Y-84532706D01*
X137397383Y-84532709D01*
X137408347Y-84578377D01*
X137408352Y-84578393D01*
X137441856Y-84669212D01*
X137441856Y-84669213D01*
X137441859Y-84669217D01*
X137517608Y-84773475D01*
X137561572Y-84817439D01*
X137561572Y-84817440D01*
X137581630Y-84832013D01*
X137584345Y-84834295D01*
X137599009Y-84857808D01*
X137615289Y-84880216D01*
X137615289Y-84883912D01*
X137617246Y-84887051D01*
X137615289Y-84914691D01*
X137615289Y-84942390D01*
X137612957Y-84947627D01*
X137612855Y-84949070D01*
X137611706Y-84950435D01*
X137606735Y-84961603D01*
X137529746Y-85094950D01*
X137427315Y-85342242D01*
X137427314Y-85342244D01*
X137358038Y-85600787D01*
X137358037Y-85600795D01*
X137323100Y-85866165D01*
X137323100Y-86133834D01*
X137358037Y-86399204D01*
X137358038Y-86399212D01*
X137427314Y-86657755D01*
X137427315Y-86657757D01*
X137529745Y-86905045D01*
X137529746Y-86905047D01*
X137606039Y-87037190D01*
X137618966Y-87098004D01*
X137593678Y-87154803D01*
X137578054Y-87168872D01*
X137575006Y-87171086D01*
X137483879Y-87262212D01*
X137425371Y-87377038D01*
X137406161Y-87436163D01*
X137406160Y-87436166D01*
X137406160Y-87436168D01*
X137406160Y-87436169D01*
X137404922Y-87443987D01*
X137404921Y-87443986D01*
X137404921Y-87443992D01*
X137386000Y-87563448D01*
X137386000Y-96287900D01*
X137366787Y-96347031D01*
X137316487Y-96383576D01*
X137285400Y-96388500D01*
X118658367Y-96388500D01*
X118541386Y-96405462D01*
X118541376Y-96405464D01*
X118486589Y-96421693D01*
X118486586Y-96421694D01*
X118379233Y-96471187D01*
X118379228Y-96471191D01*
X118363897Y-96484996D01*
X118307098Y-96510286D01*
X118246282Y-96497360D01*
X118218230Y-96481164D01*
X118218227Y-96481163D01*
X118075988Y-96443050D01*
X118075983Y-96443050D01*
X117928717Y-96443050D01*
X117928711Y-96443050D01*
X117786475Y-96481162D01*
X117786466Y-96481166D01*
X117761138Y-96495789D01*
X117700322Y-96508715D01*
X117651708Y-96490053D01*
X117646650Y-96486378D01*
X117531826Y-96427871D01*
X117472701Y-96408661D01*
X117472699Y-96408660D01*
X117472697Y-96408660D01*
X117472696Y-96408660D01*
X117464878Y-96407421D01*
X117464873Y-96407421D01*
X117345416Y-96388500D01*
X117345412Y-96388500D01*
X108898500Y-96388500D01*
X108898491Y-96388500D01*
X108834061Y-96393571D01*
X108834060Y-96393572D01*
X108802984Y-96398494D01*
X108802969Y-96398497D01*
X108740126Y-96413584D01*
X108625313Y-96472085D01*
X108625307Y-96472088D01*
X108625305Y-96472090D01*
X108625304Y-96472091D01*
X108575005Y-96508634D01*
X108483879Y-96599759D01*
X108425371Y-96714585D01*
X108406161Y-96773710D01*
X108406160Y-96773713D01*
X108406160Y-96773715D01*
X108406160Y-96773716D01*
X108404922Y-96781534D01*
X108404921Y-96781533D01*
X108404921Y-96781539D01*
X108386000Y-96900995D01*
X108386000Y-99806017D01*
X108366787Y-99865148D01*
X108316487Y-99901693D01*
X108269662Y-99905378D01*
X108100595Y-99878600D01*
X108100591Y-99878600D01*
X107901609Y-99878600D01*
X107901605Y-99878600D01*
X107705082Y-99909727D01*
X107705068Y-99909730D01*
X107515834Y-99971215D01*
X107338549Y-100061547D01*
X107338538Y-100061554D01*
X107177563Y-100178508D01*
X107036858Y-100319213D01*
X106919904Y-100480188D01*
X106919897Y-100480199D01*
X106829566Y-100657483D01*
X106826776Y-100666071D01*
X106790230Y-100716371D01*
X106731099Y-100735583D01*
X106671968Y-100716369D01*
X106635424Y-100666071D01*
X106632633Y-100657483D01*
X106542302Y-100480199D01*
X106542298Y-100480191D01*
X106425340Y-100319212D01*
X106284638Y-100178510D01*
X106284636Y-100178508D01*
X106204148Y-100120031D01*
X106123659Y-100061552D01*
X106123653Y-100061549D01*
X106123650Y-100061547D01*
X105946365Y-99971215D01*
X105757131Y-99909730D01*
X105757117Y-99909727D01*
X105560595Y-99878600D01*
X105560591Y-99878600D01*
X105361609Y-99878600D01*
X105361605Y-99878600D01*
X105165082Y-99909727D01*
X105165068Y-99909730D01*
X104975834Y-99971215D01*
X104798549Y-100061547D01*
X104798538Y-100061554D01*
X104637563Y-100178508D01*
X104496858Y-100319213D01*
X104379904Y-100480188D01*
X104379897Y-100480199D01*
X104289565Y-100657484D01*
X104228080Y-100846718D01*
X104228077Y-100846732D01*
X104196950Y-101043254D01*
X104196950Y-102431510D01*
X104177737Y-102490641D01*
X104167485Y-102502645D01*
X102657682Y-104012449D01*
X102553549Y-104116581D01*
X102479917Y-104244114D01*
X102441800Y-104386364D01*
X101026342Y-104386364D01*
X101026599Y-90438753D01*
X101026813Y-90432232D01*
X101043063Y-90184326D01*
X101044778Y-90171304D01*
X101092598Y-89930906D01*
X101095999Y-89918212D01*
X101174789Y-89686112D01*
X101179823Y-89673962D01*
X101182034Y-89669479D01*
X101288224Y-89454147D01*
X101294796Y-89442764D01*
X101430967Y-89238973D01*
X101438973Y-89228541D01*
X101485359Y-89175647D01*
X101600582Y-89044262D01*
X101609874Y-89034970D01*
X101794155Y-88873361D01*
X101804579Y-88865362D01*
X102008381Y-88729187D01*
X102019764Y-88722615D01*
X102239592Y-88614209D01*
X102251727Y-88609182D01*
X102483824Y-88530396D01*
X102496520Y-88526994D01*
X102736908Y-88479178D01*
X102749953Y-88477461D01*
X102998081Y-88461198D01*
X103004660Y-88460983D01*
X103009385Y-88460983D01*
X118466013Y-88460983D01*
X118466065Y-88461000D01*
X118507700Y-88461000D01*
X118640460Y-88461000D01*
X118678065Y-88456049D01*
X118903705Y-88426343D01*
X119160176Y-88357621D01*
X119405482Y-88256011D01*
X119635427Y-88123252D01*
X119846076Y-87961614D01*
X120033825Y-87773863D01*
X120195461Y-87563213D01*
X120328219Y-87333267D01*
X120429827Y-87087960D01*
X120469456Y-86940059D01*
X120498545Y-86831494D01*
X120498547Y-86831481D01*
X120515898Y-86699679D01*
X120533201Y-86568242D01*
X120533200Y-86435483D01*
X120533200Y-86427197D01*
X120533173Y-86427160D01*
X120533124Y-86411425D01*
X120533152Y-86411337D01*
X120533123Y-86411151D01*
X120533001Y-86133833D01*
X120532884Y-85866165D01*
X121523100Y-85866165D01*
X121523100Y-86133834D01*
X121558037Y-86399204D01*
X121558038Y-86399212D01*
X121627314Y-86657755D01*
X121627315Y-86657757D01*
X121729746Y-86905049D01*
X121841150Y-87098004D01*
X121863580Y-87136853D01*
X122026524Y-87349207D01*
X122215793Y-87538476D01*
X122428147Y-87701420D01*
X122512991Y-87750405D01*
X122659950Y-87835253D01*
X122907242Y-87937684D01*
X122907244Y-87937685D01*
X122996534Y-87961610D01*
X123165790Y-88006962D01*
X123386937Y-88036077D01*
X123431166Y-88041900D01*
X123431167Y-88041900D01*
X126968834Y-88041900D01*
X127006744Y-88036908D01*
X127234210Y-88006962D01*
X127492755Y-87937685D01*
X127740047Y-87835254D01*
X127971853Y-87701420D01*
X128184207Y-87538476D01*
X128373476Y-87349207D01*
X128536420Y-87136853D01*
X128670254Y-86905047D01*
X128772685Y-86657755D01*
X128841962Y-86399210D01*
X128876900Y-86133833D01*
X128876900Y-85866167D01*
X128876900Y-85866165D01*
X129423100Y-85866165D01*
X129423100Y-86133834D01*
X129458037Y-86399204D01*
X129458038Y-86399212D01*
X129527314Y-86657755D01*
X129527315Y-86657757D01*
X129629746Y-86905049D01*
X129741150Y-87098004D01*
X129763580Y-87136853D01*
X129926524Y-87349207D01*
X130115793Y-87538476D01*
X130328147Y-87701420D01*
X130412991Y-87750405D01*
X130559950Y-87835253D01*
X130807242Y-87937684D01*
X130807244Y-87937685D01*
X130896534Y-87961610D01*
X131065790Y-88006962D01*
X131286937Y-88036077D01*
X131331166Y-88041900D01*
X131331167Y-88041900D01*
X134868834Y-88041900D01*
X134906744Y-88036908D01*
X135134210Y-88006962D01*
X135392755Y-87937685D01*
X135640047Y-87835254D01*
X135871853Y-87701420D01*
X136084207Y-87538476D01*
X136273476Y-87349207D01*
X136436420Y-87136853D01*
X136570254Y-86905047D01*
X136672685Y-86657755D01*
X136741962Y-86399210D01*
X136776900Y-86133833D01*
X136776900Y-85866167D01*
X136776472Y-85862918D01*
X136766917Y-85790345D01*
X136741962Y-85600790D01*
X136672685Y-85342245D01*
X136570254Y-85094953D01*
X136570253Y-85094950D01*
X136450221Y-84887051D01*
X136436420Y-84863147D01*
X136273476Y-84650793D01*
X136084207Y-84461524D01*
X136051657Y-84436548D01*
X135871853Y-84298580D01*
X135640049Y-84164746D01*
X135392757Y-84062315D01*
X135392755Y-84062314D01*
X135134212Y-83993038D01*
X135134204Y-83993037D01*
X134868834Y-83958100D01*
X134868833Y-83958100D01*
X131331167Y-83958100D01*
X131331166Y-83958100D01*
X131065795Y-83993037D01*
X131065787Y-83993038D01*
X130807244Y-84062314D01*
X130807242Y-84062315D01*
X130559950Y-84164746D01*
X130328146Y-84298580D01*
X130115793Y-84461523D01*
X129926523Y-84650793D01*
X129763580Y-84863146D01*
X129629746Y-85094950D01*
X129527315Y-85342242D01*
X129527314Y-85342244D01*
X129458038Y-85600787D01*
X129458037Y-85600795D01*
X129423100Y-85866165D01*
X128876900Y-85866165D01*
X128876472Y-85862918D01*
X128866917Y-85790345D01*
X128841962Y-85600790D01*
X128772685Y-85342245D01*
X128670254Y-85094953D01*
X128670253Y-85094950D01*
X128550221Y-84887051D01*
X128536420Y-84863147D01*
X128373476Y-84650793D01*
X128184207Y-84461524D01*
X128151657Y-84436548D01*
X127971853Y-84298580D01*
X127740049Y-84164746D01*
X127492757Y-84062315D01*
X127492755Y-84062314D01*
X127234212Y-83993038D01*
X127234204Y-83993037D01*
X126968834Y-83958100D01*
X126968833Y-83958100D01*
X123431167Y-83958100D01*
X123431166Y-83958100D01*
X123165795Y-83993037D01*
X123165787Y-83993038D01*
X122907244Y-84062314D01*
X122907242Y-84062315D01*
X122659950Y-84164746D01*
X122428146Y-84298580D01*
X122215793Y-84461523D01*
X122026523Y-84650793D01*
X121863580Y-84863146D01*
X121729746Y-85094950D01*
X121627315Y-85342242D01*
X121627314Y-85342244D01*
X121558038Y-85600787D01*
X121558037Y-85600795D01*
X121523100Y-85866165D01*
X120532884Y-85866165D01*
X120525483Y-68997996D01*
X120525697Y-68991401D01*
X120541944Y-68743528D01*
X120543659Y-68730509D01*
X120591478Y-68490112D01*
X120594884Y-68477405D01*
X120638120Y-68350038D01*
X120673668Y-68245315D01*
X120678702Y-68233165D01*
X120692317Y-68205557D01*
X120787103Y-68013349D01*
X120793675Y-68001966D01*
X120929851Y-67798163D01*
X120937850Y-67787739D01*
X121099460Y-67603457D01*
X121108752Y-67594165D01*
X121293037Y-67432552D01*
X121303448Y-67424562D01*
X121507261Y-67288377D01*
X121518643Y-67281806D01*
X121738467Y-67173400D01*
X121750613Y-67168369D01*
X121982702Y-67089583D01*
X121995406Y-67086179D01*
X122235801Y-67038360D01*
X122248823Y-67036645D01*
X122448868Y-67023532D01*
X122482600Y-67029101D01*
G37*
%TD.AperFunction*%
%TD*%
M02*
