%TF.GenerationSoftware,KiCad,Pcbnew,9.0.3*%
%TF.CreationDate,2026-03-08T16:46:46-04:00*%
%TF.ProjectId,StinkyController MK2,5374696e-6b79-4436-9f6e-74726f6c6c65,rev?*%
%TF.SameCoordinates,Original*%
%TF.FileFunction,Legend,Bot*%
%TF.FilePolarity,Positive*%
%FSLAX46Y46*%
G04 Gerber Fmt 4.6, Leading zero omitted, Abs format (unit mm)*
G04 Created by KiCad (PCBNEW 9.0.3) date 2026-03-08 16:46:46*
%MOMM*%
%LPD*%
G01*
G04 APERTURE LIST*
%ADD10C,0.100000*%
G04 APERTURE END LIST*
D10*
G36*
X190299102Y-81113691D02*
G01*
X190350709Y-81109583D01*
X190391007Y-81098368D01*
X190422340Y-81081124D01*
X190446441Y-81058065D01*
X190469108Y-81018144D01*
X190484817Y-80959104D01*
X190490894Y-80874272D01*
X190490894Y-80380108D01*
X190484793Y-80294292D01*
X190469064Y-80234877D01*
X190446441Y-80194972D01*
X190422336Y-80171884D01*
X190391000Y-80154622D01*
X190350704Y-80143396D01*
X190299102Y-80139284D01*
X190226318Y-80139284D01*
X190187117Y-80324115D01*
X190320107Y-80324115D01*
X190320107Y-80928921D01*
X189662117Y-80928921D01*
X189662117Y-80319902D01*
X189894514Y-80319902D01*
X189894514Y-80627892D01*
X190065300Y-80627892D01*
X190065300Y-80135071D01*
X189691487Y-80135071D01*
X189636720Y-80139199D01*
X189594354Y-80150398D01*
X189561808Y-80167461D01*
X189537125Y-80190026D01*
X189513840Y-80229664D01*
X189497632Y-80289218D01*
X189491330Y-80375895D01*
X189491330Y-80874272D01*
X189497648Y-80960955D01*
X189513868Y-81020239D01*
X189537125Y-81059469D01*
X189561755Y-81081696D01*
X189594275Y-81098539D01*
X189636657Y-81109609D01*
X189691487Y-81113691D01*
X190299102Y-81113691D01*
G37*
G36*
X189501100Y-79883196D02*
G01*
X190481124Y-79883196D01*
X190481124Y-79740436D01*
X189792298Y-79053014D01*
X190481124Y-79053014D01*
X190481124Y-78882227D01*
X189501100Y-78882227D01*
X189501100Y-79024987D01*
X190185712Y-79712409D01*
X189501100Y-79712409D01*
X189501100Y-79883196D01*
G37*
G36*
X190073162Y-77577726D02*
G01*
X190144663Y-77590029D01*
X190207022Y-77609478D01*
X190266116Y-77637143D01*
X190316791Y-77670163D01*
X190359979Y-77708518D01*
X190397074Y-77752798D01*
X190427354Y-77801949D01*
X190451021Y-77856530D01*
X190467579Y-77913936D01*
X190477682Y-77974789D01*
X190481124Y-78039590D01*
X190481124Y-78602386D01*
X189501100Y-78602386D01*
X189501100Y-78050825D01*
X189671886Y-78050825D01*
X189671886Y-78417617D01*
X190310276Y-78417617D01*
X190310276Y-78050825D01*
X190305933Y-77984503D01*
X190293851Y-77929680D01*
X190272047Y-77880954D01*
X190240300Y-77841142D01*
X190198714Y-77810122D01*
X190143702Y-77786554D01*
X190080659Y-77773037D01*
X189998073Y-77767992D01*
X189912091Y-77772935D01*
X189846154Y-77786188D01*
X189788417Y-77809472D01*
X189745037Y-77840104D01*
X189711802Y-77879830D01*
X189689044Y-77928703D01*
X189676423Y-77983909D01*
X189671886Y-78050825D01*
X189501100Y-78050825D01*
X189501100Y-78039590D01*
X189508054Y-77945012D01*
X189528394Y-77857934D01*
X189550283Y-77803289D01*
X189578923Y-77754153D01*
X189614489Y-77709923D01*
X189656429Y-77671663D01*
X189706694Y-77638383D01*
X189766408Y-77610150D01*
X189829545Y-77590483D01*
X189903832Y-77577881D01*
X189991112Y-77573391D01*
X190073162Y-77577726D01*
G37*
G36*
X184001100Y-82285412D02*
G01*
X184810276Y-82285412D01*
X184810276Y-82674613D01*
X184981124Y-82674613D01*
X184981124Y-81711380D01*
X184810276Y-81711380D01*
X184810276Y-82100581D01*
X184001100Y-82100581D01*
X184001100Y-82285412D01*
G37*
G36*
X184001100Y-81557934D02*
G01*
X184981124Y-81557934D01*
X184981124Y-81373165D01*
X184597479Y-81373165D01*
X184597479Y-80750162D01*
X184981124Y-80750162D01*
X184981124Y-80565331D01*
X184001100Y-80565331D01*
X184001100Y-80750162D01*
X184426693Y-80750162D01*
X184426693Y-81373165D01*
X184001100Y-81373165D01*
X184001100Y-81557934D01*
G37*
G36*
X184382607Y-79687400D02*
G01*
X184382607Y-79644719D01*
X184553394Y-79644719D01*
X184553394Y-80101148D01*
X184810276Y-80101148D01*
X184810276Y-79644719D01*
X184805721Y-79610812D01*
X184793851Y-79589093D01*
X184773689Y-79575688D01*
X184740300Y-79570530D01*
X184623430Y-79570530D01*
X184586179Y-79575956D01*
X184567377Y-79589093D01*
X184557336Y-79610575D01*
X184553394Y-79644719D01*
X184382607Y-79644719D01*
X184382607Y-79626523D01*
X184388595Y-79546720D01*
X184404476Y-79488058D01*
X184428097Y-79445600D01*
X184453001Y-79419941D01*
X184483237Y-79401450D01*
X184519903Y-79389840D01*
X184564629Y-79385699D01*
X184789271Y-79385699D01*
X184849447Y-79390909D01*
X184892948Y-79404711D01*
X184923884Y-79425416D01*
X184945037Y-79452927D01*
X184964190Y-79499162D01*
X184976620Y-79556250D01*
X184981124Y-79626523D01*
X184981124Y-80285918D01*
X184001100Y-80285918D01*
X184001100Y-80101148D01*
X184382607Y-80101148D01*
X184382607Y-79935246D01*
X184001100Y-79546717D01*
X184001100Y-79298199D01*
X184382607Y-79687400D01*
G37*
G36*
X184859244Y-78132141D02*
G01*
X184902725Y-78145941D01*
X184933654Y-78166647D01*
X184954807Y-78194161D01*
X184973956Y-78240356D01*
X184986387Y-78297440D01*
X184990894Y-78367756D01*
X184990894Y-78903930D01*
X184986393Y-78973744D01*
X184973967Y-79030493D01*
X184954807Y-79076488D01*
X184933680Y-79103828D01*
X184902769Y-79124424D01*
X184859281Y-79138162D01*
X184799102Y-79143350D01*
X184191487Y-79143350D01*
X184128603Y-79138345D01*
X184083290Y-79125152D01*
X184051256Y-79105582D01*
X184029432Y-79080030D01*
X184009487Y-79036042D01*
X183996239Y-78978494D01*
X183994928Y-78958580D01*
X184162117Y-78958580D01*
X184820107Y-78958580D01*
X184820107Y-78311764D01*
X184162117Y-78311764D01*
X184162117Y-78958580D01*
X183994928Y-78958580D01*
X183991330Y-78903930D01*
X183991330Y-78367756D01*
X183996189Y-78293178D01*
X184009325Y-78235375D01*
X184029126Y-78190986D01*
X184050845Y-78165130D01*
X184082864Y-78145343D01*
X184128288Y-78131999D01*
X184191487Y-78126933D01*
X184799102Y-78126933D01*
X184859244Y-78132141D01*
G37*
G36*
X184001100Y-77591064D02*
G01*
X184810276Y-77591064D01*
X184810276Y-77980265D01*
X184981124Y-77980265D01*
X184981124Y-77017032D01*
X184810276Y-77017032D01*
X184810276Y-77406233D01*
X184001100Y-77406233D01*
X184001100Y-77591064D01*
G37*
G36*
X184798002Y-128506463D02*
G01*
X184849609Y-128502355D01*
X184889907Y-128491140D01*
X184921240Y-128473896D01*
X184945341Y-128450837D01*
X184968008Y-128410916D01*
X184983717Y-128351876D01*
X184989794Y-128267044D01*
X184989794Y-127834490D01*
X184983693Y-127748674D01*
X184967964Y-127689259D01*
X184945341Y-127649354D01*
X184921236Y-127626267D01*
X184889900Y-127609004D01*
X184849604Y-127597779D01*
X184798002Y-127593667D01*
X184660799Y-127593667D01*
X184627215Y-127778497D01*
X184819007Y-127778497D01*
X184819007Y-128321693D01*
X184161017Y-128321693D01*
X184161017Y-127772880D01*
X184371004Y-127772880D01*
X184334612Y-127588049D01*
X184190387Y-127588049D01*
X184135620Y-127592176D01*
X184093254Y-127603376D01*
X184060708Y-127620439D01*
X184036025Y-127643004D01*
X184012740Y-127682642D01*
X183996532Y-127742196D01*
X183990230Y-127828872D01*
X183990230Y-128267044D01*
X183996548Y-128353727D01*
X184012768Y-128413011D01*
X184036025Y-128452241D01*
X184060655Y-128474468D01*
X184093175Y-128491311D01*
X184135557Y-128502381D01*
X184190387Y-128506463D01*
X184798002Y-128506463D01*
G37*
G36*
X184799102Y-134613691D02*
G01*
X184850709Y-134609583D01*
X184891007Y-134598368D01*
X184922340Y-134581124D01*
X184946441Y-134558065D01*
X184969108Y-134518144D01*
X184984817Y-134459104D01*
X184990894Y-134374272D01*
X184990894Y-133880108D01*
X184984793Y-133794292D01*
X184969064Y-133734877D01*
X184946441Y-133694972D01*
X184922336Y-133671884D01*
X184891000Y-133654622D01*
X184850704Y-133643396D01*
X184799102Y-133639284D01*
X184726318Y-133639284D01*
X184687117Y-133824115D01*
X184820107Y-133824115D01*
X184820107Y-134428921D01*
X184162117Y-134428921D01*
X184162117Y-133819902D01*
X184394514Y-133819902D01*
X184394514Y-134127892D01*
X184565300Y-134127892D01*
X184565300Y-133635071D01*
X184191487Y-133635071D01*
X184136720Y-133639199D01*
X184094354Y-133650398D01*
X184061808Y-133667461D01*
X184037125Y-133690026D01*
X184013840Y-133729664D01*
X183997632Y-133789218D01*
X183991330Y-133875895D01*
X183991330Y-134374272D01*
X183997648Y-134460955D01*
X184013868Y-134520239D01*
X184037125Y-134559469D01*
X184061755Y-134581696D01*
X184094275Y-134598539D01*
X184136657Y-134609609D01*
X184191487Y-134613691D01*
X184799102Y-134613691D01*
G37*
G36*
X184001100Y-133383196D02*
G01*
X184981124Y-133383196D01*
X184981124Y-133240436D01*
X184292298Y-132553014D01*
X184981124Y-132553014D01*
X184981124Y-132382227D01*
X184001100Y-132382227D01*
X184001100Y-132524987D01*
X184685712Y-133212409D01*
X184001100Y-133212409D01*
X184001100Y-133383196D01*
G37*
G36*
X184573162Y-131077726D02*
G01*
X184644663Y-131090029D01*
X184707022Y-131109478D01*
X184766116Y-131137143D01*
X184816791Y-131170163D01*
X184859979Y-131208518D01*
X184897074Y-131252798D01*
X184927354Y-131301949D01*
X184951021Y-131356530D01*
X184967579Y-131413936D01*
X184977682Y-131474789D01*
X184981124Y-131539590D01*
X184981124Y-132102386D01*
X184001100Y-132102386D01*
X184001100Y-131550825D01*
X184171886Y-131550825D01*
X184171886Y-131917617D01*
X184810276Y-131917617D01*
X184810276Y-131550825D01*
X184805933Y-131484503D01*
X184793851Y-131429680D01*
X184772047Y-131380954D01*
X184740300Y-131341142D01*
X184698714Y-131310122D01*
X184643702Y-131286554D01*
X184580659Y-131273037D01*
X184498073Y-131267992D01*
X184412091Y-131272935D01*
X184346154Y-131286188D01*
X184288417Y-131309472D01*
X184245037Y-131340104D01*
X184211802Y-131379830D01*
X184189044Y-131428703D01*
X184176423Y-131483909D01*
X184171886Y-131550825D01*
X184001100Y-131550825D01*
X184001100Y-131539590D01*
X184008054Y-131445012D01*
X184028394Y-131357934D01*
X184050283Y-131303289D01*
X184078923Y-131254153D01*
X184114489Y-131209923D01*
X184156429Y-131171663D01*
X184206694Y-131138383D01*
X184266408Y-131110150D01*
X184329545Y-131090483D01*
X184403832Y-131077881D01*
X184491112Y-131073391D01*
X184573162Y-131077726D01*
G37*
G36*
X189853046Y-127587609D02*
G01*
X189899554Y-127599522D01*
X189936829Y-127617969D01*
X189967735Y-127644697D01*
X189991431Y-127680737D01*
X190007903Y-127728244D01*
X190025222Y-127685418D01*
X190047868Y-127652369D01*
X190075803Y-127627433D01*
X190109068Y-127609771D01*
X190149572Y-127598546D01*
X190199023Y-127594521D01*
X190266923Y-127594521D01*
X190330561Y-127599461D01*
X190376100Y-127612412D01*
X190414051Y-127634197D01*
X190441557Y-127662116D01*
X190460911Y-127696406D01*
X190473064Y-127738014D01*
X190479017Y-127783297D01*
X190481124Y-127835345D01*
X190481124Y-128483504D01*
X189501100Y-128483504D01*
X189501100Y-127842306D01*
X189671886Y-127842306D01*
X189671886Y-128298735D01*
X189919671Y-128298735D01*
X189919671Y-127853541D01*
X190085573Y-127853541D01*
X190085573Y-128298735D01*
X190310276Y-128298735D01*
X190310276Y-127853541D01*
X190305628Y-127819616D01*
X190293484Y-127797854D01*
X190273197Y-127784383D01*
X190240972Y-127779291D01*
X190155609Y-127779291D01*
X190118893Y-127784682D01*
X190099922Y-127797854D01*
X190089610Y-127819378D01*
X190085573Y-127853541D01*
X189919671Y-127853541D01*
X189919671Y-127842306D01*
X189915635Y-127808197D01*
X189905321Y-127786679D01*
X189886358Y-127773506D01*
X189849695Y-127768117D01*
X189741190Y-127768117D01*
X189708966Y-127773209D01*
X189688678Y-127786679D01*
X189676532Y-127808434D01*
X189671886Y-127842306D01*
X189501100Y-127842306D01*
X189501100Y-127824110D01*
X189503284Y-127772126D01*
X189509465Y-127726840D01*
X189521984Y-127685199D01*
X189541705Y-127650880D01*
X189569667Y-127623011D01*
X189608566Y-127601177D01*
X189655255Y-127588240D01*
X189720918Y-127583286D01*
X189795107Y-127583286D01*
X189853046Y-127587609D01*
G37*
G36*
X132415980Y-148075193D02*
G01*
X132239576Y-148038801D01*
X132239576Y-148168982D01*
X131653026Y-148168982D01*
X131653026Y-147919794D01*
X132155617Y-147919794D01*
X132209485Y-147917591D01*
X132255329Y-147911428D01*
X132297267Y-147899274D01*
X132330983Y-147880959D01*
X132358101Y-147854980D01*
X132378550Y-147819349D01*
X132390467Y-147776675D01*
X132394975Y-147718171D01*
X132394975Y-147531997D01*
X132390166Y-147475083D01*
X132377512Y-147434361D01*
X132356218Y-147400682D01*
X132328480Y-147375926D01*
X132294609Y-147358635D01*
X132252887Y-147347594D01*
X132207634Y-147342138D01*
X132155617Y-147340205D01*
X131731428Y-147340205D01*
X131678761Y-147342145D01*
X131633426Y-147347594D01*
X131591604Y-147358625D01*
X131557466Y-147375926D01*
X131529444Y-147400713D01*
X131508129Y-147434361D01*
X131495430Y-147475087D01*
X131490605Y-147531997D01*
X131490605Y-147601973D01*
X131667009Y-147637021D01*
X131667009Y-147510992D01*
X132218571Y-147510992D01*
X132218571Y-147749007D01*
X131717384Y-147749007D01*
X131664772Y-147750946D01*
X131619443Y-147756395D01*
X131577621Y-147767426D01*
X131543483Y-147784727D01*
X131515461Y-147809514D01*
X131494146Y-147843162D01*
X131481447Y-147883889D01*
X131476622Y-147940799D01*
X131476622Y-148139612D01*
X131481671Y-148202420D01*
X131494991Y-148247720D01*
X131514780Y-148279789D01*
X131540675Y-148301667D01*
X131585086Y-148321638D01*
X131642871Y-148334874D01*
X131717384Y-148339769D01*
X132176622Y-148339769D01*
X132230501Y-148337646D01*
X132276334Y-148331709D01*
X132318264Y-148319883D01*
X132351988Y-148301667D01*
X132379130Y-148275746D01*
X132399555Y-148240423D01*
X132411463Y-148198069D01*
X132415980Y-148139612D01*
X132415980Y-148075193D01*
G37*
G36*
X131260223Y-148330000D02*
G01*
X131260223Y-147316392D01*
X131086627Y-147316392D01*
X131086627Y-147695823D01*
X131059998Y-147665076D01*
X131018728Y-147641540D01*
X130967116Y-147628245D01*
X130889279Y-147622978D01*
X130760441Y-147622978D01*
X130681568Y-147628538D01*
X130626708Y-147642900D01*
X130589654Y-147663583D01*
X130562184Y-147694420D01*
X130544481Y-147737761D01*
X130537875Y-147797978D01*
X130537875Y-148330000D01*
X130711470Y-148330000D01*
X130711470Y-147779781D01*
X131086627Y-147779781D01*
X131086627Y-148330000D01*
X131260223Y-148330000D01*
G37*
G36*
X130193388Y-147628150D02*
G01*
X130239539Y-147641905D01*
X130272932Y-147662545D01*
X130298185Y-147691868D01*
X130313837Y-147729187D01*
X130319460Y-147776973D01*
X130319460Y-148155000D01*
X130312778Y-148219129D01*
X130295079Y-148264373D01*
X130268047Y-148295744D01*
X130231323Y-148317202D01*
X130180403Y-148331594D01*
X130110877Y-148337021D01*
X129791713Y-148337021D01*
X129711984Y-148331252D01*
X129656983Y-148316391D01*
X129620193Y-148295012D01*
X129593249Y-148263301D01*
X129575685Y-148218205D01*
X129569085Y-148155000D01*
X129569085Y-148147978D01*
X129742681Y-148117203D01*
X129742681Y-148194200D01*
X130145865Y-148194200D01*
X130145865Y-148048571D01*
X129569085Y-148048571D01*
X129569085Y-147905811D01*
X129742681Y-147905811D01*
X130145865Y-147905811D01*
X130145865Y-147765799D01*
X129742681Y-147765799D01*
X129742681Y-147905811D01*
X129569085Y-147905811D01*
X129569085Y-147779781D01*
X129574802Y-147731090D01*
X129590705Y-147693097D01*
X129616346Y-147663278D01*
X129650250Y-147642195D01*
X129696670Y-147628215D01*
X129759473Y-147622978D01*
X130130478Y-147622978D01*
X130193388Y-147628150D01*
G37*
G36*
X129337543Y-148330000D02*
G01*
X129337543Y-147316392D01*
X129163948Y-147316392D01*
X129163948Y-148330000D01*
X129337543Y-148330000D01*
G37*
G36*
X128912561Y-148330000D02*
G01*
X128912561Y-147316392D01*
X128738965Y-147316392D01*
X128738965Y-148330000D01*
X128912561Y-148330000D01*
G37*
G36*
X128041774Y-148330000D02*
G01*
X128041774Y-147349975D01*
X127175200Y-147349975D01*
X127175200Y-147520823D01*
X127857004Y-147520823D01*
X127857004Y-147741985D01*
X127445394Y-147741985D01*
X127445394Y-147912772D01*
X127857004Y-147912772D01*
X127857004Y-148159213D01*
X127161156Y-148159213D01*
X127161156Y-148330000D01*
X128041774Y-148330000D01*
G37*
G36*
X126971379Y-148187178D02*
G01*
X126971379Y-147765799D01*
X126966035Y-147716289D01*
X126951766Y-147680878D01*
X126929736Y-147655889D01*
X126899911Y-147639121D01*
X126855744Y-147627483D01*
X126792227Y-147622978D01*
X126401622Y-147622978D01*
X126337070Y-147627523D01*
X126292782Y-147639193D01*
X126263381Y-147655889D01*
X126241741Y-147680820D01*
X126227683Y-147716223D01*
X126222409Y-147765799D01*
X126222409Y-147839987D01*
X126396004Y-147873571D01*
X126396004Y-147779781D01*
X126797784Y-147779781D01*
X126797784Y-148180218D01*
X126393196Y-148180218D01*
X126393196Y-148079406D01*
X126219600Y-148115799D01*
X126219600Y-148187178D01*
X126224896Y-148239719D01*
X126238906Y-148276877D01*
X126260205Y-148302705D01*
X126289558Y-148320133D01*
X126333925Y-148332287D01*
X126398813Y-148337021D01*
X126792227Y-148337021D01*
X126857115Y-148332287D01*
X126901483Y-148320133D01*
X126930835Y-148302705D01*
X126952099Y-148276882D01*
X126966090Y-148239725D01*
X126971379Y-148187178D01*
G37*
G36*
X125917817Y-147627528D02*
G01*
X125961986Y-147639287D01*
X125991844Y-147656256D01*
X126013916Y-147681410D01*
X126028166Y-147716743D01*
X126033487Y-147765799D01*
X126033487Y-148187178D01*
X126028158Y-148239688D01*
X126014052Y-148276850D01*
X125992576Y-148302705D01*
X125963014Y-148320170D01*
X125918706Y-148332307D01*
X125854335Y-148337021D01*
X125448342Y-148337021D01*
X125383454Y-148332287D01*
X125339087Y-148320133D01*
X125309734Y-148302705D01*
X125288435Y-148276877D01*
X125274425Y-148239719D01*
X125269129Y-148187178D01*
X125269129Y-148180218D01*
X125442725Y-148180218D01*
X125859891Y-148180218D01*
X125859891Y-147779781D01*
X125442725Y-147779781D01*
X125442725Y-148180218D01*
X125269129Y-148180218D01*
X125269129Y-147765799D01*
X125274418Y-147716713D01*
X125288572Y-147681383D01*
X125310467Y-147656256D01*
X125340112Y-147639324D01*
X125384343Y-147627548D01*
X125448342Y-147622978D01*
X125854335Y-147622978D01*
X125917817Y-147627528D01*
G37*
G36*
X124591111Y-148330000D02*
G01*
X124591111Y-147349975D01*
X124425942Y-147349975D01*
X124032527Y-147922602D01*
X123647540Y-147349975D01*
X123480905Y-147349975D01*
X123480905Y-148330000D01*
X123665736Y-148330000D01*
X123665736Y-147659370D01*
X124046510Y-148224975D01*
X124425942Y-147672681D01*
X124425942Y-148330000D01*
X124591111Y-148330000D01*
G37*
G36*
X123110447Y-147626153D02*
G01*
X123151406Y-147634866D01*
X123184150Y-147648196D01*
X123208903Y-147669522D01*
X123225310Y-147704786D01*
X123231716Y-147760181D01*
X123231716Y-147795230D01*
X123058121Y-147827409D01*
X123058121Y-147765799D01*
X122687116Y-147765799D01*
X122687116Y-147911428D01*
X123041268Y-147911428D01*
X123115150Y-147917849D01*
X123179570Y-147936280D01*
X123205949Y-147951904D01*
X123224844Y-147974387D01*
X123236986Y-148005234D01*
X123241486Y-148047227D01*
X123241486Y-148194200D01*
X123235292Y-148251381D01*
X123219497Y-148287894D01*
X123195996Y-148310094D01*
X123164453Y-148324170D01*
X123123057Y-148333543D01*
X123069295Y-148337021D01*
X122870481Y-148337021D01*
X122809128Y-148330878D01*
X122756053Y-148313208D01*
X122726485Y-148293418D01*
X122703605Y-148264695D01*
X122687116Y-148224975D01*
X122687116Y-148330000D01*
X122513520Y-148330000D01*
X122513520Y-148194200D01*
X122687116Y-148194200D01*
X123067890Y-148194200D01*
X123067890Y-148054188D01*
X122687116Y-148054188D01*
X122687116Y-148194200D01*
X122513520Y-148194200D01*
X122513520Y-147760181D01*
X122519932Y-147704793D01*
X122536358Y-147669527D01*
X122561147Y-147648196D01*
X122593852Y-147634866D01*
X122634770Y-147626153D01*
X122685711Y-147622978D01*
X123059464Y-147622978D01*
X123110447Y-147626153D01*
G37*
G36*
X122272086Y-148330000D02*
G01*
X122272086Y-147630000D01*
X122098490Y-147630000D01*
X122098490Y-147695823D01*
X122071862Y-147665076D01*
X122030591Y-147641540D01*
X121978979Y-147628245D01*
X121901142Y-147622978D01*
X121863346Y-147622978D01*
X121806035Y-147625649D01*
X121761802Y-147632808D01*
X121722542Y-147645846D01*
X121692864Y-147663583D01*
X121669624Y-147687519D01*
X121653358Y-147717866D01*
X121644109Y-147753068D01*
X121640718Y-147797978D01*
X121640718Y-147839316D01*
X121814314Y-147872227D01*
X121814314Y-147779781D01*
X122098490Y-147779781D01*
X122098490Y-148330000D01*
X122272086Y-148330000D01*
G37*
G36*
X121357760Y-147626153D02*
G01*
X121398719Y-147634866D01*
X121431463Y-147648196D01*
X121456217Y-147669522D01*
X121472623Y-147704786D01*
X121479030Y-147760181D01*
X121479030Y-147795230D01*
X121305434Y-147827409D01*
X121305434Y-147765799D01*
X120934429Y-147765799D01*
X120934429Y-147911428D01*
X121288581Y-147911428D01*
X121362463Y-147917849D01*
X121426884Y-147936280D01*
X121453262Y-147951904D01*
X121472158Y-147974387D01*
X121484299Y-148005234D01*
X121488799Y-148047227D01*
X121488799Y-148194200D01*
X121482605Y-148251381D01*
X121466811Y-148287894D01*
X121443309Y-148310094D01*
X121411766Y-148324170D01*
X121370371Y-148333543D01*
X121316608Y-148337021D01*
X121117794Y-148337021D01*
X121056441Y-148330878D01*
X121003367Y-148313208D01*
X120973799Y-148293418D01*
X120950919Y-148264695D01*
X120934429Y-148224975D01*
X120934429Y-148330000D01*
X120760833Y-148330000D01*
X120760833Y-148194200D01*
X120934429Y-148194200D01*
X121315204Y-148194200D01*
X121315204Y-148054188D01*
X120934429Y-148054188D01*
X120934429Y-148194200D01*
X120760833Y-148194200D01*
X120760833Y-147760181D01*
X120767246Y-147704793D01*
X120783671Y-147669527D01*
X120808461Y-147648196D01*
X120841165Y-147634866D01*
X120882083Y-147626153D01*
X120933025Y-147622978D01*
X121306777Y-147622978D01*
X121357760Y-147626153D01*
G37*
G36*
X120287613Y-148337021D02*
G01*
X120351984Y-148332307D01*
X120396292Y-148320170D01*
X120425854Y-148302705D01*
X120447365Y-148276844D01*
X120461491Y-148239682D01*
X120466826Y-148187178D01*
X120466826Y-147772821D01*
X120587238Y-147772821D01*
X120587238Y-147630000D01*
X120466826Y-147630000D01*
X120466826Y-147459213D01*
X120293230Y-147459213D01*
X120293230Y-147630000D01*
X120081838Y-147630000D01*
X120081838Y-147772821D01*
X120293230Y-147772821D01*
X120293230Y-148194200D01*
X120088799Y-148194200D01*
X120118230Y-148337021D01*
X120287613Y-148337021D01*
G37*
G36*
X119907815Y-148330000D02*
G01*
X119907815Y-147316392D01*
X119734220Y-147316392D01*
X119734220Y-147695823D01*
X119707591Y-147665076D01*
X119666320Y-147641540D01*
X119614708Y-147628245D01*
X119536871Y-147622978D01*
X119408033Y-147622978D01*
X119329161Y-147628538D01*
X119274300Y-147642900D01*
X119237247Y-147663583D01*
X119209777Y-147694420D01*
X119192073Y-147737761D01*
X119185467Y-147797978D01*
X119185467Y-148330000D01*
X119359063Y-148330000D01*
X119359063Y-147779781D01*
X119734220Y-147779781D01*
X119734220Y-148330000D01*
X119907815Y-148330000D01*
G37*
G36*
X118851383Y-147627528D02*
G01*
X118895552Y-147639287D01*
X118925409Y-147656256D01*
X118947482Y-147681410D01*
X118961732Y-147716743D01*
X118967053Y-147765799D01*
X118967053Y-148187178D01*
X118961724Y-148239688D01*
X118947617Y-148276850D01*
X118926142Y-148302705D01*
X118896580Y-148320170D01*
X118852272Y-148332307D01*
X118787901Y-148337021D01*
X118381908Y-148337021D01*
X118317020Y-148332287D01*
X118272653Y-148320133D01*
X118243300Y-148302705D01*
X118222001Y-148276877D01*
X118207991Y-148239719D01*
X118202695Y-148187178D01*
X118202695Y-148180218D01*
X118376290Y-148180218D01*
X118793457Y-148180218D01*
X118793457Y-147779781D01*
X118376290Y-147779781D01*
X118376290Y-148180218D01*
X118202695Y-148180218D01*
X118202695Y-147765799D01*
X118207984Y-147716713D01*
X118222138Y-147681383D01*
X118244033Y-147656256D01*
X118273678Y-147639324D01*
X118317909Y-147627548D01*
X118381908Y-147622978D01*
X118787901Y-147622978D01*
X118851383Y-147627528D01*
G37*
G36*
X117970481Y-148330000D02*
G01*
X117970481Y-147630000D01*
X117796885Y-147630000D01*
X117796885Y-147695823D01*
X117770257Y-147665076D01*
X117728986Y-147641540D01*
X117677374Y-147628245D01*
X117599537Y-147622978D01*
X117470699Y-147622978D01*
X117391827Y-147628538D01*
X117336966Y-147642900D01*
X117299912Y-147663583D01*
X117272443Y-147694420D01*
X117254739Y-147737761D01*
X117248133Y-147797978D01*
X117248133Y-148330000D01*
X117421728Y-148330000D01*
X117421728Y-147779781D01*
X117796885Y-147779781D01*
X117796885Y-148330000D01*
X117970481Y-148330000D01*
G37*
G36*
X184981124Y-124009490D02*
G01*
X184981124Y-124155120D01*
X184001100Y-124657711D01*
X184001100Y-124454684D01*
X184229283Y-124337813D01*
X184229283Y-124251718D01*
X184397322Y-124251718D01*
X184718624Y-124086488D01*
X184397322Y-123921318D01*
X184397322Y-124251718D01*
X184229283Y-124251718D01*
X184229283Y-123835223D01*
X184001100Y-123718291D01*
X184001100Y-123499938D01*
X184981124Y-124009490D01*
G37*
G36*
X189984822Y-84283667D02*
G01*
X189839193Y-84283667D01*
X189839193Y-84617547D01*
X189501100Y-84617547D01*
X189501100Y-84774351D01*
X189839193Y-84774351D01*
X189839193Y-85108292D01*
X189984822Y-85108292D01*
X189984822Y-84774351D01*
X190318702Y-84774351D01*
X190318702Y-84617547D01*
X189984822Y-84617547D01*
X189984822Y-84283667D01*
G37*
G36*
X189492673Y-83644361D02*
G01*
X189494444Y-83742364D01*
X189500428Y-83854349D01*
X189512640Y-83962854D01*
X189522227Y-84012669D01*
X189533278Y-84051759D01*
X189704126Y-84093768D01*
X189685503Y-84005597D01*
X189670482Y-83899168D01*
X189660346Y-83768986D01*
X189656499Y-83609374D01*
X189658187Y-83554375D01*
X189662788Y-83509967D01*
X189672110Y-83469587D01*
X189685869Y-83438892D01*
X189705774Y-83414063D01*
X189731421Y-83396577D01*
X189762529Y-83386359D01*
X189804877Y-83382533D01*
X189843143Y-83385533D01*
X189873509Y-83393768D01*
X189899396Y-83409117D01*
X189921075Y-83434007D01*
X189936752Y-83466345D01*
X189948736Y-83513142D01*
X189955077Y-83566676D01*
X189957528Y-83641553D01*
X189953987Y-83769658D01*
X189944217Y-83886589D01*
X189930173Y-83995094D01*
X189914114Y-84097982D01*
X190481124Y-84051759D01*
X190481124Y-83322327D01*
X190310276Y-83358781D01*
X190310276Y-83917364D01*
X190091923Y-83934156D01*
X190103463Y-83876087D01*
X190112867Y-83803608D01*
X190119156Y-83717879D01*
X190121293Y-83620548D01*
X190116429Y-83518886D01*
X190103097Y-83436450D01*
X190079054Y-83362082D01*
X190046372Y-83304192D01*
X190018259Y-83271570D01*
X189985651Y-83245105D01*
X189948064Y-83224386D01*
X189907326Y-83210065D01*
X189859974Y-83200979D01*
X189804877Y-83197763D01*
X189739394Y-83202352D01*
X189686634Y-83214998D01*
X189644226Y-83234522D01*
X189606280Y-83261953D01*
X189574850Y-83294592D01*
X189549399Y-83332891D01*
X189521742Y-83397912D01*
X189504214Y-83475284D01*
X189495614Y-83557159D01*
X189492673Y-83644361D01*
G37*
G36*
X189501100Y-82618114D02*
G01*
X190481124Y-83109531D01*
X190481124Y-82888308D01*
X189762928Y-82543925D01*
X190481124Y-82207908D01*
X190481124Y-82003538D01*
X189501100Y-82478102D01*
X189501100Y-82618114D01*
G37*
G36*
X131317080Y-94215193D02*
G01*
X131140676Y-94178801D01*
X131140676Y-94308982D01*
X130554126Y-94308982D01*
X130554126Y-94059794D01*
X131056717Y-94059794D01*
X131110585Y-94057591D01*
X131156429Y-94051428D01*
X131198367Y-94039274D01*
X131232083Y-94020959D01*
X131259201Y-93994980D01*
X131279650Y-93959349D01*
X131291567Y-93916675D01*
X131296075Y-93858171D01*
X131296075Y-93671997D01*
X131291266Y-93615083D01*
X131278612Y-93574361D01*
X131257318Y-93540682D01*
X131229580Y-93515926D01*
X131195709Y-93498635D01*
X131153987Y-93487594D01*
X131108734Y-93482138D01*
X131056717Y-93480205D01*
X130632528Y-93480205D01*
X130579861Y-93482145D01*
X130534526Y-93487594D01*
X130492704Y-93498625D01*
X130458566Y-93515926D01*
X130430544Y-93540713D01*
X130409229Y-93574361D01*
X130396530Y-93615087D01*
X130391705Y-93671997D01*
X130391705Y-93741973D01*
X130568109Y-93777021D01*
X130568109Y-93650992D01*
X131119671Y-93650992D01*
X131119671Y-93889007D01*
X130618484Y-93889007D01*
X130565872Y-93890946D01*
X130520543Y-93896395D01*
X130478721Y-93907426D01*
X130444583Y-93924727D01*
X130416561Y-93949514D01*
X130395246Y-93983162D01*
X130382547Y-94023889D01*
X130377722Y-94080799D01*
X130377722Y-94279612D01*
X130382771Y-94342420D01*
X130396091Y-94387720D01*
X130415880Y-94419789D01*
X130441775Y-94441667D01*
X130486186Y-94461638D01*
X130543971Y-94474874D01*
X130618484Y-94479769D01*
X131077722Y-94479769D01*
X131131601Y-94477646D01*
X131177434Y-94471709D01*
X131219364Y-94459883D01*
X131253088Y-94441667D01*
X131280230Y-94415746D01*
X131300655Y-94380423D01*
X131312563Y-94338069D01*
X131317080Y-94279612D01*
X131317080Y-94215193D01*
G37*
G36*
X129933444Y-94477021D02*
G01*
X129997815Y-94472307D01*
X130042123Y-94460170D01*
X130071686Y-94442705D01*
X130093196Y-94416844D01*
X130107322Y-94379682D01*
X130112657Y-94327178D01*
X130112657Y-93912821D01*
X130233069Y-93912821D01*
X130233069Y-93770000D01*
X130112657Y-93770000D01*
X130112657Y-93599213D01*
X129939062Y-93599213D01*
X129939062Y-93770000D01*
X129727670Y-93770000D01*
X129727670Y-93912821D01*
X129939062Y-93912821D01*
X129939062Y-94334200D01*
X129734631Y-94334200D01*
X129764062Y-94477021D01*
X129933444Y-94477021D01*
G37*
G36*
X129548090Y-94470000D02*
G01*
X129548090Y-93770000D01*
X129374494Y-93770000D01*
X129374494Y-94470000D01*
X129548090Y-94470000D01*
G37*
G36*
X129553647Y-93608982D02*
G01*
X129553647Y-93551585D01*
X129550738Y-93510954D01*
X129545281Y-93498035D01*
X129532014Y-93492778D01*
X129490693Y-93489975D01*
X129431892Y-93489975D01*
X129390525Y-93492781D01*
X129377303Y-93498035D01*
X129371805Y-93510961D01*
X129368877Y-93551585D01*
X129368877Y-93608982D01*
X129371799Y-93650313D01*
X129377303Y-93663632D01*
X129390562Y-93669092D01*
X129431892Y-93671997D01*
X129490693Y-93671997D01*
X129531977Y-93669096D01*
X129545281Y-93663632D01*
X129550745Y-93650321D01*
X129553647Y-93608982D01*
G37*
G36*
X129116940Y-94470000D02*
G01*
X129116940Y-93770000D01*
X128943345Y-93770000D01*
X128943345Y-93835823D01*
X128916716Y-93805076D01*
X128875445Y-93781540D01*
X128823833Y-93768245D01*
X128745997Y-93762978D01*
X128617158Y-93762978D01*
X128538286Y-93768538D01*
X128483425Y-93782900D01*
X128446372Y-93803583D01*
X128418902Y-93834420D01*
X128401199Y-93877761D01*
X128394592Y-93937978D01*
X128394592Y-94470000D01*
X128568188Y-94470000D01*
X128568188Y-93919781D01*
X128943345Y-93919781D01*
X128943345Y-94470000D01*
X129116940Y-94470000D01*
G37*
G36*
X128152670Y-94470000D02*
G01*
X128152670Y-93456392D01*
X127979074Y-93456392D01*
X127979074Y-94088492D01*
X127988172Y-94088492D01*
X127627670Y-93770000D01*
X127403699Y-93770000D01*
X127774704Y-94091973D01*
X127774704Y-94080799D01*
X127320412Y-94470000D01*
X127585721Y-94470000D01*
X127988172Y-94121404D01*
X127979074Y-94121404D01*
X127979074Y-94470000D01*
X128152670Y-94470000D01*
G37*
G36*
X127249765Y-94769624D02*
G01*
X127282005Y-94612821D01*
X127058706Y-94612821D01*
X126970473Y-94425914D01*
X127300201Y-93770000D01*
X127095770Y-93770000D01*
X126876684Y-94227100D01*
X126661811Y-93770000D01*
X126484003Y-93770000D01*
X126910267Y-94658982D01*
X126941408Y-94712533D01*
X126958657Y-94731874D01*
X126978167Y-94746482D01*
X127000514Y-94757091D01*
X127027565Y-94764373D01*
X127095098Y-94769624D01*
X127249765Y-94769624D01*
G37*
G36*
X126348387Y-93671997D02*
G01*
X126344278Y-93620390D01*
X126333063Y-93580092D01*
X126315819Y-93548759D01*
X126292760Y-93524658D01*
X126252840Y-93501991D01*
X126193800Y-93486282D01*
X126108968Y-93480205D01*
X125676414Y-93480205D01*
X125590597Y-93486306D01*
X125531183Y-93502035D01*
X125491277Y-93524658D01*
X125468190Y-93548763D01*
X125450928Y-93580099D01*
X125439702Y-93620395D01*
X125435590Y-93671997D01*
X125435590Y-93809200D01*
X125620421Y-93842784D01*
X125620421Y-93650992D01*
X126163617Y-93650992D01*
X126163617Y-94308982D01*
X125614803Y-94308982D01*
X125614803Y-94098995D01*
X125429972Y-94135387D01*
X125429972Y-94279612D01*
X125434100Y-94334379D01*
X125445300Y-94376745D01*
X125462363Y-94409291D01*
X125484927Y-94433974D01*
X125524565Y-94457259D01*
X125584119Y-94473467D01*
X125670796Y-94479769D01*
X126108968Y-94479769D01*
X126195651Y-94473451D01*
X126254934Y-94457231D01*
X126294165Y-94433974D01*
X126316392Y-94409344D01*
X126333234Y-94376824D01*
X126344304Y-94334442D01*
X126348387Y-94279612D01*
X126348387Y-93671997D01*
G37*
G36*
X125116893Y-93767528D02*
G01*
X125161063Y-93779287D01*
X125190920Y-93796256D01*
X125212993Y-93821410D01*
X125227243Y-93856743D01*
X125232563Y-93905799D01*
X125232563Y-94327178D01*
X125227235Y-94379688D01*
X125213128Y-94416850D01*
X125191653Y-94442705D01*
X125162090Y-94460170D01*
X125117782Y-94472307D01*
X125053411Y-94477021D01*
X124647418Y-94477021D01*
X124582530Y-94472287D01*
X124538163Y-94460133D01*
X124508811Y-94442705D01*
X124487511Y-94416877D01*
X124473501Y-94379719D01*
X124468205Y-94327178D01*
X124468205Y-94320218D01*
X124641801Y-94320218D01*
X125058968Y-94320218D01*
X125058968Y-93919781D01*
X124641801Y-93919781D01*
X124641801Y-94320218D01*
X124468205Y-94320218D01*
X124468205Y-93905799D01*
X124473494Y-93856713D01*
X124487648Y-93821383D01*
X124509543Y-93796256D01*
X124539188Y-93779324D01*
X124583420Y-93767548D01*
X124647418Y-93762978D01*
X125053411Y-93762978D01*
X125116893Y-93767528D01*
G37*
G36*
X124235991Y-94470000D02*
G01*
X124235991Y-93770000D01*
X124062396Y-93770000D01*
X124062396Y-93835823D01*
X124035767Y-93805076D01*
X123994496Y-93781540D01*
X123942884Y-93768245D01*
X123865048Y-93762978D01*
X123736209Y-93762978D01*
X123657337Y-93768538D01*
X123602476Y-93782900D01*
X123565423Y-93803583D01*
X123537953Y-93834420D01*
X123520249Y-93877761D01*
X123513643Y-93937978D01*
X123513643Y-94470000D01*
X123687239Y-94470000D01*
X123687239Y-93919781D01*
X124062396Y-93919781D01*
X124062396Y-94470000D01*
X124235991Y-94470000D01*
G37*
G36*
X123040911Y-94477021D02*
G01*
X123105282Y-94472307D01*
X123149590Y-94460170D01*
X123179153Y-94442705D01*
X123200663Y-94416844D01*
X123214789Y-94379682D01*
X123220124Y-94327178D01*
X123220124Y-93912821D01*
X123340536Y-93912821D01*
X123340536Y-93770000D01*
X123220124Y-93770000D01*
X123220124Y-93599213D01*
X123046529Y-93599213D01*
X123046529Y-93770000D01*
X122835136Y-93770000D01*
X122835136Y-93912821D01*
X123046529Y-93912821D01*
X123046529Y-94334200D01*
X122842097Y-94334200D01*
X122871529Y-94477021D01*
X123040911Y-94477021D01*
G37*
G36*
X122661113Y-94470000D02*
G01*
X122661113Y-93770000D01*
X122487518Y-93770000D01*
X122487518Y-93835823D01*
X122460889Y-93805076D01*
X122419618Y-93781540D01*
X122368007Y-93768245D01*
X122290170Y-93762978D01*
X122252373Y-93762978D01*
X122195062Y-93765649D01*
X122150829Y-93772808D01*
X122111569Y-93785846D01*
X122081892Y-93803583D01*
X122058651Y-93827519D01*
X122042385Y-93857866D01*
X122033137Y-93893068D01*
X122029746Y-93937978D01*
X122029746Y-93979316D01*
X122203341Y-94012227D01*
X122203341Y-93919781D01*
X122487518Y-93919781D01*
X122487518Y-94470000D01*
X122661113Y-94470000D01*
G37*
G36*
X121755134Y-93767528D02*
G01*
X121799304Y-93779287D01*
X121829161Y-93796256D01*
X121851234Y-93821410D01*
X121865484Y-93856743D01*
X121870805Y-93905799D01*
X121870805Y-94327178D01*
X121865476Y-94379688D01*
X121851369Y-94416850D01*
X121829894Y-94442705D01*
X121800331Y-94460170D01*
X121756024Y-94472307D01*
X121691653Y-94477021D01*
X121285660Y-94477021D01*
X121220772Y-94472287D01*
X121176404Y-94460133D01*
X121147052Y-94442705D01*
X121125753Y-94416877D01*
X121111742Y-94379719D01*
X121106447Y-94327178D01*
X121106447Y-94320218D01*
X121280042Y-94320218D01*
X121697209Y-94320218D01*
X121697209Y-93919781D01*
X121280042Y-93919781D01*
X121280042Y-94320218D01*
X121106447Y-94320218D01*
X121106447Y-93905799D01*
X121111735Y-93856713D01*
X121125890Y-93821383D01*
X121147785Y-93796256D01*
X121177430Y-93779324D01*
X121221661Y-93767548D01*
X121285660Y-93762978D01*
X121691653Y-93762978D01*
X121755134Y-93767528D01*
G37*
G36*
X120874233Y-94470000D02*
G01*
X120874233Y-93456392D01*
X120700637Y-93456392D01*
X120700637Y-94470000D01*
X120874233Y-94470000D01*
G37*
G36*
X120449250Y-94470000D02*
G01*
X120449250Y-93456392D01*
X120275655Y-93456392D01*
X120275655Y-94470000D01*
X120449250Y-94470000D01*
G37*
G36*
X119917796Y-93768150D02*
G01*
X119963947Y-93781905D01*
X119997340Y-93802545D01*
X120022593Y-93831868D01*
X120038245Y-93869187D01*
X120043868Y-93916973D01*
X120043868Y-94295000D01*
X120037186Y-94359129D01*
X120019487Y-94404373D01*
X119992455Y-94435744D01*
X119955730Y-94457202D01*
X119904811Y-94471594D01*
X119835285Y-94477021D01*
X119516120Y-94477021D01*
X119436392Y-94471252D01*
X119381391Y-94456391D01*
X119344601Y-94435012D01*
X119317657Y-94403301D01*
X119300093Y-94358205D01*
X119293493Y-94295000D01*
X119293493Y-94287978D01*
X119467089Y-94257203D01*
X119467089Y-94334200D01*
X119870273Y-94334200D01*
X119870273Y-94188571D01*
X119293493Y-94188571D01*
X119293493Y-94045811D01*
X119467089Y-94045811D01*
X119870273Y-94045811D01*
X119870273Y-93905799D01*
X119467089Y-93905799D01*
X119467089Y-94045811D01*
X119293493Y-94045811D01*
X119293493Y-93919781D01*
X119299210Y-93871090D01*
X119315113Y-93833097D01*
X119340754Y-93803278D01*
X119374658Y-93782195D01*
X119421078Y-93768215D01*
X119483880Y-93762978D01*
X119854885Y-93762978D01*
X119917796Y-93768150D01*
G37*
G36*
X119061951Y-94470000D02*
G01*
X119061951Y-93770000D01*
X118888355Y-93770000D01*
X118888355Y-93835823D01*
X118861726Y-93805076D01*
X118820456Y-93781540D01*
X118768844Y-93768245D01*
X118691007Y-93762978D01*
X118653210Y-93762978D01*
X118595900Y-93765649D01*
X118551666Y-93772808D01*
X118512407Y-93785846D01*
X118482729Y-93803583D01*
X118459488Y-93827519D01*
X118443223Y-93857866D01*
X118433974Y-93893068D01*
X118430583Y-93937978D01*
X118430583Y-93979316D01*
X118604179Y-94012227D01*
X118604179Y-93919781D01*
X118888355Y-93919781D01*
X118888355Y-94470000D01*
X119061951Y-94470000D01*
G37*
G36*
X117816984Y-94470000D02*
G01*
X117816984Y-93489975D01*
X117651815Y-93489975D01*
X117258401Y-94062602D01*
X116873413Y-93489975D01*
X116706778Y-93489975D01*
X116706778Y-94470000D01*
X116891609Y-94470000D01*
X116891609Y-93799370D01*
X117272384Y-94364975D01*
X117651815Y-93812681D01*
X117651815Y-94470000D01*
X117816984Y-94470000D01*
G37*
G36*
X116440737Y-94470000D02*
G01*
X116440737Y-93456392D01*
X116267141Y-93456392D01*
X116267141Y-94088492D01*
X116276239Y-94088492D01*
X115915737Y-93770000D01*
X115691766Y-93770000D01*
X116062771Y-94091973D01*
X116062771Y-94080799D01*
X115608479Y-94470000D01*
X115873788Y-94470000D01*
X116276239Y-94121404D01*
X116267141Y-94121404D01*
X116267141Y-94470000D01*
X116440737Y-94470000D01*
G37*
G36*
X115465414Y-94470000D02*
G01*
X115465414Y-94252318D01*
X115461702Y-94209872D01*
X115450842Y-94171168D01*
X115432869Y-94135448D01*
X115408227Y-94104138D01*
X115376945Y-94078315D01*
X115338041Y-94057718D01*
X114831237Y-93846997D01*
X114800645Y-93830450D01*
X114787151Y-93816222D01*
X114780662Y-93797923D01*
X114778053Y-93768595D01*
X114778053Y-93650992D01*
X115269409Y-93650992D01*
X115269409Y-93852615D01*
X115454240Y-93814818D01*
X115454240Y-93663571D01*
X115450597Y-93621767D01*
X115440257Y-93586268D01*
X115422787Y-93554893D01*
X115398613Y-93528871D01*
X115368197Y-93508573D01*
X115328943Y-93492845D01*
X115285063Y-93483558D01*
X115231612Y-93480205D01*
X114815850Y-93480205D01*
X114761707Y-93483115D01*
X114718153Y-93491074D01*
X114679167Y-93505114D01*
X114648910Y-93523986D01*
X114624648Y-93548590D01*
X114607267Y-93578208D01*
X114596925Y-93612182D01*
X114593223Y-93653801D01*
X114593223Y-93793813D01*
X114595547Y-93826007D01*
X114602321Y-93855423D01*
X114613393Y-93883004D01*
X114628210Y-93907936D01*
X114646633Y-93930188D01*
X114668449Y-93949579D01*
X114720595Y-93979316D01*
X115200105Y-94178801D01*
X115240613Y-94198941D01*
X115262814Y-94216964D01*
X115276050Y-94239038D01*
X115280644Y-94266973D01*
X115280644Y-94299213D01*
X114747218Y-94299213D01*
X114747218Y-94171779D01*
X114562448Y-94202615D01*
X114562448Y-94287978D01*
X114567184Y-94344010D01*
X114579765Y-94384881D01*
X114598657Y-94414249D01*
X114623692Y-94434645D01*
X114666008Y-94453370D01*
X114718972Y-94465561D01*
X114785014Y-94470000D01*
X115465414Y-94470000D01*
G37*
G36*
X131261087Y-96150000D02*
G01*
X130698291Y-96150000D01*
X130603713Y-96143045D01*
X130516635Y-96122705D01*
X130461990Y-96100816D01*
X130412854Y-96072176D01*
X130368624Y-96036610D01*
X130330364Y-95994670D01*
X130297084Y-95944405D01*
X130268851Y-95884691D01*
X130249184Y-95821554D01*
X130236582Y-95747267D01*
X130232092Y-95659987D01*
X130232460Y-95653026D01*
X130426693Y-95653026D01*
X130431636Y-95739008D01*
X130444889Y-95804945D01*
X130468173Y-95862682D01*
X130498805Y-95906062D01*
X130538531Y-95939297D01*
X130587404Y-95962055D01*
X130642610Y-95974676D01*
X130709526Y-95979213D01*
X131076318Y-95979213D01*
X131076318Y-95340823D01*
X130709526Y-95340823D01*
X130643204Y-95345166D01*
X130588381Y-95357248D01*
X130539655Y-95379052D01*
X130499843Y-95410799D01*
X130468823Y-95452385D01*
X130445255Y-95507397D01*
X130431739Y-95570440D01*
X130426693Y-95653026D01*
X130232460Y-95653026D01*
X130236427Y-95577937D01*
X130248730Y-95506436D01*
X130268179Y-95444077D01*
X130295844Y-95384983D01*
X130328864Y-95334308D01*
X130367220Y-95291120D01*
X130411499Y-95254025D01*
X130460650Y-95223745D01*
X130515231Y-95200078D01*
X130572637Y-95183520D01*
X130633490Y-95173417D01*
X130698291Y-95169975D01*
X131261087Y-95169975D01*
X131261087Y-96150000D01*
G37*
G36*
X129922960Y-95448150D02*
G01*
X129969111Y-95461905D01*
X130002504Y-95482545D01*
X130027757Y-95511868D01*
X130043409Y-95549187D01*
X130049032Y-95596973D01*
X130049032Y-95975000D01*
X130042350Y-96039129D01*
X130024651Y-96084373D01*
X129997619Y-96115744D01*
X129960894Y-96137202D01*
X129909975Y-96151594D01*
X129840449Y-96157021D01*
X129521284Y-96157021D01*
X129441556Y-96151252D01*
X129386555Y-96136391D01*
X129349765Y-96115012D01*
X129322821Y-96083301D01*
X129305257Y-96038205D01*
X129298657Y-95975000D01*
X129298657Y-95967978D01*
X129472253Y-95937203D01*
X129472253Y-96014200D01*
X129875437Y-96014200D01*
X129875437Y-95868571D01*
X129298657Y-95868571D01*
X129298657Y-95725811D01*
X129472253Y-95725811D01*
X129875437Y-95725811D01*
X129875437Y-95585799D01*
X129472253Y-95585799D01*
X129472253Y-95725811D01*
X129298657Y-95725811D01*
X129298657Y-95599781D01*
X129304374Y-95551090D01*
X129320277Y-95513097D01*
X129345918Y-95483278D01*
X129379822Y-95462195D01*
X129426242Y-95448215D01*
X129489044Y-95442978D01*
X129860049Y-95442978D01*
X129922960Y-95448150D01*
G37*
G36*
X129093737Y-95973595D02*
G01*
X128939742Y-95941416D01*
X128939742Y-96014200D01*
X128551946Y-96014200D01*
X128551946Y-95869975D01*
X128907563Y-95869975D01*
X128960771Y-95866422D01*
X129001833Y-95856830D01*
X129033226Y-95842376D01*
X129056540Y-95819826D01*
X129072214Y-95783053D01*
X129078350Y-95725811D01*
X129078350Y-95580181D01*
X129071998Y-95525735D01*
X129055629Y-95490594D01*
X129030784Y-95468928D01*
X128998001Y-95455154D01*
X128957486Y-95446217D01*
X128907563Y-95442978D01*
X128579972Y-95442978D01*
X128529038Y-95446240D01*
X128488103Y-95455198D01*
X128455348Y-95468928D01*
X128430466Y-95490600D01*
X128414078Y-95525742D01*
X128407720Y-95580181D01*
X128407720Y-95617978D01*
X128561715Y-95648813D01*
X128561715Y-95585799D01*
X128924355Y-95585799D01*
X128924355Y-95723002D01*
X128570142Y-95723002D01*
X128519176Y-95726135D01*
X128478257Y-95734725D01*
X128445578Y-95747854D01*
X128420837Y-95769000D01*
X128404392Y-95804322D01*
X128397951Y-95860205D01*
X128397951Y-96014200D01*
X128404144Y-96071381D01*
X128419939Y-96107894D01*
X128443441Y-96130094D01*
X128474983Y-96144170D01*
X128516379Y-96153543D01*
X128570142Y-96157021D01*
X128922951Y-96157021D01*
X128976209Y-96153548D01*
X129017271Y-96144180D01*
X129048613Y-96130094D01*
X129071902Y-96107929D01*
X129087582Y-96071425D01*
X129093737Y-96014200D01*
X129093737Y-95973595D01*
G37*
G36*
X128167630Y-96150000D02*
G01*
X128167630Y-95450000D01*
X127994034Y-95450000D01*
X127994034Y-96150000D01*
X128167630Y-96150000D01*
G37*
G36*
X128173186Y-95288982D02*
G01*
X128173186Y-95231585D01*
X128170278Y-95190954D01*
X128164821Y-95178035D01*
X128151553Y-95172778D01*
X128110232Y-95169975D01*
X128051431Y-95169975D01*
X128010065Y-95172781D01*
X127996843Y-95178035D01*
X127991344Y-95190961D01*
X127988416Y-95231585D01*
X127988416Y-95288982D01*
X127991338Y-95330313D01*
X127996843Y-95343632D01*
X128010102Y-95349092D01*
X128051431Y-95351997D01*
X128110232Y-95351997D01*
X128151516Y-95349096D01*
X128164821Y-95343632D01*
X128170284Y-95330321D01*
X128173186Y-95288982D01*
G37*
G36*
X127640410Y-95447528D02*
G01*
X127684580Y-95459287D01*
X127714437Y-95476256D01*
X127736510Y-95501410D01*
X127750760Y-95536743D01*
X127756080Y-95585799D01*
X127756080Y-96007178D01*
X127750752Y-96059688D01*
X127736645Y-96096850D01*
X127715170Y-96122705D01*
X127685607Y-96140170D01*
X127641299Y-96152307D01*
X127576928Y-96157021D01*
X127340318Y-96157021D01*
X127274252Y-96151757D01*
X127228638Y-96138154D01*
X127203413Y-96122922D01*
X127184932Y-96103701D01*
X127172279Y-96080024D01*
X127172279Y-96292821D01*
X127742097Y-96292821D01*
X127709918Y-96449624D01*
X127218502Y-96449624D01*
X127117385Y-96444678D01*
X127078365Y-96436054D01*
X127049486Y-96421598D01*
X127027113Y-96399647D01*
X127010956Y-96368047D01*
X127002160Y-96329390D01*
X126998683Y-96271816D01*
X126998683Y-96000218D01*
X127172279Y-96000218D01*
X127582485Y-96000218D01*
X127582485Y-95599781D01*
X127172279Y-95599781D01*
X127172279Y-96000218D01*
X126998683Y-96000218D01*
X126998683Y-95450000D01*
X127172279Y-95450000D01*
X127172279Y-95519975D01*
X127184934Y-95496302D01*
X127203414Y-95477102D01*
X127228638Y-95461906D01*
X127274256Y-95448258D01*
X127340318Y-95442978D01*
X127576928Y-95442978D01*
X127640410Y-95447528D01*
G37*
G36*
X126756578Y-96150000D02*
G01*
X126756578Y-95450000D01*
X126582982Y-95450000D01*
X126582982Y-95515823D01*
X126556353Y-95485076D01*
X126515082Y-95461540D01*
X126463471Y-95448245D01*
X126385634Y-95442978D01*
X126256796Y-95442978D01*
X126177923Y-95448538D01*
X126123062Y-95462900D01*
X126086009Y-95483583D01*
X126058539Y-95514420D01*
X126040836Y-95557761D01*
X126034229Y-95617978D01*
X126034229Y-96150000D01*
X126207825Y-96150000D01*
X126207825Y-95599781D01*
X126582982Y-95599781D01*
X126582982Y-96150000D01*
X126756578Y-96150000D01*
G37*
G36*
X125689743Y-95448150D02*
G01*
X125735894Y-95461905D01*
X125769287Y-95482545D01*
X125794540Y-95511868D01*
X125810192Y-95549187D01*
X125815815Y-95596973D01*
X125815815Y-95975000D01*
X125809133Y-96039129D01*
X125791434Y-96084373D01*
X125764402Y-96115744D01*
X125727677Y-96137202D01*
X125676758Y-96151594D01*
X125607232Y-96157021D01*
X125288067Y-96157021D01*
X125208339Y-96151252D01*
X125153338Y-96136391D01*
X125116548Y-96115012D01*
X125089604Y-96083301D01*
X125072040Y-96038205D01*
X125065440Y-95975000D01*
X125065440Y-95967978D01*
X125239036Y-95937203D01*
X125239036Y-96014200D01*
X125642220Y-96014200D01*
X125642220Y-95868571D01*
X125065440Y-95868571D01*
X125065440Y-95725811D01*
X125239036Y-95725811D01*
X125642220Y-95725811D01*
X125642220Y-95585799D01*
X125239036Y-95585799D01*
X125239036Y-95725811D01*
X125065440Y-95725811D01*
X125065440Y-95599781D01*
X125071157Y-95551090D01*
X125087060Y-95513097D01*
X125112701Y-95483278D01*
X125146605Y-95462195D01*
X125193025Y-95448215D01*
X125255827Y-95442978D01*
X125626832Y-95442978D01*
X125689743Y-95448150D01*
G37*
G36*
X124269697Y-95519975D02*
G01*
X124282352Y-95496302D01*
X124300832Y-95477102D01*
X124326056Y-95461906D01*
X124371674Y-95448258D01*
X124437736Y-95442978D01*
X124674346Y-95442978D01*
X124737828Y-95447528D01*
X124781998Y-95459287D01*
X124811855Y-95476256D01*
X124833928Y-95501410D01*
X124848178Y-95536743D01*
X124853498Y-95585799D01*
X124853498Y-96007178D01*
X124848170Y-96059688D01*
X124834063Y-96096850D01*
X124812588Y-96122705D01*
X124783025Y-96140170D01*
X124738717Y-96152307D01*
X124674346Y-96157021D01*
X124437736Y-96157021D01*
X124371670Y-96151757D01*
X124326056Y-96138154D01*
X124300831Y-96122922D01*
X124282350Y-96103701D01*
X124269697Y-96080024D01*
X124269697Y-96150000D01*
X124096101Y-96150000D01*
X124096101Y-96000218D01*
X124269697Y-96000218D01*
X124679903Y-96000218D01*
X124679903Y-95599781D01*
X124269697Y-95599781D01*
X124269697Y-96000218D01*
X124096101Y-96000218D01*
X124096101Y-95136392D01*
X124269697Y-95136392D01*
X124269697Y-95519975D01*
G37*
G36*
X123412404Y-96151404D02*
G01*
X123238809Y-96151404D01*
X123238809Y-96080024D01*
X123226159Y-96104153D01*
X123207687Y-96123709D01*
X123182511Y-96139192D01*
X123136824Y-96153067D01*
X123070831Y-96158426D01*
X122841243Y-96158426D01*
X122785767Y-96154616D01*
X122742748Y-96144302D01*
X122709657Y-96128689D01*
X122684931Y-96104600D01*
X122668439Y-96066136D01*
X122662029Y-96007178D01*
X122662029Y-96000218D01*
X122835625Y-96000218D01*
X123238809Y-96000218D01*
X123238809Y-95598377D01*
X122835625Y-95598377D01*
X122835625Y-96000218D01*
X122662029Y-96000218D01*
X122662029Y-95584394D01*
X122665924Y-95539770D01*
X122676256Y-95507441D01*
X122691786Y-95484383D01*
X122712466Y-95468562D01*
X122747096Y-95454202D01*
X122789478Y-95444923D01*
X122841243Y-95441573D01*
X123070831Y-95441573D01*
X123136872Y-95446753D01*
X123182511Y-95460136D01*
X123207668Y-95475190D01*
X123226138Y-95494492D01*
X123238809Y-95518571D01*
X123238809Y-95136392D01*
X123412404Y-95136392D01*
X123412404Y-96151404D01*
G37*
G36*
X122494845Y-96449624D02*
G01*
X122527085Y-96292821D01*
X122303786Y-96292821D01*
X122215553Y-96105914D01*
X122545281Y-95450000D01*
X122340850Y-95450000D01*
X122121764Y-95907100D01*
X121906892Y-95450000D01*
X121729083Y-95450000D01*
X122155348Y-96338982D01*
X122186489Y-96392533D01*
X122203737Y-96411874D01*
X122223247Y-96426482D01*
X122245594Y-96437091D01*
X122272645Y-96444373D01*
X122340178Y-96449624D01*
X122494845Y-96449624D01*
G37*
G36*
X121154318Y-96150000D02*
G01*
X120494924Y-96150000D01*
X120442940Y-96147815D01*
X120397654Y-96141634D01*
X120356013Y-96129115D01*
X120321694Y-96109394D01*
X120293825Y-96081432D01*
X120271991Y-96042533D01*
X120259054Y-95995844D01*
X120254100Y-95930181D01*
X120254100Y-95855992D01*
X120258173Y-95801404D01*
X120438931Y-95801404D01*
X120438931Y-95909909D01*
X120444023Y-95942133D01*
X120457493Y-95962421D01*
X120479248Y-95974567D01*
X120513120Y-95979213D01*
X120969549Y-95979213D01*
X120969549Y-95731428D01*
X120513120Y-95731428D01*
X120479011Y-95735464D01*
X120457493Y-95745778D01*
X120444320Y-95764741D01*
X120438931Y-95801404D01*
X120258173Y-95801404D01*
X120258423Y-95798053D01*
X120270336Y-95751545D01*
X120288783Y-95714270D01*
X120315511Y-95683364D01*
X120351551Y-95659668D01*
X120399058Y-95643196D01*
X120356232Y-95625877D01*
X120323183Y-95603231D01*
X120298247Y-95575296D01*
X120280585Y-95542031D01*
X120269360Y-95501527D01*
X120265335Y-95452076D01*
X120265335Y-95410127D01*
X120450105Y-95410127D01*
X120450105Y-95495490D01*
X120455496Y-95532206D01*
X120468668Y-95551177D01*
X120490192Y-95561489D01*
X120524355Y-95565526D01*
X120969549Y-95565526D01*
X120969549Y-95340823D01*
X120524355Y-95340823D01*
X120490430Y-95345471D01*
X120468668Y-95357615D01*
X120455197Y-95377902D01*
X120450105Y-95410127D01*
X120265335Y-95410127D01*
X120265335Y-95384176D01*
X120270275Y-95320538D01*
X120283226Y-95275000D01*
X120305011Y-95237048D01*
X120332930Y-95209542D01*
X120367220Y-95190188D01*
X120408828Y-95178035D01*
X120454110Y-95172082D01*
X120506159Y-95169975D01*
X121154318Y-95169975D01*
X121154318Y-96150000D01*
G37*
G36*
X119934404Y-95448150D02*
G01*
X119980555Y-95461905D01*
X120013948Y-95482545D01*
X120039201Y-95511868D01*
X120054853Y-95549187D01*
X120060477Y-95596973D01*
X120060477Y-95975000D01*
X120053794Y-96039129D01*
X120036095Y-96084373D01*
X120009064Y-96115744D01*
X119972339Y-96137202D01*
X119921420Y-96151594D01*
X119851893Y-96157021D01*
X119532729Y-96157021D01*
X119453001Y-96151252D01*
X119397999Y-96136391D01*
X119361209Y-96115012D01*
X119334266Y-96083301D01*
X119316702Y-96038205D01*
X119310102Y-95975000D01*
X119310102Y-95967978D01*
X119483697Y-95937203D01*
X119483697Y-96014200D01*
X119886881Y-96014200D01*
X119886881Y-95868571D01*
X119310102Y-95868571D01*
X119310102Y-95725811D01*
X119483697Y-95725811D01*
X119886881Y-95725811D01*
X119886881Y-95585799D01*
X119483697Y-95585799D01*
X119483697Y-95725811D01*
X119310102Y-95725811D01*
X119310102Y-95599781D01*
X119315818Y-95551090D01*
X119331721Y-95513097D01*
X119357363Y-95483278D01*
X119391266Y-95462195D01*
X119437686Y-95448215D01*
X119500489Y-95442978D01*
X119871494Y-95442978D01*
X119934404Y-95448150D01*
G37*
G36*
X119078559Y-96150000D02*
G01*
X119078559Y-95450000D01*
X118904964Y-95450000D01*
X118904964Y-95515823D01*
X118878335Y-95485076D01*
X118837064Y-95461540D01*
X118785452Y-95448245D01*
X118707616Y-95442978D01*
X118578777Y-95442978D01*
X118499905Y-95448538D01*
X118445044Y-95462900D01*
X118407991Y-95483583D01*
X118380521Y-95514420D01*
X118362818Y-95557761D01*
X118356211Y-95617978D01*
X118356211Y-96150000D01*
X118529807Y-96150000D01*
X118529807Y-95599781D01*
X118904964Y-95599781D01*
X118904964Y-96150000D01*
X119078559Y-96150000D01*
G37*
G36*
X118448474Y-96292821D02*
G01*
X118125035Y-96292821D01*
X118125035Y-95450000D01*
X117951440Y-95450000D01*
X117951440Y-96271816D01*
X117954976Y-96334425D01*
X117963713Y-96374337D01*
X117979981Y-96406278D01*
X118002242Y-96427215D01*
X118031029Y-96440133D01*
X118070142Y-96446816D01*
X118171258Y-96449624D01*
X118413486Y-96449624D01*
X118448474Y-96292821D01*
G37*
G36*
X118130653Y-95288982D02*
G01*
X118130653Y-95231585D01*
X118127745Y-95190954D01*
X118122288Y-95178035D01*
X118109013Y-95172779D01*
X118067638Y-95169975D01*
X118008837Y-95169975D01*
X117967525Y-95172780D01*
X117954310Y-95178035D01*
X117948811Y-95190961D01*
X117945883Y-95231585D01*
X117945883Y-95288982D01*
X117948805Y-95330313D01*
X117954310Y-95343632D01*
X117967562Y-95349093D01*
X118008837Y-95351997D01*
X118067638Y-95351997D01*
X118108976Y-95349095D01*
X118122288Y-95343632D01*
X118127751Y-95330321D01*
X118130653Y-95288982D01*
G37*
G36*
X117606383Y-95446153D02*
G01*
X117647342Y-95454866D01*
X117680086Y-95468196D01*
X117704839Y-95489522D01*
X117721246Y-95524786D01*
X117727652Y-95580181D01*
X117727652Y-95615230D01*
X117554057Y-95647409D01*
X117554057Y-95585799D01*
X117183052Y-95585799D01*
X117183052Y-95731428D01*
X117537204Y-95731428D01*
X117611086Y-95737849D01*
X117675506Y-95756280D01*
X117701885Y-95771904D01*
X117720780Y-95794387D01*
X117732922Y-95825234D01*
X117737422Y-95867227D01*
X117737422Y-96014200D01*
X117731228Y-96071381D01*
X117715433Y-96107894D01*
X117691932Y-96130094D01*
X117660389Y-96144170D01*
X117618993Y-96153543D01*
X117565231Y-96157021D01*
X117366417Y-96157021D01*
X117305064Y-96150878D01*
X117251989Y-96133208D01*
X117222421Y-96113418D01*
X117199541Y-96084695D01*
X117183052Y-96044975D01*
X117183052Y-96150000D01*
X117009456Y-96150000D01*
X117009456Y-96014200D01*
X117183052Y-96014200D01*
X117563826Y-96014200D01*
X117563826Y-95874188D01*
X117183052Y-95874188D01*
X117183052Y-96014200D01*
X117009456Y-96014200D01*
X117009456Y-95580181D01*
X117015868Y-95524793D01*
X117032294Y-95489527D01*
X117057083Y-95468196D01*
X117089788Y-95454866D01*
X117130706Y-95446153D01*
X117181647Y-95442978D01*
X117555400Y-95442978D01*
X117606383Y-95446153D01*
G37*
G36*
X116768022Y-96150000D02*
G01*
X116768022Y-95450000D01*
X116594426Y-95450000D01*
X116594426Y-95515823D01*
X116567798Y-95485076D01*
X116526527Y-95461540D01*
X116474915Y-95448245D01*
X116397078Y-95442978D01*
X116331255Y-95442978D01*
X116268590Y-95447077D01*
X116205958Y-95459464D01*
X116168850Y-95475730D01*
X116140551Y-95502280D01*
X116119863Y-95540980D01*
X116106031Y-95511577D01*
X116085024Y-95487411D01*
X116055810Y-95467829D01*
X116022255Y-95455125D01*
X115975336Y-95446330D01*
X115911279Y-95442978D01*
X115845456Y-95442978D01*
X115766583Y-95448538D01*
X115711723Y-95462900D01*
X115674669Y-95483583D01*
X115647164Y-95514425D01*
X115629441Y-95557767D01*
X115622828Y-95617978D01*
X115622828Y-96150000D01*
X115796424Y-96150000D01*
X115796424Y-95599781D01*
X116108627Y-95599781D01*
X116108627Y-96150000D01*
X116282223Y-96150000D01*
X116282223Y-95599781D01*
X116594426Y-95599781D01*
X116594426Y-96150000D01*
X116768022Y-96150000D01*
G37*
G36*
X115375166Y-96150000D02*
G01*
X115375166Y-95450000D01*
X115201571Y-95450000D01*
X115201571Y-96150000D01*
X115375166Y-96150000D01*
G37*
G36*
X115380723Y-95288982D02*
G01*
X115380723Y-95231585D01*
X115377814Y-95190954D01*
X115372357Y-95178035D01*
X115359090Y-95172778D01*
X115317769Y-95169975D01*
X115258968Y-95169975D01*
X115217601Y-95172781D01*
X115204379Y-95178035D01*
X115198881Y-95190961D01*
X115195953Y-95231585D01*
X115195953Y-95288982D01*
X115198875Y-95330313D01*
X115204379Y-95343632D01*
X115217638Y-95349092D01*
X115258968Y-95351997D01*
X115317769Y-95351997D01*
X115359053Y-95349096D01*
X115372357Y-95343632D01*
X115377821Y-95330321D01*
X115380723Y-95288982D01*
G37*
G36*
X114944016Y-96150000D02*
G01*
X114944016Y-95450000D01*
X114770421Y-95450000D01*
X114770421Y-95515823D01*
X114743792Y-95485076D01*
X114702521Y-95461540D01*
X114650910Y-95448245D01*
X114573073Y-95442978D01*
X114444235Y-95442978D01*
X114365362Y-95448538D01*
X114310501Y-95462900D01*
X114273448Y-95483583D01*
X114245978Y-95514420D01*
X114228275Y-95557761D01*
X114221668Y-95617978D01*
X114221668Y-96150000D01*
X114395264Y-96150000D01*
X114395264Y-95599781D01*
X114770421Y-95599781D01*
X114770421Y-96150000D01*
X114944016Y-96150000D01*
G37*
G36*
X113533941Y-96150000D02*
G01*
X113533941Y-95169975D01*
X113391181Y-95169975D01*
X112703760Y-95858801D01*
X112703760Y-95169975D01*
X112532973Y-95169975D01*
X112532973Y-96150000D01*
X112675733Y-96150000D01*
X113363155Y-95465387D01*
X113363155Y-96150000D01*
X113533941Y-96150000D01*
G37*
G36*
X112171045Y-95447528D02*
G01*
X112215215Y-95459287D01*
X112245072Y-95476256D01*
X112267145Y-95501410D01*
X112281395Y-95536743D01*
X112286715Y-95585799D01*
X112286715Y-96007178D01*
X112281387Y-96059688D01*
X112267280Y-96096850D01*
X112245805Y-96122705D01*
X112216242Y-96140170D01*
X112171934Y-96152307D01*
X112107563Y-96157021D01*
X111701571Y-96157021D01*
X111636683Y-96152287D01*
X111592315Y-96140133D01*
X111562963Y-96122705D01*
X111541663Y-96096877D01*
X111527653Y-96059719D01*
X111522357Y-96007178D01*
X111522357Y-96000218D01*
X111695953Y-96000218D01*
X112113120Y-96000218D01*
X112113120Y-95599781D01*
X111695953Y-95599781D01*
X111695953Y-96000218D01*
X111522357Y-96000218D01*
X111522357Y-95585799D01*
X111527646Y-95536713D01*
X111541800Y-95501383D01*
X111563695Y-95476256D01*
X111593341Y-95459324D01*
X111637572Y-95447548D01*
X111701571Y-95442978D01*
X112107563Y-95442978D01*
X112171045Y-95447528D01*
G37*
G36*
X111059334Y-96157021D02*
G01*
X111123705Y-96152307D01*
X111168013Y-96140170D01*
X111197575Y-96122705D01*
X111219086Y-96096844D01*
X111233212Y-96059682D01*
X111238547Y-96007178D01*
X111238547Y-95592821D01*
X111358959Y-95592821D01*
X111358959Y-95450000D01*
X111238547Y-95450000D01*
X111238547Y-95279213D01*
X111064952Y-95279213D01*
X111064952Y-95450000D01*
X110853559Y-95450000D01*
X110853559Y-95592821D01*
X111064952Y-95592821D01*
X111064952Y-96014200D01*
X110860520Y-96014200D01*
X110889952Y-96157021D01*
X111059334Y-96157021D01*
G37*
G36*
X110576628Y-95447528D02*
G01*
X110620798Y-95459287D01*
X110650655Y-95476256D01*
X110672728Y-95501410D01*
X110686978Y-95536743D01*
X110692298Y-95585799D01*
X110692298Y-96007178D01*
X110686970Y-96059688D01*
X110672863Y-96096850D01*
X110651387Y-96122705D01*
X110621825Y-96140170D01*
X110577517Y-96152307D01*
X110513146Y-96157021D01*
X110107153Y-96157021D01*
X110042265Y-96152287D01*
X109997898Y-96140133D01*
X109968545Y-96122705D01*
X109947246Y-96096877D01*
X109933236Y-96059719D01*
X109927940Y-96007178D01*
X109927940Y-96000218D01*
X110101536Y-96000218D01*
X110518702Y-96000218D01*
X110518702Y-95599781D01*
X110101536Y-95599781D01*
X110101536Y-96000218D01*
X109927940Y-96000218D01*
X109927940Y-95585799D01*
X109933229Y-95536713D01*
X109947383Y-95501383D01*
X109969278Y-95476256D01*
X109998923Y-95459324D01*
X110043155Y-95447548D01*
X110107153Y-95442978D01*
X110513146Y-95442978D01*
X110576628Y-95447528D01*
G37*
G36*
X131275070Y-97831404D02*
G01*
X131101475Y-97831404D01*
X131101475Y-97760024D01*
X131088825Y-97784153D01*
X131070353Y-97803709D01*
X131045177Y-97819192D01*
X130999490Y-97833067D01*
X130933497Y-97838426D01*
X130703908Y-97838426D01*
X130648433Y-97834616D01*
X130605414Y-97824302D01*
X130572322Y-97808689D01*
X130547597Y-97784600D01*
X130531105Y-97746136D01*
X130524695Y-97687178D01*
X130524695Y-97680218D01*
X130698291Y-97680218D01*
X131101475Y-97680218D01*
X131101475Y-97278377D01*
X130698291Y-97278377D01*
X130698291Y-97680218D01*
X130524695Y-97680218D01*
X130524695Y-97264394D01*
X130528590Y-97219770D01*
X130538922Y-97187441D01*
X130554452Y-97164383D01*
X130575131Y-97148562D01*
X130609762Y-97134202D01*
X130652144Y-97124923D01*
X130703908Y-97121573D01*
X130933497Y-97121573D01*
X130999538Y-97126753D01*
X131045177Y-97140136D01*
X131070334Y-97155190D01*
X131088804Y-97174492D01*
X131101475Y-97198571D01*
X131101475Y-96816392D01*
X131275070Y-96816392D01*
X131275070Y-97831404D01*
G37*
G36*
X130154423Y-97830000D02*
G01*
X130405016Y-97130000D01*
X130226475Y-97130000D01*
X130062710Y-97601816D01*
X129902425Y-97130000D01*
X129761680Y-97130000D01*
X129597916Y-97599678D01*
X129436899Y-97130000D01*
X129282171Y-97130000D01*
X129534901Y-97830000D01*
X129688896Y-97830000D01*
X129842220Y-97388286D01*
X129991269Y-97830000D01*
X130154423Y-97830000D01*
G37*
G36*
X129046272Y-97127528D02*
G01*
X129090442Y-97139287D01*
X129120299Y-97156256D01*
X129142372Y-97181410D01*
X129156622Y-97216743D01*
X129161942Y-97265799D01*
X129161942Y-97687178D01*
X129156614Y-97739688D01*
X129142507Y-97776850D01*
X129121031Y-97802705D01*
X129091469Y-97820170D01*
X129047161Y-97832307D01*
X128982790Y-97837021D01*
X128576797Y-97837021D01*
X128511909Y-97832287D01*
X128467542Y-97820133D01*
X128438190Y-97802705D01*
X128416890Y-97776877D01*
X128402880Y-97739719D01*
X128397584Y-97687178D01*
X128397584Y-97680218D01*
X128571180Y-97680218D01*
X128988347Y-97680218D01*
X128988347Y-97279781D01*
X128571180Y-97279781D01*
X128571180Y-97680218D01*
X128397584Y-97680218D01*
X128397584Y-97265799D01*
X128402873Y-97216713D01*
X128417027Y-97181383D01*
X128438922Y-97156256D01*
X128468567Y-97139324D01*
X128512799Y-97127548D01*
X128576797Y-97122978D01*
X128982790Y-97122978D01*
X129046272Y-97127528D01*
G37*
G36*
X128060953Y-97126153D02*
G01*
X128101913Y-97134866D01*
X128134657Y-97148196D01*
X128159410Y-97169522D01*
X128175817Y-97204786D01*
X128182223Y-97260181D01*
X128182223Y-97295230D01*
X128008627Y-97327409D01*
X128008627Y-97265799D01*
X127637623Y-97265799D01*
X127637623Y-97411428D01*
X127991775Y-97411428D01*
X128065657Y-97417849D01*
X128130077Y-97436280D01*
X128156456Y-97451904D01*
X128175351Y-97474387D01*
X128187493Y-97505234D01*
X128191993Y-97547227D01*
X128191993Y-97694200D01*
X128185799Y-97751381D01*
X128170004Y-97787894D01*
X128146503Y-97810094D01*
X128114960Y-97824170D01*
X128073564Y-97833543D01*
X128019802Y-97837021D01*
X127820988Y-97837021D01*
X127759635Y-97830878D01*
X127706560Y-97813208D01*
X127676992Y-97793418D01*
X127654112Y-97764695D01*
X127637623Y-97724975D01*
X127637623Y-97830000D01*
X127464027Y-97830000D01*
X127464027Y-97694200D01*
X127637623Y-97694200D01*
X128018397Y-97694200D01*
X128018397Y-97554188D01*
X127637623Y-97554188D01*
X127637623Y-97694200D01*
X127464027Y-97694200D01*
X127464027Y-97260181D01*
X127470439Y-97204793D01*
X127486865Y-97169527D01*
X127511654Y-97148196D01*
X127544359Y-97134866D01*
X127585277Y-97126153D01*
X127636218Y-97122978D01*
X128009971Y-97122978D01*
X128060953Y-97126153D01*
G37*
G36*
X127222593Y-97830000D02*
G01*
X127222593Y-96816392D01*
X127048997Y-96816392D01*
X127048997Y-97195823D01*
X127022368Y-97165076D01*
X126981098Y-97141540D01*
X126929486Y-97128245D01*
X126851649Y-97122978D01*
X126722811Y-97122978D01*
X126643938Y-97128538D01*
X126589078Y-97142900D01*
X126552024Y-97163583D01*
X126524554Y-97194420D01*
X126506851Y-97237761D01*
X126500245Y-97297978D01*
X126500245Y-97830000D01*
X126673840Y-97830000D01*
X126673840Y-97279781D01*
X127048997Y-97279781D01*
X127048997Y-97830000D01*
X127222593Y-97830000D01*
G37*
G36*
X189984822Y-133783667D02*
G01*
X189839193Y-133783667D01*
X189839193Y-134117547D01*
X189501100Y-134117547D01*
X189501100Y-134274351D01*
X189839193Y-134274351D01*
X189839193Y-134608292D01*
X189984822Y-134608292D01*
X189984822Y-134274351D01*
X190318702Y-134274351D01*
X190318702Y-134117547D01*
X189984822Y-134117547D01*
X189984822Y-133783667D01*
G37*
G36*
X189492673Y-133144361D02*
G01*
X189494444Y-133242364D01*
X189500428Y-133354349D01*
X189512640Y-133462854D01*
X189522227Y-133512669D01*
X189533278Y-133551759D01*
X189704126Y-133593768D01*
X189685503Y-133505597D01*
X189670482Y-133399168D01*
X189660346Y-133268986D01*
X189656499Y-133109374D01*
X189658187Y-133054375D01*
X189662788Y-133009967D01*
X189672110Y-132969587D01*
X189685869Y-132938892D01*
X189705774Y-132914063D01*
X189731421Y-132896577D01*
X189762529Y-132886359D01*
X189804877Y-132882533D01*
X189843143Y-132885533D01*
X189873509Y-132893768D01*
X189899396Y-132909117D01*
X189921075Y-132934007D01*
X189936752Y-132966345D01*
X189948736Y-133013142D01*
X189955077Y-133066676D01*
X189957528Y-133141553D01*
X189953987Y-133269658D01*
X189944217Y-133386589D01*
X189930173Y-133495094D01*
X189914114Y-133597982D01*
X190481124Y-133551759D01*
X190481124Y-132822327D01*
X190310276Y-132858781D01*
X190310276Y-133417364D01*
X190091923Y-133434156D01*
X190103463Y-133376087D01*
X190112867Y-133303608D01*
X190119156Y-133217879D01*
X190121293Y-133120548D01*
X190116429Y-133018886D01*
X190103097Y-132936450D01*
X190079054Y-132862082D01*
X190046372Y-132804192D01*
X190018259Y-132771570D01*
X189985651Y-132745105D01*
X189948064Y-132724386D01*
X189907326Y-132710065D01*
X189859974Y-132700979D01*
X189804877Y-132697763D01*
X189739394Y-132702352D01*
X189686634Y-132714998D01*
X189644226Y-132734522D01*
X189606280Y-132761953D01*
X189574850Y-132794592D01*
X189549399Y-132832891D01*
X189521742Y-132897912D01*
X189504214Y-132975284D01*
X189495614Y-133057159D01*
X189492673Y-133144361D01*
G37*
G36*
X189501100Y-132118114D02*
G01*
X190481124Y-132609531D01*
X190481124Y-132388308D01*
X189762928Y-132043925D01*
X190481124Y-131707908D01*
X190481124Y-131503538D01*
X189501100Y-131978102D01*
X189501100Y-132118114D01*
G37*
M02*
