%TF.GenerationSoftware,KiCad,Pcbnew,9.0.3*%
%TF.CreationDate,2026-03-08T16:46:46-04:00*%
%TF.ProjectId,StinkyController MK2,5374696e-6b79-4436-9f6e-74726f6c6c65,rev?*%
%TF.SameCoordinates,Original*%
%TF.FileFunction,Paste,Top*%
%TF.FilePolarity,Positive*%
%FSLAX46Y46*%
G04 Gerber Fmt 4.6, Leading zero omitted, Abs format (unit mm)*
G04 Created by KiCad (PCBNEW 9.0.3) date 2026-03-08 16:46:46*
%MOMM*%
%LPD*%
G01*
G04 APERTURE LIST*
%ADD10R,2.800000X3.400000*%
%ADD11R,1.600000X1.800000*%
%ADD12R,2.500000X1.400000*%
%ADD13R,0.600000X1.600000*%
%ADD14R,0.450000X1.300000*%
%ADD15R,1.800000X1.600000*%
%ADD16R,1.397000X1.397000*%
%ADD17R,1.270000X2.100000*%
G04 APERTURE END LIST*
D10*
%TO.C,R9*%
X155801100Y-73003600D03*
X150201100Y-73003600D03*
%TD*%
D11*
%TO.C,R13*%
X145601100Y-127003600D03*
X148401100Y-127003600D03*
%TD*%
D12*
%TO.C,U1*%
X181731100Y-147000000D03*
X181731100Y-144460000D03*
X181731100Y-141920000D03*
X181731100Y-139380000D03*
X181731100Y-136840000D03*
X181731100Y-134300000D03*
X181731100Y-131760000D03*
X181731100Y-129220000D03*
X181731100Y-126680000D03*
X181731100Y-124140000D03*
X181731100Y-121600000D03*
X181731100Y-119060000D03*
X181731100Y-116520000D03*
X181731100Y-113980000D03*
X181731100Y-111440000D03*
X181731100Y-108900000D03*
X181731100Y-106360000D03*
X181731100Y-103820000D03*
X181731100Y-101280000D03*
X181731100Y-98740000D03*
X161731100Y-98740000D03*
X161731100Y-101280000D03*
X161731100Y-103820000D03*
X161731100Y-106360000D03*
X161731100Y-108900000D03*
X161731100Y-111440000D03*
X161731100Y-113980000D03*
X161731100Y-116520000D03*
X161731100Y-119060000D03*
X161731100Y-121600000D03*
X161731100Y-124140000D03*
X161731100Y-126680000D03*
X161731100Y-129220000D03*
X161731100Y-131760000D03*
X161731100Y-134300000D03*
X161731100Y-136840000D03*
X161731100Y-139380000D03*
X161731100Y-141920000D03*
X161731100Y-144460000D03*
X161731100Y-147000000D03*
%TD*%
D13*
%TO.C,U5*%
X107096100Y-133703600D03*
X108366100Y-133703600D03*
X109636100Y-133703600D03*
X110906100Y-133703600D03*
X110906100Y-128303600D03*
X109636100Y-128303600D03*
X108366100Y-128303600D03*
X107096100Y-128303600D03*
%TD*%
D11*
%TO.C,C16*%
X134401100Y-123003600D03*
X131601100Y-123003600D03*
%TD*%
%TO.C,R11*%
X138601100Y-127003600D03*
X141401100Y-127003600D03*
%TD*%
D14*
%TO.C,U3*%
X140051100Y-136403600D03*
X141001100Y-136403600D03*
X141951100Y-136403600D03*
X141951100Y-133603600D03*
X141001100Y-133603600D03*
X140051100Y-133603600D03*
%TD*%
D15*
%TO.C,R8*%
X187001100Y-89603600D03*
X187001100Y-92403600D03*
%TD*%
%TO.C,R4*%
X187001100Y-100403600D03*
X187001100Y-97603600D03*
%TD*%
%TO.C,R3*%
X193001100Y-105603600D03*
X193001100Y-108403600D03*
%TD*%
D11*
%TO.C,C3*%
X109101100Y-140003600D03*
X111901100Y-140003600D03*
%TD*%
D15*
%TO.C,R17*%
X119001100Y-125403600D03*
X119001100Y-122603600D03*
%TD*%
D13*
%TO.C,U7*%
X123096100Y-133703600D03*
X124366100Y-133703600D03*
X125636100Y-133703600D03*
X126906100Y-133703600D03*
X126906100Y-128303600D03*
X125636100Y-128303600D03*
X124366100Y-128303600D03*
X123096100Y-128303600D03*
%TD*%
D15*
%TO.C,R18*%
X123001100Y-125403600D03*
X123001100Y-122603600D03*
%TD*%
%TO.C,R7*%
X190001100Y-89603600D03*
X190001100Y-92403600D03*
%TD*%
D11*
%TO.C,R12*%
X145601100Y-123003600D03*
X148401100Y-123003600D03*
%TD*%
D14*
%TO.C,U2*%
X155951100Y-78603600D03*
X155001100Y-78603600D03*
X154051100Y-78603600D03*
X154051100Y-81403600D03*
X155001100Y-81403600D03*
X155951100Y-81403600D03*
%TD*%
D11*
%TO.C,C19*%
X152601100Y-119003600D03*
X155401100Y-119003600D03*
%TD*%
D15*
%TO.C,C9*%
X193001100Y-92403600D03*
X193001100Y-89603600D03*
%TD*%
%TO.C,R5*%
X190001100Y-100403600D03*
X190001100Y-97603600D03*
%TD*%
%TO.C,R15*%
X111001100Y-125403600D03*
X111001100Y-122603600D03*
%TD*%
D16*
%TO.C,D3*%
X118652100Y-137003600D03*
X115350100Y-137003600D03*
%TD*%
D11*
%TO.C,C14*%
X131601100Y-131003600D03*
X134401100Y-131003600D03*
%TD*%
%TO.C,C2*%
X115601100Y-140003600D03*
X118401100Y-140003600D03*
%TD*%
D15*
%TO.C,R16*%
X115001100Y-125403600D03*
X115001100Y-122603600D03*
%TD*%
D11*
%TO.C,C18*%
X152601100Y-127003600D03*
X155401100Y-127003600D03*
%TD*%
D15*
%TO.C,R2*%
X190001100Y-105603600D03*
X190001100Y-108403600D03*
%TD*%
D16*
%TO.C,D2*%
X126652100Y-137003600D03*
X123350100Y-137003600D03*
%TD*%
D17*
%TO.C,D1*%
X155786100Y-114203600D03*
X151816100Y-114203600D03*
%TD*%
D11*
%TO.C,R10*%
X138601100Y-123003600D03*
X141401100Y-123003600D03*
%TD*%
D15*
%TO.C,R19*%
X127001100Y-125403600D03*
X127001100Y-122603600D03*
%TD*%
D11*
%TO.C,C15*%
X134401100Y-127003600D03*
X131601100Y-127003600D03*
%TD*%
D16*
%TO.C,D4*%
X111652100Y-137003600D03*
X108350100Y-137003600D03*
%TD*%
D15*
%TO.C,R14*%
X107001100Y-125403600D03*
X107001100Y-122603600D03*
%TD*%
%TO.C,R1*%
X187001100Y-105603600D03*
X187001100Y-108403600D03*
%TD*%
D11*
%TO.C,C1*%
X123601100Y-140003600D03*
X126401100Y-140003600D03*
%TD*%
D13*
%TO.C,U6*%
X115096100Y-133703600D03*
X116366100Y-133703600D03*
X117636100Y-133703600D03*
X118906100Y-133703600D03*
X118906100Y-128303600D03*
X117636100Y-128303600D03*
X116366100Y-128303600D03*
X115096100Y-128303600D03*
%TD*%
D11*
%TO.C,C12*%
X134401100Y-135003600D03*
X131601100Y-135003600D03*
%TD*%
D15*
%TO.C,C17*%
X150001100Y-81403600D03*
X150001100Y-78603600D03*
%TD*%
D11*
%TO.C,C11*%
X134401100Y-139003600D03*
X131601100Y-139003600D03*
%TD*%
%TO.C,C20*%
X152601100Y-123003600D03*
X155401100Y-123003600D03*
%TD*%
D15*
%TO.C,R6*%
X193001100Y-100403600D03*
X193001100Y-97603600D03*
%TD*%
M02*
