%TF.GenerationSoftware,KiCad,Pcbnew,9.0.3*%
%TF.CreationDate,2025-11-12T20:33:14-05:00*%
%TF.ProjectId,StinkyController 0.5,5374696e-6b79-4436-9f6e-74726f6c6c65,rev?*%
%TF.SameCoordinates,Original*%
%TF.FileFunction,Legend,Bot*%
%TF.FilePolarity,Positive*%
%FSLAX46Y46*%
G04 Gerber Fmt 4.6, Leading zero omitted, Abs format (unit mm)*
G04 Created by KiCad (PCBNEW 9.0.3) date 2025-11-12 20:33:14*
%MOMM*%
%LPD*%
G01*
G04 APERTURE LIST*
%ADD10C,0.065024*%
%ADD11C,0.081280*%
%ADD12C,0.142240*%
G04 APERTURE END LIST*
D10*
X190433265Y-79255579D02*
X190468873Y-79326796D01*
X190468873Y-79326796D02*
X190468873Y-79433621D01*
X190468873Y-79433621D02*
X190433265Y-79540446D01*
X190433265Y-79540446D02*
X190362048Y-79611663D01*
X190362048Y-79611663D02*
X190290831Y-79647272D01*
X190290831Y-79647272D02*
X190148398Y-79682880D01*
X190148398Y-79682880D02*
X190041573Y-79682880D01*
X190041573Y-79682880D02*
X189899139Y-79647272D01*
X189899139Y-79647272D02*
X189827922Y-79611663D01*
X189827922Y-79611663D02*
X189756706Y-79540446D01*
X189756706Y-79540446D02*
X189721097Y-79433621D01*
X189721097Y-79433621D02*
X189721097Y-79362405D01*
X189721097Y-79362405D02*
X189756706Y-79255579D01*
X189756706Y-79255579D02*
X189792314Y-79219971D01*
X189792314Y-79219971D02*
X190041573Y-79219971D01*
X190041573Y-79219971D02*
X190041573Y-79362405D01*
X189721097Y-78899496D02*
X190468873Y-78899496D01*
X190468873Y-78899496D02*
X189721097Y-78472195D01*
X189721097Y-78472195D02*
X190468873Y-78472195D01*
X189721097Y-78116112D02*
X190468873Y-78116112D01*
X190468873Y-78116112D02*
X190468873Y-77938070D01*
X190468873Y-77938070D02*
X190433265Y-77831245D01*
X190433265Y-77831245D02*
X190362048Y-77760028D01*
X190362048Y-77760028D02*
X190290831Y-77724419D01*
X190290831Y-77724419D02*
X190148398Y-77688811D01*
X190148398Y-77688811D02*
X190041573Y-77688811D01*
X190041573Y-77688811D02*
X189899139Y-77724419D01*
X189899139Y-77724419D02*
X189827922Y-77760028D01*
X189827922Y-77760028D02*
X189756706Y-77831245D01*
X189756706Y-77831245D02*
X189721097Y-77938070D01*
X189721097Y-77938070D02*
X189721097Y-78116112D01*
X184968873Y-80429173D02*
X184968873Y-80001872D01*
X184221097Y-80215522D02*
X184968873Y-80215522D01*
X184221097Y-79752614D02*
X184968873Y-79752614D01*
X184612789Y-79752614D02*
X184612789Y-79325313D01*
X184221097Y-79325313D02*
X184968873Y-79325313D01*
X184221097Y-78541929D02*
X184577181Y-78791188D01*
X184221097Y-78969230D02*
X184968873Y-78969230D01*
X184968873Y-78969230D02*
X184968873Y-78684363D01*
X184968873Y-78684363D02*
X184933265Y-78613146D01*
X184933265Y-78613146D02*
X184897656Y-78577537D01*
X184897656Y-78577537D02*
X184826440Y-78541929D01*
X184826440Y-78541929D02*
X184719614Y-78541929D01*
X184719614Y-78541929D02*
X184648398Y-78577537D01*
X184648398Y-78577537D02*
X184612789Y-78613146D01*
X184612789Y-78613146D02*
X184577181Y-78684363D01*
X184577181Y-78684363D02*
X184577181Y-78969230D01*
X184968873Y-78079020D02*
X184968873Y-77936587D01*
X184968873Y-77936587D02*
X184933265Y-77865370D01*
X184933265Y-77865370D02*
X184862048Y-77794153D01*
X184862048Y-77794153D02*
X184719614Y-77758545D01*
X184719614Y-77758545D02*
X184470356Y-77758545D01*
X184470356Y-77758545D02*
X184327922Y-77794153D01*
X184327922Y-77794153D02*
X184256706Y-77865370D01*
X184256706Y-77865370D02*
X184221097Y-77936587D01*
X184221097Y-77936587D02*
X184221097Y-78079020D01*
X184221097Y-78079020D02*
X184256706Y-78150237D01*
X184256706Y-78150237D02*
X184327922Y-78221454D01*
X184327922Y-78221454D02*
X184470356Y-78257062D01*
X184470356Y-78257062D02*
X184719614Y-78257062D01*
X184719614Y-78257062D02*
X184862048Y-78221454D01*
X184862048Y-78221454D02*
X184933265Y-78150237D01*
X184933265Y-78150237D02*
X184968873Y-78079020D01*
X184968873Y-77544895D02*
X184968873Y-77117594D01*
X184221097Y-77331244D02*
X184968873Y-77331244D01*
X184221097Y-130320865D02*
X184968873Y-130320865D01*
X184612789Y-130320865D02*
X184612789Y-129893564D01*
X184221097Y-129893564D02*
X184968873Y-129893564D01*
X184434747Y-129573089D02*
X184434747Y-129217005D01*
X184221097Y-129644306D02*
X184968873Y-129395047D01*
X184968873Y-129395047D02*
X184221097Y-129145788D01*
X184221097Y-128540446D02*
X184221097Y-128896530D01*
X184221097Y-128896530D02*
X184968873Y-128896530D01*
X184221097Y-127935104D02*
X184221097Y-128291188D01*
X184221097Y-128291188D02*
X184968873Y-128291188D01*
X184292314Y-126688811D02*
X184256706Y-126724419D01*
X184256706Y-126724419D02*
X184221097Y-126831245D01*
X184221097Y-126831245D02*
X184221097Y-126902461D01*
X184221097Y-126902461D02*
X184256706Y-127009286D01*
X184256706Y-127009286D02*
X184327922Y-127080503D01*
X184327922Y-127080503D02*
X184399139Y-127116112D01*
X184399139Y-127116112D02*
X184541573Y-127151720D01*
X184541573Y-127151720D02*
X184648398Y-127151720D01*
X184648398Y-127151720D02*
X184790831Y-127116112D01*
X184790831Y-127116112D02*
X184862048Y-127080503D01*
X184862048Y-127080503D02*
X184933265Y-127009286D01*
X184933265Y-127009286D02*
X184968873Y-126902461D01*
X184968873Y-126902461D02*
X184968873Y-126831245D01*
X184968873Y-126831245D02*
X184933265Y-126724419D01*
X184933265Y-126724419D02*
X184897656Y-126688811D01*
D11*
X184916306Y-133193575D02*
X184960816Y-133282596D01*
X184960816Y-133282596D02*
X184960816Y-133416127D01*
X184960816Y-133416127D02*
X184916306Y-133549659D01*
X184916306Y-133549659D02*
X184827285Y-133638680D01*
X184827285Y-133638680D02*
X184738264Y-133683190D01*
X184738264Y-133683190D02*
X184560222Y-133727701D01*
X184560222Y-133727701D02*
X184426690Y-133727701D01*
X184426690Y-133727701D02*
X184248648Y-133683190D01*
X184248648Y-133683190D02*
X184159627Y-133638680D01*
X184159627Y-133638680D02*
X184070607Y-133549659D01*
X184070607Y-133549659D02*
X184026096Y-133416127D01*
X184026096Y-133416127D02*
X184026096Y-133327106D01*
X184026096Y-133327106D02*
X184070607Y-133193575D01*
X184070607Y-133193575D02*
X184115117Y-133149064D01*
X184115117Y-133149064D02*
X184426690Y-133149064D01*
X184426690Y-133149064D02*
X184426690Y-133327106D01*
X184026096Y-132748470D02*
X184960816Y-132748470D01*
X184960816Y-132748470D02*
X184026096Y-132214344D01*
X184026096Y-132214344D02*
X184960816Y-132214344D01*
X184026096Y-131769240D02*
X184960816Y-131769240D01*
X184960816Y-131769240D02*
X184960816Y-131546688D01*
X184960816Y-131546688D02*
X184916306Y-131413156D01*
X184916306Y-131413156D02*
X184827285Y-131324135D01*
X184827285Y-131324135D02*
X184738264Y-131279625D01*
X184738264Y-131279625D02*
X184560222Y-131235114D01*
X184560222Y-131235114D02*
X184426690Y-131235114D01*
X184426690Y-131235114D02*
X184248648Y-131279625D01*
X184248648Y-131279625D02*
X184159627Y-131324135D01*
X184159627Y-131324135D02*
X184070607Y-131413156D01*
X184070607Y-131413156D02*
X184026096Y-131546688D01*
X184026096Y-131546688D02*
X184026096Y-131769240D01*
D10*
X189721097Y-129820865D02*
X190468873Y-129820865D01*
X190112789Y-129820865D02*
X190112789Y-129393564D01*
X189721097Y-129393564D02*
X190468873Y-129393564D01*
X189934747Y-129073089D02*
X189934747Y-128717005D01*
X189721097Y-129144306D02*
X190468873Y-128895047D01*
X190468873Y-128895047D02*
X189721097Y-128645788D01*
X189721097Y-128040446D02*
X189721097Y-128396530D01*
X189721097Y-128396530D02*
X190468873Y-128396530D01*
X189721097Y-127435104D02*
X189721097Y-127791188D01*
X189721097Y-127791188D02*
X190468873Y-127791188D01*
X190112789Y-126366853D02*
X190077181Y-126260028D01*
X190077181Y-126260028D02*
X190041573Y-126224419D01*
X190041573Y-126224419D02*
X189970356Y-126188811D01*
X189970356Y-126188811D02*
X189863531Y-126188811D01*
X189863531Y-126188811D02*
X189792314Y-126224419D01*
X189792314Y-126224419D02*
X189756706Y-126260028D01*
X189756706Y-126260028D02*
X189721097Y-126331245D01*
X189721097Y-126331245D02*
X189721097Y-126616112D01*
X189721097Y-126616112D02*
X190468873Y-126616112D01*
X190468873Y-126616112D02*
X190468873Y-126366853D01*
X190468873Y-126366853D02*
X190433265Y-126295636D01*
X190433265Y-126295636D02*
X190397656Y-126260028D01*
X190397656Y-126260028D02*
X190326440Y-126224419D01*
X190326440Y-126224419D02*
X190255223Y-126224419D01*
X190255223Y-126224419D02*
X190184006Y-126260028D01*
X190184006Y-126260028D02*
X190148398Y-126295636D01*
X190148398Y-126295636D02*
X190112789Y-126366853D01*
X190112789Y-126366853D02*
X190112789Y-126616112D01*
X184221097Y-125714040D02*
X184968873Y-125714040D01*
X184612789Y-125714040D02*
X184612789Y-125286739D01*
X184221097Y-125286739D02*
X184968873Y-125286739D01*
X184434747Y-124966264D02*
X184434747Y-124610180D01*
X184221097Y-125037481D02*
X184968873Y-124788222D01*
X184968873Y-124788222D02*
X184221097Y-124538963D01*
X184221097Y-123933621D02*
X184221097Y-124289705D01*
X184221097Y-124289705D02*
X184968873Y-124289705D01*
X184221097Y-123328279D02*
X184221097Y-123684363D01*
X184221097Y-123684363D02*
X184968873Y-123684363D01*
X184434747Y-122544895D02*
X184434747Y-122188811D01*
X184221097Y-122616112D02*
X184968873Y-122366853D01*
X184968873Y-122366853D02*
X184221097Y-122117594D01*
X190005964Y-84147273D02*
X190005964Y-83577539D01*
X189721097Y-83862406D02*
X190290831Y-83862406D01*
X190468873Y-82865371D02*
X190468873Y-83221455D01*
X190468873Y-83221455D02*
X190112789Y-83257063D01*
X190112789Y-83257063D02*
X190148398Y-83221455D01*
X190148398Y-83221455D02*
X190184006Y-83150238D01*
X190184006Y-83150238D02*
X190184006Y-82972196D01*
X190184006Y-82972196D02*
X190148398Y-82900979D01*
X190148398Y-82900979D02*
X190112789Y-82865371D01*
X190112789Y-82865371D02*
X190041573Y-82829762D01*
X190041573Y-82829762D02*
X189863531Y-82829762D01*
X189863531Y-82829762D02*
X189792314Y-82865371D01*
X189792314Y-82865371D02*
X189756706Y-82900979D01*
X189756706Y-82900979D02*
X189721097Y-82972196D01*
X189721097Y-82972196D02*
X189721097Y-83150238D01*
X189721097Y-83150238D02*
X189756706Y-83221455D01*
X189756706Y-83221455D02*
X189792314Y-83257063D01*
X190468873Y-82616112D02*
X189721097Y-82366853D01*
X189721097Y-82366853D02*
X190468873Y-82117594D01*
D12*
X137118055Y-106272226D02*
X136572802Y-106272226D01*
X136339122Y-107129053D02*
X137118055Y-107129053D01*
X137118055Y-107129053D02*
X137118055Y-105493293D01*
X137118055Y-105493293D02*
X136339122Y-105493293D01*
X134937042Y-107129053D02*
X134937042Y-106272226D01*
X134937042Y-106272226D02*
X135014935Y-106116440D01*
X135014935Y-106116440D02*
X135170722Y-106038546D01*
X135170722Y-106038546D02*
X135482295Y-106038546D01*
X135482295Y-106038546D02*
X135638082Y-106116440D01*
X134937042Y-107051160D02*
X135092829Y-107129053D01*
X135092829Y-107129053D02*
X135482295Y-107129053D01*
X135482295Y-107129053D02*
X135638082Y-107051160D01*
X135638082Y-107051160D02*
X135715975Y-106895373D01*
X135715975Y-106895373D02*
X135715975Y-106739586D01*
X135715975Y-106739586D02*
X135638082Y-106583800D01*
X135638082Y-106583800D02*
X135482295Y-106505906D01*
X135482295Y-106505906D02*
X135092829Y-106505906D01*
X135092829Y-106505906D02*
X134937042Y-106428013D01*
X134236002Y-107051160D02*
X134080216Y-107129053D01*
X134080216Y-107129053D02*
X133768642Y-107129053D01*
X133768642Y-107129053D02*
X133612856Y-107051160D01*
X133612856Y-107051160D02*
X133534962Y-106895373D01*
X133534962Y-106895373D02*
X133534962Y-106817480D01*
X133534962Y-106817480D02*
X133612856Y-106661693D01*
X133612856Y-106661693D02*
X133768642Y-106583800D01*
X133768642Y-106583800D02*
X134002322Y-106583800D01*
X134002322Y-106583800D02*
X134158109Y-106505906D01*
X134158109Y-106505906D02*
X134236002Y-106350120D01*
X134236002Y-106350120D02*
X134236002Y-106272226D01*
X134236002Y-106272226D02*
X134158109Y-106116440D01*
X134158109Y-106116440D02*
X134002322Y-106038546D01*
X134002322Y-106038546D02*
X133768642Y-106038546D01*
X133768642Y-106038546D02*
X133612856Y-106116440D01*
X132989709Y-106038546D02*
X132600242Y-107129053D01*
X132210775Y-106038546D02*
X132600242Y-107129053D01*
X132600242Y-107129053D02*
X132756029Y-107518520D01*
X132756029Y-107518520D02*
X132833922Y-107596413D01*
X132833922Y-107596413D02*
X132989709Y-107674306D01*
X130652909Y-106973266D02*
X130730802Y-107051160D01*
X130730802Y-107051160D02*
X130964482Y-107129053D01*
X130964482Y-107129053D02*
X131120269Y-107129053D01*
X131120269Y-107129053D02*
X131353949Y-107051160D01*
X131353949Y-107051160D02*
X131509736Y-106895373D01*
X131509736Y-106895373D02*
X131587629Y-106739586D01*
X131587629Y-106739586D02*
X131665522Y-106428013D01*
X131665522Y-106428013D02*
X131665522Y-106194333D01*
X131665522Y-106194333D02*
X131587629Y-105882760D01*
X131587629Y-105882760D02*
X131509736Y-105726973D01*
X131509736Y-105726973D02*
X131353949Y-105571186D01*
X131353949Y-105571186D02*
X131120269Y-105493293D01*
X131120269Y-105493293D02*
X130964482Y-105493293D01*
X130964482Y-105493293D02*
X130730802Y-105571186D01*
X130730802Y-105571186D02*
X130652909Y-105649080D01*
X129718189Y-107129053D02*
X129873976Y-107051160D01*
X129873976Y-107051160D02*
X129951869Y-106973266D01*
X129951869Y-106973266D02*
X130029762Y-106817480D01*
X130029762Y-106817480D02*
X130029762Y-106350120D01*
X130029762Y-106350120D02*
X129951869Y-106194333D01*
X129951869Y-106194333D02*
X129873976Y-106116440D01*
X129873976Y-106116440D02*
X129718189Y-106038546D01*
X129718189Y-106038546D02*
X129484509Y-106038546D01*
X129484509Y-106038546D02*
X129328722Y-106116440D01*
X129328722Y-106116440D02*
X129250829Y-106194333D01*
X129250829Y-106194333D02*
X129172936Y-106350120D01*
X129172936Y-106350120D02*
X129172936Y-106817480D01*
X129172936Y-106817480D02*
X129250829Y-106973266D01*
X129250829Y-106973266D02*
X129328722Y-107051160D01*
X129328722Y-107051160D02*
X129484509Y-107129053D01*
X129484509Y-107129053D02*
X129718189Y-107129053D01*
X128471896Y-106038546D02*
X128471896Y-107129053D01*
X128471896Y-106194333D02*
X128394003Y-106116440D01*
X128394003Y-106116440D02*
X128238216Y-106038546D01*
X128238216Y-106038546D02*
X128004536Y-106038546D01*
X128004536Y-106038546D02*
X127848749Y-106116440D01*
X127848749Y-106116440D02*
X127770856Y-106272226D01*
X127770856Y-106272226D02*
X127770856Y-107129053D01*
X127225603Y-106038546D02*
X126602456Y-106038546D01*
X126991923Y-105493293D02*
X126991923Y-106895373D01*
X126991923Y-106895373D02*
X126914030Y-107051160D01*
X126914030Y-107051160D02*
X126758243Y-107129053D01*
X126758243Y-107129053D02*
X126602456Y-107129053D01*
X126057203Y-107129053D02*
X126057203Y-106038546D01*
X126057203Y-106350120D02*
X125979310Y-106194333D01*
X125979310Y-106194333D02*
X125901416Y-106116440D01*
X125901416Y-106116440D02*
X125745630Y-106038546D01*
X125745630Y-106038546D02*
X125589843Y-106038546D01*
X124810910Y-107129053D02*
X124966697Y-107051160D01*
X124966697Y-107051160D02*
X125044590Y-106973266D01*
X125044590Y-106973266D02*
X125122483Y-106817480D01*
X125122483Y-106817480D02*
X125122483Y-106350120D01*
X125122483Y-106350120D02*
X125044590Y-106194333D01*
X125044590Y-106194333D02*
X124966697Y-106116440D01*
X124966697Y-106116440D02*
X124810910Y-106038546D01*
X124810910Y-106038546D02*
X124577230Y-106038546D01*
X124577230Y-106038546D02*
X124421443Y-106116440D01*
X124421443Y-106116440D02*
X124343550Y-106194333D01*
X124343550Y-106194333D02*
X124265657Y-106350120D01*
X124265657Y-106350120D02*
X124265657Y-106817480D01*
X124265657Y-106817480D02*
X124343550Y-106973266D01*
X124343550Y-106973266D02*
X124421443Y-107051160D01*
X124421443Y-107051160D02*
X124577230Y-107129053D01*
X124577230Y-107129053D02*
X124810910Y-107129053D01*
X123330937Y-107129053D02*
X123486724Y-107051160D01*
X123486724Y-107051160D02*
X123564617Y-106895373D01*
X123564617Y-106895373D02*
X123564617Y-105493293D01*
X122474110Y-107129053D02*
X122629897Y-107051160D01*
X122629897Y-107051160D02*
X122707790Y-106895373D01*
X122707790Y-106895373D02*
X122707790Y-105493293D01*
X121227816Y-107051160D02*
X121383603Y-107129053D01*
X121383603Y-107129053D02*
X121695176Y-107129053D01*
X121695176Y-107129053D02*
X121850963Y-107051160D01*
X121850963Y-107051160D02*
X121928856Y-106895373D01*
X121928856Y-106895373D02*
X121928856Y-106272226D01*
X121928856Y-106272226D02*
X121850963Y-106116440D01*
X121850963Y-106116440D02*
X121695176Y-106038546D01*
X121695176Y-106038546D02*
X121383603Y-106038546D01*
X121383603Y-106038546D02*
X121227816Y-106116440D01*
X121227816Y-106116440D02*
X121149923Y-106272226D01*
X121149923Y-106272226D02*
X121149923Y-106428013D01*
X121149923Y-106428013D02*
X121928856Y-106583800D01*
X120448883Y-107129053D02*
X120448883Y-106038546D01*
X120448883Y-106350120D02*
X120370990Y-106194333D01*
X120370990Y-106194333D02*
X120293096Y-106116440D01*
X120293096Y-106116440D02*
X120137310Y-106038546D01*
X120137310Y-106038546D02*
X119981523Y-106038546D01*
X119592057Y-105493293D02*
X118579443Y-105493293D01*
X118579443Y-105493293D02*
X119124697Y-106116440D01*
X119124697Y-106116440D02*
X118891017Y-106116440D01*
X118891017Y-106116440D02*
X118735230Y-106194333D01*
X118735230Y-106194333D02*
X118657337Y-106272226D01*
X118657337Y-106272226D02*
X118579443Y-106428013D01*
X118579443Y-106428013D02*
X118579443Y-106817480D01*
X118579443Y-106817480D02*
X118657337Y-106973266D01*
X118657337Y-106973266D02*
X118735230Y-107051160D01*
X118735230Y-107051160D02*
X118891017Y-107129053D01*
X118891017Y-107129053D02*
X119358377Y-107129053D01*
X119358377Y-107129053D02*
X119514163Y-107051160D01*
X119514163Y-107051160D02*
X119592057Y-106973266D01*
X117878403Y-106973266D02*
X117800510Y-107051160D01*
X117800510Y-107051160D02*
X117878403Y-107129053D01*
X117878403Y-107129053D02*
X117956296Y-107051160D01*
X117956296Y-107051160D02*
X117878403Y-106973266D01*
X117878403Y-106973266D02*
X117878403Y-107129053D01*
X117177363Y-105649080D02*
X117099470Y-105571186D01*
X117099470Y-105571186D02*
X116943683Y-105493293D01*
X116943683Y-105493293D02*
X116554217Y-105493293D01*
X116554217Y-105493293D02*
X116398430Y-105571186D01*
X116398430Y-105571186D02*
X116320537Y-105649080D01*
X116320537Y-105649080D02*
X116242643Y-105804866D01*
X116242643Y-105804866D02*
X116242643Y-105960653D01*
X116242643Y-105960653D02*
X116320537Y-106194333D01*
X116320537Y-106194333D02*
X117255257Y-107129053D01*
X117255257Y-107129053D02*
X116242643Y-107129053D01*
X137118055Y-109762535D02*
X137118055Y-108126775D01*
X137118055Y-108126775D02*
X136728588Y-108126775D01*
X136728588Y-108126775D02*
X136494908Y-108204668D01*
X136494908Y-108204668D02*
X136339122Y-108360455D01*
X136339122Y-108360455D02*
X136261228Y-108516242D01*
X136261228Y-108516242D02*
X136183335Y-108827815D01*
X136183335Y-108827815D02*
X136183335Y-109061495D01*
X136183335Y-109061495D02*
X136261228Y-109373068D01*
X136261228Y-109373068D02*
X136339122Y-109528855D01*
X136339122Y-109528855D02*
X136494908Y-109684642D01*
X136494908Y-109684642D02*
X136728588Y-109762535D01*
X136728588Y-109762535D02*
X137118055Y-109762535D01*
X134859148Y-109684642D02*
X135014935Y-109762535D01*
X135014935Y-109762535D02*
X135326508Y-109762535D01*
X135326508Y-109762535D02*
X135482295Y-109684642D01*
X135482295Y-109684642D02*
X135560188Y-109528855D01*
X135560188Y-109528855D02*
X135560188Y-108905708D01*
X135560188Y-108905708D02*
X135482295Y-108749922D01*
X135482295Y-108749922D02*
X135326508Y-108672028D01*
X135326508Y-108672028D02*
X135014935Y-108672028D01*
X135014935Y-108672028D02*
X134859148Y-108749922D01*
X134859148Y-108749922D02*
X134781255Y-108905708D01*
X134781255Y-108905708D02*
X134781255Y-109061495D01*
X134781255Y-109061495D02*
X135560188Y-109217282D01*
X134158108Y-109684642D02*
X134002322Y-109762535D01*
X134002322Y-109762535D02*
X133690748Y-109762535D01*
X133690748Y-109762535D02*
X133534962Y-109684642D01*
X133534962Y-109684642D02*
X133457068Y-109528855D01*
X133457068Y-109528855D02*
X133457068Y-109450962D01*
X133457068Y-109450962D02*
X133534962Y-109295175D01*
X133534962Y-109295175D02*
X133690748Y-109217282D01*
X133690748Y-109217282D02*
X133924428Y-109217282D01*
X133924428Y-109217282D02*
X134080215Y-109139388D01*
X134080215Y-109139388D02*
X134158108Y-108983602D01*
X134158108Y-108983602D02*
X134158108Y-108905708D01*
X134158108Y-108905708D02*
X134080215Y-108749922D01*
X134080215Y-108749922D02*
X133924428Y-108672028D01*
X133924428Y-108672028D02*
X133690748Y-108672028D01*
X133690748Y-108672028D02*
X133534962Y-108749922D01*
X132756028Y-109762535D02*
X132756028Y-108672028D01*
X132756028Y-108126775D02*
X132833921Y-108204668D01*
X132833921Y-108204668D02*
X132756028Y-108282562D01*
X132756028Y-108282562D02*
X132678135Y-108204668D01*
X132678135Y-108204668D02*
X132756028Y-108126775D01*
X132756028Y-108126775D02*
X132756028Y-108282562D01*
X131276055Y-108672028D02*
X131276055Y-109996215D01*
X131276055Y-109996215D02*
X131353948Y-110152002D01*
X131353948Y-110152002D02*
X131431842Y-110229895D01*
X131431842Y-110229895D02*
X131587628Y-110307788D01*
X131587628Y-110307788D02*
X131821308Y-110307788D01*
X131821308Y-110307788D02*
X131977095Y-110229895D01*
X131276055Y-109684642D02*
X131431842Y-109762535D01*
X131431842Y-109762535D02*
X131743415Y-109762535D01*
X131743415Y-109762535D02*
X131899202Y-109684642D01*
X131899202Y-109684642D02*
X131977095Y-109606748D01*
X131977095Y-109606748D02*
X132054988Y-109450962D01*
X132054988Y-109450962D02*
X132054988Y-108983602D01*
X132054988Y-108983602D02*
X131977095Y-108827815D01*
X131977095Y-108827815D02*
X131899202Y-108749922D01*
X131899202Y-108749922D02*
X131743415Y-108672028D01*
X131743415Y-108672028D02*
X131431842Y-108672028D01*
X131431842Y-108672028D02*
X131276055Y-108749922D01*
X130497122Y-108672028D02*
X130497122Y-109762535D01*
X130497122Y-108827815D02*
X130419229Y-108749922D01*
X130419229Y-108749922D02*
X130263442Y-108672028D01*
X130263442Y-108672028D02*
X130029762Y-108672028D01*
X130029762Y-108672028D02*
X129873975Y-108749922D01*
X129873975Y-108749922D02*
X129796082Y-108905708D01*
X129796082Y-108905708D02*
X129796082Y-109762535D01*
X128394002Y-109684642D02*
X128549789Y-109762535D01*
X128549789Y-109762535D02*
X128861362Y-109762535D01*
X128861362Y-109762535D02*
X129017149Y-109684642D01*
X129017149Y-109684642D02*
X129095042Y-109528855D01*
X129095042Y-109528855D02*
X129095042Y-108905708D01*
X129095042Y-108905708D02*
X129017149Y-108749922D01*
X129017149Y-108749922D02*
X128861362Y-108672028D01*
X128861362Y-108672028D02*
X128549789Y-108672028D01*
X128549789Y-108672028D02*
X128394002Y-108749922D01*
X128394002Y-108749922D02*
X128316109Y-108905708D01*
X128316109Y-108905708D02*
X128316109Y-109061495D01*
X128316109Y-109061495D02*
X129095042Y-109217282D01*
X126914029Y-109762535D02*
X126914029Y-108126775D01*
X126914029Y-109684642D02*
X127069816Y-109762535D01*
X127069816Y-109762535D02*
X127381389Y-109762535D01*
X127381389Y-109762535D02*
X127537176Y-109684642D01*
X127537176Y-109684642D02*
X127615069Y-109606748D01*
X127615069Y-109606748D02*
X127692962Y-109450962D01*
X127692962Y-109450962D02*
X127692962Y-108983602D01*
X127692962Y-108983602D02*
X127615069Y-108827815D01*
X127615069Y-108827815D02*
X127537176Y-108749922D01*
X127537176Y-108749922D02*
X127381389Y-108672028D01*
X127381389Y-108672028D02*
X127069816Y-108672028D01*
X127069816Y-108672028D02*
X126914029Y-108749922D01*
X124888803Y-109762535D02*
X124888803Y-108126775D01*
X124888803Y-108749922D02*
X124733016Y-108672028D01*
X124733016Y-108672028D02*
X124421443Y-108672028D01*
X124421443Y-108672028D02*
X124265656Y-108749922D01*
X124265656Y-108749922D02*
X124187763Y-108827815D01*
X124187763Y-108827815D02*
X124109870Y-108983602D01*
X124109870Y-108983602D02*
X124109870Y-109450962D01*
X124109870Y-109450962D02*
X124187763Y-109606748D01*
X124187763Y-109606748D02*
X124265656Y-109684642D01*
X124265656Y-109684642D02*
X124421443Y-109762535D01*
X124421443Y-109762535D02*
X124733016Y-109762535D01*
X124733016Y-109762535D02*
X124888803Y-109684642D01*
X123564617Y-108672028D02*
X123175150Y-109762535D01*
X122785683Y-108672028D02*
X123175150Y-109762535D01*
X123175150Y-109762535D02*
X123330937Y-110152002D01*
X123330937Y-110152002D02*
X123408830Y-110229895D01*
X123408830Y-110229895D02*
X123564617Y-110307788D01*
X120916244Y-109762535D02*
X120916244Y-108126775D01*
X120916244Y-108126775D02*
X120293097Y-108126775D01*
X120293097Y-108126775D02*
X120137311Y-108204668D01*
X120137311Y-108204668D02*
X120059417Y-108282562D01*
X120059417Y-108282562D02*
X119981524Y-108438348D01*
X119981524Y-108438348D02*
X119981524Y-108672028D01*
X119981524Y-108672028D02*
X120059417Y-108827815D01*
X120059417Y-108827815D02*
X120137311Y-108905708D01*
X120137311Y-108905708D02*
X120293097Y-108983602D01*
X120293097Y-108983602D02*
X120916244Y-108983602D01*
X118501551Y-109762535D02*
X119280484Y-109762535D01*
X119280484Y-109762535D02*
X119280484Y-108126775D01*
X117099470Y-108204668D02*
X117255257Y-108126775D01*
X117255257Y-108126775D02*
X117488937Y-108126775D01*
X117488937Y-108126775D02*
X117722617Y-108204668D01*
X117722617Y-108204668D02*
X117878404Y-108360455D01*
X117878404Y-108360455D02*
X117956297Y-108516242D01*
X117956297Y-108516242D02*
X118034190Y-108827815D01*
X118034190Y-108827815D02*
X118034190Y-109061495D01*
X118034190Y-109061495D02*
X117956297Y-109373068D01*
X117956297Y-109373068D02*
X117878404Y-109528855D01*
X117878404Y-109528855D02*
X117722617Y-109684642D01*
X117722617Y-109684642D02*
X117488937Y-109762535D01*
X117488937Y-109762535D02*
X117333150Y-109762535D01*
X117333150Y-109762535D02*
X117099470Y-109684642D01*
X117099470Y-109684642D02*
X117021577Y-109606748D01*
X117021577Y-109606748D02*
X117021577Y-109061495D01*
X117021577Y-109061495D02*
X117333150Y-109061495D01*
X116242644Y-109684642D02*
X116242644Y-109762535D01*
X116242644Y-109762535D02*
X116320537Y-109918322D01*
X116320537Y-109918322D02*
X116398430Y-109996215D01*
X114295311Y-109762535D02*
X114295311Y-108126775D01*
X114295311Y-108126775D02*
X113905844Y-108126775D01*
X113905844Y-108126775D02*
X113672164Y-108204668D01*
X113672164Y-108204668D02*
X113516378Y-108360455D01*
X113516378Y-108360455D02*
X113438484Y-108516242D01*
X113438484Y-108516242D02*
X113360591Y-108827815D01*
X113360591Y-108827815D02*
X113360591Y-109061495D01*
X113360591Y-109061495D02*
X113438484Y-109373068D01*
X113438484Y-109373068D02*
X113516378Y-109528855D01*
X113516378Y-109528855D02*
X113672164Y-109684642D01*
X113672164Y-109684642D02*
X113905844Y-109762535D01*
X113905844Y-109762535D02*
X114295311Y-109762535D01*
X112036404Y-109684642D02*
X112192191Y-109762535D01*
X112192191Y-109762535D02*
X112503764Y-109762535D01*
X112503764Y-109762535D02*
X112659551Y-109684642D01*
X112659551Y-109684642D02*
X112737444Y-109528855D01*
X112737444Y-109528855D02*
X112737444Y-108905708D01*
X112737444Y-108905708D02*
X112659551Y-108749922D01*
X112659551Y-108749922D02*
X112503764Y-108672028D01*
X112503764Y-108672028D02*
X112192191Y-108672028D01*
X112192191Y-108672028D02*
X112036404Y-108749922D01*
X112036404Y-108749922D02*
X111958511Y-108905708D01*
X111958511Y-108905708D02*
X111958511Y-109061495D01*
X111958511Y-109061495D02*
X112737444Y-109217282D01*
X110556431Y-109684642D02*
X110712218Y-109762535D01*
X110712218Y-109762535D02*
X111023791Y-109762535D01*
X111023791Y-109762535D02*
X111179578Y-109684642D01*
X111179578Y-109684642D02*
X111257471Y-109606748D01*
X111257471Y-109606748D02*
X111335364Y-109450962D01*
X111335364Y-109450962D02*
X111335364Y-108983602D01*
X111335364Y-108983602D02*
X111257471Y-108827815D01*
X111257471Y-108827815D02*
X111179578Y-108749922D01*
X111179578Y-108749922D02*
X111023791Y-108672028D01*
X111023791Y-108672028D02*
X110712218Y-108672028D01*
X110712218Y-108672028D02*
X110556431Y-108749922D01*
X108686991Y-108282562D02*
X108609098Y-108204668D01*
X108609098Y-108204668D02*
X108453311Y-108126775D01*
X108453311Y-108126775D02*
X108063845Y-108126775D01*
X108063845Y-108126775D02*
X107908058Y-108204668D01*
X107908058Y-108204668D02*
X107830165Y-108282562D01*
X107830165Y-108282562D02*
X107752271Y-108438348D01*
X107752271Y-108438348D02*
X107752271Y-108594135D01*
X107752271Y-108594135D02*
X107830165Y-108827815D01*
X107830165Y-108827815D02*
X108764885Y-109762535D01*
X108764885Y-109762535D02*
X107752271Y-109762535D01*
X106739658Y-108126775D02*
X106583871Y-108126775D01*
X106583871Y-108126775D02*
X106428084Y-108204668D01*
X106428084Y-108204668D02*
X106350191Y-108282562D01*
X106350191Y-108282562D02*
X106272298Y-108438348D01*
X106272298Y-108438348D02*
X106194404Y-108749922D01*
X106194404Y-108749922D02*
X106194404Y-109139388D01*
X106194404Y-109139388D02*
X106272298Y-109450962D01*
X106272298Y-109450962D02*
X106350191Y-109606748D01*
X106350191Y-109606748D02*
X106428084Y-109684642D01*
X106428084Y-109684642D02*
X106583871Y-109762535D01*
X106583871Y-109762535D02*
X106739658Y-109762535D01*
X106739658Y-109762535D02*
X106895444Y-109684642D01*
X106895444Y-109684642D02*
X106973338Y-109606748D01*
X106973338Y-109606748D02*
X107051231Y-109450962D01*
X107051231Y-109450962D02*
X107129124Y-109139388D01*
X107129124Y-109139388D02*
X107129124Y-108749922D01*
X107129124Y-108749922D02*
X107051231Y-108438348D01*
X107051231Y-108438348D02*
X106973338Y-108282562D01*
X106973338Y-108282562D02*
X106895444Y-108204668D01*
X106895444Y-108204668D02*
X106739658Y-108126775D01*
X105571257Y-108282562D02*
X105493364Y-108204668D01*
X105493364Y-108204668D02*
X105337577Y-108126775D01*
X105337577Y-108126775D02*
X104948111Y-108126775D01*
X104948111Y-108126775D02*
X104792324Y-108204668D01*
X104792324Y-108204668D02*
X104714431Y-108282562D01*
X104714431Y-108282562D02*
X104636537Y-108438348D01*
X104636537Y-108438348D02*
X104636537Y-108594135D01*
X104636537Y-108594135D02*
X104714431Y-108827815D01*
X104714431Y-108827815D02*
X105649151Y-109762535D01*
X105649151Y-109762535D02*
X104636537Y-109762535D01*
X104091284Y-108126775D02*
X103078670Y-108126775D01*
X103078670Y-108126775D02*
X103623924Y-108749922D01*
X103623924Y-108749922D02*
X103390244Y-108749922D01*
X103390244Y-108749922D02*
X103234457Y-108827815D01*
X103234457Y-108827815D02*
X103156564Y-108905708D01*
X103156564Y-108905708D02*
X103078670Y-109061495D01*
X103078670Y-109061495D02*
X103078670Y-109450962D01*
X103078670Y-109450962D02*
X103156564Y-109606748D01*
X103156564Y-109606748D02*
X103234457Y-109684642D01*
X103234457Y-109684642D02*
X103390244Y-109762535D01*
X103390244Y-109762535D02*
X103857604Y-109762535D01*
X103857604Y-109762535D02*
X104013390Y-109684642D01*
X104013390Y-109684642D02*
X104091284Y-109606748D01*
X137195948Y-112318124D02*
X136962268Y-112396017D01*
X136962268Y-112396017D02*
X136572802Y-112396017D01*
X136572802Y-112396017D02*
X136417015Y-112318124D01*
X136417015Y-112318124D02*
X136339122Y-112240230D01*
X136339122Y-112240230D02*
X136261228Y-112084444D01*
X136261228Y-112084444D02*
X136261228Y-111928657D01*
X136261228Y-111928657D02*
X136339122Y-111772870D01*
X136339122Y-111772870D02*
X136417015Y-111694977D01*
X136417015Y-111694977D02*
X136572802Y-111617084D01*
X136572802Y-111617084D02*
X136884375Y-111539190D01*
X136884375Y-111539190D02*
X137040162Y-111461297D01*
X137040162Y-111461297D02*
X137118055Y-111383404D01*
X137118055Y-111383404D02*
X137195948Y-111227617D01*
X137195948Y-111227617D02*
X137195948Y-111071830D01*
X137195948Y-111071830D02*
X137118055Y-110916044D01*
X137118055Y-110916044D02*
X137040162Y-110838150D01*
X137040162Y-110838150D02*
X136884375Y-110760257D01*
X136884375Y-110760257D02*
X136494908Y-110760257D01*
X136494908Y-110760257D02*
X136261228Y-110838150D01*
X135560188Y-112396017D02*
X135560188Y-110760257D01*
X134859148Y-112396017D02*
X134859148Y-111539190D01*
X134859148Y-111539190D02*
X134937041Y-111383404D01*
X134937041Y-111383404D02*
X135092828Y-111305510D01*
X135092828Y-111305510D02*
X135326508Y-111305510D01*
X135326508Y-111305510D02*
X135482295Y-111383404D01*
X135482295Y-111383404D02*
X135560188Y-111461297D01*
X133457068Y-112318124D02*
X133612855Y-112396017D01*
X133612855Y-112396017D02*
X133924428Y-112396017D01*
X133924428Y-112396017D02*
X134080215Y-112318124D01*
X134080215Y-112318124D02*
X134158108Y-112162337D01*
X134158108Y-112162337D02*
X134158108Y-111539190D01*
X134158108Y-111539190D02*
X134080215Y-111383404D01*
X134080215Y-111383404D02*
X133924428Y-111305510D01*
X133924428Y-111305510D02*
X133612855Y-111305510D01*
X133612855Y-111305510D02*
X133457068Y-111383404D01*
X133457068Y-111383404D02*
X133379175Y-111539190D01*
X133379175Y-111539190D02*
X133379175Y-111694977D01*
X133379175Y-111694977D02*
X134158108Y-111850764D01*
X132444455Y-112396017D02*
X132600242Y-112318124D01*
X132600242Y-112318124D02*
X132678135Y-112162337D01*
X132678135Y-112162337D02*
X132678135Y-110760257D01*
X131587628Y-112396017D02*
X131743415Y-112318124D01*
X131743415Y-112318124D02*
X131821308Y-112162337D01*
X131821308Y-112162337D02*
X131821308Y-110760257D01*
X129718188Y-111539190D02*
X129172935Y-111539190D01*
X128939255Y-112396017D02*
X129718188Y-112396017D01*
X129718188Y-112396017D02*
X129718188Y-110760257D01*
X129718188Y-110760257D02*
X128939255Y-110760257D01*
X127537175Y-112318124D02*
X127692962Y-112396017D01*
X127692962Y-112396017D02*
X128004535Y-112396017D01*
X128004535Y-112396017D02*
X128160322Y-112318124D01*
X128160322Y-112318124D02*
X128238215Y-112240230D01*
X128238215Y-112240230D02*
X128316108Y-112084444D01*
X128316108Y-112084444D02*
X128316108Y-111617084D01*
X128316108Y-111617084D02*
X128238215Y-111461297D01*
X128238215Y-111461297D02*
X128160322Y-111383404D01*
X128160322Y-111383404D02*
X128004535Y-111305510D01*
X128004535Y-111305510D02*
X127692962Y-111305510D01*
X127692962Y-111305510D02*
X127537175Y-111383404D01*
X126602455Y-112396017D02*
X126758242Y-112318124D01*
X126758242Y-112318124D02*
X126836135Y-112240230D01*
X126836135Y-112240230D02*
X126914028Y-112084444D01*
X126914028Y-112084444D02*
X126914028Y-111617084D01*
X126914028Y-111617084D02*
X126836135Y-111461297D01*
X126836135Y-111461297D02*
X126758242Y-111383404D01*
X126758242Y-111383404D02*
X126602455Y-111305510D01*
X126602455Y-111305510D02*
X126368775Y-111305510D01*
X126368775Y-111305510D02*
X126212988Y-111383404D01*
X126212988Y-111383404D02*
X126135095Y-111461297D01*
X126135095Y-111461297D02*
X126057202Y-111617084D01*
X126057202Y-111617084D02*
X126057202Y-112084444D01*
X126057202Y-112084444D02*
X126135095Y-112240230D01*
X126135095Y-112240230D02*
X126212988Y-112318124D01*
X126212988Y-112318124D02*
X126368775Y-112396017D01*
X126368775Y-112396017D02*
X126602455Y-112396017D01*
X125356162Y-111772870D02*
X124109869Y-111772870D01*
X123330935Y-112396017D02*
X123330935Y-110760257D01*
X123330935Y-110760257D02*
X122785682Y-111928657D01*
X122785682Y-111928657D02*
X122240428Y-110760257D01*
X122240428Y-110760257D02*
X122240428Y-112396017D01*
X120760455Y-112396017D02*
X120760455Y-111539190D01*
X120760455Y-111539190D02*
X120838348Y-111383404D01*
X120838348Y-111383404D02*
X120994135Y-111305510D01*
X120994135Y-111305510D02*
X121305708Y-111305510D01*
X121305708Y-111305510D02*
X121461495Y-111383404D01*
X120760455Y-112318124D02*
X120916242Y-112396017D01*
X120916242Y-112396017D02*
X121305708Y-112396017D01*
X121305708Y-112396017D02*
X121461495Y-112318124D01*
X121461495Y-112318124D02*
X121539388Y-112162337D01*
X121539388Y-112162337D02*
X121539388Y-112006550D01*
X121539388Y-112006550D02*
X121461495Y-111850764D01*
X121461495Y-111850764D02*
X121305708Y-111772870D01*
X121305708Y-111772870D02*
X120916242Y-111772870D01*
X120916242Y-111772870D02*
X120760455Y-111694977D01*
X119981522Y-112396017D02*
X119981522Y-111305510D01*
X119981522Y-111617084D02*
X119903629Y-111461297D01*
X119903629Y-111461297D02*
X119825735Y-111383404D01*
X119825735Y-111383404D02*
X119669949Y-111305510D01*
X119669949Y-111305510D02*
X119514162Y-111305510D01*
X118267869Y-112396017D02*
X118267869Y-111539190D01*
X118267869Y-111539190D02*
X118345762Y-111383404D01*
X118345762Y-111383404D02*
X118501549Y-111305510D01*
X118501549Y-111305510D02*
X118813122Y-111305510D01*
X118813122Y-111305510D02*
X118968909Y-111383404D01*
X118267869Y-112318124D02*
X118423656Y-112396017D01*
X118423656Y-112396017D02*
X118813122Y-112396017D01*
X118813122Y-112396017D02*
X118968909Y-112318124D01*
X118968909Y-112318124D02*
X119046802Y-112162337D01*
X119046802Y-112162337D02*
X119046802Y-112006550D01*
X119046802Y-112006550D02*
X118968909Y-111850764D01*
X118968909Y-111850764D02*
X118813122Y-111772870D01*
X118813122Y-111772870D02*
X118423656Y-111772870D01*
X118423656Y-111772870D02*
X118267869Y-111694977D01*
X117722616Y-111305510D02*
X117099469Y-111305510D01*
X117488936Y-110760257D02*
X117488936Y-112162337D01*
X117488936Y-112162337D02*
X117411043Y-112318124D01*
X117411043Y-112318124D02*
X117255256Y-112396017D01*
X117255256Y-112396017D02*
X117099469Y-112396017D01*
X116554216Y-112396017D02*
X116554216Y-110760257D01*
X115853176Y-112396017D02*
X115853176Y-111539190D01*
X115853176Y-111539190D02*
X115931069Y-111383404D01*
X115931069Y-111383404D02*
X116086856Y-111305510D01*
X116086856Y-111305510D02*
X116320536Y-111305510D01*
X116320536Y-111305510D02*
X116476323Y-111383404D01*
X116476323Y-111383404D02*
X116554216Y-111461297D01*
X114840563Y-112396017D02*
X114996350Y-112318124D01*
X114996350Y-112318124D02*
X115074243Y-112240230D01*
X115074243Y-112240230D02*
X115152136Y-112084444D01*
X115152136Y-112084444D02*
X115152136Y-111617084D01*
X115152136Y-111617084D02*
X115074243Y-111461297D01*
X115074243Y-111461297D02*
X114996350Y-111383404D01*
X114996350Y-111383404D02*
X114840563Y-111305510D01*
X114840563Y-111305510D02*
X114606883Y-111305510D01*
X114606883Y-111305510D02*
X114451096Y-111383404D01*
X114451096Y-111383404D02*
X114373203Y-111461297D01*
X114373203Y-111461297D02*
X114295310Y-111617084D01*
X114295310Y-111617084D02*
X114295310Y-112084444D01*
X114295310Y-112084444D02*
X114373203Y-112240230D01*
X114373203Y-112240230D02*
X114451096Y-112318124D01*
X114451096Y-112318124D02*
X114606883Y-112396017D01*
X114606883Y-112396017D02*
X114840563Y-112396017D01*
X113594270Y-111305510D02*
X113594270Y-112396017D01*
X113594270Y-111461297D02*
X113516377Y-111383404D01*
X113516377Y-111383404D02*
X113360590Y-111305510D01*
X113360590Y-111305510D02*
X113126910Y-111305510D01*
X113126910Y-111305510D02*
X112971123Y-111383404D01*
X112971123Y-111383404D02*
X112893230Y-111539190D01*
X112893230Y-111539190D02*
X112893230Y-112396017D01*
D11*
X189882180Y-134183191D02*
X189882180Y-133471024D01*
X189526096Y-133827107D02*
X190238264Y-133827107D01*
X190460816Y-132580814D02*
X190460816Y-133025919D01*
X190460816Y-133025919D02*
X190015711Y-133070430D01*
X190015711Y-133070430D02*
X190060222Y-133025919D01*
X190060222Y-133025919D02*
X190104732Y-132936898D01*
X190104732Y-132936898D02*
X190104732Y-132714346D01*
X190104732Y-132714346D02*
X190060222Y-132625325D01*
X190060222Y-132625325D02*
X190015711Y-132580814D01*
X190015711Y-132580814D02*
X189926690Y-132536304D01*
X189926690Y-132536304D02*
X189704138Y-132536304D01*
X189704138Y-132536304D02*
X189615117Y-132580814D01*
X189615117Y-132580814D02*
X189570607Y-132625325D01*
X189570607Y-132625325D02*
X189526096Y-132714346D01*
X189526096Y-132714346D02*
X189526096Y-132936898D01*
X189526096Y-132936898D02*
X189570607Y-133025919D01*
X189570607Y-133025919D02*
X189615117Y-133070430D01*
X190460816Y-132269241D02*
X189526096Y-131957667D01*
X189526096Y-131957667D02*
X190460816Y-131646094D01*
M02*
