%TF.GenerationSoftware,KiCad,Pcbnew,9.0.3*%
%TF.CreationDate,2025-11-12T20:34:02-05:00*%
%TF.ProjectId,StinkyController 0.5,5374696e-6b79-4436-9f6e-74726f6c6c65,rev?*%
%TF.SameCoordinates,Original*%
%TF.FileFunction,Drillmap*%
%TF.FilePolarity,Positive*%
%FSLAX45Y45*%
G04 Gerber Fmt 4.5, Leading zero omitted, Abs format (unit mm)*
G04 Created by KiCad (PCBNEW 9.0.3) date 2025-11-12 20:34:02*
%MOMM*%
%LPD*%
G01*
G04 APERTURE LIST*
%ADD10C,0.050000*%
%ADD11C,0.200000*%
%ADD12C,0.150000*%
%ADD13C,0.180000*%
%ADD14C,0.350000*%
G04 APERTURE END LIST*
D10*
X10100110Y-14300360D02*
X19600110Y-14300360D01*
X19600110Y-6700360D02*
X10100110Y-6700360D01*
X19600110Y-14300360D02*
X19600110Y-6700360D01*
X10100110Y-6700360D02*
X10100110Y-14300360D01*
D11*
D12*
X16855610Y-13749360D02*
X17005610Y-13899360D01*
X17005610Y-13749360D02*
X16855610Y-13899360D01*
X17340610Y-13749360D02*
X17490610Y-13899360D01*
X17490610Y-13749360D02*
X17340610Y-13899360D01*
D13*
X16990610Y-14127360D02*
G75*
G02*
X16810610Y-14127360I-90000J0D01*
G01*
X16810610Y-14127360D02*
G75*
G02*
X16990610Y-14127360I90000J0D01*
G01*
X17535610Y-14127360D02*
G75*
G02*
X17355610Y-14127360I-90000J0D01*
G01*
X17355610Y-14127360D02*
G75*
G02*
X17535610Y-14127360I90000J0D01*
G01*
D14*
X10400110Y-13825360D02*
X10400110Y-14175360D01*
X10225110Y-14000360D02*
X10575110Y-14000360D01*
X19300110Y-6825360D02*
X19300110Y-7175360D01*
X19125110Y-7000360D02*
X19475110Y-7000360D01*
X19300110Y-13825360D02*
X19300110Y-14175360D01*
X19125110Y-14000360D02*
X19475110Y-14000360D01*
D11*
X10358387Y-14614344D02*
X10358387Y-14414344D01*
X10358387Y-14414344D02*
X10406006Y-14414344D01*
X10406006Y-14414344D02*
X10434577Y-14423868D01*
X10434577Y-14423868D02*
X10453625Y-14442915D01*
X10453625Y-14442915D02*
X10463149Y-14461963D01*
X10463149Y-14461963D02*
X10472673Y-14500058D01*
X10472673Y-14500058D02*
X10472673Y-14528629D01*
X10472673Y-14528629D02*
X10463149Y-14566725D01*
X10463149Y-14566725D02*
X10453625Y-14585772D01*
X10453625Y-14585772D02*
X10434577Y-14604820D01*
X10434577Y-14604820D02*
X10406006Y-14614344D01*
X10406006Y-14614344D02*
X10358387Y-14614344D01*
X10558387Y-14614344D02*
X10558387Y-14481010D01*
X10558387Y-14519106D02*
X10567911Y-14500058D01*
X10567911Y-14500058D02*
X10577434Y-14490534D01*
X10577434Y-14490534D02*
X10596482Y-14481010D01*
X10596482Y-14481010D02*
X10615530Y-14481010D01*
X10682196Y-14614344D02*
X10682196Y-14481010D01*
X10682196Y-14414344D02*
X10672673Y-14423868D01*
X10672673Y-14423868D02*
X10682196Y-14433391D01*
X10682196Y-14433391D02*
X10691720Y-14423868D01*
X10691720Y-14423868D02*
X10682196Y-14414344D01*
X10682196Y-14414344D02*
X10682196Y-14433391D01*
X10806006Y-14614344D02*
X10786958Y-14604820D01*
X10786958Y-14604820D02*
X10777434Y-14585772D01*
X10777434Y-14585772D02*
X10777434Y-14414344D01*
X10910768Y-14614344D02*
X10891720Y-14604820D01*
X10891720Y-14604820D02*
X10882196Y-14585772D01*
X10882196Y-14585772D02*
X10882196Y-14414344D01*
X11139339Y-14614344D02*
X11139339Y-14414344D01*
X11139339Y-14414344D02*
X11206006Y-14557201D01*
X11206006Y-14557201D02*
X11272672Y-14414344D01*
X11272672Y-14414344D02*
X11272672Y-14614344D01*
X11453625Y-14614344D02*
X11453625Y-14509582D01*
X11453625Y-14509582D02*
X11444101Y-14490534D01*
X11444101Y-14490534D02*
X11425053Y-14481010D01*
X11425053Y-14481010D02*
X11386958Y-14481010D01*
X11386958Y-14481010D02*
X11367911Y-14490534D01*
X11453625Y-14604820D02*
X11434577Y-14614344D01*
X11434577Y-14614344D02*
X11386958Y-14614344D01*
X11386958Y-14614344D02*
X11367911Y-14604820D01*
X11367911Y-14604820D02*
X11358387Y-14585772D01*
X11358387Y-14585772D02*
X11358387Y-14566725D01*
X11358387Y-14566725D02*
X11367911Y-14547677D01*
X11367911Y-14547677D02*
X11386958Y-14538153D01*
X11386958Y-14538153D02*
X11434577Y-14538153D01*
X11434577Y-14538153D02*
X11453625Y-14528629D01*
X11548863Y-14481010D02*
X11548863Y-14681010D01*
X11548863Y-14490534D02*
X11567911Y-14481010D01*
X11567911Y-14481010D02*
X11606006Y-14481010D01*
X11606006Y-14481010D02*
X11625053Y-14490534D01*
X11625053Y-14490534D02*
X11634577Y-14500058D01*
X11634577Y-14500058D02*
X11644101Y-14519106D01*
X11644101Y-14519106D02*
X11644101Y-14576248D01*
X11644101Y-14576248D02*
X11634577Y-14595296D01*
X11634577Y-14595296D02*
X11625053Y-14604820D01*
X11625053Y-14604820D02*
X11606006Y-14614344D01*
X11606006Y-14614344D02*
X11567911Y-14614344D01*
X11567911Y-14614344D02*
X11548863Y-14604820D01*
X11729815Y-14595296D02*
X11739339Y-14604820D01*
X11739339Y-14604820D02*
X11729815Y-14614344D01*
X11729815Y-14614344D02*
X11720292Y-14604820D01*
X11720292Y-14604820D02*
X11729815Y-14595296D01*
X11729815Y-14595296D02*
X11729815Y-14614344D01*
X11729815Y-14490534D02*
X11739339Y-14500058D01*
X11739339Y-14500058D02*
X11729815Y-14509582D01*
X11729815Y-14509582D02*
X11720292Y-14500058D01*
X11720292Y-14500058D02*
X11729815Y-14490534D01*
X11729815Y-14490534D02*
X11729815Y-14509582D01*
D12*
X9947610Y-14867860D02*
X10097610Y-15017860D01*
X10097610Y-14867860D02*
X9947610Y-15017860D01*
D11*
X10463149Y-15034344D02*
X10348863Y-15034344D01*
X10406006Y-15034344D02*
X10406006Y-14834344D01*
X10406006Y-14834344D02*
X10386958Y-14862915D01*
X10386958Y-14862915D02*
X10367911Y-14881963D01*
X10367911Y-14881963D02*
X10348863Y-14891487D01*
X10548863Y-15015296D02*
X10558387Y-15024820D01*
X10558387Y-15024820D02*
X10548863Y-15034344D01*
X10548863Y-15034344D02*
X10539339Y-15024820D01*
X10539339Y-15024820D02*
X10548863Y-15015296D01*
X10548863Y-15015296D02*
X10548863Y-15034344D01*
X10739339Y-14834344D02*
X10644101Y-14834344D01*
X10644101Y-14834344D02*
X10634577Y-14929582D01*
X10634577Y-14929582D02*
X10644101Y-14920058D01*
X10644101Y-14920058D02*
X10663149Y-14910534D01*
X10663149Y-14910534D02*
X10710768Y-14910534D01*
X10710768Y-14910534D02*
X10729815Y-14920058D01*
X10729815Y-14920058D02*
X10739339Y-14929582D01*
X10739339Y-14929582D02*
X10748863Y-14948629D01*
X10748863Y-14948629D02*
X10748863Y-14996248D01*
X10748863Y-14996248D02*
X10739339Y-15015296D01*
X10739339Y-15015296D02*
X10729815Y-15024820D01*
X10729815Y-15024820D02*
X10710768Y-15034344D01*
X10710768Y-15034344D02*
X10663149Y-15034344D01*
X10663149Y-15034344D02*
X10644101Y-15024820D01*
X10644101Y-15024820D02*
X10634577Y-15015296D01*
X10872673Y-14834344D02*
X10891720Y-14834344D01*
X10891720Y-14834344D02*
X10910768Y-14843868D01*
X10910768Y-14843868D02*
X10920292Y-14853391D01*
X10920292Y-14853391D02*
X10929815Y-14872439D01*
X10929815Y-14872439D02*
X10939339Y-14910534D01*
X10939339Y-14910534D02*
X10939339Y-14958153D01*
X10939339Y-14958153D02*
X10929815Y-14996248D01*
X10929815Y-14996248D02*
X10920292Y-15015296D01*
X10920292Y-15015296D02*
X10910768Y-15024820D01*
X10910768Y-15024820D02*
X10891720Y-15034344D01*
X10891720Y-15034344D02*
X10872673Y-15034344D01*
X10872673Y-15034344D02*
X10853625Y-15024820D01*
X10853625Y-15024820D02*
X10844101Y-15015296D01*
X10844101Y-15015296D02*
X10834577Y-14996248D01*
X10834577Y-14996248D02*
X10825054Y-14958153D01*
X10825054Y-14958153D02*
X10825054Y-14910534D01*
X10825054Y-14910534D02*
X10834577Y-14872439D01*
X10834577Y-14872439D02*
X10844101Y-14853391D01*
X10844101Y-14853391D02*
X10853625Y-14843868D01*
X10853625Y-14843868D02*
X10872673Y-14834344D01*
X11063149Y-14834344D02*
X11082196Y-14834344D01*
X11082196Y-14834344D02*
X11101244Y-14843868D01*
X11101244Y-14843868D02*
X11110768Y-14853391D01*
X11110768Y-14853391D02*
X11120292Y-14872439D01*
X11120292Y-14872439D02*
X11129815Y-14910534D01*
X11129815Y-14910534D02*
X11129815Y-14958153D01*
X11129815Y-14958153D02*
X11120292Y-14996248D01*
X11120292Y-14996248D02*
X11110768Y-15015296D01*
X11110768Y-15015296D02*
X11101244Y-15024820D01*
X11101244Y-15024820D02*
X11082196Y-15034344D01*
X11082196Y-15034344D02*
X11063149Y-15034344D01*
X11063149Y-15034344D02*
X11044101Y-15024820D01*
X11044101Y-15024820D02*
X11034577Y-15015296D01*
X11034577Y-15015296D02*
X11025054Y-14996248D01*
X11025054Y-14996248D02*
X11015530Y-14958153D01*
X11015530Y-14958153D02*
X11015530Y-14910534D01*
X11015530Y-14910534D02*
X11025054Y-14872439D01*
X11025054Y-14872439D02*
X11034577Y-14853391D01*
X11034577Y-14853391D02*
X11044101Y-14843868D01*
X11044101Y-14843868D02*
X11063149Y-14834344D01*
X11215530Y-15034344D02*
X11215530Y-14901010D01*
X11215530Y-14920058D02*
X11225053Y-14910534D01*
X11225053Y-14910534D02*
X11244101Y-14901010D01*
X11244101Y-14901010D02*
X11272673Y-14901010D01*
X11272673Y-14901010D02*
X11291720Y-14910534D01*
X11291720Y-14910534D02*
X11301244Y-14929582D01*
X11301244Y-14929582D02*
X11301244Y-15034344D01*
X11301244Y-14929582D02*
X11310768Y-14910534D01*
X11310768Y-14910534D02*
X11329815Y-14901010D01*
X11329815Y-14901010D02*
X11358387Y-14901010D01*
X11358387Y-14901010D02*
X11377434Y-14910534D01*
X11377434Y-14910534D02*
X11386958Y-14929582D01*
X11386958Y-14929582D02*
X11386958Y-15034344D01*
X11482196Y-15034344D02*
X11482196Y-14901010D01*
X11482196Y-14920058D02*
X11491720Y-14910534D01*
X11491720Y-14910534D02*
X11510768Y-14901010D01*
X11510768Y-14901010D02*
X11539339Y-14901010D01*
X11539339Y-14901010D02*
X11558387Y-14910534D01*
X11558387Y-14910534D02*
X11567911Y-14929582D01*
X11567911Y-14929582D02*
X11567911Y-15034344D01*
X11567911Y-14929582D02*
X11577434Y-14910534D01*
X11577434Y-14910534D02*
X11596482Y-14901010D01*
X11596482Y-14901010D02*
X11625053Y-14901010D01*
X11625053Y-14901010D02*
X11644101Y-14910534D01*
X11644101Y-14910534D02*
X11653625Y-14929582D01*
X11653625Y-14929582D02*
X11653625Y-15034344D01*
X12044101Y-14824820D02*
X11872673Y-15081963D01*
X12301244Y-14834344D02*
X12320292Y-14834344D01*
X12320292Y-14834344D02*
X12339339Y-14843868D01*
X12339339Y-14843868D02*
X12348863Y-14853391D01*
X12348863Y-14853391D02*
X12358387Y-14872439D01*
X12358387Y-14872439D02*
X12367911Y-14910534D01*
X12367911Y-14910534D02*
X12367911Y-14958153D01*
X12367911Y-14958153D02*
X12358387Y-14996248D01*
X12358387Y-14996248D02*
X12348863Y-15015296D01*
X12348863Y-15015296D02*
X12339339Y-15024820D01*
X12339339Y-15024820D02*
X12320292Y-15034344D01*
X12320292Y-15034344D02*
X12301244Y-15034344D01*
X12301244Y-15034344D02*
X12282196Y-15024820D01*
X12282196Y-15024820D02*
X12272673Y-15015296D01*
X12272673Y-15015296D02*
X12263149Y-14996248D01*
X12263149Y-14996248D02*
X12253625Y-14958153D01*
X12253625Y-14958153D02*
X12253625Y-14910534D01*
X12253625Y-14910534D02*
X12263149Y-14872439D01*
X12263149Y-14872439D02*
X12272673Y-14853391D01*
X12272673Y-14853391D02*
X12282196Y-14843868D01*
X12282196Y-14843868D02*
X12301244Y-14834344D01*
X12453625Y-15015296D02*
X12463149Y-15024820D01*
X12463149Y-15024820D02*
X12453625Y-15034344D01*
X12453625Y-15034344D02*
X12444101Y-15024820D01*
X12444101Y-15024820D02*
X12453625Y-15015296D01*
X12453625Y-15015296D02*
X12453625Y-15034344D01*
X12586958Y-14834344D02*
X12606006Y-14834344D01*
X12606006Y-14834344D02*
X12625054Y-14843868D01*
X12625054Y-14843868D02*
X12634577Y-14853391D01*
X12634577Y-14853391D02*
X12644101Y-14872439D01*
X12644101Y-14872439D02*
X12653625Y-14910534D01*
X12653625Y-14910534D02*
X12653625Y-14958153D01*
X12653625Y-14958153D02*
X12644101Y-14996248D01*
X12644101Y-14996248D02*
X12634577Y-15015296D01*
X12634577Y-15015296D02*
X12625054Y-15024820D01*
X12625054Y-15024820D02*
X12606006Y-15034344D01*
X12606006Y-15034344D02*
X12586958Y-15034344D01*
X12586958Y-15034344D02*
X12567911Y-15024820D01*
X12567911Y-15024820D02*
X12558387Y-15015296D01*
X12558387Y-15015296D02*
X12548863Y-14996248D01*
X12548863Y-14996248D02*
X12539339Y-14958153D01*
X12539339Y-14958153D02*
X12539339Y-14910534D01*
X12539339Y-14910534D02*
X12548863Y-14872439D01*
X12548863Y-14872439D02*
X12558387Y-14853391D01*
X12558387Y-14853391D02*
X12567911Y-14843868D01*
X12567911Y-14843868D02*
X12586958Y-14834344D01*
X12834577Y-14834344D02*
X12739339Y-14834344D01*
X12739339Y-14834344D02*
X12729816Y-14929582D01*
X12729816Y-14929582D02*
X12739339Y-14920058D01*
X12739339Y-14920058D02*
X12758387Y-14910534D01*
X12758387Y-14910534D02*
X12806006Y-14910534D01*
X12806006Y-14910534D02*
X12825054Y-14920058D01*
X12825054Y-14920058D02*
X12834577Y-14929582D01*
X12834577Y-14929582D02*
X12844101Y-14948629D01*
X12844101Y-14948629D02*
X12844101Y-14996248D01*
X12844101Y-14996248D02*
X12834577Y-15015296D01*
X12834577Y-15015296D02*
X12825054Y-15024820D01*
X12825054Y-15024820D02*
X12806006Y-15034344D01*
X12806006Y-15034344D02*
X12758387Y-15034344D01*
X12758387Y-15034344D02*
X12739339Y-15024820D01*
X12739339Y-15024820D02*
X12729816Y-15015296D01*
X12939339Y-15034344D02*
X12977435Y-15034344D01*
X12977435Y-15034344D02*
X12996482Y-15024820D01*
X12996482Y-15024820D02*
X13006006Y-15015296D01*
X13006006Y-15015296D02*
X13025054Y-14986725D01*
X13025054Y-14986725D02*
X13034577Y-14948629D01*
X13034577Y-14948629D02*
X13034577Y-14872439D01*
X13034577Y-14872439D02*
X13025054Y-14853391D01*
X13025054Y-14853391D02*
X13015530Y-14843868D01*
X13015530Y-14843868D02*
X12996482Y-14834344D01*
X12996482Y-14834344D02*
X12958387Y-14834344D01*
X12958387Y-14834344D02*
X12939339Y-14843868D01*
X12939339Y-14843868D02*
X12929816Y-14853391D01*
X12929816Y-14853391D02*
X12920292Y-14872439D01*
X12920292Y-14872439D02*
X12920292Y-14920058D01*
X12920292Y-14920058D02*
X12929816Y-14939106D01*
X12929816Y-14939106D02*
X12939339Y-14948629D01*
X12939339Y-14948629D02*
X12958387Y-14958153D01*
X12958387Y-14958153D02*
X12996482Y-14958153D01*
X12996482Y-14958153D02*
X13015530Y-14948629D01*
X13015530Y-14948629D02*
X13025054Y-14939106D01*
X13025054Y-14939106D02*
X13034577Y-14920058D01*
X13225054Y-15034344D02*
X13110768Y-15034344D01*
X13167911Y-15034344D02*
X13167911Y-14834344D01*
X13167911Y-14834344D02*
X13148863Y-14862915D01*
X13148863Y-14862915D02*
X13129816Y-14881963D01*
X13129816Y-14881963D02*
X13110768Y-14891487D01*
X13301244Y-14834344D02*
X13301244Y-14872439D01*
X13377435Y-14834344D02*
X13377435Y-14872439D01*
X13672673Y-15110534D02*
X13663149Y-15101010D01*
X13663149Y-15101010D02*
X13644101Y-15072439D01*
X13644101Y-15072439D02*
X13634578Y-15053391D01*
X13634578Y-15053391D02*
X13625054Y-15024820D01*
X13625054Y-15024820D02*
X13615530Y-14977201D01*
X13615530Y-14977201D02*
X13615530Y-14939106D01*
X13615530Y-14939106D02*
X13625054Y-14891487D01*
X13625054Y-14891487D02*
X13634578Y-14862915D01*
X13634578Y-14862915D02*
X13644101Y-14843868D01*
X13644101Y-14843868D02*
X13663149Y-14815296D01*
X13663149Y-14815296D02*
X13672673Y-14805772D01*
X13739339Y-14853391D02*
X13748863Y-14843868D01*
X13748863Y-14843868D02*
X13767911Y-14834344D01*
X13767911Y-14834344D02*
X13815530Y-14834344D01*
X13815530Y-14834344D02*
X13834578Y-14843868D01*
X13834578Y-14843868D02*
X13844101Y-14853391D01*
X13844101Y-14853391D02*
X13853625Y-14872439D01*
X13853625Y-14872439D02*
X13853625Y-14891487D01*
X13853625Y-14891487D02*
X13844101Y-14920058D01*
X13844101Y-14920058D02*
X13729816Y-15034344D01*
X13729816Y-15034344D02*
X13853625Y-15034344D01*
X14091720Y-15034344D02*
X14091720Y-14834344D01*
X14177435Y-15034344D02*
X14177435Y-14929582D01*
X14177435Y-14929582D02*
X14167911Y-14910534D01*
X14167911Y-14910534D02*
X14148863Y-14901010D01*
X14148863Y-14901010D02*
X14120292Y-14901010D01*
X14120292Y-14901010D02*
X14101244Y-14910534D01*
X14101244Y-14910534D02*
X14091720Y-14920058D01*
X14301244Y-15034344D02*
X14282197Y-15024820D01*
X14282197Y-15024820D02*
X14272673Y-15015296D01*
X14272673Y-15015296D02*
X14263149Y-14996248D01*
X14263149Y-14996248D02*
X14263149Y-14939106D01*
X14263149Y-14939106D02*
X14272673Y-14920058D01*
X14272673Y-14920058D02*
X14282197Y-14910534D01*
X14282197Y-14910534D02*
X14301244Y-14901010D01*
X14301244Y-14901010D02*
X14329816Y-14901010D01*
X14329816Y-14901010D02*
X14348863Y-14910534D01*
X14348863Y-14910534D02*
X14358387Y-14920058D01*
X14358387Y-14920058D02*
X14367911Y-14939106D01*
X14367911Y-14939106D02*
X14367911Y-14996248D01*
X14367911Y-14996248D02*
X14358387Y-15015296D01*
X14358387Y-15015296D02*
X14348863Y-15024820D01*
X14348863Y-15024820D02*
X14329816Y-15034344D01*
X14329816Y-15034344D02*
X14301244Y-15034344D01*
X14482197Y-15034344D02*
X14463149Y-15024820D01*
X14463149Y-15024820D02*
X14453625Y-15005772D01*
X14453625Y-15005772D02*
X14453625Y-14834344D01*
X14634578Y-15024820D02*
X14615530Y-15034344D01*
X14615530Y-15034344D02*
X14577435Y-15034344D01*
X14577435Y-15034344D02*
X14558387Y-15024820D01*
X14558387Y-15024820D02*
X14548863Y-15005772D01*
X14548863Y-15005772D02*
X14548863Y-14929582D01*
X14548863Y-14929582D02*
X14558387Y-14910534D01*
X14558387Y-14910534D02*
X14577435Y-14901010D01*
X14577435Y-14901010D02*
X14615530Y-14901010D01*
X14615530Y-14901010D02*
X14634578Y-14910534D01*
X14634578Y-14910534D02*
X14644101Y-14929582D01*
X14644101Y-14929582D02*
X14644101Y-14948629D01*
X14644101Y-14948629D02*
X14548863Y-14967677D01*
X14720292Y-15024820D02*
X14739340Y-15034344D01*
X14739340Y-15034344D02*
X14777435Y-15034344D01*
X14777435Y-15034344D02*
X14796482Y-15024820D01*
X14796482Y-15024820D02*
X14806006Y-15005772D01*
X14806006Y-15005772D02*
X14806006Y-14996248D01*
X14806006Y-14996248D02*
X14796482Y-14977201D01*
X14796482Y-14977201D02*
X14777435Y-14967677D01*
X14777435Y-14967677D02*
X14748863Y-14967677D01*
X14748863Y-14967677D02*
X14729816Y-14958153D01*
X14729816Y-14958153D02*
X14720292Y-14939106D01*
X14720292Y-14939106D02*
X14720292Y-14929582D01*
X14720292Y-14929582D02*
X14729816Y-14910534D01*
X14729816Y-14910534D02*
X14748863Y-14901010D01*
X14748863Y-14901010D02*
X14777435Y-14901010D01*
X14777435Y-14901010D02*
X14796482Y-14910534D01*
X14872673Y-15110534D02*
X14882197Y-15101010D01*
X14882197Y-15101010D02*
X14901244Y-15072439D01*
X14901244Y-15072439D02*
X14910768Y-15053391D01*
X14910768Y-15053391D02*
X14920292Y-15024820D01*
X14920292Y-15024820D02*
X14929816Y-14977201D01*
X14929816Y-14977201D02*
X14929816Y-14939106D01*
X14929816Y-14939106D02*
X14920292Y-14891487D01*
X14920292Y-14891487D02*
X14910768Y-14862915D01*
X14910768Y-14862915D02*
X14901244Y-14843868D01*
X14901244Y-14843868D02*
X14882197Y-14815296D01*
X14882197Y-14815296D02*
X14872673Y-14805772D01*
X15234578Y-15110534D02*
X15225054Y-15101010D01*
X15225054Y-15101010D02*
X15206006Y-15072439D01*
X15206006Y-15072439D02*
X15196482Y-15053391D01*
X15196482Y-15053391D02*
X15186959Y-15024820D01*
X15186959Y-15024820D02*
X15177435Y-14977201D01*
X15177435Y-14977201D02*
X15177435Y-14939106D01*
X15177435Y-14939106D02*
X15186959Y-14891487D01*
X15186959Y-14891487D02*
X15196482Y-14862915D01*
X15196482Y-14862915D02*
X15206006Y-14843868D01*
X15206006Y-14843868D02*
X15225054Y-14815296D01*
X15225054Y-14815296D02*
X15234578Y-14805772D01*
X15310768Y-14901010D02*
X15310768Y-15034344D01*
X15310768Y-14920058D02*
X15320292Y-14910534D01*
X15320292Y-14910534D02*
X15339340Y-14901010D01*
X15339340Y-14901010D02*
X15367911Y-14901010D01*
X15367911Y-14901010D02*
X15386959Y-14910534D01*
X15386959Y-14910534D02*
X15396482Y-14929582D01*
X15396482Y-14929582D02*
X15396482Y-15034344D01*
X15520292Y-15034344D02*
X15501244Y-15024820D01*
X15501244Y-15024820D02*
X15491721Y-15015296D01*
X15491721Y-15015296D02*
X15482197Y-14996248D01*
X15482197Y-14996248D02*
X15482197Y-14939106D01*
X15482197Y-14939106D02*
X15491721Y-14920058D01*
X15491721Y-14920058D02*
X15501244Y-14910534D01*
X15501244Y-14910534D02*
X15520292Y-14901010D01*
X15520292Y-14901010D02*
X15548863Y-14901010D01*
X15548863Y-14901010D02*
X15567911Y-14910534D01*
X15567911Y-14910534D02*
X15577435Y-14920058D01*
X15577435Y-14920058D02*
X15586959Y-14939106D01*
X15586959Y-14939106D02*
X15586959Y-14996248D01*
X15586959Y-14996248D02*
X15577435Y-15015296D01*
X15577435Y-15015296D02*
X15567911Y-15024820D01*
X15567911Y-15024820D02*
X15548863Y-15034344D01*
X15548863Y-15034344D02*
X15520292Y-15034344D01*
X15644102Y-14901010D02*
X15720292Y-14901010D01*
X15672673Y-14834344D02*
X15672673Y-15005772D01*
X15672673Y-15005772D02*
X15682197Y-15024820D01*
X15682197Y-15024820D02*
X15701244Y-15034344D01*
X15701244Y-15034344D02*
X15720292Y-15034344D01*
X15939340Y-14901010D02*
X15939340Y-15101010D01*
X15939340Y-14910534D02*
X15958387Y-14901010D01*
X15958387Y-14901010D02*
X15996483Y-14901010D01*
X15996483Y-14901010D02*
X16015530Y-14910534D01*
X16015530Y-14910534D02*
X16025054Y-14920058D01*
X16025054Y-14920058D02*
X16034578Y-14939106D01*
X16034578Y-14939106D02*
X16034578Y-14996248D01*
X16034578Y-14996248D02*
X16025054Y-15015296D01*
X16025054Y-15015296D02*
X16015530Y-15024820D01*
X16015530Y-15024820D02*
X15996483Y-15034344D01*
X15996483Y-15034344D02*
X15958387Y-15034344D01*
X15958387Y-15034344D02*
X15939340Y-15024820D01*
X16148863Y-15034344D02*
X16129816Y-15024820D01*
X16129816Y-15024820D02*
X16120292Y-15005772D01*
X16120292Y-15005772D02*
X16120292Y-14834344D01*
X16310768Y-15034344D02*
X16310768Y-14929582D01*
X16310768Y-14929582D02*
X16301244Y-14910534D01*
X16301244Y-14910534D02*
X16282197Y-14901010D01*
X16282197Y-14901010D02*
X16244102Y-14901010D01*
X16244102Y-14901010D02*
X16225054Y-14910534D01*
X16310768Y-15024820D02*
X16291721Y-15034344D01*
X16291721Y-15034344D02*
X16244102Y-15034344D01*
X16244102Y-15034344D02*
X16225054Y-15024820D01*
X16225054Y-15024820D02*
X16215530Y-15005772D01*
X16215530Y-15005772D02*
X16215530Y-14986725D01*
X16215530Y-14986725D02*
X16225054Y-14967677D01*
X16225054Y-14967677D02*
X16244102Y-14958153D01*
X16244102Y-14958153D02*
X16291721Y-14958153D01*
X16291721Y-14958153D02*
X16310768Y-14948629D01*
X16377435Y-14901010D02*
X16453625Y-14901010D01*
X16406006Y-14834344D02*
X16406006Y-15005772D01*
X16406006Y-15005772D02*
X16415530Y-15024820D01*
X16415530Y-15024820D02*
X16434578Y-15034344D01*
X16434578Y-15034344D02*
X16453625Y-15034344D01*
X16596483Y-15024820D02*
X16577435Y-15034344D01*
X16577435Y-15034344D02*
X16539340Y-15034344D01*
X16539340Y-15034344D02*
X16520292Y-15024820D01*
X16520292Y-15024820D02*
X16510768Y-15005772D01*
X16510768Y-15005772D02*
X16510768Y-14929582D01*
X16510768Y-14929582D02*
X16520292Y-14910534D01*
X16520292Y-14910534D02*
X16539340Y-14901010D01*
X16539340Y-14901010D02*
X16577435Y-14901010D01*
X16577435Y-14901010D02*
X16596483Y-14910534D01*
X16596483Y-14910534D02*
X16606006Y-14929582D01*
X16606006Y-14929582D02*
X16606006Y-14948629D01*
X16606006Y-14948629D02*
X16510768Y-14967677D01*
X16777435Y-15034344D02*
X16777435Y-14834344D01*
X16777435Y-15024820D02*
X16758387Y-15034344D01*
X16758387Y-15034344D02*
X16720292Y-15034344D01*
X16720292Y-15034344D02*
X16701244Y-15024820D01*
X16701244Y-15024820D02*
X16691721Y-15015296D01*
X16691721Y-15015296D02*
X16682197Y-14996248D01*
X16682197Y-14996248D02*
X16682197Y-14939106D01*
X16682197Y-14939106D02*
X16691721Y-14920058D01*
X16691721Y-14920058D02*
X16701244Y-14910534D01*
X16701244Y-14910534D02*
X16720292Y-14901010D01*
X16720292Y-14901010D02*
X16758387Y-14901010D01*
X16758387Y-14901010D02*
X16777435Y-14910534D01*
X16853626Y-15110534D02*
X16863149Y-15101010D01*
X16863149Y-15101010D02*
X16882197Y-15072439D01*
X16882197Y-15072439D02*
X16891721Y-15053391D01*
X16891721Y-15053391D02*
X16901245Y-15024820D01*
X16901245Y-15024820D02*
X16910768Y-14977201D01*
X16910768Y-14977201D02*
X16910768Y-14939106D01*
X16910768Y-14939106D02*
X16901245Y-14891487D01*
X16901245Y-14891487D02*
X16891721Y-14862915D01*
X16891721Y-14862915D02*
X16882197Y-14843868D01*
X16882197Y-14843868D02*
X16863149Y-14815296D01*
X16863149Y-14815296D02*
X16853626Y-14805772D01*
D13*
X10097610Y-15212860D02*
G75*
G02*
X9917610Y-15212860I-90000J0D01*
G01*
X9917610Y-15212860D02*
G75*
G02*
X10097610Y-15212860I90000J0D01*
G01*
D11*
X10463149Y-15304344D02*
X10348863Y-15304344D01*
X10406006Y-15304344D02*
X10406006Y-15104344D01*
X10406006Y-15104344D02*
X10386958Y-15132915D01*
X10386958Y-15132915D02*
X10367911Y-15151963D01*
X10367911Y-15151963D02*
X10348863Y-15161487D01*
X10548863Y-15285296D02*
X10558387Y-15294820D01*
X10558387Y-15294820D02*
X10548863Y-15304344D01*
X10548863Y-15304344D02*
X10539339Y-15294820D01*
X10539339Y-15294820D02*
X10548863Y-15285296D01*
X10548863Y-15285296D02*
X10548863Y-15304344D01*
X10672673Y-15190058D02*
X10653625Y-15180534D01*
X10653625Y-15180534D02*
X10644101Y-15171010D01*
X10644101Y-15171010D02*
X10634577Y-15151963D01*
X10634577Y-15151963D02*
X10634577Y-15142439D01*
X10634577Y-15142439D02*
X10644101Y-15123391D01*
X10644101Y-15123391D02*
X10653625Y-15113868D01*
X10653625Y-15113868D02*
X10672673Y-15104344D01*
X10672673Y-15104344D02*
X10710768Y-15104344D01*
X10710768Y-15104344D02*
X10729815Y-15113868D01*
X10729815Y-15113868D02*
X10739339Y-15123391D01*
X10739339Y-15123391D02*
X10748863Y-15142439D01*
X10748863Y-15142439D02*
X10748863Y-15151963D01*
X10748863Y-15151963D02*
X10739339Y-15171010D01*
X10739339Y-15171010D02*
X10729815Y-15180534D01*
X10729815Y-15180534D02*
X10710768Y-15190058D01*
X10710768Y-15190058D02*
X10672673Y-15190058D01*
X10672673Y-15190058D02*
X10653625Y-15199582D01*
X10653625Y-15199582D02*
X10644101Y-15209106D01*
X10644101Y-15209106D02*
X10634577Y-15228153D01*
X10634577Y-15228153D02*
X10634577Y-15266248D01*
X10634577Y-15266248D02*
X10644101Y-15285296D01*
X10644101Y-15285296D02*
X10653625Y-15294820D01*
X10653625Y-15294820D02*
X10672673Y-15304344D01*
X10672673Y-15304344D02*
X10710768Y-15304344D01*
X10710768Y-15304344D02*
X10729815Y-15294820D01*
X10729815Y-15294820D02*
X10739339Y-15285296D01*
X10739339Y-15285296D02*
X10748863Y-15266248D01*
X10748863Y-15266248D02*
X10748863Y-15228153D01*
X10748863Y-15228153D02*
X10739339Y-15209106D01*
X10739339Y-15209106D02*
X10729815Y-15199582D01*
X10729815Y-15199582D02*
X10710768Y-15190058D01*
X10872673Y-15104344D02*
X10891720Y-15104344D01*
X10891720Y-15104344D02*
X10910768Y-15113868D01*
X10910768Y-15113868D02*
X10920292Y-15123391D01*
X10920292Y-15123391D02*
X10929815Y-15142439D01*
X10929815Y-15142439D02*
X10939339Y-15180534D01*
X10939339Y-15180534D02*
X10939339Y-15228153D01*
X10939339Y-15228153D02*
X10929815Y-15266248D01*
X10929815Y-15266248D02*
X10920292Y-15285296D01*
X10920292Y-15285296D02*
X10910768Y-15294820D01*
X10910768Y-15294820D02*
X10891720Y-15304344D01*
X10891720Y-15304344D02*
X10872673Y-15304344D01*
X10872673Y-15304344D02*
X10853625Y-15294820D01*
X10853625Y-15294820D02*
X10844101Y-15285296D01*
X10844101Y-15285296D02*
X10834577Y-15266248D01*
X10834577Y-15266248D02*
X10825054Y-15228153D01*
X10825054Y-15228153D02*
X10825054Y-15180534D01*
X10825054Y-15180534D02*
X10834577Y-15142439D01*
X10834577Y-15142439D02*
X10844101Y-15123391D01*
X10844101Y-15123391D02*
X10853625Y-15113868D01*
X10853625Y-15113868D02*
X10872673Y-15104344D01*
X11063149Y-15104344D02*
X11082196Y-15104344D01*
X11082196Y-15104344D02*
X11101244Y-15113868D01*
X11101244Y-15113868D02*
X11110768Y-15123391D01*
X11110768Y-15123391D02*
X11120292Y-15142439D01*
X11120292Y-15142439D02*
X11129815Y-15180534D01*
X11129815Y-15180534D02*
X11129815Y-15228153D01*
X11129815Y-15228153D02*
X11120292Y-15266248D01*
X11120292Y-15266248D02*
X11110768Y-15285296D01*
X11110768Y-15285296D02*
X11101244Y-15294820D01*
X11101244Y-15294820D02*
X11082196Y-15304344D01*
X11082196Y-15304344D02*
X11063149Y-15304344D01*
X11063149Y-15304344D02*
X11044101Y-15294820D01*
X11044101Y-15294820D02*
X11034577Y-15285296D01*
X11034577Y-15285296D02*
X11025054Y-15266248D01*
X11025054Y-15266248D02*
X11015530Y-15228153D01*
X11015530Y-15228153D02*
X11015530Y-15180534D01*
X11015530Y-15180534D02*
X11025054Y-15142439D01*
X11025054Y-15142439D02*
X11034577Y-15123391D01*
X11034577Y-15123391D02*
X11044101Y-15113868D01*
X11044101Y-15113868D02*
X11063149Y-15104344D01*
X11215530Y-15304344D02*
X11215530Y-15171010D01*
X11215530Y-15190058D02*
X11225053Y-15180534D01*
X11225053Y-15180534D02*
X11244101Y-15171010D01*
X11244101Y-15171010D02*
X11272673Y-15171010D01*
X11272673Y-15171010D02*
X11291720Y-15180534D01*
X11291720Y-15180534D02*
X11301244Y-15199582D01*
X11301244Y-15199582D02*
X11301244Y-15304344D01*
X11301244Y-15199582D02*
X11310768Y-15180534D01*
X11310768Y-15180534D02*
X11329815Y-15171010D01*
X11329815Y-15171010D02*
X11358387Y-15171010D01*
X11358387Y-15171010D02*
X11377434Y-15180534D01*
X11377434Y-15180534D02*
X11386958Y-15199582D01*
X11386958Y-15199582D02*
X11386958Y-15304344D01*
X11482196Y-15304344D02*
X11482196Y-15171010D01*
X11482196Y-15190058D02*
X11491720Y-15180534D01*
X11491720Y-15180534D02*
X11510768Y-15171010D01*
X11510768Y-15171010D02*
X11539339Y-15171010D01*
X11539339Y-15171010D02*
X11558387Y-15180534D01*
X11558387Y-15180534D02*
X11567911Y-15199582D01*
X11567911Y-15199582D02*
X11567911Y-15304344D01*
X11567911Y-15199582D02*
X11577434Y-15180534D01*
X11577434Y-15180534D02*
X11596482Y-15171010D01*
X11596482Y-15171010D02*
X11625053Y-15171010D01*
X11625053Y-15171010D02*
X11644101Y-15180534D01*
X11644101Y-15180534D02*
X11653625Y-15199582D01*
X11653625Y-15199582D02*
X11653625Y-15304344D01*
X12044101Y-15094820D02*
X11872673Y-15351963D01*
X12301244Y-15104344D02*
X12320292Y-15104344D01*
X12320292Y-15104344D02*
X12339339Y-15113868D01*
X12339339Y-15113868D02*
X12348863Y-15123391D01*
X12348863Y-15123391D02*
X12358387Y-15142439D01*
X12358387Y-15142439D02*
X12367911Y-15180534D01*
X12367911Y-15180534D02*
X12367911Y-15228153D01*
X12367911Y-15228153D02*
X12358387Y-15266248D01*
X12358387Y-15266248D02*
X12348863Y-15285296D01*
X12348863Y-15285296D02*
X12339339Y-15294820D01*
X12339339Y-15294820D02*
X12320292Y-15304344D01*
X12320292Y-15304344D02*
X12301244Y-15304344D01*
X12301244Y-15304344D02*
X12282196Y-15294820D01*
X12282196Y-15294820D02*
X12272673Y-15285296D01*
X12272673Y-15285296D02*
X12263149Y-15266248D01*
X12263149Y-15266248D02*
X12253625Y-15228153D01*
X12253625Y-15228153D02*
X12253625Y-15180534D01*
X12253625Y-15180534D02*
X12263149Y-15142439D01*
X12263149Y-15142439D02*
X12272673Y-15123391D01*
X12272673Y-15123391D02*
X12282196Y-15113868D01*
X12282196Y-15113868D02*
X12301244Y-15104344D01*
X12453625Y-15285296D02*
X12463149Y-15294820D01*
X12463149Y-15294820D02*
X12453625Y-15304344D01*
X12453625Y-15304344D02*
X12444101Y-15294820D01*
X12444101Y-15294820D02*
X12453625Y-15285296D01*
X12453625Y-15285296D02*
X12453625Y-15304344D01*
X12586958Y-15104344D02*
X12606006Y-15104344D01*
X12606006Y-15104344D02*
X12625054Y-15113868D01*
X12625054Y-15113868D02*
X12634577Y-15123391D01*
X12634577Y-15123391D02*
X12644101Y-15142439D01*
X12644101Y-15142439D02*
X12653625Y-15180534D01*
X12653625Y-15180534D02*
X12653625Y-15228153D01*
X12653625Y-15228153D02*
X12644101Y-15266248D01*
X12644101Y-15266248D02*
X12634577Y-15285296D01*
X12634577Y-15285296D02*
X12625054Y-15294820D01*
X12625054Y-15294820D02*
X12606006Y-15304344D01*
X12606006Y-15304344D02*
X12586958Y-15304344D01*
X12586958Y-15304344D02*
X12567911Y-15294820D01*
X12567911Y-15294820D02*
X12558387Y-15285296D01*
X12558387Y-15285296D02*
X12548863Y-15266248D01*
X12548863Y-15266248D02*
X12539339Y-15228153D01*
X12539339Y-15228153D02*
X12539339Y-15180534D01*
X12539339Y-15180534D02*
X12548863Y-15142439D01*
X12548863Y-15142439D02*
X12558387Y-15123391D01*
X12558387Y-15123391D02*
X12567911Y-15113868D01*
X12567911Y-15113868D02*
X12586958Y-15104344D01*
X12720292Y-15104344D02*
X12853625Y-15104344D01*
X12853625Y-15104344D02*
X12767911Y-15304344D01*
X12967911Y-15104344D02*
X12986958Y-15104344D01*
X12986958Y-15104344D02*
X13006006Y-15113868D01*
X13006006Y-15113868D02*
X13015530Y-15123391D01*
X13015530Y-15123391D02*
X13025054Y-15142439D01*
X13025054Y-15142439D02*
X13034577Y-15180534D01*
X13034577Y-15180534D02*
X13034577Y-15228153D01*
X13034577Y-15228153D02*
X13025054Y-15266248D01*
X13025054Y-15266248D02*
X13015530Y-15285296D01*
X13015530Y-15285296D02*
X13006006Y-15294820D01*
X13006006Y-15294820D02*
X12986958Y-15304344D01*
X12986958Y-15304344D02*
X12967911Y-15304344D01*
X12967911Y-15304344D02*
X12948863Y-15294820D01*
X12948863Y-15294820D02*
X12939339Y-15285296D01*
X12939339Y-15285296D02*
X12929816Y-15266248D01*
X12929816Y-15266248D02*
X12920292Y-15228153D01*
X12920292Y-15228153D02*
X12920292Y-15180534D01*
X12920292Y-15180534D02*
X12929816Y-15142439D01*
X12929816Y-15142439D02*
X12939339Y-15123391D01*
X12939339Y-15123391D02*
X12948863Y-15113868D01*
X12948863Y-15113868D02*
X12967911Y-15104344D01*
X13129816Y-15304344D02*
X13167911Y-15304344D01*
X13167911Y-15304344D02*
X13186958Y-15294820D01*
X13186958Y-15294820D02*
X13196482Y-15285296D01*
X13196482Y-15285296D02*
X13215530Y-15256725D01*
X13215530Y-15256725D02*
X13225054Y-15218629D01*
X13225054Y-15218629D02*
X13225054Y-15142439D01*
X13225054Y-15142439D02*
X13215530Y-15123391D01*
X13215530Y-15123391D02*
X13206006Y-15113868D01*
X13206006Y-15113868D02*
X13186958Y-15104344D01*
X13186958Y-15104344D02*
X13148863Y-15104344D01*
X13148863Y-15104344D02*
X13129816Y-15113868D01*
X13129816Y-15113868D02*
X13120292Y-15123391D01*
X13120292Y-15123391D02*
X13110768Y-15142439D01*
X13110768Y-15142439D02*
X13110768Y-15190058D01*
X13110768Y-15190058D02*
X13120292Y-15209106D01*
X13120292Y-15209106D02*
X13129816Y-15218629D01*
X13129816Y-15218629D02*
X13148863Y-15228153D01*
X13148863Y-15228153D02*
X13186958Y-15228153D01*
X13186958Y-15228153D02*
X13206006Y-15218629D01*
X13206006Y-15218629D02*
X13215530Y-15209106D01*
X13215530Y-15209106D02*
X13225054Y-15190058D01*
X13301244Y-15104344D02*
X13301244Y-15142439D01*
X13377435Y-15104344D02*
X13377435Y-15142439D01*
X13672673Y-15380534D02*
X13663149Y-15371010D01*
X13663149Y-15371010D02*
X13644101Y-15342439D01*
X13644101Y-15342439D02*
X13634578Y-15323391D01*
X13634578Y-15323391D02*
X13625054Y-15294820D01*
X13625054Y-15294820D02*
X13615530Y-15247201D01*
X13615530Y-15247201D02*
X13615530Y-15209106D01*
X13615530Y-15209106D02*
X13625054Y-15161487D01*
X13625054Y-15161487D02*
X13634578Y-15132915D01*
X13634578Y-15132915D02*
X13644101Y-15113868D01*
X13644101Y-15113868D02*
X13663149Y-15085296D01*
X13663149Y-15085296D02*
X13672673Y-15075772D01*
X13739339Y-15123391D02*
X13748863Y-15113868D01*
X13748863Y-15113868D02*
X13767911Y-15104344D01*
X13767911Y-15104344D02*
X13815530Y-15104344D01*
X13815530Y-15104344D02*
X13834578Y-15113868D01*
X13834578Y-15113868D02*
X13844101Y-15123391D01*
X13844101Y-15123391D02*
X13853625Y-15142439D01*
X13853625Y-15142439D02*
X13853625Y-15161487D01*
X13853625Y-15161487D02*
X13844101Y-15190058D01*
X13844101Y-15190058D02*
X13729816Y-15304344D01*
X13729816Y-15304344D02*
X13853625Y-15304344D01*
X14091720Y-15304344D02*
X14091720Y-15104344D01*
X14177435Y-15304344D02*
X14177435Y-15199582D01*
X14177435Y-15199582D02*
X14167911Y-15180534D01*
X14167911Y-15180534D02*
X14148863Y-15171010D01*
X14148863Y-15171010D02*
X14120292Y-15171010D01*
X14120292Y-15171010D02*
X14101244Y-15180534D01*
X14101244Y-15180534D02*
X14091720Y-15190058D01*
X14301244Y-15304344D02*
X14282197Y-15294820D01*
X14282197Y-15294820D02*
X14272673Y-15285296D01*
X14272673Y-15285296D02*
X14263149Y-15266248D01*
X14263149Y-15266248D02*
X14263149Y-15209106D01*
X14263149Y-15209106D02*
X14272673Y-15190058D01*
X14272673Y-15190058D02*
X14282197Y-15180534D01*
X14282197Y-15180534D02*
X14301244Y-15171010D01*
X14301244Y-15171010D02*
X14329816Y-15171010D01*
X14329816Y-15171010D02*
X14348863Y-15180534D01*
X14348863Y-15180534D02*
X14358387Y-15190058D01*
X14358387Y-15190058D02*
X14367911Y-15209106D01*
X14367911Y-15209106D02*
X14367911Y-15266248D01*
X14367911Y-15266248D02*
X14358387Y-15285296D01*
X14358387Y-15285296D02*
X14348863Y-15294820D01*
X14348863Y-15294820D02*
X14329816Y-15304344D01*
X14329816Y-15304344D02*
X14301244Y-15304344D01*
X14482197Y-15304344D02*
X14463149Y-15294820D01*
X14463149Y-15294820D02*
X14453625Y-15275772D01*
X14453625Y-15275772D02*
X14453625Y-15104344D01*
X14634578Y-15294820D02*
X14615530Y-15304344D01*
X14615530Y-15304344D02*
X14577435Y-15304344D01*
X14577435Y-15304344D02*
X14558387Y-15294820D01*
X14558387Y-15294820D02*
X14548863Y-15275772D01*
X14548863Y-15275772D02*
X14548863Y-15199582D01*
X14548863Y-15199582D02*
X14558387Y-15180534D01*
X14558387Y-15180534D02*
X14577435Y-15171010D01*
X14577435Y-15171010D02*
X14615530Y-15171010D01*
X14615530Y-15171010D02*
X14634578Y-15180534D01*
X14634578Y-15180534D02*
X14644101Y-15199582D01*
X14644101Y-15199582D02*
X14644101Y-15218629D01*
X14644101Y-15218629D02*
X14548863Y-15237677D01*
X14720292Y-15294820D02*
X14739340Y-15304344D01*
X14739340Y-15304344D02*
X14777435Y-15304344D01*
X14777435Y-15304344D02*
X14796482Y-15294820D01*
X14796482Y-15294820D02*
X14806006Y-15275772D01*
X14806006Y-15275772D02*
X14806006Y-15266248D01*
X14806006Y-15266248D02*
X14796482Y-15247201D01*
X14796482Y-15247201D02*
X14777435Y-15237677D01*
X14777435Y-15237677D02*
X14748863Y-15237677D01*
X14748863Y-15237677D02*
X14729816Y-15228153D01*
X14729816Y-15228153D02*
X14720292Y-15209106D01*
X14720292Y-15209106D02*
X14720292Y-15199582D01*
X14720292Y-15199582D02*
X14729816Y-15180534D01*
X14729816Y-15180534D02*
X14748863Y-15171010D01*
X14748863Y-15171010D02*
X14777435Y-15171010D01*
X14777435Y-15171010D02*
X14796482Y-15180534D01*
X14872673Y-15380534D02*
X14882197Y-15371010D01*
X14882197Y-15371010D02*
X14901244Y-15342439D01*
X14901244Y-15342439D02*
X14910768Y-15323391D01*
X14910768Y-15323391D02*
X14920292Y-15294820D01*
X14920292Y-15294820D02*
X14929816Y-15247201D01*
X14929816Y-15247201D02*
X14929816Y-15209106D01*
X14929816Y-15209106D02*
X14920292Y-15161487D01*
X14920292Y-15161487D02*
X14910768Y-15132915D01*
X14910768Y-15132915D02*
X14901244Y-15113868D01*
X14901244Y-15113868D02*
X14882197Y-15085296D01*
X14882197Y-15085296D02*
X14872673Y-15075772D01*
X15234578Y-15380534D02*
X15225054Y-15371010D01*
X15225054Y-15371010D02*
X15206006Y-15342439D01*
X15206006Y-15342439D02*
X15196482Y-15323391D01*
X15196482Y-15323391D02*
X15186959Y-15294820D01*
X15186959Y-15294820D02*
X15177435Y-15247201D01*
X15177435Y-15247201D02*
X15177435Y-15209106D01*
X15177435Y-15209106D02*
X15186959Y-15161487D01*
X15186959Y-15161487D02*
X15196482Y-15132915D01*
X15196482Y-15132915D02*
X15206006Y-15113868D01*
X15206006Y-15113868D02*
X15225054Y-15085296D01*
X15225054Y-15085296D02*
X15234578Y-15075772D01*
X15310768Y-15171010D02*
X15310768Y-15304344D01*
X15310768Y-15190058D02*
X15320292Y-15180534D01*
X15320292Y-15180534D02*
X15339340Y-15171010D01*
X15339340Y-15171010D02*
X15367911Y-15171010D01*
X15367911Y-15171010D02*
X15386959Y-15180534D01*
X15386959Y-15180534D02*
X15396482Y-15199582D01*
X15396482Y-15199582D02*
X15396482Y-15304344D01*
X15520292Y-15304344D02*
X15501244Y-15294820D01*
X15501244Y-15294820D02*
X15491721Y-15285296D01*
X15491721Y-15285296D02*
X15482197Y-15266248D01*
X15482197Y-15266248D02*
X15482197Y-15209106D01*
X15482197Y-15209106D02*
X15491721Y-15190058D01*
X15491721Y-15190058D02*
X15501244Y-15180534D01*
X15501244Y-15180534D02*
X15520292Y-15171010D01*
X15520292Y-15171010D02*
X15548863Y-15171010D01*
X15548863Y-15171010D02*
X15567911Y-15180534D01*
X15567911Y-15180534D02*
X15577435Y-15190058D01*
X15577435Y-15190058D02*
X15586959Y-15209106D01*
X15586959Y-15209106D02*
X15586959Y-15266248D01*
X15586959Y-15266248D02*
X15577435Y-15285296D01*
X15577435Y-15285296D02*
X15567911Y-15294820D01*
X15567911Y-15294820D02*
X15548863Y-15304344D01*
X15548863Y-15304344D02*
X15520292Y-15304344D01*
X15644102Y-15171010D02*
X15720292Y-15171010D01*
X15672673Y-15104344D02*
X15672673Y-15275772D01*
X15672673Y-15275772D02*
X15682197Y-15294820D01*
X15682197Y-15294820D02*
X15701244Y-15304344D01*
X15701244Y-15304344D02*
X15720292Y-15304344D01*
X15939340Y-15171010D02*
X15939340Y-15371010D01*
X15939340Y-15180534D02*
X15958387Y-15171010D01*
X15958387Y-15171010D02*
X15996483Y-15171010D01*
X15996483Y-15171010D02*
X16015530Y-15180534D01*
X16015530Y-15180534D02*
X16025054Y-15190058D01*
X16025054Y-15190058D02*
X16034578Y-15209106D01*
X16034578Y-15209106D02*
X16034578Y-15266248D01*
X16034578Y-15266248D02*
X16025054Y-15285296D01*
X16025054Y-15285296D02*
X16015530Y-15294820D01*
X16015530Y-15294820D02*
X15996483Y-15304344D01*
X15996483Y-15304344D02*
X15958387Y-15304344D01*
X15958387Y-15304344D02*
X15939340Y-15294820D01*
X16148863Y-15304344D02*
X16129816Y-15294820D01*
X16129816Y-15294820D02*
X16120292Y-15275772D01*
X16120292Y-15275772D02*
X16120292Y-15104344D01*
X16310768Y-15304344D02*
X16310768Y-15199582D01*
X16310768Y-15199582D02*
X16301244Y-15180534D01*
X16301244Y-15180534D02*
X16282197Y-15171010D01*
X16282197Y-15171010D02*
X16244102Y-15171010D01*
X16244102Y-15171010D02*
X16225054Y-15180534D01*
X16310768Y-15294820D02*
X16291721Y-15304344D01*
X16291721Y-15304344D02*
X16244102Y-15304344D01*
X16244102Y-15304344D02*
X16225054Y-15294820D01*
X16225054Y-15294820D02*
X16215530Y-15275772D01*
X16215530Y-15275772D02*
X16215530Y-15256725D01*
X16215530Y-15256725D02*
X16225054Y-15237677D01*
X16225054Y-15237677D02*
X16244102Y-15228153D01*
X16244102Y-15228153D02*
X16291721Y-15228153D01*
X16291721Y-15228153D02*
X16310768Y-15218629D01*
X16377435Y-15171010D02*
X16453625Y-15171010D01*
X16406006Y-15104344D02*
X16406006Y-15275772D01*
X16406006Y-15275772D02*
X16415530Y-15294820D01*
X16415530Y-15294820D02*
X16434578Y-15304344D01*
X16434578Y-15304344D02*
X16453625Y-15304344D01*
X16596483Y-15294820D02*
X16577435Y-15304344D01*
X16577435Y-15304344D02*
X16539340Y-15304344D01*
X16539340Y-15304344D02*
X16520292Y-15294820D01*
X16520292Y-15294820D02*
X16510768Y-15275772D01*
X16510768Y-15275772D02*
X16510768Y-15199582D01*
X16510768Y-15199582D02*
X16520292Y-15180534D01*
X16520292Y-15180534D02*
X16539340Y-15171010D01*
X16539340Y-15171010D02*
X16577435Y-15171010D01*
X16577435Y-15171010D02*
X16596483Y-15180534D01*
X16596483Y-15180534D02*
X16606006Y-15199582D01*
X16606006Y-15199582D02*
X16606006Y-15218629D01*
X16606006Y-15218629D02*
X16510768Y-15237677D01*
X16777435Y-15304344D02*
X16777435Y-15104344D01*
X16777435Y-15294820D02*
X16758387Y-15304344D01*
X16758387Y-15304344D02*
X16720292Y-15304344D01*
X16720292Y-15304344D02*
X16701244Y-15294820D01*
X16701244Y-15294820D02*
X16691721Y-15285296D01*
X16691721Y-15285296D02*
X16682197Y-15266248D01*
X16682197Y-15266248D02*
X16682197Y-15209106D01*
X16682197Y-15209106D02*
X16691721Y-15190058D01*
X16691721Y-15190058D02*
X16701244Y-15180534D01*
X16701244Y-15180534D02*
X16720292Y-15171010D01*
X16720292Y-15171010D02*
X16758387Y-15171010D01*
X16758387Y-15171010D02*
X16777435Y-15180534D01*
X16853626Y-15380534D02*
X16863149Y-15371010D01*
X16863149Y-15371010D02*
X16882197Y-15342439D01*
X16882197Y-15342439D02*
X16891721Y-15323391D01*
X16891721Y-15323391D02*
X16901245Y-15294820D01*
X16901245Y-15294820D02*
X16910768Y-15247201D01*
X16910768Y-15247201D02*
X16910768Y-15209106D01*
X16910768Y-15209106D02*
X16901245Y-15161487D01*
X16901245Y-15161487D02*
X16891721Y-15132915D01*
X16891721Y-15132915D02*
X16882197Y-15113868D01*
X16882197Y-15113868D02*
X16863149Y-15085296D01*
X16863149Y-15085296D02*
X16853626Y-15075772D01*
X9997610Y-15412860D02*
X9997610Y-15612860D01*
X9897610Y-15512860D02*
X10097610Y-15512860D01*
X10339339Y-15404344D02*
X10463149Y-15404344D01*
X10463149Y-15404344D02*
X10396482Y-15480534D01*
X10396482Y-15480534D02*
X10425054Y-15480534D01*
X10425054Y-15480534D02*
X10444101Y-15490058D01*
X10444101Y-15490058D02*
X10453625Y-15499582D01*
X10453625Y-15499582D02*
X10463149Y-15518629D01*
X10463149Y-15518629D02*
X10463149Y-15566248D01*
X10463149Y-15566248D02*
X10453625Y-15585296D01*
X10453625Y-15585296D02*
X10444101Y-15594820D01*
X10444101Y-15594820D02*
X10425054Y-15604344D01*
X10425054Y-15604344D02*
X10367911Y-15604344D01*
X10367911Y-15604344D02*
X10348863Y-15594820D01*
X10348863Y-15594820D02*
X10339339Y-15585296D01*
X10548863Y-15585296D02*
X10558387Y-15594820D01*
X10558387Y-15594820D02*
X10548863Y-15604344D01*
X10548863Y-15604344D02*
X10539339Y-15594820D01*
X10539339Y-15594820D02*
X10548863Y-15585296D01*
X10548863Y-15585296D02*
X10548863Y-15604344D01*
X10739339Y-15404344D02*
X10644101Y-15404344D01*
X10644101Y-15404344D02*
X10634577Y-15499582D01*
X10634577Y-15499582D02*
X10644101Y-15490058D01*
X10644101Y-15490058D02*
X10663149Y-15480534D01*
X10663149Y-15480534D02*
X10710768Y-15480534D01*
X10710768Y-15480534D02*
X10729815Y-15490058D01*
X10729815Y-15490058D02*
X10739339Y-15499582D01*
X10739339Y-15499582D02*
X10748863Y-15518629D01*
X10748863Y-15518629D02*
X10748863Y-15566248D01*
X10748863Y-15566248D02*
X10739339Y-15585296D01*
X10739339Y-15585296D02*
X10729815Y-15594820D01*
X10729815Y-15594820D02*
X10710768Y-15604344D01*
X10710768Y-15604344D02*
X10663149Y-15604344D01*
X10663149Y-15604344D02*
X10644101Y-15594820D01*
X10644101Y-15594820D02*
X10634577Y-15585296D01*
X10872673Y-15404344D02*
X10891720Y-15404344D01*
X10891720Y-15404344D02*
X10910768Y-15413868D01*
X10910768Y-15413868D02*
X10920292Y-15423391D01*
X10920292Y-15423391D02*
X10929815Y-15442439D01*
X10929815Y-15442439D02*
X10939339Y-15480534D01*
X10939339Y-15480534D02*
X10939339Y-15528153D01*
X10939339Y-15528153D02*
X10929815Y-15566248D01*
X10929815Y-15566248D02*
X10920292Y-15585296D01*
X10920292Y-15585296D02*
X10910768Y-15594820D01*
X10910768Y-15594820D02*
X10891720Y-15604344D01*
X10891720Y-15604344D02*
X10872673Y-15604344D01*
X10872673Y-15604344D02*
X10853625Y-15594820D01*
X10853625Y-15594820D02*
X10844101Y-15585296D01*
X10844101Y-15585296D02*
X10834577Y-15566248D01*
X10834577Y-15566248D02*
X10825054Y-15528153D01*
X10825054Y-15528153D02*
X10825054Y-15480534D01*
X10825054Y-15480534D02*
X10834577Y-15442439D01*
X10834577Y-15442439D02*
X10844101Y-15423391D01*
X10844101Y-15423391D02*
X10853625Y-15413868D01*
X10853625Y-15413868D02*
X10872673Y-15404344D01*
X11063149Y-15404344D02*
X11082196Y-15404344D01*
X11082196Y-15404344D02*
X11101244Y-15413868D01*
X11101244Y-15413868D02*
X11110768Y-15423391D01*
X11110768Y-15423391D02*
X11120292Y-15442439D01*
X11120292Y-15442439D02*
X11129815Y-15480534D01*
X11129815Y-15480534D02*
X11129815Y-15528153D01*
X11129815Y-15528153D02*
X11120292Y-15566248D01*
X11120292Y-15566248D02*
X11110768Y-15585296D01*
X11110768Y-15585296D02*
X11101244Y-15594820D01*
X11101244Y-15594820D02*
X11082196Y-15604344D01*
X11082196Y-15604344D02*
X11063149Y-15604344D01*
X11063149Y-15604344D02*
X11044101Y-15594820D01*
X11044101Y-15594820D02*
X11034577Y-15585296D01*
X11034577Y-15585296D02*
X11025054Y-15566248D01*
X11025054Y-15566248D02*
X11015530Y-15528153D01*
X11015530Y-15528153D02*
X11015530Y-15480534D01*
X11015530Y-15480534D02*
X11025054Y-15442439D01*
X11025054Y-15442439D02*
X11034577Y-15423391D01*
X11034577Y-15423391D02*
X11044101Y-15413868D01*
X11044101Y-15413868D02*
X11063149Y-15404344D01*
X11215530Y-15604344D02*
X11215530Y-15471010D01*
X11215530Y-15490058D02*
X11225053Y-15480534D01*
X11225053Y-15480534D02*
X11244101Y-15471010D01*
X11244101Y-15471010D02*
X11272673Y-15471010D01*
X11272673Y-15471010D02*
X11291720Y-15480534D01*
X11291720Y-15480534D02*
X11301244Y-15499582D01*
X11301244Y-15499582D02*
X11301244Y-15604344D01*
X11301244Y-15499582D02*
X11310768Y-15480534D01*
X11310768Y-15480534D02*
X11329815Y-15471010D01*
X11329815Y-15471010D02*
X11358387Y-15471010D01*
X11358387Y-15471010D02*
X11377434Y-15480534D01*
X11377434Y-15480534D02*
X11386958Y-15499582D01*
X11386958Y-15499582D02*
X11386958Y-15604344D01*
X11482196Y-15604344D02*
X11482196Y-15471010D01*
X11482196Y-15490058D02*
X11491720Y-15480534D01*
X11491720Y-15480534D02*
X11510768Y-15471010D01*
X11510768Y-15471010D02*
X11539339Y-15471010D01*
X11539339Y-15471010D02*
X11558387Y-15480534D01*
X11558387Y-15480534D02*
X11567911Y-15499582D01*
X11567911Y-15499582D02*
X11567911Y-15604344D01*
X11567911Y-15499582D02*
X11577434Y-15480534D01*
X11577434Y-15480534D02*
X11596482Y-15471010D01*
X11596482Y-15471010D02*
X11625053Y-15471010D01*
X11625053Y-15471010D02*
X11644101Y-15480534D01*
X11644101Y-15480534D02*
X11653625Y-15499582D01*
X11653625Y-15499582D02*
X11653625Y-15604344D01*
X12044101Y-15394820D02*
X11872673Y-15651963D01*
X12301244Y-15404344D02*
X12320292Y-15404344D01*
X12320292Y-15404344D02*
X12339339Y-15413868D01*
X12339339Y-15413868D02*
X12348863Y-15423391D01*
X12348863Y-15423391D02*
X12358387Y-15442439D01*
X12358387Y-15442439D02*
X12367911Y-15480534D01*
X12367911Y-15480534D02*
X12367911Y-15528153D01*
X12367911Y-15528153D02*
X12358387Y-15566248D01*
X12358387Y-15566248D02*
X12348863Y-15585296D01*
X12348863Y-15585296D02*
X12339339Y-15594820D01*
X12339339Y-15594820D02*
X12320292Y-15604344D01*
X12320292Y-15604344D02*
X12301244Y-15604344D01*
X12301244Y-15604344D02*
X12282196Y-15594820D01*
X12282196Y-15594820D02*
X12272673Y-15585296D01*
X12272673Y-15585296D02*
X12263149Y-15566248D01*
X12263149Y-15566248D02*
X12253625Y-15528153D01*
X12253625Y-15528153D02*
X12253625Y-15480534D01*
X12253625Y-15480534D02*
X12263149Y-15442439D01*
X12263149Y-15442439D02*
X12272673Y-15423391D01*
X12272673Y-15423391D02*
X12282196Y-15413868D01*
X12282196Y-15413868D02*
X12301244Y-15404344D01*
X12453625Y-15585296D02*
X12463149Y-15594820D01*
X12463149Y-15594820D02*
X12453625Y-15604344D01*
X12453625Y-15604344D02*
X12444101Y-15594820D01*
X12444101Y-15594820D02*
X12453625Y-15585296D01*
X12453625Y-15585296D02*
X12453625Y-15604344D01*
X12653625Y-15604344D02*
X12539339Y-15604344D01*
X12596482Y-15604344D02*
X12596482Y-15404344D01*
X12596482Y-15404344D02*
X12577435Y-15432915D01*
X12577435Y-15432915D02*
X12558387Y-15451963D01*
X12558387Y-15451963D02*
X12539339Y-15461487D01*
X12720292Y-15404344D02*
X12844101Y-15404344D01*
X12844101Y-15404344D02*
X12777435Y-15480534D01*
X12777435Y-15480534D02*
X12806006Y-15480534D01*
X12806006Y-15480534D02*
X12825054Y-15490058D01*
X12825054Y-15490058D02*
X12834577Y-15499582D01*
X12834577Y-15499582D02*
X12844101Y-15518629D01*
X12844101Y-15518629D02*
X12844101Y-15566248D01*
X12844101Y-15566248D02*
X12834577Y-15585296D01*
X12834577Y-15585296D02*
X12825054Y-15594820D01*
X12825054Y-15594820D02*
X12806006Y-15604344D01*
X12806006Y-15604344D02*
X12748863Y-15604344D01*
X12748863Y-15604344D02*
X12729816Y-15594820D01*
X12729816Y-15594820D02*
X12720292Y-15585296D01*
X12910768Y-15404344D02*
X13044101Y-15404344D01*
X13044101Y-15404344D02*
X12958387Y-15604344D01*
X13148863Y-15490058D02*
X13129816Y-15480534D01*
X13129816Y-15480534D02*
X13120292Y-15471010D01*
X13120292Y-15471010D02*
X13110768Y-15451963D01*
X13110768Y-15451963D02*
X13110768Y-15442439D01*
X13110768Y-15442439D02*
X13120292Y-15423391D01*
X13120292Y-15423391D02*
X13129816Y-15413868D01*
X13129816Y-15413868D02*
X13148863Y-15404344D01*
X13148863Y-15404344D02*
X13186958Y-15404344D01*
X13186958Y-15404344D02*
X13206006Y-15413868D01*
X13206006Y-15413868D02*
X13215530Y-15423391D01*
X13215530Y-15423391D02*
X13225054Y-15442439D01*
X13225054Y-15442439D02*
X13225054Y-15451963D01*
X13225054Y-15451963D02*
X13215530Y-15471010D01*
X13215530Y-15471010D02*
X13206006Y-15480534D01*
X13206006Y-15480534D02*
X13186958Y-15490058D01*
X13186958Y-15490058D02*
X13148863Y-15490058D01*
X13148863Y-15490058D02*
X13129816Y-15499582D01*
X13129816Y-15499582D02*
X13120292Y-15509106D01*
X13120292Y-15509106D02*
X13110768Y-15528153D01*
X13110768Y-15528153D02*
X13110768Y-15566248D01*
X13110768Y-15566248D02*
X13120292Y-15585296D01*
X13120292Y-15585296D02*
X13129816Y-15594820D01*
X13129816Y-15594820D02*
X13148863Y-15604344D01*
X13148863Y-15604344D02*
X13186958Y-15604344D01*
X13186958Y-15604344D02*
X13206006Y-15594820D01*
X13206006Y-15594820D02*
X13215530Y-15585296D01*
X13215530Y-15585296D02*
X13225054Y-15566248D01*
X13225054Y-15566248D02*
X13225054Y-15528153D01*
X13225054Y-15528153D02*
X13215530Y-15509106D01*
X13215530Y-15509106D02*
X13206006Y-15499582D01*
X13206006Y-15499582D02*
X13186958Y-15490058D01*
X13301244Y-15404344D02*
X13301244Y-15442439D01*
X13377435Y-15404344D02*
X13377435Y-15442439D01*
X13672673Y-15680534D02*
X13663149Y-15671010D01*
X13663149Y-15671010D02*
X13644101Y-15642439D01*
X13644101Y-15642439D02*
X13634578Y-15623391D01*
X13634578Y-15623391D02*
X13625054Y-15594820D01*
X13625054Y-15594820D02*
X13615530Y-15547201D01*
X13615530Y-15547201D02*
X13615530Y-15509106D01*
X13615530Y-15509106D02*
X13625054Y-15461487D01*
X13625054Y-15461487D02*
X13634578Y-15432915D01*
X13634578Y-15432915D02*
X13644101Y-15413868D01*
X13644101Y-15413868D02*
X13663149Y-15385296D01*
X13663149Y-15385296D02*
X13672673Y-15375772D01*
X13729816Y-15404344D02*
X13853625Y-15404344D01*
X13853625Y-15404344D02*
X13786958Y-15480534D01*
X13786958Y-15480534D02*
X13815530Y-15480534D01*
X13815530Y-15480534D02*
X13834578Y-15490058D01*
X13834578Y-15490058D02*
X13844101Y-15499582D01*
X13844101Y-15499582D02*
X13853625Y-15518629D01*
X13853625Y-15518629D02*
X13853625Y-15566248D01*
X13853625Y-15566248D02*
X13844101Y-15585296D01*
X13844101Y-15585296D02*
X13834578Y-15594820D01*
X13834578Y-15594820D02*
X13815530Y-15604344D01*
X13815530Y-15604344D02*
X13758387Y-15604344D01*
X13758387Y-15604344D02*
X13739339Y-15594820D01*
X13739339Y-15594820D02*
X13729816Y-15585296D01*
X14091720Y-15604344D02*
X14091720Y-15404344D01*
X14177435Y-15604344D02*
X14177435Y-15499582D01*
X14177435Y-15499582D02*
X14167911Y-15480534D01*
X14167911Y-15480534D02*
X14148863Y-15471010D01*
X14148863Y-15471010D02*
X14120292Y-15471010D01*
X14120292Y-15471010D02*
X14101244Y-15480534D01*
X14101244Y-15480534D02*
X14091720Y-15490058D01*
X14301244Y-15604344D02*
X14282197Y-15594820D01*
X14282197Y-15594820D02*
X14272673Y-15585296D01*
X14272673Y-15585296D02*
X14263149Y-15566248D01*
X14263149Y-15566248D02*
X14263149Y-15509106D01*
X14263149Y-15509106D02*
X14272673Y-15490058D01*
X14272673Y-15490058D02*
X14282197Y-15480534D01*
X14282197Y-15480534D02*
X14301244Y-15471010D01*
X14301244Y-15471010D02*
X14329816Y-15471010D01*
X14329816Y-15471010D02*
X14348863Y-15480534D01*
X14348863Y-15480534D02*
X14358387Y-15490058D01*
X14358387Y-15490058D02*
X14367911Y-15509106D01*
X14367911Y-15509106D02*
X14367911Y-15566248D01*
X14367911Y-15566248D02*
X14358387Y-15585296D01*
X14358387Y-15585296D02*
X14348863Y-15594820D01*
X14348863Y-15594820D02*
X14329816Y-15604344D01*
X14329816Y-15604344D02*
X14301244Y-15604344D01*
X14482197Y-15604344D02*
X14463149Y-15594820D01*
X14463149Y-15594820D02*
X14453625Y-15575772D01*
X14453625Y-15575772D02*
X14453625Y-15404344D01*
X14634578Y-15594820D02*
X14615530Y-15604344D01*
X14615530Y-15604344D02*
X14577435Y-15604344D01*
X14577435Y-15604344D02*
X14558387Y-15594820D01*
X14558387Y-15594820D02*
X14548863Y-15575772D01*
X14548863Y-15575772D02*
X14548863Y-15499582D01*
X14548863Y-15499582D02*
X14558387Y-15480534D01*
X14558387Y-15480534D02*
X14577435Y-15471010D01*
X14577435Y-15471010D02*
X14615530Y-15471010D01*
X14615530Y-15471010D02*
X14634578Y-15480534D01*
X14634578Y-15480534D02*
X14644101Y-15499582D01*
X14644101Y-15499582D02*
X14644101Y-15518629D01*
X14644101Y-15518629D02*
X14548863Y-15537677D01*
X14720292Y-15594820D02*
X14739340Y-15604344D01*
X14739340Y-15604344D02*
X14777435Y-15604344D01*
X14777435Y-15604344D02*
X14796482Y-15594820D01*
X14796482Y-15594820D02*
X14806006Y-15575772D01*
X14806006Y-15575772D02*
X14806006Y-15566248D01*
X14806006Y-15566248D02*
X14796482Y-15547201D01*
X14796482Y-15547201D02*
X14777435Y-15537677D01*
X14777435Y-15537677D02*
X14748863Y-15537677D01*
X14748863Y-15537677D02*
X14729816Y-15528153D01*
X14729816Y-15528153D02*
X14720292Y-15509106D01*
X14720292Y-15509106D02*
X14720292Y-15499582D01*
X14720292Y-15499582D02*
X14729816Y-15480534D01*
X14729816Y-15480534D02*
X14748863Y-15471010D01*
X14748863Y-15471010D02*
X14777435Y-15471010D01*
X14777435Y-15471010D02*
X14796482Y-15480534D01*
X14872673Y-15680534D02*
X14882197Y-15671010D01*
X14882197Y-15671010D02*
X14901244Y-15642439D01*
X14901244Y-15642439D02*
X14910768Y-15623391D01*
X14910768Y-15623391D02*
X14920292Y-15594820D01*
X14920292Y-15594820D02*
X14929816Y-15547201D01*
X14929816Y-15547201D02*
X14929816Y-15509106D01*
X14929816Y-15509106D02*
X14920292Y-15461487D01*
X14920292Y-15461487D02*
X14910768Y-15432915D01*
X14910768Y-15432915D02*
X14901244Y-15413868D01*
X14901244Y-15413868D02*
X14882197Y-15385296D01*
X14882197Y-15385296D02*
X14872673Y-15375772D01*
X15234578Y-15680534D02*
X15225054Y-15671010D01*
X15225054Y-15671010D02*
X15206006Y-15642439D01*
X15206006Y-15642439D02*
X15196482Y-15623391D01*
X15196482Y-15623391D02*
X15186959Y-15594820D01*
X15186959Y-15594820D02*
X15177435Y-15547201D01*
X15177435Y-15547201D02*
X15177435Y-15509106D01*
X15177435Y-15509106D02*
X15186959Y-15461487D01*
X15186959Y-15461487D02*
X15196482Y-15432915D01*
X15196482Y-15432915D02*
X15206006Y-15413868D01*
X15206006Y-15413868D02*
X15225054Y-15385296D01*
X15225054Y-15385296D02*
X15234578Y-15375772D01*
X15310768Y-15471010D02*
X15310768Y-15604344D01*
X15310768Y-15490058D02*
X15320292Y-15480534D01*
X15320292Y-15480534D02*
X15339340Y-15471010D01*
X15339340Y-15471010D02*
X15367911Y-15471010D01*
X15367911Y-15471010D02*
X15386959Y-15480534D01*
X15386959Y-15480534D02*
X15396482Y-15499582D01*
X15396482Y-15499582D02*
X15396482Y-15604344D01*
X15520292Y-15604344D02*
X15501244Y-15594820D01*
X15501244Y-15594820D02*
X15491721Y-15585296D01*
X15491721Y-15585296D02*
X15482197Y-15566248D01*
X15482197Y-15566248D02*
X15482197Y-15509106D01*
X15482197Y-15509106D02*
X15491721Y-15490058D01*
X15491721Y-15490058D02*
X15501244Y-15480534D01*
X15501244Y-15480534D02*
X15520292Y-15471010D01*
X15520292Y-15471010D02*
X15548863Y-15471010D01*
X15548863Y-15471010D02*
X15567911Y-15480534D01*
X15567911Y-15480534D02*
X15577435Y-15490058D01*
X15577435Y-15490058D02*
X15586959Y-15509106D01*
X15586959Y-15509106D02*
X15586959Y-15566248D01*
X15586959Y-15566248D02*
X15577435Y-15585296D01*
X15577435Y-15585296D02*
X15567911Y-15594820D01*
X15567911Y-15594820D02*
X15548863Y-15604344D01*
X15548863Y-15604344D02*
X15520292Y-15604344D01*
X15644102Y-15471010D02*
X15720292Y-15471010D01*
X15672673Y-15404344D02*
X15672673Y-15575772D01*
X15672673Y-15575772D02*
X15682197Y-15594820D01*
X15682197Y-15594820D02*
X15701244Y-15604344D01*
X15701244Y-15604344D02*
X15720292Y-15604344D01*
X15939340Y-15471010D02*
X15939340Y-15671010D01*
X15939340Y-15480534D02*
X15958387Y-15471010D01*
X15958387Y-15471010D02*
X15996483Y-15471010D01*
X15996483Y-15471010D02*
X16015530Y-15480534D01*
X16015530Y-15480534D02*
X16025054Y-15490058D01*
X16025054Y-15490058D02*
X16034578Y-15509106D01*
X16034578Y-15509106D02*
X16034578Y-15566248D01*
X16034578Y-15566248D02*
X16025054Y-15585296D01*
X16025054Y-15585296D02*
X16015530Y-15594820D01*
X16015530Y-15594820D02*
X15996483Y-15604344D01*
X15996483Y-15604344D02*
X15958387Y-15604344D01*
X15958387Y-15604344D02*
X15939340Y-15594820D01*
X16148863Y-15604344D02*
X16129816Y-15594820D01*
X16129816Y-15594820D02*
X16120292Y-15575772D01*
X16120292Y-15575772D02*
X16120292Y-15404344D01*
X16310768Y-15604344D02*
X16310768Y-15499582D01*
X16310768Y-15499582D02*
X16301244Y-15480534D01*
X16301244Y-15480534D02*
X16282197Y-15471010D01*
X16282197Y-15471010D02*
X16244102Y-15471010D01*
X16244102Y-15471010D02*
X16225054Y-15480534D01*
X16310768Y-15594820D02*
X16291721Y-15604344D01*
X16291721Y-15604344D02*
X16244102Y-15604344D01*
X16244102Y-15604344D02*
X16225054Y-15594820D01*
X16225054Y-15594820D02*
X16215530Y-15575772D01*
X16215530Y-15575772D02*
X16215530Y-15556725D01*
X16215530Y-15556725D02*
X16225054Y-15537677D01*
X16225054Y-15537677D02*
X16244102Y-15528153D01*
X16244102Y-15528153D02*
X16291721Y-15528153D01*
X16291721Y-15528153D02*
X16310768Y-15518629D01*
X16377435Y-15471010D02*
X16453625Y-15471010D01*
X16406006Y-15404344D02*
X16406006Y-15575772D01*
X16406006Y-15575772D02*
X16415530Y-15594820D01*
X16415530Y-15594820D02*
X16434578Y-15604344D01*
X16434578Y-15604344D02*
X16453625Y-15604344D01*
X16596483Y-15594820D02*
X16577435Y-15604344D01*
X16577435Y-15604344D02*
X16539340Y-15604344D01*
X16539340Y-15604344D02*
X16520292Y-15594820D01*
X16520292Y-15594820D02*
X16510768Y-15575772D01*
X16510768Y-15575772D02*
X16510768Y-15499582D01*
X16510768Y-15499582D02*
X16520292Y-15480534D01*
X16520292Y-15480534D02*
X16539340Y-15471010D01*
X16539340Y-15471010D02*
X16577435Y-15471010D01*
X16577435Y-15471010D02*
X16596483Y-15480534D01*
X16596483Y-15480534D02*
X16606006Y-15499582D01*
X16606006Y-15499582D02*
X16606006Y-15518629D01*
X16606006Y-15518629D02*
X16510768Y-15537677D01*
X16777435Y-15604344D02*
X16777435Y-15404344D01*
X16777435Y-15594820D02*
X16758387Y-15604344D01*
X16758387Y-15604344D02*
X16720292Y-15604344D01*
X16720292Y-15604344D02*
X16701244Y-15594820D01*
X16701244Y-15594820D02*
X16691721Y-15585296D01*
X16691721Y-15585296D02*
X16682197Y-15566248D01*
X16682197Y-15566248D02*
X16682197Y-15509106D01*
X16682197Y-15509106D02*
X16691721Y-15490058D01*
X16691721Y-15490058D02*
X16701244Y-15480534D01*
X16701244Y-15480534D02*
X16720292Y-15471010D01*
X16720292Y-15471010D02*
X16758387Y-15471010D01*
X16758387Y-15471010D02*
X16777435Y-15480534D01*
X16853626Y-15680534D02*
X16863149Y-15671010D01*
X16863149Y-15671010D02*
X16882197Y-15642439D01*
X16882197Y-15642439D02*
X16891721Y-15623391D01*
X16891721Y-15623391D02*
X16901245Y-15594820D01*
X16901245Y-15594820D02*
X16910768Y-15547201D01*
X16910768Y-15547201D02*
X16910768Y-15509106D01*
X16910768Y-15509106D02*
X16901245Y-15461487D01*
X16901245Y-15461487D02*
X16891721Y-15432915D01*
X16891721Y-15432915D02*
X16882197Y-15413868D01*
X16882197Y-15413868D02*
X16863149Y-15385296D01*
X16863149Y-15385296D02*
X16853626Y-15375772D01*
M02*
