%TF.GenerationSoftware,KiCad,Pcbnew,9.0.3*%
%TF.CreationDate,2025-11-15T15:11:05-05:00*%
%TF.ProjectId,StinkyController 1,5374696e-6b79-4436-9f6e-74726f6c6c65,rev?*%
%TF.SameCoordinates,Original*%
%TF.FileFunction,Drillmap*%
%TF.FilePolarity,Positive*%
%FSLAX45Y45*%
G04 Gerber Fmt 4.5, Leading zero omitted, Abs format (unit mm)*
G04 Created by KiCad (PCBNEW 9.0.3) date 2025-11-15 15:11:05*
%MOMM*%
%LPD*%
G01*
G04 APERTURE LIST*
%ADD10C,0.050000*%
%ADD11C,0.200000*%
%ADD12C,0.100000*%
%ADD13C,0.101600*%
%ADD14C,0.114300*%
%ADD15C,0.127000*%
%ADD16C,0.160000*%
%ADD17C,0.175000*%
G04 APERTURE END LIST*
D10*
X10100110Y-15000000D02*
X19600110Y-15000000D01*
X19600110Y-6700360D02*
X10100110Y-6700360D01*
X19600110Y-15000000D02*
X19600110Y-6700360D01*
X10100110Y-6700360D02*
X10100110Y-15000000D01*
D11*
D12*
X10680110Y-12030360D02*
X10720110Y-12070360D01*
X10720110Y-12030360D02*
X10680110Y-12070360D01*
X10680110Y-13480360D02*
X10720110Y-13520360D01*
X10720110Y-13480360D02*
X10680110Y-13520360D01*
X10830110Y-13480360D02*
X10870110Y-13520360D01*
X10870110Y-13480360D02*
X10830110Y-13520360D01*
X10880110Y-12030360D02*
X10920110Y-12070360D01*
X10920110Y-12030360D02*
X10880110Y-12070360D01*
X10930110Y-13200360D02*
X10970110Y-13240360D01*
X10970110Y-13200360D02*
X10930110Y-13240360D01*
X11030110Y-12080360D02*
X11070110Y-12120360D01*
X11070110Y-12080360D02*
X11030110Y-12120360D01*
X11480110Y-12080360D02*
X11520110Y-12120360D01*
X11520110Y-12080360D02*
X11480110Y-12120360D01*
X11490110Y-13500360D02*
X11530110Y-13540360D01*
X11530110Y-13500360D02*
X11490110Y-13540360D01*
X11630110Y-13500360D02*
X11670110Y-13540360D01*
X11670110Y-13500360D02*
X11630110Y-13540360D01*
X11680110Y-12080360D02*
X11720110Y-12120360D01*
X11720110Y-12080360D02*
X11680110Y-12120360D01*
X11720110Y-13200360D02*
X11760110Y-13240360D01*
X11760110Y-13200360D02*
X11720110Y-13240360D01*
X11780110Y-11980360D02*
X11820110Y-12020360D01*
X11820110Y-11980360D02*
X11780110Y-12020360D01*
X12280110Y-11980360D02*
X12320110Y-12020360D01*
X12320110Y-11980360D02*
X12280110Y-12020360D01*
X12290110Y-13510360D02*
X12330110Y-13550360D01*
X12330110Y-13510360D02*
X12290110Y-13550360D01*
X12430110Y-12030360D02*
X12470110Y-12070360D01*
X12470110Y-12030360D02*
X12430110Y-12070360D01*
X12440110Y-13530360D02*
X12480110Y-13570360D01*
X12480110Y-13530360D02*
X12440110Y-13570360D01*
X12520110Y-13200360D02*
X12560110Y-13240360D01*
X12560110Y-13200360D02*
X12520110Y-13240360D01*
X12680110Y-12080360D02*
X12720110Y-12120360D01*
X12720110Y-12080360D02*
X12680110Y-12120360D01*
X12880110Y-13210360D02*
X12920110Y-13250360D01*
X12920110Y-13210360D02*
X12880110Y-13250360D01*
X15050110Y-12760360D02*
X15090110Y-12800360D01*
X15090110Y-12760360D02*
X15050110Y-12800360D01*
X16580110Y-10580360D02*
X16620110Y-10620360D01*
X16620110Y-10580360D02*
X16580110Y-10620360D01*
X16680110Y-10880360D02*
X16720110Y-10920360D01*
X16720110Y-10880360D02*
X16680110Y-10920360D01*
X16780110Y-10080360D02*
X16820110Y-10120360D01*
X16820110Y-10080360D02*
X16780110Y-10120360D01*
X16880110Y-10380360D02*
X16920110Y-10420360D01*
X16920110Y-10380360D02*
X16880110Y-10420360D01*
X16940110Y-13480360D02*
X16980110Y-13520360D01*
X16980110Y-13480360D02*
X16940110Y-13520360D01*
X16980110Y-9380360D02*
X17020110Y-9420360D01*
X17020110Y-9380360D02*
X16980110Y-9420360D01*
X17080110Y-9580360D02*
X17120110Y-9620360D01*
X17120110Y-9580360D02*
X17080110Y-9620360D01*
X17090110Y-13470360D02*
X17130110Y-13510360D01*
X17130110Y-13470360D02*
X17090110Y-13510360D01*
X17180110Y-9480360D02*
X17220110Y-9520360D01*
X17220110Y-9480360D02*
X17180110Y-9520360D01*
X17280110Y-9380360D02*
X17320110Y-9420360D01*
X17320110Y-9380360D02*
X17280110Y-9420360D01*
X17380110Y-9280360D02*
X17420110Y-9320360D01*
X17420110Y-9280360D02*
X17380110Y-9320360D01*
X17380110Y-11800360D02*
X17420110Y-11840360D01*
X17420110Y-11800360D02*
X17380110Y-11840360D01*
X17400110Y-12600360D02*
X17440110Y-12640360D01*
X17440110Y-12600360D02*
X17400110Y-12640360D01*
X17480110Y-9180360D02*
X17520110Y-9220360D01*
X17520110Y-9180360D02*
X17480110Y-9220360D01*
X18700110Y-10960360D02*
X18740110Y-11000360D01*
X18740110Y-10960360D02*
X18700110Y-11000360D01*
X18700110Y-11580360D02*
X18740110Y-11620360D01*
X18740110Y-11580360D02*
X18700110Y-11620360D01*
X18980110Y-10960360D02*
X19020110Y-11000360D01*
X19020110Y-10960360D02*
X18980110Y-11000360D01*
X19000110Y-12380360D02*
X19040110Y-12420360D01*
X19040110Y-12380360D02*
X19000110Y-12420360D01*
X19280110Y-10980360D02*
X19320110Y-11020360D01*
X19320110Y-10980360D02*
X19280110Y-11020360D01*
X10375110Y-12650360D02*
G75*
G02*
X10325110Y-12650360I-25000J0D01*
G01*
X10325110Y-12650360D02*
G75*
G02*
X10375110Y-12650360I25000J0D01*
G01*
X10375110Y-13250360D02*
G75*
G02*
X10325110Y-13250360I-25000J0D01*
G01*
X10325110Y-13250360D02*
G75*
G02*
X10375110Y-13250360I25000J0D01*
G01*
X10425110Y-6900360D02*
G75*
G02*
X10375110Y-6900360I-25000J0D01*
G01*
X10375110Y-6900360D02*
G75*
G02*
X10425110Y-6900360I25000J0D01*
G01*
X10425110Y-7100360D02*
G75*
G02*
X10375110Y-7100360I-25000J0D01*
G01*
X10375110Y-7100360D02*
G75*
G02*
X10425110Y-7100360I25000J0D01*
G01*
X10425110Y-7300360D02*
G75*
G02*
X10375110Y-7300360I-25000J0D01*
G01*
X10375110Y-7300360D02*
G75*
G02*
X10425110Y-7300360I25000J0D01*
G01*
X10725110Y-14130360D02*
G75*
G02*
X10675110Y-14130360I-25000J0D01*
G01*
X10675110Y-14130360D02*
G75*
G02*
X10725110Y-14130360I25000J0D01*
G01*
X10825110Y-6900360D02*
G75*
G02*
X10775110Y-6900360I-25000J0D01*
G01*
X10775110Y-6900360D02*
G75*
G02*
X10825110Y-6900360I25000J0D01*
G01*
X10825110Y-7100360D02*
G75*
G02*
X10775110Y-7100360I-25000J0D01*
G01*
X10775110Y-7100360D02*
G75*
G02*
X10825110Y-7100360I25000J0D01*
G01*
X10825110Y-7300360D02*
G75*
G02*
X10775110Y-7300360I-25000J0D01*
G01*
X10775110Y-7300360D02*
G75*
G02*
X10825110Y-7300360I25000J0D01*
G01*
X10875110Y-13050360D02*
G75*
G02*
X10825110Y-13050360I-25000J0D01*
G01*
X10825110Y-13050360D02*
G75*
G02*
X10875110Y-13050360I25000J0D01*
G01*
X11225110Y-6900360D02*
G75*
G02*
X11175110Y-6900360I-25000J0D01*
G01*
X11175110Y-6900360D02*
G75*
G02*
X11225110Y-6900360I25000J0D01*
G01*
X11225110Y-7100360D02*
G75*
G02*
X11175110Y-7100360I-25000J0D01*
G01*
X11175110Y-7100360D02*
G75*
G02*
X11225110Y-7100360I25000J0D01*
G01*
X11225110Y-7300360D02*
G75*
G02*
X11175110Y-7300360I-25000J0D01*
G01*
X11175110Y-7300360D02*
G75*
G02*
X11225110Y-7300360I25000J0D01*
G01*
X11325110Y-12800360D02*
G75*
G02*
X11275110Y-12800360I-25000J0D01*
G01*
X11275110Y-12800360D02*
G75*
G02*
X11325110Y-12800360I25000J0D01*
G01*
X11675110Y-13050360D02*
G75*
G02*
X11625110Y-13050360I-25000J0D01*
G01*
X11625110Y-13050360D02*
G75*
G02*
X11675110Y-13050360I25000J0D01*
G01*
X11925110Y-6900360D02*
G75*
G02*
X11875110Y-6900360I-25000J0D01*
G01*
X11875110Y-6900360D02*
G75*
G02*
X11925110Y-6900360I25000J0D01*
G01*
X11925110Y-7100360D02*
G75*
G02*
X11875110Y-7100360I-25000J0D01*
G01*
X11875110Y-7100360D02*
G75*
G02*
X11925110Y-7100360I25000J0D01*
G01*
X11925110Y-7300360D02*
G75*
G02*
X11875110Y-7300360I-25000J0D01*
G01*
X11875110Y-7300360D02*
G75*
G02*
X11925110Y-7300360I25000J0D01*
G01*
X12125110Y-12800360D02*
G75*
G02*
X12075110Y-12800360I-25000J0D01*
G01*
X12075110Y-12800360D02*
G75*
G02*
X12125110Y-12800360I25000J0D01*
G01*
X12325110Y-6900360D02*
G75*
G02*
X12275110Y-6900360I-25000J0D01*
G01*
X12275110Y-6900360D02*
G75*
G02*
X12325110Y-6900360I25000J0D01*
G01*
X12325110Y-7100360D02*
G75*
G02*
X12275110Y-7100360I-25000J0D01*
G01*
X12275110Y-7100360D02*
G75*
G02*
X12325110Y-7100360I25000J0D01*
G01*
X12325110Y-7300360D02*
G75*
G02*
X12275110Y-7300360I-25000J0D01*
G01*
X12275110Y-7300360D02*
G75*
G02*
X12325110Y-7300360I25000J0D01*
G01*
X12475110Y-13050360D02*
G75*
G02*
X12425110Y-13050360I-25000J0D01*
G01*
X12425110Y-13050360D02*
G75*
G02*
X12475110Y-13050360I25000J0D01*
G01*
X12725110Y-6900360D02*
G75*
G02*
X12675110Y-6900360I-25000J0D01*
G01*
X12675110Y-6900360D02*
G75*
G02*
X12725110Y-6900360I25000J0D01*
G01*
X12725110Y-7100360D02*
G75*
G02*
X12675110Y-7100360I-25000J0D01*
G01*
X12675110Y-7100360D02*
G75*
G02*
X12725110Y-7100360I25000J0D01*
G01*
X12725110Y-7300360D02*
G75*
G02*
X12675110Y-7300360I-25000J0D01*
G01*
X12675110Y-7300360D02*
G75*
G02*
X12725110Y-7300360I25000J0D01*
G01*
X12975110Y-12150360D02*
G75*
G02*
X12925110Y-12150360I-25000J0D01*
G01*
X12925110Y-12150360D02*
G75*
G02*
X12975110Y-12150360I25000J0D01*
G01*
X12975110Y-12350360D02*
G75*
G02*
X12925110Y-12350360I-25000J0D01*
G01*
X12925110Y-12350360D02*
G75*
G02*
X12975110Y-12350360I25000J0D01*
G01*
X12975110Y-12550360D02*
G75*
G02*
X12925110Y-12550360I-25000J0D01*
G01*
X12925110Y-12550360D02*
G75*
G02*
X12975110Y-12550360I25000J0D01*
G01*
X12975110Y-12750360D02*
G75*
G02*
X12925110Y-12750360I-25000J0D01*
G01*
X12925110Y-12750360D02*
G75*
G02*
X12975110Y-12750360I25000J0D01*
G01*
X12975110Y-13350360D02*
G75*
G02*
X12925110Y-13350360I-25000J0D01*
G01*
X12925110Y-13350360D02*
G75*
G02*
X12975110Y-13350360I25000J0D01*
G01*
X12975110Y-13480360D02*
G75*
G02*
X12925110Y-13480360I-25000J0D01*
G01*
X12925110Y-13480360D02*
G75*
G02*
X12975110Y-13480360I25000J0D01*
G01*
X13125110Y-13300360D02*
G75*
G02*
X13075110Y-13300360I-25000J0D01*
G01*
X13075110Y-13300360D02*
G75*
G02*
X13125110Y-13300360I25000J0D01*
G01*
X13425110Y-6900360D02*
G75*
G02*
X13375110Y-6900360I-25000J0D01*
G01*
X13375110Y-6900360D02*
G75*
G02*
X13425110Y-6900360I25000J0D01*
G01*
X13425110Y-7100360D02*
G75*
G02*
X13375110Y-7100360I-25000J0D01*
G01*
X13375110Y-7100360D02*
G75*
G02*
X13425110Y-7100360I25000J0D01*
G01*
X13425110Y-7300360D02*
G75*
G02*
X13375110Y-7300360I-25000J0D01*
G01*
X13375110Y-7300360D02*
G75*
G02*
X13425110Y-7300360I25000J0D01*
G01*
X13825110Y-6900360D02*
G75*
G02*
X13775110Y-6900360I-25000J0D01*
G01*
X13775110Y-6900360D02*
G75*
G02*
X13825110Y-6900360I25000J0D01*
G01*
X13825110Y-7100360D02*
G75*
G02*
X13775110Y-7100360I-25000J0D01*
G01*
X13775110Y-7100360D02*
G75*
G02*
X13825110Y-7100360I25000J0D01*
G01*
X13825110Y-7300360D02*
G75*
G02*
X13775110Y-7300360I-25000J0D01*
G01*
X13775110Y-7300360D02*
G75*
G02*
X13825110Y-7300360I25000J0D01*
G01*
X13875110Y-12450360D02*
G75*
G02*
X13825110Y-12450360I-25000J0D01*
G01*
X13825110Y-12450360D02*
G75*
G02*
X13875110Y-12450360I25000J0D01*
G01*
X13875110Y-13050360D02*
G75*
G02*
X13825110Y-13050360I-25000J0D01*
G01*
X13825110Y-13050360D02*
G75*
G02*
X13875110Y-13050360I25000J0D01*
G01*
X14225110Y-6900360D02*
G75*
G02*
X14175110Y-6900360I-25000J0D01*
G01*
X14175110Y-6900360D02*
G75*
G02*
X14225110Y-6900360I25000J0D01*
G01*
X14225110Y-7100360D02*
G75*
G02*
X14175110Y-7100360I-25000J0D01*
G01*
X14175110Y-7100360D02*
G75*
G02*
X14225110Y-7100360I25000J0D01*
G01*
X14225110Y-7300360D02*
G75*
G02*
X14175110Y-7300360I-25000J0D01*
G01*
X14175110Y-7300360D02*
G75*
G02*
X14225110Y-7300360I25000J0D01*
G01*
X14375110Y-12550360D02*
G75*
G02*
X14325110Y-12550360I-25000J0D01*
G01*
X14325110Y-12550360D02*
G75*
G02*
X14375110Y-12550360I25000J0D01*
G01*
X14525110Y-13230360D02*
G75*
G02*
X14475110Y-13230360I-25000J0D01*
G01*
X14475110Y-13230360D02*
G75*
G02*
X14525110Y-13230360I25000J0D01*
G01*
X14575110Y-7050360D02*
G75*
G02*
X14525110Y-7050360I-25000J0D01*
G01*
X14525110Y-7050360D02*
G75*
G02*
X14575110Y-7050360I25000J0D01*
G01*
X14575110Y-7300360D02*
G75*
G02*
X14525110Y-7300360I-25000J0D01*
G01*
X14525110Y-7300360D02*
G75*
G02*
X14575110Y-7300360I25000J0D01*
G01*
X14575110Y-7550360D02*
G75*
G02*
X14525110Y-7550360I-25000J0D01*
G01*
X14525110Y-7550360D02*
G75*
G02*
X14575110Y-7550360I25000J0D01*
G01*
X14575110Y-11450360D02*
G75*
G02*
X14525110Y-11450360I-25000J0D01*
G01*
X14525110Y-11450360D02*
G75*
G02*
X14575110Y-11450360I25000J0D01*
G01*
X14575110Y-11950360D02*
G75*
G02*
X14525110Y-11950360I-25000J0D01*
G01*
X14525110Y-11950360D02*
G75*
G02*
X14575110Y-11950360I25000J0D01*
G01*
X14775110Y-7050360D02*
G75*
G02*
X14725110Y-7050360I-25000J0D01*
G01*
X14725110Y-7050360D02*
G75*
G02*
X14775110Y-7050360I25000J0D01*
G01*
X14775110Y-7300360D02*
G75*
G02*
X14725110Y-7300360I-25000J0D01*
G01*
X14725110Y-7300360D02*
G75*
G02*
X14775110Y-7300360I25000J0D01*
G01*
X14775110Y-7550360D02*
G75*
G02*
X14725110Y-7550360I-25000J0D01*
G01*
X14725110Y-7550360D02*
G75*
G02*
X14775110Y-7550360I25000J0D01*
G01*
X14775110Y-7850360D02*
G75*
G02*
X14725110Y-7850360I-25000J0D01*
G01*
X14725110Y-7850360D02*
G75*
G02*
X14775110Y-7850360I25000J0D01*
G01*
X14775110Y-8200360D02*
G75*
G02*
X14725110Y-8200360I-25000J0D01*
G01*
X14725110Y-8200360D02*
G75*
G02*
X14775110Y-8200360I25000J0D01*
G01*
X14975110Y-7050360D02*
G75*
G02*
X14925110Y-7050360I-25000J0D01*
G01*
X14925110Y-7050360D02*
G75*
G02*
X14975110Y-7050360I25000J0D01*
G01*
X14975110Y-7550360D02*
G75*
G02*
X14925110Y-7550360I-25000J0D01*
G01*
X14925110Y-7550360D02*
G75*
G02*
X14975110Y-7550360I25000J0D01*
G01*
X14975110Y-11450360D02*
G75*
G02*
X14925110Y-11450360I-25000J0D01*
G01*
X14925110Y-11450360D02*
G75*
G02*
X14975110Y-11450360I25000J0D01*
G01*
X14975110Y-11950360D02*
G75*
G02*
X14925110Y-11950360I-25000J0D01*
G01*
X14925110Y-11950360D02*
G75*
G02*
X14975110Y-11950360I25000J0D01*
G01*
X15175110Y-7050360D02*
G75*
G02*
X15125110Y-7050360I-25000J0D01*
G01*
X15125110Y-7050360D02*
G75*
G02*
X15175110Y-7050360I25000J0D01*
G01*
X15175110Y-7550360D02*
G75*
G02*
X15125110Y-7550360I-25000J0D01*
G01*
X15125110Y-7550360D02*
G75*
G02*
X15175110Y-7550360I25000J0D01*
G01*
X15675110Y-13250360D02*
G75*
G02*
X15625110Y-13250360I-25000J0D01*
G01*
X15625110Y-13250360D02*
G75*
G02*
X15675110Y-13250360I25000J0D01*
G01*
X15775110Y-9250360D02*
G75*
G02*
X15725110Y-9250360I-25000J0D01*
G01*
X15725110Y-9250360D02*
G75*
G02*
X15775110Y-9250360I25000J0D01*
G01*
X15775110Y-9850360D02*
G75*
G02*
X15725110Y-9850360I-25000J0D01*
G01*
X15725110Y-9850360D02*
G75*
G02*
X15775110Y-9850360I25000J0D01*
G01*
X15775110Y-10900360D02*
G75*
G02*
X15725110Y-10900360I-25000J0D01*
G01*
X15725110Y-10900360D02*
G75*
G02*
X15775110Y-10900360I25000J0D01*
G01*
X15775110Y-11400360D02*
G75*
G02*
X15725110Y-11400360I-25000J0D01*
G01*
X15725110Y-11400360D02*
G75*
G02*
X15775110Y-11400360I25000J0D01*
G01*
X15775110Y-11900360D02*
G75*
G02*
X15725110Y-11900360I-25000J0D01*
G01*
X15725110Y-11900360D02*
G75*
G02*
X15775110Y-11900360I25000J0D01*
G01*
X15775110Y-12300360D02*
G75*
G02*
X15725110Y-12300360I-25000J0D01*
G01*
X15725110Y-12300360D02*
G75*
G02*
X15775110Y-12300360I25000J0D01*
G01*
X15775110Y-12700360D02*
G75*
G02*
X15725110Y-12700360I-25000J0D01*
G01*
X15725110Y-12700360D02*
G75*
G02*
X15775110Y-12700360I25000J0D01*
G01*
X15875110Y-7050360D02*
G75*
G02*
X15825110Y-7050360I-25000J0D01*
G01*
X15825110Y-7050360D02*
G75*
G02*
X15875110Y-7050360I25000J0D01*
G01*
X15875110Y-7600360D02*
G75*
G02*
X15825110Y-7600360I-25000J0D01*
G01*
X15825110Y-7600360D02*
G75*
G02*
X15875110Y-7600360I25000J0D01*
G01*
X15875110Y-10400360D02*
G75*
G02*
X15825110Y-10400360I-25000J0D01*
G01*
X15825110Y-10400360D02*
G75*
G02*
X15875110Y-10400360I25000J0D01*
G01*
X16325110Y-7000360D02*
G75*
G02*
X16275110Y-7000360I-25000J0D01*
G01*
X16275110Y-7000360D02*
G75*
G02*
X16325110Y-7000360I25000J0D01*
G01*
X16325110Y-7400360D02*
G75*
G02*
X16275110Y-7400360I-25000J0D01*
G01*
X16275110Y-7400360D02*
G75*
G02*
X16325110Y-7400360I25000J0D01*
G01*
X16325110Y-7800360D02*
G75*
G02*
X16275110Y-7800360I-25000J0D01*
G01*
X16275110Y-7800360D02*
G75*
G02*
X16325110Y-7800360I25000J0D01*
G01*
X16475110Y-11050360D02*
G75*
G02*
X16425110Y-11050360I-25000J0D01*
G01*
X16425110Y-11050360D02*
G75*
G02*
X16475110Y-11050360I25000J0D01*
G01*
X16475110Y-11450360D02*
G75*
G02*
X16425110Y-11450360I-25000J0D01*
G01*
X16425110Y-11450360D02*
G75*
G02*
X16475110Y-11450360I25000J0D01*
G01*
X16475110Y-11950360D02*
G75*
G02*
X16425110Y-11950360I-25000J0D01*
G01*
X16425110Y-11950360D02*
G75*
G02*
X16475110Y-11950360I25000J0D01*
G01*
X16525110Y-7000360D02*
G75*
G02*
X16475110Y-7000360I-25000J0D01*
G01*
X16475110Y-7000360D02*
G75*
G02*
X16525110Y-7000360I25000J0D01*
G01*
X16525110Y-7400360D02*
G75*
G02*
X16475110Y-7400360I-25000J0D01*
G01*
X16475110Y-7400360D02*
G75*
G02*
X16525110Y-7400360I25000J0D01*
G01*
X16525110Y-7800360D02*
G75*
G02*
X16475110Y-7800360I-25000J0D01*
G01*
X16475110Y-7800360D02*
G75*
G02*
X16525110Y-7800360I25000J0D01*
G01*
X16675110Y-14050360D02*
G75*
G02*
X16625110Y-14050360I-25000J0D01*
G01*
X16625110Y-14050360D02*
G75*
G02*
X16675110Y-14050360I25000J0D01*
G01*
X16725110Y-7000360D02*
G75*
G02*
X16675110Y-7000360I-25000J0D01*
G01*
X16675110Y-7000360D02*
G75*
G02*
X16725110Y-7000360I25000J0D01*
G01*
X16725110Y-7400360D02*
G75*
G02*
X16675110Y-7400360I-25000J0D01*
G01*
X16675110Y-7400360D02*
G75*
G02*
X16725110Y-7400360I25000J0D01*
G01*
X16725110Y-7800360D02*
G75*
G02*
X16675110Y-7800360I-25000J0D01*
G01*
X16675110Y-7800360D02*
G75*
G02*
X16725110Y-7800360I25000J0D01*
G01*
X17225110Y-8900360D02*
G75*
G02*
X17175110Y-8900360I-25000J0D01*
G01*
X17175110Y-8900360D02*
G75*
G02*
X17225110Y-8900360I25000J0D01*
G01*
X17425110Y-7000360D02*
G75*
G02*
X17375110Y-7000360I-25000J0D01*
G01*
X17375110Y-7000360D02*
G75*
G02*
X17425110Y-7000360I25000J0D01*
G01*
X17425110Y-7400360D02*
G75*
G02*
X17375110Y-7400360I-25000J0D01*
G01*
X17375110Y-7400360D02*
G75*
G02*
X17425110Y-7400360I25000J0D01*
G01*
X17425110Y-7800360D02*
G75*
G02*
X17375110Y-7800360I-25000J0D01*
G01*
X17375110Y-7800360D02*
G75*
G02*
X17425110Y-7800360I25000J0D01*
G01*
X17625110Y-7000360D02*
G75*
G02*
X17575110Y-7000360I-25000J0D01*
G01*
X17575110Y-7000360D02*
G75*
G02*
X17625110Y-7000360I25000J0D01*
G01*
X17625110Y-7400360D02*
G75*
G02*
X17575110Y-7400360I-25000J0D01*
G01*
X17575110Y-7400360D02*
G75*
G02*
X17625110Y-7400360I25000J0D01*
G01*
X17625110Y-7800360D02*
G75*
G02*
X17575110Y-7800360I-25000J0D01*
G01*
X17575110Y-7800360D02*
G75*
G02*
X17625110Y-7800360I25000J0D01*
G01*
X17775110Y-9550360D02*
G75*
G02*
X17725110Y-9550360I-25000J0D01*
G01*
X17725110Y-9550360D02*
G75*
G02*
X17775110Y-9550360I25000J0D01*
G01*
X17775110Y-10050360D02*
G75*
G02*
X17725110Y-10050360I-25000J0D01*
G01*
X17725110Y-10050360D02*
G75*
G02*
X17775110Y-10050360I25000J0D01*
G01*
X17775110Y-10550360D02*
G75*
G02*
X17725110Y-10550360I-25000J0D01*
G01*
X17725110Y-10550360D02*
G75*
G02*
X17775110Y-10550360I25000J0D01*
G01*
X17775110Y-11050360D02*
G75*
G02*
X17725110Y-11050360I-25000J0D01*
G01*
X17725110Y-11050360D02*
G75*
G02*
X17775110Y-11050360I25000J0D01*
G01*
X17775110Y-11550360D02*
G75*
G02*
X17725110Y-11550360I-25000J0D01*
G01*
X17725110Y-11550360D02*
G75*
G02*
X17775110Y-11550360I25000J0D01*
G01*
X17775110Y-11850360D02*
G75*
G02*
X17725110Y-11850360I-25000J0D01*
G01*
X17725110Y-11850360D02*
G75*
G02*
X17775110Y-11850360I25000J0D01*
G01*
X17775110Y-12350360D02*
G75*
G02*
X17725110Y-12350360I-25000J0D01*
G01*
X17725110Y-12350360D02*
G75*
G02*
X17775110Y-12350360I25000J0D01*
G01*
X17775110Y-14050360D02*
G75*
G02*
X17725110Y-14050360I-25000J0D01*
G01*
X17725110Y-14050360D02*
G75*
G02*
X17775110Y-14050360I25000J0D01*
G01*
X17825110Y-7000360D02*
G75*
G02*
X17775110Y-7000360I-25000J0D01*
G01*
X17775110Y-7000360D02*
G75*
G02*
X17825110Y-7000360I25000J0D01*
G01*
X17825110Y-7400360D02*
G75*
G02*
X17775110Y-7400360I-25000J0D01*
G01*
X17775110Y-7400360D02*
G75*
G02*
X17825110Y-7400360I25000J0D01*
G01*
X17825110Y-7800360D02*
G75*
G02*
X17775110Y-7800360I-25000J0D01*
G01*
X17775110Y-7800360D02*
G75*
G02*
X17825110Y-7800360I25000J0D01*
G01*
X18475110Y-10250360D02*
G75*
G02*
X18425110Y-10250360I-25000J0D01*
G01*
X18425110Y-10250360D02*
G75*
G02*
X18475110Y-10250360I25000J0D01*
G01*
X18575110Y-14050360D02*
G75*
G02*
X18525110Y-14050360I-25000J0D01*
G01*
X18525110Y-14050360D02*
G75*
G02*
X18575110Y-14050360I25000J0D01*
G01*
X18675110Y-7150360D02*
G75*
G02*
X18625110Y-7150360I-25000J0D01*
G01*
X18625110Y-7150360D02*
G75*
G02*
X18675110Y-7150360I25000J0D01*
G01*
X18975110Y-8650360D02*
G75*
G02*
X18925110Y-8650360I-25000J0D01*
G01*
X18925110Y-8650360D02*
G75*
G02*
X18975110Y-8650360I25000J0D01*
G01*
X19275110Y-8650360D02*
G75*
G02*
X19225110Y-8650360I-25000J0D01*
G01*
X19225110Y-8650360D02*
G75*
G02*
X19275110Y-8650360I25000J0D01*
G01*
X15050110Y-8955360D02*
X15050110Y-9045360D01*
X15005110Y-9000360D02*
X15095110Y-9000360D01*
X15050110Y-10355360D02*
X15050110Y-10445360D01*
X15005110Y-10400360D02*
X15095110Y-10400360D01*
X15550110Y-8955360D02*
X15550110Y-9045360D01*
X15505110Y-9000360D02*
X15595110Y-9000360D01*
X15550110Y-10355360D02*
X15550110Y-10445360D01*
X15505110Y-10400360D02*
X15595110Y-10400360D01*
X16319466Y-9349716D02*
X16319466Y-9279004D01*
X16248754Y-9279004D01*
X16248754Y-9349716D01*
X16319466Y-9349716D01*
X16319466Y-9603716D02*
X16319466Y-9533004D01*
X16248754Y-9533004D01*
X16248754Y-9603716D01*
X16319466Y-9603716D01*
X16319466Y-9857716D02*
X16319466Y-9787004D01*
X16248754Y-9787004D01*
X16248754Y-9857716D01*
X16319466Y-9857716D01*
X16319466Y-10111716D02*
X16319466Y-10041004D01*
X16248754Y-10041004D01*
X16248754Y-10111716D01*
X16319466Y-10111716D01*
X16319466Y-10365716D02*
X16319466Y-10295004D01*
X16248754Y-10295004D01*
X16248754Y-10365716D01*
X16319466Y-10365716D01*
X16319466Y-10619716D02*
X16319466Y-10549004D01*
X16248754Y-10549004D01*
X16248754Y-10619716D01*
X16319466Y-10619716D01*
X16319466Y-10873716D02*
X16319466Y-10803004D01*
X16248754Y-10803004D01*
X16248754Y-10873716D01*
X16319466Y-10873716D01*
X16319466Y-11127716D02*
X16319466Y-11057004D01*
X16248754Y-11057004D01*
X16248754Y-11127716D01*
X16319466Y-11127716D01*
X16319466Y-11381716D02*
X16319466Y-11311004D01*
X16248754Y-11311004D01*
X16248754Y-11381716D01*
X16319466Y-11381716D01*
X16319466Y-11635716D02*
X16319466Y-11565004D01*
X16248754Y-11565004D01*
X16248754Y-11635716D01*
X16319466Y-11635716D01*
X16319466Y-11889716D02*
X16319466Y-11819004D01*
X16248754Y-11819004D01*
X16248754Y-11889716D01*
X16319466Y-11889716D01*
X16319466Y-12143716D02*
X16319466Y-12073004D01*
X16248754Y-12073004D01*
X16248754Y-12143716D01*
X16319466Y-12143716D01*
X16319466Y-12397716D02*
X16319466Y-12327004D01*
X16248754Y-12327004D01*
X16248754Y-12397716D01*
X16319466Y-12397716D01*
X16319466Y-12651716D02*
X16319466Y-12581004D01*
X16248754Y-12581004D01*
X16248754Y-12651716D01*
X16319466Y-12651716D01*
X16319466Y-12905716D02*
X16319466Y-12835004D01*
X16248754Y-12835004D01*
X16248754Y-12905716D01*
X16319466Y-12905716D01*
X16319466Y-13159716D02*
X16319466Y-13089004D01*
X16248754Y-13089004D01*
X16248754Y-13159716D01*
X16319466Y-13159716D01*
X16319466Y-13413716D02*
X16319466Y-13343004D01*
X16248754Y-13343004D01*
X16248754Y-13413716D01*
X16319466Y-13413716D01*
X16319466Y-13667716D02*
X16319466Y-13597004D01*
X16248754Y-13597004D01*
X16248754Y-13667716D01*
X16319466Y-13667716D01*
X16319466Y-13921716D02*
X16319466Y-13851004D01*
X16248754Y-13851004D01*
X16248754Y-13921716D01*
X16319466Y-13921716D01*
X16319466Y-14175716D02*
X16319466Y-14105004D01*
X16248754Y-14105004D01*
X16248754Y-14175716D01*
X16319466Y-14175716D01*
X18097466Y-9349716D02*
X18097466Y-9279004D01*
X18026754Y-9279004D01*
X18026754Y-9349716D01*
X18097466Y-9349716D01*
X18097466Y-9603716D02*
X18097466Y-9533004D01*
X18026754Y-9533004D01*
X18026754Y-9603716D01*
X18097466Y-9603716D01*
X18097466Y-9857716D02*
X18097466Y-9787004D01*
X18026754Y-9787004D01*
X18026754Y-9857716D01*
X18097466Y-9857716D01*
X18097466Y-10111716D02*
X18097466Y-10041004D01*
X18026754Y-10041004D01*
X18026754Y-10111716D01*
X18097466Y-10111716D01*
X18097466Y-10365716D02*
X18097466Y-10295004D01*
X18026754Y-10295004D01*
X18026754Y-10365716D01*
X18097466Y-10365716D01*
X18097466Y-10619716D02*
X18097466Y-10549004D01*
X18026754Y-10549004D01*
X18026754Y-10619716D01*
X18097466Y-10619716D01*
X18097466Y-10873716D02*
X18097466Y-10803004D01*
X18026754Y-10803004D01*
X18026754Y-10873716D01*
X18097466Y-10873716D01*
X18097466Y-11127716D02*
X18097466Y-11057004D01*
X18026754Y-11057004D01*
X18026754Y-11127716D01*
X18097466Y-11127716D01*
X18097466Y-11381716D02*
X18097466Y-11311004D01*
X18026754Y-11311004D01*
X18026754Y-11381716D01*
X18097466Y-11381716D01*
X18097466Y-11635716D02*
X18097466Y-11565004D01*
X18026754Y-11565004D01*
X18026754Y-11635716D01*
X18097466Y-11635716D01*
X18097466Y-11889716D02*
X18097466Y-11819004D01*
X18026754Y-11819004D01*
X18026754Y-11889716D01*
X18097466Y-11889716D01*
X18097466Y-12143716D02*
X18097466Y-12073004D01*
X18026754Y-12073004D01*
X18026754Y-12143716D01*
X18097466Y-12143716D01*
X18097466Y-12397716D02*
X18097466Y-12327004D01*
X18026754Y-12327004D01*
X18026754Y-12397716D01*
X18097466Y-12397716D01*
X18097466Y-12651716D02*
X18097466Y-12581004D01*
X18026754Y-12581004D01*
X18026754Y-12651716D01*
X18097466Y-12651716D01*
X18097466Y-12905716D02*
X18097466Y-12835004D01*
X18026754Y-12835004D01*
X18026754Y-12905716D01*
X18097466Y-12905716D01*
X18097466Y-13159716D02*
X18097466Y-13089004D01*
X18026754Y-13089004D01*
X18026754Y-13159716D01*
X18097466Y-13159716D01*
X18097466Y-13413716D02*
X18097466Y-13343004D01*
X18026754Y-13343004D01*
X18026754Y-13413716D01*
X18097466Y-13413716D01*
X18097466Y-13667716D02*
X18097466Y-13597004D01*
X18026754Y-13597004D01*
X18026754Y-13667716D01*
X18097466Y-13667716D01*
X18097466Y-13921716D02*
X18097466Y-13851004D01*
X18026754Y-13851004D01*
X18026754Y-13921716D01*
X18097466Y-13921716D01*
X18097466Y-14175716D02*
X18097466Y-14105004D01*
X18026754Y-14105004D01*
X18026754Y-14175716D01*
X18097466Y-14175716D01*
D13*
X14946110Y-13370160D02*
X14996910Y-13319360D01*
X14946110Y-13268560D01*
X14895310Y-13319360D01*
X14946110Y-13370160D01*
X15200110Y-13370160D02*
X15250910Y-13319360D01*
X15200110Y-13268560D01*
X15149310Y-13319360D01*
X15200110Y-13370160D01*
X15454110Y-13370160D02*
X15504910Y-13319360D01*
X15454110Y-13268560D01*
X15403310Y-13319360D01*
X15454110Y-13370160D01*
X18654990Y-11385100D02*
X18705790Y-11334300D01*
X18654990Y-11283500D01*
X18604190Y-11334300D01*
X18654990Y-11385100D01*
X18654990Y-11837220D02*
X18705790Y-11786420D01*
X18654990Y-11735620D01*
X18604190Y-11786420D01*
X18654990Y-11837220D01*
X19305230Y-11385100D02*
X19356030Y-11334300D01*
X19305230Y-11283500D01*
X19254430Y-11334300D01*
X19305230Y-11385100D01*
X19305230Y-11837220D02*
X19356030Y-11786420D01*
X19305230Y-11735620D01*
X19254430Y-11786420D01*
X19305230Y-11837220D01*
D14*
X10488960Y-9243210D02*
X10603260Y-9357510D01*
X10603260Y-9243210D02*
X10488960Y-9357510D01*
X10603260Y-9300360D02*
G75*
G02*
X10488960Y-9300360I-57150J0D01*
G01*
X10488960Y-9300360D02*
G75*
G02*
X10603260Y-9300360I57150J0D01*
G01*
X10488960Y-9843210D02*
X10603260Y-9957510D01*
X10603260Y-9843210D02*
X10488960Y-9957510D01*
X10603260Y-9900360D02*
G75*
G02*
X10488960Y-9900360I-57150J0D01*
G01*
X10488960Y-9900360D02*
G75*
G02*
X10603260Y-9900360I57150J0D01*
G01*
X10742960Y-9243210D02*
X10857260Y-9357510D01*
X10857260Y-9243210D02*
X10742960Y-9357510D01*
X10857260Y-9300360D02*
G75*
G02*
X10742960Y-9300360I-57150J0D01*
G01*
X10742960Y-9300360D02*
G75*
G02*
X10857260Y-9300360I57150J0D01*
G01*
X10742960Y-9843210D02*
X10857260Y-9957510D01*
X10857260Y-9843210D02*
X10742960Y-9957510D01*
X10857260Y-9900360D02*
G75*
G02*
X10742960Y-9900360I-57150J0D01*
G01*
X10742960Y-9900360D02*
G75*
G02*
X10857260Y-9900360I57150J0D01*
G01*
X10996960Y-9243210D02*
X11111260Y-9357510D01*
X11111260Y-9243210D02*
X10996960Y-9357510D01*
X11111260Y-9300360D02*
G75*
G02*
X10996960Y-9300360I-57150J0D01*
G01*
X10996960Y-9300360D02*
G75*
G02*
X11111260Y-9300360I57150J0D01*
G01*
X10996960Y-9843210D02*
X11111260Y-9957510D01*
X11111260Y-9843210D02*
X10996960Y-9957510D01*
X11111260Y-9900360D02*
G75*
G02*
X10996960Y-9900360I-57150J0D01*
G01*
X10996960Y-9900360D02*
G75*
G02*
X11111260Y-9900360I57150J0D01*
G01*
X11988960Y-9243210D02*
X12103260Y-9357510D01*
X12103260Y-9243210D02*
X11988960Y-9357510D01*
X12103260Y-9300360D02*
G75*
G02*
X11988960Y-9300360I-57150J0D01*
G01*
X11988960Y-9300360D02*
G75*
G02*
X12103260Y-9300360I57150J0D01*
G01*
X11988960Y-9843210D02*
X12103260Y-9957510D01*
X12103260Y-9843210D02*
X11988960Y-9957510D01*
X12103260Y-9900360D02*
G75*
G02*
X11988960Y-9900360I-57150J0D01*
G01*
X11988960Y-9900360D02*
G75*
G02*
X12103260Y-9900360I57150J0D01*
G01*
X12242960Y-9243210D02*
X12357260Y-9357510D01*
X12357260Y-9243210D02*
X12242960Y-9357510D01*
X12357260Y-9300360D02*
G75*
G02*
X12242960Y-9300360I-57150J0D01*
G01*
X12242960Y-9300360D02*
G75*
G02*
X12357260Y-9300360I57150J0D01*
G01*
X12242960Y-9843210D02*
X12357260Y-9957510D01*
X12357260Y-9843210D02*
X12242960Y-9957510D01*
X12357260Y-9900360D02*
G75*
G02*
X12242960Y-9900360I-57150J0D01*
G01*
X12242960Y-9900360D02*
G75*
G02*
X12357260Y-9900360I57150J0D01*
G01*
X12496960Y-9243210D02*
X12611260Y-9357510D01*
X12611260Y-9243210D02*
X12496960Y-9357510D01*
X12611260Y-9300360D02*
G75*
G02*
X12496960Y-9300360I-57150J0D01*
G01*
X12496960Y-9300360D02*
G75*
G02*
X12611260Y-9300360I57150J0D01*
G01*
X12496960Y-9843210D02*
X12611260Y-9957510D01*
X12611260Y-9843210D02*
X12496960Y-9957510D01*
X12611260Y-9900360D02*
G75*
G02*
X12496960Y-9900360I-57150J0D01*
G01*
X12496960Y-9900360D02*
G75*
G02*
X12611260Y-9900360I57150J0D01*
G01*
X13488960Y-9243210D02*
X13603260Y-9357510D01*
X13603260Y-9243210D02*
X13488960Y-9357510D01*
X13603260Y-9300360D02*
G75*
G02*
X13488960Y-9300360I-57150J0D01*
G01*
X13488960Y-9300360D02*
G75*
G02*
X13603260Y-9300360I57150J0D01*
G01*
X13488960Y-9843210D02*
X13603260Y-9957510D01*
X13603260Y-9843210D02*
X13488960Y-9957510D01*
X13603260Y-9900360D02*
G75*
G02*
X13488960Y-9900360I-57150J0D01*
G01*
X13488960Y-9900360D02*
G75*
G02*
X13603260Y-9900360I57150J0D01*
G01*
X13742960Y-9243210D02*
X13857260Y-9357510D01*
X13857260Y-9243210D02*
X13742960Y-9357510D01*
X13857260Y-9300360D02*
G75*
G02*
X13742960Y-9300360I-57150J0D01*
G01*
X13742960Y-9300360D02*
G75*
G02*
X13857260Y-9300360I57150J0D01*
G01*
X13742960Y-9843210D02*
X13857260Y-9957510D01*
X13857260Y-9843210D02*
X13742960Y-9957510D01*
X13857260Y-9900360D02*
G75*
G02*
X13742960Y-9900360I-57150J0D01*
G01*
X13742960Y-9900360D02*
G75*
G02*
X13857260Y-9900360I57150J0D01*
G01*
X13996960Y-9243210D02*
X14111260Y-9357510D01*
X14111260Y-9243210D02*
X13996960Y-9357510D01*
X14111260Y-9300360D02*
G75*
G02*
X13996960Y-9300360I-57150J0D01*
G01*
X13996960Y-9300360D02*
G75*
G02*
X14111260Y-9300360I57150J0D01*
G01*
X13996960Y-9843210D02*
X14111260Y-9957510D01*
X14111260Y-9843210D02*
X13996960Y-9957510D01*
X14111260Y-9900360D02*
G75*
G02*
X13996960Y-9900360I-57150J0D01*
G01*
X13996960Y-9900360D02*
G75*
G02*
X14111260Y-9900360I57150J0D01*
G01*
D15*
X10736610Y-7036860D02*
X10863610Y-7163860D01*
X10863610Y-7036860D02*
X10736610Y-7163860D01*
X10800110Y-7036860D02*
X10800110Y-7163860D01*
X10736610Y-7100360D02*
X10863610Y-7100360D01*
D12*
X10998110Y-7036860D02*
X10602110Y-7036860D01*
X10602110Y-7163860D02*
G75*
G02*
X10602110Y-7036860I0J63500D01*
G01*
X10602110Y-7163860D02*
X10998110Y-7163860D01*
X10998110Y-7163860D02*
G75*
G03*
X10998110Y-7036860I0J63500D01*
G01*
D15*
X12236610Y-7036860D02*
X12363610Y-7163860D01*
X12363610Y-7036860D02*
X12236610Y-7163860D01*
X12300110Y-7036860D02*
X12300110Y-7163860D01*
X12236610Y-7100360D02*
X12363610Y-7100360D01*
D12*
X12498110Y-7036860D02*
X12102110Y-7036860D01*
X12102110Y-7163860D02*
G75*
G02*
X12102110Y-7036860I0J63500D01*
G01*
X12102110Y-7163860D02*
X12498110Y-7163860D01*
X12498110Y-7163860D02*
G75*
G03*
X12498110Y-7036860I0J63500D01*
G01*
D15*
X13736610Y-7036860D02*
X13863610Y-7163860D01*
X13863610Y-7036860D02*
X13736610Y-7163860D01*
X13800110Y-7036860D02*
X13800110Y-7163860D01*
X13736610Y-7100360D02*
X13863610Y-7100360D01*
D12*
X13998110Y-7036860D02*
X13602110Y-7036860D01*
X13602110Y-7163860D02*
G75*
G02*
X13602110Y-7036860I0J63500D01*
G01*
X13602110Y-7163860D02*
X13998110Y-7163860D01*
X13998110Y-7163860D02*
G75*
G03*
X13998110Y-7036860I0J63500D01*
G01*
D15*
X16436610Y-7036500D02*
X16563610Y-7163500D01*
X16563610Y-7036500D02*
X16436610Y-7163500D01*
X16500110Y-7036500D02*
X16500110Y-7163500D01*
X16436610Y-7100000D02*
X16563610Y-7100000D01*
D12*
X16698110Y-7036500D02*
X16302110Y-7036500D01*
X16302110Y-7163500D02*
G75*
G02*
X16302110Y-7036500I0J63500D01*
G01*
X16302110Y-7163500D02*
X16698110Y-7163500D01*
X16698110Y-7163500D02*
G75*
G03*
X16698110Y-7036500I0J63500D01*
G01*
D15*
X17536500Y-7036500D02*
X17663500Y-7163500D01*
X17663500Y-7036500D02*
X17536500Y-7163500D01*
X17600000Y-7036500D02*
X17600000Y-7163500D01*
X17536500Y-7100000D02*
X17663500Y-7100000D01*
D12*
X17798000Y-7036500D02*
X17402000Y-7036500D01*
X17402000Y-7163500D02*
G75*
G02*
X17402000Y-7036500I0J63500D01*
G01*
X17402000Y-7163500D02*
X17798000Y-7163500D01*
X17798000Y-7163500D02*
G75*
G03*
X17798000Y-7036500I0J63500D01*
G01*
D16*
X18620110Y-7800360D02*
X18780110Y-7960360D01*
X18780110Y-7800360D02*
X18620110Y-7960360D01*
X18756679Y-7936929D02*
X18756679Y-7823791D01*
X18643541Y-7823791D01*
X18643541Y-7936929D01*
X18756679Y-7936929D01*
X18620110Y-8220360D02*
X18780110Y-8380360D01*
X18780110Y-8220360D02*
X18620110Y-8380360D01*
X18756679Y-8356929D02*
X18756679Y-8243791D01*
X18643541Y-8243791D01*
X18643541Y-8356929D01*
X18756679Y-8356929D01*
X18624110Y-12315360D02*
X18784110Y-12475360D01*
X18784110Y-12315360D02*
X18624110Y-12475360D01*
X18760679Y-12451929D02*
X18760679Y-12338791D01*
X18647541Y-12338791D01*
X18647541Y-12451929D01*
X18760679Y-12451929D01*
X18624110Y-12735360D02*
X18784110Y-12895360D01*
X18784110Y-12735360D02*
X18624110Y-12895360D01*
X18760679Y-12871929D02*
X18760679Y-12758791D01*
X18647541Y-12758791D01*
X18647541Y-12871929D01*
X18760679Y-12871929D01*
X18624110Y-13155360D02*
X18784110Y-13315360D01*
X18784110Y-13155360D02*
X18624110Y-13315360D01*
X18760679Y-13291929D02*
X18760679Y-13178791D01*
X18647541Y-13178791D01*
X18647541Y-13291929D01*
X18760679Y-13291929D01*
X19170110Y-7800360D02*
X19330110Y-7960360D01*
X19330110Y-7800360D02*
X19170110Y-7960360D01*
X19306679Y-7936929D02*
X19306679Y-7823791D01*
X19193541Y-7823791D01*
X19193541Y-7936929D01*
X19306679Y-7936929D01*
X19170110Y-8220360D02*
X19330110Y-8380360D01*
X19330110Y-8220360D02*
X19170110Y-8380360D01*
X19306679Y-8356929D02*
X19306679Y-8243791D01*
X19193541Y-8243791D01*
X19193541Y-8356929D01*
X19306679Y-8356929D01*
X19174110Y-12315360D02*
X19334110Y-12475360D01*
X19334110Y-12315360D02*
X19174110Y-12475360D01*
X19310679Y-12451929D02*
X19310679Y-12338791D01*
X19197541Y-12338791D01*
X19197541Y-12451929D01*
X19310679Y-12451929D01*
X19174110Y-12735360D02*
X19334110Y-12895360D01*
X19334110Y-12735360D02*
X19174110Y-12895360D01*
X19310679Y-12871929D02*
X19310679Y-12758791D01*
X19197541Y-12758791D01*
X19197541Y-12871929D01*
X19310679Y-12871929D01*
X19174110Y-13155360D02*
X19334110Y-13315360D01*
X19334110Y-13155360D02*
X19174110Y-13315360D01*
X19310679Y-13291929D02*
X19310679Y-13178791D01*
X19197541Y-13178791D01*
X19197541Y-13291929D01*
X19310679Y-13291929D01*
D17*
X16365610Y-8412860D02*
X16540610Y-8587860D01*
X16540610Y-8412860D02*
X16365610Y-8587860D01*
X16453110Y-8587860D02*
X16540610Y-8500360D01*
X16453110Y-8412860D01*
X16365610Y-8500360D01*
X16453110Y-8587860D01*
X16365610Y-8752860D02*
X16540610Y-8927860D01*
X16540610Y-8752860D02*
X16365610Y-8927860D01*
X16453110Y-8927860D02*
X16540610Y-8840360D01*
X16453110Y-8752860D01*
X16365610Y-8840360D01*
X16453110Y-8927860D01*
X17712610Y-8412860D02*
X17887610Y-8587860D01*
X17887610Y-8412860D02*
X17712610Y-8587860D01*
X17800110Y-8587860D02*
X17887610Y-8500360D01*
X17800110Y-8412860D01*
X17712610Y-8500360D01*
X17800110Y-8587860D01*
X17712610Y-8752860D02*
X17887610Y-8927860D01*
X17887610Y-8752860D02*
X17712610Y-8927860D01*
X17800110Y-8927860D02*
X17887610Y-8840360D01*
X17800110Y-8752860D01*
X17712610Y-8840360D01*
X17800110Y-8927860D01*
D11*
X10358387Y-15313984D02*
X10358387Y-15113984D01*
X10358387Y-15113984D02*
X10406006Y-15113984D01*
X10406006Y-15113984D02*
X10434577Y-15123508D01*
X10434577Y-15123508D02*
X10453625Y-15142555D01*
X10453625Y-15142555D02*
X10463149Y-15161603D01*
X10463149Y-15161603D02*
X10472673Y-15199698D01*
X10472673Y-15199698D02*
X10472673Y-15228269D01*
X10472673Y-15228269D02*
X10463149Y-15266365D01*
X10463149Y-15266365D02*
X10453625Y-15285412D01*
X10453625Y-15285412D02*
X10434577Y-15304460D01*
X10434577Y-15304460D02*
X10406006Y-15313984D01*
X10406006Y-15313984D02*
X10358387Y-15313984D01*
X10558387Y-15313984D02*
X10558387Y-15180650D01*
X10558387Y-15218746D02*
X10567911Y-15199698D01*
X10567911Y-15199698D02*
X10577434Y-15190174D01*
X10577434Y-15190174D02*
X10596482Y-15180650D01*
X10596482Y-15180650D02*
X10615530Y-15180650D01*
X10682196Y-15313984D02*
X10682196Y-15180650D01*
X10682196Y-15113984D02*
X10672673Y-15123508D01*
X10672673Y-15123508D02*
X10682196Y-15133031D01*
X10682196Y-15133031D02*
X10691720Y-15123508D01*
X10691720Y-15123508D02*
X10682196Y-15113984D01*
X10682196Y-15113984D02*
X10682196Y-15133031D01*
X10806006Y-15313984D02*
X10786958Y-15304460D01*
X10786958Y-15304460D02*
X10777434Y-15285412D01*
X10777434Y-15285412D02*
X10777434Y-15113984D01*
X10910768Y-15313984D02*
X10891720Y-15304460D01*
X10891720Y-15304460D02*
X10882196Y-15285412D01*
X10882196Y-15285412D02*
X10882196Y-15113984D01*
X11139339Y-15313984D02*
X11139339Y-15113984D01*
X11139339Y-15113984D02*
X11206006Y-15256841D01*
X11206006Y-15256841D02*
X11272672Y-15113984D01*
X11272672Y-15113984D02*
X11272672Y-15313984D01*
X11453625Y-15313984D02*
X11453625Y-15209222D01*
X11453625Y-15209222D02*
X11444101Y-15190174D01*
X11444101Y-15190174D02*
X11425053Y-15180650D01*
X11425053Y-15180650D02*
X11386958Y-15180650D01*
X11386958Y-15180650D02*
X11367911Y-15190174D01*
X11453625Y-15304460D02*
X11434577Y-15313984D01*
X11434577Y-15313984D02*
X11386958Y-15313984D01*
X11386958Y-15313984D02*
X11367911Y-15304460D01*
X11367911Y-15304460D02*
X11358387Y-15285412D01*
X11358387Y-15285412D02*
X11358387Y-15266365D01*
X11358387Y-15266365D02*
X11367911Y-15247317D01*
X11367911Y-15247317D02*
X11386958Y-15237793D01*
X11386958Y-15237793D02*
X11434577Y-15237793D01*
X11434577Y-15237793D02*
X11453625Y-15228269D01*
X11548863Y-15180650D02*
X11548863Y-15380650D01*
X11548863Y-15190174D02*
X11567911Y-15180650D01*
X11567911Y-15180650D02*
X11606006Y-15180650D01*
X11606006Y-15180650D02*
X11625053Y-15190174D01*
X11625053Y-15190174D02*
X11634577Y-15199698D01*
X11634577Y-15199698D02*
X11644101Y-15218746D01*
X11644101Y-15218746D02*
X11644101Y-15275888D01*
X11644101Y-15275888D02*
X11634577Y-15294936D01*
X11634577Y-15294936D02*
X11625053Y-15304460D01*
X11625053Y-15304460D02*
X11606006Y-15313984D01*
X11606006Y-15313984D02*
X11567911Y-15313984D01*
X11567911Y-15313984D02*
X11548863Y-15304460D01*
X11729815Y-15294936D02*
X11739339Y-15304460D01*
X11739339Y-15304460D02*
X11729815Y-15313984D01*
X11729815Y-15313984D02*
X11720292Y-15304460D01*
X11720292Y-15304460D02*
X11729815Y-15294936D01*
X11729815Y-15294936D02*
X11729815Y-15313984D01*
X11729815Y-15190174D02*
X11739339Y-15199698D01*
X11739339Y-15199698D02*
X11729815Y-15209222D01*
X11729815Y-15209222D02*
X11720292Y-15199698D01*
X11720292Y-15199698D02*
X11729815Y-15190174D01*
X11729815Y-15190174D02*
X11729815Y-15209222D01*
D12*
X10057610Y-15622500D02*
X10097610Y-15662500D01*
X10097610Y-15622500D02*
X10057610Y-15662500D01*
D11*
X10396482Y-15533984D02*
X10415530Y-15533984D01*
X10415530Y-15533984D02*
X10434577Y-15543508D01*
X10434577Y-15543508D02*
X10444101Y-15553031D01*
X10444101Y-15553031D02*
X10453625Y-15572079D01*
X10453625Y-15572079D02*
X10463149Y-15610174D01*
X10463149Y-15610174D02*
X10463149Y-15657793D01*
X10463149Y-15657793D02*
X10453625Y-15695888D01*
X10453625Y-15695888D02*
X10444101Y-15714936D01*
X10444101Y-15714936D02*
X10434577Y-15724460D01*
X10434577Y-15724460D02*
X10415530Y-15733984D01*
X10415530Y-15733984D02*
X10396482Y-15733984D01*
X10396482Y-15733984D02*
X10377434Y-15724460D01*
X10377434Y-15724460D02*
X10367911Y-15714936D01*
X10367911Y-15714936D02*
X10358387Y-15695888D01*
X10358387Y-15695888D02*
X10348863Y-15657793D01*
X10348863Y-15657793D02*
X10348863Y-15610174D01*
X10348863Y-15610174D02*
X10358387Y-15572079D01*
X10358387Y-15572079D02*
X10367911Y-15553031D01*
X10367911Y-15553031D02*
X10377434Y-15543508D01*
X10377434Y-15543508D02*
X10396482Y-15533984D01*
X10548863Y-15714936D02*
X10558387Y-15724460D01*
X10558387Y-15724460D02*
X10548863Y-15733984D01*
X10548863Y-15733984D02*
X10539339Y-15724460D01*
X10539339Y-15724460D02*
X10548863Y-15714936D01*
X10548863Y-15714936D02*
X10548863Y-15733984D01*
X10729815Y-15600650D02*
X10729815Y-15733984D01*
X10682196Y-15524460D02*
X10634577Y-15667317D01*
X10634577Y-15667317D02*
X10758387Y-15667317D01*
X10872673Y-15533984D02*
X10891720Y-15533984D01*
X10891720Y-15533984D02*
X10910768Y-15543508D01*
X10910768Y-15543508D02*
X10920292Y-15553031D01*
X10920292Y-15553031D02*
X10929815Y-15572079D01*
X10929815Y-15572079D02*
X10939339Y-15610174D01*
X10939339Y-15610174D02*
X10939339Y-15657793D01*
X10939339Y-15657793D02*
X10929815Y-15695888D01*
X10929815Y-15695888D02*
X10920292Y-15714936D01*
X10920292Y-15714936D02*
X10910768Y-15724460D01*
X10910768Y-15724460D02*
X10891720Y-15733984D01*
X10891720Y-15733984D02*
X10872673Y-15733984D01*
X10872673Y-15733984D02*
X10853625Y-15724460D01*
X10853625Y-15724460D02*
X10844101Y-15714936D01*
X10844101Y-15714936D02*
X10834577Y-15695888D01*
X10834577Y-15695888D02*
X10825054Y-15657793D01*
X10825054Y-15657793D02*
X10825054Y-15610174D01*
X10825054Y-15610174D02*
X10834577Y-15572079D01*
X10834577Y-15572079D02*
X10844101Y-15553031D01*
X10844101Y-15553031D02*
X10853625Y-15543508D01*
X10853625Y-15543508D02*
X10872673Y-15533984D01*
X11063149Y-15533984D02*
X11082196Y-15533984D01*
X11082196Y-15533984D02*
X11101244Y-15543508D01*
X11101244Y-15543508D02*
X11110768Y-15553031D01*
X11110768Y-15553031D02*
X11120292Y-15572079D01*
X11120292Y-15572079D02*
X11129815Y-15610174D01*
X11129815Y-15610174D02*
X11129815Y-15657793D01*
X11129815Y-15657793D02*
X11120292Y-15695888D01*
X11120292Y-15695888D02*
X11110768Y-15714936D01*
X11110768Y-15714936D02*
X11101244Y-15724460D01*
X11101244Y-15724460D02*
X11082196Y-15733984D01*
X11082196Y-15733984D02*
X11063149Y-15733984D01*
X11063149Y-15733984D02*
X11044101Y-15724460D01*
X11044101Y-15724460D02*
X11034577Y-15714936D01*
X11034577Y-15714936D02*
X11025054Y-15695888D01*
X11025054Y-15695888D02*
X11015530Y-15657793D01*
X11015530Y-15657793D02*
X11015530Y-15610174D01*
X11015530Y-15610174D02*
X11025054Y-15572079D01*
X11025054Y-15572079D02*
X11034577Y-15553031D01*
X11034577Y-15553031D02*
X11044101Y-15543508D01*
X11044101Y-15543508D02*
X11063149Y-15533984D01*
X11215530Y-15733984D02*
X11215530Y-15600650D01*
X11215530Y-15619698D02*
X11225053Y-15610174D01*
X11225053Y-15610174D02*
X11244101Y-15600650D01*
X11244101Y-15600650D02*
X11272673Y-15600650D01*
X11272673Y-15600650D02*
X11291720Y-15610174D01*
X11291720Y-15610174D02*
X11301244Y-15629222D01*
X11301244Y-15629222D02*
X11301244Y-15733984D01*
X11301244Y-15629222D02*
X11310768Y-15610174D01*
X11310768Y-15610174D02*
X11329815Y-15600650D01*
X11329815Y-15600650D02*
X11358387Y-15600650D01*
X11358387Y-15600650D02*
X11377434Y-15610174D01*
X11377434Y-15610174D02*
X11386958Y-15629222D01*
X11386958Y-15629222D02*
X11386958Y-15733984D01*
X11482196Y-15733984D02*
X11482196Y-15600650D01*
X11482196Y-15619698D02*
X11491720Y-15610174D01*
X11491720Y-15610174D02*
X11510768Y-15600650D01*
X11510768Y-15600650D02*
X11539339Y-15600650D01*
X11539339Y-15600650D02*
X11558387Y-15610174D01*
X11558387Y-15610174D02*
X11567911Y-15629222D01*
X11567911Y-15629222D02*
X11567911Y-15733984D01*
X11567911Y-15629222D02*
X11577434Y-15610174D01*
X11577434Y-15610174D02*
X11596482Y-15600650D01*
X11596482Y-15600650D02*
X11625053Y-15600650D01*
X11625053Y-15600650D02*
X11644101Y-15610174D01*
X11644101Y-15610174D02*
X11653625Y-15629222D01*
X11653625Y-15629222D02*
X11653625Y-15733984D01*
X12044101Y-15524460D02*
X11872673Y-15781603D01*
X12301244Y-15533984D02*
X12320292Y-15533984D01*
X12320292Y-15533984D02*
X12339339Y-15543508D01*
X12339339Y-15543508D02*
X12348863Y-15553031D01*
X12348863Y-15553031D02*
X12358387Y-15572079D01*
X12358387Y-15572079D02*
X12367911Y-15610174D01*
X12367911Y-15610174D02*
X12367911Y-15657793D01*
X12367911Y-15657793D02*
X12358387Y-15695888D01*
X12358387Y-15695888D02*
X12348863Y-15714936D01*
X12348863Y-15714936D02*
X12339339Y-15724460D01*
X12339339Y-15724460D02*
X12320292Y-15733984D01*
X12320292Y-15733984D02*
X12301244Y-15733984D01*
X12301244Y-15733984D02*
X12282196Y-15724460D01*
X12282196Y-15724460D02*
X12272673Y-15714936D01*
X12272673Y-15714936D02*
X12263149Y-15695888D01*
X12263149Y-15695888D02*
X12253625Y-15657793D01*
X12253625Y-15657793D02*
X12253625Y-15610174D01*
X12253625Y-15610174D02*
X12263149Y-15572079D01*
X12263149Y-15572079D02*
X12272673Y-15553031D01*
X12272673Y-15553031D02*
X12282196Y-15543508D01*
X12282196Y-15543508D02*
X12301244Y-15533984D01*
X12453625Y-15714936D02*
X12463149Y-15724460D01*
X12463149Y-15724460D02*
X12453625Y-15733984D01*
X12453625Y-15733984D02*
X12444101Y-15724460D01*
X12444101Y-15724460D02*
X12453625Y-15714936D01*
X12453625Y-15714936D02*
X12453625Y-15733984D01*
X12586958Y-15533984D02*
X12606006Y-15533984D01*
X12606006Y-15533984D02*
X12625054Y-15543508D01*
X12625054Y-15543508D02*
X12634577Y-15553031D01*
X12634577Y-15553031D02*
X12644101Y-15572079D01*
X12644101Y-15572079D02*
X12653625Y-15610174D01*
X12653625Y-15610174D02*
X12653625Y-15657793D01*
X12653625Y-15657793D02*
X12644101Y-15695888D01*
X12644101Y-15695888D02*
X12634577Y-15714936D01*
X12634577Y-15714936D02*
X12625054Y-15724460D01*
X12625054Y-15724460D02*
X12606006Y-15733984D01*
X12606006Y-15733984D02*
X12586958Y-15733984D01*
X12586958Y-15733984D02*
X12567911Y-15724460D01*
X12567911Y-15724460D02*
X12558387Y-15714936D01*
X12558387Y-15714936D02*
X12548863Y-15695888D01*
X12548863Y-15695888D02*
X12539339Y-15657793D01*
X12539339Y-15657793D02*
X12539339Y-15610174D01*
X12539339Y-15610174D02*
X12548863Y-15572079D01*
X12548863Y-15572079D02*
X12558387Y-15553031D01*
X12558387Y-15553031D02*
X12567911Y-15543508D01*
X12567911Y-15543508D02*
X12586958Y-15533984D01*
X12844101Y-15733984D02*
X12729816Y-15733984D01*
X12786958Y-15733984D02*
X12786958Y-15533984D01*
X12786958Y-15533984D02*
X12767911Y-15562555D01*
X12767911Y-15562555D02*
X12748863Y-15581603D01*
X12748863Y-15581603D02*
X12729816Y-15591127D01*
X13025054Y-15533984D02*
X12929816Y-15533984D01*
X12929816Y-15533984D02*
X12920292Y-15629222D01*
X12920292Y-15629222D02*
X12929816Y-15619698D01*
X12929816Y-15619698D02*
X12948863Y-15610174D01*
X12948863Y-15610174D02*
X12996482Y-15610174D01*
X12996482Y-15610174D02*
X13015530Y-15619698D01*
X13015530Y-15619698D02*
X13025054Y-15629222D01*
X13025054Y-15629222D02*
X13034577Y-15648269D01*
X13034577Y-15648269D02*
X13034577Y-15695888D01*
X13034577Y-15695888D02*
X13025054Y-15714936D01*
X13025054Y-15714936D02*
X13015530Y-15724460D01*
X13015530Y-15724460D02*
X12996482Y-15733984D01*
X12996482Y-15733984D02*
X12948863Y-15733984D01*
X12948863Y-15733984D02*
X12929816Y-15724460D01*
X12929816Y-15724460D02*
X12920292Y-15714936D01*
X13101244Y-15533984D02*
X13234577Y-15533984D01*
X13234577Y-15533984D02*
X13148863Y-15733984D01*
X13301244Y-15533984D02*
X13301244Y-15572079D01*
X13377435Y-15533984D02*
X13377435Y-15572079D01*
X13672673Y-15810174D02*
X13663149Y-15800650D01*
X13663149Y-15800650D02*
X13644101Y-15772079D01*
X13644101Y-15772079D02*
X13634578Y-15753031D01*
X13634578Y-15753031D02*
X13625054Y-15724460D01*
X13625054Y-15724460D02*
X13615530Y-15676841D01*
X13615530Y-15676841D02*
X13615530Y-15638746D01*
X13615530Y-15638746D02*
X13625054Y-15591127D01*
X13625054Y-15591127D02*
X13634578Y-15562555D01*
X13634578Y-15562555D02*
X13644101Y-15543508D01*
X13644101Y-15543508D02*
X13663149Y-15514936D01*
X13663149Y-15514936D02*
X13672673Y-15505412D01*
X13729816Y-15533984D02*
X13853625Y-15533984D01*
X13853625Y-15533984D02*
X13786958Y-15610174D01*
X13786958Y-15610174D02*
X13815530Y-15610174D01*
X13815530Y-15610174D02*
X13834578Y-15619698D01*
X13834578Y-15619698D02*
X13844101Y-15629222D01*
X13844101Y-15629222D02*
X13853625Y-15648269D01*
X13853625Y-15648269D02*
X13853625Y-15695888D01*
X13853625Y-15695888D02*
X13844101Y-15714936D01*
X13844101Y-15714936D02*
X13834578Y-15724460D01*
X13834578Y-15724460D02*
X13815530Y-15733984D01*
X13815530Y-15733984D02*
X13758387Y-15733984D01*
X13758387Y-15733984D02*
X13739339Y-15724460D01*
X13739339Y-15724460D02*
X13729816Y-15714936D01*
X13948863Y-15733984D02*
X13986958Y-15733984D01*
X13986958Y-15733984D02*
X14006006Y-15724460D01*
X14006006Y-15724460D02*
X14015530Y-15714936D01*
X14015530Y-15714936D02*
X14034578Y-15686365D01*
X14034578Y-15686365D02*
X14044101Y-15648269D01*
X14044101Y-15648269D02*
X14044101Y-15572079D01*
X14044101Y-15572079D02*
X14034578Y-15553031D01*
X14034578Y-15553031D02*
X14025054Y-15543508D01*
X14025054Y-15543508D02*
X14006006Y-15533984D01*
X14006006Y-15533984D02*
X13967911Y-15533984D01*
X13967911Y-15533984D02*
X13948863Y-15543508D01*
X13948863Y-15543508D02*
X13939339Y-15553031D01*
X13939339Y-15553031D02*
X13929816Y-15572079D01*
X13929816Y-15572079D02*
X13929816Y-15619698D01*
X13929816Y-15619698D02*
X13939339Y-15638746D01*
X13939339Y-15638746D02*
X13948863Y-15648269D01*
X13948863Y-15648269D02*
X13967911Y-15657793D01*
X13967911Y-15657793D02*
X14006006Y-15657793D01*
X14006006Y-15657793D02*
X14025054Y-15648269D01*
X14025054Y-15648269D02*
X14034578Y-15638746D01*
X14034578Y-15638746D02*
X14044101Y-15619698D01*
X14282197Y-15733984D02*
X14282197Y-15533984D01*
X14367911Y-15733984D02*
X14367911Y-15629222D01*
X14367911Y-15629222D02*
X14358387Y-15610174D01*
X14358387Y-15610174D02*
X14339340Y-15600650D01*
X14339340Y-15600650D02*
X14310768Y-15600650D01*
X14310768Y-15600650D02*
X14291720Y-15610174D01*
X14291720Y-15610174D02*
X14282197Y-15619698D01*
X14491720Y-15733984D02*
X14472673Y-15724460D01*
X14472673Y-15724460D02*
X14463149Y-15714936D01*
X14463149Y-15714936D02*
X14453625Y-15695888D01*
X14453625Y-15695888D02*
X14453625Y-15638746D01*
X14453625Y-15638746D02*
X14463149Y-15619698D01*
X14463149Y-15619698D02*
X14472673Y-15610174D01*
X14472673Y-15610174D02*
X14491720Y-15600650D01*
X14491720Y-15600650D02*
X14520292Y-15600650D01*
X14520292Y-15600650D02*
X14539340Y-15610174D01*
X14539340Y-15610174D02*
X14548863Y-15619698D01*
X14548863Y-15619698D02*
X14558387Y-15638746D01*
X14558387Y-15638746D02*
X14558387Y-15695888D01*
X14558387Y-15695888D02*
X14548863Y-15714936D01*
X14548863Y-15714936D02*
X14539340Y-15724460D01*
X14539340Y-15724460D02*
X14520292Y-15733984D01*
X14520292Y-15733984D02*
X14491720Y-15733984D01*
X14672673Y-15733984D02*
X14653625Y-15724460D01*
X14653625Y-15724460D02*
X14644101Y-15705412D01*
X14644101Y-15705412D02*
X14644101Y-15533984D01*
X14825054Y-15724460D02*
X14806006Y-15733984D01*
X14806006Y-15733984D02*
X14767911Y-15733984D01*
X14767911Y-15733984D02*
X14748863Y-15724460D01*
X14748863Y-15724460D02*
X14739340Y-15705412D01*
X14739340Y-15705412D02*
X14739340Y-15629222D01*
X14739340Y-15629222D02*
X14748863Y-15610174D01*
X14748863Y-15610174D02*
X14767911Y-15600650D01*
X14767911Y-15600650D02*
X14806006Y-15600650D01*
X14806006Y-15600650D02*
X14825054Y-15610174D01*
X14825054Y-15610174D02*
X14834578Y-15629222D01*
X14834578Y-15629222D02*
X14834578Y-15648269D01*
X14834578Y-15648269D02*
X14739340Y-15667317D01*
X14910768Y-15724460D02*
X14929816Y-15733984D01*
X14929816Y-15733984D02*
X14967911Y-15733984D01*
X14967911Y-15733984D02*
X14986959Y-15724460D01*
X14986959Y-15724460D02*
X14996482Y-15705412D01*
X14996482Y-15705412D02*
X14996482Y-15695888D01*
X14996482Y-15695888D02*
X14986959Y-15676841D01*
X14986959Y-15676841D02*
X14967911Y-15667317D01*
X14967911Y-15667317D02*
X14939340Y-15667317D01*
X14939340Y-15667317D02*
X14920292Y-15657793D01*
X14920292Y-15657793D02*
X14910768Y-15638746D01*
X14910768Y-15638746D02*
X14910768Y-15629222D01*
X14910768Y-15629222D02*
X14920292Y-15610174D01*
X14920292Y-15610174D02*
X14939340Y-15600650D01*
X14939340Y-15600650D02*
X14967911Y-15600650D01*
X14967911Y-15600650D02*
X14986959Y-15610174D01*
X15063149Y-15810174D02*
X15072673Y-15800650D01*
X15072673Y-15800650D02*
X15091721Y-15772079D01*
X15091721Y-15772079D02*
X15101244Y-15753031D01*
X15101244Y-15753031D02*
X15110768Y-15724460D01*
X15110768Y-15724460D02*
X15120292Y-15676841D01*
X15120292Y-15676841D02*
X15120292Y-15638746D01*
X15120292Y-15638746D02*
X15110768Y-15591127D01*
X15110768Y-15591127D02*
X15101244Y-15562555D01*
X15101244Y-15562555D02*
X15091721Y-15543508D01*
X15091721Y-15543508D02*
X15072673Y-15514936D01*
X15072673Y-15514936D02*
X15063149Y-15505412D01*
D12*
X10097610Y-15906500D02*
G75*
G02*
X10047610Y-15906500I-25000J0D01*
G01*
X10047610Y-15906500D02*
G75*
G02*
X10097610Y-15906500I25000J0D01*
G01*
D11*
X10396482Y-15797984D02*
X10415530Y-15797984D01*
X10415530Y-15797984D02*
X10434577Y-15807508D01*
X10434577Y-15807508D02*
X10444101Y-15817031D01*
X10444101Y-15817031D02*
X10453625Y-15836079D01*
X10453625Y-15836079D02*
X10463149Y-15874174D01*
X10463149Y-15874174D02*
X10463149Y-15921793D01*
X10463149Y-15921793D02*
X10453625Y-15959888D01*
X10453625Y-15959888D02*
X10444101Y-15978936D01*
X10444101Y-15978936D02*
X10434577Y-15988460D01*
X10434577Y-15988460D02*
X10415530Y-15997984D01*
X10415530Y-15997984D02*
X10396482Y-15997984D01*
X10396482Y-15997984D02*
X10377434Y-15988460D01*
X10377434Y-15988460D02*
X10367911Y-15978936D01*
X10367911Y-15978936D02*
X10358387Y-15959888D01*
X10358387Y-15959888D02*
X10348863Y-15921793D01*
X10348863Y-15921793D02*
X10348863Y-15874174D01*
X10348863Y-15874174D02*
X10358387Y-15836079D01*
X10358387Y-15836079D02*
X10367911Y-15817031D01*
X10367911Y-15817031D02*
X10377434Y-15807508D01*
X10377434Y-15807508D02*
X10396482Y-15797984D01*
X10548863Y-15978936D02*
X10558387Y-15988460D01*
X10558387Y-15988460D02*
X10548863Y-15997984D01*
X10548863Y-15997984D02*
X10539339Y-15988460D01*
X10539339Y-15988460D02*
X10548863Y-15978936D01*
X10548863Y-15978936D02*
X10548863Y-15997984D01*
X10739339Y-15797984D02*
X10644101Y-15797984D01*
X10644101Y-15797984D02*
X10634577Y-15893222D01*
X10634577Y-15893222D02*
X10644101Y-15883698D01*
X10644101Y-15883698D02*
X10663149Y-15874174D01*
X10663149Y-15874174D02*
X10710768Y-15874174D01*
X10710768Y-15874174D02*
X10729815Y-15883698D01*
X10729815Y-15883698D02*
X10739339Y-15893222D01*
X10739339Y-15893222D02*
X10748863Y-15912269D01*
X10748863Y-15912269D02*
X10748863Y-15959888D01*
X10748863Y-15959888D02*
X10739339Y-15978936D01*
X10739339Y-15978936D02*
X10729815Y-15988460D01*
X10729815Y-15988460D02*
X10710768Y-15997984D01*
X10710768Y-15997984D02*
X10663149Y-15997984D01*
X10663149Y-15997984D02*
X10644101Y-15988460D01*
X10644101Y-15988460D02*
X10634577Y-15978936D01*
X10872673Y-15797984D02*
X10891720Y-15797984D01*
X10891720Y-15797984D02*
X10910768Y-15807508D01*
X10910768Y-15807508D02*
X10920292Y-15817031D01*
X10920292Y-15817031D02*
X10929815Y-15836079D01*
X10929815Y-15836079D02*
X10939339Y-15874174D01*
X10939339Y-15874174D02*
X10939339Y-15921793D01*
X10939339Y-15921793D02*
X10929815Y-15959888D01*
X10929815Y-15959888D02*
X10920292Y-15978936D01*
X10920292Y-15978936D02*
X10910768Y-15988460D01*
X10910768Y-15988460D02*
X10891720Y-15997984D01*
X10891720Y-15997984D02*
X10872673Y-15997984D01*
X10872673Y-15997984D02*
X10853625Y-15988460D01*
X10853625Y-15988460D02*
X10844101Y-15978936D01*
X10844101Y-15978936D02*
X10834577Y-15959888D01*
X10834577Y-15959888D02*
X10825054Y-15921793D01*
X10825054Y-15921793D02*
X10825054Y-15874174D01*
X10825054Y-15874174D02*
X10834577Y-15836079D01*
X10834577Y-15836079D02*
X10844101Y-15817031D01*
X10844101Y-15817031D02*
X10853625Y-15807508D01*
X10853625Y-15807508D02*
X10872673Y-15797984D01*
X11063149Y-15797984D02*
X11082196Y-15797984D01*
X11082196Y-15797984D02*
X11101244Y-15807508D01*
X11101244Y-15807508D02*
X11110768Y-15817031D01*
X11110768Y-15817031D02*
X11120292Y-15836079D01*
X11120292Y-15836079D02*
X11129815Y-15874174D01*
X11129815Y-15874174D02*
X11129815Y-15921793D01*
X11129815Y-15921793D02*
X11120292Y-15959888D01*
X11120292Y-15959888D02*
X11110768Y-15978936D01*
X11110768Y-15978936D02*
X11101244Y-15988460D01*
X11101244Y-15988460D02*
X11082196Y-15997984D01*
X11082196Y-15997984D02*
X11063149Y-15997984D01*
X11063149Y-15997984D02*
X11044101Y-15988460D01*
X11044101Y-15988460D02*
X11034577Y-15978936D01*
X11034577Y-15978936D02*
X11025054Y-15959888D01*
X11025054Y-15959888D02*
X11015530Y-15921793D01*
X11015530Y-15921793D02*
X11015530Y-15874174D01*
X11015530Y-15874174D02*
X11025054Y-15836079D01*
X11025054Y-15836079D02*
X11034577Y-15817031D01*
X11034577Y-15817031D02*
X11044101Y-15807508D01*
X11044101Y-15807508D02*
X11063149Y-15797984D01*
X11215530Y-15997984D02*
X11215530Y-15864650D01*
X11215530Y-15883698D02*
X11225053Y-15874174D01*
X11225053Y-15874174D02*
X11244101Y-15864650D01*
X11244101Y-15864650D02*
X11272673Y-15864650D01*
X11272673Y-15864650D02*
X11291720Y-15874174D01*
X11291720Y-15874174D02*
X11301244Y-15893222D01*
X11301244Y-15893222D02*
X11301244Y-15997984D01*
X11301244Y-15893222D02*
X11310768Y-15874174D01*
X11310768Y-15874174D02*
X11329815Y-15864650D01*
X11329815Y-15864650D02*
X11358387Y-15864650D01*
X11358387Y-15864650D02*
X11377434Y-15874174D01*
X11377434Y-15874174D02*
X11386958Y-15893222D01*
X11386958Y-15893222D02*
X11386958Y-15997984D01*
X11482196Y-15997984D02*
X11482196Y-15864650D01*
X11482196Y-15883698D02*
X11491720Y-15874174D01*
X11491720Y-15874174D02*
X11510768Y-15864650D01*
X11510768Y-15864650D02*
X11539339Y-15864650D01*
X11539339Y-15864650D02*
X11558387Y-15874174D01*
X11558387Y-15874174D02*
X11567911Y-15893222D01*
X11567911Y-15893222D02*
X11567911Y-15997984D01*
X11567911Y-15893222D02*
X11577434Y-15874174D01*
X11577434Y-15874174D02*
X11596482Y-15864650D01*
X11596482Y-15864650D02*
X11625053Y-15864650D01*
X11625053Y-15864650D02*
X11644101Y-15874174D01*
X11644101Y-15874174D02*
X11653625Y-15893222D01*
X11653625Y-15893222D02*
X11653625Y-15997984D01*
X12044101Y-15788460D02*
X11872673Y-16045603D01*
X12301244Y-15797984D02*
X12320292Y-15797984D01*
X12320292Y-15797984D02*
X12339339Y-15807508D01*
X12339339Y-15807508D02*
X12348863Y-15817031D01*
X12348863Y-15817031D02*
X12358387Y-15836079D01*
X12358387Y-15836079D02*
X12367911Y-15874174D01*
X12367911Y-15874174D02*
X12367911Y-15921793D01*
X12367911Y-15921793D02*
X12358387Y-15959888D01*
X12358387Y-15959888D02*
X12348863Y-15978936D01*
X12348863Y-15978936D02*
X12339339Y-15988460D01*
X12339339Y-15988460D02*
X12320292Y-15997984D01*
X12320292Y-15997984D02*
X12301244Y-15997984D01*
X12301244Y-15997984D02*
X12282196Y-15988460D01*
X12282196Y-15988460D02*
X12272673Y-15978936D01*
X12272673Y-15978936D02*
X12263149Y-15959888D01*
X12263149Y-15959888D02*
X12253625Y-15921793D01*
X12253625Y-15921793D02*
X12253625Y-15874174D01*
X12253625Y-15874174D02*
X12263149Y-15836079D01*
X12263149Y-15836079D02*
X12272673Y-15817031D01*
X12272673Y-15817031D02*
X12282196Y-15807508D01*
X12282196Y-15807508D02*
X12301244Y-15797984D01*
X12453625Y-15978936D02*
X12463149Y-15988460D01*
X12463149Y-15988460D02*
X12453625Y-15997984D01*
X12453625Y-15997984D02*
X12444101Y-15988460D01*
X12444101Y-15988460D02*
X12453625Y-15978936D01*
X12453625Y-15978936D02*
X12453625Y-15997984D01*
X12586958Y-15797984D02*
X12606006Y-15797984D01*
X12606006Y-15797984D02*
X12625054Y-15807508D01*
X12625054Y-15807508D02*
X12634577Y-15817031D01*
X12634577Y-15817031D02*
X12644101Y-15836079D01*
X12644101Y-15836079D02*
X12653625Y-15874174D01*
X12653625Y-15874174D02*
X12653625Y-15921793D01*
X12653625Y-15921793D02*
X12644101Y-15959888D01*
X12644101Y-15959888D02*
X12634577Y-15978936D01*
X12634577Y-15978936D02*
X12625054Y-15988460D01*
X12625054Y-15988460D02*
X12606006Y-15997984D01*
X12606006Y-15997984D02*
X12586958Y-15997984D01*
X12586958Y-15997984D02*
X12567911Y-15988460D01*
X12567911Y-15988460D02*
X12558387Y-15978936D01*
X12558387Y-15978936D02*
X12548863Y-15959888D01*
X12548863Y-15959888D02*
X12539339Y-15921793D01*
X12539339Y-15921793D02*
X12539339Y-15874174D01*
X12539339Y-15874174D02*
X12548863Y-15836079D01*
X12548863Y-15836079D02*
X12558387Y-15817031D01*
X12558387Y-15817031D02*
X12567911Y-15807508D01*
X12567911Y-15807508D02*
X12586958Y-15797984D01*
X12844101Y-15997984D02*
X12729816Y-15997984D01*
X12786958Y-15997984D02*
X12786958Y-15797984D01*
X12786958Y-15797984D02*
X12767911Y-15826555D01*
X12767911Y-15826555D02*
X12748863Y-15845603D01*
X12748863Y-15845603D02*
X12729816Y-15855127D01*
X12939339Y-15997984D02*
X12977435Y-15997984D01*
X12977435Y-15997984D02*
X12996482Y-15988460D01*
X12996482Y-15988460D02*
X13006006Y-15978936D01*
X13006006Y-15978936D02*
X13025054Y-15950365D01*
X13025054Y-15950365D02*
X13034577Y-15912269D01*
X13034577Y-15912269D02*
X13034577Y-15836079D01*
X13034577Y-15836079D02*
X13025054Y-15817031D01*
X13025054Y-15817031D02*
X13015530Y-15807508D01*
X13015530Y-15807508D02*
X12996482Y-15797984D01*
X12996482Y-15797984D02*
X12958387Y-15797984D01*
X12958387Y-15797984D02*
X12939339Y-15807508D01*
X12939339Y-15807508D02*
X12929816Y-15817031D01*
X12929816Y-15817031D02*
X12920292Y-15836079D01*
X12920292Y-15836079D02*
X12920292Y-15883698D01*
X12920292Y-15883698D02*
X12929816Y-15902746D01*
X12929816Y-15902746D02*
X12939339Y-15912269D01*
X12939339Y-15912269D02*
X12958387Y-15921793D01*
X12958387Y-15921793D02*
X12996482Y-15921793D01*
X12996482Y-15921793D02*
X13015530Y-15912269D01*
X13015530Y-15912269D02*
X13025054Y-15902746D01*
X13025054Y-15902746D02*
X13034577Y-15883698D01*
X13101244Y-15797984D02*
X13234577Y-15797984D01*
X13234577Y-15797984D02*
X13148863Y-15997984D01*
X13301244Y-15797984D02*
X13301244Y-15836079D01*
X13377435Y-15797984D02*
X13377435Y-15836079D01*
X13672673Y-16074174D02*
X13663149Y-16064650D01*
X13663149Y-16064650D02*
X13644101Y-16036079D01*
X13644101Y-16036079D02*
X13634578Y-16017031D01*
X13634578Y-16017031D02*
X13625054Y-15988460D01*
X13625054Y-15988460D02*
X13615530Y-15940841D01*
X13615530Y-15940841D02*
X13615530Y-15902746D01*
X13615530Y-15902746D02*
X13625054Y-15855127D01*
X13625054Y-15855127D02*
X13634578Y-15826555D01*
X13634578Y-15826555D02*
X13644101Y-15807508D01*
X13644101Y-15807508D02*
X13663149Y-15778936D01*
X13663149Y-15778936D02*
X13672673Y-15769412D01*
X13853625Y-15997984D02*
X13739339Y-15997984D01*
X13796482Y-15997984D02*
X13796482Y-15797984D01*
X13796482Y-15797984D02*
X13777435Y-15826555D01*
X13777435Y-15826555D02*
X13758387Y-15845603D01*
X13758387Y-15845603D02*
X13739339Y-15855127D01*
X13977435Y-15797984D02*
X13996482Y-15797984D01*
X13996482Y-15797984D02*
X14015530Y-15807508D01*
X14015530Y-15807508D02*
X14025054Y-15817031D01*
X14025054Y-15817031D02*
X14034578Y-15836079D01*
X14034578Y-15836079D02*
X14044101Y-15874174D01*
X14044101Y-15874174D02*
X14044101Y-15921793D01*
X14044101Y-15921793D02*
X14034578Y-15959888D01*
X14034578Y-15959888D02*
X14025054Y-15978936D01*
X14025054Y-15978936D02*
X14015530Y-15988460D01*
X14015530Y-15988460D02*
X13996482Y-15997984D01*
X13996482Y-15997984D02*
X13977435Y-15997984D01*
X13977435Y-15997984D02*
X13958387Y-15988460D01*
X13958387Y-15988460D02*
X13948863Y-15978936D01*
X13948863Y-15978936D02*
X13939339Y-15959888D01*
X13939339Y-15959888D02*
X13929816Y-15921793D01*
X13929816Y-15921793D02*
X13929816Y-15874174D01*
X13929816Y-15874174D02*
X13939339Y-15836079D01*
X13939339Y-15836079D02*
X13948863Y-15817031D01*
X13948863Y-15817031D02*
X13958387Y-15807508D01*
X13958387Y-15807508D02*
X13977435Y-15797984D01*
X14139339Y-15997984D02*
X14177435Y-15997984D01*
X14177435Y-15997984D02*
X14196482Y-15988460D01*
X14196482Y-15988460D02*
X14206006Y-15978936D01*
X14206006Y-15978936D02*
X14225054Y-15950365D01*
X14225054Y-15950365D02*
X14234578Y-15912269D01*
X14234578Y-15912269D02*
X14234578Y-15836079D01*
X14234578Y-15836079D02*
X14225054Y-15817031D01*
X14225054Y-15817031D02*
X14215530Y-15807508D01*
X14215530Y-15807508D02*
X14196482Y-15797984D01*
X14196482Y-15797984D02*
X14158387Y-15797984D01*
X14158387Y-15797984D02*
X14139339Y-15807508D01*
X14139339Y-15807508D02*
X14129816Y-15817031D01*
X14129816Y-15817031D02*
X14120292Y-15836079D01*
X14120292Y-15836079D02*
X14120292Y-15883698D01*
X14120292Y-15883698D02*
X14129816Y-15902746D01*
X14129816Y-15902746D02*
X14139339Y-15912269D01*
X14139339Y-15912269D02*
X14158387Y-15921793D01*
X14158387Y-15921793D02*
X14196482Y-15921793D01*
X14196482Y-15921793D02*
X14215530Y-15912269D01*
X14215530Y-15912269D02*
X14225054Y-15902746D01*
X14225054Y-15902746D02*
X14234578Y-15883698D01*
X14472673Y-15997984D02*
X14472673Y-15797984D01*
X14558387Y-15997984D02*
X14558387Y-15893222D01*
X14558387Y-15893222D02*
X14548863Y-15874174D01*
X14548863Y-15874174D02*
X14529816Y-15864650D01*
X14529816Y-15864650D02*
X14501244Y-15864650D01*
X14501244Y-15864650D02*
X14482197Y-15874174D01*
X14482197Y-15874174D02*
X14472673Y-15883698D01*
X14682197Y-15997984D02*
X14663149Y-15988460D01*
X14663149Y-15988460D02*
X14653625Y-15978936D01*
X14653625Y-15978936D02*
X14644101Y-15959888D01*
X14644101Y-15959888D02*
X14644101Y-15902746D01*
X14644101Y-15902746D02*
X14653625Y-15883698D01*
X14653625Y-15883698D02*
X14663149Y-15874174D01*
X14663149Y-15874174D02*
X14682197Y-15864650D01*
X14682197Y-15864650D02*
X14710768Y-15864650D01*
X14710768Y-15864650D02*
X14729816Y-15874174D01*
X14729816Y-15874174D02*
X14739340Y-15883698D01*
X14739340Y-15883698D02*
X14748863Y-15902746D01*
X14748863Y-15902746D02*
X14748863Y-15959888D01*
X14748863Y-15959888D02*
X14739340Y-15978936D01*
X14739340Y-15978936D02*
X14729816Y-15988460D01*
X14729816Y-15988460D02*
X14710768Y-15997984D01*
X14710768Y-15997984D02*
X14682197Y-15997984D01*
X14863149Y-15997984D02*
X14844101Y-15988460D01*
X14844101Y-15988460D02*
X14834578Y-15969412D01*
X14834578Y-15969412D02*
X14834578Y-15797984D01*
X15015530Y-15988460D02*
X14996482Y-15997984D01*
X14996482Y-15997984D02*
X14958387Y-15997984D01*
X14958387Y-15997984D02*
X14939340Y-15988460D01*
X14939340Y-15988460D02*
X14929816Y-15969412D01*
X14929816Y-15969412D02*
X14929816Y-15893222D01*
X14929816Y-15893222D02*
X14939340Y-15874174D01*
X14939340Y-15874174D02*
X14958387Y-15864650D01*
X14958387Y-15864650D02*
X14996482Y-15864650D01*
X14996482Y-15864650D02*
X15015530Y-15874174D01*
X15015530Y-15874174D02*
X15025054Y-15893222D01*
X15025054Y-15893222D02*
X15025054Y-15912269D01*
X15025054Y-15912269D02*
X14929816Y-15931317D01*
X15101244Y-15988460D02*
X15120292Y-15997984D01*
X15120292Y-15997984D02*
X15158387Y-15997984D01*
X15158387Y-15997984D02*
X15177435Y-15988460D01*
X15177435Y-15988460D02*
X15186959Y-15969412D01*
X15186959Y-15969412D02*
X15186959Y-15959888D01*
X15186959Y-15959888D02*
X15177435Y-15940841D01*
X15177435Y-15940841D02*
X15158387Y-15931317D01*
X15158387Y-15931317D02*
X15129816Y-15931317D01*
X15129816Y-15931317D02*
X15110768Y-15921793D01*
X15110768Y-15921793D02*
X15101244Y-15902746D01*
X15101244Y-15902746D02*
X15101244Y-15893222D01*
X15101244Y-15893222D02*
X15110768Y-15874174D01*
X15110768Y-15874174D02*
X15129816Y-15864650D01*
X15129816Y-15864650D02*
X15158387Y-15864650D01*
X15158387Y-15864650D02*
X15177435Y-15874174D01*
X15253625Y-16074174D02*
X15263149Y-16064650D01*
X15263149Y-16064650D02*
X15282197Y-16036079D01*
X15282197Y-16036079D02*
X15291721Y-16017031D01*
X15291721Y-16017031D02*
X15301244Y-15988460D01*
X15301244Y-15988460D02*
X15310768Y-15940841D01*
X15310768Y-15940841D02*
X15310768Y-15902746D01*
X15310768Y-15902746D02*
X15301244Y-15855127D01*
X15301244Y-15855127D02*
X15291721Y-15826555D01*
X15291721Y-15826555D02*
X15282197Y-15807508D01*
X15282197Y-15807508D02*
X15263149Y-15778936D01*
X15263149Y-15778936D02*
X15253625Y-15769412D01*
D12*
X10052610Y-16125500D02*
X10052610Y-16215500D01*
X10007610Y-16170500D02*
X10097610Y-16170500D01*
D11*
X10396482Y-16061984D02*
X10415530Y-16061984D01*
X10415530Y-16061984D02*
X10434577Y-16071508D01*
X10434577Y-16071508D02*
X10444101Y-16081031D01*
X10444101Y-16081031D02*
X10453625Y-16100079D01*
X10453625Y-16100079D02*
X10463149Y-16138174D01*
X10463149Y-16138174D02*
X10463149Y-16185793D01*
X10463149Y-16185793D02*
X10453625Y-16223888D01*
X10453625Y-16223888D02*
X10444101Y-16242936D01*
X10444101Y-16242936D02*
X10434577Y-16252460D01*
X10434577Y-16252460D02*
X10415530Y-16261984D01*
X10415530Y-16261984D02*
X10396482Y-16261984D01*
X10396482Y-16261984D02*
X10377434Y-16252460D01*
X10377434Y-16252460D02*
X10367911Y-16242936D01*
X10367911Y-16242936D02*
X10358387Y-16223888D01*
X10358387Y-16223888D02*
X10348863Y-16185793D01*
X10348863Y-16185793D02*
X10348863Y-16138174D01*
X10348863Y-16138174D02*
X10358387Y-16100079D01*
X10358387Y-16100079D02*
X10367911Y-16081031D01*
X10367911Y-16081031D02*
X10377434Y-16071508D01*
X10377434Y-16071508D02*
X10396482Y-16061984D01*
X10548863Y-16242936D02*
X10558387Y-16252460D01*
X10558387Y-16252460D02*
X10548863Y-16261984D01*
X10548863Y-16261984D02*
X10539339Y-16252460D01*
X10539339Y-16252460D02*
X10548863Y-16242936D01*
X10548863Y-16242936D02*
X10548863Y-16261984D01*
X10653625Y-16261984D02*
X10691720Y-16261984D01*
X10691720Y-16261984D02*
X10710768Y-16252460D01*
X10710768Y-16252460D02*
X10720292Y-16242936D01*
X10720292Y-16242936D02*
X10739339Y-16214365D01*
X10739339Y-16214365D02*
X10748863Y-16176269D01*
X10748863Y-16176269D02*
X10748863Y-16100079D01*
X10748863Y-16100079D02*
X10739339Y-16081031D01*
X10739339Y-16081031D02*
X10729815Y-16071508D01*
X10729815Y-16071508D02*
X10710768Y-16061984D01*
X10710768Y-16061984D02*
X10672673Y-16061984D01*
X10672673Y-16061984D02*
X10653625Y-16071508D01*
X10653625Y-16071508D02*
X10644101Y-16081031D01*
X10644101Y-16081031D02*
X10634577Y-16100079D01*
X10634577Y-16100079D02*
X10634577Y-16147698D01*
X10634577Y-16147698D02*
X10644101Y-16166746D01*
X10644101Y-16166746D02*
X10653625Y-16176269D01*
X10653625Y-16176269D02*
X10672673Y-16185793D01*
X10672673Y-16185793D02*
X10710768Y-16185793D01*
X10710768Y-16185793D02*
X10729815Y-16176269D01*
X10729815Y-16176269D02*
X10739339Y-16166746D01*
X10739339Y-16166746D02*
X10748863Y-16147698D01*
X10872673Y-16061984D02*
X10891720Y-16061984D01*
X10891720Y-16061984D02*
X10910768Y-16071508D01*
X10910768Y-16071508D02*
X10920292Y-16081031D01*
X10920292Y-16081031D02*
X10929815Y-16100079D01*
X10929815Y-16100079D02*
X10939339Y-16138174D01*
X10939339Y-16138174D02*
X10939339Y-16185793D01*
X10939339Y-16185793D02*
X10929815Y-16223888D01*
X10929815Y-16223888D02*
X10920292Y-16242936D01*
X10920292Y-16242936D02*
X10910768Y-16252460D01*
X10910768Y-16252460D02*
X10891720Y-16261984D01*
X10891720Y-16261984D02*
X10872673Y-16261984D01*
X10872673Y-16261984D02*
X10853625Y-16252460D01*
X10853625Y-16252460D02*
X10844101Y-16242936D01*
X10844101Y-16242936D02*
X10834577Y-16223888D01*
X10834577Y-16223888D02*
X10825054Y-16185793D01*
X10825054Y-16185793D02*
X10825054Y-16138174D01*
X10825054Y-16138174D02*
X10834577Y-16100079D01*
X10834577Y-16100079D02*
X10844101Y-16081031D01*
X10844101Y-16081031D02*
X10853625Y-16071508D01*
X10853625Y-16071508D02*
X10872673Y-16061984D01*
X11063149Y-16061984D02*
X11082196Y-16061984D01*
X11082196Y-16061984D02*
X11101244Y-16071508D01*
X11101244Y-16071508D02*
X11110768Y-16081031D01*
X11110768Y-16081031D02*
X11120292Y-16100079D01*
X11120292Y-16100079D02*
X11129815Y-16138174D01*
X11129815Y-16138174D02*
X11129815Y-16185793D01*
X11129815Y-16185793D02*
X11120292Y-16223888D01*
X11120292Y-16223888D02*
X11110768Y-16242936D01*
X11110768Y-16242936D02*
X11101244Y-16252460D01*
X11101244Y-16252460D02*
X11082196Y-16261984D01*
X11082196Y-16261984D02*
X11063149Y-16261984D01*
X11063149Y-16261984D02*
X11044101Y-16252460D01*
X11044101Y-16252460D02*
X11034577Y-16242936D01*
X11034577Y-16242936D02*
X11025054Y-16223888D01*
X11025054Y-16223888D02*
X11015530Y-16185793D01*
X11015530Y-16185793D02*
X11015530Y-16138174D01*
X11015530Y-16138174D02*
X11025054Y-16100079D01*
X11025054Y-16100079D02*
X11034577Y-16081031D01*
X11034577Y-16081031D02*
X11044101Y-16071508D01*
X11044101Y-16071508D02*
X11063149Y-16061984D01*
X11215530Y-16261984D02*
X11215530Y-16128650D01*
X11215530Y-16147698D02*
X11225053Y-16138174D01*
X11225053Y-16138174D02*
X11244101Y-16128650D01*
X11244101Y-16128650D02*
X11272673Y-16128650D01*
X11272673Y-16128650D02*
X11291720Y-16138174D01*
X11291720Y-16138174D02*
X11301244Y-16157222D01*
X11301244Y-16157222D02*
X11301244Y-16261984D01*
X11301244Y-16157222D02*
X11310768Y-16138174D01*
X11310768Y-16138174D02*
X11329815Y-16128650D01*
X11329815Y-16128650D02*
X11358387Y-16128650D01*
X11358387Y-16128650D02*
X11377434Y-16138174D01*
X11377434Y-16138174D02*
X11386958Y-16157222D01*
X11386958Y-16157222D02*
X11386958Y-16261984D01*
X11482196Y-16261984D02*
X11482196Y-16128650D01*
X11482196Y-16147698D02*
X11491720Y-16138174D01*
X11491720Y-16138174D02*
X11510768Y-16128650D01*
X11510768Y-16128650D02*
X11539339Y-16128650D01*
X11539339Y-16128650D02*
X11558387Y-16138174D01*
X11558387Y-16138174D02*
X11567911Y-16157222D01*
X11567911Y-16157222D02*
X11567911Y-16261984D01*
X11567911Y-16157222D02*
X11577434Y-16138174D01*
X11577434Y-16138174D02*
X11596482Y-16128650D01*
X11596482Y-16128650D02*
X11625053Y-16128650D01*
X11625053Y-16128650D02*
X11644101Y-16138174D01*
X11644101Y-16138174D02*
X11653625Y-16157222D01*
X11653625Y-16157222D02*
X11653625Y-16261984D01*
X12044101Y-16052460D02*
X11872673Y-16309603D01*
X12301244Y-16061984D02*
X12320292Y-16061984D01*
X12320292Y-16061984D02*
X12339339Y-16071508D01*
X12339339Y-16071508D02*
X12348863Y-16081031D01*
X12348863Y-16081031D02*
X12358387Y-16100079D01*
X12358387Y-16100079D02*
X12367911Y-16138174D01*
X12367911Y-16138174D02*
X12367911Y-16185793D01*
X12367911Y-16185793D02*
X12358387Y-16223888D01*
X12358387Y-16223888D02*
X12348863Y-16242936D01*
X12348863Y-16242936D02*
X12339339Y-16252460D01*
X12339339Y-16252460D02*
X12320292Y-16261984D01*
X12320292Y-16261984D02*
X12301244Y-16261984D01*
X12301244Y-16261984D02*
X12282196Y-16252460D01*
X12282196Y-16252460D02*
X12272673Y-16242936D01*
X12272673Y-16242936D02*
X12263149Y-16223888D01*
X12263149Y-16223888D02*
X12253625Y-16185793D01*
X12253625Y-16185793D02*
X12253625Y-16138174D01*
X12253625Y-16138174D02*
X12263149Y-16100079D01*
X12263149Y-16100079D02*
X12272673Y-16081031D01*
X12272673Y-16081031D02*
X12282196Y-16071508D01*
X12282196Y-16071508D02*
X12301244Y-16061984D01*
X12453625Y-16242936D02*
X12463149Y-16252460D01*
X12463149Y-16252460D02*
X12453625Y-16261984D01*
X12453625Y-16261984D02*
X12444101Y-16252460D01*
X12444101Y-16252460D02*
X12453625Y-16242936D01*
X12453625Y-16242936D02*
X12453625Y-16261984D01*
X12586958Y-16061984D02*
X12606006Y-16061984D01*
X12606006Y-16061984D02*
X12625054Y-16071508D01*
X12625054Y-16071508D02*
X12634577Y-16081031D01*
X12634577Y-16081031D02*
X12644101Y-16100079D01*
X12644101Y-16100079D02*
X12653625Y-16138174D01*
X12653625Y-16138174D02*
X12653625Y-16185793D01*
X12653625Y-16185793D02*
X12644101Y-16223888D01*
X12644101Y-16223888D02*
X12634577Y-16242936D01*
X12634577Y-16242936D02*
X12625054Y-16252460D01*
X12625054Y-16252460D02*
X12606006Y-16261984D01*
X12606006Y-16261984D02*
X12586958Y-16261984D01*
X12586958Y-16261984D02*
X12567911Y-16252460D01*
X12567911Y-16252460D02*
X12558387Y-16242936D01*
X12558387Y-16242936D02*
X12548863Y-16223888D01*
X12548863Y-16223888D02*
X12539339Y-16185793D01*
X12539339Y-16185793D02*
X12539339Y-16138174D01*
X12539339Y-16138174D02*
X12548863Y-16100079D01*
X12548863Y-16100079D02*
X12558387Y-16081031D01*
X12558387Y-16081031D02*
X12567911Y-16071508D01*
X12567911Y-16071508D02*
X12586958Y-16061984D01*
X12720292Y-16061984D02*
X12844101Y-16061984D01*
X12844101Y-16061984D02*
X12777435Y-16138174D01*
X12777435Y-16138174D02*
X12806006Y-16138174D01*
X12806006Y-16138174D02*
X12825054Y-16147698D01*
X12825054Y-16147698D02*
X12834577Y-16157222D01*
X12834577Y-16157222D02*
X12844101Y-16176269D01*
X12844101Y-16176269D02*
X12844101Y-16223888D01*
X12844101Y-16223888D02*
X12834577Y-16242936D01*
X12834577Y-16242936D02*
X12825054Y-16252460D01*
X12825054Y-16252460D02*
X12806006Y-16261984D01*
X12806006Y-16261984D02*
X12748863Y-16261984D01*
X12748863Y-16261984D02*
X12729816Y-16252460D01*
X12729816Y-16252460D02*
X12720292Y-16242936D01*
X13025054Y-16061984D02*
X12929816Y-16061984D01*
X12929816Y-16061984D02*
X12920292Y-16157222D01*
X12920292Y-16157222D02*
X12929816Y-16147698D01*
X12929816Y-16147698D02*
X12948863Y-16138174D01*
X12948863Y-16138174D02*
X12996482Y-16138174D01*
X12996482Y-16138174D02*
X13015530Y-16147698D01*
X13015530Y-16147698D02*
X13025054Y-16157222D01*
X13025054Y-16157222D02*
X13034577Y-16176269D01*
X13034577Y-16176269D02*
X13034577Y-16223888D01*
X13034577Y-16223888D02*
X13025054Y-16242936D01*
X13025054Y-16242936D02*
X13015530Y-16252460D01*
X13015530Y-16252460D02*
X12996482Y-16261984D01*
X12996482Y-16261984D02*
X12948863Y-16261984D01*
X12948863Y-16261984D02*
X12929816Y-16252460D01*
X12929816Y-16252460D02*
X12920292Y-16242936D01*
X13206006Y-16128650D02*
X13206006Y-16261984D01*
X13158387Y-16052460D02*
X13110768Y-16195317D01*
X13110768Y-16195317D02*
X13234577Y-16195317D01*
X13301244Y-16061984D02*
X13301244Y-16100079D01*
X13377435Y-16061984D02*
X13377435Y-16100079D01*
X13672673Y-16338174D02*
X13663149Y-16328650D01*
X13663149Y-16328650D02*
X13644101Y-16300079D01*
X13644101Y-16300079D02*
X13634578Y-16281031D01*
X13634578Y-16281031D02*
X13625054Y-16252460D01*
X13625054Y-16252460D02*
X13615530Y-16204841D01*
X13615530Y-16204841D02*
X13615530Y-16166746D01*
X13615530Y-16166746D02*
X13625054Y-16119127D01*
X13625054Y-16119127D02*
X13634578Y-16090555D01*
X13634578Y-16090555D02*
X13644101Y-16071508D01*
X13644101Y-16071508D02*
X13663149Y-16042936D01*
X13663149Y-16042936D02*
X13672673Y-16033412D01*
X13834578Y-16128650D02*
X13834578Y-16261984D01*
X13786958Y-16052460D02*
X13739339Y-16195317D01*
X13739339Y-16195317D02*
X13863149Y-16195317D01*
X14091720Y-16261984D02*
X14091720Y-16061984D01*
X14177435Y-16261984D02*
X14177435Y-16157222D01*
X14177435Y-16157222D02*
X14167911Y-16138174D01*
X14167911Y-16138174D02*
X14148863Y-16128650D01*
X14148863Y-16128650D02*
X14120292Y-16128650D01*
X14120292Y-16128650D02*
X14101244Y-16138174D01*
X14101244Y-16138174D02*
X14091720Y-16147698D01*
X14301244Y-16261984D02*
X14282197Y-16252460D01*
X14282197Y-16252460D02*
X14272673Y-16242936D01*
X14272673Y-16242936D02*
X14263149Y-16223888D01*
X14263149Y-16223888D02*
X14263149Y-16166746D01*
X14263149Y-16166746D02*
X14272673Y-16147698D01*
X14272673Y-16147698D02*
X14282197Y-16138174D01*
X14282197Y-16138174D02*
X14301244Y-16128650D01*
X14301244Y-16128650D02*
X14329816Y-16128650D01*
X14329816Y-16128650D02*
X14348863Y-16138174D01*
X14348863Y-16138174D02*
X14358387Y-16147698D01*
X14358387Y-16147698D02*
X14367911Y-16166746D01*
X14367911Y-16166746D02*
X14367911Y-16223888D01*
X14367911Y-16223888D02*
X14358387Y-16242936D01*
X14358387Y-16242936D02*
X14348863Y-16252460D01*
X14348863Y-16252460D02*
X14329816Y-16261984D01*
X14329816Y-16261984D02*
X14301244Y-16261984D01*
X14482197Y-16261984D02*
X14463149Y-16252460D01*
X14463149Y-16252460D02*
X14453625Y-16233412D01*
X14453625Y-16233412D02*
X14453625Y-16061984D01*
X14634578Y-16252460D02*
X14615530Y-16261984D01*
X14615530Y-16261984D02*
X14577435Y-16261984D01*
X14577435Y-16261984D02*
X14558387Y-16252460D01*
X14558387Y-16252460D02*
X14548863Y-16233412D01*
X14548863Y-16233412D02*
X14548863Y-16157222D01*
X14548863Y-16157222D02*
X14558387Y-16138174D01*
X14558387Y-16138174D02*
X14577435Y-16128650D01*
X14577435Y-16128650D02*
X14615530Y-16128650D01*
X14615530Y-16128650D02*
X14634578Y-16138174D01*
X14634578Y-16138174D02*
X14644101Y-16157222D01*
X14644101Y-16157222D02*
X14644101Y-16176269D01*
X14644101Y-16176269D02*
X14548863Y-16195317D01*
X14720292Y-16252460D02*
X14739340Y-16261984D01*
X14739340Y-16261984D02*
X14777435Y-16261984D01*
X14777435Y-16261984D02*
X14796482Y-16252460D01*
X14796482Y-16252460D02*
X14806006Y-16233412D01*
X14806006Y-16233412D02*
X14806006Y-16223888D01*
X14806006Y-16223888D02*
X14796482Y-16204841D01*
X14796482Y-16204841D02*
X14777435Y-16195317D01*
X14777435Y-16195317D02*
X14748863Y-16195317D01*
X14748863Y-16195317D02*
X14729816Y-16185793D01*
X14729816Y-16185793D02*
X14720292Y-16166746D01*
X14720292Y-16166746D02*
X14720292Y-16157222D01*
X14720292Y-16157222D02*
X14729816Y-16138174D01*
X14729816Y-16138174D02*
X14748863Y-16128650D01*
X14748863Y-16128650D02*
X14777435Y-16128650D01*
X14777435Y-16128650D02*
X14796482Y-16138174D01*
X14872673Y-16338174D02*
X14882197Y-16328650D01*
X14882197Y-16328650D02*
X14901244Y-16300079D01*
X14901244Y-16300079D02*
X14910768Y-16281031D01*
X14910768Y-16281031D02*
X14920292Y-16252460D01*
X14920292Y-16252460D02*
X14929816Y-16204841D01*
X14929816Y-16204841D02*
X14929816Y-16166746D01*
X14929816Y-16166746D02*
X14920292Y-16119127D01*
X14920292Y-16119127D02*
X14910768Y-16090555D01*
X14910768Y-16090555D02*
X14901244Y-16071508D01*
X14901244Y-16071508D02*
X14882197Y-16042936D01*
X14882197Y-16042936D02*
X14872673Y-16033412D01*
D12*
X10082966Y-16469856D02*
X10082966Y-16399144D01*
X10012254Y-16399144D01*
X10012254Y-16469856D01*
X10082966Y-16469856D01*
D11*
X10463149Y-16525984D02*
X10348863Y-16525984D01*
X10406006Y-16525984D02*
X10406006Y-16325984D01*
X10406006Y-16325984D02*
X10386958Y-16354555D01*
X10386958Y-16354555D02*
X10367911Y-16373603D01*
X10367911Y-16373603D02*
X10348863Y-16383127D01*
X10548863Y-16506936D02*
X10558387Y-16516460D01*
X10558387Y-16516460D02*
X10548863Y-16525984D01*
X10548863Y-16525984D02*
X10539339Y-16516460D01*
X10539339Y-16516460D02*
X10548863Y-16506936D01*
X10548863Y-16506936D02*
X10548863Y-16525984D01*
X10682196Y-16325984D02*
X10701244Y-16325984D01*
X10701244Y-16325984D02*
X10720292Y-16335508D01*
X10720292Y-16335508D02*
X10729815Y-16345031D01*
X10729815Y-16345031D02*
X10739339Y-16364079D01*
X10739339Y-16364079D02*
X10748863Y-16402174D01*
X10748863Y-16402174D02*
X10748863Y-16449793D01*
X10748863Y-16449793D02*
X10739339Y-16487888D01*
X10739339Y-16487888D02*
X10729815Y-16506936D01*
X10729815Y-16506936D02*
X10720292Y-16516460D01*
X10720292Y-16516460D02*
X10701244Y-16525984D01*
X10701244Y-16525984D02*
X10682196Y-16525984D01*
X10682196Y-16525984D02*
X10663149Y-16516460D01*
X10663149Y-16516460D02*
X10653625Y-16506936D01*
X10653625Y-16506936D02*
X10644101Y-16487888D01*
X10644101Y-16487888D02*
X10634577Y-16449793D01*
X10634577Y-16449793D02*
X10634577Y-16402174D01*
X10634577Y-16402174D02*
X10644101Y-16364079D01*
X10644101Y-16364079D02*
X10653625Y-16345031D01*
X10653625Y-16345031D02*
X10663149Y-16335508D01*
X10663149Y-16335508D02*
X10682196Y-16325984D01*
X10872673Y-16325984D02*
X10891720Y-16325984D01*
X10891720Y-16325984D02*
X10910768Y-16335508D01*
X10910768Y-16335508D02*
X10920292Y-16345031D01*
X10920292Y-16345031D02*
X10929815Y-16364079D01*
X10929815Y-16364079D02*
X10939339Y-16402174D01*
X10939339Y-16402174D02*
X10939339Y-16449793D01*
X10939339Y-16449793D02*
X10929815Y-16487888D01*
X10929815Y-16487888D02*
X10920292Y-16506936D01*
X10920292Y-16506936D02*
X10910768Y-16516460D01*
X10910768Y-16516460D02*
X10891720Y-16525984D01*
X10891720Y-16525984D02*
X10872673Y-16525984D01*
X10872673Y-16525984D02*
X10853625Y-16516460D01*
X10853625Y-16516460D02*
X10844101Y-16506936D01*
X10844101Y-16506936D02*
X10834577Y-16487888D01*
X10834577Y-16487888D02*
X10825054Y-16449793D01*
X10825054Y-16449793D02*
X10825054Y-16402174D01*
X10825054Y-16402174D02*
X10834577Y-16364079D01*
X10834577Y-16364079D02*
X10844101Y-16345031D01*
X10844101Y-16345031D02*
X10853625Y-16335508D01*
X10853625Y-16335508D02*
X10872673Y-16325984D01*
X11063149Y-16325984D02*
X11082196Y-16325984D01*
X11082196Y-16325984D02*
X11101244Y-16335508D01*
X11101244Y-16335508D02*
X11110768Y-16345031D01*
X11110768Y-16345031D02*
X11120292Y-16364079D01*
X11120292Y-16364079D02*
X11129815Y-16402174D01*
X11129815Y-16402174D02*
X11129815Y-16449793D01*
X11129815Y-16449793D02*
X11120292Y-16487888D01*
X11120292Y-16487888D02*
X11110768Y-16506936D01*
X11110768Y-16506936D02*
X11101244Y-16516460D01*
X11101244Y-16516460D02*
X11082196Y-16525984D01*
X11082196Y-16525984D02*
X11063149Y-16525984D01*
X11063149Y-16525984D02*
X11044101Y-16516460D01*
X11044101Y-16516460D02*
X11034577Y-16506936D01*
X11034577Y-16506936D02*
X11025054Y-16487888D01*
X11025054Y-16487888D02*
X11015530Y-16449793D01*
X11015530Y-16449793D02*
X11015530Y-16402174D01*
X11015530Y-16402174D02*
X11025054Y-16364079D01*
X11025054Y-16364079D02*
X11034577Y-16345031D01*
X11034577Y-16345031D02*
X11044101Y-16335508D01*
X11044101Y-16335508D02*
X11063149Y-16325984D01*
X11215530Y-16525984D02*
X11215530Y-16392650D01*
X11215530Y-16411698D02*
X11225053Y-16402174D01*
X11225053Y-16402174D02*
X11244101Y-16392650D01*
X11244101Y-16392650D02*
X11272673Y-16392650D01*
X11272673Y-16392650D02*
X11291720Y-16402174D01*
X11291720Y-16402174D02*
X11301244Y-16421222D01*
X11301244Y-16421222D02*
X11301244Y-16525984D01*
X11301244Y-16421222D02*
X11310768Y-16402174D01*
X11310768Y-16402174D02*
X11329815Y-16392650D01*
X11329815Y-16392650D02*
X11358387Y-16392650D01*
X11358387Y-16392650D02*
X11377434Y-16402174D01*
X11377434Y-16402174D02*
X11386958Y-16421222D01*
X11386958Y-16421222D02*
X11386958Y-16525984D01*
X11482196Y-16525984D02*
X11482196Y-16392650D01*
X11482196Y-16411698D02*
X11491720Y-16402174D01*
X11491720Y-16402174D02*
X11510768Y-16392650D01*
X11510768Y-16392650D02*
X11539339Y-16392650D01*
X11539339Y-16392650D02*
X11558387Y-16402174D01*
X11558387Y-16402174D02*
X11567911Y-16421222D01*
X11567911Y-16421222D02*
X11567911Y-16525984D01*
X11567911Y-16421222D02*
X11577434Y-16402174D01*
X11577434Y-16402174D02*
X11596482Y-16392650D01*
X11596482Y-16392650D02*
X11625053Y-16392650D01*
X11625053Y-16392650D02*
X11644101Y-16402174D01*
X11644101Y-16402174D02*
X11653625Y-16421222D01*
X11653625Y-16421222D02*
X11653625Y-16525984D01*
X12044101Y-16316460D02*
X11872673Y-16573603D01*
X12301244Y-16325984D02*
X12320292Y-16325984D01*
X12320292Y-16325984D02*
X12339339Y-16335508D01*
X12339339Y-16335508D02*
X12348863Y-16345031D01*
X12348863Y-16345031D02*
X12358387Y-16364079D01*
X12358387Y-16364079D02*
X12367911Y-16402174D01*
X12367911Y-16402174D02*
X12367911Y-16449793D01*
X12367911Y-16449793D02*
X12358387Y-16487888D01*
X12358387Y-16487888D02*
X12348863Y-16506936D01*
X12348863Y-16506936D02*
X12339339Y-16516460D01*
X12339339Y-16516460D02*
X12320292Y-16525984D01*
X12320292Y-16525984D02*
X12301244Y-16525984D01*
X12301244Y-16525984D02*
X12282196Y-16516460D01*
X12282196Y-16516460D02*
X12272673Y-16506936D01*
X12272673Y-16506936D02*
X12263149Y-16487888D01*
X12263149Y-16487888D02*
X12253625Y-16449793D01*
X12253625Y-16449793D02*
X12253625Y-16402174D01*
X12253625Y-16402174D02*
X12263149Y-16364079D01*
X12263149Y-16364079D02*
X12272673Y-16345031D01*
X12272673Y-16345031D02*
X12282196Y-16335508D01*
X12282196Y-16335508D02*
X12301244Y-16325984D01*
X12453625Y-16506936D02*
X12463149Y-16516460D01*
X12463149Y-16516460D02*
X12453625Y-16525984D01*
X12453625Y-16525984D02*
X12444101Y-16516460D01*
X12444101Y-16516460D02*
X12453625Y-16506936D01*
X12453625Y-16506936D02*
X12453625Y-16525984D01*
X12586958Y-16325984D02*
X12606006Y-16325984D01*
X12606006Y-16325984D02*
X12625054Y-16335508D01*
X12625054Y-16335508D02*
X12634577Y-16345031D01*
X12634577Y-16345031D02*
X12644101Y-16364079D01*
X12644101Y-16364079D02*
X12653625Y-16402174D01*
X12653625Y-16402174D02*
X12653625Y-16449793D01*
X12653625Y-16449793D02*
X12644101Y-16487888D01*
X12644101Y-16487888D02*
X12634577Y-16506936D01*
X12634577Y-16506936D02*
X12625054Y-16516460D01*
X12625054Y-16516460D02*
X12606006Y-16525984D01*
X12606006Y-16525984D02*
X12586958Y-16525984D01*
X12586958Y-16525984D02*
X12567911Y-16516460D01*
X12567911Y-16516460D02*
X12558387Y-16506936D01*
X12558387Y-16506936D02*
X12548863Y-16487888D01*
X12548863Y-16487888D02*
X12539339Y-16449793D01*
X12539339Y-16449793D02*
X12539339Y-16402174D01*
X12539339Y-16402174D02*
X12548863Y-16364079D01*
X12548863Y-16364079D02*
X12558387Y-16345031D01*
X12558387Y-16345031D02*
X12567911Y-16335508D01*
X12567911Y-16335508D02*
X12586958Y-16325984D01*
X12720292Y-16325984D02*
X12844101Y-16325984D01*
X12844101Y-16325984D02*
X12777435Y-16402174D01*
X12777435Y-16402174D02*
X12806006Y-16402174D01*
X12806006Y-16402174D02*
X12825054Y-16411698D01*
X12825054Y-16411698D02*
X12834577Y-16421222D01*
X12834577Y-16421222D02*
X12844101Y-16440269D01*
X12844101Y-16440269D02*
X12844101Y-16487888D01*
X12844101Y-16487888D02*
X12834577Y-16506936D01*
X12834577Y-16506936D02*
X12825054Y-16516460D01*
X12825054Y-16516460D02*
X12806006Y-16525984D01*
X12806006Y-16525984D02*
X12748863Y-16525984D01*
X12748863Y-16525984D02*
X12729816Y-16516460D01*
X12729816Y-16516460D02*
X12720292Y-16506936D01*
X12939339Y-16525984D02*
X12977435Y-16525984D01*
X12977435Y-16525984D02*
X12996482Y-16516460D01*
X12996482Y-16516460D02*
X13006006Y-16506936D01*
X13006006Y-16506936D02*
X13025054Y-16478365D01*
X13025054Y-16478365D02*
X13034577Y-16440269D01*
X13034577Y-16440269D02*
X13034577Y-16364079D01*
X13034577Y-16364079D02*
X13025054Y-16345031D01*
X13025054Y-16345031D02*
X13015530Y-16335508D01*
X13015530Y-16335508D02*
X12996482Y-16325984D01*
X12996482Y-16325984D02*
X12958387Y-16325984D01*
X12958387Y-16325984D02*
X12939339Y-16335508D01*
X12939339Y-16335508D02*
X12929816Y-16345031D01*
X12929816Y-16345031D02*
X12920292Y-16364079D01*
X12920292Y-16364079D02*
X12920292Y-16411698D01*
X12920292Y-16411698D02*
X12929816Y-16430746D01*
X12929816Y-16430746D02*
X12939339Y-16440269D01*
X12939339Y-16440269D02*
X12958387Y-16449793D01*
X12958387Y-16449793D02*
X12996482Y-16449793D01*
X12996482Y-16449793D02*
X13015530Y-16440269D01*
X13015530Y-16440269D02*
X13025054Y-16430746D01*
X13025054Y-16430746D02*
X13034577Y-16411698D01*
X13206006Y-16392650D02*
X13206006Y-16525984D01*
X13158387Y-16316460D02*
X13110768Y-16459317D01*
X13110768Y-16459317D02*
X13234577Y-16459317D01*
X13301244Y-16325984D02*
X13301244Y-16364079D01*
X13377435Y-16325984D02*
X13377435Y-16364079D01*
X13672673Y-16602174D02*
X13663149Y-16592650D01*
X13663149Y-16592650D02*
X13644101Y-16564079D01*
X13644101Y-16564079D02*
X13634578Y-16545031D01*
X13634578Y-16545031D02*
X13625054Y-16516460D01*
X13625054Y-16516460D02*
X13615530Y-16468841D01*
X13615530Y-16468841D02*
X13615530Y-16430746D01*
X13615530Y-16430746D02*
X13625054Y-16383127D01*
X13625054Y-16383127D02*
X13634578Y-16354555D01*
X13634578Y-16354555D02*
X13644101Y-16335508D01*
X13644101Y-16335508D02*
X13663149Y-16306936D01*
X13663149Y-16306936D02*
X13672673Y-16297412D01*
X13834578Y-16392650D02*
X13834578Y-16525984D01*
X13786958Y-16316460D02*
X13739339Y-16459317D01*
X13739339Y-16459317D02*
X13863149Y-16459317D01*
X13977435Y-16325984D02*
X13996482Y-16325984D01*
X13996482Y-16325984D02*
X14015530Y-16335508D01*
X14015530Y-16335508D02*
X14025054Y-16345031D01*
X14025054Y-16345031D02*
X14034578Y-16364079D01*
X14034578Y-16364079D02*
X14044101Y-16402174D01*
X14044101Y-16402174D02*
X14044101Y-16449793D01*
X14044101Y-16449793D02*
X14034578Y-16487888D01*
X14034578Y-16487888D02*
X14025054Y-16506936D01*
X14025054Y-16506936D02*
X14015530Y-16516460D01*
X14015530Y-16516460D02*
X13996482Y-16525984D01*
X13996482Y-16525984D02*
X13977435Y-16525984D01*
X13977435Y-16525984D02*
X13958387Y-16516460D01*
X13958387Y-16516460D02*
X13948863Y-16506936D01*
X13948863Y-16506936D02*
X13939339Y-16487888D01*
X13939339Y-16487888D02*
X13929816Y-16449793D01*
X13929816Y-16449793D02*
X13929816Y-16402174D01*
X13929816Y-16402174D02*
X13939339Y-16364079D01*
X13939339Y-16364079D02*
X13948863Y-16345031D01*
X13948863Y-16345031D02*
X13958387Y-16335508D01*
X13958387Y-16335508D02*
X13977435Y-16325984D01*
X14282197Y-16525984D02*
X14282197Y-16325984D01*
X14367911Y-16525984D02*
X14367911Y-16421222D01*
X14367911Y-16421222D02*
X14358387Y-16402174D01*
X14358387Y-16402174D02*
X14339340Y-16392650D01*
X14339340Y-16392650D02*
X14310768Y-16392650D01*
X14310768Y-16392650D02*
X14291720Y-16402174D01*
X14291720Y-16402174D02*
X14282197Y-16411698D01*
X14491720Y-16525984D02*
X14472673Y-16516460D01*
X14472673Y-16516460D02*
X14463149Y-16506936D01*
X14463149Y-16506936D02*
X14453625Y-16487888D01*
X14453625Y-16487888D02*
X14453625Y-16430746D01*
X14453625Y-16430746D02*
X14463149Y-16411698D01*
X14463149Y-16411698D02*
X14472673Y-16402174D01*
X14472673Y-16402174D02*
X14491720Y-16392650D01*
X14491720Y-16392650D02*
X14520292Y-16392650D01*
X14520292Y-16392650D02*
X14539340Y-16402174D01*
X14539340Y-16402174D02*
X14548863Y-16411698D01*
X14548863Y-16411698D02*
X14558387Y-16430746D01*
X14558387Y-16430746D02*
X14558387Y-16487888D01*
X14558387Y-16487888D02*
X14548863Y-16506936D01*
X14548863Y-16506936D02*
X14539340Y-16516460D01*
X14539340Y-16516460D02*
X14520292Y-16525984D01*
X14520292Y-16525984D02*
X14491720Y-16525984D01*
X14672673Y-16525984D02*
X14653625Y-16516460D01*
X14653625Y-16516460D02*
X14644101Y-16497412D01*
X14644101Y-16497412D02*
X14644101Y-16325984D01*
X14825054Y-16516460D02*
X14806006Y-16525984D01*
X14806006Y-16525984D02*
X14767911Y-16525984D01*
X14767911Y-16525984D02*
X14748863Y-16516460D01*
X14748863Y-16516460D02*
X14739340Y-16497412D01*
X14739340Y-16497412D02*
X14739340Y-16421222D01*
X14739340Y-16421222D02*
X14748863Y-16402174D01*
X14748863Y-16402174D02*
X14767911Y-16392650D01*
X14767911Y-16392650D02*
X14806006Y-16392650D01*
X14806006Y-16392650D02*
X14825054Y-16402174D01*
X14825054Y-16402174D02*
X14834578Y-16421222D01*
X14834578Y-16421222D02*
X14834578Y-16440269D01*
X14834578Y-16440269D02*
X14739340Y-16459317D01*
X14910768Y-16516460D02*
X14929816Y-16525984D01*
X14929816Y-16525984D02*
X14967911Y-16525984D01*
X14967911Y-16525984D02*
X14986959Y-16516460D01*
X14986959Y-16516460D02*
X14996482Y-16497412D01*
X14996482Y-16497412D02*
X14996482Y-16487888D01*
X14996482Y-16487888D02*
X14986959Y-16468841D01*
X14986959Y-16468841D02*
X14967911Y-16459317D01*
X14967911Y-16459317D02*
X14939340Y-16459317D01*
X14939340Y-16459317D02*
X14920292Y-16449793D01*
X14920292Y-16449793D02*
X14910768Y-16430746D01*
X14910768Y-16430746D02*
X14910768Y-16421222D01*
X14910768Y-16421222D02*
X14920292Y-16402174D01*
X14920292Y-16402174D02*
X14939340Y-16392650D01*
X14939340Y-16392650D02*
X14967911Y-16392650D01*
X14967911Y-16392650D02*
X14986959Y-16402174D01*
X15063149Y-16602174D02*
X15072673Y-16592650D01*
X15072673Y-16592650D02*
X15091721Y-16564079D01*
X15091721Y-16564079D02*
X15101244Y-16545031D01*
X15101244Y-16545031D02*
X15110768Y-16516460D01*
X15110768Y-16516460D02*
X15120292Y-16468841D01*
X15120292Y-16468841D02*
X15120292Y-16430746D01*
X15120292Y-16430746D02*
X15110768Y-16383127D01*
X15110768Y-16383127D02*
X15101244Y-16354555D01*
X15101244Y-16354555D02*
X15091721Y-16335508D01*
X15091721Y-16335508D02*
X15072673Y-16306936D01*
X15072673Y-16306936D02*
X15063149Y-16297412D01*
D13*
X10046810Y-16749300D02*
X10097610Y-16698500D01*
X10046810Y-16647700D01*
X9996010Y-16698500D01*
X10046810Y-16749300D01*
D11*
X10463149Y-16789984D02*
X10348863Y-16789984D01*
X10406006Y-16789984D02*
X10406006Y-16589984D01*
X10406006Y-16589984D02*
X10386958Y-16618555D01*
X10386958Y-16618555D02*
X10367911Y-16637603D01*
X10367911Y-16637603D02*
X10348863Y-16647127D01*
X10548863Y-16770936D02*
X10558387Y-16780460D01*
X10558387Y-16780460D02*
X10548863Y-16789984D01*
X10548863Y-16789984D02*
X10539339Y-16780460D01*
X10539339Y-16780460D02*
X10548863Y-16770936D01*
X10548863Y-16770936D02*
X10548863Y-16789984D01*
X10682196Y-16589984D02*
X10701244Y-16589984D01*
X10701244Y-16589984D02*
X10720292Y-16599508D01*
X10720292Y-16599508D02*
X10729815Y-16609031D01*
X10729815Y-16609031D02*
X10739339Y-16628079D01*
X10739339Y-16628079D02*
X10748863Y-16666174D01*
X10748863Y-16666174D02*
X10748863Y-16713793D01*
X10748863Y-16713793D02*
X10739339Y-16751888D01*
X10739339Y-16751888D02*
X10729815Y-16770936D01*
X10729815Y-16770936D02*
X10720292Y-16780460D01*
X10720292Y-16780460D02*
X10701244Y-16789984D01*
X10701244Y-16789984D02*
X10682196Y-16789984D01*
X10682196Y-16789984D02*
X10663149Y-16780460D01*
X10663149Y-16780460D02*
X10653625Y-16770936D01*
X10653625Y-16770936D02*
X10644101Y-16751888D01*
X10644101Y-16751888D02*
X10634577Y-16713793D01*
X10634577Y-16713793D02*
X10634577Y-16666174D01*
X10634577Y-16666174D02*
X10644101Y-16628079D01*
X10644101Y-16628079D02*
X10653625Y-16609031D01*
X10653625Y-16609031D02*
X10663149Y-16599508D01*
X10663149Y-16599508D02*
X10682196Y-16589984D01*
X10939339Y-16789984D02*
X10825054Y-16789984D01*
X10882196Y-16789984D02*
X10882196Y-16589984D01*
X10882196Y-16589984D02*
X10863149Y-16618555D01*
X10863149Y-16618555D02*
X10844101Y-16637603D01*
X10844101Y-16637603D02*
X10825054Y-16647127D01*
X11110768Y-16589984D02*
X11072673Y-16589984D01*
X11072673Y-16589984D02*
X11053625Y-16599508D01*
X11053625Y-16599508D02*
X11044101Y-16609031D01*
X11044101Y-16609031D02*
X11025054Y-16637603D01*
X11025054Y-16637603D02*
X11015530Y-16675698D01*
X11015530Y-16675698D02*
X11015530Y-16751888D01*
X11015530Y-16751888D02*
X11025054Y-16770936D01*
X11025054Y-16770936D02*
X11034577Y-16780460D01*
X11034577Y-16780460D02*
X11053625Y-16789984D01*
X11053625Y-16789984D02*
X11091720Y-16789984D01*
X11091720Y-16789984D02*
X11110768Y-16780460D01*
X11110768Y-16780460D02*
X11120292Y-16770936D01*
X11120292Y-16770936D02*
X11129815Y-16751888D01*
X11129815Y-16751888D02*
X11129815Y-16704269D01*
X11129815Y-16704269D02*
X11120292Y-16685222D01*
X11120292Y-16685222D02*
X11110768Y-16675698D01*
X11110768Y-16675698D02*
X11091720Y-16666174D01*
X11091720Y-16666174D02*
X11053625Y-16666174D01*
X11053625Y-16666174D02*
X11034577Y-16675698D01*
X11034577Y-16675698D02*
X11025054Y-16685222D01*
X11025054Y-16685222D02*
X11015530Y-16704269D01*
X11215530Y-16789984D02*
X11215530Y-16656650D01*
X11215530Y-16675698D02*
X11225053Y-16666174D01*
X11225053Y-16666174D02*
X11244101Y-16656650D01*
X11244101Y-16656650D02*
X11272673Y-16656650D01*
X11272673Y-16656650D02*
X11291720Y-16666174D01*
X11291720Y-16666174D02*
X11301244Y-16685222D01*
X11301244Y-16685222D02*
X11301244Y-16789984D01*
X11301244Y-16685222D02*
X11310768Y-16666174D01*
X11310768Y-16666174D02*
X11329815Y-16656650D01*
X11329815Y-16656650D02*
X11358387Y-16656650D01*
X11358387Y-16656650D02*
X11377434Y-16666174D01*
X11377434Y-16666174D02*
X11386958Y-16685222D01*
X11386958Y-16685222D02*
X11386958Y-16789984D01*
X11482196Y-16789984D02*
X11482196Y-16656650D01*
X11482196Y-16675698D02*
X11491720Y-16666174D01*
X11491720Y-16666174D02*
X11510768Y-16656650D01*
X11510768Y-16656650D02*
X11539339Y-16656650D01*
X11539339Y-16656650D02*
X11558387Y-16666174D01*
X11558387Y-16666174D02*
X11567911Y-16685222D01*
X11567911Y-16685222D02*
X11567911Y-16789984D01*
X11567911Y-16685222D02*
X11577434Y-16666174D01*
X11577434Y-16666174D02*
X11596482Y-16656650D01*
X11596482Y-16656650D02*
X11625053Y-16656650D01*
X11625053Y-16656650D02*
X11644101Y-16666174D01*
X11644101Y-16666174D02*
X11653625Y-16685222D01*
X11653625Y-16685222D02*
X11653625Y-16789984D01*
X12044101Y-16580460D02*
X11872673Y-16837603D01*
X12301244Y-16589984D02*
X12320292Y-16589984D01*
X12320292Y-16589984D02*
X12339339Y-16599508D01*
X12339339Y-16599508D02*
X12348863Y-16609031D01*
X12348863Y-16609031D02*
X12358387Y-16628079D01*
X12358387Y-16628079D02*
X12367911Y-16666174D01*
X12367911Y-16666174D02*
X12367911Y-16713793D01*
X12367911Y-16713793D02*
X12358387Y-16751888D01*
X12358387Y-16751888D02*
X12348863Y-16770936D01*
X12348863Y-16770936D02*
X12339339Y-16780460D01*
X12339339Y-16780460D02*
X12320292Y-16789984D01*
X12320292Y-16789984D02*
X12301244Y-16789984D01*
X12301244Y-16789984D02*
X12282196Y-16780460D01*
X12282196Y-16780460D02*
X12272673Y-16770936D01*
X12272673Y-16770936D02*
X12263149Y-16751888D01*
X12263149Y-16751888D02*
X12253625Y-16713793D01*
X12253625Y-16713793D02*
X12253625Y-16666174D01*
X12253625Y-16666174D02*
X12263149Y-16628079D01*
X12263149Y-16628079D02*
X12272673Y-16609031D01*
X12272673Y-16609031D02*
X12282196Y-16599508D01*
X12282196Y-16599508D02*
X12301244Y-16589984D01*
X12453625Y-16770936D02*
X12463149Y-16780460D01*
X12463149Y-16780460D02*
X12453625Y-16789984D01*
X12453625Y-16789984D02*
X12444101Y-16780460D01*
X12444101Y-16780460D02*
X12453625Y-16770936D01*
X12453625Y-16770936D02*
X12453625Y-16789984D01*
X12586958Y-16589984D02*
X12606006Y-16589984D01*
X12606006Y-16589984D02*
X12625054Y-16599508D01*
X12625054Y-16599508D02*
X12634577Y-16609031D01*
X12634577Y-16609031D02*
X12644101Y-16628079D01*
X12644101Y-16628079D02*
X12653625Y-16666174D01*
X12653625Y-16666174D02*
X12653625Y-16713793D01*
X12653625Y-16713793D02*
X12644101Y-16751888D01*
X12644101Y-16751888D02*
X12634577Y-16770936D01*
X12634577Y-16770936D02*
X12625054Y-16780460D01*
X12625054Y-16780460D02*
X12606006Y-16789984D01*
X12606006Y-16789984D02*
X12586958Y-16789984D01*
X12586958Y-16789984D02*
X12567911Y-16780460D01*
X12567911Y-16780460D02*
X12558387Y-16770936D01*
X12558387Y-16770936D02*
X12548863Y-16751888D01*
X12548863Y-16751888D02*
X12539339Y-16713793D01*
X12539339Y-16713793D02*
X12539339Y-16666174D01*
X12539339Y-16666174D02*
X12548863Y-16628079D01*
X12548863Y-16628079D02*
X12558387Y-16609031D01*
X12558387Y-16609031D02*
X12567911Y-16599508D01*
X12567911Y-16599508D02*
X12586958Y-16589984D01*
X12825054Y-16656650D02*
X12825054Y-16789984D01*
X12777435Y-16580460D02*
X12729816Y-16723317D01*
X12729816Y-16723317D02*
X12853625Y-16723317D01*
X12967911Y-16589984D02*
X12986958Y-16589984D01*
X12986958Y-16589984D02*
X13006006Y-16599508D01*
X13006006Y-16599508D02*
X13015530Y-16609031D01*
X13015530Y-16609031D02*
X13025054Y-16628079D01*
X13025054Y-16628079D02*
X13034577Y-16666174D01*
X13034577Y-16666174D02*
X13034577Y-16713793D01*
X13034577Y-16713793D02*
X13025054Y-16751888D01*
X13025054Y-16751888D02*
X13015530Y-16770936D01*
X13015530Y-16770936D02*
X13006006Y-16780460D01*
X13006006Y-16780460D02*
X12986958Y-16789984D01*
X12986958Y-16789984D02*
X12967911Y-16789984D01*
X12967911Y-16789984D02*
X12948863Y-16780460D01*
X12948863Y-16780460D02*
X12939339Y-16770936D01*
X12939339Y-16770936D02*
X12929816Y-16751888D01*
X12929816Y-16751888D02*
X12920292Y-16713793D01*
X12920292Y-16713793D02*
X12920292Y-16666174D01*
X12920292Y-16666174D02*
X12929816Y-16628079D01*
X12929816Y-16628079D02*
X12939339Y-16609031D01*
X12939339Y-16609031D02*
X12948863Y-16599508D01*
X12948863Y-16599508D02*
X12967911Y-16589984D01*
X13158387Y-16589984D02*
X13177435Y-16589984D01*
X13177435Y-16589984D02*
X13196482Y-16599508D01*
X13196482Y-16599508D02*
X13206006Y-16609031D01*
X13206006Y-16609031D02*
X13215530Y-16628079D01*
X13215530Y-16628079D02*
X13225054Y-16666174D01*
X13225054Y-16666174D02*
X13225054Y-16713793D01*
X13225054Y-16713793D02*
X13215530Y-16751888D01*
X13215530Y-16751888D02*
X13206006Y-16770936D01*
X13206006Y-16770936D02*
X13196482Y-16780460D01*
X13196482Y-16780460D02*
X13177435Y-16789984D01*
X13177435Y-16789984D02*
X13158387Y-16789984D01*
X13158387Y-16789984D02*
X13139339Y-16780460D01*
X13139339Y-16780460D02*
X13129816Y-16770936D01*
X13129816Y-16770936D02*
X13120292Y-16751888D01*
X13120292Y-16751888D02*
X13110768Y-16713793D01*
X13110768Y-16713793D02*
X13110768Y-16666174D01*
X13110768Y-16666174D02*
X13120292Y-16628079D01*
X13120292Y-16628079D02*
X13129816Y-16609031D01*
X13129816Y-16609031D02*
X13139339Y-16599508D01*
X13139339Y-16599508D02*
X13158387Y-16589984D01*
X13301244Y-16589984D02*
X13301244Y-16628079D01*
X13377435Y-16589984D02*
X13377435Y-16628079D01*
X13672673Y-16866174D02*
X13663149Y-16856650D01*
X13663149Y-16856650D02*
X13644101Y-16828079D01*
X13644101Y-16828079D02*
X13634578Y-16809031D01*
X13634578Y-16809031D02*
X13625054Y-16780460D01*
X13625054Y-16780460D02*
X13615530Y-16732841D01*
X13615530Y-16732841D02*
X13615530Y-16694746D01*
X13615530Y-16694746D02*
X13625054Y-16647127D01*
X13625054Y-16647127D02*
X13634578Y-16618555D01*
X13634578Y-16618555D02*
X13644101Y-16599508D01*
X13644101Y-16599508D02*
X13663149Y-16570936D01*
X13663149Y-16570936D02*
X13672673Y-16561412D01*
X13729816Y-16589984D02*
X13863149Y-16589984D01*
X13863149Y-16589984D02*
X13777435Y-16789984D01*
X14091720Y-16789984D02*
X14091720Y-16589984D01*
X14177435Y-16789984D02*
X14177435Y-16685222D01*
X14177435Y-16685222D02*
X14167911Y-16666174D01*
X14167911Y-16666174D02*
X14148863Y-16656650D01*
X14148863Y-16656650D02*
X14120292Y-16656650D01*
X14120292Y-16656650D02*
X14101244Y-16666174D01*
X14101244Y-16666174D02*
X14091720Y-16675698D01*
X14301244Y-16789984D02*
X14282197Y-16780460D01*
X14282197Y-16780460D02*
X14272673Y-16770936D01*
X14272673Y-16770936D02*
X14263149Y-16751888D01*
X14263149Y-16751888D02*
X14263149Y-16694746D01*
X14263149Y-16694746D02*
X14272673Y-16675698D01*
X14272673Y-16675698D02*
X14282197Y-16666174D01*
X14282197Y-16666174D02*
X14301244Y-16656650D01*
X14301244Y-16656650D02*
X14329816Y-16656650D01*
X14329816Y-16656650D02*
X14348863Y-16666174D01*
X14348863Y-16666174D02*
X14358387Y-16675698D01*
X14358387Y-16675698D02*
X14367911Y-16694746D01*
X14367911Y-16694746D02*
X14367911Y-16751888D01*
X14367911Y-16751888D02*
X14358387Y-16770936D01*
X14358387Y-16770936D02*
X14348863Y-16780460D01*
X14348863Y-16780460D02*
X14329816Y-16789984D01*
X14329816Y-16789984D02*
X14301244Y-16789984D01*
X14482197Y-16789984D02*
X14463149Y-16780460D01*
X14463149Y-16780460D02*
X14453625Y-16761412D01*
X14453625Y-16761412D02*
X14453625Y-16589984D01*
X14634578Y-16780460D02*
X14615530Y-16789984D01*
X14615530Y-16789984D02*
X14577435Y-16789984D01*
X14577435Y-16789984D02*
X14558387Y-16780460D01*
X14558387Y-16780460D02*
X14548863Y-16761412D01*
X14548863Y-16761412D02*
X14548863Y-16685222D01*
X14548863Y-16685222D02*
X14558387Y-16666174D01*
X14558387Y-16666174D02*
X14577435Y-16656650D01*
X14577435Y-16656650D02*
X14615530Y-16656650D01*
X14615530Y-16656650D02*
X14634578Y-16666174D01*
X14634578Y-16666174D02*
X14644101Y-16685222D01*
X14644101Y-16685222D02*
X14644101Y-16704269D01*
X14644101Y-16704269D02*
X14548863Y-16723317D01*
X14720292Y-16780460D02*
X14739340Y-16789984D01*
X14739340Y-16789984D02*
X14777435Y-16789984D01*
X14777435Y-16789984D02*
X14796482Y-16780460D01*
X14796482Y-16780460D02*
X14806006Y-16761412D01*
X14806006Y-16761412D02*
X14806006Y-16751888D01*
X14806006Y-16751888D02*
X14796482Y-16732841D01*
X14796482Y-16732841D02*
X14777435Y-16723317D01*
X14777435Y-16723317D02*
X14748863Y-16723317D01*
X14748863Y-16723317D02*
X14729816Y-16713793D01*
X14729816Y-16713793D02*
X14720292Y-16694746D01*
X14720292Y-16694746D02*
X14720292Y-16685222D01*
X14720292Y-16685222D02*
X14729816Y-16666174D01*
X14729816Y-16666174D02*
X14748863Y-16656650D01*
X14748863Y-16656650D02*
X14777435Y-16656650D01*
X14777435Y-16656650D02*
X14796482Y-16666174D01*
X14872673Y-16866174D02*
X14882197Y-16856650D01*
X14882197Y-16856650D02*
X14901244Y-16828079D01*
X14901244Y-16828079D02*
X14910768Y-16809031D01*
X14910768Y-16809031D02*
X14920292Y-16780460D01*
X14920292Y-16780460D02*
X14929816Y-16732841D01*
X14929816Y-16732841D02*
X14929816Y-16694746D01*
X14929816Y-16694746D02*
X14920292Y-16647127D01*
X14920292Y-16647127D02*
X14910768Y-16618555D01*
X14910768Y-16618555D02*
X14901244Y-16599508D01*
X14901244Y-16599508D02*
X14882197Y-16570936D01*
X14882197Y-16570936D02*
X14872673Y-16561412D01*
D14*
X9983310Y-16905350D02*
X10097610Y-17019650D01*
X10097610Y-16905350D02*
X9983310Y-17019650D01*
X10097610Y-16962500D02*
G75*
G02*
X9983310Y-16962500I-57150J0D01*
G01*
X9983310Y-16962500D02*
G75*
G02*
X10097610Y-16962500I57150J0D01*
G01*
D11*
X10463149Y-17053984D02*
X10348863Y-17053984D01*
X10406006Y-17053984D02*
X10406006Y-16853984D01*
X10406006Y-16853984D02*
X10386958Y-16882555D01*
X10386958Y-16882555D02*
X10367911Y-16901603D01*
X10367911Y-16901603D02*
X10348863Y-16911127D01*
X10548863Y-17034936D02*
X10558387Y-17044460D01*
X10558387Y-17044460D02*
X10548863Y-17053984D01*
X10548863Y-17053984D02*
X10539339Y-17044460D01*
X10539339Y-17044460D02*
X10548863Y-17034936D01*
X10548863Y-17034936D02*
X10548863Y-17053984D01*
X10748863Y-17053984D02*
X10634577Y-17053984D01*
X10691720Y-17053984D02*
X10691720Y-16853984D01*
X10691720Y-16853984D02*
X10672673Y-16882555D01*
X10672673Y-16882555D02*
X10653625Y-16901603D01*
X10653625Y-16901603D02*
X10634577Y-16911127D01*
X10920292Y-16920650D02*
X10920292Y-17053984D01*
X10872673Y-16844460D02*
X10825054Y-16987317D01*
X10825054Y-16987317D02*
X10948863Y-16987317D01*
X11006006Y-16853984D02*
X11129815Y-16853984D01*
X11129815Y-16853984D02*
X11063149Y-16930174D01*
X11063149Y-16930174D02*
X11091720Y-16930174D01*
X11091720Y-16930174D02*
X11110768Y-16939698D01*
X11110768Y-16939698D02*
X11120292Y-16949222D01*
X11120292Y-16949222D02*
X11129815Y-16968270D01*
X11129815Y-16968270D02*
X11129815Y-17015889D01*
X11129815Y-17015889D02*
X11120292Y-17034936D01*
X11120292Y-17034936D02*
X11110768Y-17044460D01*
X11110768Y-17044460D02*
X11091720Y-17053984D01*
X11091720Y-17053984D02*
X11034577Y-17053984D01*
X11034577Y-17053984D02*
X11015530Y-17044460D01*
X11015530Y-17044460D02*
X11006006Y-17034936D01*
X11215530Y-17053984D02*
X11215530Y-16920650D01*
X11215530Y-16939698D02*
X11225053Y-16930174D01*
X11225053Y-16930174D02*
X11244101Y-16920650D01*
X11244101Y-16920650D02*
X11272673Y-16920650D01*
X11272673Y-16920650D02*
X11291720Y-16930174D01*
X11291720Y-16930174D02*
X11301244Y-16949222D01*
X11301244Y-16949222D02*
X11301244Y-17053984D01*
X11301244Y-16949222D02*
X11310768Y-16930174D01*
X11310768Y-16930174D02*
X11329815Y-16920650D01*
X11329815Y-16920650D02*
X11358387Y-16920650D01*
X11358387Y-16920650D02*
X11377434Y-16930174D01*
X11377434Y-16930174D02*
X11386958Y-16949222D01*
X11386958Y-16949222D02*
X11386958Y-17053984D01*
X11482196Y-17053984D02*
X11482196Y-16920650D01*
X11482196Y-16939698D02*
X11491720Y-16930174D01*
X11491720Y-16930174D02*
X11510768Y-16920650D01*
X11510768Y-16920650D02*
X11539339Y-16920650D01*
X11539339Y-16920650D02*
X11558387Y-16930174D01*
X11558387Y-16930174D02*
X11567911Y-16949222D01*
X11567911Y-16949222D02*
X11567911Y-17053984D01*
X11567911Y-16949222D02*
X11577434Y-16930174D01*
X11577434Y-16930174D02*
X11596482Y-16920650D01*
X11596482Y-16920650D02*
X11625053Y-16920650D01*
X11625053Y-16920650D02*
X11644101Y-16930174D01*
X11644101Y-16930174D02*
X11653625Y-16949222D01*
X11653625Y-16949222D02*
X11653625Y-17053984D01*
X12044101Y-16844460D02*
X11872673Y-17101603D01*
X12301244Y-16853984D02*
X12320292Y-16853984D01*
X12320292Y-16853984D02*
X12339339Y-16863508D01*
X12339339Y-16863508D02*
X12348863Y-16873031D01*
X12348863Y-16873031D02*
X12358387Y-16892079D01*
X12358387Y-16892079D02*
X12367911Y-16930174D01*
X12367911Y-16930174D02*
X12367911Y-16977793D01*
X12367911Y-16977793D02*
X12358387Y-17015889D01*
X12358387Y-17015889D02*
X12348863Y-17034936D01*
X12348863Y-17034936D02*
X12339339Y-17044460D01*
X12339339Y-17044460D02*
X12320292Y-17053984D01*
X12320292Y-17053984D02*
X12301244Y-17053984D01*
X12301244Y-17053984D02*
X12282196Y-17044460D01*
X12282196Y-17044460D02*
X12272673Y-17034936D01*
X12272673Y-17034936D02*
X12263149Y-17015889D01*
X12263149Y-17015889D02*
X12253625Y-16977793D01*
X12253625Y-16977793D02*
X12253625Y-16930174D01*
X12253625Y-16930174D02*
X12263149Y-16892079D01*
X12263149Y-16892079D02*
X12272673Y-16873031D01*
X12272673Y-16873031D02*
X12282196Y-16863508D01*
X12282196Y-16863508D02*
X12301244Y-16853984D01*
X12453625Y-17034936D02*
X12463149Y-17044460D01*
X12463149Y-17044460D02*
X12453625Y-17053984D01*
X12453625Y-17053984D02*
X12444101Y-17044460D01*
X12444101Y-17044460D02*
X12453625Y-17034936D01*
X12453625Y-17034936D02*
X12453625Y-17053984D01*
X12586958Y-16853984D02*
X12606006Y-16853984D01*
X12606006Y-16853984D02*
X12625054Y-16863508D01*
X12625054Y-16863508D02*
X12634577Y-16873031D01*
X12634577Y-16873031D02*
X12644101Y-16892079D01*
X12644101Y-16892079D02*
X12653625Y-16930174D01*
X12653625Y-16930174D02*
X12653625Y-16977793D01*
X12653625Y-16977793D02*
X12644101Y-17015889D01*
X12644101Y-17015889D02*
X12634577Y-17034936D01*
X12634577Y-17034936D02*
X12625054Y-17044460D01*
X12625054Y-17044460D02*
X12606006Y-17053984D01*
X12606006Y-17053984D02*
X12586958Y-17053984D01*
X12586958Y-17053984D02*
X12567911Y-17044460D01*
X12567911Y-17044460D02*
X12558387Y-17034936D01*
X12558387Y-17034936D02*
X12548863Y-17015889D01*
X12548863Y-17015889D02*
X12539339Y-16977793D01*
X12539339Y-16977793D02*
X12539339Y-16930174D01*
X12539339Y-16930174D02*
X12548863Y-16892079D01*
X12548863Y-16892079D02*
X12558387Y-16873031D01*
X12558387Y-16873031D02*
X12567911Y-16863508D01*
X12567911Y-16863508D02*
X12586958Y-16853984D01*
X12825054Y-16920650D02*
X12825054Y-17053984D01*
X12777435Y-16844460D02*
X12729816Y-16987317D01*
X12729816Y-16987317D02*
X12853625Y-16987317D01*
X13025054Y-16853984D02*
X12929816Y-16853984D01*
X12929816Y-16853984D02*
X12920292Y-16949222D01*
X12920292Y-16949222D02*
X12929816Y-16939698D01*
X12929816Y-16939698D02*
X12948863Y-16930174D01*
X12948863Y-16930174D02*
X12996482Y-16930174D01*
X12996482Y-16930174D02*
X13015530Y-16939698D01*
X13015530Y-16939698D02*
X13025054Y-16949222D01*
X13025054Y-16949222D02*
X13034577Y-16968270D01*
X13034577Y-16968270D02*
X13034577Y-17015889D01*
X13034577Y-17015889D02*
X13025054Y-17034936D01*
X13025054Y-17034936D02*
X13015530Y-17044460D01*
X13015530Y-17044460D02*
X12996482Y-17053984D01*
X12996482Y-17053984D02*
X12948863Y-17053984D01*
X12948863Y-17053984D02*
X12929816Y-17044460D01*
X12929816Y-17044460D02*
X12920292Y-17034936D01*
X13158387Y-16853984D02*
X13177435Y-16853984D01*
X13177435Y-16853984D02*
X13196482Y-16863508D01*
X13196482Y-16863508D02*
X13206006Y-16873031D01*
X13206006Y-16873031D02*
X13215530Y-16892079D01*
X13215530Y-16892079D02*
X13225054Y-16930174D01*
X13225054Y-16930174D02*
X13225054Y-16977793D01*
X13225054Y-16977793D02*
X13215530Y-17015889D01*
X13215530Y-17015889D02*
X13206006Y-17034936D01*
X13206006Y-17034936D02*
X13196482Y-17044460D01*
X13196482Y-17044460D02*
X13177435Y-17053984D01*
X13177435Y-17053984D02*
X13158387Y-17053984D01*
X13158387Y-17053984D02*
X13139339Y-17044460D01*
X13139339Y-17044460D02*
X13129816Y-17034936D01*
X13129816Y-17034936D02*
X13120292Y-17015889D01*
X13120292Y-17015889D02*
X13110768Y-16977793D01*
X13110768Y-16977793D02*
X13110768Y-16930174D01*
X13110768Y-16930174D02*
X13120292Y-16892079D01*
X13120292Y-16892079D02*
X13129816Y-16873031D01*
X13129816Y-16873031D02*
X13139339Y-16863508D01*
X13139339Y-16863508D02*
X13158387Y-16853984D01*
X13301244Y-16853984D02*
X13301244Y-16892079D01*
X13377435Y-16853984D02*
X13377435Y-16892079D01*
X13672673Y-17130174D02*
X13663149Y-17120650D01*
X13663149Y-17120650D02*
X13644101Y-17092079D01*
X13644101Y-17092079D02*
X13634578Y-17073031D01*
X13634578Y-17073031D02*
X13625054Y-17044460D01*
X13625054Y-17044460D02*
X13615530Y-16996841D01*
X13615530Y-16996841D02*
X13615530Y-16958746D01*
X13615530Y-16958746D02*
X13625054Y-16911127D01*
X13625054Y-16911127D02*
X13634578Y-16882555D01*
X13634578Y-16882555D02*
X13644101Y-16863508D01*
X13644101Y-16863508D02*
X13663149Y-16834936D01*
X13663149Y-16834936D02*
X13672673Y-16825412D01*
X13853625Y-17053984D02*
X13739339Y-17053984D01*
X13796482Y-17053984D02*
X13796482Y-16853984D01*
X13796482Y-16853984D02*
X13777435Y-16882555D01*
X13777435Y-16882555D02*
X13758387Y-16901603D01*
X13758387Y-16901603D02*
X13739339Y-16911127D01*
X13967911Y-16939698D02*
X13948863Y-16930174D01*
X13948863Y-16930174D02*
X13939339Y-16920650D01*
X13939339Y-16920650D02*
X13929816Y-16901603D01*
X13929816Y-16901603D02*
X13929816Y-16892079D01*
X13929816Y-16892079D02*
X13939339Y-16873031D01*
X13939339Y-16873031D02*
X13948863Y-16863508D01*
X13948863Y-16863508D02*
X13967911Y-16853984D01*
X13967911Y-16853984D02*
X14006006Y-16853984D01*
X14006006Y-16853984D02*
X14025054Y-16863508D01*
X14025054Y-16863508D02*
X14034578Y-16873031D01*
X14034578Y-16873031D02*
X14044101Y-16892079D01*
X14044101Y-16892079D02*
X14044101Y-16901603D01*
X14044101Y-16901603D02*
X14034578Y-16920650D01*
X14034578Y-16920650D02*
X14025054Y-16930174D01*
X14025054Y-16930174D02*
X14006006Y-16939698D01*
X14006006Y-16939698D02*
X13967911Y-16939698D01*
X13967911Y-16939698D02*
X13948863Y-16949222D01*
X13948863Y-16949222D02*
X13939339Y-16958746D01*
X13939339Y-16958746D02*
X13929816Y-16977793D01*
X13929816Y-16977793D02*
X13929816Y-17015889D01*
X13929816Y-17015889D02*
X13939339Y-17034936D01*
X13939339Y-17034936D02*
X13948863Y-17044460D01*
X13948863Y-17044460D02*
X13967911Y-17053984D01*
X13967911Y-17053984D02*
X14006006Y-17053984D01*
X14006006Y-17053984D02*
X14025054Y-17044460D01*
X14025054Y-17044460D02*
X14034578Y-17034936D01*
X14034578Y-17034936D02*
X14044101Y-17015889D01*
X14044101Y-17015889D02*
X14044101Y-16977793D01*
X14044101Y-16977793D02*
X14034578Y-16958746D01*
X14034578Y-16958746D02*
X14025054Y-16949222D01*
X14025054Y-16949222D02*
X14006006Y-16939698D01*
X14282197Y-17053984D02*
X14282197Y-16853984D01*
X14367911Y-17053984D02*
X14367911Y-16949222D01*
X14367911Y-16949222D02*
X14358387Y-16930174D01*
X14358387Y-16930174D02*
X14339340Y-16920650D01*
X14339340Y-16920650D02*
X14310768Y-16920650D01*
X14310768Y-16920650D02*
X14291720Y-16930174D01*
X14291720Y-16930174D02*
X14282197Y-16939698D01*
X14491720Y-17053984D02*
X14472673Y-17044460D01*
X14472673Y-17044460D02*
X14463149Y-17034936D01*
X14463149Y-17034936D02*
X14453625Y-17015889D01*
X14453625Y-17015889D02*
X14453625Y-16958746D01*
X14453625Y-16958746D02*
X14463149Y-16939698D01*
X14463149Y-16939698D02*
X14472673Y-16930174D01*
X14472673Y-16930174D02*
X14491720Y-16920650D01*
X14491720Y-16920650D02*
X14520292Y-16920650D01*
X14520292Y-16920650D02*
X14539340Y-16930174D01*
X14539340Y-16930174D02*
X14548863Y-16939698D01*
X14548863Y-16939698D02*
X14558387Y-16958746D01*
X14558387Y-16958746D02*
X14558387Y-17015889D01*
X14558387Y-17015889D02*
X14548863Y-17034936D01*
X14548863Y-17034936D02*
X14539340Y-17044460D01*
X14539340Y-17044460D02*
X14520292Y-17053984D01*
X14520292Y-17053984D02*
X14491720Y-17053984D01*
X14672673Y-17053984D02*
X14653625Y-17044460D01*
X14653625Y-17044460D02*
X14644101Y-17025412D01*
X14644101Y-17025412D02*
X14644101Y-16853984D01*
X14825054Y-17044460D02*
X14806006Y-17053984D01*
X14806006Y-17053984D02*
X14767911Y-17053984D01*
X14767911Y-17053984D02*
X14748863Y-17044460D01*
X14748863Y-17044460D02*
X14739340Y-17025412D01*
X14739340Y-17025412D02*
X14739340Y-16949222D01*
X14739340Y-16949222D02*
X14748863Y-16930174D01*
X14748863Y-16930174D02*
X14767911Y-16920650D01*
X14767911Y-16920650D02*
X14806006Y-16920650D01*
X14806006Y-16920650D02*
X14825054Y-16930174D01*
X14825054Y-16930174D02*
X14834578Y-16949222D01*
X14834578Y-16949222D02*
X14834578Y-16968270D01*
X14834578Y-16968270D02*
X14739340Y-16987317D01*
X14910768Y-17044460D02*
X14929816Y-17053984D01*
X14929816Y-17053984D02*
X14967911Y-17053984D01*
X14967911Y-17053984D02*
X14986959Y-17044460D01*
X14986959Y-17044460D02*
X14996482Y-17025412D01*
X14996482Y-17025412D02*
X14996482Y-17015889D01*
X14996482Y-17015889D02*
X14986959Y-16996841D01*
X14986959Y-16996841D02*
X14967911Y-16987317D01*
X14967911Y-16987317D02*
X14939340Y-16987317D01*
X14939340Y-16987317D02*
X14920292Y-16977793D01*
X14920292Y-16977793D02*
X14910768Y-16958746D01*
X14910768Y-16958746D02*
X14910768Y-16949222D01*
X14910768Y-16949222D02*
X14920292Y-16930174D01*
X14920292Y-16930174D02*
X14939340Y-16920650D01*
X14939340Y-16920650D02*
X14967911Y-16920650D01*
X14967911Y-16920650D02*
X14986959Y-16930174D01*
X15063149Y-17130174D02*
X15072673Y-17120650D01*
X15072673Y-17120650D02*
X15091721Y-17092079D01*
X15091721Y-17092079D02*
X15101244Y-17073031D01*
X15101244Y-17073031D02*
X15110768Y-17044460D01*
X15110768Y-17044460D02*
X15120292Y-16996841D01*
X15120292Y-16996841D02*
X15120292Y-16958746D01*
X15120292Y-16958746D02*
X15110768Y-16911127D01*
X15110768Y-16911127D02*
X15101244Y-16882555D01*
X15101244Y-16882555D02*
X15091721Y-16863508D01*
X15091721Y-16863508D02*
X15072673Y-16834936D01*
X15072673Y-16834936D02*
X15063149Y-16825412D01*
D15*
X9970610Y-17163000D02*
X10097610Y-17290000D01*
X10097610Y-17163000D02*
X9970610Y-17290000D01*
X10034110Y-17163000D02*
X10034110Y-17290000D01*
X9970610Y-17226500D02*
X10097610Y-17226500D01*
D11*
X10463149Y-17317984D02*
X10348863Y-17317984D01*
X10406006Y-17317984D02*
X10406006Y-17117984D01*
X10406006Y-17117984D02*
X10386958Y-17146555D01*
X10386958Y-17146555D02*
X10367911Y-17165603D01*
X10367911Y-17165603D02*
X10348863Y-17175127D01*
X10548863Y-17298936D02*
X10558387Y-17308460D01*
X10558387Y-17308460D02*
X10548863Y-17317984D01*
X10548863Y-17317984D02*
X10539339Y-17308460D01*
X10539339Y-17308460D02*
X10548863Y-17298936D01*
X10548863Y-17298936D02*
X10548863Y-17317984D01*
X10634577Y-17137031D02*
X10644101Y-17127508D01*
X10644101Y-17127508D02*
X10663149Y-17117984D01*
X10663149Y-17117984D02*
X10710768Y-17117984D01*
X10710768Y-17117984D02*
X10729815Y-17127508D01*
X10729815Y-17127508D02*
X10739339Y-17137031D01*
X10739339Y-17137031D02*
X10748863Y-17156079D01*
X10748863Y-17156079D02*
X10748863Y-17175127D01*
X10748863Y-17175127D02*
X10739339Y-17203698D01*
X10739339Y-17203698D02*
X10625054Y-17317984D01*
X10625054Y-17317984D02*
X10748863Y-17317984D01*
X10815530Y-17117984D02*
X10948863Y-17117984D01*
X10948863Y-17117984D02*
X10863149Y-17317984D01*
X11063149Y-17117984D02*
X11082196Y-17117984D01*
X11082196Y-17117984D02*
X11101244Y-17127508D01*
X11101244Y-17127508D02*
X11110768Y-17137031D01*
X11110768Y-17137031D02*
X11120292Y-17156079D01*
X11120292Y-17156079D02*
X11129815Y-17194174D01*
X11129815Y-17194174D02*
X11129815Y-17241793D01*
X11129815Y-17241793D02*
X11120292Y-17279889D01*
X11120292Y-17279889D02*
X11110768Y-17298936D01*
X11110768Y-17298936D02*
X11101244Y-17308460D01*
X11101244Y-17308460D02*
X11082196Y-17317984D01*
X11082196Y-17317984D02*
X11063149Y-17317984D01*
X11063149Y-17317984D02*
X11044101Y-17308460D01*
X11044101Y-17308460D02*
X11034577Y-17298936D01*
X11034577Y-17298936D02*
X11025054Y-17279889D01*
X11025054Y-17279889D02*
X11015530Y-17241793D01*
X11015530Y-17241793D02*
X11015530Y-17194174D01*
X11015530Y-17194174D02*
X11025054Y-17156079D01*
X11025054Y-17156079D02*
X11034577Y-17137031D01*
X11034577Y-17137031D02*
X11044101Y-17127508D01*
X11044101Y-17127508D02*
X11063149Y-17117984D01*
X11215530Y-17317984D02*
X11215530Y-17184650D01*
X11215530Y-17203698D02*
X11225053Y-17194174D01*
X11225053Y-17194174D02*
X11244101Y-17184650D01*
X11244101Y-17184650D02*
X11272673Y-17184650D01*
X11272673Y-17184650D02*
X11291720Y-17194174D01*
X11291720Y-17194174D02*
X11301244Y-17213222D01*
X11301244Y-17213222D02*
X11301244Y-17317984D01*
X11301244Y-17213222D02*
X11310768Y-17194174D01*
X11310768Y-17194174D02*
X11329815Y-17184650D01*
X11329815Y-17184650D02*
X11358387Y-17184650D01*
X11358387Y-17184650D02*
X11377434Y-17194174D01*
X11377434Y-17194174D02*
X11386958Y-17213222D01*
X11386958Y-17213222D02*
X11386958Y-17317984D01*
X11482196Y-17317984D02*
X11482196Y-17184650D01*
X11482196Y-17203698D02*
X11491720Y-17194174D01*
X11491720Y-17194174D02*
X11510768Y-17184650D01*
X11510768Y-17184650D02*
X11539339Y-17184650D01*
X11539339Y-17184650D02*
X11558387Y-17194174D01*
X11558387Y-17194174D02*
X11567911Y-17213222D01*
X11567911Y-17213222D02*
X11567911Y-17317984D01*
X11567911Y-17213222D02*
X11577434Y-17194174D01*
X11577434Y-17194174D02*
X11596482Y-17184650D01*
X11596482Y-17184650D02*
X11625053Y-17184650D01*
X11625053Y-17184650D02*
X11644101Y-17194174D01*
X11644101Y-17194174D02*
X11653625Y-17213222D01*
X11653625Y-17213222D02*
X11653625Y-17317984D01*
X12044101Y-17108460D02*
X11872673Y-17365603D01*
X12301244Y-17117984D02*
X12320292Y-17117984D01*
X12320292Y-17117984D02*
X12339339Y-17127508D01*
X12339339Y-17127508D02*
X12348863Y-17137031D01*
X12348863Y-17137031D02*
X12358387Y-17156079D01*
X12358387Y-17156079D02*
X12367911Y-17194174D01*
X12367911Y-17194174D02*
X12367911Y-17241793D01*
X12367911Y-17241793D02*
X12358387Y-17279889D01*
X12358387Y-17279889D02*
X12348863Y-17298936D01*
X12348863Y-17298936D02*
X12339339Y-17308460D01*
X12339339Y-17308460D02*
X12320292Y-17317984D01*
X12320292Y-17317984D02*
X12301244Y-17317984D01*
X12301244Y-17317984D02*
X12282196Y-17308460D01*
X12282196Y-17308460D02*
X12272673Y-17298936D01*
X12272673Y-17298936D02*
X12263149Y-17279889D01*
X12263149Y-17279889D02*
X12253625Y-17241793D01*
X12253625Y-17241793D02*
X12253625Y-17194174D01*
X12253625Y-17194174D02*
X12263149Y-17156079D01*
X12263149Y-17156079D02*
X12272673Y-17137031D01*
X12272673Y-17137031D02*
X12282196Y-17127508D01*
X12282196Y-17127508D02*
X12301244Y-17117984D01*
X12453625Y-17298936D02*
X12463149Y-17308460D01*
X12463149Y-17308460D02*
X12453625Y-17317984D01*
X12453625Y-17317984D02*
X12444101Y-17308460D01*
X12444101Y-17308460D02*
X12453625Y-17298936D01*
X12453625Y-17298936D02*
X12453625Y-17317984D01*
X12586958Y-17117984D02*
X12606006Y-17117984D01*
X12606006Y-17117984D02*
X12625054Y-17127508D01*
X12625054Y-17127508D02*
X12634577Y-17137031D01*
X12634577Y-17137031D02*
X12644101Y-17156079D01*
X12644101Y-17156079D02*
X12653625Y-17194174D01*
X12653625Y-17194174D02*
X12653625Y-17241793D01*
X12653625Y-17241793D02*
X12644101Y-17279889D01*
X12644101Y-17279889D02*
X12634577Y-17298936D01*
X12634577Y-17298936D02*
X12625054Y-17308460D01*
X12625054Y-17308460D02*
X12606006Y-17317984D01*
X12606006Y-17317984D02*
X12586958Y-17317984D01*
X12586958Y-17317984D02*
X12567911Y-17308460D01*
X12567911Y-17308460D02*
X12558387Y-17298936D01*
X12558387Y-17298936D02*
X12548863Y-17279889D01*
X12548863Y-17279889D02*
X12539339Y-17241793D01*
X12539339Y-17241793D02*
X12539339Y-17194174D01*
X12539339Y-17194174D02*
X12548863Y-17156079D01*
X12548863Y-17156079D02*
X12558387Y-17137031D01*
X12558387Y-17137031D02*
X12567911Y-17127508D01*
X12567911Y-17127508D02*
X12586958Y-17117984D01*
X12834577Y-17117984D02*
X12739339Y-17117984D01*
X12739339Y-17117984D02*
X12729816Y-17213222D01*
X12729816Y-17213222D02*
X12739339Y-17203698D01*
X12739339Y-17203698D02*
X12758387Y-17194174D01*
X12758387Y-17194174D02*
X12806006Y-17194174D01*
X12806006Y-17194174D02*
X12825054Y-17203698D01*
X12825054Y-17203698D02*
X12834577Y-17213222D01*
X12834577Y-17213222D02*
X12844101Y-17232270D01*
X12844101Y-17232270D02*
X12844101Y-17279889D01*
X12844101Y-17279889D02*
X12834577Y-17298936D01*
X12834577Y-17298936D02*
X12825054Y-17308460D01*
X12825054Y-17308460D02*
X12806006Y-17317984D01*
X12806006Y-17317984D02*
X12758387Y-17317984D01*
X12758387Y-17317984D02*
X12739339Y-17308460D01*
X12739339Y-17308460D02*
X12729816Y-17298936D01*
X12967911Y-17117984D02*
X12986958Y-17117984D01*
X12986958Y-17117984D02*
X13006006Y-17127508D01*
X13006006Y-17127508D02*
X13015530Y-17137031D01*
X13015530Y-17137031D02*
X13025054Y-17156079D01*
X13025054Y-17156079D02*
X13034577Y-17194174D01*
X13034577Y-17194174D02*
X13034577Y-17241793D01*
X13034577Y-17241793D02*
X13025054Y-17279889D01*
X13025054Y-17279889D02*
X13015530Y-17298936D01*
X13015530Y-17298936D02*
X13006006Y-17308460D01*
X13006006Y-17308460D02*
X12986958Y-17317984D01*
X12986958Y-17317984D02*
X12967911Y-17317984D01*
X12967911Y-17317984D02*
X12948863Y-17308460D01*
X12948863Y-17308460D02*
X12939339Y-17298936D01*
X12939339Y-17298936D02*
X12929816Y-17279889D01*
X12929816Y-17279889D02*
X12920292Y-17241793D01*
X12920292Y-17241793D02*
X12920292Y-17194174D01*
X12920292Y-17194174D02*
X12929816Y-17156079D01*
X12929816Y-17156079D02*
X12939339Y-17137031D01*
X12939339Y-17137031D02*
X12948863Y-17127508D01*
X12948863Y-17127508D02*
X12967911Y-17117984D01*
X13158387Y-17117984D02*
X13177435Y-17117984D01*
X13177435Y-17117984D02*
X13196482Y-17127508D01*
X13196482Y-17127508D02*
X13206006Y-17137031D01*
X13206006Y-17137031D02*
X13215530Y-17156079D01*
X13215530Y-17156079D02*
X13225054Y-17194174D01*
X13225054Y-17194174D02*
X13225054Y-17241793D01*
X13225054Y-17241793D02*
X13215530Y-17279889D01*
X13215530Y-17279889D02*
X13206006Y-17298936D01*
X13206006Y-17298936D02*
X13196482Y-17308460D01*
X13196482Y-17308460D02*
X13177435Y-17317984D01*
X13177435Y-17317984D02*
X13158387Y-17317984D01*
X13158387Y-17317984D02*
X13139339Y-17308460D01*
X13139339Y-17308460D02*
X13129816Y-17298936D01*
X13129816Y-17298936D02*
X13120292Y-17279889D01*
X13120292Y-17279889D02*
X13110768Y-17241793D01*
X13110768Y-17241793D02*
X13110768Y-17194174D01*
X13110768Y-17194174D02*
X13120292Y-17156079D01*
X13120292Y-17156079D02*
X13129816Y-17137031D01*
X13129816Y-17137031D02*
X13139339Y-17127508D01*
X13139339Y-17127508D02*
X13158387Y-17117984D01*
X13301244Y-17117984D02*
X13301244Y-17156079D01*
X13377435Y-17117984D02*
X13377435Y-17156079D01*
X13672673Y-17394174D02*
X13663149Y-17384650D01*
X13663149Y-17384650D02*
X13644101Y-17356079D01*
X13644101Y-17356079D02*
X13634578Y-17337031D01*
X13634578Y-17337031D02*
X13625054Y-17308460D01*
X13625054Y-17308460D02*
X13615530Y-17260841D01*
X13615530Y-17260841D02*
X13615530Y-17222746D01*
X13615530Y-17222746D02*
X13625054Y-17175127D01*
X13625054Y-17175127D02*
X13634578Y-17146555D01*
X13634578Y-17146555D02*
X13644101Y-17127508D01*
X13644101Y-17127508D02*
X13663149Y-17098936D01*
X13663149Y-17098936D02*
X13672673Y-17089412D01*
X13786958Y-17117984D02*
X13806006Y-17117984D01*
X13806006Y-17117984D02*
X13825054Y-17127508D01*
X13825054Y-17127508D02*
X13834578Y-17137031D01*
X13834578Y-17137031D02*
X13844101Y-17156079D01*
X13844101Y-17156079D02*
X13853625Y-17194174D01*
X13853625Y-17194174D02*
X13853625Y-17241793D01*
X13853625Y-17241793D02*
X13844101Y-17279889D01*
X13844101Y-17279889D02*
X13834578Y-17298936D01*
X13834578Y-17298936D02*
X13825054Y-17308460D01*
X13825054Y-17308460D02*
X13806006Y-17317984D01*
X13806006Y-17317984D02*
X13786958Y-17317984D01*
X13786958Y-17317984D02*
X13767911Y-17308460D01*
X13767911Y-17308460D02*
X13758387Y-17298936D01*
X13758387Y-17298936D02*
X13748863Y-17279889D01*
X13748863Y-17279889D02*
X13739339Y-17241793D01*
X13739339Y-17241793D02*
X13739339Y-17194174D01*
X13739339Y-17194174D02*
X13748863Y-17156079D01*
X13748863Y-17156079D02*
X13758387Y-17137031D01*
X13758387Y-17137031D02*
X13767911Y-17127508D01*
X13767911Y-17127508D02*
X13786958Y-17117984D01*
X14091720Y-17317984D02*
X14091720Y-17117984D01*
X14177435Y-17317984D02*
X14177435Y-17213222D01*
X14177435Y-17213222D02*
X14167911Y-17194174D01*
X14167911Y-17194174D02*
X14148863Y-17184650D01*
X14148863Y-17184650D02*
X14120292Y-17184650D01*
X14120292Y-17184650D02*
X14101244Y-17194174D01*
X14101244Y-17194174D02*
X14091720Y-17203698D01*
X14301244Y-17317984D02*
X14282197Y-17308460D01*
X14282197Y-17308460D02*
X14272673Y-17298936D01*
X14272673Y-17298936D02*
X14263149Y-17279889D01*
X14263149Y-17279889D02*
X14263149Y-17222746D01*
X14263149Y-17222746D02*
X14272673Y-17203698D01*
X14272673Y-17203698D02*
X14282197Y-17194174D01*
X14282197Y-17194174D02*
X14301244Y-17184650D01*
X14301244Y-17184650D02*
X14329816Y-17184650D01*
X14329816Y-17184650D02*
X14348863Y-17194174D01*
X14348863Y-17194174D02*
X14358387Y-17203698D01*
X14358387Y-17203698D02*
X14367911Y-17222746D01*
X14367911Y-17222746D02*
X14367911Y-17279889D01*
X14367911Y-17279889D02*
X14358387Y-17298936D01*
X14358387Y-17298936D02*
X14348863Y-17308460D01*
X14348863Y-17308460D02*
X14329816Y-17317984D01*
X14329816Y-17317984D02*
X14301244Y-17317984D01*
X14482197Y-17317984D02*
X14463149Y-17308460D01*
X14463149Y-17308460D02*
X14453625Y-17289412D01*
X14453625Y-17289412D02*
X14453625Y-17117984D01*
X14634578Y-17308460D02*
X14615530Y-17317984D01*
X14615530Y-17317984D02*
X14577435Y-17317984D01*
X14577435Y-17317984D02*
X14558387Y-17308460D01*
X14558387Y-17308460D02*
X14548863Y-17289412D01*
X14548863Y-17289412D02*
X14548863Y-17213222D01*
X14548863Y-17213222D02*
X14558387Y-17194174D01*
X14558387Y-17194174D02*
X14577435Y-17184650D01*
X14577435Y-17184650D02*
X14615530Y-17184650D01*
X14615530Y-17184650D02*
X14634578Y-17194174D01*
X14634578Y-17194174D02*
X14644101Y-17213222D01*
X14644101Y-17213222D02*
X14644101Y-17232270D01*
X14644101Y-17232270D02*
X14548863Y-17251317D01*
X14720292Y-17308460D02*
X14739340Y-17317984D01*
X14739340Y-17317984D02*
X14777435Y-17317984D01*
X14777435Y-17317984D02*
X14796482Y-17308460D01*
X14796482Y-17308460D02*
X14806006Y-17289412D01*
X14806006Y-17289412D02*
X14806006Y-17279889D01*
X14806006Y-17279889D02*
X14796482Y-17260841D01*
X14796482Y-17260841D02*
X14777435Y-17251317D01*
X14777435Y-17251317D02*
X14748863Y-17251317D01*
X14748863Y-17251317D02*
X14729816Y-17241793D01*
X14729816Y-17241793D02*
X14720292Y-17222746D01*
X14720292Y-17222746D02*
X14720292Y-17213222D01*
X14720292Y-17213222D02*
X14729816Y-17194174D01*
X14729816Y-17194174D02*
X14748863Y-17184650D01*
X14748863Y-17184650D02*
X14777435Y-17184650D01*
X14777435Y-17184650D02*
X14796482Y-17194174D01*
X15044102Y-17241793D02*
X15196483Y-17241793D01*
X15120292Y-17317984D02*
X15120292Y-17165603D01*
X15539340Y-17117984D02*
X15444102Y-17117984D01*
X15444102Y-17117984D02*
X15434578Y-17213222D01*
X15434578Y-17213222D02*
X15444102Y-17203698D01*
X15444102Y-17203698D02*
X15463149Y-17194174D01*
X15463149Y-17194174D02*
X15510768Y-17194174D01*
X15510768Y-17194174D02*
X15529816Y-17203698D01*
X15529816Y-17203698D02*
X15539340Y-17213222D01*
X15539340Y-17213222D02*
X15548863Y-17232270D01*
X15548863Y-17232270D02*
X15548863Y-17279889D01*
X15548863Y-17279889D02*
X15539340Y-17298936D01*
X15539340Y-17298936D02*
X15529816Y-17308460D01*
X15529816Y-17308460D02*
X15510768Y-17317984D01*
X15510768Y-17317984D02*
X15463149Y-17317984D01*
X15463149Y-17317984D02*
X15444102Y-17308460D01*
X15444102Y-17308460D02*
X15434578Y-17298936D01*
X15777435Y-17308460D02*
X15796483Y-17317984D01*
X15796483Y-17317984D02*
X15834578Y-17317984D01*
X15834578Y-17317984D02*
X15853625Y-17308460D01*
X15853625Y-17308460D02*
X15863149Y-17289412D01*
X15863149Y-17289412D02*
X15863149Y-17279889D01*
X15863149Y-17279889D02*
X15853625Y-17260841D01*
X15853625Y-17260841D02*
X15834578Y-17251317D01*
X15834578Y-17251317D02*
X15806006Y-17251317D01*
X15806006Y-17251317D02*
X15786959Y-17241793D01*
X15786959Y-17241793D02*
X15777435Y-17222746D01*
X15777435Y-17222746D02*
X15777435Y-17213222D01*
X15777435Y-17213222D02*
X15786959Y-17194174D01*
X15786959Y-17194174D02*
X15806006Y-17184650D01*
X15806006Y-17184650D02*
X15834578Y-17184650D01*
X15834578Y-17184650D02*
X15853625Y-17194174D01*
X15977435Y-17317984D02*
X15958387Y-17308460D01*
X15958387Y-17308460D02*
X15948864Y-17289412D01*
X15948864Y-17289412D02*
X15948864Y-17117984D01*
X16082197Y-17317984D02*
X16063149Y-17308460D01*
X16063149Y-17308460D02*
X16053625Y-17298936D01*
X16053625Y-17298936D02*
X16044102Y-17279889D01*
X16044102Y-17279889D02*
X16044102Y-17222746D01*
X16044102Y-17222746D02*
X16053625Y-17203698D01*
X16053625Y-17203698D02*
X16063149Y-17194174D01*
X16063149Y-17194174D02*
X16082197Y-17184650D01*
X16082197Y-17184650D02*
X16110768Y-17184650D01*
X16110768Y-17184650D02*
X16129816Y-17194174D01*
X16129816Y-17194174D02*
X16139340Y-17203698D01*
X16139340Y-17203698D02*
X16148864Y-17222746D01*
X16148864Y-17222746D02*
X16148864Y-17279889D01*
X16148864Y-17279889D02*
X16139340Y-17298936D01*
X16139340Y-17298936D02*
X16129816Y-17308460D01*
X16129816Y-17308460D02*
X16110768Y-17317984D01*
X16110768Y-17317984D02*
X16082197Y-17317984D01*
X16206006Y-17184650D02*
X16282197Y-17184650D01*
X16234578Y-17117984D02*
X16234578Y-17289412D01*
X16234578Y-17289412D02*
X16244102Y-17308460D01*
X16244102Y-17308460D02*
X16263149Y-17317984D01*
X16263149Y-17317984D02*
X16282197Y-17317984D01*
X16339340Y-17308460D02*
X16358387Y-17317984D01*
X16358387Y-17317984D02*
X16396483Y-17317984D01*
X16396483Y-17317984D02*
X16415530Y-17308460D01*
X16415530Y-17308460D02*
X16425054Y-17289412D01*
X16425054Y-17289412D02*
X16425054Y-17279889D01*
X16425054Y-17279889D02*
X16415530Y-17260841D01*
X16415530Y-17260841D02*
X16396483Y-17251317D01*
X16396483Y-17251317D02*
X16367911Y-17251317D01*
X16367911Y-17251317D02*
X16348864Y-17241793D01*
X16348864Y-17241793D02*
X16339340Y-17222746D01*
X16339340Y-17222746D02*
X16339340Y-17213222D01*
X16339340Y-17213222D02*
X16348864Y-17194174D01*
X16348864Y-17194174D02*
X16367911Y-17184650D01*
X16367911Y-17184650D02*
X16396483Y-17184650D01*
X16396483Y-17184650D02*
X16415530Y-17194174D01*
X16491721Y-17394174D02*
X16501245Y-17384650D01*
X16501245Y-17384650D02*
X16520292Y-17356079D01*
X16520292Y-17356079D02*
X16529816Y-17337031D01*
X16529816Y-17337031D02*
X16539340Y-17308460D01*
X16539340Y-17308460D02*
X16548864Y-17260841D01*
X16548864Y-17260841D02*
X16548864Y-17222746D01*
X16548864Y-17222746D02*
X16539340Y-17175127D01*
X16539340Y-17175127D02*
X16529816Y-17146555D01*
X16529816Y-17146555D02*
X16520292Y-17127508D01*
X16520292Y-17127508D02*
X16501245Y-17098936D01*
X16501245Y-17098936D02*
X16491721Y-17089412D01*
D16*
X9937610Y-17410500D02*
X10097610Y-17570500D01*
X10097610Y-17410500D02*
X9937610Y-17570500D01*
X10074179Y-17547069D02*
X10074179Y-17433931D01*
X9961041Y-17433931D01*
X9961041Y-17547069D01*
X10074179Y-17547069D01*
D11*
X10463149Y-17581984D02*
X10348863Y-17581984D01*
X10406006Y-17581984D02*
X10406006Y-17381984D01*
X10406006Y-17381984D02*
X10386958Y-17410555D01*
X10386958Y-17410555D02*
X10367911Y-17429603D01*
X10367911Y-17429603D02*
X10348863Y-17439127D01*
X10548863Y-17562936D02*
X10558387Y-17572460D01*
X10558387Y-17572460D02*
X10548863Y-17581984D01*
X10548863Y-17581984D02*
X10539339Y-17572460D01*
X10539339Y-17572460D02*
X10548863Y-17562936D01*
X10548863Y-17562936D02*
X10548863Y-17581984D01*
X10729815Y-17381984D02*
X10691720Y-17381984D01*
X10691720Y-17381984D02*
X10672673Y-17391508D01*
X10672673Y-17391508D02*
X10663149Y-17401031D01*
X10663149Y-17401031D02*
X10644101Y-17429603D01*
X10644101Y-17429603D02*
X10634577Y-17467698D01*
X10634577Y-17467698D02*
X10634577Y-17543889D01*
X10634577Y-17543889D02*
X10644101Y-17562936D01*
X10644101Y-17562936D02*
X10653625Y-17572460D01*
X10653625Y-17572460D02*
X10672673Y-17581984D01*
X10672673Y-17581984D02*
X10710768Y-17581984D01*
X10710768Y-17581984D02*
X10729815Y-17572460D01*
X10729815Y-17572460D02*
X10739339Y-17562936D01*
X10739339Y-17562936D02*
X10748863Y-17543889D01*
X10748863Y-17543889D02*
X10748863Y-17496270D01*
X10748863Y-17496270D02*
X10739339Y-17477222D01*
X10739339Y-17477222D02*
X10729815Y-17467698D01*
X10729815Y-17467698D02*
X10710768Y-17458174D01*
X10710768Y-17458174D02*
X10672673Y-17458174D01*
X10672673Y-17458174D02*
X10653625Y-17467698D01*
X10653625Y-17467698D02*
X10644101Y-17477222D01*
X10644101Y-17477222D02*
X10634577Y-17496270D01*
X10872673Y-17381984D02*
X10891720Y-17381984D01*
X10891720Y-17381984D02*
X10910768Y-17391508D01*
X10910768Y-17391508D02*
X10920292Y-17401031D01*
X10920292Y-17401031D02*
X10929815Y-17420079D01*
X10929815Y-17420079D02*
X10939339Y-17458174D01*
X10939339Y-17458174D02*
X10939339Y-17505793D01*
X10939339Y-17505793D02*
X10929815Y-17543889D01*
X10929815Y-17543889D02*
X10920292Y-17562936D01*
X10920292Y-17562936D02*
X10910768Y-17572460D01*
X10910768Y-17572460D02*
X10891720Y-17581984D01*
X10891720Y-17581984D02*
X10872673Y-17581984D01*
X10872673Y-17581984D02*
X10853625Y-17572460D01*
X10853625Y-17572460D02*
X10844101Y-17562936D01*
X10844101Y-17562936D02*
X10834577Y-17543889D01*
X10834577Y-17543889D02*
X10825054Y-17505793D01*
X10825054Y-17505793D02*
X10825054Y-17458174D01*
X10825054Y-17458174D02*
X10834577Y-17420079D01*
X10834577Y-17420079D02*
X10844101Y-17401031D01*
X10844101Y-17401031D02*
X10853625Y-17391508D01*
X10853625Y-17391508D02*
X10872673Y-17381984D01*
X11063149Y-17381984D02*
X11082196Y-17381984D01*
X11082196Y-17381984D02*
X11101244Y-17391508D01*
X11101244Y-17391508D02*
X11110768Y-17401031D01*
X11110768Y-17401031D02*
X11120292Y-17420079D01*
X11120292Y-17420079D02*
X11129815Y-17458174D01*
X11129815Y-17458174D02*
X11129815Y-17505793D01*
X11129815Y-17505793D02*
X11120292Y-17543889D01*
X11120292Y-17543889D02*
X11110768Y-17562936D01*
X11110768Y-17562936D02*
X11101244Y-17572460D01*
X11101244Y-17572460D02*
X11082196Y-17581984D01*
X11082196Y-17581984D02*
X11063149Y-17581984D01*
X11063149Y-17581984D02*
X11044101Y-17572460D01*
X11044101Y-17572460D02*
X11034577Y-17562936D01*
X11034577Y-17562936D02*
X11025054Y-17543889D01*
X11025054Y-17543889D02*
X11015530Y-17505793D01*
X11015530Y-17505793D02*
X11015530Y-17458174D01*
X11015530Y-17458174D02*
X11025054Y-17420079D01*
X11025054Y-17420079D02*
X11034577Y-17401031D01*
X11034577Y-17401031D02*
X11044101Y-17391508D01*
X11044101Y-17391508D02*
X11063149Y-17381984D01*
X11215530Y-17581984D02*
X11215530Y-17448650D01*
X11215530Y-17467698D02*
X11225053Y-17458174D01*
X11225053Y-17458174D02*
X11244101Y-17448650D01*
X11244101Y-17448650D02*
X11272673Y-17448650D01*
X11272673Y-17448650D02*
X11291720Y-17458174D01*
X11291720Y-17458174D02*
X11301244Y-17477222D01*
X11301244Y-17477222D02*
X11301244Y-17581984D01*
X11301244Y-17477222D02*
X11310768Y-17458174D01*
X11310768Y-17458174D02*
X11329815Y-17448650D01*
X11329815Y-17448650D02*
X11358387Y-17448650D01*
X11358387Y-17448650D02*
X11377434Y-17458174D01*
X11377434Y-17458174D02*
X11386958Y-17477222D01*
X11386958Y-17477222D02*
X11386958Y-17581984D01*
X11482196Y-17581984D02*
X11482196Y-17448650D01*
X11482196Y-17467698D02*
X11491720Y-17458174D01*
X11491720Y-17458174D02*
X11510768Y-17448650D01*
X11510768Y-17448650D02*
X11539339Y-17448650D01*
X11539339Y-17448650D02*
X11558387Y-17458174D01*
X11558387Y-17458174D02*
X11567911Y-17477222D01*
X11567911Y-17477222D02*
X11567911Y-17581984D01*
X11567911Y-17477222D02*
X11577434Y-17458174D01*
X11577434Y-17458174D02*
X11596482Y-17448650D01*
X11596482Y-17448650D02*
X11625053Y-17448650D01*
X11625053Y-17448650D02*
X11644101Y-17458174D01*
X11644101Y-17458174D02*
X11653625Y-17477222D01*
X11653625Y-17477222D02*
X11653625Y-17581984D01*
X12044101Y-17372460D02*
X11872673Y-17629603D01*
X12301244Y-17381984D02*
X12320292Y-17381984D01*
X12320292Y-17381984D02*
X12339339Y-17391508D01*
X12339339Y-17391508D02*
X12348863Y-17401031D01*
X12348863Y-17401031D02*
X12358387Y-17420079D01*
X12358387Y-17420079D02*
X12367911Y-17458174D01*
X12367911Y-17458174D02*
X12367911Y-17505793D01*
X12367911Y-17505793D02*
X12358387Y-17543889D01*
X12358387Y-17543889D02*
X12348863Y-17562936D01*
X12348863Y-17562936D02*
X12339339Y-17572460D01*
X12339339Y-17572460D02*
X12320292Y-17581984D01*
X12320292Y-17581984D02*
X12301244Y-17581984D01*
X12301244Y-17581984D02*
X12282196Y-17572460D01*
X12282196Y-17572460D02*
X12272673Y-17562936D01*
X12272673Y-17562936D02*
X12263149Y-17543889D01*
X12263149Y-17543889D02*
X12253625Y-17505793D01*
X12253625Y-17505793D02*
X12253625Y-17458174D01*
X12253625Y-17458174D02*
X12263149Y-17420079D01*
X12263149Y-17420079D02*
X12272673Y-17401031D01*
X12272673Y-17401031D02*
X12282196Y-17391508D01*
X12282196Y-17391508D02*
X12301244Y-17381984D01*
X12453625Y-17562936D02*
X12463149Y-17572460D01*
X12463149Y-17572460D02*
X12453625Y-17581984D01*
X12453625Y-17581984D02*
X12444101Y-17572460D01*
X12444101Y-17572460D02*
X12453625Y-17562936D01*
X12453625Y-17562936D02*
X12453625Y-17581984D01*
X12586958Y-17381984D02*
X12606006Y-17381984D01*
X12606006Y-17381984D02*
X12625054Y-17391508D01*
X12625054Y-17391508D02*
X12634577Y-17401031D01*
X12634577Y-17401031D02*
X12644101Y-17420079D01*
X12644101Y-17420079D02*
X12653625Y-17458174D01*
X12653625Y-17458174D02*
X12653625Y-17505793D01*
X12653625Y-17505793D02*
X12644101Y-17543889D01*
X12644101Y-17543889D02*
X12634577Y-17562936D01*
X12634577Y-17562936D02*
X12625054Y-17572460D01*
X12625054Y-17572460D02*
X12606006Y-17581984D01*
X12606006Y-17581984D02*
X12586958Y-17581984D01*
X12586958Y-17581984D02*
X12567911Y-17572460D01*
X12567911Y-17572460D02*
X12558387Y-17562936D01*
X12558387Y-17562936D02*
X12548863Y-17543889D01*
X12548863Y-17543889D02*
X12539339Y-17505793D01*
X12539339Y-17505793D02*
X12539339Y-17458174D01*
X12539339Y-17458174D02*
X12548863Y-17420079D01*
X12548863Y-17420079D02*
X12558387Y-17401031D01*
X12558387Y-17401031D02*
X12567911Y-17391508D01*
X12567911Y-17391508D02*
X12586958Y-17381984D01*
X12825054Y-17381984D02*
X12786958Y-17381984D01*
X12786958Y-17381984D02*
X12767911Y-17391508D01*
X12767911Y-17391508D02*
X12758387Y-17401031D01*
X12758387Y-17401031D02*
X12739339Y-17429603D01*
X12739339Y-17429603D02*
X12729816Y-17467698D01*
X12729816Y-17467698D02*
X12729816Y-17543889D01*
X12729816Y-17543889D02*
X12739339Y-17562936D01*
X12739339Y-17562936D02*
X12748863Y-17572460D01*
X12748863Y-17572460D02*
X12767911Y-17581984D01*
X12767911Y-17581984D02*
X12806006Y-17581984D01*
X12806006Y-17581984D02*
X12825054Y-17572460D01*
X12825054Y-17572460D02*
X12834577Y-17562936D01*
X12834577Y-17562936D02*
X12844101Y-17543889D01*
X12844101Y-17543889D02*
X12844101Y-17496270D01*
X12844101Y-17496270D02*
X12834577Y-17477222D01*
X12834577Y-17477222D02*
X12825054Y-17467698D01*
X12825054Y-17467698D02*
X12806006Y-17458174D01*
X12806006Y-17458174D02*
X12767911Y-17458174D01*
X12767911Y-17458174D02*
X12748863Y-17467698D01*
X12748863Y-17467698D02*
X12739339Y-17477222D01*
X12739339Y-17477222D02*
X12729816Y-17496270D01*
X12910768Y-17381984D02*
X13034577Y-17381984D01*
X13034577Y-17381984D02*
X12967911Y-17458174D01*
X12967911Y-17458174D02*
X12996482Y-17458174D01*
X12996482Y-17458174D02*
X13015530Y-17467698D01*
X13015530Y-17467698D02*
X13025054Y-17477222D01*
X13025054Y-17477222D02*
X13034577Y-17496270D01*
X13034577Y-17496270D02*
X13034577Y-17543889D01*
X13034577Y-17543889D02*
X13025054Y-17562936D01*
X13025054Y-17562936D02*
X13015530Y-17572460D01*
X13015530Y-17572460D02*
X12996482Y-17581984D01*
X12996482Y-17581984D02*
X12939339Y-17581984D01*
X12939339Y-17581984D02*
X12920292Y-17572460D01*
X12920292Y-17572460D02*
X12910768Y-17562936D01*
X13158387Y-17381984D02*
X13177435Y-17381984D01*
X13177435Y-17381984D02*
X13196482Y-17391508D01*
X13196482Y-17391508D02*
X13206006Y-17401031D01*
X13206006Y-17401031D02*
X13215530Y-17420079D01*
X13215530Y-17420079D02*
X13225054Y-17458174D01*
X13225054Y-17458174D02*
X13225054Y-17505793D01*
X13225054Y-17505793D02*
X13215530Y-17543889D01*
X13215530Y-17543889D02*
X13206006Y-17562936D01*
X13206006Y-17562936D02*
X13196482Y-17572460D01*
X13196482Y-17572460D02*
X13177435Y-17581984D01*
X13177435Y-17581984D02*
X13158387Y-17581984D01*
X13158387Y-17581984D02*
X13139339Y-17572460D01*
X13139339Y-17572460D02*
X13129816Y-17562936D01*
X13129816Y-17562936D02*
X13120292Y-17543889D01*
X13120292Y-17543889D02*
X13110768Y-17505793D01*
X13110768Y-17505793D02*
X13110768Y-17458174D01*
X13110768Y-17458174D02*
X13120292Y-17420079D01*
X13120292Y-17420079D02*
X13129816Y-17401031D01*
X13129816Y-17401031D02*
X13139339Y-17391508D01*
X13139339Y-17391508D02*
X13158387Y-17381984D01*
X13301244Y-17381984D02*
X13301244Y-17420079D01*
X13377435Y-17381984D02*
X13377435Y-17420079D01*
X13672673Y-17658174D02*
X13663149Y-17648650D01*
X13663149Y-17648650D02*
X13644101Y-17620079D01*
X13644101Y-17620079D02*
X13634578Y-17601031D01*
X13634578Y-17601031D02*
X13625054Y-17572460D01*
X13625054Y-17572460D02*
X13615530Y-17524841D01*
X13615530Y-17524841D02*
X13615530Y-17486746D01*
X13615530Y-17486746D02*
X13625054Y-17439127D01*
X13625054Y-17439127D02*
X13634578Y-17410555D01*
X13634578Y-17410555D02*
X13644101Y-17391508D01*
X13644101Y-17391508D02*
X13663149Y-17362936D01*
X13663149Y-17362936D02*
X13672673Y-17353412D01*
X13853625Y-17581984D02*
X13739339Y-17581984D01*
X13796482Y-17581984D02*
X13796482Y-17381984D01*
X13796482Y-17381984D02*
X13777435Y-17410555D01*
X13777435Y-17410555D02*
X13758387Y-17429603D01*
X13758387Y-17429603D02*
X13739339Y-17439127D01*
X13977435Y-17381984D02*
X13996482Y-17381984D01*
X13996482Y-17381984D02*
X14015530Y-17391508D01*
X14015530Y-17391508D02*
X14025054Y-17401031D01*
X14025054Y-17401031D02*
X14034578Y-17420079D01*
X14034578Y-17420079D02*
X14044101Y-17458174D01*
X14044101Y-17458174D02*
X14044101Y-17505793D01*
X14044101Y-17505793D02*
X14034578Y-17543889D01*
X14034578Y-17543889D02*
X14025054Y-17562936D01*
X14025054Y-17562936D02*
X14015530Y-17572460D01*
X14015530Y-17572460D02*
X13996482Y-17581984D01*
X13996482Y-17581984D02*
X13977435Y-17581984D01*
X13977435Y-17581984D02*
X13958387Y-17572460D01*
X13958387Y-17572460D02*
X13948863Y-17562936D01*
X13948863Y-17562936D02*
X13939339Y-17543889D01*
X13939339Y-17543889D02*
X13929816Y-17505793D01*
X13929816Y-17505793D02*
X13929816Y-17458174D01*
X13929816Y-17458174D02*
X13939339Y-17420079D01*
X13939339Y-17420079D02*
X13948863Y-17401031D01*
X13948863Y-17401031D02*
X13958387Y-17391508D01*
X13958387Y-17391508D02*
X13977435Y-17381984D01*
X14282197Y-17581984D02*
X14282197Y-17381984D01*
X14367911Y-17581984D02*
X14367911Y-17477222D01*
X14367911Y-17477222D02*
X14358387Y-17458174D01*
X14358387Y-17458174D02*
X14339340Y-17448650D01*
X14339340Y-17448650D02*
X14310768Y-17448650D01*
X14310768Y-17448650D02*
X14291720Y-17458174D01*
X14291720Y-17458174D02*
X14282197Y-17467698D01*
X14491720Y-17581984D02*
X14472673Y-17572460D01*
X14472673Y-17572460D02*
X14463149Y-17562936D01*
X14463149Y-17562936D02*
X14453625Y-17543889D01*
X14453625Y-17543889D02*
X14453625Y-17486746D01*
X14453625Y-17486746D02*
X14463149Y-17467698D01*
X14463149Y-17467698D02*
X14472673Y-17458174D01*
X14472673Y-17458174D02*
X14491720Y-17448650D01*
X14491720Y-17448650D02*
X14520292Y-17448650D01*
X14520292Y-17448650D02*
X14539340Y-17458174D01*
X14539340Y-17458174D02*
X14548863Y-17467698D01*
X14548863Y-17467698D02*
X14558387Y-17486746D01*
X14558387Y-17486746D02*
X14558387Y-17543889D01*
X14558387Y-17543889D02*
X14548863Y-17562936D01*
X14548863Y-17562936D02*
X14539340Y-17572460D01*
X14539340Y-17572460D02*
X14520292Y-17581984D01*
X14520292Y-17581984D02*
X14491720Y-17581984D01*
X14672673Y-17581984D02*
X14653625Y-17572460D01*
X14653625Y-17572460D02*
X14644101Y-17553412D01*
X14644101Y-17553412D02*
X14644101Y-17381984D01*
X14825054Y-17572460D02*
X14806006Y-17581984D01*
X14806006Y-17581984D02*
X14767911Y-17581984D01*
X14767911Y-17581984D02*
X14748863Y-17572460D01*
X14748863Y-17572460D02*
X14739340Y-17553412D01*
X14739340Y-17553412D02*
X14739340Y-17477222D01*
X14739340Y-17477222D02*
X14748863Y-17458174D01*
X14748863Y-17458174D02*
X14767911Y-17448650D01*
X14767911Y-17448650D02*
X14806006Y-17448650D01*
X14806006Y-17448650D02*
X14825054Y-17458174D01*
X14825054Y-17458174D02*
X14834578Y-17477222D01*
X14834578Y-17477222D02*
X14834578Y-17496270D01*
X14834578Y-17496270D02*
X14739340Y-17515317D01*
X14910768Y-17572460D02*
X14929816Y-17581984D01*
X14929816Y-17581984D02*
X14967911Y-17581984D01*
X14967911Y-17581984D02*
X14986959Y-17572460D01*
X14986959Y-17572460D02*
X14996482Y-17553412D01*
X14996482Y-17553412D02*
X14996482Y-17543889D01*
X14996482Y-17543889D02*
X14986959Y-17524841D01*
X14986959Y-17524841D02*
X14967911Y-17515317D01*
X14967911Y-17515317D02*
X14939340Y-17515317D01*
X14939340Y-17515317D02*
X14920292Y-17505793D01*
X14920292Y-17505793D02*
X14910768Y-17486746D01*
X14910768Y-17486746D02*
X14910768Y-17477222D01*
X14910768Y-17477222D02*
X14920292Y-17458174D01*
X14920292Y-17458174D02*
X14939340Y-17448650D01*
X14939340Y-17448650D02*
X14967911Y-17448650D01*
X14967911Y-17448650D02*
X14986959Y-17458174D01*
X15063149Y-17658174D02*
X15072673Y-17648650D01*
X15072673Y-17648650D02*
X15091721Y-17620079D01*
X15091721Y-17620079D02*
X15101244Y-17601031D01*
X15101244Y-17601031D02*
X15110768Y-17572460D01*
X15110768Y-17572460D02*
X15120292Y-17524841D01*
X15120292Y-17524841D02*
X15120292Y-17486746D01*
X15120292Y-17486746D02*
X15110768Y-17439127D01*
X15110768Y-17439127D02*
X15101244Y-17410555D01*
X15101244Y-17410555D02*
X15091721Y-17391508D01*
X15091721Y-17391508D02*
X15072673Y-17362936D01*
X15072673Y-17362936D02*
X15063149Y-17353412D01*
D17*
X9922610Y-17683000D02*
X10097610Y-17858000D01*
X10097610Y-17683000D02*
X9922610Y-17858000D01*
X10010110Y-17858000D02*
X10097610Y-17770500D01*
X10010110Y-17683000D01*
X9922610Y-17770500D01*
X10010110Y-17858000D01*
D11*
X10463149Y-17861984D02*
X10348863Y-17861984D01*
X10406006Y-17861984D02*
X10406006Y-17661984D01*
X10406006Y-17661984D02*
X10386958Y-17690555D01*
X10386958Y-17690555D02*
X10367911Y-17709603D01*
X10367911Y-17709603D02*
X10348863Y-17719127D01*
X10548863Y-17842936D02*
X10558387Y-17852460D01*
X10558387Y-17852460D02*
X10548863Y-17861984D01*
X10548863Y-17861984D02*
X10539339Y-17852460D01*
X10539339Y-17852460D02*
X10548863Y-17842936D01*
X10548863Y-17842936D02*
X10548863Y-17861984D01*
X10625054Y-17661984D02*
X10758387Y-17661984D01*
X10758387Y-17661984D02*
X10672673Y-17861984D01*
X10929815Y-17661984D02*
X10834577Y-17661984D01*
X10834577Y-17661984D02*
X10825054Y-17757222D01*
X10825054Y-17757222D02*
X10834577Y-17747698D01*
X10834577Y-17747698D02*
X10853625Y-17738174D01*
X10853625Y-17738174D02*
X10901244Y-17738174D01*
X10901244Y-17738174D02*
X10920292Y-17747698D01*
X10920292Y-17747698D02*
X10929815Y-17757222D01*
X10929815Y-17757222D02*
X10939339Y-17776270D01*
X10939339Y-17776270D02*
X10939339Y-17823889D01*
X10939339Y-17823889D02*
X10929815Y-17842936D01*
X10929815Y-17842936D02*
X10920292Y-17852460D01*
X10920292Y-17852460D02*
X10901244Y-17861984D01*
X10901244Y-17861984D02*
X10853625Y-17861984D01*
X10853625Y-17861984D02*
X10834577Y-17852460D01*
X10834577Y-17852460D02*
X10825054Y-17842936D01*
X11063149Y-17661984D02*
X11082196Y-17661984D01*
X11082196Y-17661984D02*
X11101244Y-17671508D01*
X11101244Y-17671508D02*
X11110768Y-17681031D01*
X11110768Y-17681031D02*
X11120292Y-17700079D01*
X11120292Y-17700079D02*
X11129815Y-17738174D01*
X11129815Y-17738174D02*
X11129815Y-17785793D01*
X11129815Y-17785793D02*
X11120292Y-17823889D01*
X11120292Y-17823889D02*
X11110768Y-17842936D01*
X11110768Y-17842936D02*
X11101244Y-17852460D01*
X11101244Y-17852460D02*
X11082196Y-17861984D01*
X11082196Y-17861984D02*
X11063149Y-17861984D01*
X11063149Y-17861984D02*
X11044101Y-17852460D01*
X11044101Y-17852460D02*
X11034577Y-17842936D01*
X11034577Y-17842936D02*
X11025054Y-17823889D01*
X11025054Y-17823889D02*
X11015530Y-17785793D01*
X11015530Y-17785793D02*
X11015530Y-17738174D01*
X11015530Y-17738174D02*
X11025054Y-17700079D01*
X11025054Y-17700079D02*
X11034577Y-17681031D01*
X11034577Y-17681031D02*
X11044101Y-17671508D01*
X11044101Y-17671508D02*
X11063149Y-17661984D01*
X11215530Y-17861984D02*
X11215530Y-17728650D01*
X11215530Y-17747698D02*
X11225053Y-17738174D01*
X11225053Y-17738174D02*
X11244101Y-17728650D01*
X11244101Y-17728650D02*
X11272673Y-17728650D01*
X11272673Y-17728650D02*
X11291720Y-17738174D01*
X11291720Y-17738174D02*
X11301244Y-17757222D01*
X11301244Y-17757222D02*
X11301244Y-17861984D01*
X11301244Y-17757222D02*
X11310768Y-17738174D01*
X11310768Y-17738174D02*
X11329815Y-17728650D01*
X11329815Y-17728650D02*
X11358387Y-17728650D01*
X11358387Y-17728650D02*
X11377434Y-17738174D01*
X11377434Y-17738174D02*
X11386958Y-17757222D01*
X11386958Y-17757222D02*
X11386958Y-17861984D01*
X11482196Y-17861984D02*
X11482196Y-17728650D01*
X11482196Y-17747698D02*
X11491720Y-17738174D01*
X11491720Y-17738174D02*
X11510768Y-17728650D01*
X11510768Y-17728650D02*
X11539339Y-17728650D01*
X11539339Y-17728650D02*
X11558387Y-17738174D01*
X11558387Y-17738174D02*
X11567911Y-17757222D01*
X11567911Y-17757222D02*
X11567911Y-17861984D01*
X11567911Y-17757222D02*
X11577434Y-17738174D01*
X11577434Y-17738174D02*
X11596482Y-17728650D01*
X11596482Y-17728650D02*
X11625053Y-17728650D01*
X11625053Y-17728650D02*
X11644101Y-17738174D01*
X11644101Y-17738174D02*
X11653625Y-17757222D01*
X11653625Y-17757222D02*
X11653625Y-17861984D01*
X12044101Y-17652460D02*
X11872673Y-17909603D01*
X12301244Y-17661984D02*
X12320292Y-17661984D01*
X12320292Y-17661984D02*
X12339339Y-17671508D01*
X12339339Y-17671508D02*
X12348863Y-17681031D01*
X12348863Y-17681031D02*
X12358387Y-17700079D01*
X12358387Y-17700079D02*
X12367911Y-17738174D01*
X12367911Y-17738174D02*
X12367911Y-17785793D01*
X12367911Y-17785793D02*
X12358387Y-17823889D01*
X12358387Y-17823889D02*
X12348863Y-17842936D01*
X12348863Y-17842936D02*
X12339339Y-17852460D01*
X12339339Y-17852460D02*
X12320292Y-17861984D01*
X12320292Y-17861984D02*
X12301244Y-17861984D01*
X12301244Y-17861984D02*
X12282196Y-17852460D01*
X12282196Y-17852460D02*
X12272673Y-17842936D01*
X12272673Y-17842936D02*
X12263149Y-17823889D01*
X12263149Y-17823889D02*
X12253625Y-17785793D01*
X12253625Y-17785793D02*
X12253625Y-17738174D01*
X12253625Y-17738174D02*
X12263149Y-17700079D01*
X12263149Y-17700079D02*
X12272673Y-17681031D01*
X12272673Y-17681031D02*
X12282196Y-17671508D01*
X12282196Y-17671508D02*
X12301244Y-17661984D01*
X12453625Y-17842936D02*
X12463149Y-17852460D01*
X12463149Y-17852460D02*
X12453625Y-17861984D01*
X12453625Y-17861984D02*
X12444101Y-17852460D01*
X12444101Y-17852460D02*
X12453625Y-17842936D01*
X12453625Y-17842936D02*
X12453625Y-17861984D01*
X12586958Y-17661984D02*
X12606006Y-17661984D01*
X12606006Y-17661984D02*
X12625054Y-17671508D01*
X12625054Y-17671508D02*
X12634577Y-17681031D01*
X12634577Y-17681031D02*
X12644101Y-17700079D01*
X12644101Y-17700079D02*
X12653625Y-17738174D01*
X12653625Y-17738174D02*
X12653625Y-17785793D01*
X12653625Y-17785793D02*
X12644101Y-17823889D01*
X12644101Y-17823889D02*
X12634577Y-17842936D01*
X12634577Y-17842936D02*
X12625054Y-17852460D01*
X12625054Y-17852460D02*
X12606006Y-17861984D01*
X12606006Y-17861984D02*
X12586958Y-17861984D01*
X12586958Y-17861984D02*
X12567911Y-17852460D01*
X12567911Y-17852460D02*
X12558387Y-17842936D01*
X12558387Y-17842936D02*
X12548863Y-17823889D01*
X12548863Y-17823889D02*
X12539339Y-17785793D01*
X12539339Y-17785793D02*
X12539339Y-17738174D01*
X12539339Y-17738174D02*
X12548863Y-17700079D01*
X12548863Y-17700079D02*
X12558387Y-17681031D01*
X12558387Y-17681031D02*
X12567911Y-17671508D01*
X12567911Y-17671508D02*
X12586958Y-17661984D01*
X12825054Y-17661984D02*
X12786958Y-17661984D01*
X12786958Y-17661984D02*
X12767911Y-17671508D01*
X12767911Y-17671508D02*
X12758387Y-17681031D01*
X12758387Y-17681031D02*
X12739339Y-17709603D01*
X12739339Y-17709603D02*
X12729816Y-17747698D01*
X12729816Y-17747698D02*
X12729816Y-17823889D01*
X12729816Y-17823889D02*
X12739339Y-17842936D01*
X12739339Y-17842936D02*
X12748863Y-17852460D01*
X12748863Y-17852460D02*
X12767911Y-17861984D01*
X12767911Y-17861984D02*
X12806006Y-17861984D01*
X12806006Y-17861984D02*
X12825054Y-17852460D01*
X12825054Y-17852460D02*
X12834577Y-17842936D01*
X12834577Y-17842936D02*
X12844101Y-17823889D01*
X12844101Y-17823889D02*
X12844101Y-17776270D01*
X12844101Y-17776270D02*
X12834577Y-17757222D01*
X12834577Y-17757222D02*
X12825054Y-17747698D01*
X12825054Y-17747698D02*
X12806006Y-17738174D01*
X12806006Y-17738174D02*
X12767911Y-17738174D01*
X12767911Y-17738174D02*
X12748863Y-17747698D01*
X12748863Y-17747698D02*
X12739339Y-17757222D01*
X12739339Y-17757222D02*
X12729816Y-17776270D01*
X12958387Y-17747698D02*
X12939339Y-17738174D01*
X12939339Y-17738174D02*
X12929816Y-17728650D01*
X12929816Y-17728650D02*
X12920292Y-17709603D01*
X12920292Y-17709603D02*
X12920292Y-17700079D01*
X12920292Y-17700079D02*
X12929816Y-17681031D01*
X12929816Y-17681031D02*
X12939339Y-17671508D01*
X12939339Y-17671508D02*
X12958387Y-17661984D01*
X12958387Y-17661984D02*
X12996482Y-17661984D01*
X12996482Y-17661984D02*
X13015530Y-17671508D01*
X13015530Y-17671508D02*
X13025054Y-17681031D01*
X13025054Y-17681031D02*
X13034577Y-17700079D01*
X13034577Y-17700079D02*
X13034577Y-17709603D01*
X13034577Y-17709603D02*
X13025054Y-17728650D01*
X13025054Y-17728650D02*
X13015530Y-17738174D01*
X13015530Y-17738174D02*
X12996482Y-17747698D01*
X12996482Y-17747698D02*
X12958387Y-17747698D01*
X12958387Y-17747698D02*
X12939339Y-17757222D01*
X12939339Y-17757222D02*
X12929816Y-17766746D01*
X12929816Y-17766746D02*
X12920292Y-17785793D01*
X12920292Y-17785793D02*
X12920292Y-17823889D01*
X12920292Y-17823889D02*
X12929816Y-17842936D01*
X12929816Y-17842936D02*
X12939339Y-17852460D01*
X12939339Y-17852460D02*
X12958387Y-17861984D01*
X12958387Y-17861984D02*
X12996482Y-17861984D01*
X12996482Y-17861984D02*
X13015530Y-17852460D01*
X13015530Y-17852460D02*
X13025054Y-17842936D01*
X13025054Y-17842936D02*
X13034577Y-17823889D01*
X13034577Y-17823889D02*
X13034577Y-17785793D01*
X13034577Y-17785793D02*
X13025054Y-17766746D01*
X13025054Y-17766746D02*
X13015530Y-17757222D01*
X13015530Y-17757222D02*
X12996482Y-17747698D01*
X13129816Y-17861984D02*
X13167911Y-17861984D01*
X13167911Y-17861984D02*
X13186958Y-17852460D01*
X13186958Y-17852460D02*
X13196482Y-17842936D01*
X13196482Y-17842936D02*
X13215530Y-17814365D01*
X13215530Y-17814365D02*
X13225054Y-17776270D01*
X13225054Y-17776270D02*
X13225054Y-17700079D01*
X13225054Y-17700079D02*
X13215530Y-17681031D01*
X13215530Y-17681031D02*
X13206006Y-17671508D01*
X13206006Y-17671508D02*
X13186958Y-17661984D01*
X13186958Y-17661984D02*
X13148863Y-17661984D01*
X13148863Y-17661984D02*
X13129816Y-17671508D01*
X13129816Y-17671508D02*
X13120292Y-17681031D01*
X13120292Y-17681031D02*
X13110768Y-17700079D01*
X13110768Y-17700079D02*
X13110768Y-17747698D01*
X13110768Y-17747698D02*
X13120292Y-17766746D01*
X13120292Y-17766746D02*
X13129816Y-17776270D01*
X13129816Y-17776270D02*
X13148863Y-17785793D01*
X13148863Y-17785793D02*
X13186958Y-17785793D01*
X13186958Y-17785793D02*
X13206006Y-17776270D01*
X13206006Y-17776270D02*
X13215530Y-17766746D01*
X13215530Y-17766746D02*
X13225054Y-17747698D01*
X13301244Y-17661984D02*
X13301244Y-17700079D01*
X13377435Y-17661984D02*
X13377435Y-17700079D01*
X13672673Y-17938174D02*
X13663149Y-17928650D01*
X13663149Y-17928650D02*
X13644101Y-17900079D01*
X13644101Y-17900079D02*
X13634578Y-17881031D01*
X13634578Y-17881031D02*
X13625054Y-17852460D01*
X13625054Y-17852460D02*
X13615530Y-17804841D01*
X13615530Y-17804841D02*
X13615530Y-17766746D01*
X13615530Y-17766746D02*
X13625054Y-17719127D01*
X13625054Y-17719127D02*
X13634578Y-17690555D01*
X13634578Y-17690555D02*
X13644101Y-17671508D01*
X13644101Y-17671508D02*
X13663149Y-17642936D01*
X13663149Y-17642936D02*
X13672673Y-17633412D01*
X13834578Y-17728650D02*
X13834578Y-17861984D01*
X13786958Y-17652460D02*
X13739339Y-17795317D01*
X13739339Y-17795317D02*
X13863149Y-17795317D01*
X14091720Y-17861984D02*
X14091720Y-17661984D01*
X14177435Y-17861984D02*
X14177435Y-17757222D01*
X14177435Y-17757222D02*
X14167911Y-17738174D01*
X14167911Y-17738174D02*
X14148863Y-17728650D01*
X14148863Y-17728650D02*
X14120292Y-17728650D01*
X14120292Y-17728650D02*
X14101244Y-17738174D01*
X14101244Y-17738174D02*
X14091720Y-17747698D01*
X14301244Y-17861984D02*
X14282197Y-17852460D01*
X14282197Y-17852460D02*
X14272673Y-17842936D01*
X14272673Y-17842936D02*
X14263149Y-17823889D01*
X14263149Y-17823889D02*
X14263149Y-17766746D01*
X14263149Y-17766746D02*
X14272673Y-17747698D01*
X14272673Y-17747698D02*
X14282197Y-17738174D01*
X14282197Y-17738174D02*
X14301244Y-17728650D01*
X14301244Y-17728650D02*
X14329816Y-17728650D01*
X14329816Y-17728650D02*
X14348863Y-17738174D01*
X14348863Y-17738174D02*
X14358387Y-17747698D01*
X14358387Y-17747698D02*
X14367911Y-17766746D01*
X14367911Y-17766746D02*
X14367911Y-17823889D01*
X14367911Y-17823889D02*
X14358387Y-17842936D01*
X14358387Y-17842936D02*
X14348863Y-17852460D01*
X14348863Y-17852460D02*
X14329816Y-17861984D01*
X14329816Y-17861984D02*
X14301244Y-17861984D01*
X14482197Y-17861984D02*
X14463149Y-17852460D01*
X14463149Y-17852460D02*
X14453625Y-17833412D01*
X14453625Y-17833412D02*
X14453625Y-17661984D01*
X14634578Y-17852460D02*
X14615530Y-17861984D01*
X14615530Y-17861984D02*
X14577435Y-17861984D01*
X14577435Y-17861984D02*
X14558387Y-17852460D01*
X14558387Y-17852460D02*
X14548863Y-17833412D01*
X14548863Y-17833412D02*
X14548863Y-17757222D01*
X14548863Y-17757222D02*
X14558387Y-17738174D01*
X14558387Y-17738174D02*
X14577435Y-17728650D01*
X14577435Y-17728650D02*
X14615530Y-17728650D01*
X14615530Y-17728650D02*
X14634578Y-17738174D01*
X14634578Y-17738174D02*
X14644101Y-17757222D01*
X14644101Y-17757222D02*
X14644101Y-17776270D01*
X14644101Y-17776270D02*
X14548863Y-17795317D01*
X14720292Y-17852460D02*
X14739340Y-17861984D01*
X14739340Y-17861984D02*
X14777435Y-17861984D01*
X14777435Y-17861984D02*
X14796482Y-17852460D01*
X14796482Y-17852460D02*
X14806006Y-17833412D01*
X14806006Y-17833412D02*
X14806006Y-17823889D01*
X14806006Y-17823889D02*
X14796482Y-17804841D01*
X14796482Y-17804841D02*
X14777435Y-17795317D01*
X14777435Y-17795317D02*
X14748863Y-17795317D01*
X14748863Y-17795317D02*
X14729816Y-17785793D01*
X14729816Y-17785793D02*
X14720292Y-17766746D01*
X14720292Y-17766746D02*
X14720292Y-17757222D01*
X14720292Y-17757222D02*
X14729816Y-17738174D01*
X14729816Y-17738174D02*
X14748863Y-17728650D01*
X14748863Y-17728650D02*
X14777435Y-17728650D01*
X14777435Y-17728650D02*
X14796482Y-17738174D01*
X14872673Y-17938174D02*
X14882197Y-17928650D01*
X14882197Y-17928650D02*
X14901244Y-17900079D01*
X14901244Y-17900079D02*
X14910768Y-17881031D01*
X14910768Y-17881031D02*
X14920292Y-17852460D01*
X14920292Y-17852460D02*
X14929816Y-17804841D01*
X14929816Y-17804841D02*
X14929816Y-17766746D01*
X14929816Y-17766746D02*
X14920292Y-17719127D01*
X14920292Y-17719127D02*
X14910768Y-17690555D01*
X14910768Y-17690555D02*
X14901244Y-17671508D01*
X14901244Y-17671508D02*
X14882197Y-17642936D01*
X14882197Y-17642936D02*
X14872673Y-17633412D01*
M02*
