%TF.GenerationSoftware,KiCad,Pcbnew,9.0.3*%
%TF.CreationDate,2025-11-15T13:42:58-05:00*%
%TF.ProjectId,StinkyController 0.5,5374696e-6b79-4436-9f6e-74726f6c6c65,rev?*%
%TF.SameCoordinates,Original*%
%TF.FileFunction,Legend,Bot*%
%TF.FilePolarity,Positive*%
%FSLAX46Y46*%
G04 Gerber Fmt 4.6, Leading zero omitted, Abs format (unit mm)*
G04 Created by KiCad (PCBNEW 9.0.3) date 2025-11-15 13:42:58*
%MOMM*%
%LPD*%
G01*
G04 APERTURE LIST*
%ADD10C,0.065024*%
%ADD11C,0.081280*%
%ADD12C,0.142240*%
G04 APERTURE END LIST*
D10*
X190433265Y-79255579D02*
X190468873Y-79326796D01*
X190468873Y-79326796D02*
X190468873Y-79433621D01*
X190468873Y-79433621D02*
X190433265Y-79540446D01*
X190433265Y-79540446D02*
X190362048Y-79611663D01*
X190362048Y-79611663D02*
X190290831Y-79647272D01*
X190290831Y-79647272D02*
X190148398Y-79682880D01*
X190148398Y-79682880D02*
X190041573Y-79682880D01*
X190041573Y-79682880D02*
X189899139Y-79647272D01*
X189899139Y-79647272D02*
X189827922Y-79611663D01*
X189827922Y-79611663D02*
X189756706Y-79540446D01*
X189756706Y-79540446D02*
X189721097Y-79433621D01*
X189721097Y-79433621D02*
X189721097Y-79362405D01*
X189721097Y-79362405D02*
X189756706Y-79255579D01*
X189756706Y-79255579D02*
X189792314Y-79219971D01*
X189792314Y-79219971D02*
X190041573Y-79219971D01*
X190041573Y-79219971D02*
X190041573Y-79362405D01*
X189721097Y-78899496D02*
X190468873Y-78899496D01*
X190468873Y-78899496D02*
X189721097Y-78472195D01*
X189721097Y-78472195D02*
X190468873Y-78472195D01*
X189721097Y-78116112D02*
X190468873Y-78116112D01*
X190468873Y-78116112D02*
X190468873Y-77938070D01*
X190468873Y-77938070D02*
X190433265Y-77831245D01*
X190433265Y-77831245D02*
X190362048Y-77760028D01*
X190362048Y-77760028D02*
X190290831Y-77724419D01*
X190290831Y-77724419D02*
X190148398Y-77688811D01*
X190148398Y-77688811D02*
X190041573Y-77688811D01*
X190041573Y-77688811D02*
X189899139Y-77724419D01*
X189899139Y-77724419D02*
X189827922Y-77760028D01*
X189827922Y-77760028D02*
X189756706Y-77831245D01*
X189756706Y-77831245D02*
X189721097Y-77938070D01*
X189721097Y-77938070D02*
X189721097Y-78116112D01*
X184968873Y-80429173D02*
X184968873Y-80001872D01*
X184221097Y-80215522D02*
X184968873Y-80215522D01*
X184221097Y-79752614D02*
X184968873Y-79752614D01*
X184612789Y-79752614D02*
X184612789Y-79325313D01*
X184221097Y-79325313D02*
X184968873Y-79325313D01*
X184221097Y-78541929D02*
X184577181Y-78791188D01*
X184221097Y-78969230D02*
X184968873Y-78969230D01*
X184968873Y-78969230D02*
X184968873Y-78684363D01*
X184968873Y-78684363D02*
X184933265Y-78613146D01*
X184933265Y-78613146D02*
X184897656Y-78577537D01*
X184897656Y-78577537D02*
X184826440Y-78541929D01*
X184826440Y-78541929D02*
X184719614Y-78541929D01*
X184719614Y-78541929D02*
X184648398Y-78577537D01*
X184648398Y-78577537D02*
X184612789Y-78613146D01*
X184612789Y-78613146D02*
X184577181Y-78684363D01*
X184577181Y-78684363D02*
X184577181Y-78969230D01*
X184968873Y-78079020D02*
X184968873Y-77936587D01*
X184968873Y-77936587D02*
X184933265Y-77865370D01*
X184933265Y-77865370D02*
X184862048Y-77794153D01*
X184862048Y-77794153D02*
X184719614Y-77758545D01*
X184719614Y-77758545D02*
X184470356Y-77758545D01*
X184470356Y-77758545D02*
X184327922Y-77794153D01*
X184327922Y-77794153D02*
X184256706Y-77865370D01*
X184256706Y-77865370D02*
X184221097Y-77936587D01*
X184221097Y-77936587D02*
X184221097Y-78079020D01*
X184221097Y-78079020D02*
X184256706Y-78150237D01*
X184256706Y-78150237D02*
X184327922Y-78221454D01*
X184327922Y-78221454D02*
X184470356Y-78257062D01*
X184470356Y-78257062D02*
X184719614Y-78257062D01*
X184719614Y-78257062D02*
X184862048Y-78221454D01*
X184862048Y-78221454D02*
X184933265Y-78150237D01*
X184933265Y-78150237D02*
X184968873Y-78079020D01*
X184968873Y-77544895D02*
X184968873Y-77117594D01*
X184221097Y-77331244D02*
X184968873Y-77331244D01*
X184221097Y-130320865D02*
X184968873Y-130320865D01*
X184612789Y-130320865D02*
X184612789Y-129893564D01*
X184221097Y-129893564D02*
X184968873Y-129893564D01*
X184434747Y-129573089D02*
X184434747Y-129217005D01*
X184221097Y-129644306D02*
X184968873Y-129395047D01*
X184968873Y-129395047D02*
X184221097Y-129145788D01*
X184221097Y-128540446D02*
X184221097Y-128896530D01*
X184221097Y-128896530D02*
X184968873Y-128896530D01*
X184221097Y-127935104D02*
X184221097Y-128291188D01*
X184221097Y-128291188D02*
X184968873Y-128291188D01*
X184292314Y-126688811D02*
X184256706Y-126724419D01*
X184256706Y-126724419D02*
X184221097Y-126831245D01*
X184221097Y-126831245D02*
X184221097Y-126902461D01*
X184221097Y-126902461D02*
X184256706Y-127009286D01*
X184256706Y-127009286D02*
X184327922Y-127080503D01*
X184327922Y-127080503D02*
X184399139Y-127116112D01*
X184399139Y-127116112D02*
X184541573Y-127151720D01*
X184541573Y-127151720D02*
X184648398Y-127151720D01*
X184648398Y-127151720D02*
X184790831Y-127116112D01*
X184790831Y-127116112D02*
X184862048Y-127080503D01*
X184862048Y-127080503D02*
X184933265Y-127009286D01*
X184933265Y-127009286D02*
X184968873Y-126902461D01*
X184968873Y-126902461D02*
X184968873Y-126831245D01*
X184968873Y-126831245D02*
X184933265Y-126724419D01*
X184933265Y-126724419D02*
X184897656Y-126688811D01*
D11*
X184916306Y-133193575D02*
X184960816Y-133282596D01*
X184960816Y-133282596D02*
X184960816Y-133416127D01*
X184960816Y-133416127D02*
X184916306Y-133549659D01*
X184916306Y-133549659D02*
X184827285Y-133638680D01*
X184827285Y-133638680D02*
X184738264Y-133683190D01*
X184738264Y-133683190D02*
X184560222Y-133727701D01*
X184560222Y-133727701D02*
X184426690Y-133727701D01*
X184426690Y-133727701D02*
X184248648Y-133683190D01*
X184248648Y-133683190D02*
X184159627Y-133638680D01*
X184159627Y-133638680D02*
X184070607Y-133549659D01*
X184070607Y-133549659D02*
X184026096Y-133416127D01*
X184026096Y-133416127D02*
X184026096Y-133327106D01*
X184026096Y-133327106D02*
X184070607Y-133193575D01*
X184070607Y-133193575D02*
X184115117Y-133149064D01*
X184115117Y-133149064D02*
X184426690Y-133149064D01*
X184426690Y-133149064D02*
X184426690Y-133327106D01*
X184026096Y-132748470D02*
X184960816Y-132748470D01*
X184960816Y-132748470D02*
X184026096Y-132214344D01*
X184026096Y-132214344D02*
X184960816Y-132214344D01*
X184026096Y-131769240D02*
X184960816Y-131769240D01*
X184960816Y-131769240D02*
X184960816Y-131546688D01*
X184960816Y-131546688D02*
X184916306Y-131413156D01*
X184916306Y-131413156D02*
X184827285Y-131324135D01*
X184827285Y-131324135D02*
X184738264Y-131279625D01*
X184738264Y-131279625D02*
X184560222Y-131235114D01*
X184560222Y-131235114D02*
X184426690Y-131235114D01*
X184426690Y-131235114D02*
X184248648Y-131279625D01*
X184248648Y-131279625D02*
X184159627Y-131324135D01*
X184159627Y-131324135D02*
X184070607Y-131413156D01*
X184070607Y-131413156D02*
X184026096Y-131546688D01*
X184026096Y-131546688D02*
X184026096Y-131769240D01*
D10*
X189721097Y-129820865D02*
X190468873Y-129820865D01*
X190112789Y-129820865D02*
X190112789Y-129393564D01*
X189721097Y-129393564D02*
X190468873Y-129393564D01*
X189934747Y-129073089D02*
X189934747Y-128717005D01*
X189721097Y-129144306D02*
X190468873Y-128895047D01*
X190468873Y-128895047D02*
X189721097Y-128645788D01*
X189721097Y-128040446D02*
X189721097Y-128396530D01*
X189721097Y-128396530D02*
X190468873Y-128396530D01*
X189721097Y-127435104D02*
X189721097Y-127791188D01*
X189721097Y-127791188D02*
X190468873Y-127791188D01*
X190112789Y-126366853D02*
X190077181Y-126260028D01*
X190077181Y-126260028D02*
X190041573Y-126224419D01*
X190041573Y-126224419D02*
X189970356Y-126188811D01*
X189970356Y-126188811D02*
X189863531Y-126188811D01*
X189863531Y-126188811D02*
X189792314Y-126224419D01*
X189792314Y-126224419D02*
X189756706Y-126260028D01*
X189756706Y-126260028D02*
X189721097Y-126331245D01*
X189721097Y-126331245D02*
X189721097Y-126616112D01*
X189721097Y-126616112D02*
X190468873Y-126616112D01*
X190468873Y-126616112D02*
X190468873Y-126366853D01*
X190468873Y-126366853D02*
X190433265Y-126295636D01*
X190433265Y-126295636D02*
X190397656Y-126260028D01*
X190397656Y-126260028D02*
X190326440Y-126224419D01*
X190326440Y-126224419D02*
X190255223Y-126224419D01*
X190255223Y-126224419D02*
X190184006Y-126260028D01*
X190184006Y-126260028D02*
X190148398Y-126295636D01*
X190148398Y-126295636D02*
X190112789Y-126366853D01*
X190112789Y-126366853D02*
X190112789Y-126616112D01*
D12*
X132094848Y-148214524D02*
X131861168Y-148292417D01*
X131861168Y-148292417D02*
X131471702Y-148292417D01*
X131471702Y-148292417D02*
X131315915Y-148214524D01*
X131315915Y-148214524D02*
X131238022Y-148136630D01*
X131238022Y-148136630D02*
X131160128Y-147980844D01*
X131160128Y-147980844D02*
X131160128Y-147825057D01*
X131160128Y-147825057D02*
X131238022Y-147669270D01*
X131238022Y-147669270D02*
X131315915Y-147591377D01*
X131315915Y-147591377D02*
X131471702Y-147513484D01*
X131471702Y-147513484D02*
X131783275Y-147435590D01*
X131783275Y-147435590D02*
X131939062Y-147357697D01*
X131939062Y-147357697D02*
X132016955Y-147279804D01*
X132016955Y-147279804D02*
X132094848Y-147124017D01*
X132094848Y-147124017D02*
X132094848Y-146968230D01*
X132094848Y-146968230D02*
X132016955Y-146812444D01*
X132016955Y-146812444D02*
X131939062Y-146734550D01*
X131939062Y-146734550D02*
X131783275Y-146656657D01*
X131783275Y-146656657D02*
X131393808Y-146656657D01*
X131393808Y-146656657D02*
X131160128Y-146734550D01*
X130459088Y-148292417D02*
X130459088Y-146656657D01*
X129758048Y-148292417D02*
X129758048Y-147435590D01*
X129758048Y-147435590D02*
X129835941Y-147279804D01*
X129835941Y-147279804D02*
X129991728Y-147201910D01*
X129991728Y-147201910D02*
X130225408Y-147201910D01*
X130225408Y-147201910D02*
X130381195Y-147279804D01*
X130381195Y-147279804D02*
X130459088Y-147357697D01*
X128355968Y-148214524D02*
X128511755Y-148292417D01*
X128511755Y-148292417D02*
X128823328Y-148292417D01*
X128823328Y-148292417D02*
X128979115Y-148214524D01*
X128979115Y-148214524D02*
X129057008Y-148058737D01*
X129057008Y-148058737D02*
X129057008Y-147435590D01*
X129057008Y-147435590D02*
X128979115Y-147279804D01*
X128979115Y-147279804D02*
X128823328Y-147201910D01*
X128823328Y-147201910D02*
X128511755Y-147201910D01*
X128511755Y-147201910D02*
X128355968Y-147279804D01*
X128355968Y-147279804D02*
X128278075Y-147435590D01*
X128278075Y-147435590D02*
X128278075Y-147591377D01*
X128278075Y-147591377D02*
X129057008Y-147747164D01*
X127343355Y-148292417D02*
X127499142Y-148214524D01*
X127499142Y-148214524D02*
X127577035Y-148058737D01*
X127577035Y-148058737D02*
X127577035Y-146656657D01*
X126486528Y-148292417D02*
X126642315Y-148214524D01*
X126642315Y-148214524D02*
X126720208Y-148058737D01*
X126720208Y-148058737D02*
X126720208Y-146656657D01*
X124617088Y-147435590D02*
X124071835Y-147435590D01*
X123838155Y-148292417D02*
X124617088Y-148292417D01*
X124617088Y-148292417D02*
X124617088Y-146656657D01*
X124617088Y-146656657D02*
X123838155Y-146656657D01*
X122436075Y-148214524D02*
X122591862Y-148292417D01*
X122591862Y-148292417D02*
X122903435Y-148292417D01*
X122903435Y-148292417D02*
X123059222Y-148214524D01*
X123059222Y-148214524D02*
X123137115Y-148136630D01*
X123137115Y-148136630D02*
X123215008Y-147980844D01*
X123215008Y-147980844D02*
X123215008Y-147513484D01*
X123215008Y-147513484D02*
X123137115Y-147357697D01*
X123137115Y-147357697D02*
X123059222Y-147279804D01*
X123059222Y-147279804D02*
X122903435Y-147201910D01*
X122903435Y-147201910D02*
X122591862Y-147201910D01*
X122591862Y-147201910D02*
X122436075Y-147279804D01*
X121501355Y-148292417D02*
X121657142Y-148214524D01*
X121657142Y-148214524D02*
X121735035Y-148136630D01*
X121735035Y-148136630D02*
X121812928Y-147980844D01*
X121812928Y-147980844D02*
X121812928Y-147513484D01*
X121812928Y-147513484D02*
X121735035Y-147357697D01*
X121735035Y-147357697D02*
X121657142Y-147279804D01*
X121657142Y-147279804D02*
X121501355Y-147201910D01*
X121501355Y-147201910D02*
X121267675Y-147201910D01*
X121267675Y-147201910D02*
X121111888Y-147279804D01*
X121111888Y-147279804D02*
X121033995Y-147357697D01*
X121033995Y-147357697D02*
X120956102Y-147513484D01*
X120956102Y-147513484D02*
X120956102Y-147980844D01*
X120956102Y-147980844D02*
X121033995Y-148136630D01*
X121033995Y-148136630D02*
X121111888Y-148214524D01*
X121111888Y-148214524D02*
X121267675Y-148292417D01*
X121267675Y-148292417D02*
X121501355Y-148292417D01*
X119008769Y-148292417D02*
X119008769Y-146656657D01*
X119008769Y-146656657D02*
X118463516Y-147825057D01*
X118463516Y-147825057D02*
X117918262Y-146656657D01*
X117918262Y-146656657D02*
X117918262Y-148292417D01*
X116438289Y-148292417D02*
X116438289Y-147435590D01*
X116438289Y-147435590D02*
X116516182Y-147279804D01*
X116516182Y-147279804D02*
X116671969Y-147201910D01*
X116671969Y-147201910D02*
X116983542Y-147201910D01*
X116983542Y-147201910D02*
X117139329Y-147279804D01*
X116438289Y-148214524D02*
X116594076Y-148292417D01*
X116594076Y-148292417D02*
X116983542Y-148292417D01*
X116983542Y-148292417D02*
X117139329Y-148214524D01*
X117139329Y-148214524D02*
X117217222Y-148058737D01*
X117217222Y-148058737D02*
X117217222Y-147902950D01*
X117217222Y-147902950D02*
X117139329Y-147747164D01*
X117139329Y-147747164D02*
X116983542Y-147669270D01*
X116983542Y-147669270D02*
X116594076Y-147669270D01*
X116594076Y-147669270D02*
X116438289Y-147591377D01*
X115659356Y-148292417D02*
X115659356Y-147201910D01*
X115659356Y-147513484D02*
X115581463Y-147357697D01*
X115581463Y-147357697D02*
X115503569Y-147279804D01*
X115503569Y-147279804D02*
X115347783Y-147201910D01*
X115347783Y-147201910D02*
X115191996Y-147201910D01*
X113945703Y-148292417D02*
X113945703Y-147435590D01*
X113945703Y-147435590D02*
X114023596Y-147279804D01*
X114023596Y-147279804D02*
X114179383Y-147201910D01*
X114179383Y-147201910D02*
X114490956Y-147201910D01*
X114490956Y-147201910D02*
X114646743Y-147279804D01*
X113945703Y-148214524D02*
X114101490Y-148292417D01*
X114101490Y-148292417D02*
X114490956Y-148292417D01*
X114490956Y-148292417D02*
X114646743Y-148214524D01*
X114646743Y-148214524D02*
X114724636Y-148058737D01*
X114724636Y-148058737D02*
X114724636Y-147902950D01*
X114724636Y-147902950D02*
X114646743Y-147747164D01*
X114646743Y-147747164D02*
X114490956Y-147669270D01*
X114490956Y-147669270D02*
X114101490Y-147669270D01*
X114101490Y-147669270D02*
X113945703Y-147591377D01*
X113400450Y-147201910D02*
X112777303Y-147201910D01*
X113166770Y-146656657D02*
X113166770Y-148058737D01*
X113166770Y-148058737D02*
X113088877Y-148214524D01*
X113088877Y-148214524D02*
X112933090Y-148292417D01*
X112933090Y-148292417D02*
X112777303Y-148292417D01*
X112232050Y-148292417D02*
X112232050Y-146656657D01*
X111531010Y-148292417D02*
X111531010Y-147435590D01*
X111531010Y-147435590D02*
X111608903Y-147279804D01*
X111608903Y-147279804D02*
X111764690Y-147201910D01*
X111764690Y-147201910D02*
X111998370Y-147201910D01*
X111998370Y-147201910D02*
X112154157Y-147279804D01*
X112154157Y-147279804D02*
X112232050Y-147357697D01*
X110518397Y-148292417D02*
X110674184Y-148214524D01*
X110674184Y-148214524D02*
X110752077Y-148136630D01*
X110752077Y-148136630D02*
X110829970Y-147980844D01*
X110829970Y-147980844D02*
X110829970Y-147513484D01*
X110829970Y-147513484D02*
X110752077Y-147357697D01*
X110752077Y-147357697D02*
X110674184Y-147279804D01*
X110674184Y-147279804D02*
X110518397Y-147201910D01*
X110518397Y-147201910D02*
X110284717Y-147201910D01*
X110284717Y-147201910D02*
X110128930Y-147279804D01*
X110128930Y-147279804D02*
X110051037Y-147357697D01*
X110051037Y-147357697D02*
X109973144Y-147513484D01*
X109973144Y-147513484D02*
X109973144Y-147980844D01*
X109973144Y-147980844D02*
X110051037Y-148136630D01*
X110051037Y-148136630D02*
X110128930Y-148214524D01*
X110128930Y-148214524D02*
X110284717Y-148292417D01*
X110284717Y-148292417D02*
X110518397Y-148292417D01*
X109272104Y-147201910D02*
X109272104Y-148292417D01*
X109272104Y-147357697D02*
X109194211Y-147279804D01*
X109194211Y-147279804D02*
X109038424Y-147201910D01*
X109038424Y-147201910D02*
X108804744Y-147201910D01*
X108804744Y-147201910D02*
X108648957Y-147279804D01*
X108648957Y-147279804D02*
X108571064Y-147435590D01*
X108571064Y-147435590D02*
X108571064Y-148292417D01*
D10*
X184221097Y-125714040D02*
X184968873Y-125714040D01*
X184612789Y-125714040D02*
X184612789Y-125286739D01*
X184221097Y-125286739D02*
X184968873Y-125286739D01*
X184434747Y-124966264D02*
X184434747Y-124610180D01*
X184221097Y-125037481D02*
X184968873Y-124788222D01*
X184968873Y-124788222D02*
X184221097Y-124538963D01*
X184221097Y-123933621D02*
X184221097Y-124289705D01*
X184221097Y-124289705D02*
X184968873Y-124289705D01*
X184221097Y-123328279D02*
X184221097Y-123684363D01*
X184221097Y-123684363D02*
X184968873Y-123684363D01*
X184434747Y-122544895D02*
X184434747Y-122188811D01*
X184221097Y-122616112D02*
X184968873Y-122366853D01*
X184968873Y-122366853D02*
X184221097Y-122117594D01*
X190005964Y-84147273D02*
X190005964Y-83577539D01*
X189721097Y-83862406D02*
X190290831Y-83862406D01*
X190468873Y-82865371D02*
X190468873Y-83221455D01*
X190468873Y-83221455D02*
X190112789Y-83257063D01*
X190112789Y-83257063D02*
X190148398Y-83221455D01*
X190148398Y-83221455D02*
X190184006Y-83150238D01*
X190184006Y-83150238D02*
X190184006Y-82972196D01*
X190184006Y-82972196D02*
X190148398Y-82900979D01*
X190148398Y-82900979D02*
X190112789Y-82865371D01*
X190112789Y-82865371D02*
X190041573Y-82829762D01*
X190041573Y-82829762D02*
X189863531Y-82829762D01*
X189863531Y-82829762D02*
X189792314Y-82865371D01*
X189792314Y-82865371D02*
X189756706Y-82900979D01*
X189756706Y-82900979D02*
X189721097Y-82972196D01*
X189721097Y-82972196D02*
X189721097Y-83150238D01*
X189721097Y-83150238D02*
X189756706Y-83221455D01*
X189756706Y-83221455D02*
X189792314Y-83257063D01*
X190468873Y-82616112D02*
X189721097Y-82366853D01*
X189721097Y-82366853D02*
X190468873Y-82117594D01*
D12*
X137195948Y-107051160D02*
X136962268Y-107129053D01*
X136962268Y-107129053D02*
X136572802Y-107129053D01*
X136572802Y-107129053D02*
X136417015Y-107051160D01*
X136417015Y-107051160D02*
X136339122Y-106973266D01*
X136339122Y-106973266D02*
X136261228Y-106817480D01*
X136261228Y-106817480D02*
X136261228Y-106661693D01*
X136261228Y-106661693D02*
X136339122Y-106505906D01*
X136339122Y-106505906D02*
X136417015Y-106428013D01*
X136417015Y-106428013D02*
X136572802Y-106350120D01*
X136572802Y-106350120D02*
X136884375Y-106272226D01*
X136884375Y-106272226D02*
X137040162Y-106194333D01*
X137040162Y-106194333D02*
X137118055Y-106116440D01*
X137118055Y-106116440D02*
X137195948Y-105960653D01*
X137195948Y-105960653D02*
X137195948Y-105804866D01*
X137195948Y-105804866D02*
X137118055Y-105649080D01*
X137118055Y-105649080D02*
X137040162Y-105571186D01*
X137040162Y-105571186D02*
X136884375Y-105493293D01*
X136884375Y-105493293D02*
X136494908Y-105493293D01*
X136494908Y-105493293D02*
X136261228Y-105571186D01*
X135793868Y-106038546D02*
X135170721Y-106038546D01*
X135560188Y-105493293D02*
X135560188Y-106895373D01*
X135560188Y-106895373D02*
X135482295Y-107051160D01*
X135482295Y-107051160D02*
X135326508Y-107129053D01*
X135326508Y-107129053D02*
X135170721Y-107129053D01*
X134625468Y-107129053D02*
X134625468Y-106038546D01*
X134625468Y-105493293D02*
X134703361Y-105571186D01*
X134703361Y-105571186D02*
X134625468Y-105649080D01*
X134625468Y-105649080D02*
X134547575Y-105571186D01*
X134547575Y-105571186D02*
X134625468Y-105493293D01*
X134625468Y-105493293D02*
X134625468Y-105649080D01*
X133846535Y-106038546D02*
X133846535Y-107129053D01*
X133846535Y-106194333D02*
X133768642Y-106116440D01*
X133768642Y-106116440D02*
X133612855Y-106038546D01*
X133612855Y-106038546D02*
X133379175Y-106038546D01*
X133379175Y-106038546D02*
X133223388Y-106116440D01*
X133223388Y-106116440D02*
X133145495Y-106272226D01*
X133145495Y-106272226D02*
X133145495Y-107129053D01*
X132366562Y-107129053D02*
X132366562Y-105493293D01*
X132210775Y-106505906D02*
X131743415Y-107129053D01*
X131743415Y-106038546D02*
X132366562Y-106661693D01*
X131198162Y-106038546D02*
X130808695Y-107129053D01*
X130419228Y-106038546D02*
X130808695Y-107129053D01*
X130808695Y-107129053D02*
X130964482Y-107518520D01*
X130964482Y-107518520D02*
X131042375Y-107596413D01*
X131042375Y-107596413D02*
X131198162Y-107674306D01*
X128861362Y-106973266D02*
X128939255Y-107051160D01*
X128939255Y-107051160D02*
X129172935Y-107129053D01*
X129172935Y-107129053D02*
X129328722Y-107129053D01*
X129328722Y-107129053D02*
X129562402Y-107051160D01*
X129562402Y-107051160D02*
X129718189Y-106895373D01*
X129718189Y-106895373D02*
X129796082Y-106739586D01*
X129796082Y-106739586D02*
X129873975Y-106428013D01*
X129873975Y-106428013D02*
X129873975Y-106194333D01*
X129873975Y-106194333D02*
X129796082Y-105882760D01*
X129796082Y-105882760D02*
X129718189Y-105726973D01*
X129718189Y-105726973D02*
X129562402Y-105571186D01*
X129562402Y-105571186D02*
X129328722Y-105493293D01*
X129328722Y-105493293D02*
X129172935Y-105493293D01*
X129172935Y-105493293D02*
X128939255Y-105571186D01*
X128939255Y-105571186D02*
X128861362Y-105649080D01*
X127926642Y-107129053D02*
X128082429Y-107051160D01*
X128082429Y-107051160D02*
X128160322Y-106973266D01*
X128160322Y-106973266D02*
X128238215Y-106817480D01*
X128238215Y-106817480D02*
X128238215Y-106350120D01*
X128238215Y-106350120D02*
X128160322Y-106194333D01*
X128160322Y-106194333D02*
X128082429Y-106116440D01*
X128082429Y-106116440D02*
X127926642Y-106038546D01*
X127926642Y-106038546D02*
X127692962Y-106038546D01*
X127692962Y-106038546D02*
X127537175Y-106116440D01*
X127537175Y-106116440D02*
X127459282Y-106194333D01*
X127459282Y-106194333D02*
X127381389Y-106350120D01*
X127381389Y-106350120D02*
X127381389Y-106817480D01*
X127381389Y-106817480D02*
X127459282Y-106973266D01*
X127459282Y-106973266D02*
X127537175Y-107051160D01*
X127537175Y-107051160D02*
X127692962Y-107129053D01*
X127692962Y-107129053D02*
X127926642Y-107129053D01*
X126680349Y-106038546D02*
X126680349Y-107129053D01*
X126680349Y-106194333D02*
X126602456Y-106116440D01*
X126602456Y-106116440D02*
X126446669Y-106038546D01*
X126446669Y-106038546D02*
X126212989Y-106038546D01*
X126212989Y-106038546D02*
X126057202Y-106116440D01*
X126057202Y-106116440D02*
X125979309Y-106272226D01*
X125979309Y-106272226D02*
X125979309Y-107129053D01*
X125434056Y-106038546D02*
X124810909Y-106038546D01*
X125200376Y-105493293D02*
X125200376Y-106895373D01*
X125200376Y-106895373D02*
X125122483Y-107051160D01*
X125122483Y-107051160D02*
X124966696Y-107129053D01*
X124966696Y-107129053D02*
X124810909Y-107129053D01*
X124265656Y-107129053D02*
X124265656Y-106038546D01*
X124265656Y-106350120D02*
X124187763Y-106194333D01*
X124187763Y-106194333D02*
X124109869Y-106116440D01*
X124109869Y-106116440D02*
X123954083Y-106038546D01*
X123954083Y-106038546D02*
X123798296Y-106038546D01*
X123019363Y-107129053D02*
X123175150Y-107051160D01*
X123175150Y-107051160D02*
X123253043Y-106973266D01*
X123253043Y-106973266D02*
X123330936Y-106817480D01*
X123330936Y-106817480D02*
X123330936Y-106350120D01*
X123330936Y-106350120D02*
X123253043Y-106194333D01*
X123253043Y-106194333D02*
X123175150Y-106116440D01*
X123175150Y-106116440D02*
X123019363Y-106038546D01*
X123019363Y-106038546D02*
X122785683Y-106038546D01*
X122785683Y-106038546D02*
X122629896Y-106116440D01*
X122629896Y-106116440D02*
X122552003Y-106194333D01*
X122552003Y-106194333D02*
X122474110Y-106350120D01*
X122474110Y-106350120D02*
X122474110Y-106817480D01*
X122474110Y-106817480D02*
X122552003Y-106973266D01*
X122552003Y-106973266D02*
X122629896Y-107051160D01*
X122629896Y-107051160D02*
X122785683Y-107129053D01*
X122785683Y-107129053D02*
X123019363Y-107129053D01*
X121539390Y-107129053D02*
X121695177Y-107051160D01*
X121695177Y-107051160D02*
X121773070Y-106895373D01*
X121773070Y-106895373D02*
X121773070Y-105493293D01*
X120682563Y-107129053D02*
X120838350Y-107051160D01*
X120838350Y-107051160D02*
X120916243Y-106895373D01*
X120916243Y-106895373D02*
X120916243Y-105493293D01*
X119436269Y-107051160D02*
X119592056Y-107129053D01*
X119592056Y-107129053D02*
X119903629Y-107129053D01*
X119903629Y-107129053D02*
X120059416Y-107051160D01*
X120059416Y-107051160D02*
X120137309Y-106895373D01*
X120137309Y-106895373D02*
X120137309Y-106272226D01*
X120137309Y-106272226D02*
X120059416Y-106116440D01*
X120059416Y-106116440D02*
X119903629Y-106038546D01*
X119903629Y-106038546D02*
X119592056Y-106038546D01*
X119592056Y-106038546D02*
X119436269Y-106116440D01*
X119436269Y-106116440D02*
X119358376Y-106272226D01*
X119358376Y-106272226D02*
X119358376Y-106428013D01*
X119358376Y-106428013D02*
X120137309Y-106583800D01*
X118657336Y-107129053D02*
X118657336Y-106038546D01*
X118657336Y-106350120D02*
X118579443Y-106194333D01*
X118579443Y-106194333D02*
X118501549Y-106116440D01*
X118501549Y-106116440D02*
X118345763Y-106038546D01*
X118345763Y-106038546D02*
X118189976Y-106038546D01*
X116398430Y-107129053D02*
X116398430Y-105493293D01*
X116398430Y-105493293D02*
X115853177Y-106661693D01*
X115853177Y-106661693D02*
X115307923Y-105493293D01*
X115307923Y-105493293D02*
X115307923Y-107129053D01*
X114528990Y-107129053D02*
X114528990Y-105493293D01*
X114373203Y-106505906D02*
X113905843Y-107129053D01*
X113905843Y-106038546D02*
X114528990Y-106661693D01*
X112347976Y-107129053D02*
X113282696Y-107129053D01*
X112815336Y-107129053D02*
X112815336Y-105493293D01*
X112815336Y-105493293D02*
X112971123Y-105726973D01*
X112971123Y-105726973D02*
X113126910Y-105882760D01*
X113126910Y-105882760D02*
X113282696Y-105960653D01*
X137118055Y-109762535D02*
X137118055Y-108126775D01*
X137118055Y-108126775D02*
X136728588Y-108126775D01*
X136728588Y-108126775D02*
X136494908Y-108204668D01*
X136494908Y-108204668D02*
X136339122Y-108360455D01*
X136339122Y-108360455D02*
X136261228Y-108516242D01*
X136261228Y-108516242D02*
X136183335Y-108827815D01*
X136183335Y-108827815D02*
X136183335Y-109061495D01*
X136183335Y-109061495D02*
X136261228Y-109373068D01*
X136261228Y-109373068D02*
X136339122Y-109528855D01*
X136339122Y-109528855D02*
X136494908Y-109684642D01*
X136494908Y-109684642D02*
X136728588Y-109762535D01*
X136728588Y-109762535D02*
X137118055Y-109762535D01*
X134859148Y-109684642D02*
X135014935Y-109762535D01*
X135014935Y-109762535D02*
X135326508Y-109762535D01*
X135326508Y-109762535D02*
X135482295Y-109684642D01*
X135482295Y-109684642D02*
X135560188Y-109528855D01*
X135560188Y-109528855D02*
X135560188Y-108905708D01*
X135560188Y-108905708D02*
X135482295Y-108749922D01*
X135482295Y-108749922D02*
X135326508Y-108672028D01*
X135326508Y-108672028D02*
X135014935Y-108672028D01*
X135014935Y-108672028D02*
X134859148Y-108749922D01*
X134859148Y-108749922D02*
X134781255Y-108905708D01*
X134781255Y-108905708D02*
X134781255Y-109061495D01*
X134781255Y-109061495D02*
X135560188Y-109217282D01*
X134158108Y-109684642D02*
X134002322Y-109762535D01*
X134002322Y-109762535D02*
X133690748Y-109762535D01*
X133690748Y-109762535D02*
X133534962Y-109684642D01*
X133534962Y-109684642D02*
X133457068Y-109528855D01*
X133457068Y-109528855D02*
X133457068Y-109450962D01*
X133457068Y-109450962D02*
X133534962Y-109295175D01*
X133534962Y-109295175D02*
X133690748Y-109217282D01*
X133690748Y-109217282D02*
X133924428Y-109217282D01*
X133924428Y-109217282D02*
X134080215Y-109139388D01*
X134080215Y-109139388D02*
X134158108Y-108983602D01*
X134158108Y-108983602D02*
X134158108Y-108905708D01*
X134158108Y-108905708D02*
X134080215Y-108749922D01*
X134080215Y-108749922D02*
X133924428Y-108672028D01*
X133924428Y-108672028D02*
X133690748Y-108672028D01*
X133690748Y-108672028D02*
X133534962Y-108749922D01*
X132756028Y-109762535D02*
X132756028Y-108672028D01*
X132756028Y-108126775D02*
X132833921Y-108204668D01*
X132833921Y-108204668D02*
X132756028Y-108282562D01*
X132756028Y-108282562D02*
X132678135Y-108204668D01*
X132678135Y-108204668D02*
X132756028Y-108126775D01*
X132756028Y-108126775D02*
X132756028Y-108282562D01*
X131276055Y-108672028D02*
X131276055Y-109996215D01*
X131276055Y-109996215D02*
X131353948Y-110152002D01*
X131353948Y-110152002D02*
X131431842Y-110229895D01*
X131431842Y-110229895D02*
X131587628Y-110307788D01*
X131587628Y-110307788D02*
X131821308Y-110307788D01*
X131821308Y-110307788D02*
X131977095Y-110229895D01*
X131276055Y-109684642D02*
X131431842Y-109762535D01*
X131431842Y-109762535D02*
X131743415Y-109762535D01*
X131743415Y-109762535D02*
X131899202Y-109684642D01*
X131899202Y-109684642D02*
X131977095Y-109606748D01*
X131977095Y-109606748D02*
X132054988Y-109450962D01*
X132054988Y-109450962D02*
X132054988Y-108983602D01*
X132054988Y-108983602D02*
X131977095Y-108827815D01*
X131977095Y-108827815D02*
X131899202Y-108749922D01*
X131899202Y-108749922D02*
X131743415Y-108672028D01*
X131743415Y-108672028D02*
X131431842Y-108672028D01*
X131431842Y-108672028D02*
X131276055Y-108749922D01*
X130497122Y-108672028D02*
X130497122Y-109762535D01*
X130497122Y-108827815D02*
X130419229Y-108749922D01*
X130419229Y-108749922D02*
X130263442Y-108672028D01*
X130263442Y-108672028D02*
X130029762Y-108672028D01*
X130029762Y-108672028D02*
X129873975Y-108749922D01*
X129873975Y-108749922D02*
X129796082Y-108905708D01*
X129796082Y-108905708D02*
X129796082Y-109762535D01*
X128394002Y-109684642D02*
X128549789Y-109762535D01*
X128549789Y-109762535D02*
X128861362Y-109762535D01*
X128861362Y-109762535D02*
X129017149Y-109684642D01*
X129017149Y-109684642D02*
X129095042Y-109528855D01*
X129095042Y-109528855D02*
X129095042Y-108905708D01*
X129095042Y-108905708D02*
X129017149Y-108749922D01*
X129017149Y-108749922D02*
X128861362Y-108672028D01*
X128861362Y-108672028D02*
X128549789Y-108672028D01*
X128549789Y-108672028D02*
X128394002Y-108749922D01*
X128394002Y-108749922D02*
X128316109Y-108905708D01*
X128316109Y-108905708D02*
X128316109Y-109061495D01*
X128316109Y-109061495D02*
X129095042Y-109217282D01*
X126914029Y-109762535D02*
X126914029Y-108126775D01*
X126914029Y-109684642D02*
X127069816Y-109762535D01*
X127069816Y-109762535D02*
X127381389Y-109762535D01*
X127381389Y-109762535D02*
X127537176Y-109684642D01*
X127537176Y-109684642D02*
X127615069Y-109606748D01*
X127615069Y-109606748D02*
X127692962Y-109450962D01*
X127692962Y-109450962D02*
X127692962Y-108983602D01*
X127692962Y-108983602D02*
X127615069Y-108827815D01*
X127615069Y-108827815D02*
X127537176Y-108749922D01*
X127537176Y-108749922D02*
X127381389Y-108672028D01*
X127381389Y-108672028D02*
X127069816Y-108672028D01*
X127069816Y-108672028D02*
X126914029Y-108749922D01*
X124888803Y-109762535D02*
X124888803Y-108126775D01*
X124888803Y-108749922D02*
X124733016Y-108672028D01*
X124733016Y-108672028D02*
X124421443Y-108672028D01*
X124421443Y-108672028D02*
X124265656Y-108749922D01*
X124265656Y-108749922D02*
X124187763Y-108827815D01*
X124187763Y-108827815D02*
X124109870Y-108983602D01*
X124109870Y-108983602D02*
X124109870Y-109450962D01*
X124109870Y-109450962D02*
X124187763Y-109606748D01*
X124187763Y-109606748D02*
X124265656Y-109684642D01*
X124265656Y-109684642D02*
X124421443Y-109762535D01*
X124421443Y-109762535D02*
X124733016Y-109762535D01*
X124733016Y-109762535D02*
X124888803Y-109684642D01*
X123564617Y-108672028D02*
X123175150Y-109762535D01*
X122785683Y-108672028D02*
X123175150Y-109762535D01*
X123175150Y-109762535D02*
X123330937Y-110152002D01*
X123330937Y-110152002D02*
X123408830Y-110229895D01*
X123408830Y-110229895D02*
X123564617Y-110307788D01*
X120370991Y-108905708D02*
X120137311Y-108983602D01*
X120137311Y-108983602D02*
X120059417Y-109061495D01*
X120059417Y-109061495D02*
X119981524Y-109217282D01*
X119981524Y-109217282D02*
X119981524Y-109450962D01*
X119981524Y-109450962D02*
X120059417Y-109606748D01*
X120059417Y-109606748D02*
X120137311Y-109684642D01*
X120137311Y-109684642D02*
X120293097Y-109762535D01*
X120293097Y-109762535D02*
X120916244Y-109762535D01*
X120916244Y-109762535D02*
X120916244Y-108126775D01*
X120916244Y-108126775D02*
X120370991Y-108126775D01*
X120370991Y-108126775D02*
X120215204Y-108204668D01*
X120215204Y-108204668D02*
X120137311Y-108282562D01*
X120137311Y-108282562D02*
X120059417Y-108438348D01*
X120059417Y-108438348D02*
X120059417Y-108594135D01*
X120059417Y-108594135D02*
X120137311Y-108749922D01*
X120137311Y-108749922D02*
X120215204Y-108827815D01*
X120215204Y-108827815D02*
X120370991Y-108905708D01*
X120370991Y-108905708D02*
X120916244Y-108905708D01*
X118657337Y-109684642D02*
X118813124Y-109762535D01*
X118813124Y-109762535D02*
X119124697Y-109762535D01*
X119124697Y-109762535D02*
X119280484Y-109684642D01*
X119280484Y-109684642D02*
X119358377Y-109528855D01*
X119358377Y-109528855D02*
X119358377Y-108905708D01*
X119358377Y-108905708D02*
X119280484Y-108749922D01*
X119280484Y-108749922D02*
X119124697Y-108672028D01*
X119124697Y-108672028D02*
X118813124Y-108672028D01*
X118813124Y-108672028D02*
X118657337Y-108749922D01*
X118657337Y-108749922D02*
X118579444Y-108905708D01*
X118579444Y-108905708D02*
X118579444Y-109061495D01*
X118579444Y-109061495D02*
X119358377Y-109217282D01*
X117878404Y-108672028D02*
X117878404Y-109762535D01*
X117878404Y-108827815D02*
X117800511Y-108749922D01*
X117800511Y-108749922D02*
X117644724Y-108672028D01*
X117644724Y-108672028D02*
X117411044Y-108672028D01*
X117411044Y-108672028D02*
X117255257Y-108749922D01*
X117255257Y-108749922D02*
X117177364Y-108905708D01*
X117177364Y-108905708D02*
X117177364Y-109762535D01*
X116398431Y-108672028D02*
X116398431Y-110074108D01*
X116398431Y-110074108D02*
X116476324Y-110229895D01*
X116476324Y-110229895D02*
X116632111Y-110307788D01*
X116632111Y-110307788D02*
X116710004Y-110307788D01*
X116398431Y-108126775D02*
X116476324Y-108204668D01*
X116476324Y-108204668D02*
X116398431Y-108282562D01*
X116398431Y-108282562D02*
X116320538Y-108204668D01*
X116320538Y-108204668D02*
X116398431Y-108126775D01*
X116398431Y-108126775D02*
X116398431Y-108282562D01*
X114918458Y-109762535D02*
X114918458Y-108905708D01*
X114918458Y-108905708D02*
X114996351Y-108749922D01*
X114996351Y-108749922D02*
X115152138Y-108672028D01*
X115152138Y-108672028D02*
X115463711Y-108672028D01*
X115463711Y-108672028D02*
X115619498Y-108749922D01*
X114918458Y-109684642D02*
X115074245Y-109762535D01*
X115074245Y-109762535D02*
X115463711Y-109762535D01*
X115463711Y-109762535D02*
X115619498Y-109684642D01*
X115619498Y-109684642D02*
X115697391Y-109528855D01*
X115697391Y-109528855D02*
X115697391Y-109373068D01*
X115697391Y-109373068D02*
X115619498Y-109217282D01*
X115619498Y-109217282D02*
X115463711Y-109139388D01*
X115463711Y-109139388D02*
X115074245Y-109139388D01*
X115074245Y-109139388D02*
X114918458Y-109061495D01*
X114139525Y-109762535D02*
X114139525Y-108672028D01*
X114139525Y-108827815D02*
X114061632Y-108749922D01*
X114061632Y-108749922D02*
X113905845Y-108672028D01*
X113905845Y-108672028D02*
X113672165Y-108672028D01*
X113672165Y-108672028D02*
X113516378Y-108749922D01*
X113516378Y-108749922D02*
X113438485Y-108905708D01*
X113438485Y-108905708D02*
X113438485Y-109762535D01*
X113438485Y-108905708D02*
X113360592Y-108749922D01*
X113360592Y-108749922D02*
X113204805Y-108672028D01*
X113204805Y-108672028D02*
X112971125Y-108672028D01*
X112971125Y-108672028D02*
X112815338Y-108749922D01*
X112815338Y-108749922D02*
X112737445Y-108905708D01*
X112737445Y-108905708D02*
X112737445Y-109762535D01*
X111958512Y-109762535D02*
X111958512Y-108672028D01*
X111958512Y-108126775D02*
X112036405Y-108204668D01*
X112036405Y-108204668D02*
X111958512Y-108282562D01*
X111958512Y-108282562D02*
X111880619Y-108204668D01*
X111880619Y-108204668D02*
X111958512Y-108126775D01*
X111958512Y-108126775D02*
X111958512Y-108282562D01*
X111179579Y-108672028D02*
X111179579Y-109762535D01*
X111179579Y-108827815D02*
X111101686Y-108749922D01*
X111101686Y-108749922D02*
X110945899Y-108672028D01*
X110945899Y-108672028D02*
X110712219Y-108672028D01*
X110712219Y-108672028D02*
X110556432Y-108749922D01*
X110556432Y-108749922D02*
X110478539Y-108905708D01*
X110478539Y-108905708D02*
X110478539Y-109762535D01*
X108453313Y-109762535D02*
X108453313Y-108126775D01*
X108453313Y-108126775D02*
X107518593Y-109762535D01*
X107518593Y-109762535D02*
X107518593Y-108126775D01*
X106505980Y-109762535D02*
X106661767Y-109684642D01*
X106661767Y-109684642D02*
X106739660Y-109606748D01*
X106739660Y-109606748D02*
X106817553Y-109450962D01*
X106817553Y-109450962D02*
X106817553Y-108983602D01*
X106817553Y-108983602D02*
X106739660Y-108827815D01*
X106739660Y-108827815D02*
X106661767Y-108749922D01*
X106661767Y-108749922D02*
X106505980Y-108672028D01*
X106505980Y-108672028D02*
X106272300Y-108672028D01*
X106272300Y-108672028D02*
X106116513Y-108749922D01*
X106116513Y-108749922D02*
X106038620Y-108827815D01*
X106038620Y-108827815D02*
X105960727Y-108983602D01*
X105960727Y-108983602D02*
X105960727Y-109450962D01*
X105960727Y-109450962D02*
X106038620Y-109606748D01*
X106038620Y-109606748D02*
X106116513Y-109684642D01*
X106116513Y-109684642D02*
X106272300Y-109762535D01*
X106272300Y-109762535D02*
X106505980Y-109762535D01*
X105493367Y-108672028D02*
X104870220Y-108672028D01*
X105259687Y-108126775D02*
X105259687Y-109528855D01*
X105259687Y-109528855D02*
X105181794Y-109684642D01*
X105181794Y-109684642D02*
X105026007Y-109762535D01*
X105026007Y-109762535D02*
X104870220Y-109762535D01*
X104091287Y-109762535D02*
X104247074Y-109684642D01*
X104247074Y-109684642D02*
X104324967Y-109606748D01*
X104324967Y-109606748D02*
X104402860Y-109450962D01*
X104402860Y-109450962D02*
X104402860Y-108983602D01*
X104402860Y-108983602D02*
X104324967Y-108827815D01*
X104324967Y-108827815D02*
X104247074Y-108749922D01*
X104247074Y-108749922D02*
X104091287Y-108672028D01*
X104091287Y-108672028D02*
X103857607Y-108672028D01*
X103857607Y-108672028D02*
X103701820Y-108749922D01*
X103701820Y-108749922D02*
X103623927Y-108827815D01*
X103623927Y-108827815D02*
X103546034Y-108983602D01*
X103546034Y-108983602D02*
X103546034Y-109450962D01*
X103546034Y-109450962D02*
X103623927Y-109606748D01*
X103623927Y-109606748D02*
X103701820Y-109684642D01*
X103701820Y-109684642D02*
X103857607Y-109762535D01*
X103857607Y-109762535D02*
X104091287Y-109762535D01*
X137118055Y-112396017D02*
X137118055Y-110760257D01*
X137118055Y-111383404D02*
X136962268Y-111305510D01*
X136962268Y-111305510D02*
X136650695Y-111305510D01*
X136650695Y-111305510D02*
X136494908Y-111383404D01*
X136494908Y-111383404D02*
X136417015Y-111461297D01*
X136417015Y-111461297D02*
X136339122Y-111617084D01*
X136339122Y-111617084D02*
X136339122Y-112084444D01*
X136339122Y-112084444D02*
X136417015Y-112240230D01*
X136417015Y-112240230D02*
X136494908Y-112318124D01*
X136494908Y-112318124D02*
X136650695Y-112396017D01*
X136650695Y-112396017D02*
X136962268Y-112396017D01*
X136962268Y-112396017D02*
X137118055Y-112318124D01*
X135793869Y-111305510D02*
X135482295Y-112396017D01*
X135482295Y-112396017D02*
X135170722Y-111617084D01*
X135170722Y-111617084D02*
X134859149Y-112396017D01*
X134859149Y-112396017D02*
X134547575Y-111305510D01*
X133690749Y-112396017D02*
X133846536Y-112318124D01*
X133846536Y-112318124D02*
X133924429Y-112240230D01*
X133924429Y-112240230D02*
X134002322Y-112084444D01*
X134002322Y-112084444D02*
X134002322Y-111617084D01*
X134002322Y-111617084D02*
X133924429Y-111461297D01*
X133924429Y-111461297D02*
X133846536Y-111383404D01*
X133846536Y-111383404D02*
X133690749Y-111305510D01*
X133690749Y-111305510D02*
X133457069Y-111305510D01*
X133457069Y-111305510D02*
X133301282Y-111383404D01*
X133301282Y-111383404D02*
X133223389Y-111461297D01*
X133223389Y-111461297D02*
X133145496Y-111617084D01*
X133145496Y-111617084D02*
X133145496Y-112084444D01*
X133145496Y-112084444D02*
X133223389Y-112240230D01*
X133223389Y-112240230D02*
X133301282Y-112318124D01*
X133301282Y-112318124D02*
X133457069Y-112396017D01*
X133457069Y-112396017D02*
X133690749Y-112396017D01*
X131743416Y-112396017D02*
X131743416Y-111539190D01*
X131743416Y-111539190D02*
X131821309Y-111383404D01*
X131821309Y-111383404D02*
X131977096Y-111305510D01*
X131977096Y-111305510D02*
X132288669Y-111305510D01*
X132288669Y-111305510D02*
X132444456Y-111383404D01*
X131743416Y-112318124D02*
X131899203Y-112396017D01*
X131899203Y-112396017D02*
X132288669Y-112396017D01*
X132288669Y-112396017D02*
X132444456Y-112318124D01*
X132444456Y-112318124D02*
X132522349Y-112162337D01*
X132522349Y-112162337D02*
X132522349Y-112006550D01*
X132522349Y-112006550D02*
X132444456Y-111850764D01*
X132444456Y-111850764D02*
X132288669Y-111772870D01*
X132288669Y-111772870D02*
X131899203Y-111772870D01*
X131899203Y-111772870D02*
X131743416Y-111694977D01*
X130964483Y-112396017D02*
X130964483Y-110760257D01*
X130263443Y-112396017D02*
X130263443Y-111539190D01*
X130263443Y-111539190D02*
X130341336Y-111383404D01*
X130341336Y-111383404D02*
X130497123Y-111305510D01*
X130497123Y-111305510D02*
X130730803Y-111305510D01*
X130730803Y-111305510D02*
X130886590Y-111383404D01*
X130886590Y-111383404D02*
X130964483Y-111461297D01*
D11*
X189882180Y-134183191D02*
X189882180Y-133471024D01*
X189526096Y-133827107D02*
X190238264Y-133827107D01*
X190460816Y-132580814D02*
X190460816Y-133025919D01*
X190460816Y-133025919D02*
X190015711Y-133070430D01*
X190015711Y-133070430D02*
X190060222Y-133025919D01*
X190060222Y-133025919D02*
X190104732Y-132936898D01*
X190104732Y-132936898D02*
X190104732Y-132714346D01*
X190104732Y-132714346D02*
X190060222Y-132625325D01*
X190060222Y-132625325D02*
X190015711Y-132580814D01*
X190015711Y-132580814D02*
X189926690Y-132536304D01*
X189926690Y-132536304D02*
X189704138Y-132536304D01*
X189704138Y-132536304D02*
X189615117Y-132580814D01*
X189615117Y-132580814D02*
X189570607Y-132625325D01*
X189570607Y-132625325D02*
X189526096Y-132714346D01*
X189526096Y-132714346D02*
X189526096Y-132936898D01*
X189526096Y-132936898D02*
X189570607Y-133025919D01*
X189570607Y-133025919D02*
X189615117Y-133070430D01*
X190460816Y-132269241D02*
X189526096Y-131957667D01*
X189526096Y-131957667D02*
X190460816Y-131646094D01*
M02*
