M48
; DRILL file {KiCad 9.0.3} date 2025-11-15T13:43:35-0500
; FORMAT={-:-/ absolute / metric / decimal}
; #@! TF.CreationDate,2025-11-15T13:43:35-05:00
; #@! TF.GenerationSoftware,Kicad,Pcbnew,9.0.3
; #@! TF.FileFunction,Plated,1,2,PTH
FMAT,2
METRIC
; #@! TA.AperFunction,Plated,PTH,ViaDrill
T1C0.400
; #@! TA.AperFunction,Plated,PTH,ViaDrill
T2C0.500
; #@! TA.AperFunction,Plated,PTH,ComponentDrill
T3C0.900
; #@! TA.AperFunction,Plated,PTH,ComponentDrill
T4C1.000
; #@! TA.AperFunction,Plated,PTH,ComponentDrill
T5C1.016
; #@! TA.AperFunction,Plated,PTH,ComponentDrill
T6C1.143
; #@! TA.AperFunction,Plated,PTH,ComponentDrill
T7C1.270
; #@! TA.AperFunction,Plated,PTH,ComponentDrill
T8C1.600
; #@! TA.AperFunction,Plated,PTH,ComponentDrill
T9C1.750
%
G90
G05
T1
X107.001Y-120.504
X107.001Y-135.004
X108.501Y-135.004
X109.001Y-120.504
X109.501Y-132.204
X110.501Y-121.004
X115.001Y-121.004
X115.101Y-135.204
X116.501Y-135.204
X117.001Y-121.004
X117.401Y-132.204
X118.001Y-120.004
X123.001Y-120.004
X123.101Y-135.304
X124.501Y-120.504
X124.601Y-135.504
X125.401Y-132.204
X127.001Y-121.004
X129.001Y-132.304
X150.701Y-127.804
X166.001Y-106.004
X167.001Y-109.004
X168.001Y-101.004
X169.001Y-104.004
X169.601Y-135.004
X170.001Y-94.004
X171.001Y-96.004
X171.101Y-134.904
X172.001Y-95.004
X173.001Y-94.004
X174.001Y-93.004
X174.001Y-118.204
X174.201Y-126.204
X175.001Y-92.004
X187.201Y-109.804
X187.201Y-116.004
X190.001Y-109.804
X190.201Y-124.004
X193.001Y-110.004
T2
X103.501Y-126.504
X103.501Y-132.504
X104.001Y-69.004
X104.001Y-71.004
X104.001Y-73.004
X107.001Y-141.304
X108.001Y-69.004
X108.001Y-71.004
X108.001Y-73.004
X108.501Y-130.504
X112.001Y-69.004
X112.001Y-71.004
X112.001Y-73.004
X113.001Y-128.004
X116.501Y-130.504
X119.001Y-69.004
X119.001Y-71.004
X119.001Y-73.004
X121.001Y-128.004
X123.001Y-69.004
X123.001Y-71.004
X123.001Y-73.004
X124.501Y-130.504
X127.001Y-69.004
X127.001Y-71.004
X127.001Y-73.004
X129.501Y-121.504
X129.501Y-123.504
X129.501Y-125.504
X129.501Y-127.504
X129.501Y-133.504
X129.501Y-134.804
X131.001Y-133.004
X134.001Y-69.004
X134.001Y-71.004
X134.001Y-73.004
X138.001Y-69.004
X138.001Y-71.004
X138.001Y-73.004
X138.501Y-124.504
X138.501Y-130.504
X142.001Y-69.004
X142.001Y-71.004
X142.001Y-73.004
X143.501Y-125.504
X145.001Y-132.304
X145.501Y-70.504
X145.501Y-73.004
X145.501Y-75.504
X145.501Y-114.504
X145.501Y-119.504
X147.501Y-70.504
X147.501Y-73.004
X147.501Y-75.504
X147.501Y-78.504
X147.501Y-82.004
X149.501Y-70.504
X149.501Y-75.504
X149.501Y-114.504
X149.501Y-119.504
X151.501Y-70.504
X151.501Y-75.504
X156.501Y-132.504
X157.501Y-92.504
X157.501Y-98.504
X157.501Y-109.004
X157.501Y-114.004
X157.501Y-119.004
X157.501Y-123.004
X157.501Y-127.004
X158.501Y-70.504
X158.501Y-76.004
X158.501Y-104.004
X163.001Y-70.004
X163.001Y-74.004
X163.001Y-78.004
X164.501Y-110.504
X164.501Y-114.504
X164.501Y-119.504
X165.001Y-70.004
X165.001Y-74.004
X165.001Y-78.004
X166.501Y-140.504
X167.001Y-70.004
X167.001Y-74.004
X167.001Y-78.004
X172.001Y-89.004
X174.001Y-70.004
X174.001Y-74.004
X174.001Y-78.004
X176.001Y-70.004
X176.001Y-74.004
X176.001Y-78.004
X177.501Y-95.504
X177.501Y-100.504
X177.501Y-105.504
X177.501Y-110.504
X177.501Y-115.504
X177.501Y-118.504
X177.501Y-123.504
X177.501Y-140.504
X178.001Y-70.004
X178.001Y-74.004
X178.001Y-78.004
X184.501Y-102.504
X185.501Y-140.504
X186.501Y-71.504
X189.501Y-86.504
X192.501Y-86.504
T3
X150.501Y-90.004
X150.501Y-104.004
X155.501Y-90.004
X155.501Y-104.004
T4
X162.841Y-93.144
X162.841Y-95.684
X162.841Y-98.224
X162.841Y-100.764
X162.841Y-103.304
X162.841Y-105.844
X162.841Y-108.384
X162.841Y-110.924
X162.841Y-113.464
X162.841Y-116.004
X162.841Y-118.544
X162.841Y-121.084
X162.841Y-123.624
X162.841Y-126.164
X162.841Y-128.704
X162.841Y-131.244
X162.841Y-133.784
X162.841Y-136.324
X162.841Y-138.864
X162.841Y-141.404
X180.621Y-93.144
X180.621Y-95.684
X180.621Y-98.224
X180.621Y-100.764
X180.621Y-103.304
X180.621Y-105.844
X180.621Y-108.384
X180.621Y-110.924
X180.621Y-113.464
X180.621Y-116.004
X180.621Y-118.544
X180.621Y-121.084
X180.621Y-123.624
X180.621Y-126.164
X180.621Y-128.704
X180.621Y-131.244
X180.621Y-133.784
X180.621Y-136.324
X180.621Y-138.864
X180.621Y-141.404
T5
X149.461Y-133.194
X152.001Y-133.194
X154.541Y-133.194
X186.55Y-113.343
X186.55Y-117.864
X193.052Y-113.343
X193.052Y-117.864
T6
X105.461Y-93.004
X105.461Y-99.004
X108.001Y-93.004
X108.001Y-99.004
X110.541Y-93.004
X110.541Y-99.004
X120.461Y-93.004
X120.461Y-99.004
X123.001Y-93.004
X123.001Y-99.004
X125.541Y-93.004
X125.541Y-99.004
X135.461Y-93.004
X135.461Y-99.004
X138.001Y-93.004
X138.001Y-99.004
X140.541Y-93.004
X140.541Y-99.004
T8
X187.001Y-78.804
X187.001Y-83.004
X187.041Y-123.954
X187.041Y-128.154
X187.041Y-132.354
X192.501Y-78.804
X192.501Y-83.004
X192.541Y-123.954
X192.541Y-128.154
X192.541Y-132.354
T9
X164.531Y-85.004
X164.531Y-88.404
X178.001Y-85.004
X178.001Y-88.404
T7
X109.981Y-71.004G85X106.021Y-71.004
G05
X124.981Y-71.004G85X121.021Y-71.004
G05
X139.981Y-71.004G85X136.021Y-71.004
G05
X166.981Y-71.0G85X163.021Y-71.0
G05
X177.98Y-71.0G85X174.02Y-71.0
G05
M30
